<svg xmlns="http://www.w3.org/2000/svg" width="1530.916" height="175.86"><path data-name="パス 598" d="M160.063.509a1.971 1.971 0 0 0-1.32-.4 16.88 16.88 0 0 0-4.488.132c-4.092.264-8.316.792-12.276 1.056-4.884.4-9.9.924-14.916 1.584-1.056.132-2.244.132-3.432.264-3.3.528-6.732.4-10.164 1.188a32.553 32.553 0 0 1-5.148.4c-2.772.264-5.808.528-8.58 1.056a21.585 21.585 0 0 1-8.712.132 2.288 2.288 0 0 0-1.584.132 11.5 11.5 0 0 1-5.808 1.452c-2.112.264-4.488.528-7 1.056a11.714 11.714 0 0 1-1.98.264c-2.9.264-5.94.528-8.844 1.056-4.62.792-9.372 1.056-13.992 2.112a3.678 3.678 0 0 1-1.32.132c-2.376.4-5.016.66-7.524 1.188-5.016.924-10.164 2.112-15.444 2.772a52.691 52.691 0 0 0-6.2 1.452c-2.776.528-5.276 1.188-8.052 1.848a4.225 4.225 0 0 0-3.168 4.488c0 .528.132 1.188.792 1.32s1.052-.528 1.716-.928c-.264-.66-.132-.924.4-1.056 1.452-.264 2.9-.66 4.356-.792l14.38-2.24c4.488-1.056 9.24-1.452 13.86-2.112 2.112-.4 4.224-.66 6.2-1.056a3.25 3.25 0 0 1 1.584-.132c.132.132.4.132.4.264.132.528-.264.528-.66.66h-.132a42.37 42.37 0 0 0-8.052 1.188c-5.808.792-11.352 1.848-17.16 2.64-4.62.66-9.24 1.452-13.86 2.244a13.7 13.7 0 0 1-1.32.528 21.919 21.919 0 0 0 2.9-.4c4.752-.792 9.768-1.584 14.52-2.376l12.8-1.98c4.092-.528 8.052-1.188 12.144-1.584 2.64-.4 5.412-.66 7.788-1.056 5.148-.66 10.164-1.32 15.312-1.716a17.323 17.323 0 0 1 3.564-.4c1.056-.132 1.452.528 1.056 1.452l-1.32 2.508c-1.188 1.584-2.376 3.432-3.564 5.016-2.1 3.44-4.344 6.74-6.46 10.172-2.376 3.564-4.62 7.392-7 10.956-3.16 4.884-6.2 9.772-9.1 14.52-3.828 5.676-7.392 11.484-10.824 17.292-1.848 2.772-3.564 5.808-5.148 8.712-4.752 7.656-9.504 15.312-14.128 22.968-1.188 2.112-2.376 4.488-3.564 6.6-3.3 5.148-6.336 10.428-9.5 15.84-3.436 6.34-6.736 12.672-10.164 18.876a29.558 29.558 0 0 0-1.584 3.828 11.6 11.6 0 0 0-.264 4.224 1.184 1.184 0 0 0 1.32 1.32 2.034 2.034 0 0 0 1.716-1.188 4.987 4.987 0 0 0 1.188-1.584 47.36 47.36 0 0 1 2.772-4.62 8.684 8.684 0 0 1-.528 1.984 4.726 4.726 0 0 0 1.452-3.3 2.606 2.606 0 0 1 .792-1.584c.792-.132.924-.792 1.056-1.452l-1.192 1.448a17.184 17.184 0 0 1 1.06-2.244c1.716-3.3 3.432-6.732 5.412-10.032 1.452-2.64 3.3-5.016 4.62-7.656 4.62-8.052 9.372-15.708 13.86-23.628a26.58 26.58 0 0 1 2.9-3.828c-.4.4-.4.924-.528 1.584 1.06-1.188 2.512-2.508 1.72-4.224a15.759 15.759 0 0 0 1.056-2.112 2.319 2.319 0 0 0 1.188-1.32 36.873 36.873 0 0 1 2.376-4.488 6.461 6.461 0 0 1 1.584-1.716h-.132c.4 0 .792-.132.792-.66a2.688 2.688 0 0 1 .528-2.112c1.584-2.376 2.9-4.884 4.488-7.26a14.941 14.941 0 0 0 1.32-1.716c.4-.132.528-.132.66 0a3.831 3.831 0 0 0 1.584-2.9c-.132-.66.4-1.188.66-1.584a9.242 9.242 0 0 0 1.188-2.244 8.172 8.172 0 0 1 1.452-2.244 53.679 53.679 0 0 1 4.092-7 18.588 18.588 0 0 1 3.564-4.884 3.108 3.108 0 0 0 .66-1.32c.924-1.848 1.584-3.564 3.3-4.884a16.682 16.682 0 0 1 1.716-3.432c.4-.792 1.056-1.452 1.584-2.376 2.772-4.224 5.28-8.58 8.052-12.8a58.531 58.531 0 0 1 3.828-5.544c1.056-1.98 2.112-3.828 3.168-5.676a7.965 7.965 0 0 1 1.056-1.056c.132-.4.528-.4.792-.132.528-.528 1.056-1.188.792-1.848a2.036 2.036 0 0 1 .924-2.112c1.32-.792 2.64-1.98 4.488-2.112a58.6 58.6 0 0 0 8.052-1.056 52.278 52.278 0 0 0 6.864-.924 17.6 17.6 0 0 0-2.64 0l-9.636.924c-.132 0-.132-.132-.264-.132a.461.461 0 0 1 .132-.264 16.7 16.7 0 0 1 7.388-1.192 28.85 28.85 0 0 0 8.844-.924 7.621 7.621 0 0 1 3.7-.528c.528 0 1.056 0 1.056.66-.264.264-.66.264-1.056.4h-1.98c-.792.264-1.716.264-2.9.528a2.051 2.051 0 0 0 2.112.132c4.092-.264 8.184-.792 12.012-1.188 1.452-.264 2.9-.4 4.224-.528 2.508 0 4.884-.528 7.524-.792.528-.264.66-.528.528-.924a.848.848 0 0 1 .66-.66c1.584 0 3.432-.4 5.148-.528 1.716 0 3.7-.4 5.544-.264a2.246 2.246 0 0 0 .924-.132 28.408 28.408 0 0 1 6.6-.924c.264 0 .66-.264.924-.264.528-.132.792-.264.924-.792.264-.4-.132-.792-.528-.924a3.45 3.45 0 0 0-1.056-.4 14.492 14.492 0 0 0-3.432.264 40.876 40.876 0 0 1-5.544.264 28.015 28.015 0 0 1-9.24.792c-1.98.792-3.96.66-6.072 1.056-5.148.66-10.428.792-15.84 1.584-3.036.528-6.336.66-9.372.924-4.092.528-8.316 1.056-12.54 1.32a1.051 1.051 0 0 1-1.452-.132 4.544 4.544 0 0 1 2.504-.528c1.98-.264 3.96-.4 5.94-.66 4.488-.66 8.976-1.056 13.6-1.452a95.576 95.576 0 0 0 10.3-1.32c1.848-.132 3.564-.132 5.148-.264.264-.132.66 0 .924-.132a20.442 20.442 0 0 1 6.864-.4 3.152 3.152 0 0 1 1.188-.264c2.772-.132 5.412-.792 8.052-.528.66-.132 1.056-.528 1.584-.528l5.676-.4a10.811 10.811 0 0 0 3.96-.924c.256-.128.388-.652.256-.784Zm-23.628 7h.4l-.132.264h-.264c-.136-.268-.004-.268-.004-.268Zm-7.788.264a23.158 23.158 0 0 1 5.148.4c-3.7 1.056-5.676 1.056-7.524.264a4.343 4.343 0 0 1 2.376-.672Zm-7.788 1.32c.132 0 .132.132.4.132l-.4.264c-.132.264-.264 0-.264 0 0-.268.132-.4.26-.4Zm2.64 0h.132a.129.129 0 0 1-.132.132.129.129 0 0 1-.132.132c-.132-.136-.132-.268.132-.268Zm-38.412.924a.989.989 0 0 1-.66.132 61.66 61.66 0 0 0-6.864 1.056 21.18 21.18 0 0 1-4.092 0 11.264 11.264 0 0 1-4.092.792c-6.468.924-12.8 1.716-19.272 2.772a9.826 9.826 0 0 1-1.98 0 .986.986 0 0 1-.4-.4c-.132-.4.264-.4.66-.66a10.829 10.829 0 0 1 2.9-.264 13.788 13.788 0 0 0 3.3 0 24.511 24.511 0 0 0 4.488-.66l1.056-.132c.924 0 1.32-1.056 2.244-1.056.66.264 1.452.528 1.848.264 2.112-.924 3.828.264 5.808-.66h3.564a7.154 7.154 0 0 1 3.96-1.056 57.038 57.038 0 0 0 6.6-.4c.264 0 .66-.264.924-.264a.488.488 0 0 0 .4.264c-.124.136-.26.268-.392.268Zm-1.584 3.564c-.132.132-.264.132-.528.4a5.717 5.717 0 0 1-.66.132l-6.336.792-1.056-.264-.132-.264.264-.264c2.64-.4 5.148-.66 7.656-.924.132-.264.66 0 .792.132.132-.008 0 .124 0 .256Zm-41.712 2.108a8.013 8.013 0 0 1-2.376.66c-2.772.4-5.544.792-8.316 1.32-2.244.528-4.488 1.056-6.732 1.452a38.691 38.691 0 0 1-3.828.66c-2.64 1.056-5.016 1.188-7.656 1.848-.4 0-.528 0-.66-.132 0 0-.132 0-.132-.264.132 0 .132-.264.264-.264a2.879 2.879 0 0 1 .66-.528c.924-.264 1.716-.4 2.508-.66 5.544-1.056 11.22-2.244 16.632-3.168a17.721 17.721 0 0 1 4.62-.528c1.584 0 3.432-.528 5.016-.4.66-.264 1.188-.66 1.98-.924a2.033 2.033 0 0 1 2.112.264 9.184 9.184 0 0 1-4.092.664Zm29.964-.66h-.264l.264-.132Zm-4.752.66a24.854 24.854 0 0 1-4.092.528 16.787 16.787 0 0 1-4.224.528c-.264 0-.528.132-.924.132h-.132c0-.132 0-.132.264-.132h.792a1.768 1.768 0 0 1 1.848-.66c.924 0 1.452.132 2.376.132a2.109 2.109 0 0 1 1.32-.66 18.688 18.688 0 0 0 2.64-.528 1.935 1.935 0 0 1 .528.264.421.421 0 0 1-.396.396Zm1.052 35.64a.409.409 0 0 1 .132-.264c0-.264-.132-.4-.132-.66a1.19 1.19 0 0 1-.132.66c.004.264.004.264.132.264Zm-32.2 52.008h.132v-.264Zm90.68-8.972c-.264-.264-.264-.528 0-.924a1.134 1.134 0 0 0-.132-1.716 2.435 2.435 0 0 1-.66-1.584c0-.924-.528-1.32-1.452-1.056l-1.188.4c-1.32.528-2.64 1.056-3.96 1.452l-6.2 2.376a81.918 81.918 0 0 1-10.828 3.952h-.4a35.907 35.907 0 0 1-6.46 1.716c-2.244.264-4.62.528-6.864.66a15.068 15.068 0 0 1-4.884-.66 2.653 2.653 0 0 1-1.056-.528.8.8 0 0 1 .132-1.32 2.447 2.447 0 0 1 .924-.264 62.613 62.613 0 0 0 5.94-1.98c.264-.132.66-.132 1.056-.264a.129.129 0 0 1 .132.132v.264l-.528.4a19.7 19.7 0 0 1-5.28 1.98 1.674 1.674 0 0 0-.792.132c-.132 0-.4.132-.4.264 0 .264.264.264.4.264a4.491 4.491 0 0 0 1.32-.136 47.613 47.613 0 0 0 8.052-3.432 3.42 3.42 0 0 0 1.452-1.32 11.722 11.722 0 0 1 2.112-2.9 4.6 4.6 0 0 0 1.32-3.828 14.063 14.063 0 0 0-2.244-6.6 4.1 4.1 0 0 0-3.7-1.98 9.811 9.811 0 0 0-6.2 2.112 40.819 40.819 0 0 0-5.412 5.28 13.48 13.48 0 0 0-3.168 8.58c0 1.452 0 3.036.132 4.488a10.558 10.558 0 0 0 2.9 5.94 10.76 10.76 0 0 0 7.256 2.9 46.773 46.773 0 0 0 9.64-.924 98.016 98.016 0 0 0 14.916-4.752 121 121 0 0 0 11.88-5.412 3.89 3.89 0 0 1 1.716-.66 1.876 1.876 0 0 0 .792-.264c-.132-.264-.132-.528-.264-.788ZM89.707 81.029c.4-.132.528-.264.132-.66 0-.132.132-.4.264-.4a5.565 5.565 0 0 1 2.508-.4c.132.132.264.132.264.264.132.264-.132.264-.264.4-.132 0-.4.132 0 .264.132 0 .4 0 .4.264l-.4.264a1.19 1.19 0 0 0-.656.14 15.572 15.572 0 0 0-2.64.528 14.305 14.305 0 0 0-2.508 1.056 3.764 3.764 0 0 1 2.9-1.72Zm3.564 2.772a.409.409 0 0 1-.132.264.485.485 0 0 1-.4.132 7.513 7.513 0 0 0-3.828 1.452 2.124 2.124 0 0 1 1.584-1.716 3.659 3.659 0 0 1 2.64-.4.461.461 0 0 1 .136.268Zm-5.94 3.828a13.389 13.389 0 0 0 1.716-1.188 6.553 6.553 0 0 1 2.9-1.32.622.622 0 0 1 .792.132 1.127 1.127 0 0 1 0 .924 10.04 10.04 0 0 1-2.64 2.64 11.2 11.2 0 0 1-2.9 1.188c-.528.132-.792-.132-.792-.924-.132-.66.264-1.056.924-1.452Zm3.7 3.3c-.264.4-.66.4-1.056.528l-.264.264s-.132.132-.132 0c-.132 0-.132-.132.132-.132a.461.461 0 0 1 .264-.132c.264-.264.528-.66.924-.66 0-.132.132 0 .132 0Zm-7.128 2.772c0-.264.264-.4.528-.4a11.616 11.616 0 0 1 1.98-.66c.132-.132.264 0 .264.132a.409.409 0 0 1-.132.264l-.264.264a.461.461 0 0 1 .132.264.129.129 0 0 0-.132.132 8.065 8.065 0 0 1-1.848.924c-.264 0-.66.264-.792-.132-.136-.26-.004-.524.26-.788Zm2.376-.264v-.132s-.136 0-.004.132Zm6.732.264v-.136h.132Zm33 1.716c.264 0 .528.132.792.132a1.674 1.674 0 0 0-.796-.132Zm-12.408 4.62c-3.432 1.452-7 2.772-10.56 3.96a42.26 42.26 0 0 1-8.976 2.112 32.495 32.495 0 0 1-6.2-.132.461.461 0 0 1-.264-.132c0-.264.132-.4.264-.4.66 0 1.32-.132 1.848-.132a46.285 46.285 0 0 0 13.456-2.108c3.036-1.056 6.072-1.98 9.108-3.3.924-.4 2.112-.66 3.168-1.056a.622.622 0 0 1 .792.132 9.217 9.217 0 0 1-2.64 1.056Zm-18.348 1.056a76.846 76.846 0 0 0 7.92-1.848c.264.528 0 .528-.264.528l-1.588.792h.132a.409.409 0 0 0 .264.132c.132.132.132.264 0 .264-.132.132-.264.264-.4.264a36.24 36.24 0 0 1-10.56 1.848.527.527 0 0 1-.528-.264 24.364 24.364 0 0 1 3.036-.528c-2.112-.132-4.224.528-6.336-.4 2.908-.26 5.68-.392 8.324-.788Zm2.376.528a10.125 10.125 0 0 0 3.7-1.056l-1.848.4a4.477 4.477 0 0 0-1.856.656Zm-1.848.264-.132-.132-.132.132h.264Zm143.872-58.74c-.132-.792-.4-1.452-.528-2.112a4.081 4.081 0 0 0-3.168-3.564 48.324 48.324 0 0 0-12.272-2.504c-.66 0-1.188-.132-1.848-.132a11.553 11.553 0 0 0-2.112-.264c-3.168-.264-6.2-.66-9.24-.66-2.244-.132-4.356-.4-6.6-.4a5.032 5.032 0 0 1-1.98-.132c-1.32-.4-1.452-.924-.924-2.112.132-.132.132-.4.264-.528 0-.528 0-.528.4-.4a6.633 6.633 0 0 0 1.584-1.056c.4-.4.792-.66.792-1.188.132-1.188 1.056-1.584 1.98-2.112l.4-.4.66-.66a29.3 29.3 0 0 1 4.356-3.7 3.493 3.493 0 0 1 2.508-1.584 1.269 1.269 0 0 0 1.188-.792c.132-.66.66-.792 1.188-.924a7.538 7.538 0 0 0 2.772-1.716c.264-.264.66-.528.66-1.056.132-.792.792-1.188 1.32-1.584a16.866 16.866 0 0 1 2.772-1.848v.132l.4-.4a7.965 7.965 0 0 1 1.056-1.056c1.716-1.584 1.716-2.112.66-4.092a1.529 1.529 0 0 0-1.848-.792 24.613 24.613 0 0 0-2.64 1.32l-5.28 3.564c-1.848 1.584-3.828 2.9-5.808 4.356-3.036 2.244-5.808 4.62-8.58 7l-3.168 2.772a64.491 64.491 0 0 0-6.072 5.94 7.109 7.109 0 0 1-5.412 2.376 50.736 50.736 0 0 1-6.336 0 21.386 21.386 0 0 0-2.9.132 9.137 9.137 0 0 1-3.3.132 11.355 11.355 0 0 0-2.112-.132c-1.452 0-2.772.264-4.224.264-2.9-.132-5.808.528-8.712.264a3.854 3.854 0 0 0-1.188.264 22.581 22.581 0 0 1-5.148.4c-.528 0-1.056.132-1.584.132-2.508.4-4.884.792-7.392 1.056-1.98.264-3.828.66-5.808 1.056l-10.3 2.376a23.914 23.914 0 0 0-4.092 1.188c-1.716.66-3.432 1.32-5.148 1.848a7.633 7.633 0 0 0-1.848.66c-.528.264-.924.66-.4 1.188a1.587 1.587 0 0 1 .264 1.056c0 1.32.4 1.716 1.716 1.188h.264a85.136 85.136 0 0 1 9.9-2.9 191.262 191.262 0 0 1 34.576-4.744c5.676-.264 11.352-.4 17.028-.264h1.452c.264 0 .66 0 .792.4.132.264-.132.528-.792.528h-11.616c-4.092.132-8.184.4-12.144.66-3.432.264-6.864.66-10.164.924q-6.336.792-12.672 1.98c-4.356.924-8.712 1.848-13.068 3.168a4.628 4.628 0 0 0-1.848.792 14.021 14.021 0 0 0 2.508-.528c2.9-.792 5.676-1.584 8.712-2.112q6.534-1.386 13.464-2.376c5.28-.66 10.692-1.188 16.1-1.584 6.072-.264 12.144-.528 18.216-.4h1.188a.751.751 0 0 1 .528.924 1.876 1.876 0 0 1-.264.792c-1.188 1.32-2.376 2.508-3.7 3.828a17.638 17.638 0 0 0-2.628 2.768 28.566 28.566 0 0 1-5.28 5.28 4.931 4.931 0 0 0-.924.792 43.755 43.755 0 0 1-3.432 3.564 5.674 5.674 0 0 0-1.188 1.32 18.038 18.038 0 0 1-3.036 3.3c-1.848 1.716-3.432 3.564-5.148 5.412-2.112 2.376-3.7 5.148-6.2 7.128l-.4.4c-1.98 2.64-4.092 5.148-6.072 7.788a18.863 18.863 0 0 0-1.848 2.64c-1.848 2.64-3.564 5.28-5.28 7.92a45.046 45.046 0 0 0-2.248 4.356 4.414 4.414 0 0 0-.264 3.432 22.748 22.748 0 0 0 .92 2.768 5.464 5.464 0 0 0 3.04 2.9 3.366 3.366 0 0 0 3.168 0 37.665 37.665 0 0 0 6.072-2.24c2.508-.924 4.884-1.848 7.392-2.508a94.965 94.965 0 0 0 10.428-3.168 47.736 47.736 0 0 0 4.62-1.716l4.092-1.584c1.584-.528 3.168-1.188 4.752-1.848.264-.132.66-.264.66-.66a3.744 3.744 0 0 0-1.716.528c-5.544 2.112-11.22 4.356-17.028 5.94a183.622 183.622 0 0 0-16.368 5.544c-.924.4-1.848.66-2.9 1.056a2.577 2.577 0 0 0-.924.132c-.132 0-.4-.132-.4-.264a1 1 0 0 1 .264-.528l1.188-.4c1.584-.528 3.168-1.188 4.62-1.716 2.772-1.056 5.544-2.112 8.316-2.9 4.884-1.32 9.636-2.9 14.388-4.62 2.9-.924 5.808-2.112 8.712-3.168a3.6 3.6 0 0 0 1.584-.792.782.782 0 0 0 .132-.924c-.132-.132-.264-.4-.528-.4-.4.132-.924.132-1.32.264l-4.092 1.32a14.423 14.423 0 0 1-2.244.66v-.132a2.129 2.129 0 0 1-1.188.4l-1.056.4a1.5 1.5 0 0 1-1.056.4l-1.188.4a3.107 3.107 0 0 1-1.056.264 5.832 5.832 0 0 1-2.112.792l.66-.792a11.066 11.066 0 0 0-3.3 1.188c.132 0 .264 0 .264.132a.461.461 0 0 1-.264.132v-.4a39.117 39.117 0 0 0-7.656 2.244c.132 0 .4 0 .264.264a.461.461 0 0 1-.264.132v-.4a9.666 9.666 0 0 0-3.3 1.056h1.188a2.487 2.487 0 0 1 1.056-.268 2.487 2.487 0 0 1-1.056.264 2.129 2.129 0 0 1-1.188.4h.132a40.148 40.148 0 0 1-8.844 3.3l.792-.792c-.264 0-.4 0-.528-.132-.132-.264 0-.4.132-.528l1.056-.4a111 111 0 0 1 14.124-4.752c6.6-1.848 13.068-3.96 19.4-6.2.4-.132.792-.4 1.188-.528a.794.794 0 0 0 .132-.528c0-.132-.264-.264-.4-.264a.248.248 0 0 0-.4 0c-1.32.264-2.772.4-4.092.792-2.772.924-5.544 1.584-8.316 2.772a15.439 15.439 0 0 1-2.64.66c-3.96.528-7.524 2.112-11.352 3.036l-.528.132a20.468 20.468 0 0 1-4.752 1.716 1.674 1.674 0 0 1-.792.132.529.529 0 0 1-.66-.66c0-.528.132-1.188.132-1.716v-.528c.132-.4.264-.528.792-.264a2.674 2.674 0 0 0 .792-2.112.724.724 0 0 1 .528-.792c.528-.264 1.056-.528 1.188-1.056-.264-.264-.4-.66 0-.924a5.8 5.8 0 0 0 1.584-2.376c.924-1.584 1.716-3.168 3.564-3.96.4-.132.528-.4.66-.792-.264 0-.4-.264-.132-.528l.528-.528v.66a34 34 0 0 0 4.224-4.488 10.926 10.926 0 0 1 1.452-1.98l6.08-6.34a7.966 7.966 0 0 1 1.056-1.056c.132-.132.264-.264.4-.264a4.554 4.554 0 0 1 1.056-1.188 5.023 5.023 0 0 1 1.188-1.716c2.112-2.508 4.356-4.752 6.6-7 .528-.528 1.188-.924 1.716-1.452l.4-.4a13.721 13.721 0 0 1 4.356-4.356h-.132a2.814 2.814 0 0 1 1.32-1.452l1.98-1.452h.132a1.026 1.026 0 0 1 .528-1.32 4.126 4.126 0 0 0 1.188-1.452c.264-.4-.132-.792.132-1.188.264-.528.924 0 1.32-.4l1.98-1.98c.132-.132.264-.4.132-.528-.264-.66.264-.924.66-1.056a20.4 20.4 0 0 0 3.036-.792 5.357 5.357 0 0 1 2.508-.528c5.676 0 11.484.528 17.292.66a4.49 4.49 0 0 1 1.32.132c4.224.132 8.316.66 12.408 1.188a46.656 46.656 0 0 1 7.26 1.32 8.2 8.2 0 0 1 3.828 1.98 6.1 6.1 0 0 0 .924.924c.4.132.792.132.924-.264a4.216 4.216 0 0 0 .388-2.496Zm-15.18-36.3a.485.485 0 0 1 .4.132s0 .264-.132.264a5.478 5.478 0 0 1-2.64 1.584 8.645 8.645 0 0 1 2.376-1.98Zm-3.564 2.772a6.637 6.637 0 0 1-2.9 2.112 9.127 9.127 0 0 1 2.904-2.112Zm-3.3 2.508a2.053 2.053 0 0 1-1.056.792 2.053 2.053 0 0 1 1.06-.792Zm-1.584 1.188a1.528 1.528 0 0 1-.924.66 1.528 1.528 0 0 1 .928-.66Zm1.452 3.432v-.132h.132c-.128 0-.128 0-.128.132Zm-14.916 7.128a7.458 7.458 0 0 1-3.168 2.9 9.366 9.366 0 0 1 3.172-2.9Zm-16.5 11.22a3.25 3.25 0 0 1-1.584.132h-11.48a.129.129 0 0 0 .132.132h11.616c.132.132.264.132.264.264 0 .264-.132.264-.264.264-.66 0-1.188.132-1.716.132-6.2-.132-12.54.132-18.744.4a92 92 0 0 0-12.012.924c-5.148.528-10.164 1.188-15.312 2.112a129.5 129.5 0 0 0-14.124 3.432l-1.056.4c-.264 0-.528.264-.924 0-.132-.132.132-.924.528-1.056a18.7 18.7 0 0 1 2.376-1.064c4.488-1.32 9.108-2.376 13.86-3.3q6.732-1.188 13.86-1.98c3.7-.528 7.392-.66 11.22-.924 6.072-.4 12.276-.4 18.348-.528 1.452 0 2.9.132 4.356.132a1.008 1.008 0 0 1 .66.264c.132 0 .132 0 .132.132a.129.129 0 0 1-.132.132Zm49.5 4.224-.132.132a7.055 7.055 0 0 1-2.9-.4c-.4 0-.66-.264-1.056-.264-.792-.132-1.584-.132-2.376-.264-5.808-.66-11.616-1.32-17.556-1.584-4.224-.132-8.316-.4-12.54-.66a.989.989 0 0 1-.66-.132c-.132 0-.132-.132-.264-.132.132-.132.132-.264.264-.264h1.712a3.281 3.281 0 0 0 1.056-.132h-1.188c-.528-.132-1.32.264-1.716-.4.528-.66 1.188-.4 1.848-.4 4.092.132 8.052.264 12.012.528 3.3.264 6.6.66 10.032.924 3.036.264 6.072.924 9.108 1.32a16.842 16.842 0 0 1 3.7.924l.66.4c0 .14.132.272 0 .404Zm-77.22-3.3c.264.132.4 0 .528 0h-.528Zm75.24 6.072c-5.808-1.056-11.748-1.584-17.688-2.112-3.168-.132-6.2-.264-9.372-.4l-10.692-.4c-.924 0-1.584-.264-1.32-.528.264-.528.792-.4 1.32-.4 2.244 0 4.62 0 7.26.132 5.28.264 10.824.66 16.368 1.056a90 90 0 0 1 13.332 1.848 2.246 2.246 0 0 1 .924.132c.4.264 1.056 0 1.32.792a1.816 1.816 0 0 1-1.448-.12Zm-50.952.66a4.017 4.017 0 0 1 1.056-1.056 1.432 1.432 0 0 1-1.052 1.056Zm5.148.264a.485.485 0 0 0-.4.132c.132-.132.264-.264.4-.264Zm-7 1.584a1.591 1.591 0 0 1-.66.66 1.591 1.591 0 0 1 .66-.66 2.329 2.329 0 0 1 1.188-1.056 1.611 1.611 0 0 1-1.18 1.056Zm-60.448 1.848a3.187 3.187 0 0 0-1.98.528 3.936 3.936 0 0 0 1.98-.528Zm40.124 19.536c-.132.132-.4.4-.4.264-.264-.132.132-.264.264-.4.132-.264.264-.264.4-.528a1.008 1.008 0 0 1-.264.664Zm-8.712 16.5c0-.132.132-.264.264-.4l-.4.4Zm17.032 10.164-1.056.4h1.056Zm-1.056.4-1.056.4h1.056Zm-1.056.4-1.188.4h1.188Zm-1.188.4a2.487 2.487 0 0 1-1.056.264h1.056Zm-1.056.264-1.452.4h1.452Zm1.056 0v.132a.129.129 0 0 1 .132-.132Zm-17.82 5.136h1.056v-.4Zm-2.9 1.056a1.876 1.876 0 0 0 .792-.264 1.876 1.876 0 0 0-.792.264Zm0 0a9.1 9.1 0 0 0-1.056.4Zm-2.244.792a2.885 2.885 0 0 1-.66.4l.792-.4Zm-1.716.66a4.08 4.08 0 0 0 1.056-.264c-.396.132-.796.132-1.06.264Zm104.012-13.332a1.405 1.405 0 0 0 0-1.848c-.4-.264-.4-.792-.528-1.188-.264-.924-.66-1.188-1.584-.792l-1.452.66a2.381 2.381 0 0 1-1.584.4 14.877 14.877 0 0 0-2.376.4 7.715 7.715 0 0 1-2.508.264 32.365 32.365 0 0 0-3.564.264l-7.524.4a44.633 44.633 0 0 1-5.94-.132c-5.28-.4-10.3-1.32-14.784-4.356-.792-.528-1.188-.528-1.848.4s-1.716 1.056-2.772 1.452h-.264l-.4-.4a.485.485 0 0 1 .132-.4c0-.132.132-.132.264-.132.264-.264.792-.264.792-.66 0-.264-.528-.528-1.056-.4a4.34 4.34 0 0 0-2.64 1.056 31.4 31.4 0 0 0-5.412 5.676 8.565 8.565 0 0 0-1.848 5.28 37.627 37.627 0 0 0 .4 3.828 7.566 7.566 0 0 0 8.976 5.94 17.31 17.31 0 0 0 6.2-2.64c.528-.264 1.452-.528.792-1.452-.132 0 0-.264.132-.4 1.056-1.188 2.244-2.376 3.168-3.564a17.631 17.631 0 0 0 .924-2.376c.528-.924.924-1.056 1.98-.924.264.132.66.132 1.056.264a37.379 37.379 0 0 0 5.28 1.056 24.373 24.373 0 0 0 8.184.264c2.376-.132 4.884-.4 7.26-.4a15.534 15.534 0 0 0 6.864-1.716 21.772 21.772 0 0 1 4.752-2.112c.66-.132 1.32-.4.924-1.452Zm-24.684.792c2.9-.132 5.808-.4 8.712-.4 2.244-.132 4.488-.4 6.732-.66a11.041 11.041 0 0 0 4.092-1.056 5.717 5.717 0 0 1 .66-.132c.132-.132.4-.132.4 0 .132.264 0 .4-.132.4a7.442 7.442 0 0 1-1.584.528 3.827 3.827 0 0 0-1.98 1.188c-.264.4-.528.4-.924.528a4.69 4.69 0 0 1-1.32.264c-3.168.132-6.336.528-9.636.4a1.3 1.3 0 0 1-.792-.264h3.7a1 1 0 0 0-1.056-.4h-5.544c-.528 0-1.188-.132-1.848-.132a.527.527 0 0 1 .52-.264Zm-16.632 2.112c-.264.264-.4.66-.66.924a13.076 13.076 0 0 1-4.752 4.092 7.6 7.6 0 0 1-4.488.792c-.792 0-.924-.4-.792-1.188a14.631 14.631 0 0 1 1.188-2.508c.264-.264.132-.528-.132-.528a5.561 5.561 0 0 1 2.772-3.432l1.584-1.188a7.321 7.321 0 0 1 1.056-.792 1.488 1.488 0 0 1 2.112.264l1.976 2.504a1 1 0 0 1 .136 1.06Zm32.076-2.244-.132-.132a.461.461 0 0 0-.264.132h.4Zm-2.772.264h-2.112v.132h2.112Zm6.864 1.98a13.627 13.627 0 0 1-6.468 1.848c-3.168.132-6.336.4-9.5.4a10.484 10.484 0 0 1-2.9-.132c-.4 0-.924 0-1.188-.4a3.349 3.349 0 0 1 1.584-.264c3.564 0 7-.264 10.56-.4 1.32-.132 2.64-.264 3.96-.528a12.585 12.585 0 0 0 3.564-1.188c.66-.264 1.32-.924 2.112-.528-.404.664-1.196.796-1.728 1.192Zm-31.944 5.54a1.876 1.876 0 0 1 .264-.792h-.264Zm-.264.264v.136c0-.132.132-.264.264-.4-.132.136-.26.136-.26.268Zm-11.088 2.64a.485.485 0 0 1-.4-.132c-.132 0-.264 0-.264-.264 0-.132 0-.264.132-.264a14.463 14.463 0 0 1 3.432-.792 10.075 10.075 0 0 1-1.452 1.056h.924a.129.129 0 0 1 .132.132v.132a2.559 2.559 0 0 1-2.376.4.461.461 0 0 1-.128-.264Zm5.016 2.112a2.739 2.739 0 0 1-1.32.792 8.326 8.326 0 0 1-2.9.66h-.264c-.132-.132-.264-.132-.264-.264s0-.264.132-.264l.4-.264c1.188-.4 2.244-.66 3.3-1.056a1.674 1.674 0 0 0 .792-.132s.264.132.264.264c-.008.004-.008.268-.14.268Zm155.5-58.74c-.132-.792-.4-1.452-.528-2.112a4.081 4.081 0 0 0-3.168-3.564 48.325 48.325 0 0 0-12.28-2.5c-.66 0-1.188-.132-1.848-.132a11.552 11.552 0 0 0-2.112-.264c-3.168-.264-6.2-.66-9.24-.66-2.244-.132-4.356-.4-6.6-.4a5.032 5.032 0 0 1-1.98-.132c-1.32-.4-1.452-.924-.924-2.112.132-.132.132-.4.264-.528 0-.528 0-.528.4-.4a6.633 6.633 0 0 0 1.584-1.056c.4-.4.792-.66.792-1.188.132-1.188 1.056-1.584 1.98-2.112l.4-.4.66-.66a29.3 29.3 0 0 1 4.356-3.7 3.493 3.493 0 0 1 2.508-1.584 1.268 1.268 0 0 0 1.188-.792c.132-.66.66-.792 1.188-.924a7.538 7.538 0 0 0 2.772-1.716c.264-.264.66-.528.66-1.056.132-.792.792-1.188 1.32-1.584a16.867 16.867 0 0 1 2.772-1.848v.132l.4-.4a7.966 7.966 0 0 1 1.056-1.056c1.716-1.584 1.716-2.112.66-4.092a1.529 1.529 0 0 0-1.848-.792 24.613 24.613 0 0 0-2.64 1.32l-5.28 3.564c-1.848 1.584-3.828 2.9-5.808 4.356-3.036 2.244-5.808 4.62-8.58 7l-3.168 2.772a64.491 64.491 0 0 0-6.08 5.952 7.109 7.109 0 0 1-5.412 2.376 50.736 50.736 0 0 1-6.336 0 21.386 21.386 0 0 0-2.9.132 9.137 9.137 0 0 1-3.3.132 11.355 11.355 0 0 0-2.112-.132c-1.452 0-2.772.264-4.224.264-2.9-.132-5.808.528-8.712.264a3.854 3.854 0 0 0-1.188.264 22.581 22.581 0 0 1-5.148.4c-.528 0-1.056.132-1.584.132-2.508.4-4.884.792-7.392 1.056-1.98.264-3.828.66-5.808 1.056l-10.3 2.376a23.914 23.914 0 0 0-4.092 1.188c-1.716.66-3.432 1.32-5.148 1.848a7.633 7.633 0 0 0-1.848.66c-.528.264-.924.66-.4 1.188a1.587 1.587 0 0 1 .264 1.056c0 1.32.4 1.716 1.716 1.188h.264a85.136 85.136 0 0 1 9.9-2.9 191.262 191.262 0 0 1 34.584-4.756c5.676-.264 11.352-.4 17.028-.264h1.448c.264 0 .66 0 .792.4.132.264-.132.528-.792.528h-11.612c-4.092.132-8.184.4-12.144.66-3.432.264-6.864.66-10.164.924q-6.336.792-12.672 1.98c-4.356.924-8.712 1.848-13.068 3.168a4.628 4.628 0 0 0-1.848.792 14.021 14.021 0 0 0 2.508-.528c2.9-.792 5.676-1.584 8.712-2.112q6.534-1.386 13.464-2.376c5.28-.66 10.692-1.188 16.1-1.584 6.072-.264 12.144-.528 18.216-.4h1.188a.751.751 0 0 1 .528.924 1.876 1.876 0 0 1-.264.792c-1.188 1.32-2.376 2.508-3.7 3.828a17.636 17.636 0 0 0-2.64 2.772 28.566 28.566 0 0 1-5.28 5.28 4.931 4.931 0 0 0-.924.792 43.752 43.752 0 0 1-3.432 3.564 5.674 5.674 0 0 0-1.188 1.32 18.037 18.037 0 0 1-3.036 3.3c-1.848 1.716-3.432 3.564-5.148 5.412-2.112 2.376-3.7 5.148-6.2 7.128l-.4.4c-1.98 2.64-4.092 5.148-6.072 7.788a18.863 18.863 0 0 0-1.848 2.64c-1.848 2.64-3.564 5.28-5.28 7.92a45.047 45.047 0 0 0-2.236 4.352 4.414 4.414 0 0 0-.264 3.432 22.746 22.746 0 0 0 .924 2.768 5.464 5.464 0 0 0 3.036 2.9 3.366 3.366 0 0 0 3.168 0 37.665 37.665 0 0 0 6.076-2.24c2.508-.924 4.884-1.848 7.392-2.508a94.963 94.963 0 0 0 10.428-3.168 47.737 47.737 0 0 0 4.62-1.716l4.092-1.584c1.584-.528 3.168-1.188 4.752-1.848.264-.132.66-.264.66-.66a3.744 3.744 0 0 0-1.716.528c-5.548 2.112-11.228 4.356-17.028 5.94a183.622 183.622 0 0 0-16.368 5.544c-.924.4-1.848.66-2.9 1.056a2.577 2.577 0 0 0-.924.132c-.132 0-.4-.132-.4-.264a1 1 0 0 1 .264-.528l1.188-.4c1.584-.528 3.168-1.188 4.62-1.716 2.772-1.056 5.544-2.112 8.316-2.9 4.884-1.32 9.636-2.9 14.388-4.62 2.9-.924 5.808-2.112 8.712-3.168a3.6 3.6 0 0 0 1.584-.792.782.782 0 0 0 .132-.924c-.132-.132-.264-.4-.528-.4-.4.132-.924.132-1.32.264l-4.092 1.32a14.423 14.423 0 0 1-2.244.66v-.132a2.129 2.129 0 0 1-1.188.4l-1.056.4a1.5 1.5 0 0 1-1.056.4l-1.188.4a3.107 3.107 0 0 1-1.056.264 5.832 5.832 0 0 1-2.112.792l.66-.792a11.067 11.067 0 0 0-3.3 1.188c.132 0 .264 0 .264.132a.461.461 0 0 1-.264.132v-.4a39.116 39.116 0 0 0-7.656 2.244c.132 0 .4 0 .264.264a.461.461 0 0 1-.264.132v-.4a9.666 9.666 0 0 0-3.3 1.056h1.188a2.487 2.487 0 0 1 1.056-.264 2.487 2.487 0 0 1-1.056.264 2.129 2.129 0 0 1-1.188.4h.132a40.148 40.148 0 0 1-8.844 3.3l.792-.792c-.264 0-.4 0-.528-.132-.132-.264 0-.4.132-.528l1.056-.4a111 111 0 0 1 14.124-4.752c6.6-1.848 13.068-3.96 19.4-6.2.4-.132.792-.4 1.188-.528a.794.794 0 0 0 .132-.528c0-.132-.264-.264-.4-.264a.247.247 0 0 0-.4 0c-1.32.264-2.772.4-4.092.792-2.772.924-5.544 1.584-8.316 2.772a15.44 15.44 0 0 1-2.64.66c-3.96.528-7.524 2.112-11.352 3.036l-.528.132a20.468 20.468 0 0 1-4.752 1.716 1.674 1.674 0 0 1-.792.132.529.529 0 0 1-.66-.66c0-.528.132-1.188.132-1.716v-.528c.132-.4.264-.528.792-.264a2.674 2.674 0 0 0 .792-2.112.724.724 0 0 1 .528-.792c.528-.264 1.056-.528 1.188-1.056-.264-.264-.4-.66 0-.924a5.8 5.8 0 0 0 1.584-2.376c.924-1.584 1.716-3.168 3.564-3.96.4-.132.528-.4.66-.792-.264 0-.4-.264-.132-.528l.528-.528v.66a34 34 0 0 0 4.224-4.488 10.924 10.924 0 0 1 1.452-1.98l6.072-6.336a7.966 7.966 0 0 1 1.056-1.056c.132-.132.264-.264.4-.264a4.554 4.554 0 0 1 1.056-1.188 5.023 5.023 0 0 1 1.188-1.716c2.112-2.508 4.356-4.752 6.6-7 .528-.528 1.188-.924 1.716-1.452l.4-.4a13.721 13.721 0 0 1 4.356-4.356h-.132a2.814 2.814 0 0 1 1.32-1.452l1.98-1.452h.132a1.026 1.026 0 0 1 .528-1.32 4.126 4.126 0 0 0 1.188-1.452c.264-.4-.132-.792.132-1.188.264-.528.924 0 1.32-.4l1.98-1.98c.132-.132.264-.4.132-.528-.264-.66.264-.924.66-1.056a20.4 20.4 0 0 0 3.036-.792 5.357 5.357 0 0 1 2.508-.528c5.676 0 11.484.528 17.292.66a4.49 4.49 0 0 1 1.32.132c4.224.132 8.316.66 12.408 1.188a46.656 46.656 0 0 1 7.26 1.32 8.2 8.2 0 0 1 3.828 1.98 6.1 6.1 0 0 0 .924.924c.4.132.792.132.924-.264a4.216 4.216 0 0 0 .396-2.504Zm-15.18-36.3a.485.485 0 0 1 .4.132s0 .264-.132.264a5.478 5.478 0 0 1-2.64 1.584 8.644 8.644 0 0 1 2.368-1.976Zm-3.564 2.772a6.637 6.637 0 0 1-2.9 2.112 9.127 9.127 0 0 1 2.896-2.108Zm-3.3 2.508a2.053 2.053 0 0 1-1.056.792 2.053 2.053 0 0 1 1.052-.788Zm-1.584 1.188a1.528 1.528 0 0 1-.924.66 1.528 1.528 0 0 1 .92-.656Zm1.452 3.432v-.132h.132c-.136.004-.136.004-.136.136Zm-14.916 7.128a7.458 7.458 0 0 1-3.168 2.9 9.367 9.367 0 0 1 3.164-2.896Zm-16.5 11.22a3.25 3.25 0 0 1-1.584.132h-11.488a.129.129 0 0 0 .132.132h11.616c.132.132.264.132.264.264 0 .264-.132.264-.264.264-.66 0-1.188.132-1.716.132-6.2-.132-12.54.132-18.744.4a92 92 0 0 0-12.012.924c-5.148.528-10.164 1.188-15.312 2.112a129.5 129.5 0 0 0-14.124 3.432l-1.056.4c-.264 0-.528.264-.924 0-.132-.132.132-.924.528-1.056a18.7 18.7 0 0 1 2.376-1.06c4.488-1.32 9.108-2.376 13.86-3.3q6.732-1.188 13.86-1.98c3.7-.528 7.392-.66 11.22-.924 6.072-.4 12.276-.4 18.348-.528 1.452 0 2.9.132 4.356.132a1.008 1.008 0 0 1 .66.264c.132 0 .132 0 .132.132a.129.129 0 0 1-.132.132Zm49.5 4.224-.132.132a7.055 7.055 0 0 1-2.9-.4c-.4 0-.66-.264-1.056-.264-.792-.132-1.584-.132-2.376-.264-5.808-.66-11.616-1.32-17.556-1.584-4.224-.132-8.316-.4-12.54-.66a.989.989 0 0 1-.66-.132c-.132 0-.132-.132-.264-.132.132-.132.132-.264.264-.264h1.716a3.28 3.28 0 0 0 1.056-.132h-1.188c-.528-.132-1.32.264-1.716-.4.528-.66 1.188-.4 1.848-.4 4.092.132 8.052.264 12.012.528 3.3.264 6.6.66 10.032.924 3.036.264 6.072.924 9.108 1.32a16.842 16.842 0 0 1 3.7.924l.66.4c-.012.144.12.276-.012.408Zm-77.22-3.3c.264.132.4 0 .528 0h-.528Zm75.24 6.072c-5.808-1.056-11.748-1.584-17.688-2.112-3.168-.132-6.2-.264-9.372-.4l-10.692-.4c-.924 0-1.584-.264-1.32-.528.264-.528.792-.4 1.32-.4 2.244 0 4.62 0 7.26.132 5.28.264 10.824.66 16.368 1.056a90 90 0 0 1 13.332 1.848 2.246 2.246 0 0 1 .924.132c.4.264 1.056 0 1.32.792a1.816 1.816 0 0 1-1.456-.116Zm-50.952.66a4.018 4.018 0 0 1 1.056-1.056 1.432 1.432 0 0 1-1.056 1.06Zm5.148.264a.485.485 0 0 0-.4.132c.132-.132.264-.264.4-.264Zm-7 1.584a1.591 1.591 0 0 1-.66.66 1.591 1.591 0 0 1 .66-.66 2.329 2.329 0 0 1 1.188-1.056 1.611 1.611 0 0 1-1.188 1.06Zm-60.456 1.852a3.187 3.187 0 0 0-1.98.528 3.936 3.936 0 0 0 1.98-.528Zm40.128 19.536c-.132.132-.4.4-.4.264-.264-.132.132-.264.264-.4.132-.264.264-.264.4-.528a1.008 1.008 0 0 1-.264.664Zm-8.712 16.5c0-.132.132-.264.264-.4l-.4.4Zm17.028 10.164-1.056.4h1.056Zm-1.056.4-1.056.4h1.056Zm-1.056.4-1.188.4h1.188Zm-1.188.4a2.487 2.487 0 0 1-1.056.264h1.056Zm-1.056.264-1.452.4h1.452Zm1.056 0v.132a.129.129 0 0 1 .132-.132Zm-17.82 5.136h1.056v-.4Zm-2.9 1.056a1.876 1.876 0 0 0 .784-.264 1.876 1.876 0 0 0-.788.264Zm0 0a9.1 9.1 0 0 0-1.056.4Zm-2.244.792a2.885 2.885 0 0 1-.66.4l.792-.4Zm-1.716.66a4.08 4.08 0 0 0 1.056-.264c-.4.132-.796.132-1.06.264Zm96.36-7.392c-.264-.264-.264-.528 0-.924a1.134 1.134 0 0 0-.132-1.716 2.435 2.435 0 0 1-.66-1.584c0-.924-.528-1.32-1.452-1.056l-1.188.4c-1.32.528-2.64 1.056-3.96 1.452l-6.2 2.376a81.918 81.918 0 0 1-10.832 3.956h-.4a35.907 35.907 0 0 1-6.468 1.716c-2.244.264-4.62.528-6.864.66a15.068 15.068 0 0 1-4.884-.66 2.653 2.653 0 0 1-1.056-.528.8.8 0 0 1 .132-1.32 2.447 2.447 0 0 1 .924-.264 62.609 62.609 0 0 0 5.94-1.98c.264-.132.66-.132 1.056-.264a.129.129 0 0 1 .132.132v.264l-.528.4a19.7 19.7 0 0 1-5.28 1.98 1.674 1.674 0 0 0-.792.132c-.132 0-.4.132-.4.264 0 .264.264.264.4.264a4.491 4.491 0 0 0 1.32-.132 47.613 47.613 0 0 0 8.052-3.432 3.42 3.42 0 0 0 1.452-1.32 11.722 11.722 0 0 1 2.112-2.9 4.6 4.6 0 0 0 1.32-3.828 14.063 14.063 0 0 0-2.244-6.6 4.1 4.1 0 0 0-3.7-1.98 9.811 9.811 0 0 0-6.2 2.112 40.819 40.819 0 0 0-5.412 5.28 13.48 13.48 0 0 0-3.168 8.58c0 1.452 0 3.036.132 4.488a10.558 10.558 0 0 0 2.9 5.94 10.76 10.76 0 0 0 7.26 2.9 46.773 46.773 0 0 0 9.636-.924 98.015 98.015 0 0 0 14.916-4.752 121 121 0 0 0 11.88-5.412 3.89 3.89 0 0 1 1.716-.66 1.876 1.876 0 0 0 .792-.264c-.124-.268-.124-.532-.256-.792Zm-36.832-13.332c.4-.132.528-.264.132-.66 0-.132.132-.4.264-.4a5.565 5.565 0 0 1 2.508-.4c.132.132.264.132.264.264.132.264-.132.264-.264.4-.132 0-.4.132 0 .264.132 0 .4 0 .4.264l-.4.264a1.19 1.19 0 0 0-.66.132 15.571 15.571 0 0 0-2.64.528 14.3 14.3 0 0 0-2.508 1.056 3.764 3.764 0 0 1 2.904-1.712Zm3.564 2.772a.409.409 0 0 1-.132.264.485.485 0 0 1-.4.132 7.513 7.513 0 0 0-3.828 1.452 2.124 2.124 0 0 1 1.584-1.716 3.659 3.659 0 0 1 2.64-.4.461.461 0 0 1 .136.268Zm-5.94 3.828a13.39 13.39 0 0 0 1.716-1.188 6.553 6.553 0 0 1 2.9-1.32.622.622 0 0 1 .792.132 1.128 1.128 0 0 1 0 .924 10.04 10.04 0 0 1-2.64 2.64 11.2 11.2 0 0 1-2.9 1.188c-.528.132-.792-.132-.792-.924-.132-.66.264-1.056.924-1.452Zm3.7 3.3c-.264.4-.66.4-1.056.528l-.264.264s-.132.132-.132 0c-.132 0-.132-.132.132-.132a.461.461 0 0 1 .264-.132c.264-.264.528-.66.924-.66 0-.132.132 0 .132 0Zm-7.128 2.772c0-.264.264-.4.528-.4a11.616 11.616 0 0 1 1.98-.66c.132-.132.264 0 .264.132a.409.409 0 0 1-.132.264l-.264.264a.461.461 0 0 1 .132.264.129.129 0 0 0-.132.132 8.064 8.064 0 0 1-1.848.924c-.264 0-.66.264-.792-.132-.136-.26-.004-.524.26-.788Zm2.376-.264v-.132s-.136 0-.004.132Zm6.732.264v-.136h.132Zm33 1.716c.264 0 .528.132.792.132a1.674 1.674 0 0 0-.796-.132Zm-12.408 4.62c-3.432 1.452-7 2.772-10.56 3.96a42.26 42.26 0 0 1-8.976 2.112 32.495 32.495 0 0 1-6.2-.132.461.461 0 0 1-.264-.132c0-.264.132-.4.264-.4.66 0 1.32-.132 1.848-.132a46.285 46.285 0 0 0 13.456-2.108c3.036-1.056 6.072-1.98 9.108-3.3.924-.4 2.112-.66 3.168-1.056a.622.622 0 0 1 .792.132 9.217 9.217 0 0 1-2.64 1.056Zm-18.352 1.056a76.845 76.845 0 0 0 7.92-1.848c.264.528 0 .528-.264.528l-1.584.792h.132a.409.409 0 0 0 .264.132c.132.132.132.264 0 .264-.132.132-.264.264-.4.264a36.24 36.24 0 0 1-10.56 1.848.527.527 0 0 1-.528-.264 24.363 24.363 0 0 1 3.036-.528c-2.112-.132-4.224.528-6.336-.4 2.908-.26 5.68-.392 8.32-.788Zm2.376.528a10.124 10.124 0 0 0 3.696-1.056l-1.848.4a4.477 4.477 0 0 0-1.852.656Zm-1.848.264-.132-.132-.132.132h.264Zm195.624-12.8c-.792-.792-1.584-1.584-2.9-1.32h-1.32a.669.669 0 0 0 .66.132c.264.132.528 0 .528.4a4.361 4.361 0 0 1-1.848 0c-1.848 0-3.7-.132-5.544-.264l-14.652-.4a6.426 6.426 0 0 1-1.584-.132 5.614 5.614 0 0 1-1.452-.264c-.132 0-.4-.132-.132-.264.132-.132.4 0 .4-.264a16.173 16.173 0 0 0-2.508-.264c-.132-.132-.4-.264-.264-.4a.284.284 0 0 1 .264-.264 21.585 21.585 0 0 0 2.9.264c4.224 0 8.448.132 12.54.264 4.224.264 8.316.4 12.408.792h1.452l.4-.4a.58.58 0 0 0-.132-.66 1.7 1.7 0 0 0-1.32-.528c-1.98-.264-3.96-.4-5.94-.528-1.188-.132-2.244 0-3.3-.132-3.96-.264-7.92-.528-11.88-.528a31 31 0 0 1-3.432-.132 32.166 32.166 0 0 0-3.564-.132 13.271 13.271 0 0 1-3.3-.528c-1.584-.66-3.3-1.188-4.884-1.98-1.716-.924-2.244-.924-3.7.4a7.965 7.965 0 0 1-1.056 1.056 6.92 6.92 0 0 1-1.452 1.32c-1.584 1.188-3.168 2.376-4.884 3.432a18.6 18.6 0 0 1-4.224 2.244 39.944 39.944 0 0 0-4.224 1.584c-.264.132-.66.132-.924.264-1.848.4-2.244.132-2.772-1.584a.485.485 0 0 1-.132-.4c-.4-1.98-1.716-3.432-3.036-5.016a3.432 3.432 0 0 0-5.016-.132 11.007 11.007 0 0 1-4.356 2.9 32.17 32.17 0 0 0-3.7 1.848 22.877 22.877 0 0 1-5.148 2.376 12.823 12.823 0 0 0-4.752 2.12 17.522 17.522 0 0 1-5.28 1.584c-.264 0-.4-.132-.528-.4a3.534 3.534 0 0 1 .264-3.036 6.278 6.278 0 0 0 .924-3.036c-.132-.528-.264-1.056-.792-1.188a2.687 2.687 0 0 1-.924-.792.942.942 0 0 0-1.452-.132 11.546 11.546 0 0 0-1.056 1.32 18.859 18.859 0 0 0-2.112 3.96 6.684 6.684 0 0 0-.4 5.28l.4 1.584a5.28 5.28 0 0 0 1.32 2.376 5.669 5.669 0 0 0 4.752 1.32l1.98-.4a54.642 54.642 0 0 0 6.468-2.508 129.464 129.464 0 0 0 15.048-7c.4-.132.66-.4 1.056-.528 1.188-.528 1.32-.66 2.112.66a12.469 12.469 0 0 1 .4 1.188l.4 1.584a5.8 5.8 0 0 0 4.62 3.7c1.32.132 2.772.264 3.96-.66.264-.264.528-.264.924-.4a59.693 59.693 0 0 0 10.956-5.28l1.584-.792c1.452-2.112 3.828-2.376 6.072-2.772a3.107 3.107 0 0 1 1.056.264 3.953 3.953 0 0 1 1.32.528 27.879 27.879 0 0 0 6.6 1.32 7.474 7.474 0 0 1 2.376.4.6.6 0 0 0 .66 0c.4-.66 1.056-.4 1.584-.4a7.177 7.177 0 0 1 2.376 0c1.716 0 3.564.132 5.28.264h9.108a5.032 5.032 0 0 1 1.98.132c.66.4.66.4 1.188.4a9.991 9.991 0 0 0 1.98-.132h.792a.284.284 0 0 0 .264-.264.253.253 0 0 0-.132-.4 14.545 14.545 0 0 0-2.376-.264c-4.356-.264-8.58-.4-12.936-.4-2.376-.132-4.752-.132-7.128-.132a37.559 37.559 0 0 1-5.412-.528 1.734 1.734 0 0 1-1.32-.4c.4-.4.924-.264 1.452-.264 1.848.132 3.564.264 5.412.264 6.2.132 12.276.264 18.48.528.66 0 1.452.132 2.244.132h1.716a.891.891 0 0 0 .792-.528 1.027 1.027 0 0 0-.272-1.036Zm-43.3-2.64h-.132c0-.132 0-.132.132-.132a.129.129 0 0 1 .132-.132c.136.128.004.128-.128.26Zm-49.892 12.14c-.132-.132-.264-.132-.528-.132a.253.253 0 0 1-.132-.4 1.008 1.008 0 0 1 .66-.264 115.621 115.621 0 0 0 11.748-4.884c3.828-1.716 7.392-3.564 11.088-5.412a14.956 14.956 0 0 1 2.64-1.188c.264-.132.528-.132.528 0 .132.264-.264.264-.4.4a.461.461 0 0 0-.264.132 5.519 5.519 0 0 0-2.244 1.452 3.905 3.905 0 0 1 1.32-.264 13.178 13.178 0 0 1-4.62 2.508l.4-.792a33.754 33.754 0 0 1-3.168 1.452c-.264.264-.4.4-.132.792h-.132a13.688 13.688 0 0 1-4.62 2.244 32.76 32.76 0 0 1-5.808 2.64 19.256 19.256 0 0 1-5.808 2.112c-.396.132-.66-.132-.528-.396Zm47.652-10.692a4.377 4.377 0 0 1 1.848-1.32 2.894 2.894 0 0 1-1.848 1.32Zm28.908-.792v-.136h-7.788v.132Zm-31.68 2.64a4.631 4.631 0 0 1 1.056-.66 2.874 2.874 0 0 1-1.056.66Zm-2.244 1.584a.461.461 0 0 1-.264-.132v-.264a.686.686 0 0 1 .528-.264 3.953 3.953 0 0 1 1.32-.528 3.6 3.6 0 0 1-1.584 1.188Zm-16.5-.66c-.132.132-.132.264-.264.264l-1.584 1.056c-6.076 3.168-12.276 5.94-18.612 8.58a27.376 27.376 0 0 1-4.356 1.32 2.246 2.246 0 0 1-.924.132c-.132-.132-.264-.132-.264-.264a.409.409 0 0 1 .132-.264c.132-.132.264-.132.528-.132a112.853 112.853 0 0 0 12.54-5.016c3.7-1.584 7.392-3.432 11.088-5.28a3.388 3.388 0 0 1 1.584-.66.129.129 0 0 0 .132.132Zm7.524 4.224c0-.132.264-.264.4-.4h-.924c-.132 0-.132-.132-.264-.264a.129.129 0 0 1 .132-.132c.132-.132.264-.264.4-.264 1.98-.66 4.092-1.32 6.072-1.98l1.056-.264a5.023 5.023 0 0 1-1.716 1.188 7 7 0 0 0-2.244 1.056c.66-.132 1.452-.264 2.112-.4l.4-.4a.485.485 0 0 1 .4.132c-.132 0-.132.132-.264.132-.132.132-.264.132-.528.132a9.86 9.86 0 0 1-4.62 1.716c-.148.012-.412.012-.412-.252Zm-19.4-2.244a1.876 1.876 0 0 0 .792-.264 1.876 1.876 0 0 0-.796.264Zm-.66.4a2.886 2.886 0 0 0 .66-.4Zm-1.588 1.052.792-.66a5.59 5.59 0 0 0-1.848.792 3.28 3.28 0 0 1 1.056-.132Zm31.416.66-.132.132a31.39 31.39 0 0 1-7.524 3.168l-.924.132c-.264 0-.528-.132-.528-.264s.132-.264.264-.4a2.23 2.23 0 0 0 .66-.264 44.2 44.2 0 0 0 7-2.508 2.447 2.447 0 0 1 .924-.264c.132-.132.264 0 .264.132Zm-36.432 1.188a5.59 5.59 0 0 0-1.848.792c.4 0 .792-.132 1.056-.132Zm37.224.4a2.886 2.886 0 0 1 .66-.4l-.792.4Zm-44.22 2.24Zm152.724-4.22c-.264-.264-.264-.528 0-.924a1.134 1.134 0 0 0-.132-1.716 2.435 2.435 0 0 1-.66-1.584c0-.924-.528-1.32-1.452-1.056l-1.188.4c-1.32.528-2.64 1.056-3.96 1.452l-6.2 2.376a81.92 81.92 0 0 1-10.828 3.952h-.4a35.907 35.907 0 0 1-6.468 1.716c-2.244.264-4.62.528-6.864.66a15.068 15.068 0 0 1-4.884-.66 2.653 2.653 0 0 1-1.056-.528.8.8 0 0 1 .132-1.32 2.448 2.448 0 0 1 .924-.264 62.609 62.609 0 0 0 5.94-1.98c.264-.132.66-.132 1.056-.264a.129.129 0 0 1 .132.132v.264l-.528.4a19.7 19.7 0 0 1-5.28 1.98 1.674 1.674 0 0 0-.792.132c-.132 0-.4.132-.4.264 0 .264.264.264.4.264a4.491 4.491 0 0 0 1.32-.132 47.614 47.614 0 0 0 8.052-3.432 3.42 3.42 0 0 0 1.452-1.32 11.722 11.722 0 0 1 2.112-2.9 4.6 4.6 0 0 0 1.32-3.828 14.063 14.063 0 0 0-2.244-6.6 4.1 4.1 0 0 0-3.7-1.98 9.812 9.812 0 0 0-6.2 2.112 40.817 40.817 0 0 0-5.412 5.28 13.48 13.48 0 0 0-3.168 8.58c0 1.452 0 3.036.132 4.488a10.558 10.558 0 0 0 2.9 5.94 10.76 10.76 0 0 0 7.26 2.9 46.773 46.773 0 0 0 9.636-.924 98.017 98.017 0 0 0 14.916-4.752 121 121 0 0 0 11.88-5.412 3.89 3.89 0 0 1 1.716-.66 1.876 1.876 0 0 0 .792-.264c-.124-.268-.124-.532-.256-.792Zm-36.828-13.336c.4-.132.528-.264.132-.66 0-.132.132-.4.264-.4a5.565 5.565 0 0 1 2.508-.4c.132.132.264.132.264.264.132.264-.132.264-.264.4-.132 0-.4.132 0 .264.132 0 .4 0 .4.264l-.4.264a1.19 1.19 0 0 0-.66.132 15.571 15.571 0 0 0-2.64.528 14.307 14.307 0 0 0-2.508 1.056 3.764 3.764 0 0 1 2.904-1.712Zm3.564 2.772a.409.409 0 0 1-.132.264.485.485 0 0 1-.4.132 7.513 7.513 0 0 0-3.828 1.452 2.124 2.124 0 0 1 1.584-1.716 3.659 3.659 0 0 1 2.64-.4.461.461 0 0 1 .136.268Zm-5.94 3.828a13.385 13.385 0 0 0 1.716-1.188 6.553 6.553 0 0 1 2.9-1.32.622.622 0 0 1 .792.132 1.127 1.127 0 0 1 0 .924 10.04 10.04 0 0 1-2.64 2.64 11.2 11.2 0 0 1-2.9 1.188c-.528.132-.792-.132-.792-.924-.132-.66.264-1.056.924-1.452Zm3.7 3.3c-.264.4-.66.4-1.056.528l-.264.264s-.132.132-.132 0c-.132 0-.132-.132.132-.132a.461.461 0 0 1 .264-.132c.264-.264.528-.66.924-.66 0-.132.132 0 .132 0Zm-7.128 2.772c0-.264.264-.4.528-.4a11.616 11.616 0 0 1 1.98-.66c.132-.132.264 0 .264.132a.409.409 0 0 1-.132.264l-.264.264a.461.461 0 0 1 .132.264.129.129 0 0 0-.132.132 8.066 8.066 0 0 1-1.848.924c-.264 0-.66.264-.792-.132-.136-.26-.004-.524.26-.788Zm2.376-.264v-.132s-.136 0-.004.132Zm6.732.264v-.136h.132Zm33 1.716c.264 0 .528.132.792.132a1.674 1.674 0 0 0-.796-.132Zm-12.408 4.62c-3.432 1.452-7 2.772-10.56 3.96a42.26 42.26 0 0 1-8.976 2.112 32.495 32.495 0 0 1-6.2-.132.461.461 0 0 1-.264-.132c0-.264.132-.4.264-.4.66 0 1.32-.132 1.848-.132a46.285 46.285 0 0 0 13.456-2.108c3.036-1.056 6.072-1.98 9.108-3.3.924-.4 2.112-.66 3.168-1.056a.622.622 0 0 1 .792.132 9.217 9.217 0 0 1-2.64 1.056Zm-18.352 1.056a76.849 76.849 0 0 0 7.92-1.848c.264.528 0 .528-.264.528l-1.584.792h.132a.409.409 0 0 0 .264.132c.132.132.132.264 0 .264-.132.132-.264.264-.4.264a36.24 36.24 0 0 1-10.56 1.848.527.527 0 0 1-.528-.264 24.366 24.366 0 0 1 3.036-.528c-2.112-.132-4.224.528-6.336-.4 2.908-.26 5.68-.392 8.32-.788Zm2.376.528a10.124 10.124 0 0 0 3.696-1.056l-1.848.4a4.477 4.477 0 0 0-1.852.656Zm-1.848.264-.132-.132-.132.132h.264Zm117.612-88.44c-.66-.264-.792-.66-.528-1.32.132-.4-.264-.66-.66-.528a5.717 5.717 0 0 0-.66.132 12.516 12.516 0 0 0-3.564 2.244c-1.848 1.716-3.564 3.432-5.544 5.016a7.965 7.965 0 0 0-1.056 1.056 15.821 15.821 0 0 1-1.584 1.452c-2.508 2.112-4.884 4.356-7.26 6.6-2.772 2.9-5.676 5.808-8.448 8.58-1.056 1.056-2.244 1.848-3.168 2.9-1.98 2.244-4.092 4.224-6.2 6.336-1.848 1.848-3.7 3.828-5.676 5.676a40.6 40.6 0 0 0-3.168 3.432 25.572 25.572 0 0 1-4.224 4.224 4.932 4.932 0 0 0-.792.924 30.243 30.243 0 0 1-2.772 3.036c-2.376 2.64-4.62 5.412-7 8.052-1.452 1.848-2.772 3.564-3.96 5.412-1.32 1.98-2.64 3.96-4.092 5.808-1.32 1.848-2.64 3.7-3.828 5.544-1.32 2.112-2.508 4.224-3.7 6.336a39.887 39.887 0 0 0-4.224 8.58 8.184 8.184 0 0 0-.528 3.036 12.183 12.183 0 0 0 2.512 7.392 8.74 8.74 0 0 0 10.956 3.04 20.913 20.913 0 0 0 7.92-5.676 3.828 3.828 0 0 0 1.188-1.98 19.086 19.086 0 0 1 1.192-2.904c1.584-2.64 2.112-3.3.924-7-.264-1.056 0-1.32 1.056-1.32a.485.485 0 0 1 .4-.132 60.936 60.936 0 0 0 8.58-.924 17.9 17.9 0 0 0 3.828-.792 30.93 30.93 0 0 1 5.28-1.716q5.544-1.584 11.088-3.564a2.947 2.947 0 0 0 1.716-.792v-.132a.461.461 0 0 0-.264-.132 1.435 1.435 0 0 0-.66.132c-5.412 1.98-11.088 3.564-16.764 5.016a37.353 37.353 0 0 1-7.656 1.452.794.794 0 0 1-.528-.132.129.129 0 0 1-.132-.132l.132-.132c.264 0 .4-.132.66-.132 5.676-1.056 11.22-2.772 16.764-4.356 2.244-.66 4.488-1.452 6.732-2.112a5.122 5.122 0 0 0 1.452-.792.687.687 0 0 0 0-1.056.816.816 0 0 0-.924-.264 3.854 3.854 0 0 0-1.188.264c-5.808 1.716-11.616 3.168-17.424 4.752a13.005 13.005 0 0 1-2.244.264l1.32-.792c-1.32.264-2.64.4-3.96.66-.528.132-1.056.132-1.584.264a7.527 7.527 0 0 0-1.716.132 4.613 4.613 0 0 1 1.716-.66c1.452-.264 2.9-.528 4.356-.924 5.94-1.584 12.012-3.168 18.084-4.884l1.32-.4a1.008 1.008 0 0 0 .66-.264c.132-.132.264-.264.264-.4a.421.421 0 0 0-.4-.4.58.58 0 0 0-.66-.132 5.614 5.614 0 0 0-1.452.264c-2.772.66-5.544 1.188-8.316 1.98-2.772.66-5.676 1.452-8.58 2.244a10.524 10.524 0 0 1-1.98.4 75.678 75.678 0 0 1-7.656.924 64.235 64.235 0 0 1-7.128-.132 2.573 2.573 0 0 1-1.056-.132c-.792-.264-1.452-.66-1.584-1.32-.264-.792.4-1.32 1.056-1.716a.129.129 0 0 1 .132-.132 6.728 6.728 0 0 0 2.244-2.508 9.844 9.844 0 0 0 .924-1.584.58.58 0 0 1-.132-.66 6.552 6.552 0 0 1 2.244-2.772 14.463 14.463 0 0 0 2.772-2.9 107.521 107.521 0 0 1 8.976-10.164 7.545 7.545 0 0 0 .924-1.056 13.081 13.081 0 0 1 3.564-3.564h-.132a15.96 15.96 0 0 0 2.112-2.112 18.849 18.849 0 0 1 3.564-3.7c1.056-.792 1.584-1.98 2.508-2.9a1.674 1.674 0 0 0 .132-.792 2.017 2.017 0 0 1 .528-1.32 42.156 42.156 0 0 1 4.356-4.092 9.883 9.883 0 0 1 1.716-2.376c2.9-2.9 5.94-5.676 8.58-8.844a2.241 2.241 0 0 1 .792-.792c2.112-2.112 4.224-4.092 6.336-6.072 2.244-2.112 4.356-4.092 6.6-6.2l5.148-5.016a11.323 11.323 0 0 0 1.716-2.64.86.86 0 0 0-.268-1.184Zm-23.368 26.136a3.519 3.519 0 0 0 1.584-1.32 5.57 5.57 0 0 0-1.584 1.32Zm-6.6 7h-.66a14.4 14.4 0 0 0-.792 1.452 2.6 2.6 0 0 0 1.452-1.456Zm-33.92 38.012c-.132.132-.264 0-.264-.132q.2-.4.4-.4l.132.132c-.004.272-.136.4-.268.4Zm24.156 5.016c.528-.132.924-.264 1.452-.4l-1.452.264c-.528.132-.924.264-1.452.4Zm-1.452.264c-.132 0-.132.132-.264.132.132 0 .132 0 .264-.132Zm-5.544 1.452a6.625 6.625 0 0 0 1.584-.264 3.348 3.348 0 0 0-1.584.264Zm-1.716.792h.264a.461.461 0 0 1-.264.132h-.132c-.132 0 0-.132.132-.132Zm-16.9 4.62a11.616 11.616 0 0 1 1.98.66 1.891 1.891 0 0 1 .796 2.508 16.426 16.426 0 0 1-1.32 2.64c-1.584 1.98-3.168 3.7-4.752 5.544a6.731 6.731 0 0 1-3.428 1.848l-2.9.66c-1.584 0-2.9-.924-2.508-2.508l.4-.924c0-.132.132-.132.264-.132v.132c.132.264 0 .4.264.528l.264-.264a14.664 14.664 0 0 1 .924-2.112c.528-1.32 1.188-2.508 1.716-3.828a6.9 6.9 0 0 0 .924-2.772 7.664 7.664 0 0 1 1.452-3.168 1.15 1.15 0 0 1 1.452-.4 6.433 6.433 0 0 1 1.452.528 8.33 8.33 0 0 0 3.024 1.06Zm-7.26 15.312a40.8 40.8 0 0 0 5.808-3.168 12.344 12.344 0 0 0 2.508-1.848c0-.132.264-.132.264-.132.264.132.132.264 0 .4 0 .132-.132.132-.132.264a3.249 3.249 0 0 1-2.64 1.32c0 .528-.4.924-.66 1.452a.97.97 0 0 1-.264.792 4.747 4.747 0 0 1-2.772 1.452c-.4.132-.264-.264-.264-.4l-1.98.4c-.26-.4.004-.532.136-.532Zm9.5-.132a36.163 36.163 0 0 1-4.752 3.036 8.983 8.983 0 0 1-3.168 1.056.461.461 0 0 1-.264-.132c-.132-.132 0-.264.132-.264a2.127 2.127 0 0 1 .924-.528 23.169 23.169 0 0 0 5.544-3.168 5.068 5.068 0 0 1 2.376-1.188 3.117 3.117 0 0 1-.784 1.188Zm196.82-94.252c-.132-.4-.528-.264-.924-.264s-.66.132-1.056.132a7.968 7.968 0 0 0 1.056-1.056.565.565 0 0 0 .132-.792c-.132-.264-.528-.132-.792 0a4.88 4.88 0 0 0-1.452.66 27.773 27.773 0 0 0-6.072 4.224 7.252 7.252 0 0 1-1.188.924c-1.188.792-2.244 1.584-3.432 2.508-3.96 3.168-8.316 5.94-12.144 9.24l-.4.264c-1.848 1.452-3.564 2.772-5.28 4.224-4.224 3.168-7.92 7-12.012 10.3-2.244 1.848-4.356 3.828-6.468 5.94-1.98 2.244-4.356 4.224-6.468 6.468-1.32 1.32-2.64 2.64-3.96 4.092a12.579 12.579 0 0 1-3.564 3.432c-.132 0-.264.132-.4.264-1.188 1.188-2.376 2.376-3.564 3.432s-1.98 2.508-3.168 3.564c-2.376 2.376-4.356 4.884-6.468 7.392a13.177 13.177 0 0 1-3.168 2.9 41.417 41.417 0 0 1-3.3 1.848.9.9 0 0 1-1.32-.264 9.849 9.849 0 0 1-.924-1.584 5.386 5.386 0 0 0-2.772-1.98 5.206 5.206 0 0 0-3.168-.132c-2.9.66-5.544 1.584-7.656 3.7a14.45 14.45 0 0 1-1.452 1.32 12.153 12.153 0 0 0-3.96 4.224 4.62 4.62 0 0 0-.792 3.432 16.972 16.972 0 0 0 .528 2.508 4.565 4.565 0 0 0 5.412 3.7l3.3-.924a37.619 37.619 0 0 0 9.372-3.3 2.372 2.372 0 0 1 1.188-.528 2.687 2.687 0 0 0 1.98-.792c.264-.4.792-.264.924.264.264.528.4 1.188.66 1.716a6.451 6.451 0 0 0 6.072 4.092 16.378 16.378 0 0 0 6.6-1.32 69.144 69.144 0 0 0 8.456-3.828c6.072-3.3 12.012-6.6 18.084-9.768.264-.132.792-.264.792-.66 0-.132-.4-.264-.528-.528-.132-.132 0-.4 0-.66a.953.953 0 0 0-.264-1.452c-.66-.4-1.056-.792-.792-1.716.132-.4-.528-.924-1.056-.792a1.141 1.141 0 0 0-.792.4c-.924.528-1.98.924-2.9 1.452a17.629 17.629 0 0 0-2.376.924 8.844 8.844 0 0 1-2.376.924 16.525 16.525 0 0 0-5.412 2.376 21.008 21.008 0 0 1-2.9 1.716c-3.036 1.452-6.2 2.9-9.24 4.488a10.415 10.415 0 0 1-3.828 1.056h-.792a.816.816 0 0 1-.66-1.056 8.411 8.411 0 0 1 .264-.924c1.056-1.584 1.848-3.3 3.432-4.488h-.132c.792-1.056 1.32-2.112 2.112-3.168a16.759 16.759 0 0 1 4.884-4.752 1.185 1.185 0 0 1 .264-1.188l1.188-1.188c1.848-1.98 3.828-3.96 5.676-5.808a5.168 5.168 0 0 1 1.32-1.056 3.61 3.61 0 0 0 1.716-1.716c.132-.528.528-.792.924-1.188a9.24 9.24 0 0 0 2.112-1.848c1.056-1.32 2.376-2.376 3.432-3.564a18.026 18.026 0 0 1 3.028-2.516v-.4a23.6 23.6 0 0 1 2.9-3.3c-.4-.528.132-.792.4-1.056l-.4 1.056a8.221 8.221 0 0 0 2.376-1.848 24.776 24.776 0 0 1 4.488-3.96 3.116 3.116 0 0 0 1.188-1.056 9.511 9.511 0 0 1 2.64-2.508 2.994 2.994 0 0 0 1.452-2.112 1.141 1.141 0 0 1 .4-.792 24.7 24.7 0 0 1 4.62-3.7l.4-.4.4-.4h-.132a32.059 32.059 0 0 1 3.96-3.432l2.508-1.98a24.423 24.423 0 0 1 4.884-3.3l.4-.4a14.027 14.027 0 0 1 3.96-3.432l1.188-.792a104.785 104.785 0 0 0 7.788-7.524 6.1 6.1 0 0 0 .924-.924c.12-.24.384-.64.12-1.04Zm-33.528 29.836v-.136l.132.132Zm-41.58 49.764a46.575 46.575 0 0 0 9.24-3.7c2.508-1.32 5.148-2.508 7.524-3.96 3.564-1.98 7.392-3.432 11.088-5.148a.794.794 0 0 1 .528-.132c.528 0 .4.4.264.66v.4a6.855 6.855 0 0 1-3.3 1.452 1.891 1.891 0 0 1-1.452.66c-.264.132-.4.264-.66.4l-.792.4a2.93 2.93 0 0 1-1.452.66c0-.132-.132-.4-.4-.264a4.88 4.88 0 0 0-1.452.66l.264.264c-.264 0-.132-.132-.264-.264a4.2 4.2 0 0 0-1.188.4c-1.98 1.056-4.092 2.112-6.2 3.168a5.743 5.743 0 0 0-.924.792l1.452-.4a5.537 5.537 0 0 1-1.848 1.188l.4-.792a10.525 10.525 0 0 0-2.112 1.056 1.674 1.674 0 0 0 .792.132 20.712 20.712 0 0 1-6.732 3.036c-.132.132-.4 0-.264-.264 0-.132.528-.4-.132-.264-.528 0-1.056.264-1.584.264a3.25 3.25 0 0 1-1.584.132c.128-.404.524-.404.788-.536Zm-20.46-10.956a9.532 9.532 0 0 1 5.412-1.452c.132.132.4.132.264.4a1.415 1.415 0 0 1-.264.792 20.491 20.491 0 0 1-2.772.528c-.4.132-.264-.264-.264-.528-.924.132-1.584.4-2.376.528Zm49.632 1.32a.989.989 0 0 1 .66-.132.129.129 0 0 1 .132.132v.132a1.814 1.814 0 0 1-1.056.66c-4.488 2.508-9.108 4.884-13.6 7.26-2.376 1.188-4.62 2.508-7 3.564a26.5 26.5 0 0 1-6.2 2.112 2.577 2.577 0 0 1-.924.132h-.26c-.132 0-.264-.132-.4-.132a.284.284 0 0 1 .264-.264 2.129 2.129 0 0 1 1.188-.4 43.238 43.238 0 0 0 7.792-3.028c5.016-2.508 10.032-5.148 15.048-7.788 1.452-.664 2.908-1.456 4.356-2.248Zm-44.088 1.452a.485.485 0 0 1-.4.132c-1.188.4-2.376.66-3.7 1.056-.132 0-.4 0-.4-.264 0 0 .132-.264.264-.264a9.121 9.121 0 0 1 3.96-1.188c.264 0 .4 0 .528.132.144.264-.12.396-.252.396Zm-8.448-.264c0-.132.132-.132.264-.132-.132 0-.264.132-.4.264.004-.132.004-.132.136-.132Zm3.564 3.432a.129.129 0 0 1-.132-.132v-.132a.129.129 0 0 1 .132-.132 8.019 8.019 0 0 1 4.356-1.716c-.264 1.716-1.584 2.112-3.036 2.508-.4 0-.264-.4-.264-.792Zm-3.96 4.488c-.132-.264.264-.4.66-.528.792-.264 1.716-.528 2.508-.792l3.828-1.188a3.744 3.744 0 0 1 1.716-.528 4.022 4.022 0 0 1-1.32.924c-.528.264-1.056.66-1.584.924h1.056c.132-.132.264-.264.4-.264.132-.132.264 0 .4 0-.132 0-.132.132-.264.132a.793.793 0 0 1-.528.132l-.264.264a23.849 23.849 0 0 1-7 1.98c-.136-.396.524-.528.392-1.056Zm31.68-1.584c.264-.132.528-.132.66-.264a.129.129 0 0 0 .132-.132h-.132a2.885 2.885 0 0 0-.656.396Zm-1.452.792a1.876 1.876 0 0 1-.792.264l-1.056.4c.4-.132.66-.132 1.056-.264Zm-19.404 1.32a10.315 10.315 0 0 1-2.64 1.452 43.264 43.264 0 0 1-8.976 2.508 1.674 1.674 0 0 1-.792.132c-.132-.132-.264-.132-.264-.264a.253.253 0 0 1 .132-.4l1.452-.4a61.5 61.5 0 0 0 9.9-3.036l1.056-.4.132.132Zm98.076-2.9c-.264-.264-.264-.528 0-.924a1.134 1.134 0 0 0-.132-1.716 2.435 2.435 0 0 1-.66-1.584c0-.924-.528-1.32-1.452-1.056l-1.188.4c-1.32.528-2.64 1.056-3.96 1.452l-6.2 2.376a81.92 81.92 0 0 1-10.824 3.952h-.4a35.907 35.907 0 0 1-6.468 1.716c-2.244.264-4.62.528-6.864.66a15.068 15.068 0 0 1-4.884-.66 2.653 2.653 0 0 1-1.056-.528.8.8 0 0 1 .132-1.32 2.448 2.448 0 0 1 .924-.264 62.609 62.609 0 0 0 5.94-1.98c.264-.132.66-.132 1.056-.264a.129.129 0 0 1 .132.132v.264l-.528.4a19.7 19.7 0 0 1-5.28 1.98 1.674 1.674 0 0 0-.792.132c-.132 0-.4.132-.4.264 0 .264.264.264.4.264a4.491 4.491 0 0 0 1.32-.132 47.614 47.614 0 0 0 8.052-3.432 3.42 3.42 0 0 0 1.452-1.32 11.722 11.722 0 0 1 2.112-2.9 4.6 4.6 0 0 0 1.32-3.828 14.063 14.063 0 0 0-2.244-6.6 4.1 4.1 0 0 0-3.7-1.98 9.812 9.812 0 0 0-6.2 2.112 40.817 40.817 0 0 0-5.412 5.28 13.48 13.48 0 0 0-3.168 8.58c0 1.452 0 3.036.132 4.488a10.558 10.558 0 0 0 2.9 5.94 10.76 10.76 0 0 0 7.264 2.896 46.773 46.773 0 0 0 9.636-.924 98.017 98.017 0 0 0 14.916-4.752 121 121 0 0 0 11.88-5.412 3.89 3.89 0 0 1 1.716-.66 1.876 1.876 0 0 0 .792-.264c-.132-.264-.132-.528-.264-.788Zm-36.828-13.336c.4-.132.528-.264.132-.66 0-.132.132-.4.264-.4a5.565 5.565 0 0 1 2.508-.4c.132.132.264.132.264.264.132.264-.132.264-.264.4-.132 0-.4.132 0 .264.132 0 .4 0 .4.264l-.4.264a1.19 1.19 0 0 0-.66.132 15.571 15.571 0 0 0-2.64.528 14.307 14.307 0 0 0-2.508 1.056 3.764 3.764 0 0 1 2.904-1.712Zm3.564 2.772a.409.409 0 0 1-.132.264.485.485 0 0 1-.4.132 7.513 7.513 0 0 0-3.82 1.452 2.124 2.124 0 0 1 1.584-1.716 3.659 3.659 0 0 1 2.64-.4.461.461 0 0 1 .128.268Zm-5.94 3.828a13.385 13.385 0 0 0 1.716-1.188 6.553 6.553 0 0 1 2.9-1.32.622.622 0 0 1 .792.132 1.127 1.127 0 0 1 0 .924 10.04 10.04 0 0 1-2.64 2.64 11.2 11.2 0 0 1-2.9 1.188c-.528.132-.792-.132-.792-.924-.132-.66.264-1.056.924-1.452Zm3.7 3.3c-.264.4-.66.4-1.056.528l-.264.264s-.132.132-.132 0c-.132 0-.132-.132.132-.132a.461.461 0 0 1 .264-.132c.264-.264.528-.66.924-.66 0-.132.132 0 .132 0Zm-7.128 2.772c0-.264.264-.4.528-.4a11.616 11.616 0 0 1 1.98-.66c.132-.132.264 0 .264.132a.409.409 0 0 1-.132.264l-.264.264a.461.461 0 0 1 .132.264.129.129 0 0 0-.132.132 8.066 8.066 0 0 1-1.848.924c-.264 0-.66.264-.792-.132-.136-.26-.004-.524.26-.788Zm2.376-.264v-.132s-.136 0-.004.132Zm6.732.264v-.136h.132Zm33 1.716c.264 0 .528.132.792.132a1.674 1.674 0 0 0-.796-.132Zm-12.412 4.62c-3.432 1.452-7 2.772-10.56 3.96a42.26 42.26 0 0 1-8.976 2.112 32.495 32.495 0 0 1-6.2-.132.461.461 0 0 1-.264-.132c0-.264.132-.4.264-.4.66 0 1.32-.132 1.848-.132a46.285 46.285 0 0 0 13.46-2.108c3.036-1.056 6.072-1.98 9.108-3.3.924-.4 2.112-.66 3.168-1.056a.622.622 0 0 1 .792.132 9.217 9.217 0 0 1-2.64 1.056Zm-18.348 1.056a76.849 76.849 0 0 0 7.92-1.848c.264.528 0 .528-.264.528l-1.588.792h.132a.409.409 0 0 0 .264.132c.132.132.132.264 0 .264-.132.132-.264.264-.4.264a36.24 36.24 0 0 1-10.56 1.848.527.527 0 0 1-.528-.264 24.366 24.366 0 0 1 3.036-.528c-2.112-.132-4.224.528-6.336-.4 2.912-.26 5.684-.392 8.324-.788Zm2.376.528a10.124 10.124 0 0 0 3.692-1.056l-1.848.4a4.477 4.477 0 0 0-1.844.656Zm-1.848.264-.132-.132-.132.132h.264Zm82.368-7.656a2.654 2.654 0 0 1-.528-1.056 2.98 2.98 0 0 0-2.64-2.112 9.925 9.925 0 0 0-1.98 0 64.77 64.77 0 0 0-10.164 1.188 5.978 5.978 0 0 1-2.112.4 37.816 37.816 0 0 0-7.656 1.716 14.609 14.609 0 0 1-3.432.924 9.247 9.247 0 0 0-1.848.4c-.528.132-1.056.66-1.716.132-.4-.528-.132-1.056 0-1.584 0-.264.132-.4.132-.66h.132c.132 0 .264-.132.4-.132h-.528a4.069 4.069 0 0 0 0-2.508v-.132a8.123 8.123 0 0 0-.924-3.036 15.611 15.611 0 0 0-2.9-3.7 2.217 2.217 0 0 0-2.508-.528l-2.516 14.384a8.9 8.9 0 0 1-3.7 3.96 78.018 78.018 0 0 0-6.86 4.62l-2.38 1.716c-.264.264-.66.4-.924.66-2.244 2.64-5.544 4.224-7.656 6.864 0 .132-.132.132-.264.264a41.214 41.214 0 0 0-8.052 8.58 11.425 11.425 0 0 1-.924 1.32 26.181 26.181 0 0 0-3.7 5.676c-.66 1.32-1.32 2.64-1.98 3.828a17.55 17.55 0 0 0-1.98 7.26 9.147 9.147 0 0 0 .4 2.64l1.188 3.168a4.572 4.572 0 0 0 2.64 2.772 3.308 3.308 0 0 1 .924.528 2.631 2.631 0 0 0 2.772.132 26.126 26.126 0 0 0 5.28-3.036 56.107 56.107 0 0 0 8.58-8.184 7.544 7.544 0 0 0 1.452-2.112l-.792.4c-.132 0-.132-.132-.132-.264.264-.4.528-.4.924-.132.792-1.056 1.98-1.98 2.508-3.3-.264-.66.132-1.056.66-1.452.4-.264.792-.66.792-1.056.66-2.772 2.508-4.884 3.828-7.128.132-.264.4-.4.528-.528a4.728 4.728 0 0 1 .528-1.456c.924-1.716 1.848-3.432 2.772-5.016l.792-.792c0 .264-.264.66 0 1.056a8.535 8.535 0 0 0 1.188-2.112c0-.132 0-.264-.132-.264a.409.409 0 0 0-.264.132 1.822 1.822 0 0 1-.528.4 5.518 5.518 0 0 1 .528-1.32c.924-1.98 1.98-4.092 3.036-6.072a2.891 2.891 0 0 1 1.72-1.588 4.741 4.741 0 0 0 1.32-.924.6.6 0 0 0 0-.66 11.007 11.007 0 0 1 1.584-1.056 69.579 69.579 0 0 1 6.732-2.508 113.408 113.408 0 0 1 11.088-2.776c1.452-.264 2.9-.66 4.224-.924a57.818 57.818 0 0 1 8.316-1.576 6.99 6.99 0 0 1 3.3.132 1.876 1.876 0 0 0 .792.264c.792.132 1.056-.132 1.188-.924a3.215 3.215 0 0 0-.528-2.908Zm-38.148-7.788c.264.132.4.264.264.4 0 .264-.264.4-.528.528l-.132-1.716c.66-.132.924-.132.924.132 0 .392-.264.524-.528.656Zm5.28 13.332a5.738 5.738 0 0 1 .924-.528h-.528a.461.461 0 0 1-.264-.132.485.485 0 0 1 .132-.4 12.864 12.864 0 0 0 1.452-.66l5.808-1.584a164.8 164.8 0 0 1 18.216-3.7 4.848 4.848 0 0 1 2.376.132c-1.056.66-2.112.4-3.168.924h-1.188c-.792.132.132.4-.132.528a12.463 12.463 0 0 1-1.188.4l-6.072 1.188a142.522 142.522 0 0 0-15.18 4.092 2.487 2.487 0 0 0-1.056.264.284.284 0 0 1-.264-.264.409.409 0 0 1 .132-.26Zm1.584-6.468-.132.132h.132Zm24.156.66h-.132c-.264 0-.4-.132-.528-.132h.528c.132 0 .264.132.132.132Zm-4.62.4h-.4c-.132 0-.264.132-.4.132h.4c.136-.004.268-.132.4-.132Zm-2.64.528a4.065 4.065 0 0 0 1.716-.4 6.549 6.549 0 0 0-1.716.396Zm-1.848.4a6.548 6.548 0 0 0 1.716-.4 8.062 8.062 0 0 0-1.716.392Zm-.132 0h-.26a.129.129 0 0 0-.132.132h.132a.461.461 0 0 0 .26-.14Zm-2.772.528h-.132a.461.461 0 0 1-.264.132h.264c.264-.008.264-.14.132-.14Zm15.84.792c-.132 0-.264.132-.528.132-5.94.792-11.748 2.376-17.556 3.7a77.506 77.506 0 0 0-12.276 3.7c-.528.132-1.056.528-1.716.4l-.132-.28c.132-.132.264-.4.4-.4l1.584-.792a66.416 66.416 0 0 1 9.9-3.168c4.62-1.056 9.24-2.112 13.86-3.036 1.848-.4 3.828-.66 5.676-.924a1.429 1.429 0 0 1 .792.132.284.284 0 0 1 .264.264Zm-16.236-.66c-.528.132-.924.264-1.452.4Zm-3.168.792a6.962 6.962 0 0 0 1.584-.4 3.514 3.514 0 0 0-1.584.392Zm-1.584.264a5.614 5.614 0 0 0 1.452-.264Zm-1.32.4a3.854 3.854 0 0 0 1.188-.264 3.855 3.855 0 0 0-1.188.252Zm-20.988 9.5a9.1 9.1 0 0 1-4.356 2.9v-.268a12.178 12.178 0 0 0-1.056.66h.66a1 1 0 0 1-1.056.4l-1.056.66c.264.528 0 .66-.4.792a2.874 2.874 0 0 1-1.056.66v-.4h-.66a4.2 4.2 0 0 1 1.32-1.32 53.963 53.963 0 0 1 7.656-5.544c.4-.264.792-.4 1.188-.66h.528c-.392.924-.524 1.848-1.712 2.112Zm-.66 0h.66a2.885 2.885 0 0 1 .4-.66 4.631 4.631 0 0 0-1.06.652Zm-3.3 2.244v-.14l-.4.4Zm2.376 2.9a5.168 5.168 0 0 1-1.32 1.056 91.957 91.957 0 0 0-7.788 6.468c-1.452 1.32-2.772 2.772-4.224 4.092-.132-.264-.264-.4-.264-.66a78.141 78.141 0 0 1 10.956-9.9 9.7 9.7 0 0 1 2.244-1.584.485.485 0 0 1 .4.132Zm-6.336 0h.66v-.4Zm-1.188.4a2.883 2.883 0 0 0 .4.66 1.663 1.663 0 0 1-1.716.4 1.754 1.754 0 0 1 1.316-1.068Zm-9.5 9.372c.924-1.056 1.848-1.98 2.772-2.9a14.452 14.452 0 0 0 1.32-1.452l.4-.4a13.818 13.818 0 0 0 1.056-1.452 4.894 4.894 0 0 1 2.244-1.716v.66a.129.129 0 0 0-.132.132.409.409 0 0 0 .132.264c-1.848 1.584-3.564 3.3-5.28 5.016l-2.112 2.112a6.46 6.46 0 0 1-1.724 1.576 3.7 3.7 0 0 1 1.32-1.848Zm15.176-6.476c-.132.132-.264.132-.264.264-.132 1.98-1.32 3.3-2.244 4.884a92.576 92.576 0 0 1-4.884 8.712 17.565 17.565 0 0 1-1.848 2.508c-.924 1.32-2.112 2.64-3.036 4.092a15.01 15.01 0 0 1-1.98 2.112c-1.848 1.584-3.564 3.3-5.544 4.752l-.792.66a3 3 0 0 1-2.772.66c-.528-.132-.66-.264-.528-.792.528-1.32.66-2.772 1.848-3.828v1.056a1.49 1.49 0 0 0 .4-1.452l.66-1.056h.132a.552.552 0 0 1 0-.924 2.318 2.318 0 0 1 .652-.532 1.213 1.213 0 0 1 .264-1.32c.264-.264.528-.66.792-.924h-.256c.132-.264.132-.132.264 0a9.088 9.088 0 0 0 1.452-1.716 80.259 80.259 0 0 1 13.2-14.388c1.32-1.188 2.64-2.112 3.96-3.168a.485.485 0 0 1 .4-.132c.256.136.124.4.124.532Zm-16.632 8.316a20.232 20.232 0 0 1-3.828 5.016 14.148 14.148 0 0 1 3.828-5.016Zm3.7 1.452-.132.132c0 .132-.132.132-.132.264v-.264c.128-.132.128-.264.26-.132Zm-.4.4a.284.284 0 0 1-.264.264v-.264Zm-.264.4a2.768 2.768 0 0 1-.792 1.056 9.106 9.106 0 0 1 .4-1.056Zm7.128 5.94c0 .132-.132.132-.264.132.132 0 .132-.132.132-.264l.132-.132c.132.124.132.124 0 .256Zm-11.484 0v.132l-.132-.132Zm10.56 1.308a2.874 2.874 0 0 1 .66-1.056 1.814 1.814 0 0 1-.66 1.056Zm-1.452 2.112a2.368 2.368 0 0 1 .66-.924 4.013 4.013 0 0 1-.66.928Zm-1.848 2.244a3.866 3.866 0 0 1 1.716-2.112 3.866 3.866 0 0 1-1.716 2.116Zm-.66 1.056a26.987 26.987 0 0 1-4.752 4.752 2.654 2.654 0 0 1 .528-1.056c1.584-1.584 3.036-3.3 4.752-4.752a2.654 2.654 0 0 1-.528 1.06Zm2.112 2.9.4-1.056c.132-.132.264-.264.264-.4h.132a1.516 1.516 0 0 1-.796 1.464Zm-13.464.792.4-1.056a1.877 1.877 0 0 1 .264-.792l-.4.792a4.08 4.08 0 0 1-.26 1.064Zm10.956 2.112a42.073 42.073 0 0 1-7.128 5.676 6.008 6.008 0 0 1-2.508 1.056c-.132 0-.4 0-.4-.264a.409.409 0 0 1 .132-.264 1.823 1.823 0 0 1 .528-.4 51.005 51.005 0 0 0 8.184-5.808 3.269 3.269 0 0 1 1.848-1.056 7.368 7.368 0 0 1-.656 1.068Zm-10.952 3.704c-.132-.132-.132-.4-.264-.528-.132-.264-.264-.528.132-.792 1.584-.792 3.036-2.112 4.752-2.64l-1.72 1.716a1.19 1.19 0 0 1 .66.132 4.828 4.828 0 0 1-3.56 2.112Zm106.652-81.576a.8.8 0 0 0 .4.792 1.433 1.433 0 0 0 2.244.132l.792-.792a17 17 0 0 1 2.244-2.112c.264-.132.528-.66.66 0a6.5 6.5 0 0 0 1.98-1.32 28.827 28.827 0 0 1 2.9-2.772 2.232 2.232 0 0 0 .924-1.32h.132a.5.5 0 0 1 0-.792l1.32-1.188a4.289 4.289 0 0 0 1.32-1.716 1.084 1.084 0 0 0-.132-.924.828.828 0 0 0-1.056-.264 9.722 9.722 0 0 0-1.848.528l1.32-1.32c.264-.264.66-.4.528-.792 0-.4-.528-.528-1.188-.264a1.876 1.876 0 0 0-.792.264 21.906 21.906 0 0 0-4.224 2.9 10.646 10.646 0 0 1-1.848 1.584c-2.112 1.584-3.564 3.7-5.28 5.544a1.339 1.339 0 0 0-.4 1.32 4.064 4.064 0 0 1 .004 2.512Zm5.676-1.584c-.132.132-.132.4.132.4.132 0 .264-.132.4-.264l.132-.528h-.66Zm8.712 29.172c-.132.132-.4.132-.66.264a80.91 80.91 0 0 1-8.052 2.376 90.821 90.821 0 0 0-11.484 3.96 212.04 212.04 0 0 0-8.184 3.3 28.029 28.029 0 0 1-5.94 1.584 1.831 1.831 0 0 1-1.188 0c-.132 0-.132-.132-.132-.264-.132-.132 0-.132 0-.132l.792-.4a37.184 37.184 0 0 0 4.092-.924c2.244-.66 4.224-1.584 6.336-2.376a115.042 115.042 0 0 1 12.8-4.752c3.564-1.056 7.128-2.112 10.692-3.036.528-.264 1.056-.4 1.584-.66a.891.891 0 0 0 .528-.792 1.336 1.336 0 0 0-.528-.924c-.528-.132-.924-.4-1.452-.528a3.654 3.654 0 0 0-1.716.4h.528l.132.264a.686.686 0 0 1-.528.264 6.534 6.534 0 0 1-1.716.528c-2.64.792-5.412 1.452-8.184 2.244a4.493 4.493 0 0 1-1.848.264 3.584 3.584 0 0 1-2.244.792 3.451 3.451 0 0 1-1.056.4 1.5 1.5 0 0 1 1.056-.4 3.5 3.5 0 0 0 .66-.792 9.2 9.2 0 0 0-2.508.792 25.362 25.362 0 0 0-5.148 2.244c.4 0 .792-.132 1.188-.132a2.606 2.606 0 0 1-1.848.792l.66-.66.132-.132a25.827 25.827 0 0 0-6.2 2.64h1.056a15.412 15.412 0 0 1-5.808 2.112c-.132 0-.4 0-.4-.264 0-.132.264-.264.4-.4h-.4c-.264 0-.4-.132-.4-.264-.132-.264.132-.4.264-.4.132-.132.264-.132.528-.264a62.239 62.239 0 0 0 9.116-3.156 97.032 97.032 0 0 1 14.652-5.28 78.985 78.985 0 0 1 9.636-2.376.674.674 0 0 0 .66-.528.707.707 0 0 0-.66-.66h-.924c-2.772.528-5.412.528-8.052 1.584-.792.4-1.716.66-2.508 1.056a13.924 13.924 0 0 1-3.168.792 20.3 20.3 0 0 0-6.2 2.112 21.06 21.06 0 0 1-3.036 1.32c-1.98.792-4.092 1.452-6.2 2.112l-1.584.4c-.4 0-.66-.4-.528-.66a3.261 3.261 0 0 1 .528-1.188 28.317 28.317 0 0 1 2.376-3.168 2.013 2.013 0 0 0 .924-1.584 3.925 3.925 0 0 1 1.056-2.64 13.143 13.143 0 0 0 1.32-1.452 2.372 2.372 0 0 0 .528-1.188 1.266 1.266 0 0 0-.4-1.32.983.983 0 0 0-1.188-.132c-.264.132-.4.132-.4-.264 0-.132.132-.264.132-.4.4-.792.132-1.056-.792-1.056a3.763 3.763 0 0 0-1.848 1.056c-1.452 1.32-2.64 2.9-4.092 4.488a56.577 56.577 0 0 0-5.28 7.26 4.93 4.93 0 0 0-.66 3.828c0 .528.132 1.056.132 1.452a5.483 5.483 0 0 0 6.6 5.148.129.129 0 0 0 .132-.132c1.716-.4 3.3-.792 4.884-1.32 2.376-.792 4.752-1.716 7-2.64a72.125 72.125 0 0 1 10.164-3.7c4.092-1.188 8.184-2.376 12.144-3.828.264-.132.66-.132.924-.528.128-.264-.532-.264-1.192-.132Zm-3.96-2.64c-.528.132-1.056.264-1.452.4l1.452-.264Zm-1.452.4c-.528.132-.924.264-1.452.4Zm-2.9.792a8.117 8.117 0 0 0 1.452-.4 2.661 2.661 0 0 0-1.456.396Zm-2.64.66a6.009 6.009 0 0 0 2.64-.66 8.618 8.618 0 0 0-2.644.656Zm-2.508.792a4.346 4.346 0 0 0 2.508-.792 6.17 6.17 0 0 0-2.512.788Zm0 0a4.866 4.866 0 0 0-2.244.66h1.452a3.5 3.5 0 0 0 .788-.664Zm-.66.66Zm-16.5 5.94 1.188-.4h-.132Zm0 0a3.106 3.106 0 0 0-1.056.264c.392-.136.788-.136 1.052-.268Zm104.808-7.524c-5.412 2.112-10.824 4.092-15.972 6.6-2.112.924-4.224 1.848-6.336 2.9-4.092 1.98-8.052 4.092-12.144 6.072-.264 0-.4.132-.528.132a.485.485 0 0 1-.4-.132s0-.264.132-.264c1.188-.792 2.376-1.452 3.564-2.112 6.6-3.3 13.068-6.468 19.8-9.372 3.828-1.716 7.788-3.168 11.748-4.62a12.863 12.863 0 0 0 1.452-.66.831.831 0 0 0 .4-1.056.724.724 0 0 0-.792-.528 5.673 5.673 0 0 0-1.584.264l-5.94 1.98a10.487 10.487 0 0 1-2.9.792 2.318 2.318 0 0 1 .528-.66 10.058 10.058 0 0 0-2.64.792c-1.98.924-4.092 1.716-6.072 2.64a18.9 18.9 0 0 0-2.772 1.584h1.056l-.66.4c-.264.132-.4-.132-.4-.4a10.018 10.018 0 0 0-2.376.792 7.111 7.111 0 0 1-2.772 1.056 6.094 6.094 0 0 1 1.98-1.188c2.244-1.056 4.356-2.112 6.6-3.036 5.412-2.376 10.692-4.884 16.5-6.2.132-.132.4-.132.528-.264.264-.132.4-.264.4-.528a1.031 1.031 0 0 0-.528-.528 1.841 1.841 0 0 0-1.452 0l-2.112.4a48.476 48.476 0 0 0-9.636 3.168 66.518 66.518 0 0 1-8.316 3.7c-.264.132-.66.4-.924.528l-4.36 1.968c-.264.132-.66.264-.924-.132a.8.8 0 0 1 0-1.056l.792-1.188c.132-.264.4-.528.132-.924a11.907 11.907 0 0 0-1.188 1.32 4.441 4.441 0 0 1 1.716-2.64h.4a15.819 15.819 0 0 0 1.452-1.584 1.055 1.055 0 0 0 .264-1.452c-.132-.528-.528-.924-.264-1.452a1.773 1.773 0 0 0-.924-1.848 1.871 1.871 0 0 1-.924-1.848 1.467 1.467 0 0 0-1.98-1.188l-.924.528a70.39 70.39 0 0 0-6.732 4.092 1.212 1.212 0 0 1-.792.528 1.929 1.929 0 0 1-2.244-.66l-.792-1.188a6.48 6.48 0 0 0-3.7-2.772 13.583 13.583 0 0 0-7.26-.264 22.886 22.886 0 0 0-8.316 4.356 45.157 45.157 0 0 0-5.676 5.544c-1.716 2.112-2.508 4.356-1.584 7 .132.264.132.66.264 1.056a5.912 5.912 0 0 0 4.62 3.96 8.1 8.1 0 0 0 4.356-.264 74.789 74.789 0 0 0 15.18-5.676l2.508-1.188c.264-.132.528-.264.792 0a4.632 4.632 0 0 0-.66 1.056 13.39 13.39 0 0 1-2.112 3.432c-1.456 2.108-3.172 4.22-5.812 5.144a.686.686 0 0 0-.528.264c-2.772 1.98-5.94 3.564-8.58 5.812-1.584 1.188-3.036 2.244-4.62 3.3a44.458 44.458 0 0 1-4.092 2.772c-.792.528-1.452 1.188-2.244 1.716a115.93 115.93 0 0 1-6.072 5.28c-1.452 1.188-2.9 2.508-4.224 3.7-.4.4-.792.66-.924 1.056a7.716 7.716 0 0 1-1.716 1.848 42.189 42.189 0 0 0-3.564 3.3 68.688 68.688 0 0 0-4.884 5.676c-1.584 1.848-3.036 3.828-4.62 5.808a39.2 39.2 0 0 0-3.96 6.336 8.87 8.87 0 0 1-.792 1.584 44.817 44.817 0 0 0-3.432 6.6 12.87 12.87 0 0 0-1.056 2.9 6.11 6.11 0 0 0 1.056 5.016c.4.66.792 1.188 1.056 1.716a6.115 6.115 0 0 0 8.58 2.112 46.582 46.582 0 0 0 4.224-2.772c2.9-2.508 5.94-5.016 8.712-7.788a109.4 109.4 0 0 0 13.992-16.24l5.94-8.052c1.716-2.508 3.564-5.016 5.28-7.392.4-.66.792-1.32 1.188-1.848a.848.848 0 0 1-.132-1.188 3.117 3.117 0 0 1 1.188-1.056 2.615 2.615 0 0 0 1.452-1.452c-.264.132-.4.4-.66.528a.485.485 0 0 1-.4-.132v-.264a3.558 3.558 0 0 1 1.056-.924v.792a2.768 2.768 0 0 0 1.056-1.452l-.66.4c.132-.264.132-.528.4-.792.132-.264.4-.132.66 0a11.177 11.177 0 0 0 1.852-2.512 7.84 7.84 0 0 0-1.452 1.056c1.188-2.244 1.188-2.244 2.772-3.3a3.744 3.744 0 0 0 1.32-1.188 11.015 11.015 0 0 0 1.056-1.584 12.092 12.092 0 0 1 2.376-2.9 23.718 23.718 0 0 0 2.64-2.508 6.623 6.623 0 0 1 1.98-1.848c.924-.528 1.98-1.056 3.036-1.584l10.3-5.148a236.023 236.023 0 0 1 22.968-9.9c.66-.264 1.32-.264 1.716-.924-.668-.4-1.328.128-1.988.26Zm-53.856-6.6a11.866 11.866 0 0 1 5.544-1.716 5.131 5.131 0 0 1 1.98.264 6.626 6.626 0 0 0-1.584.264c-.4.132-.924 0-1.056.792a1.366 1.366 0 0 1-.528.132 14.816 14.816 0 0 1-3.432 1.056v-.4c-.264 0-.528.132-.792.132a.461.461 0 0 1-.264-.132c-.14-.264-.004-.396.128-.396Zm1.584 0a2.887 2.887 0 0 1-.66.4l.792-.4Zm20.856.924c.132.132-.132.264-.264.264a1.876 1.876 0 0 1-.792.264c.132-.132.4-.264.66-.528.128-.004.26-.136.392-.004Zm-1.188.66a2.231 2.231 0 0 1-.264.66h-.792a2.335 2.335 0 0 1 1.052-.664Zm-20.332 2.104a10.654 10.654 0 0 1 6.2-2.112c.132 0 .4 0 .4.132 0 .264-.264.264-.528.4a31.82 31.82 0 0 0-5.94 2.112c-.264.132-.66.132-.924.264.264-.264.528-.66.792-.796Zm-4.62 5.544a25.837 25.837 0 0 1 5.544-4.488 9.092 9.092 0 0 1 5.544-1.584h.66a12.611 12.611 0 0 1 3.168 0c.264 0 .528.132.792.132a.694.694 0 0 1 .264 1.188 3.5 3.5 0 0 1-.792.66c-2.772 1.32-5.28 2.9-8.316 3.7-1.188.4-2.244.924-3.432 1.32a10.67 10.67 0 0 1-2.9.924 1.028 1.028 0 0 1-.924-.4.8.8 0 0 1 .132-1.056c.128-.128.26-.26.26-.392Zm52.668-4.884a3.854 3.854 0 0 0 1.188-.264c-.396.136-.792.136-1.188.268Zm-1.056.4c.4-.132.66-.264 1.056-.4Zm-1.848.792c-.4.132-.66.132-1.056.264l-.132.132h.132Zm-51.876 8.448v-.132c.132 0 .264-.132.4-.132l.66-.264a73.58 73.58 0 0 0 13.992-5.016 15.188 15.188 0 0 1 2.244-.792 4.861 4.861 0 0 1 2.508-1.452 4.109 4.109 0 0 1-2.508 1.452 8.539 8.539 0 0 0-1.056 1.188l2.112-.792a3.744 3.744 0 0 1-1.452 1.056 61.982 61.982 0 0 1-11.484 4.752 7.474 7.474 0 0 1-2.376.4.461.461 0 0 1-.264.132h-.264c.132 0 .132-.132.264-.132h.264a7.32 7.32 0 0 0 1.056-.792l-3.828.792a.284.284 0 0 1-.268-.268Zm3.036-4.884c.132 0 .264-.132.4-.264Zm13.2-.264a1.876 1.876 0 0 0-.792.264 1.876 1.876 0 0 0 .796-.264Zm5.148 1.32a19.114 19.114 0 0 1-5.016 2.9 62.874 62.874 0 0 1-11.748 4.36c-1.056.264-1.98.4-2.772.528h-.792c-.132-.132-.264-.132-.264-.264-.132 0 0-.264.132-.264.132-.132.4-.132.66-.264a78.514 78.514 0 0 0 19.4-7.392c.528-.264.792-.792 1.452-.528-.128.528-.656.66-1.052.924Zm-18.344-1.056-.4.4h.132c0-.136.132-.268.268-.4Zm12.408 0a2.886 2.886 0 0 0-.66.4Zm-3.036 1.452a4.066 4.066 0 0 0 1.584-.66 8.073 8.073 0 0 0-1.588.66Zm0 0h-.272a2.885 2.885 0 0 1-.66.4 2.23 2.23 0 0 1 .66-.264c.136-.004.136-.136.268-.136Zm-3.832 1.452v.132l1.056-.4c-.396.136-.796.136-1.056.268Zm-3.04 1.188h.132a9.093 9.093 0 0 1 1.056-.4Zm27.72 0a3.261 3.261 0 0 1-1.188.528 3.262 3.262 0 0 1 1.192-.528Zm-2.112 1.98a6.985 6.985 0 0 1 2.772-1.452c-.788.924-.788.924-2.768 1.452Zm-23.492 12.012a7.29 7.29 0 0 1 3.828-2.376 8.937 8.937 0 0 1-3.828 2.376Zm-1.32.924a2.368 2.368 0 0 1 .924-.66 1.528 1.528 0 0 1-.92.66Zm-1.32 1.716a4.689 4.689 0 0 1-1.188.528c-.528.264-1.188.4-1.848.66a7.263 7.263 0 0 1 2.508-1.98.589.589 0 0 1 .66 0c.264.132.132.528-.132.792Zm-3.564 6.468a8.977 8.977 0 0 1 3.828-2.772 10.233 10.233 0 0 1-3.828 2.772Zm.66 1.584c-.132.4-.528.792-.132 1.188a11.52 11.52 0 0 1-2.244 3.564c-.792.924-1.452 2.112-2.244 3.168a56.086 56.086 0 0 1-3.3 4.488 37.376 37.376 0 0 0-2.64 3.7 2.885 2.885 0 0 1-.4.66c-2.772 3.168-5.016 6.6-7.788 9.768a48.235 48.235 0 0 1-3.168 4.092 7.3 7.3 0 0 1-1.848 1.584 4.012 4.012 0 0 0-1.584 1.716 5.415 5.415 0 0 1-2.112 2.112 21.54 21.54 0 0 0-2.64 2.244c-1.716 1.584-3.564 2.9-5.412 4.356-.4.264-.924.66-1.452.528-.66 0-.924-.264-.792-.924a2.23 2.23 0 0 1 .264-.66 45.31 45.31 0 0 1 4.884-9.372c1.452-1.98 2.9-4.224 4.488-6.336a117.721 117.721 0 0 1 18.748-19.276c2.772-2.244 5.808-4.356 8.712-6.6l.4-.264h.264Zm-9.5.528h.4a.485.485 0 0 1-.132.4 3.935 3.935 0 0 1-1.848 1.32 6.461 6.461 0 0 1 1.576-1.72Zm5.94.132v.132h-.264a.461.461 0 0 0 .26-.132Zm-1.716 1.056c.4-.132.792-.4 1.188-.528a35.279 35.279 0 0 1-4.752 4.092 31.752 31.752 0 0 0-3.168 2.772 21 21 0 0 1-3.168 2.64c-1.056.792-1.98 1.716-2.9 2.508a7.371 7.371 0 0 1-1.056.66c0-.528.264-.792.66-1.188 2.112-1.848 3.96-3.96 6.2-5.808a68.2 68.2 0 0 1 6.992-5.148Zm-25.876 20.592a10.639 10.639 0 0 1 3.3-3.96 7.092 7.092 0 0 1 2.508-3.036c.132 0 .264-.132.4-.264.264-.924 1.056-1.452 1.452-2.244l.4-.4a12.537 12.537 0 0 1 2.112-2.508h.4a36.008 36.008 0 0 0 4.092-3.564l.4-.4h-.4l.4-.4a5.168 5.168 0 0 1 1.32-1.056 2.374 2.374 0 0 0 1.188-.792h.66a5.753 5.753 0 0 1-1.716 1.848 19.308 19.308 0 0 1-2.508 2.112c-2.244 1.98-4.356 4.224-6.468 6.336a5.168 5.168 0 0 1-1.32 1.056c-.132.132-.264.264-.264.4a7.937 7.937 0 0 1-2.64 2.9 11.786 11.786 0 0 1-3.3 3.96 2.874 2.874 0 0 1-.66 1.056 2.874 2.874 0 0 1 .644-1.044Zm32.208-18.084c0-.132 0-.264.132-.264h.132Zm3.96 1.98c.132 0 .264-.132.4-.264h-.132Zm-5.94 1.32-4.748 6.468a2.889 2.889 0 0 1-1.32 1.188 2.817 2.817 0 0 1 .924-1.584c1.452-1.716 2.64-3.828 4.092-5.676.4-.528.66-1.188 1.32-1.452a1.274 1.274 0 0 1-.268 1.056Zm-.4 6.6c-.132 0-.132.132-.264.132 0-.132 0-.132.132-.264 0-.132.132-.132.132 0Zm-6.468 2.376a1.528 1.528 0 0 1 .66-.924 2.368 2.368 0 0 1-.656.924Zm-13.068-.4c-.924 1.056-1.848 1.98-2.64 3.036a.4.4 0 0 1-.528 0c0-.132-.132-.4 0-.528a3.511 3.511 0 0 1 1.32-1.452 6.174 6.174 0 0 1 1.852-1.048Zm17.292 1.188c0 .132 0 .264-.132.264l-.792.792a2.515 2.515 0 0 1 .66-1.32h.264a.183.183 0 0 1 .004.268Zm-7.92 4.224a3.177 3.177 0 0 1 .792-1.056 4.949 4.949 0 0 1 2.112-2.772 7.085 7.085 0 0 1-2.112 2.772 2.053 2.053 0 0 1-.788 1.06Zm2.9 2.64c-1.056 1.32-1.98 2.64-3.036 4.092a109.308 109.308 0 0 1-9.9 10.824c-2.376 2.376-4.884 4.62-7.392 6.732-1.584 1.188-3.168 2.376-4.752 3.432l-1.584.792a.485.485 0 0 1-.4-.132v-.264l.792-.792c5.28-3.3 9.768-7.524 14.256-11.88a42.674 42.674 0 0 0 5.148-5.808l3.828-4.488c.528-.66 1.32-1.452 1.848-2.244a5.325 5.325 0 0 1 2.388-2.108 5.536 5.536 0 0 1-1.188 1.848Zm-9.768 5.016a9.088 9.088 0 0 1 1.452-1.716l.4-.4a.485.485 0 0 1 .132-.4 40.526 40.526 0 0 0 3.432-3.3 2.053 2.053 0 0 1 .792-1.056 2.053 2.053 0 0 1-.792 1.056 17.031 17.031 0 0 1-3.7 5.016 2.128 2.128 0 0 1-1.708.804Zm-17.548-.26a6.881 6.881 0 0 1 2.64-3.7 2.348 2.348 0 0 1 1.056-1.452 2.981 2.981 0 0 1-1.056 1.452 11.9 11.9 0 0 1-2.64 3.7 5.528 5.528 0 0 1-1.452 2.112 3.444 3.444 0 0 1 1.452-2.112Zm8.052-4.752c-.132.132-.132.4-.264.66-.132.132-.264.528-.66.528-.264 0 0-.4.4-.792Zm-8.32 22.176-1.056.4c-.132 0-.264-.132-.4-.132v-.4l1.056-.792a86.013 86.013 0 0 0 14.4-12.408 21.1 21.1 0 0 1 3.432-3.432 10.349 10.349 0 0 0-.66 1.848h.264c-.132.132-.132.264-.264.4h-.4a4.018 4.018 0 0 0-1.056 1.056c.264.528.264.528-.4 1.056l-.4.4-.4.4-.264.4a7.564 7.564 0 0 1-1.452 1.452l-.4.4a58.958 58.958 0 0 1-5.808 5.676c-1.584 1.32-3.3 2.508-5.016 3.7l-.924.4c-.252-.028-.252-.16-.252-.424Zm3.168-14.916v.132a2.879 2.879 0 0 0-.66.528l.4-.66c.132-.132.132-.132.264 0Zm-5.144 1.192c-.264-.528.264-.528.528-.792-.132.26-.264.656-.528.792Zm4.092.264a3 3 0 0 1-.792 1.584 2.584 2.584 0 0 1 .792-1.588Zm-5.148 1.32v-.132l.132.132Zm.4 8.976h-.132v-.132c.132-.132.132-.132.264 0Zm181.368-73.392-.4-.264a.884.884 0 0 1-.4-1.056.638.638 0 0 0 0-.924 1 1 0 0 0-1.188-.4 11.887 11.887 0 0 0-2.112.4c-2.64.66-5.148 1.32-7.656 2.112a44.779 44.779 0 0 0-5.94 1.98c-2.112 1.056-4.224 1.716-6.336 2.64-1.98.924-4.224 1.188-6.2 2.376h-.264a.529.529 0 0 1-.66-.66c.4-.66.66-1.452 1.056-2.112-.66-.132-.792-.4-.528-.792a4.566 4.566 0 0 0 1.32-1.452 65.285 65.285 0 0 1 4.62-5.94 4.407 4.407 0 0 0 .528-5.016c-.264-.66-.66-1.188-.924-1.848a3.62 3.62 0 0 0-4.62-2.112l-3.036.792a16.717 16.717 0 0 0-2.376.792c-1.584.924-3.432 1.32-5.016 2.112-2.244 1.056-4.488 1.848-6.6 2.9-2.376 1.32-4.884 2.244-7.26 3.564-2.112 1.188-4.356 1.98-6.468 3.3a.686.686 0 0 1-.528.264 12.688 12.688 0 0 0-3.7 1.452 2.981 2.981 0 0 1-2.772-.264c-.264-.132-.264-.4-.132-.66a25.524 25.524 0 0 1 2.9-3.7 3.915 3.915 0 0 1 .924-1.98l1.716-2.772a2.623 2.623 0 0 0 0-2.772l-.66-1.056c-.4-.528-.792-.66-1.32-.264a10.55 10.55 0 0 0-1.704 1.72 74.619 74.619 0 0 0-7.392 9.636 7.535 7.535 0 0 0-1.056 5.808 5.716 5.716 0 0 1 .132.66 4.824 4.824 0 0 0 2.376 4.092 3.978 3.978 0 0 0 2.772.66l1.32-.4a55.181 55.181 0 0 0 10.028-4.084c5.28-2.508 10.56-5.28 15.84-7.656 2.508-1.056 4.884-2.112 7.392-3.036a1.765 1.765 0 0 1 1.188-.132 5.067 5.067 0 0 1-1.188 2.376l-2.376 2.772-3.168 4.224a5.349 5.349 0 0 0-.924 4.224 29.439 29.439 0 0 0 .528 3.036 5.971 5.971 0 0 0 2.9 3.3 4.431 4.431 0 0 0 3.432.132 76.958 76.958 0 0 0 9.24-3.3l8.976-3.564a98.539 98.539 0 0 1 10.56-3.432c1.452-.4 2.9-.924 4.356-1.452.132 0 .4-.264.528-.4v-.132c0-.132 0-.132-.132-.132-.4-.132-.792.132-1.188.264-2.244.792-4.488 1.452-6.732 2.112a74.749 74.749 0 0 0-10.428 3.564l-10.028 4.092a51.836 51.836 0 0 1-4.224 1.32 11.887 11.887 0 0 1-2.112.4.422.422 0 0 1-.4-.4.284.284 0 0 1 .264-.264 4.2 4.2 0 0 1 1.188-.4 39.495 39.495 0 0 0 4.228-1.316c2.244-.792 4.488-1.716 6.6-2.64 4.752-1.716 9.372-3.828 14.256-5.148l7-1.98a9.165 9.165 0 0 0 1.716-.66c1.184-.528 1.316-1.584.26-2.508Zm-42.636-6.34c3.036-1.32 6.072-2.508 9.108-3.7a13.517 13.517 0 0 1 4.488-1.32c.4-.132.924-.264 1.188.264-.4.264-.4.924-.792 1.188-.132 0-.132.132-.264.132a48.332 48.332 0 0 0-5.808 1.716c-.264.132-.528 0-.792.132a13.7 13.7 0 0 1-4.092 1.452v-.4a3.632 3.632 0 0 0-1.98 1.056 4.1 4.1 0 0 1-2.376 1.188l-1.056-.4a6.076 6.076 0 0 1 2.376-1.308Zm7.788-2.376a3.154 3.154 0 0 0 1.848-.66 3.154 3.154 0 0 0-1.852.66Zm-.792.264c-.4.264-.132.4 0 .528l.792-.792c-.268.132-.664.132-.796.264Zm0 .528Zm-.924 4.092a217.707 217.707 0 0 0-21.124 9.764 64.748 64.748 0 0 1-7.524 3.3 9.309 9.309 0 0 1-3.3.792.409.409 0 0 0-.264-.132c-.132-.264 0-.4.132-.528a8.411 8.411 0 0 1 .924-.264 51.58 51.58 0 0 0 10.032-4.092c5.016-2.376 9.9-4.884 14.916-7.26 3.564-1.584 7.26-2.9 10.824-4.356h.924v.4a5.121 5.121 0 0 1-1.452.792Zm-9.9-.528a3.593 3.593 0 0 1-2.112 1.056 2.98 2.98 0 0 1 2.108-1.056Zm-2.244 1.188a.566.566 0 0 1-.132.924 3.478 3.478 0 0 1-2.772.792l-1.848.4a11 11 0 0 1 4.748-2.112Zm-19.4 8.58 1.056-.4a50 50 0 0 0 8.58-3.828 21.615 21.615 0 0 1 4.356-1.848c-.792 1.98-2.508 2.772-4.356 3.3a7.075 7.075 0 0 1-1.452.66c.132-.264.264-.4.264-.66a13.105 13.105 0 0 0-3.576 1.852.129.129 0 0 0 .132.132.129.129 0 0 1-.132.132v-.4a4.628 4.628 0 0 0-1.848.792h1.056a8.039 8.039 0 0 1-4.092 1.716c-.264.132-.528-.132-.528-.4a1.2 1.2 0 0 1 .532-1.048Zm65.34-5.412c0 .132-.132.264-.264.4h-.132c.264.132.528.264.264.528a3.89 3.89 0 0 1-1.716.66l-5.94 1.584c-1.32.4-2.64.792-3.96 1.32a6.688 6.688 0 0 1-1.716.264 3.317 3.317 0 0 1-1.848.792 5.536 5.536 0 0 1-2.9 1.056c-.132.132-.264.264-.4.264a.183.183 0 0 1-.264 0l.132-.132a1 1 0 0 1 .528-.132 3.5 3.5 0 0 1 .792-.66 11.625 11.625 0 0 0-2.244.264l-2.244 1.584a3.655 3.655 0 0 1 1.188-.132 2.606 2.606 0 0 1-1.848.792 2.78 2.78 0 0 1-1.716.66 2.78 2.78 0 0 1 1.716-.66l.66-.66.132-.132a7.963 7.963 0 0 0-2.508.792c-2.112.792-4.224 1.716-6.336 2.508l2.508-.4a4.435 4.435 0 0 1 1.848-.66 4.091 4.091 0 0 1-1.716.792 9.227 9.227 0 0 1-3.168 1.188c-.132 0-.528 0-.528-.132a.422.422 0 0 1 .4-.4 2.887 2.887 0 0 0 .66-.4c-.132 0-.4 0-.4-.132-.264-.264 0-.4.264-.528l1.188-.4c1.716-.66 3.564-1.32 5.28-2.112a19.128 19.128 0 0 1 4.62-1.584 7.063 7.063 0 0 1 3.7-1.452 8.414 8.414 0 0 1 1.848-1.056c4.356-1.584 8.844-2.772 13.332-3.96a1.436 1.436 0 0 1 .66-.132c.252.144.252.276.12.408Zm-4.356 1.452a4.679 4.679 0 0 0-1.452.4 3.009 3.009 0 0 0 1.44-.4Zm-2.508.792 1.056-.4-1.188.4Zm-50.028.4h1.188v-.4Zm50.028-.4-1.452.4a8.119 8.119 0 0 0 1.448-.4Zm-2.772.792h.132l1.188-.4a3.854 3.854 0 0 1-1.188.264Zm0 0a2.448 2.448 0 0 0-.924.264 2.446 2.446 0 0 0 .916-.264Zm-6.336 1.716-1.596 1.184 2.244-.4a2.606 2.606 0 0 1 1.848-.792l.66-.66a27.034 27.034 0 0 1-3.164.668Zm127.38-4.752a2.654 2.654 0 0 1-.528-1.056 2.98 2.98 0 0 0-2.64-2.112 9.925 9.925 0 0 0-1.98 0 64.768 64.768 0 0 0-10.164 1.188 5.979 5.979 0 0 1-2.112.4 37.817 37.817 0 0 0-7.656 1.716 14.611 14.611 0 0 1-3.432.924 9.248 9.248 0 0 0-1.848.4c-.528.132-1.056.66-1.716.132-.4-.528-.132-1.056 0-1.584 0-.264.132-.4.132-.66h.132c.132 0 .264-.132.4-.132h-.528a4.069 4.069 0 0 0 0-2.508v-.132a8.123 8.123 0 0 0-.924-3.036 15.61 15.61 0 0 0-2.9-3.7 2.217 2.217 0 0 0-2.508-.528l-2.524 14.384a8.9 8.9 0 0 1-3.7 3.96 78 78 0 0 0-6.864 4.62l-2.376 1.716c-.264.264-.66.4-.924.66-2.244 2.64-5.544 4.224-7.656 6.864 0 .132-.132.132-.264.264a41.219 41.219 0 0 0-8.052 8.58 11.4 11.4 0 0 1-.924 1.32 26.184 26.184 0 0 0-3.7 5.676c-.66 1.32-1.32 2.64-1.98 3.828a17.549 17.549 0 0 0-1.98 7.26 9.145 9.145 0 0 0 .4 2.64l1.188 3.168a4.572 4.572 0 0 0 2.64 2.772 3.307 3.307 0 0 1 .924.528 2.631 2.631 0 0 0 2.772.132 26.125 26.125 0 0 0 5.28-3.036 56.1 56.1 0 0 0 8.58-8.184 7.546 7.546 0 0 0 1.452-2.112l-.792.4c-.132 0-.132-.132-.132-.264.264-.4.528-.4.924-.132.792-1.056 1.98-1.98 2.508-3.3-.264-.66.132-1.056.66-1.452.4-.264.792-.66.792-1.056.66-2.772 2.508-4.884 3.828-7.128.132-.264.4-.4.528-.528a4.73 4.73 0 0 1 .528-1.452c.924-1.716 1.848-3.432 2.772-5.016l.792-.792c0 .264-.264.66 0 1.056a8.539 8.539 0 0 0 1.196-2.116c0-.132 0-.264-.132-.264a.409.409 0 0 0-.264.132 1.823 1.823 0 0 1-.528.4 5.513 5.513 0 0 1 .528-1.32c.924-1.98 1.98-4.092 3.036-6.072a2.891 2.891 0 0 1 1.716-1.584 4.74 4.74 0 0 0 1.32-.924.6.6 0 0 0 0-.66 11.011 11.011 0 0 1 1.584-1.056 69.58 69.58 0 0 1 6.732-2.508 113.406 113.406 0 0 1 11.084-2.78c1.452-.264 2.9-.66 4.224-.924a57.823 57.823 0 0 1 8.316-1.584 6.99 6.99 0 0 1 3.3.132 1.876 1.876 0 0 0 .792.264c.792.132 1.056-.132 1.188-.924a3.214 3.214 0 0 0-.528-2.9Zm-38.148-7.788c.264.132.4.264.264.4 0 .264-.264.4-.528.528l-.132-1.716c.66-.132.924-.132.924.132-.008.392-.272.524-.536.656Zm5.28 13.332a5.735 5.735 0 0 1 .924-.528h-.528a.461.461 0 0 1-.264-.132.485.485 0 0 1 .132-.4 12.849 12.849 0 0 0 1.452-.66l5.808-1.584a164.809 164.809 0 0 1 18.216-3.7 4.848 4.848 0 0 1 2.376.132c-1.056.66-2.112.4-3.168.924h-1.188c-.792.132.132.4-.132.528a12.452 12.452 0 0 1-1.188.4l-6.072 1.188a142.529 142.529 0 0 0-15.18 4.092 2.487 2.487 0 0 0-1.056.264.284.284 0 0 1-.264-.264.409.409 0 0 1 .124-.26Zm1.584-6.468-.132.132h.132Zm24.156.66h-.132c-.264 0-.4-.132-.528-.132h.528c.124 0 .256.132.124.132Zm-4.62.4h-.4c-.132 0-.264.132-.4.132h.4c.128-.004.26-.132.392-.132Zm-2.64.528a4.064 4.064 0 0 0 1.716-.4 6.549 6.549 0 0 0-1.724.396Zm-1.848.4a6.55 6.55 0 0 0 1.716-.4 8.061 8.061 0 0 0-1.724.392Zm-.132 0h-.264a.129.129 0 0 0-.132.132h.132a.461.461 0 0 0 .256-.14Zm-2.772.528h-.132a.461.461 0 0 1-.264.132h.264c.256-.008.256-.14.124-.14Zm15.84.792c-.132 0-.264.132-.528.132-5.94.792-11.748 2.376-17.556 3.7a77.5 77.5 0 0 0-12.276 3.7c-.528.132-1.056.528-1.716.4l-.132-.264c.132-.132.264-.4.4-.4l1.584-.792a66.412 66.412 0 0 1 9.9-3.168c4.62-1.056 9.24-2.112 13.86-3.036 1.848-.4 3.828-.66 5.676-.924a1.429 1.429 0 0 1 .792.132.284.284 0 0 1 .264.264Zm-16.236-.66c-.528.132-.924.264-1.452.4Zm-3.168.792a6.96 6.96 0 0 0 1.584-.4 3.515 3.515 0 0 0-1.592.392Zm-1.584.264a5.613 5.613 0 0 0 1.452-.264Zm-1.32.4a3.854 3.854 0 0 0 1.188-.264 3.854 3.854 0 0 0-1.196.252Zm-20.988 9.5a9.1 9.1 0 0 1-4.356 2.9v-.268a12.168 12.168 0 0 0-1.056.66h.66a1 1 0 0 1-1.056.4l-1.056.66c.264.528 0 .66-.4.792a2.875 2.875 0 0 1-1.056.66v-.4h-.66a4.2 4.2 0 0 1 1.32-1.32 53.96 53.96 0 0 1 7.656-5.544c.4-.264.792-.4 1.188-.66h.528c-.4.924-.532 1.848-1.72 2.112Zm-.66 0h.66a2.885 2.885 0 0 1 .4-.66 4.631 4.631 0 0 0-1.068.652Zm-3.3 2.244v-.14l-.4.4Zm2.376 2.9a5.167 5.167 0 0 1-1.32 1.056 91.976 91.976 0 0 0-7.788 6.468c-1.452 1.32-2.772 2.772-4.224 4.092-.132-.264-.264-.4-.264-.66a78.148 78.148 0 0 1 10.956-9.9 9.7 9.7 0 0 1 2.244-1.584.485.485 0 0 1 .4.132Zm-6.336 0h.66v-.4Zm-1.188.4a2.89 2.89 0 0 0 .4.66 1.663 1.663 0 0 1-1.716.4 1.754 1.754 0 0 1 1.308-1.068Zm-9.5 9.372c.924-1.056 1.848-1.98 2.772-2.9a14.452 14.452 0 0 0 1.32-1.452l.4-.4a13.827 13.827 0 0 0 1.056-1.452 4.894 4.894 0 0 1 2.244-1.716v.66a.129.129 0 0 0-.132.132.409.409 0 0 0 .132.264c-1.848 1.584-3.564 3.3-5.28 5.016l-2.112 2.112a6.462 6.462 0 0 1-1.716 1.584 3.7 3.7 0 0 1 1.304-1.856Zm15.18-6.468c-.132.132-.264.132-.264.264-.132 1.98-1.32 3.3-2.244 4.884a92.6 92.6 0 0 1-4.884 8.712 17.565 17.565 0 0 1-1.848 2.508c-.924 1.32-2.112 2.64-3.036 4.092a15 15 0 0 1-1.98 2.112c-1.848 1.584-3.564 3.3-5.544 4.752l-.792.66a3 3 0 0 1-2.772.66c-.528-.132-.66-.264-.528-.792.528-1.32.66-2.772 1.848-3.828v1.056a1.49 1.49 0 0 0 .4-1.452l.66-1.056h.132a.552.552 0 0 1 0-.924 2.317 2.317 0 0 1 .66-.528 1.213 1.213 0 0 1 .264-1.32c.264-.264.528-.66.792-.924h-.264c.132-.264.132-.132.264 0a9.086 9.086 0 0 0 1.452-1.716 80.266 80.266 0 0 1 13.2-14.388c1.32-1.188 2.64-2.112 3.96-3.168a.485.485 0 0 1 .4-.132c.244.124.112.388.112.52Zm-16.644 8.308a20.234 20.234 0 0 1-3.828 5.016 14.148 14.148 0 0 1 3.828-5.016Zm3.7 1.452-.132.132c0 .132-.132.132-.132.264v-.264c.128-.132.128-.264.256-.132Zm-.4.4a.284.284 0 0 1-.264.264v-.264Zm-.264.4a2.769 2.769 0 0 1-.792 1.056 9.072 9.072 0 0 1 .4-1.056Zm7.128 5.94c0 .132-.132.132-.264.132.132 0 .132-.132.132-.264l.132-.132c.128.124.128.124 0 .256Zm-11.484 0v.132l-.132-.132Zm10.56 1.32a2.873 2.873 0 0 1 .66-1.056 1.814 1.814 0 0 1-.66 1.044Zm-1.452 2.112a2.367 2.367 0 0 1 .66-.924 4.013 4.013 0 0 1-.656.916Zm-1.848 2.244a3.867 3.867 0 0 1 1.716-2.112 3.867 3.867 0 0 1-1.716 2.104Zm-.66 1.056a26.987 26.987 0 0 1-4.752 4.752 2.652 2.652 0 0 1 .528-1.056c1.584-1.584 3.036-3.3 4.752-4.752a2.654 2.654 0 0 1-.528 1.048Zm2.112 2.9.4-1.056c.132-.132.264-.264.264-.4h.132a1.516 1.516 0 0 1-.796 1.452Zm-13.464.792.4-1.056a1.875 1.875 0 0 1 .264-.792l-.4.792a4.083 4.083 0 0 1-.264 1.052Zm10.956 2.112a42.068 42.068 0 0 1-7.128 5.676 6.008 6.008 0 0 1-2.508 1.056c-.132 0-.4 0-.4-.264a.409.409 0 0 1 .132-.264 1.821 1.821 0 0 1 .528-.4 51 51 0 0 0 8.184-5.808 3.269 3.269 0 0 1 1.848-1.056 7.357 7.357 0 0 1-.656 1.056Zm-10.956 3.7c-.132-.132-.132-.4-.264-.528-.132-.264-.264-.528.132-.792 1.584-.792 3.036-2.112 4.752-2.64l-1.716 1.716a1.19 1.19 0 0 1 .66.132 4.828 4.828 0 0 1-3.564 2.104Zm148.236-54.384a1.033 1.033 0 0 0 0-1.452 2.078 2.078 0 0 1-.528-1.716c.4-.792-.528-1.452-1.188-1.32a8.913 8.913 0 0 0-1.848.264l-8.976 2.376a2.8 2.8 0 0 0-.924.4 11.928 11.928 0 0 1-2.772 1.056c-3.3.792-6.468 1.848-9.9 2.508-2.508.528-4.884 1.188-7.392 1.716-2.244.528-4.488 1.056-6.732 1.452a38.255 38.255 0 0 1-8.316.66 54.2 54.2 0 0 1-7-.4c-1.848-.132-1.848-1.056-.924-2.376a41.92 41.92 0 0 1 6.864-7.656 16.39 16.39 0 0 1 3.036-2.244 11.453 11.453 0 0 1 4.488-1.584 10.049 10.049 0 0 1 2.772.4c.792.264 1.056.792.528 1.716l-.792 1.32a4.441 4.441 0 0 0-.528 2.9 1.41 1.41 0 0 0 2.112.924 2.7 2.7 0 0 0 1.056-1.056 24.768 24.768 0 0 1 1.584-2.376 3.28 3.28 0 0 0 .924-2.9 11.411 11.411 0 0 0-1.188-4.62 3.122 3.122 0 0 0-1.452-1.716 7.689 7.689 0 0 0-3.828-1.188h-2.9a9.475 9.475 0 0 0-4.752 1.716 5.735 5.735 0 0 1-.924.528c-2.244.66-3.828 2.112-5.544 3.7-1.452 1.584-2.9 3.168-4.356 4.884a17.014 17.014 0 0 0-2.508 4.224 8.389 8.389 0 0 0-.792 2.376 26.983 26.983 0 0 0 0 4.62 6.807 6.807 0 0 0 4.884 5.544 13.927 13.927 0 0 0 4.092.528 28.693 28.693 0 0 1 4.752.248h2.508a74.122 74.122 0 0 0 13.2-1.98c7.92-1.848 15.84-3.96 23.628-6.6a80.221 80.221 0 0 0 7.92-2.772c.792-.4 1.716-.528 1.452-1.716-.132-.132.132-.264.264-.396Zm-49.632-10.436a2.873 2.873 0 0 1 1.056-.66 9.262 9.262 0 0 0 2.112-1.32 3.31 3.31 0 0 1 .924-.528 13.7 13.7 0 0 1 4.224-.528 12.728 12.728 0 0 1 1.584.264.686.686 0 0 1 .528.264 1 1 0 0 1 .264.528q0 .2-.4.4h-.66a27.592 27.592 0 0 1-3.3.132 12.664 12.664 0 0 0-5.28 1.452c-.264.132-.66.132-.924.264h-.132Zm9.9 1.452a21.488 21.488 0 0 0-4.092.4 29.09 29.09 0 0 0-2.508.528 2.341 2.341 0 0 1 1.32-1.056 9.573 9.573 0 0 1 5.412-.528c.264 0 .528.132.528.264 0 .392-.4.392-.66.392Zm-10.956 4.356c.132 0 .264 0 .264-.132a.461.461 0 0 1-.132.264.129.129 0 0 0-.132.132c-.132-.132-.132-.132 0-.264Zm43.428 4.092a.129.129 0 0 1-.132-.132l.132-.132c.264-.132.264 0 .264.132Zm-47.256-.132v.132c-.132 0-.132.132-.264.132.132-.132.132-.132.132-.264.132-.132.132-.132.132 0Zm45.012 4.62c-.4.132-.792.4-1.32.132 0-.264.264-.264.4-.264.924-.132 1.716-.4 2.64-.528a3.89 3.89 0 0 1-1.72.664Zm-17.952.792a3.515 3.515 0 0 1-1.584.4c.396-.4 1.056-.268 1.584-.4Zm12.144 1.056-2.508.792c-4.488 1.188-9.108 2.508-13.728 3.7a64.685 64.685 0 0 1-11.22 2.112 63.618 63.618 0 0 1-12.276-.264l-1.452-.4c-.132 0-.132-.132-.264-.264.132 0 .264-.132.4-.132a16.832 16.832 0 0 1 2.508.132c1.452 0 2.9.132 4.356.132 6.6.4 13.068-.924 19.4-2.508a228.967 228.967 0 0 0 13.6-3.564 2.487 2.487 0 0 1 1.056-.264s.264 0 .264.132c.128.132-.004.264-.136.396Zm-41.844 1.98c0-.264.264-.132.528-.132a23.366 23.366 0 0 1 3.036.132 62.707 62.707 0 0 0 20.46-1.848 4.508 4.508 0 0 1 1.98-.264c-.4.528-.792.4-1.188.528-1.716.528-3.564.792-5.28 1.452h2.112a8.115 8.115 0 0 1 1.452-.4 2.661 2.661 0 0 1-1.452.4 5.84 5.84 0 0 1-1.98.66 54.733 54.733 0 0 1-10.3 1.188 2.171 2.171 0 0 1-1.32-.264v-.132c-.132 0 0-.132 0-.132.264 0 .528-.132.792-.132 1.32-.132 2.64-.132 3.828-.132a1.958 1.958 0 0 0 .924-.132h-1.708a83.622 83.622 0 0 1-11.484-.528c-.136 0-.4-.132-.4-.264Zm18.744.132h.264c.132-.132.4-.132.528-.264a.793.793 0 0 1-.528.132c-.132 0-.264 0-.264.132Zm-2.244.264h-.264a.129.129 0 0 0-.132.132h.132a.461.461 0 0 1 .264-.132Zm136.092-90.684a8.533 8.533 0 0 0-.528-1.716.993.993 0 0 0-.924-.66 3.262 3.262 0 0 0-1.188.528l-2.376 1.98a47.289 47.289 0 0 1-3.828 3.432 14.125 14.125 0 0 0-2.112 1.848c-.924.792-1.716 1.584-2.508 2.376-1.32 1.188-2.508 2.376-3.7 3.564-.792.792-1.584 1.584-2.376 2.244a27.22 27.22 0 0 0-3.432 3.3l-1.848 1.848c-1.98 1.716-3.96 3.7-5.94 5.544-3.3 2.9-6.336 6.072-9.636 8.976-3.96 3.564-7.656 7.656-11.748 11.088-.792.66-1.452 1.452-2.244 2.112a85.832 85.832 0 0 0-7 6.864c-3.168 3.036-5.808 6.6-9.108 9.5-.132.132-.4.264-.528.528a20.293 20.293 0 0 1-2.244 2.508 50.8 50.8 0 0 0-3.564 3.96c-.924 1.056-1.716 2.112-2.772 3.168a19.118 19.118 0 0 0-2.244 2.376c-1.848 2.112-3.564 4.224-5.28 6.336a7.271 7.271 0 0 0-1.18 1.852 3.026 3.026 0 0 0-.264 2.376 9.2 9.2 0 0 1 .792 2.508 3.6 3.6 0 0 0 .924 1.716 3.892 3.892 0 0 0 5.016.924c.132 0 .264-.132.4-.132q3.762-1.584 7.524-3.564a117.869 117.869 0 0 1 11.484-5.94 38.565 38.565 0 0 1 6.864-2.508c.132-.132.264-.132.528-.132.528-.132.792.4.792.924a3.965 3.965 0 0 1-.792 1.452c-.66 1.32-1.452 2.508-2.244 3.828a4.52 4.52 0 0 0-.66 2.9 26.44 26.44 0 0 0 .528 3.168 2.409 2.409 0 0 0 1.848 1.848c.528.132 1.056.132.924.924 0 .264.4.264.66.264a6.218 6.218 0 0 0 2.244-.528c4.752-1.716 9.24-3.828 13.86-5.676a101.763 101.763 0 0 1 12.144-4.224c3.036-.792 6.072-1.716 8.976-2.64.792-.132.792-.264.528-1.188a1.875 1.875 0 0 1 .264-.792c.264-.792.264-1.32-.4-1.716a3.915 3.915 0 0 0-1.98-.924c-.528.264-1.188.4-1.188 1.32-.132.264-.528.4-.924.528l-3.3.792c-3.432.924-6.732 1.848-9.9 2.9a11 11 0 0 1-1.98.528 10.91 10.91 0 0 1 1.716-.924 6.824 6.824 0 0 0 1.716-.792 19.256 19.256 0 0 0-5.808 2.112 10.19 10.19 0 0 1 1.98-.264 15.3 15.3 0 0 1-5.28 2.112 2.743 2.743 0 0 1-1.584.66 2.319 2.319 0 0 1 .528-.66 5.366 5.366 0 0 0-2.508 1.056h1.056a4.906 4.906 0 0 1-2.508 1.188 11.557 11.557 0 0 1-3.432 1.584c-.132 0-.132-.132-.264-.132 0-.132.132-.264.132-.4.264-.132.4-.264.66-.4a5.2 5.2 0 0 0 1.848-.66 3.854 3.854 0 0 0-1.848.66c-.264-.264-.4-.528 0-.792a2.654 2.654 0 0 1 1.056-.528c4.488-1.848 8.976-3.828 13.6-5.544a107.6 107.6 0 0 1 14.124-4.092 11.554 11.554 0 0 1 2.112-.264l.528-.528c.66-.4.528-.924.132-1.188-.66-.66-1.056-.792-1.848-.4a14.49 14.49 0 0 1-4.62 1.452 24.522 24.522 0 0 0-5.544 1.584 14.8 14.8 0 0 1-1.716.66 28.3 28.3 0 0 0-7.128 2.376 115.57 115.57 0 0 1-7.128 3.036c-.924.4-1.32.132-1.452-.924v-.66c-.132.264-.4.4-.66.66-.132.132-.4.4-.528.264-.264-.132-.132-.4 0-.66.4-.66.66-1.32 1.056-1.848 1.188-1.584.924-3.036.132-4.62a27.939 27.939 0 0 0-1.452-2.772 4.2 4.2 0 0 0-3.3-1.98 6.426 6.426 0 0 0-1.584.132c-3.036.264-5.676 1.584-8.58 2.376-.4.132-.792.528-1.188.66a8.076 8.076 0 0 1-1.584.66 26.37 26.37 0 0 0-5.94 2.64 3.791 3.791 0 0 1-3.7.792 10.66 10.66 0 0 1 3.7-3.96l.4-.4h-.132l.4-.4c.66-.924 1.188-1.716 1.98-2.64 2.9-3.168 5.808-6.336 8.844-9.5 1.452-1.452 2.772-3.168 4.488-4.224a8.8 8.8 0 0 1 3.3-3.3l.4-.4v.132a2.08 2.08 0 0 1 .924-.924 5.735 5.735 0 0 1 .924-.528v-.4a3.893 3.893 0 0 1 1.848-1.716c.792-.528.924-1.584 1.716-1.98.132-.132.4-.264.528-.4l1.188-1.056a24.507 24.507 0 0 1 3.828-3.564l1.584-1.98a2.08 2.08 0 0 1 .924-.924 5.5 5.5 0 0 0 2.508-2.376 2.627 2.627 0 0 1 1.056-1.584c.264-.264.4-.66.66-.924a14.155 14.155 0 0 1 3.828-3.564c.132-.132.264.132.4.4a8.053 8.053 0 0 0 2.508-2.64c-.132.132-.264.264-.4.264h-.4v-.264a10.664 10.664 0 0 1 2.112-2.112.5.5 0 0 1 .792 0c.528-.264 1.32-.528 1.32-1.188a1.871 1.871 0 0 1 .924-1.848c2.376-2.508 4.752-4.884 7.128-7.26a11.406 11.406 0 0 0 1.848-1.716c1.32-1.584 2.9-2.9 4.356-4.356a3.117 3.117 0 0 1 1.188-.792 11.853 11.853 0 0 1 4.488-4.356h-.132a28.975 28.975 0 0 0 1.848-2.376 19.4 19.4 0 0 0 1.32-1.716 2.272 2.272 0 0 0 .252-1.552Zm-7 10.032v-.268h-.264a1 1 0 0 1-.528.264v.66a3.5 3.5 0 0 0 .796-.656Zm-19.664 19.272c.132 0 .264-.132.4-.264-.136 0-.268.132-.4.264Zm-20.988 14.26a3.07 3.07 0 0 1-1.584 1.056 7.692 7.692 0 0 1 3.036-2.772 9.09 9.09 0 0 1-1.452 1.716Zm-13.332 20.46-.4.264v.132Zm-8.712 1.848h-.264v-.132a1.579 1.579 0 0 1 .924-.924 1.814 1.814 0 0 1-.66 1.048Zm8.844 8.976a38.009 38.009 0 0 1 6.6-1.98 4.238 4.238 0 0 1 1.848-.132c.264 0 .264.264.4.528 0 .264-.132.4-.4.528a1.008 1.008 0 0 1-.66.264c-7.128 1.848-13.728 5.016-20.328 8.316a6.064 6.064 0 0 1-2.112.924c.132-.264.132-.528.264-.792a10.343 10.343 0 0 1-2.772 1.188h-.132v-.132a3.6 3.6 0 0 1 1.584-1.188 171.422 171.422 0 0 1 15.708-7.528Zm-9.24-1.056h-.264v.264Zm-.264.4v-.132l-.132.132Zm11.88.66a3.854 3.854 0 0 0 1.188-.264c-.396.124-.792.124-1.188.256Zm-3.96 1.584a1.876 1.876 0 0 0-.792.264v.132l.132-.132Zm8.316 1.32a71.97 71.97 0 0 0-15.18 6.2l-9.768 5.008a14.306 14.306 0 0 1-2.508 1.056 1.877 1.877 0 0 1-.792.264.284.284 0 0 1-.264-.264c-.132 0 0-.264 0-.264l.924-.528a106.44 106.44 0 0 0 10.956-5.544 80 80 0 0 1 15.444-6.6 6.939 6.939 0 0 1 2.244-.528.35.35 0 0 1 .4.4c-.132.132-.132.264-.264.264-.4.132-.796.396-1.192.528Zm-10.824-.264-.792.4c-.264 0-.4.132-.66.264.264-.132.528-.132.792-.264a2.887 2.887 0 0 1 .66-.408Zm43.3.4a.409.409 0 0 1 .264-.132h-.264Zm-.4.132h.132a.409.409 0 0 1 .264-.132h-.264c-.132-.012-.264-.012-.132.12Zm-3.96.924c.528-.132.924-.264 1.452-.4Zm-2.508.66a2.487 2.487 0 0 0 1.056-.264Zm-1.452.4a3.009 3.009 0 0 0 1.452-.4Zm-2.244.792a4.6 4.6 0 0 0 2.244-.792 6.5 6.5 0 0 0-2.244.776Zm-19.536 11.072c4.884-1.716 9.636-3.96 14.52-5.94a141.712 141.712 0 0 1 17.952-5.676 1.435 1.435 0 0 1 .66-.132.686.686 0 0 1 .528.264.284.284 0 0 1-.264.264 2.93 2.93 0 0 1-1.452.66c-3.168.924-6.468 1.716-9.636 2.772a79.956 79.956 0 0 0-9.9 3.564c-3.828 1.584-7.524 3.432-11.484 4.752a1.008 1.008 0 0 1-.66.264c-.528.132-.924.528-1.452.264-.396-.264.132-.664 1.188-1.056Zm-20.592-10.824a1.877 1.877 0 0 0 .792-.264c-.264.132-.528.132-.792.264Zm0 0a2.887 2.887 0 0 1-.66.4l.792-.4Zm-.66.4-.792.4a2.884 2.884 0 0 1-.66.4l.792-.4a2.887 2.887 0 0 1 .66-.404Zm-2.244 1.056a1.876 1.876 0 0 0 .792-.264c-.26.124-.528.124-.792.26Zm37.224.4a4.629 4.629 0 0 0-1.848.792 4.628 4.628 0 0 0 1.848-.8Zm-41.448 2.244a8.7 8.7 0 0 1 3.168-1.452 7.834 7.834 0 0 1-3.036 1.848.409.409 0 0 1-.264-.132s0-.272.132-.272Zm37.092-.4h1.056l1.584-1.056a4.69 4.69 0 0 0-2.64 1.052Zm-5.016 2.244h1.056a14.031 14.031 0 0 1 1.452-1.188 6.8 6.8 0 0 0-2.64 1.188Zm97.548-9.768a1.405 1.405 0 0 0 0-1.848c-.4-.264-.4-.792-.528-1.188-.264-.924-.66-1.188-1.584-.792l-1.452.66a2.381 2.381 0 0 1-1.584.4 14.878 14.878 0 0 0-2.376.4 7.715 7.715 0 0 1-2.508.264 32.364 32.364 0 0 0-3.564.264l-7.524.4a44.633 44.633 0 0 1-5.94-.132c-5.28-.4-10.3-1.32-14.784-4.356-.792-.528-1.188-.528-1.848.4s-1.716 1.056-2.772 1.452h-.264l-.4-.4a.485.485 0 0 1 .132-.4c0-.132.132-.132.264-.132.264-.264.792-.264.792-.66 0-.264-.528-.528-1.056-.4a4.34 4.34 0 0 0-2.64 1.056 31.4 31.4 0 0 0-5.412 5.676 8.566 8.566 0 0 0-1.848 5.28 37.636 37.636 0 0 0 .4 3.828 7.566 7.566 0 0 0 8.976 5.94 17.31 17.31 0 0 0 6.2-2.64c.528-.264 1.452-.528.792-1.452-.132 0 0-.264.132-.4 1.056-1.188 2.244-2.376 3.168-3.564a17.634 17.634 0 0 0 .924-2.376c.528-.924.924-1.056 1.98-.924.264.132.66.132 1.056.264a37.377 37.377 0 0 0 5.28 1.056 24.373 24.373 0 0 0 8.184.264c2.376-.132 4.884-.4 7.26-.4a15.534 15.534 0 0 0 6.864-1.716 21.773 21.773 0 0 1 4.752-2.112c.66-.132 1.32-.4.924-1.452Zm-24.684.792c2.9-.132 5.808-.4 8.712-.4 2.244-.132 4.488-.4 6.732-.66a11.041 11.041 0 0 0 4.092-1.056 5.72 5.72 0 0 1 .66-.132c.132-.132.4-.132.4 0 .132.264 0 .4-.132.4a7.444 7.444 0 0 1-1.584.528 3.828 3.828 0 0 0-1.98 1.188c-.264.4-.528.4-.924.528a4.69 4.69 0 0 1-1.32.264c-3.168.132-6.336.528-9.636.4a1.3 1.3 0 0 1-.792-.264h3.7a1 1 0 0 0-1.056-.4h-5.556c-.528 0-1.188-.132-1.848-.132a.527.527 0 0 1 .532-.268Zm-16.632 2.112c-.264.264-.4.66-.66.924a13.076 13.076 0 0 1-4.752 4.092 7.6 7.6 0 0 1-4.488.792c-.792 0-.924-.4-.792-1.188a14.634 14.634 0 0 1 1.188-2.508c.264-.264.132-.528-.132-.528a5.561 5.561 0 0 1 2.772-3.432l1.584-1.188a7.325 7.325 0 0 1 1.056-.792 1.487 1.487 0 0 1 2.112.264l1.98 2.508a1 1 0 0 1 .132 1.052Zm32.076-2.244-.132-.132a.461.461 0 0 0-.264.132h.4Zm-2.772.264h-2.112v.132h2.112Zm6.864 1.98a13.627 13.627 0 0 1-6.468 1.848c-3.168.132-6.336.4-9.5.4a10.485 10.485 0 0 1-2.9-.132c-.4 0-.924 0-1.188-.4a3.348 3.348 0 0 1 1.584-.264c3.564 0 7-.264 10.56-.4 1.32-.132 2.64-.264 3.96-.528a12.585 12.585 0 0 0 3.564-1.188c.66-.264 1.32-.924 2.112-.528-.404.66-1.196.792-1.724 1.188Zm-31.944 5.536a1.875 1.875 0 0 1 .264-.792h-.264Zm-.264.264v.136c0-.132.132-.264.264-.4-.132.136-.264.136-.264.268Zm-11.088 2.64a.485.485 0 0 1-.4-.132c-.132 0-.264 0-.264-.264 0-.132 0-.264.132-.264a14.464 14.464 0 0 1 3.432-.792 10.068 10.068 0 0 1-1.452 1.056h.924a.129.129 0 0 1 .132.132v.132a2.559 2.559 0 0 1-2.376.4.461.461 0 0 1-.128-.264Zm5.016 2.112a2.738 2.738 0 0 1-1.32.792 8.326 8.326 0 0 1-2.9.66h-.264c-.132-.132-.264-.132-.264-.264s0-.264.132-.264l.4-.264c1.188-.4 2.244-.66 3.3-1.056a1.674 1.674 0 0 0 .792-.132s.264.132.264.264c-.008.004-.008.268-.14.268Zm100.716-13.464a1.405 1.405 0 0 0 0-1.848c-.4-.264-.4-.792-.528-1.188-.264-.924-.66-1.188-1.584-.792l-1.452.66a2.381 2.381 0 0 1-1.584.4 14.878 14.878 0 0 0-2.376.4 7.715 7.715 0 0 1-2.508.264 32.364 32.364 0 0 0-3.564.264l-7.524.4a44.633 44.633 0 0 1-5.94-.132c-5.28-.4-10.3-1.32-14.784-4.356-.792-.528-1.188-.528-1.848.4s-1.716 1.056-2.772 1.452h-.264l-.4-.4a.485.485 0 0 1 .132-.4c0-.132.132-.132.264-.132.264-.264.792-.264.792-.66 0-.264-.528-.528-1.056-.4a4.34 4.34 0 0 0-2.64 1.056 31.4 31.4 0 0 0-5.412 5.676 8.566 8.566 0 0 0-1.848 5.28 37.636 37.636 0 0 0 .4 3.828 7.566 7.566 0 0 0 8.976 5.94 17.31 17.31 0 0 0 6.2-2.64c.528-.264 1.452-.528.792-1.452-.132 0 0-.264.132-.4 1.056-1.188 2.244-2.376 3.168-3.564a17.634 17.634 0 0 0 .924-2.376c.528-.924.924-1.056 1.98-.924.264.132.66.132 1.056.264a37.377 37.377 0 0 0 5.28 1.056 24.373 24.373 0 0 0 8.184.264c2.376-.132 4.884-.4 7.26-.4a15.534 15.534 0 0 0 6.864-1.716 21.773 21.773 0 0 1 4.752-2.112c.66-.132 1.32-.4.924-1.452Zm-24.684.792c2.9-.132 5.808-.4 8.712-.4 2.244-.132 4.488-.4 6.732-.66a11.041 11.041 0 0 0 4.092-1.056 5.72 5.72 0 0 1 .66-.132c.132-.132.4-.132.4 0 .132.264 0 .4-.132.4a7.444 7.444 0 0 1-1.584.528 3.828 3.828 0 0 0-1.98 1.188c-.264.4-.528.4-.924.528a4.69 4.69 0 0 1-1.32.264c-3.168.132-6.336.528-9.636.4a1.3 1.3 0 0 1-.792-.264h3.7a1 1 0 0 0-1.056-.4h-5.544c-.528 0-1.188-.132-1.848-.132a.527.527 0 0 1 .52-.26Zm-16.632 2.116c-.264.264-.4.66-.66.924a13.076 13.076 0 0 1-4.752 4.092 7.6 7.6 0 0 1-4.488.792c-.792 0-.924-.4-.792-1.188a14.634 14.634 0 0 1 1.188-2.508c.264-.264.132-.528-.132-.528a5.561 5.561 0 0 1 2.772-3.432l1.584-1.188a7.325 7.325 0 0 1 1.056-.792 1.487 1.487 0 0 1 2.112.264l1.98 2.508a1 1 0 0 1 .132 1.056Zm32.076-2.244-.132-.132a.461.461 0 0 0-.264.132h.4Zm-2.772.264h-2.112v.132h2.112Zm6.864 1.98a13.627 13.627 0 0 1-6.468 1.848c-3.168.132-6.336.4-9.5.4a10.485 10.485 0 0 1-2.9-.132c-.4 0-.924 0-1.188-.4a3.348 3.348 0 0 1 1.584-.264c3.564 0 7-.264 10.56-.4 1.32-.132 2.64-.264 3.96-.528a12.585 12.585 0 0 0 3.564-1.188c.66-.264 1.32-.924 2.112-.528-.404.664-1.196.796-1.724 1.192Zm-31.944 5.54a1.875 1.875 0 0 1 .264-.792h-.264Zm-.264.264v.136c0-.132.132-.264.264-.4-.132.136-.264.136-.264.268Zm-11.088 2.64a.485.485 0 0 1-.4-.132c-.132 0-.264 0-.264-.264 0-.132 0-.264.132-.264a14.464 14.464 0 0 1 3.432-.792 10.068 10.068 0 0 1-1.452 1.056h.924a.129.129 0 0 1 .132.132v.132a2.559 2.559 0 0 1-2.376.4.461.461 0 0 1-.128-.264Zm5.016 2.112a2.738 2.738 0 0 1-1.32.792 8.326 8.326 0 0 1-2.9.66h-.264c-.132-.132-.264-.132-.264-.264s0-.264.132-.264l.4-.264c1.188-.4 2.244-.66 3.3-1.056a1.674 1.674 0 0 0 .792-.132s.264.132.264.264c-.008.004-.008.268-.14.268Zm118.008-76.428c-.4-.132-.792-.132-1.32-.264-.132 0-.4-.132-.4-.264a1.33 1.33 0 0 1 .132-.4c.264-.264.528-.4.66-.66a.253.253 0 0 0 .132-.4c0-.264-.264-.4-.528-.528a2.712 2.712 0 0 0-1.452 0 10.525 10.525 0 0 0-2.112 1.056c-1.98 1.32-3.7 3.036-5.544 4.488l-3.564 2.772c-2.112 1.584-3.7 3.828-5.94 5.148l-.66.66a15.05 15.05 0 0 1-1.452 1.452l-7.524 7.128c-2.244 2.244-4.224 4.752-6.732 6.732-2.112 1.98-4.092 4.092-6.072 6.2-.66.66-1.056 1.584-1.716 2.244a25.452 25.452 0 0 0-4.092 4.356 16.333 16.333 0 0 1-1.848 2.376 35.8 35.8 0 0 1-4.62 5.412l-.66.792a22.872 22.872 0 0 1-2.9 4.092 11.244 11.244 0 0 0-2.244 3.3 4.127 4.127 0 0 1-1.188 1.452 6.125 6.125 0 0 0-1.848 2.9 14.4 14.4 0 0 1-.792 1.452 18.866 18.866 0 0 0-3.036 7.524 5.245 5.245 0 0 0 .264 3.168 28.252 28.252 0 0 1 1.32 2.9 7.809 7.809 0 0 0 5.28 3.828 10.687 10.687 0 0 0 4.092-.132c2.376-.66 4.752-1.32 7.128-2.112 1.98-.66 3.828-1.452 5.676-2.112a75.6 75.6 0 0 0 10.692-4.356 42.023 42.023 0 0 0 5.28-3.036 1.516 1.516 0 0 0 .924-1.056 4.793 4.793 0 0 1-.924.4 33.279 33.279 0 0 1-5.544 3.168c-4.092 2.112-8.58 3.432-12.936 5.016l-7 2.244a23.106 23.106 0 0 1-4.356.792c-.132 0-.4 0-.4-.264 0 0 .132-.264.264-.264 1.716-.528 3.432-.924 5.016-1.452l11.616-3.96a68.164 68.164 0 0 0 13.332-6.2 2.7 2.7 0 0 0 1.056-1.056.978.978 0 0 0-.792-1.32 10.353 10.353 0 0 0-1.848-.264 3.559 3.559 0 0 0-.924 1.056c0 .132.132.132.132.264-.132 0-.132-.132-.132-.264a2.889 2.889 0 0 0-.66.4h.66a1.008 1.008 0 0 1-.66.264v-.264a2.885 2.885 0 0 0-.66.4h.528c-.132.132-.4.132-.528.264a2.887 2.887 0 0 1-.66.4 2.884 2.884 0 0 1-.66.4 4.178 4.178 0 0 1-1.584 1.056 64.353 64.353 0 0 1-4.488 1.848c-4.092 1.32-8.316 2.64-12.408 4.092l-1.452.4c-.4 0-.4-.264-.4-.528-1.452.4-2.64.66-4.092.924a2.247 2.247 0 0 1-.924.132h-.264c0-.132 0-.264.132-.264.264-.132.4-.264.66-.264a40.739 40.739 0 0 0 5.676-1.848c3.828-1.32 7.524-2.64 11.352-3.828a43.935 43.935 0 0 0 9.24-3.828 10.006 10.006 0 0 1 2.112-.792l.66-.792c.132-.264.4-.4.132-.792-.264-.264-.528-.264-.792-.4a2.635 2.635 0 0 0-1.188.264c-1.848.924-3.7 1.716-5.28 2.64a15.368 15.368 0 0 1-5.676 1.98 12.728 12.728 0 0 0-3.96 1.32 10.958 10.958 0 0 1-2.772.792 17.846 17.846 0 0 0-4.488 1.452 34.887 34.887 0 0 1-5.28 1.584 2.907 2.907 0 0 1-1.056.132c-.792.132-1.188-.4-1.056-1.188a.485.485 0 0 0 .132-.4 8.719 8.719 0 0 1 2.244-3.7h.132c-.528-.4-.4-.66-.132-.924.66-1.056 1.452-1.98 2.112-3.036a28.987 28.987 0 0 1 2.244-3.3l1.584-1.98a48.594 48.594 0 0 1 3.96-5.148 30.516 30.516 0 0 0 2.64-3.168c1.848-2.508 3.96-4.884 6.072-7.392 1.452-1.584 2.9-3.168 4.356-4.884a30.309 30.309 0 0 1 4.356-3.96 13.148 13.148 0 0 0 1.32-1.452c.924-1.056 1.584-2.376 2.9-2.9l.4-.4a30.251 30.251 0 0 1 2.772-3.036 2.94 2.94 0 0 0 1.188-2.244c0-.264.264-.4.4-.66l.4-.4h-.132a29.967 29.967 0 0 1 4.092-4.092c.924-.924 1.98-1.848 2.9-2.64a5.933 5.933 0 0 1 2.112-1.584l.4-.4h-.132l.792-.4c0-.132.132-.264.264-.4a2.348 2.348 0 0 1 1.056-1.452c.66-.66 1.452-1.188 2.244-1.848 2.112-1.848 4.224-3.7 6.468-5.412a2.367 2.367 0 0 1 .924-.66 3.5 3.5 0 0 0 .66-.792 1.06 1.06 0 0 0-.788-1.296Zm-32.076 65.08h.66v-.4a2.884 2.884 0 0 0-.66.4Zm-.66.4h.66v-.4a2.887 2.887 0 0 0-.66.396Zm-.132.132c.132 0 .132.132.132.264v-.4Zm-1.584.66a1.008 1.008 0 0 0-.66.264Zm-3.432 1.452a3.107 3.107 0 0 0-1.056.264 4.08 4.08 0 0 1 1.056-.268Zm-3.168.924c-.132 0-.132.132-.264.132a.461.461 0 0 0 .264-.136Zm-1.32.528 1.056-.4a2.487 2.487 0 0 1-1.056.264Zm0 0a3.107 3.107 0 0 0-1.056.264c.392-.136.792-.136 1.056-.268Zm-2.376.66c.4-.132.924-.264 1.32-.4Zm-1.056.4c.4-.132.66-.264 1.056-.4Zm-1.056.4a4.08 4.08 0 0 0-1.056.264 2.487 2.487 0 0 0 1.056-.276Zm-1.98.66c.264-.132.66-.264.924-.4Z" fill="#341f15" opacity=".08"/></svg>