<svg xmlns="http://www.w3.org/2000/svg" width="213.582" height="75.869"><defs><linearGradient id="a" x1=".396" y1="-.297" x2=".5" y2="1" gradientUnits="objectBoundingBox"><stop offset="0" stop-color="#e53729"/><stop offset=".69" stop-color="#ff652c"/><stop offset="1" stop-color="#ff652c"/></linearGradient></defs><g opacity=".16"><path data-name="パス 603" d="M37.863 21.564a1.511 1.511 0 0 0-.428-.866 6.651 6.651 0 0 1-.397-.513c-.267-.368-.468-.429-.843-.24a5.178 5.178 0 0 0-1.143.803 15.266 15.266 0 0 1-1.19 1.16 2.684 2.684 0 0 0-.467.472c-.507.474-.97.988-1.435 1.495l-1.282 1.403a18.257 18.257 0 0 0-1.39 1.609c-.705.883-1.464 1.615-2.172 2.46l-.706.883c-.393.425-.744.886-1.098 1.309-.458.588-.915 1.175-1.334 1.76a17.934 17.934 0 0 1-1.434 1.964 4.083 4.083 0 0 0-.273.455l-.83 1.246c-.071.085-.138.213-.213.254-.23.059-.329.263-.506.474a1.656 1.656 0 0 1 .136-.677 10.68 10.68 0 0 0 .447-1.604 1.58 1.58 0 0 1-.332.225c.092-.283.153-.483.25-.725.123.068.052.152.059.23l.023.272a8.039 8.039 0 0 0 .382-1.048 1.821 1.821 0 0 0 .06-.67c-.025-.272.28-.377.294-.652-.003-.04-.006-.078-.045-.075s-.036.043-.075.046l-.07.084c.018-.236-.006-.508.253-.687a.872.872 0 0 0 .415-.623c.093-.282.189-.525.246-.765a1.485 1.485 0 0 0 .083-.399 1.946 1.946 0 0 1 .205-1.23 1.828 1.828 0 0 1 .501-.984.559.559 0 0 0 .122-.402 2.688 2.688 0 0 1 .202-1.27l.303-1.005c.155-.522.3-1.043.412-1.562.064-.162.089-.32.24-.373a.255.255 0 0 0 .165-.367.667.667 0 0 1 .165-.797c.07-.084.103-.165.022-.197a.373.373 0 0 1-.03-.35 3.383 3.383 0 0 0-.057-1.09 3.784 3.784 0 0 0-1.208-1.734.758.758 0 0 0-.91-.077l-.93.55a1.821 1.821 0 0 0-.372.229c-.418.584-1.012.949-1.474 1.498-.174.25-.39.465-.6.755a5.02 5.02 0 0 1-.563.714 8.485 8.485 0 0 0-1.248 1.4c-.383.543-.814 1.011-1.237 1.514a7.262 7.262 0 0 0-.808 1.088.92.92 0 0 1-.28.376 9.835 9.835 0 0 0-.947 1.257 63.232 63.232 0 0 1-1.31 2.032l-.772 1.007a2.975 2.975 0 0 0-.274.454 2.428 2.428 0 0 1-.483.745 5.438 5.438 0 0 0-.724 1.12c-.51.866-1.022 1.733-1.537 2.56-.373.659-.794 1.244-1.125 1.899l-.135.246a4.721 4.721 0 0 0-.814 1.441 2.622 2.622 0 0 1-.234.451 8.524 8.524 0 0 0-.87 1.682l-.1.204c-.036.042-.071.084-.152.052l-.007-.077c-.046-.075-.052-.152-.13-.146-.203-.02-.173-.185-.183-.297l-.206.331a1.055 1.055 0 0 1 .091-.744c-.003-.039.035-.042.074-.046a.136.136 0 0 1 .046.075 2.011 2.011 0 0 1-.04.434 7.205 7.205 0 0 0 .45-1.566.44.44 0 0 0-.066-.307.2.2 0 0 1 .05-.318.685.685 0 0 0 .316-.419 10.833 10.833 0 0 0 .337-1.516 1.592 1.592 0 0 0 .043-.865c-.042-.035-.01-.116-.018-.199a22.214 22.214 0 0 1 .435-2.19c.058-.24.08-.438.263-.571a.992.992 0 0 1 .236-.882 2.27 2.27 0 0 1 .052-.748c.231-1.39.42-2.815.65-4.205.054-.278.07-.554.128-.833a3.699 3.699 0 0 0 .121-.913.654.654 0 0 1 .076-.477.425.425 0 0 0 .04-.434 5.775 5.775 0 0 1 .052-.748 3.36 3.36 0 0 0-1.228-2.866 1.2 1.2 0 0 0-.808-.282 2.205 2.205 0 0 0-1.06.406c-.403.309-.814.54-1.217.85l-1.83 1.537c-.038.003-.035.042-.074.046-.251.256-.542.517-.754.768a3.306 3.306 0 0 0-.863 1.328.853.853 0 0 1 .205.1l.096-.244a7.797 7.797 0 0 1 .844-1.091 18.62 18.62 0 0 1 2.33-2.043 9.366 9.366 0 0 1 1.446-.91 6.015 6.015 0 0 1 .644-.251c.152-.052.202.021.216.177l-.19.134a13.91 13.91 0 0 1-1.687.893c-.029.12-.142.169-.252.256l-1.023.833A9.029 9.029 0 0 0 1.5 26.385a2.142 2.142 0 0 1-.326.302l-.231.49a.306.306 0 0 0 .076.424.356.356 0 0 0 .466-.041l.213-.253a1.731 1.731 0 0 1 .273-.455.3.3 0 0 0-.192.095c-.078.007-.114.05-.16-.025-.003-.039.033-.081.03-.12l.07-.084a16.142 16.142 0 0 1 4.066-3.251 4.244 4.244 0 0 1 .937-.474c.074-.045.155-.013.233-.02l.039-.003a.143.143 0 0 1-.029.12l-.261.14c-.259.179-.563.284-.863.466a5.51 5.51 0 0 0-1.256.854c.34-.147.52-.32.82-.463.372-.233.708-.414 1.083-.604a1.564 1.564 0 0 1 .572-.167.287.287 0 0 1 .338.284.76.76 0 0 1-.011.314 4.998 4.998 0 0 1-.103 1.065c-.116.913-.193 1.817-.387 2.734-.198.878-.271 1.824-.504 2.744l-.076.477a20.36 20.36 0 0 1-.507 2.235c-.082.399-.204.801-.286 1.2-.09.32-.102.634-.19.955-.07.554-.301 1.044-.331 1.595a.659.659 0 0 1-.06.2 3.954 3.954 0 0 0-.308.967 13.495 13.495 0 0 1-.555 2.161.143.143 0 0 0-.028.12l-.512 2.197a5.298 5.298 0 0 1-.333 1.125.723.723 0 0 0-.054.279c-.133.677-.312 1.357-.487 2.038a7.026 7.026 0 0 0-.276 1.316 3.354 3.354 0 0 0 .015.624.758.758 0 0 0 .365.595.91.91 0 0 1 .43.432c.23.41.47.467.842.24.226-.099.194-.018.208.138.007.077.084.07.123.067a.484.484 0 0 0 .29-.26c.206-.331.448-.704.653-1.036l2.121-3.942c.977-1.807 1.954-3.614 3.055-5.354.615-.993 1.193-2.022 1.771-3.011.306-.536.65-1.075.994-1.613a2.908 2.908 0 0 1 .231-.49l-.612.601c.003.039-.036.042-.032.081s-.032.081-.036.042l-.003-.038c.035-.043.074-.046.07-.085a3.587 3.587 0 0 1 .654-1.035l-.08.437a1.3 1.3 0 0 0 .468-.471c.206-.331.415-.623.616-.993a2.799 2.799 0 0 0 .476-.824c-.078.006-.152.052-.198-.022a.234.234 0 0 1 .025-.16.538.538 0 0 1 .146-.13c.11-.087.155-.013.204.1l-.003-.038a4.005 4.005 0 0 0 .869-1.25 6.176 6.176 0 0 0 .776-.971q1.251-1.753 2.638-3.4c.185-.173.354-.423.535-.595a24.752 24.752 0 0 1 2.314-2.629 7.61 7.61 0 0 1 .838-.738.224.224 0 0 1 .265-.102c-.1.205.034.389-.023.629a6.014 6.014 0 0 1-.137.677c-.281.807-.446 1.604-.767 2.415-.349.933-.534 1.925-.924 2.86-.132.284-.26.609-.388.936l-.815 2.771-.096.244c-.26.61-.4 1.248-.621 1.854-.162.445-.232.923-.428 1.368a7.938 7.938 0 0 0-.275.885 14.994 14.994 0 0 1-.579 1.89 7.491 7.491 0 0 0-.528 1.572 7.504 7.504 0 0 1-.421 1.442 4.45 4.45 0 0 0-.387 1.403 3.934 3.934 0 0 1-.22.606 5.56 5.56 0 0 0-.258 1.084.678.678 0 0 0 .346.83.554.554 0 0 1 .342.323.707.707 0 0 0 .81.32c.075-.045.152-.052.227-.098a.99.99 0 0 1 .276-.415.737.737 0 0 1-.276.415c.055.19.14.262.25.174l.212-.253c.174-.25.344-.54.515-.828a67.75 67.75 0 0 0 1.279-2.382 45.183 45.183 0 0 1 2.968-4.994c.55-.87 1.143-1.705 1.696-2.535a1.83 1.83 0 0 0 .2-.37l-.577.559a.809.809 0 0 1 .2-.409c.099-.204.24-.373.34-.577l.107-.127-.117.01.106-.127a2.352 2.352 0 0 0 .284-.337.672.672 0 0 1 .517-.359l.017.195a4.181 4.181 0 0 0 .879-1.134c-.078.007-.12-.028-.198-.022a.3.3 0 0 1 .142-.169.188.188 0 0 1 .268-.062 10.329 10.329 0 0 0 1.455-1.733l-.194.017a.816.816 0 0 1 .135-.246c.071-.085.149-.092.272-.024a11.117 11.117 0 0 0 1.57-1.743l-.234.02a16.01 16.01 0 0 1-1.025 1.264c-.162-.064-.052-.152-.017-.194a4.533 4.533 0 0 0 .63-.838 2.09 2.09 0 0 1 .41-.231c.093-.282.35-.461.486-.708l.106-.127-.116.01c.035-.042.07-.084.11-.087l.006.077.107-.126-.078.006.07-.084a1.187 1.187 0 0 1 .284-.338l.071-.084.007.077.194-.017a2.499 2.499 0 0 1-.344.54 2.143 2.143 0 0 0 .616-.563.5.5 0 0 0-.236-.019l-.007-.077-.191.016c.032-.08.11-.088.194-.017.145-.13.248-.295.439-.351a1.3 1.3 0 0 1-.2.409 1.483 1.483 0 0 0 .475-.394c.322-.341.606-.68.931-.985.358-.383.794-.771 1.148-1.196l.939-.903c.11-.088.212-.254.332-.225.162.064.105.304.076.424a.659.659 0 0 1-.082.398 6.343 6.343 0 0 1-.35.934 11.888 11.888 0 0 0-.598 1.658 1.22 1.22 0 0 1-.16.405c-.292.69-.545 1.378-.798 2.065l-.857 2.307c-.185.564-.41 1.132-.555 1.692-.15.522-.377 1.05-.568 1.537a2.038 2.038 0 0 0-.178.641 2.586 2.586 0 0 1-.285.769 4.735 4.735 0 0 0-.282.807 7.81 7.81 0 0 1-.525 1.611.544.544 0 0 0-.086.36 13.735 13.735 0 0 1-.439 1.678c-.21.72-.46 1.445-.629 2.207-.153.483-.265 1.002-.376 1.52-.151.561-.297 1.083-.401 1.679-.126.794-.295 1.552-.418 2.384a4.398 4.398 0 0 0-.085 1.26 1.483 1.483 0 0 0 .177.687 8.997 8.997 0 0 0 .608.69.389.389 0 0 0 .654-.135c.028-.12.021-.202.05-.317l.07-.554a.145.145 0 0 1 .102-.166c.19-.056.177-.216.122-.402a1.89 1.89 0 0 1-.058-.66c.057-.24.16-.405.062-.632-.046-.074.025-.158.1-.204.152-.052.18-.172.089-.32a.323.323 0 0 1 .09-.322 2.485 2.485 0 0 0 .263-.57c.032-.082.064-.163-.017-.195-.208-.138-.144-.3-.08-.462.054-.279.155-.523.207-.762.007.078.01.117.092.149.038-.004.07-.085.106-.127l.258-1.08c-.117.01-.162-.063-.13-.144a1.063 1.063 0 0 1 .192-.487l-.059.67a4.07 4.07 0 0 0 .346-.969c.204-.8.408-1.6.654-2.365a.81.81 0 0 0 .002-.43.667.667 0 0 1-.019-.664l.371-1.128c-.003-.04.035-.042.07-.085l.04-.003.042.035a.5.5 0 0 0-.019.237 1.235 1.235 0 0 0 .27-.493 12.251 12.251 0 0 0 .541-1.848.3.3 0 0 0 .06-.206 12.595 12.595 0 0 0 .635-1.699c.029-.12.096-.243.047-.356a.47.47 0 0 1 .105-.596.47.47 0 0 0 .177-.211c.035-.043.064-.163-.017-.195-.127-.106-.098-.226-.03-.35l.277-.845a1.065 1.065 0 0 1 .309-.489l.46-1.445a3.055 3.055 0 0 1 .338-.616 1.33 1.33 0 0 0 .367-.735.667.667 0 0 1-.02-.663 13.3 13.3 0 0 0 .692-1.94 3.033 3.033 0 0 1 .707-1.313c-.077.007-.159-.025-.126-.107.05-.317.065-.592.362-.775.029-.12.139-.208.09-.32a.306.306 0 0 1 .001-.431 1.875 1.875 0 0 0 .12-1.306Zm-17.496.863a5.126 5.126 0 0 1 .706-.883 11.236 11.236 0 0 1 1.27-1.129c-.045-.074-.09-.148-.02-.233a1.723 1.723 0 0 1 .895-.508.075.075 0 0 1 .12.028c.004.039-.032.081-.028.12-.036.042-.075.046-.149.091.12.029.24.058.13.146a1.708 1.708 0 0 1-.714.336 2.749 2.749 0 0 1-.326.302 12.15 12.15 0 0 0-1.445 1.379.907.907 0 0 1-.439.351Zm2.423-2.286a.89.89 0 0 0-.446.274l.23-.02Zm.083 1.398-1.19 1.16a1.09 1.09 0 0 1-.475.394.626.626 0 0 1 .158-.44 2.043 2.043 0 0 1 .351-.461c.44-.352.839-.739 1.236-1.086a4.252 4.252 0 0 0 .407-.27c.078-.008.116-.011.162.063.042.036.007.078-.029.12-.22.172-.44.352-.618.524Zm-16.317.917-.01-.117c-.074.05-.11.092.01.12Zm29.774-1.858-.106.127c.039-.004.081.032.12.028-.039.004-.074.046-.113.05a2.167 2.167 0 0 1-.63.407l-.103.165c-.467.471-.977.907-1.445 1.379a.17.17 0 0 1-.19.055c-.01-.116.103-.165.131-.285l.107-.127a2.975 2.975 0 0 0 .4-.348c-.127-.106-.014-.155.1-.204l.006.078.07-.085.04-.003.435-.39a2.385 2.385 0 0 1 .45-.235l.318-.38a.081.081 0 0 1-.013-.156.633.633 0 0 1 .332-.225.234.234 0 0 1 .159.026c.007.081-.028.124-.067.127ZM4.86 23.234l.01.117c-.002-.04.033-.081.03-.12Zm15.222-.469a2.684 2.684 0 0 1-.383.542c-.461.55-.96 1.102-1.421 1.65l-.84 1.13c-.214.254-.426.508-.678.762a1.635 1.635 0 0 1 .302-.574c.77-1.045 1.66-2.062 2.471-3.073a1.92 1.92 0 0 1 .549-.439.47.47 0 0 1 .177-.21.47.47 0 0 1-.175.212ZM4.547 24.553Zm0 0a1.12 1.12 0 0 0-.477.355.867.867 0 0 0 .477-.355Zm31.408-2.431-.046-.074c.032-.082.068-.124.11-.088.039-.004.042.035.046.074s-.032.081-.11.088ZM4.073 24.947l-.003-.04-.071.085c.035-.042.035-.042.074-.045ZM4 24.992a.816.816 0 0 0-.22.176.816.816 0 0 0 .22-.176Zm-.845.661a.849.849 0 0 0 .293-.221.536.536 0 0 0-.29.22Zm0 0a.88.88 0 0 0-.4.348.818.818 0 0 0 .403-.348Zm31.87-2.51a.121.121 0 0 1-.075.045c-.003-.039-.003-.039.032-.081s.107-.127.149-.091c.087.07-.068.084-.103.126Zm-.184.133-.007-.078c.039-.003.039-.003.042.036Zm-1.912.52a1.147 1.147 0 0 1 .432-.43.91.91 0 0 1-.429.429Zm1.699-.267-.003-.039c.038-.003.074-.045.113-.049Zm-32.593 3.2c-.035.042-.032.081-.067.123l.106-.126Zm30.175-2.206c.107-.127.177-.211.294-.221a.615.615 0 0 1-.29.222Zm-7.765 1.148.042.036-.003-.04c0-.038-.04-.035-.036.004Zm-6.064.921a.5.5 0 0 1 .277-.415 1.13 1.13 0 0 1-.274.415Zm12.65-.792a2.052 2.052 0 0 1 .722-.689 1.556 1.556 0 0 1-.72.689Zm2.06-.61-.04.003c-.038.004-.042-.035-.006-.077l.076-.007a.136.136 0 0 0-.028.08Zm-18.468 4.548a3.813 3.813 0 0 1 1.083-1.499 2.415 2.415 0 0 1 .81-1.05 3.05 3.05 0 0 1-.81 1.05 4.63 4.63 0 0 1-1.078 1.499Zm3.045-2.338a.45.45 0 0 1 .17-.289l.04-.003.042.035a.524.524 0 0 1-.252.257Zm12.592-.591-2.527 2.882-.216.22a12.718 12.718 0 0 1-1.492 1.735 5.338 5.338 0 0 1 1.492-1.736 2.344 2.344 0 0 1 .306-.535l.705-.884a1.7 1.7 0 0 1 .21-.292 7.504 7.504 0 0 0 1.218-1.28 1.025 1.025 0 0 1 .513-.397Zm1.624-.22.003.038ZM16.237 29.36l-.017-.194-.223.137c.029-.12.06-.2.223-.137a2.234 2.234 0 0 0 .39-.464 2.993 2.993 0 0 1 .636-.758 4.643 4.643 0 0 1-1.008 1.418Zm14.82-1.92.04-.004c-.004-.039.031-.081.067-.123Zm-.067.123.106-.127c-.035.042-.07.085-.11.088Zm0 0c-.04.003-.075.045-.11.088Zm-.39.464c.035-.042.07-.084.067-.123Zm-16.428 2.339a.849.849 0 0 1 .243-.374.622.622 0 0 1-.242.373Zm21.92-2.19a.554.554 0 0 1-.058.24l.096-.243ZM13.69 31.113a.953.953 0 0 1-.312.458.97.97 0 0 1-.38.581 1.225 1.225 0 0 1 .38-.581.953.953 0 0 1 .312-.458 1.128 1.128 0 0 1 .415-.623c-.057.278-.237.411-.414.622Zm-5.515.052c-.003-.04-.006-.078.033-.081l-.007-.078a.038.038 0 0 0-.036.042Zm6.936.137c.036-.042.032-.08.071-.084-.039.003-.074.045-.11.088Zm-7.147 1.055-.04.003a1.139 1.139 0 0 1-.046.357Zm5.704.793a.862.862 0 0 1 .344-.539 1 1 0 0 1-.339.538Zm-1.322.034a1.106 1.106 0 0 1-.274.455.6.6 0 0 1 .274-.455.629.629 0 0 1 .131-.285.4.4 0 0 1-.131.285Zm22.709-2.101a.853.853 0 0 1-.184.133c.123.07.152-.05.184-.131Zm-7.796.798c-.035.043-.07.085-.11.088l.004.039Zm-2.398 1.266a1.987 1.987 0 0 1-.663.92 2.238 2.238 0 0 1 .663-.92 3.218 3.218 0 0 1 .734-1.003 2.112 2.112 0 0 1-.73 1.005Zm-4.139-.34.04-.004-.036.042Zm-9.343 1.873a.659.659 0 0 1-.06.2 10.639 10.639 0 0 1-1.136 1.783l-.003-.04a7.02 7.02 0 0 1 1.2-1.943.785.785 0 0 1 .312-.458.518.518 0 0 1 .273-.455.818.818 0 0 1-.273.455.907.907 0 0 1-.313.458Zm8.847-.421a2.707 2.707 0 0 1 .155-.522.121.121 0 0 1 .074-.046c.078-.007.085.07.088.11-.125.363-.246.765-.332 1.124a10.596 10.596 0 0 0-.342 1.009 1.077 1.077 0 0 1-.206.33 1.957 1.957 0 0 1 .037-.472c.185-.525.335-1.047.527-1.533Zm5.94-.989-.067.124c.036-.043.072-.085.068-.124Zm-.067.124c-.04.003-.075.045-.11.087Zm-.323.34c-.032.082-.067.124-.06.207.036-.048.03-.121.061-.206Zm-1.707.62a12.065 12.065 0 0 1-1.29 1.795 4.654 4.654 0 0 1 .256-.649l-.01-.116a1.358 1.358 0 0 1 .457-.588 8.166 8.166 0 0 0 .613-.601.234.234 0 0 1-.025.158Zm8.72-.528c-.028.12-.138.208-.142.17a.292.292 0 0 1 .022-.203l.135-.247a.578.578 0 0 0-.014.28Zm-20.835 2.056a.536.536 0 0 1 .277-.416.99.99 0 0 1-.276.416Zm12.653-.754a.629.629 0 0 1-.132.286l-.116.01a.143.143 0 0 1 .028-.12c.074-.046.145-.13.22-.176l-.01-.116.116-.01Zm7.855-.569-.039.004c-.003-.039-.003-.039.036-.042Zm-22.588 2.6a.606.606 0 0 1 .206-.331.606.606 0 0 1-.205.331Zm1.157.251c-.148.091.09-.32.447-.704a1.445 1.445 0 0 1-.446.707Zm8.445-.542a.82.82 0 0 1 .15-.522.82.82 0 0 1-.15.522 1.149 1.149 0 0 1-.15.522.82.82 0 0 1 .15-.522Zm-9.708.418a.849.849 0 0 1-.167.327.615.615 0 0 1 .168-.327Zm14.154-1.08a.389.389 0 0 1-.18.172l.089-.32c.075-.007.159.063.088.148Zm-1.626.65a2.046 2.046 0 0 1-.585.913 1.615 1.615 0 0 1 .585-.913.694.694 0 0 1 .272-.45 1.106 1.106 0 0 1-.275.45Zm-12.69.796a1.062 1.062 0 0 1-.277.416.536.536 0 0 1 .276-.416Zm-.753 1.24a.606.606 0 0 1-.206.331 1.23 1.23 0 0 1-.37.698.784.784 0 0 1-.128.324c-.27.493-.501.983-.777 1.437l-.32.38a.4.4 0 0 1-.166.328.849.849 0 0 1 .167-.327 1.441 1.441 0 0 1 .161-.445L8 40.257a1.187 1.187 0 0 1 .283-.338 1.1 1.1 0 0 1 .37-.697.5.5 0 0 1 .018-.237l-.039.004a.554.554 0 0 0 .227-.098 1.334 1.334 0 0 1 .479-.786 1.334 1.334 0 0 1-.484.786Zm10.141-.377a.646.646 0 0 1 .15-.522.82.82 0 0 1 .15-.522.82.82 0 0 1-.15.522.82.82 0 0 1-.15.522Zm-12.786.569a.038.038 0 0 1 .043.035l-.026.16c.004.038-.035.041-.077.006l-.004-.04c-.003-.039.032-.081.029-.12a.038.038 0 0 1 .035-.041Zm3.734.182c-.035.043-.074.046-.07.085a1.4 1.4 0 0 1-.406.738c.05-.318.05-.318.405-.738l-.01-.117a.3.3 0 0 1 .142-.169c.039-.003.045.075-.061.201Zm11.219-.589a10.98 10.98 0 0 1-.81 1.476.143.143 0 0 1-.113.05.932.932 0 0 1 .086-.36 8.162 8.162 0 0 1 .837-1.166.536.536 0 0 1 .172-.328.849.849 0 0 1-.172.328Zm-3.188 3.37a3.047 3.047 0 0 1-.36.812l.062-.632.096-.243-.116.01c-.02-.233.163-.366.263-.57l.003.038c.253-.687.468-1.371.682-2.055a3.047 3.047 0 0 1 .36-.814 1.038 1.038 0 0 1-.077.476Zm13.195-3.5.013.155c-.039.003-.035.042-.07.084l-.01-.116c.035-.042.07-.084.067-.123a1.235 1.235 0 0 1 .182-.603.894.894 0 0 1-.182.603Zm-9.215.687a.615.615 0 0 1 .167-.327.849.849 0 0 1-.167.327ZM4.76 40.462c.082.032.01.116.014.155l-.07.084-.008-.077a.2.2 0 0 1 .064-.162Zm16.984-.858c.003.039-.04.003-.04.003a.038.038 0 0 1-.041-.035 1.05 1.05 0 0 1 .287-.3.484.484 0 0 1-.2.331ZM4.68 40.86a2.276 2.276 0 0 1-.236.881 2.057 2.057 0 0 1 .236-.881Zm1.087-.095c.04-.003.078-.007.046.074l-.035.042c-.043-.035-.043-.035-.046-.074a.038.038 0 0 1 .035-.042Zm26.73-2.218-.003-.039-.036.042ZM9.093 40.748c-.039.004-.035.043-.074.046-.003-.039-.003-.039.032-.081-.003-.039.035-.042.039-.003.039-.004.003.038.003.038Zm-.602 1.149c-.305.535-.605 1.11-.952 1.648s-.606 1.11-.914 1.645l-1.61 3.076a2.522 2.522 0 0 1-.28.377l-.078.007c-.042-.036-.042-.036-.046-.075a.554.554 0 0 1 .058-.24c.167-.327.334-.655.504-.947.707-1.31 1.418-2.586 2.128-3.861.1-.21.2-.409.302-.574a1.731 1.731 0 0 0 .273-.455 3.954 3.954 0 0 1 .534-1.064.538.538 0 0 1 .145-.13c-.004-.039.077-.007.077-.007a.121.121 0 0 1 .046.075.87.87 0 0 1-.189.525Zm23.763-2.585c.003.039.042.035.039-.004a.136.136 0 0 1 .032-.08c-.039.003-.035.041-.074.045Zm-1.655 1.24a.3.3 0 0 1-.025.159l-.035.042-.007-.078c-.003-.039.032-.08.067-.123a1.132 1.132 0 0 1 .18-.642 1.9 1.9 0 0 1-.18.642Zm-9.708.414c-.035.042-.077.007-.08-.032l.035-.043a.234.234 0 0 0 .152-.052Zm-.34.577c-.078.007-.085-.07-.05-.113l-.01-.116.117-.01a.143.143 0 0 1 .049.113c.004.043-.025.162-.106.13ZM3.98 43.583a1.052 1.052 0 0 1 .175-.681 1.033 1.033 0 0 1-.175.68Zm1.936.221.107-.126.663-.92a7.314 7.314 0 0 1-.693 1.47 3.515 3.515 0 0 1-.316.42l.003.038a.564.564 0 0 1-.101-.265c.096-.243.115-.48.337-.617Zm14.18-1.239a.928.928 0 0 1-.305.536c.003.039-.075.046-.078.007-.039.003-.042-.036-.046-.075a.83.83 0 0 1 .429-.468.622.622 0 0 1 .263-.57 2.486 2.486 0 0 1-.263.57ZM5.443 45.098a.136.136 0 0 1 .032-.081 2.162 2.162 0 0 1 .205-.331.939.939 0 0 1-.205.331l.006.078c-.035.042-.035.042-.074.045a.038.038 0 0 1 .036-.042Zm13.605-.602-.078.007a.136.136 0 0 0-.046-.074c.096-.243.159-.484.377-.62.11-.088-.044.395-.253.687Zm-15.463.882-.093.243a.76.76 0 0 1 .015-.276.393.393 0 0 1 .03-.12c.119.03.044.114.048.153Zm26.953-.555c.032-.081-.013-.155.057-.24.135.145.021.194-.053.24Zm26.38-9.858a1.331 1.331 0 0 1-.174-.65.24.24 0 0 0-.37-.202c-.372.228-.834.307-1.21.497a5.288 5.288 0 0 1-1.105.331 5.71 5.71 0 0 0-1.556.567.287.287 0 0 1-.226.098 16.933 16.933 0 0 0-1.817.706l-1.474.599a13.772 13.772 0 0 0-1.736.738 5.206 5.206 0 0 1-.673.333c-.343.108-.466.04-.532-.267l-.205-1a2.588 2.588 0 0 0-.3-.756.552.552 0 0 0-.575-.302 3.108 3.108 0 0 0-.572.168l-1.319.585a20.53 20.53 0 0 0-2.11.928 9.427 9.427 0 0 1-1.36.51 5.198 5.198 0 0 0-.721.258 4.638 4.638 0 0 1-1.025.364 1.274 1.274 0 0 1-.66.058c-.16-.026.05-.318-.228-.372 1.274-1.99.8-2.027.862-2.227a1.207 1.207 0 0 0-.104-.735c-.098-.226-.295-.248-.476-.076l-.07.085a11.995 11.995 0 0 0-2.186 4.104 1.8 1.8 0 0 0 .244.996.985.985 0 0 0 .947.504 7.33 7.33 0 0 0 1.586-.217 23.99 23.99 0 0 0 3.304-1.15 29.102 29.102 0 0 0 3.02-1.28 2.381 2.381 0 0 1 .494-.161.39.39 0 0 1 .464.39.64.64 0 0 1-.27.493.977.977 0 0 1-.258.18 25.837 25.837 0 0 0-2.185 1.403c-.036.042-.071.085-.11.088a18.136 18.136 0 0 0-2.247 1.601c-1.21.928-2.42 1.855-3.543 2.893-.4.348-.758.731-1.158 1.08a14.12 14.12 0 0 0-1.51 1.536 3.546 3.546 0 0 1-.754.768 1.219 1.219 0 0 0-.397.387 5.314 5.314 0 0 1-.85 1.014 4.672 4.672 0 0 0-.387.503c-.56.751-1.082 1.5-1.639 2.295-.141.17-.199.41-.34.578a6.946 6.946 0 0 0-.895 2.309 2.13 2.13 0 0 0 .022.7 5.998 5.998 0 0 0 .476 1.407 1.26 1.26 0 0 0 .513.503l.37.202a.988.988 0 0 0 .942.035 7.584 7.584 0 0 0 .828-.385 20.602 20.602 0 0 0 5.223-3.822 7.484 7.484 0 0 0 .527-.587l-.31.027a.849.849 0 0 1 .293-.221l.017.194a7.906 7.906 0 0 0 1.783-1.995.193.193 0 0 1 .015-.275c.106-.127.261-.14.41-.232a.736.736 0 0 0 .46-.549.932.932 0 0 1 .23-.524l1.05-1.422a4.13 4.13 0 0 1 .433-.429l.155-.013c.036-.043-.007-.078-.049-.114a1.46 1.46 0 0 1 .422-.545.694.694 0 0 0 .245-.335 1.964 1.964 0 0 1 .514-.827 6.95 6.95 0 0 0 .724-1.125c.266-.532.572-1.068.835-1.638.295-.652.63-1.308.882-1.995a2.256 2.256 0 0 1 1.212-1.314c.605-.248 1.199-.613 1.842-.863 1.58-.725 3.203-1.415 4.874-1.992.495-.16.948-.356 1.439-.556a6.307 6.307 0 0 0 1.536-.8.969.969 0 0 1-.308.067c-.152.052-.258.179-.42.115.06-.206.22-.176.37-.233a2.2 2.2 0 0 1 .453-.196.978.978 0 0 0 .259-.18.434.434 0 0 0 .139-.635Zm-.929.12a3.008 3.008 0 0 1-.986.36l-.078.007c-.042-.035-.084-.07-.088-.11-.042-.035-.01-.116.068-.123a.554.554 0 0 1 .226-.098c.269-.062.54-.086.809-.149l.084.071a.038.038 0 0 0-.035.047Zm-11.42 1.429c-.035.042-.035.042-.074.045-.003-.038.036-.042.074-.045-.003-.039.036-.042.075-.046-.036.042-.036.042-.075.046Zm7.543-.111a2.163 2.163 0 0 1 .835-.308c-.294.221-.294.221-.835.308Zm-10.94 1.542a.745.745 0 0 1-.3.144c.025-.159.184-.133.297-.182l.078-.007c-.039.003-.036.042-.074.045Zm8.714-.604a.234.234 0 0 1-.152.052c.035-.042.07-.084.11-.088a.3.3 0 0 1 .151-.052c.05.113-.07.084-.11.088ZM37.96 39.244c-.113.049-.22.175-.35.03.068-.123.187-.094.3-.143.57-.207 1.135-.452 1.708-.62a1.765 1.765 0 0 1 .61-.17 12.895 12.895 0 0 1-1.545.683 4.14 4.14 0 0 1-.723.22Zm-1.716.071c.078-.006.198.022.208.139s-.093.282-.174.25c-.155.013-.166-.103-.176-.22s.026-.159.142-.169Zm.652 1.196a1.138 1.138 0 0 1-.618.093c-.12-.029-.243-.096-.207-.139a.215.215 0 0 1 .187-.094l.194-.017a1.2 1.2 0 0 1 .392.005c.039-.004.12.028.123.067.042.035-.032.081-.07.085Zm6.377 2.22a1.58 1.58 0 0 1-.163.367 21.664 21.664 0 0 1-1.936 2.987c-.56.751-1.201 1.475-1.8 2.231a8.143 8.143 0 0 0-.703.923 5.874 5.874 0 0 1-.825.894 2.142 2.142 0 0 1-.325.302 23.54 23.54 0 0 1-1.896 2.044l-1.665 1.55a1.512 1.512 0 0 1-.406.27 2.473 2.473 0 0 0-.775.538 4.782 4.782 0 0 1-1.185.769 5.523 5.523 0 0 0-.67.371c-.223.137-.378.15-.547.009-.081-.032-.16-.025-.21-.1.068-.122.259-.178.166-.405-.092-.148.015-.275.12-.402l.359-.383c-.05-.113.018-.237.047-.357a6.677 6.677 0 0 1 .685-1.116.146.146 0 0 0 .233-.02c.245-.335.574-.598.612-1.032a.93.93 0 0 1 .196-.448 5.567 5.567 0 0 1 1.004-1.14.922.922 0 0 1 .383-.542 2.363 2.363 0 0 0 .712-.806 3.053 3.053 0 0 1 .723-.69c.07-.084.184-.133.255-.217a.856.856 0 0 0 .753-.34 14.943 14.943 0 0 1 1.674-1.438 1.185 1.185 0 0 0 .255-.218 4.624 4.624 0 0 1 1.423-1.18c-.003-.04.036-.043.071-.085.397-.387.874-.742 1.31-1.093.406-.27.77-.576 1.178-.846a9.326 9.326 0 0 1 .771-.576.172.172 0 0 1 .196-.057.258.258 0 0 1-.02.237Zm-1.633 5.935a1.034 1.034 0 0 0 .215-.22l-.039.004c-.026.086-.106.129-.176.216Zm-7.818 1.897-.233.02c.085.07.154.026.233-.02Zm-.496.59.106-.126c-.035.042-.07.085-.11.088Zm-.142.17a.136.136 0 0 0 .074-.046l.068-.123c-.039.003-.074.045-.11.088-.039.003-.035.042-.032.08Zm2.998 1.616a.685.685 0 0 1-.18.172.685.685 0 0 1 .18-.172 1.169 1.169 0 0 1 .358-.383.666.666 0 0 1-.358.383Zm-.643.682a.613.613 0 0 1 .394-.425.613.613 0 0 1-.396.426Zm-5.26 3.395c-.046-.074-.01-.116.064-.162l.223-.137a18.46 18.46 0 0 0 2.68-1.565l.524-.28a4.078 4.078 0 0 0 .852-.583 2.62 2.62 0 0 1 .446-.274.818.818 0 0 1 .4-.348.737.737 0 0 1-.361.344 3.647 3.647 0 0 1-1.352 1.097 3.028 3.028 0 0 1-.939.904c-.555.361-1.117.645-1.676.968l-.41.231c-.235.06-.321.029-.453-.195Zm5.998-2.559a.816.816 0 0 1-.22.176 1.484 1.484 0 0 0 .174-.25l.074-.046c.084.071.01.117-.03.12Zm-1.158 1.08a1.31 1.31 0 0 0-.588.442l-.184.134A19.922 19.922 0 0 1 31.6 57.8a2.836 2.836 0 0 1-.795.304.119.119 0 0 1-.156.014.062.062 0 0 1-.049-.113 3.606 3.606 0 0 1 .371-.234 17.846 17.846 0 0 0 4.008-2.502 1.731 1.731 0 0 0 .4-.348.65.65 0 0 1 .604-.249 2.576 2.576 0 0 1-.864.864ZM94.185 18.09c-.059-.23-.153-.417-.21-.608a1.206 1.206 0 0 0-1.023-.967 14.272 14.272 0 0 0-3.676-.423c-.194.017-.353-.008-.547.009a3.412 3.412 0 0 0-.629-.023c-.938.003-1.842-.035-2.735.043-.664.019-1.292-.005-1.952.053a1.486 1.486 0 0 1-.586.012c-.399-.082-.451-.234-.326-.597.035-.043.028-.12.064-.163-.014-.155-.014-.155.106-.126a1.96 1.96 0 0 0 .44-.352c.105-.126.215-.22.202-.37.008-.353.27-.493.528-.672l.106-.127.182-.216a8.655 8.655 0 0 1 1.187-1.2 1.032 1.032 0 0 1 .697-.53.375.375 0 0 0 .329-.264c.022-.197.174-.25.326-.302a2.226 2.226 0 0 0 .771-.576c.071-.085.18-.172.167-.328.019-.236.203-.37.348-.5a4.981 4.981 0 0 1 .768-.615l.003.04.107-.128a2.353 2.353 0 0 1 .283-.337c.464-.51.45-.666.09-1.221a.452.452 0 0 0-.565-.186 7.27 7.27 0 0 0-.743.456l-1.462 1.185c-.503.513-1.051.952-1.596 1.43-.839.74-1.59 1.51-2.345 2.28l-.86.897a19.048 19.048 0 0 0-1.635 1.903 2.1 2.1 0 0 1-1.532.837 14.984 14.984 0 0 1-1.864.162 6.317 6.317 0 0 0-.851.114 2.699 2.699 0 0 1-.968.124 3.354 3.354 0 0 0-.624.015c-.428.037-.81.149-1.236.186-.858.036-1.696.305-2.557.302a1.139 1.139 0 0 0-.343.108 6.668 6.668 0 0 1-1.504.249c-.156.014-.307.066-.463.08-.728.18-1.416.358-2.148.5-.575.129-1.108.298-1.681.46l-2.969.962a7.063 7.063 0 0 0-1.173.455c-.488.238-.976.476-1.467.676a2.254 2.254 0 0 0-.527.242c-.148.09-.255.217-.086.36a.469.469 0 0 1 .105.303c.034.389.16.495.535.306l.078-.007a25.144 25.144 0 0 1 2.838-1.11 56.488 56.488 0 0 1 10.054-2.282 72.131 72.131 0 0 1 5.003-.516l.427-.037c.078-.007.194-.017.243.096.046.074-.025.159-.22.176l-3.42.299c-1.201.144-2.399.327-3.557.506-1.003.166-2.002.37-2.964.533q-1.843.396-3.677.908c-1.258.384-2.516.768-3.763 1.268a1.366 1.366 0 0 0-.524.28 4.14 4.14 0 0 0 .725-.219c.834-.308 1.629-.612 2.508-.845q1.888-.577 3.9-1.043a88.146 88.146 0 0 1 4.698-.88c1.78-.234 3.56-.468 5.35-.585l.35-.03a.222.222 0 0 1 .18.257.554.554 0 0 1-.058.24c-.316.42-.633.799-.99 1.221a5.209 5.209 0 0 0-.705.884 8.437 8.437 0 0 1-1.417 1.69 1.456 1.456 0 0 0-.252.256 12.924 12.924 0 0 1-.921 1.143 1.675 1.675 0 0 0-.316.419 5.327 5.327 0 0 1-.811 1.05c-.5.552-.919 1.136-1.376 1.725a15.765 15.765 0 0 1-1.642 2.256l-.106.127c-.515.828-1.072 1.62-1.587 2.447a5.57 5.57 0 0 0-.475.824c-.476.824-.913 1.645-1.35 2.466a13.303 13.303 0 0 0-.549 1.34 1.3 1.3 0 0 0 .019 1.012 6.718 6.718 0 0 0 .343.792 1.613 1.613 0 0 0 .97.776 1 1 0 0 0 .933-.081 11.124 11.124 0 0 0 1.726-.817c.714-.336 1.389-.669 2.11-.927a28.047 28.047 0 0 0 2.987-1.2 14.095 14.095 0 0 0 1.315-.624l1.163-.572c.453-.196.902-.43 1.347-.665.074-.046.187-.095.177-.211a1.106 1.106 0 0 0-.491.2c-1.577.763-3.19 1.57-4.858 2.185a54.231 54.231 0 0 0-4.673 2.052c-.262.14-.526.246-.827.385a.76.76 0 0 0-.269.063c-.038.003-.12-.03-.123-.068a.3.3 0 0 1 .064-.162l.34-.147c.452-.196.901-.431 1.315-.624.788-.382 1.577-.764 2.372-1.068a53.884 53.884 0 0 0 4.114-1.73c.83-.346 1.655-.77 2.482-1.155a1.063 1.063 0 0 0 .446-.274.23.23 0 0 0 .015-.275c-.042-.036-.088-.11-.166-.103-.113.049-.268.062-.381.111l-1.17.494a4.26 4.26 0 0 1-.643.257l-.004-.044a.629.629 0 0 1-.34.147l-.3.144a.443.443 0 0 1-.3.143l-.34.147a.918.918 0 0 1-.304.105 1.722 1.722 0 0 1-.6.288l.178-.25a3.269 3.269 0 0 0-.94.434c.039-.004.077-.007.08.032a.136.136 0 0 1-.073.045l-.01-.116a11.553 11.553 0 0 0-2.196.857c.04-.004.117-.01.085.07a.136.136 0 0 1-.074.046l-.01-.116a2.855 2.855 0 0 0-.944.395l.35-.03a.735.735 0 0 1 .303-.105.735.735 0 0 1-.304.105.629.629 0 0 1-.34.147l.04-.004a11.857 11.857 0 0 1-2.518 1.199l.213-.254c-.078.007-.116.01-.159-.025-.045-.074-.01-.116.026-.159l.3-.143a32.781 32.781 0 0 1 4.034-1.758 89.308 89.308 0 0 0 5.55-2.324c.113-.049.222-.137.335-.186a.234.234 0 0 0 .026-.158c-.004-.04-.085-.071-.124-.068a.073.073 0 0 0-.116.01c-.382.112-.805.188-1.184.339-.792.343-1.59.608-2.375 1.029a4.56 4.56 0 0 1-.76.267 32.65 32.65 0 0 0-3.261 1.188l-.152.052a6.045 6.045 0 0 1-1.35.627.5.5 0 0 1-.23.06.156.156 0 0 1-.211-.183c-.014-.155.008-.353-.006-.508l-.013-.156c.028-.12.064-.162.226-.098a.79.79 0 0 0 .179-.641.214.214 0 0 1 .135-.247c.148-.091.297-.182.322-.341-.084-.071-.133-.184-.024-.272a1.713 1.713 0 0 0 .406-.738 2.364 2.364 0 0 1 .946-1.257c.113-.049.145-.13.174-.25-.078.007-.123-.067-.052-.151l.141-.17.017.195a10.041 10.041 0 0 0 1.117-1.437 3.227 3.227 0 0 1 .376-.62l1.624-2.02a2.352 2.352 0 0 1 .284-.338c.035-.043.07-.085.11-.088a1.344 1.344 0 0 1 .28-.377 1.483 1.483 0 0 1 .305-.535c.557-.792 1.16-1.506 1.762-2.228.142-.17.326-.303.467-.472l.107-.126a4.052 4.052 0 0 1 1.173-1.394l-.038.003a.83.83 0 0 1 .35-.461l.546-.478.039-.004a.3.3 0 0 1 .121-.401 1.219 1.219 0 0 0 .312-.458c.068-.124-.059-.23.009-.353.064-.162.271-.024.378-.15l.531-.634c.036-.042.068-.123.026-.159-.095-.187.054-.278.167-.327a6.024 6.024 0 0 0 .876-.312 1.582 1.582 0 0 1 .724-.22c1.67-.145 3.392-.14 5.105-.25a1.326 1.326 0 0 1 .391.005c1.246-.07 2.464-.02 3.682.03a13.78 13.78 0 0 1 2.17.202 2.423 2.423 0 0 1 1.177.484 1.8 1.8 0 0 0 .295.249c.12.028.237.018.265-.102a1.246 1.246 0 0 0 .045-.747ZM88.786 7.8a.143.143 0 0 1 .12.028s.007.078-.032.081a1.617 1.617 0 0 1-.736.534 2.553 2.553 0 0 1 .648-.643Zm-.977.907a1.96 1.96 0 0 1-.8.696 2.699 2.699 0 0 1 .8-.696Zm-.907.823a.607.607 0 0 1-.29.26.606.606 0 0 1 .29-.26Zm-.435.39a.45.45 0 0 1-.255.223.45.45 0 0 1 .255-.223Zm.515.972-.003-.039.039-.003c-.04.003-.04.003-.036.042Zm-4.205 2.481a2.2 2.2 0 0 1-.858.936 2.766 2.766 0 0 1 .858-.936Zm-4.566 3.725a.96.96 0 0 1-.463.08l-3.379.295a.038.038 0 0 0 .042.035l3.418-.298c.042.035.081.032.085.07.006.078-.033.082-.071.085-.195.017-.347.07-.502.083-1.829.12-3.686.361-5.505.599a27.17 27.17 0 0 0-3.51.58c-1.501.288-2.957.61-4.45 1.015a38.246 38.246 0 0 0-4.068 1.373l-.3.144c-.078.006-.15.091-.272.023-.043-.035.015-.275.128-.324a5.523 5.523 0 0 1 .67-.371 45.46 45.46 0 0 1 3.993-1.328q1.95-.522 4.032-.939c1.074-.25 2.158-.384 3.277-.56 1.776-.273 3.602-.432 5.385-.627.427-.038.858-.036 1.285-.073a.3.3 0 0 1 .2.06c.04-.003.04-.003.043.036a.038.038 0 0 1-.038.042Zm14.672-.03-.035.043a2.083 2.083 0 0 1-.865-.042c-.116.01-.2-.06-.317-.05-.237-.02-.47.001-.704-.017-1.726-.045-3.452-.09-5.206-.015-1.247.07-2.457.097-3.707.128a.292.292 0 0 1-.197-.022c-.04.004-.043-.035-.081-.032.035-.042.032-.08.07-.084l.505-.044a.969.969 0 0 0 .308-.066l-.35.03c-.159-.025-.382.112-.515-.072.138-.208.34-.147.534-.164a103.38 103.38 0 0 1 3.547-.154c.978-.007 1.96.03 2.976.014.903 0 1.81.116 2.713.154a4.974 4.974 0 0 1 1.112.177l.204.1c.001.039.046.074.008.117ZM70.08 18.085c.08.032.116-.01.155-.014l-.117.01Zm22.293-.148c-1.736-.161-3.497-.164-5.259-.167l-2.767.125-3.156.158c-.272.024-.473-.037-.402-.121.064-.162.223-.137.378-.15.66-.058 1.36-.12 2.14-.149 1.56-.058 3.203-.079 4.842-.11a26.582 26.582 0 0 1 3.97.201.664.664 0 0 1 .276.015c.123.068.31-.027.408.2a.537.537 0 0 1-.43-.002ZM77.398 19.44a1.187 1.187 0 0 1 .283-.338.423.423 0 0 1-.283.338Zm1.521-.055a.143.143 0 0 0-.113.05c.035-.043.07-.085.11-.088Zm-2.018.646a.47.47 0 0 1-.177.211.47.47 0 0 1 .177-.21.688.688 0 0 1 .323-.342.476.476 0 0 1-.323.341Zm-17.74 2.098a.942.942 0 0 0-.568.206 1.163 1.163 0 0 0 .569-.206Zm12.31 4.716c-.036.043-.107.127-.11.088-.081-.032.032-.08.067-.123.032-.081.071-.084.103-.166a.3.3 0 0 1-.06.201Zm-2.14 5.079c-.003-.039.032-.081.068-.123l-.107.126Zm5.271 2.55-.3.143.31-.027Zm-.3.143-.3.144.31-.027Zm-.3.144-.34.147.348-.03Zm-.34.147a.735.735 0 0 1-.304.105l.31-.027Zm-.304.105-.417.154.427-.038Zm.31-.027.004.039a.038.038 0 0 1 .035-.043Zm-5.11 1.975.314-.027-.01-.116Zm-.827.386a.554.554 0 0 0 .226-.098.554.554 0 0 0-.226.098Zm0 0a2.686 2.686 0 0 0-.3.143Zm-.64.29a.852.852 0 0 1-.184.134l.223-.137Zm-.488.239a1.206 1.206 0 0 0 .304-.105c-.113.049-.23.06-.304.104ZM98.84 8.214a2.522 2.522 0 0 0-.2-.492.293.293 0 0 0-.288-.17.964.964 0 0 0-.336.186l-.646.643a13.972 13.972 0 0 1-1.038 1.108 4.172 4.172 0 0 0-.574.598c-.252.257-.464.51-.677.762-.358.383-.677.762-.996 1.144-.213.253-.425.506-.64.72a8.037 8.037 0 0 0-.924 1.06l-.496.591c-.539.556-1.07 1.19-1.606 1.784-.896.94-1.708 1.95-2.604 2.889-1.073 1.15-2.056 2.449-3.171 3.564-.216.22-.39.464-.606.679a25.35 25.35 0 0 0-1.886 2.199c-.854.977-1.54 2.09-2.436 3.03-.035.042-.11.088-.141.169a5.998 5.998 0 0 1-.596.796 14.994 14.994 0 0 0-.947 1.256c-.245.335-.45.666-.734 1.004a5.645 5.645 0 0 0-.6.754c-.489.67-.94 1.335-1.39 2a2.147 2.147 0 0 0-.302.575.894.894 0 0 0-.017.703 2.718 2.718 0 0 1 .298.718 1.064 1.064 0 0 0 .316.481 1.15 1.15 0 0 0 1.5.143c.038-.003.073-.046.112-.049q1.066-.563 2.122-1.242a34.817 34.817 0 0 1 3.227-2.036 11.396 11.396 0 0 1 1.955-.914c.036-.043.074-.046.152-.053.152-.052.243.096.257.252a1.172 1.172 0 0 1-.196.447c-.16.406-.363.776-.562 1.184a1.334 1.334 0 0 0-.124.872 7.806 7.806 0 0 0 .237.919.712.712 0 0 0 .59.496c.16.025.315.012.296.248.007.078.124.067.201.06a1.836 1.836 0 0 0 .652-.21c1.35-.627 2.62-1.365 3.932-2.027A30.054 30.054 0 0 1 93.42 33.5a51.688 51.688 0 0 0 2.573-1.008c.23-.059.226-.098.124-.363a.554.554 0 0 1 .058-.24c.057-.24.043-.395-.16-.494a1.157 1.157 0 0 0-.607-.221c-.149.091-.34.147-.316.419-.032.08-.145.13-.258.179l-.95.318a52.14 52.14 0 0 0-2.839 1.109 3.248 3.248 0 0 1-.569.206 3.222 3.222 0 0 1 .481-.316 2.016 2.016 0 0 0 .485-.277 5.687 5.687 0 0 0-1.655.77 3.009 3.009 0 0 1 .576-.128 4.518 4.518 0 0 1-1.499.757.81.81 0 0 1-.449.24.685.685 0 0 1 .138-.213 1.584 1.584 0 0 0-.71.376l.31-.027a1.45 1.45 0 0 1-.707.414 3.414 3.414 0 0 1-.97.554c-.038.004-.041-.035-.08-.032-.004-.038.032-.08.028-.12.075-.045.11-.087.184-.133a1.536 1.536 0 0 0 .527-.247 1.139 1.139 0 0 0-.527.247c-.084-.07-.13-.145-.02-.233a.784.784 0 0 1 .297-.182c1.273-.66 2.543-1.357 3.858-1.981a31.778 31.778 0 0 1 4.05-1.567 3.412 3.412 0 0 1 .615-.132l.142-.169c.184-.134.131-.285.008-.353-.212-.182-.331-.206-.554-.069a4.28 4.28 0 0 1-1.322.546 7.242 7.242 0 0 0-1.59.609 4.372 4.372 0 0 1-.488.238 8.358 8.358 0 0 0-2.037.88 34.96 34.96 0 0 1-2.018 1.08c-.262.14-.385.072-.451-.235l-.017-.194c-.032.081-.107.127-.178.211-.035.042-.106.127-.148.091-.081-.032-.05-.113-.017-.194.099-.21.165-.406.263-.57a1.173 1.173 0 0 0-.08-1.363 8.25 8.25 0 0 0-.498-.779 1.24 1.24 0 0 0-1.022-.497 1.9 1.9 0 0 0-.463.08 14.371 14.371 0 0 0-2.463.917c-.113.049-.22.176-.332.23a2.385 2.385 0 0 1-.449.24 7.788 7.788 0 0 0-1.68.929 1.12 1.12 0 0 1-1.067.328 3.148 3.148 0 0 1 .986-1.26l.106-.127-.039.003.107-.126c.17-.289.305-.536.514-.828.773-1.007 1.546-2.013 2.358-3.023a7.997 7.997 0 0 1 1.211-1.366 2.599 2.599 0 0 1 .886-1.055l.107-.127.003.039a.614.614 0 0 1 .248-.296 1.7 1.7 0 0 1 .258-.179l-.01-.117a1.15 1.15 0 0 1 .5-.553c.22-.176.23-.49.454-.626.035-.043.11-.088.145-.13l.322-.342a7.238 7.238 0 0 1 1.035-1.147l.415-.623a.614.614 0 0 1 .248-.296 1.622 1.622 0 0 0 .677-.761.776.776 0 0 1 .27-.493c.071-.085.1-.205.17-.29a4.18 4.18 0 0 1 1.035-1.146c.036-.042.081.032.127.106a2.38 2.38 0 0 0 .67-.841c-.035.042-.07.084-.11.088l-.116.01-.007-.078a3.15 3.15 0 0 1 .567-.675.146.146 0 0 1 .233-.02c.149-.092.375-.19.358-.384a.553.553 0 0 1 .224-.568 95.272 95.272 0 0 1 1.91-2.319 3.367 3.367 0 0 0 .5-.552c.348-.5.78-.93 1.17-1.394a.92.92 0 0 1 .33-.264 3.499 3.499 0 0 1 1.208-1.397l-.04.004a8.563 8.563 0 0 0 .484-.745 5.732 5.732 0 0 0 .344-.539.67.67 0 0 0 .036-.48Zm-1.8 3.131-.007-.078-.078.007a.3.3 0 0 1-.148.091l.017.195a1.034 1.034 0 0 0 .216-.215Zm-5.292 6.176c.04-.004.075-.046.11-.088-.039.003-.074.046-.11.088Zm-5.807 4.734a.907.907 0 0 1-.439.351 2.272 2.272 0 0 1 .825-.894 2.684 2.684 0 0 1-.387.543Zm-3.398 6.362-.11.088.004.039Zm-2.515.768-.075.006-.003-.038a.466.466 0 0 1 .245-.292.536.536 0 0 1-.167.324Zm2.832 2.413a11.226 11.226 0 0 1 1.891-.752 1.252 1.252 0 0 1 .54-.086c.078-.007.085.07.13.145.008.078-.028.12-.102.166a.3.3 0 0 1-.188.094 30.846 30.846 0 0 0-5.767 2.97 1.791 1.791 0 0 1-.597.326c.032-.081.025-.159.057-.24a3.055 3.055 0 0 1-.785.42l-.039.004-.003-.039a1.065 1.065 0 0 1 .435-.39 50.63 50.63 0 0 1 4.428-2.618Zm-2.745-.073-.078.007.007.078Zm-.068.124-.003-.04-.036.043Zm3.513-.107a1.139 1.139 0 0 0 .343-.108c-.114.044-.23.054-.344.103Zm-1.124.568a.554.554 0 0 0-.227.098l.004.04.035-.043Zm2.48.175A21.257 21.257 0 0 0 80.61 34.7l-2.745 1.722a4.224 4.224 0 0 1-.71.376.554.554 0 0 1-.227.098.084.084 0 0 1-.084-.071c-.04.003-.007-.078-.007-.078l.258-.18a31.437 31.437 0 0 0 3.081-1.912 23.628 23.628 0 0 1 4.374-2.339 2.05 2.05 0 0 1 .647-.213.1.1 0 0 1 .127.107c-.036.042-.032.08-.071.084-.113.048-.223.137-.336.186Zm-3.193.2-.223.137c-.078.007-.113.05-.187.095.074-.046.152-.052.226-.098a.852.852 0 0 1 .185-.139Zm12.748-.996a.121.121 0 0 1 .075-.046l-.078.007Zm-.113.05.04-.004a.121.121 0 0 1 .073-.046l-.077.007c-.037-.002-.076.002-.034.04Zm-1.141.373c.152-.053.265-.102.417-.154Zm-.72.258a.735.735 0 0 0 .303-.104Zm-.418.154a.889.889 0 0 0 .417-.154Zm-.64.291a1.358 1.358 0 0 0 .64-.29 1.92 1.92 0 0 0-.638.285Zm-5.461 3.76c1.393-.631 2.733-1.413 4.12-2.122a41.854 41.854 0 0 1 5.131-2.13.424.424 0 0 1 .196-.057.2.2 0 0 1 .162.064.084.084 0 0 1-.07.085.866.866 0 0 1-.411.231c-.908.353-1.859.671-2.764 1.063a23.615 23.615 0 0 0-2.821 1.303c-1.086.565-2.125 1.204-3.257 1.69a.3.3 0 0 1-.187.094c-.152.053-.259.18-.42.115-.125-.063.02-.193.32-.337Zm-6.332-2.656a.554.554 0 0 0 .226-.098c-.079.046-.157.052-.226.098Zm0 0a.853.853 0 0 1-.189.134l.223-.137Zm-.189.134-.223.136a.853.853 0 0 1-.189.134l.223-.137a.853.853 0 0 1 .19-.133Zm-.633.368a.554.554 0 0 0 .226-.098c-.074.046-.152.052-.226.098Zm10.964-.84a1.366 1.366 0 0 0-.523.28 1.366 1.366 0 0 0 .521-.28Zm-12.14 1.723a2.569 2.569 0 0 1 .896-.508 2.314 2.314 0 0 1-.849.622.121.121 0 0 1-.081-.032s-.004-.078.035-.082Zm10.904-1.07.31-.027.44-.351a1.385 1.385 0 0 0-.75.38Zm-1.418.79.31-.028a4.142 4.142 0 0 1 .398-.382 2.01 2.01 0 0 0-.747.418Zm23.789-4.975a.415.415 0 0 0-.048-.544c-.123-.067-.137-.223-.186-.336-.101-.265-.224-.332-.486-.192l-.41.236a.7.7 0 0 1-.456.158 4.398 4.398 0 0 0-.687.177 2.28 2.28 0 0 1-.73.142 9.558 9.558 0 0 0-1.043.17l-2.203.31a13.182 13.182 0 0 1-1.751.113 8.638 8.638 0 0 1-4.462-.901c-.246-.135-.363-.125-.533.164s-.478.355-.779.498l-.08.007-.127-.106a.143.143 0 0 1 .029-.12c-.004-.039.035-.042.074-.046.07-.084.226-.098.216-.214-.007-.078-.169-.142-.32-.09a1.282 1.282 0 0 0-.75.38 9.274 9.274 0 0 0-1.448 1.808 2.53 2.53 0 0 0-.408 1.601 11.114 11.114 0 0 0 .215 1.116 2.234 2.234 0 0 0 2.795 1.511 5.112 5.112 0 0 0 1.758-.936c.148-.091.413-.193.195-.448-.038.004-.006-.077.029-.12.28-.376.6-.754.84-1.13a5.206 5.206 0 0 0 .211-.72c.132-.286.245-.335.56-.323.08.032.197.022.317.05a11.04 11.04 0 0 0 1.58.175 7.197 7.197 0 0 0 2.415-.132c.694-.1 1.427-.242 2.126-.304a4.588 4.588 0 0 0 1.975-.68 6.43 6.43 0 0 1 1.34-.744c.196-.056.378-.15.235-.451Zm-7.242.868c.85-.114 1.698-.266 2.553-.34.657-.097 1.31-.233 1.963-.368a3.26 3.26 0 0 0 1.177-.416 1.688 1.688 0 0 1 .191-.056c.035-.042.113-.049.116-.01.046.074.01.116-.028.12a2.2 2.2 0 0 1-.453.196 1.13 1.13 0 0 0-.552.4c-.067.124-.145.13-.258.18a1.385 1.385 0 0 1-.382.111c-.928.12-1.85.318-2.824.364a.385.385 0 0 1-.24-.057l1.087-.095a.3.3 0 0 0-.32-.09l-1.636.143c-.155.014-.353-.008-.547.01a.156.156 0 0 1 .153-.086Zm-4.84 1.05c-.07.085-.099.205-.17.29a3.862 3.862 0 0 1-1.294 1.324 2.243 2.243 0 0 1-1.3.348c-.233.02-.282-.093-.264-.33a4.321 4.321 0 0 1 .285-.768c.071-.084.026-.158-.052-.152a1.642 1.642 0 0 1 .727-1.08l.436-.39a2.163 2.163 0 0 1 .29-.261.439.439 0 0 1 .628.023l.647.687a.294.294 0 0 1 .068.31Zm9.38-1.484-.042-.036a.136.136 0 0 0-.074.046l.039-.004Zm-.808.149-.622.054.004.039.62-.055Zm2.07.406a4.024 4.024 0 0 1-1.856.71c-.928.12-1.854.28-2.786.36a3.099 3.099 0 0 1-.857.036c-.117.01-.272.024-.36-.086a.989.989 0 0 1 .46-.118c1.048-.092 2.05-.258 3.096-.388.385-.073.77-.146 1.151-.257a3.717 3.717 0 0 0 1.018-.441c.188-.095.365-.306.608-.21-.1.204-.33.26-.474.394Zm-9.256 2.452a.554.554 0 0 1 .057-.24l-.077.007Zm-.071.085.003.038c-.003-.038.032-.08.068-.123-.035.045-.074.049-.071.085Zm-3.194 1.061a.143.143 0 0 1-.12-.028c-.04.003-.078.006-.085-.071-.003-.04-.007-.078.032-.081a4.271 4.271 0 0 1 .99-.322 2.976 2.976 0 0 1-.4.348l.275-.024a.038.038 0 0 1 .043.036l.003.039a.756.756 0 0 1-.687.177.136.136 0 0 1-.051-.074Zm1.53.493a.809.809 0 0 1-.368.267 2.459 2.459 0 0 1-.837.274l-.078.006c-.042-.035-.081-.032-.084-.07s-.007-.078.032-.082l.11-.088c.339-.147.643-.251.943-.395a.5.5 0 0 0 .23-.06s.08.033.084.072c0-.005.007.072-.032.076Zm29.011-5.666c-1.798 1.37-3.729 2.557-5.53 3.888a7.455 7.455 0 0 1-1.189.73 4.605 4.605 0 0 1-1.176.416c-.04.003-.12-.029-.124-.068a.136.136 0 0 1 .032-.08 4.373 4.373 0 0 1 .485-.237 7.81 7.81 0 0 0 1.495-.796c.591-.403 1.185-.768 1.773-1.211a65.174 65.174 0 0 1 2.622-1.794c.516-.359 1.068-.76 1.624-1.12a3.373 3.373 0 0 0 .364-.306.337.337 0 0 0 .096-.244.247.247 0 0 0-.25-.174.664.664 0 0 0-.268.063c-.192.095-.336.186-.523.28l-2.109 1.398a1.6 1.6 0 0 1-.636.33 3.51 3.51 0 0 1-1.253.892l.096-.244a1.112 1.112 0 0 0-.516.359l.417-.154a.47.47 0 0 1-.178.21c-.697.531-1.394 1.062-2.137 1.518a3.55 3.55 0 0 1-1.763.428.136.136 0 0 1-.045-.074.121.121 0 0 1 .032-.081l.187-.095a12.428 12.428 0 0 0 2.652-1.445c.482-.316.96-.67 1.437-1.028a40.591 40.591 0 0 1 3.849-2.528.852.852 0 0 0 .184-.134c.074-.045.145-.13.1-.204-.01-.116-.092-.148-.213-.138a1.07 1.07 0 0 0-.498.122 15.104 15.104 0 0 0-2.42 1.424c-.778.499-1.472 1.068-2.25 1.567a.816.816 0 0 0-.22.175 9.115 9.115 0 0 1-1.627 1.082 6.22 6.22 0 0 0-.862.467.7.7 0 0 1-.628-.024c-.081-.032-.13-.145-.056-.19a1.881 1.881 0 0 0 .508-.906c.224-.567.41-1.131.676-1.665a.48.48 0 0 0 .128-.324.736.736 0 0 1 .345-.539 3.807 3.807 0 0 0 .599-.754.305.305 0 0 0-.037-.428c-.201-.06-.286-.131-.225-.332a.447.447 0 0 0-.235-.45.922.922 0 0 1-.471-.467.559.559 0 0 0-.84-.2.694.694 0 0 0-.244.334 1.76 1.76 0 0 1-.748.848c-.66.488-1.32.976-1.943 1.5a5.889 5.889 0 0 1-.667.41 24.903 24.903 0 0 0-2.242 1.214 3.565 3.565 0 0 1-.52.32 1.26 1.26 0 0 1-.65.174.3.3 0 0 1-.299-.287 3.46 3.46 0 0 1 .203-1.27.623.623 0 0 0-.276-.915l-.127-.107a.414.414 0 0 0-.511-.033 1.587 1.587 0 0 0-.503.513 5.353 5.353 0 0 0-.737 1.904 2.88 2.88 0 0 0 .071.816 3.85 3.85 0 0 0 .561 1.046 1.412 1.412 0 0 0 1.58.606 5.698 5.698 0 0 0 1.363-.471 5.523 5.523 0 0 0 .67-.372c.785-.42 1.57-.84 2.351-1.301.078-.007.114-.05.188-.095a.208.208 0 0 1 .29.176.664.664 0 0 1-.016.275 1.139 1.139 0 0 1-.047.356 3.62 3.62 0 0 0 .744 2.243 1.95 1.95 0 0 0 1.967.572 4.61 4.61 0 0 0 1.723-.703c1.001-.635 1.921-1.303 2.88-1.973 1.069-.759 2.178-1.482 3.287-2.244.293-.226.548-.44.807-.619a1.067 1.067 0 0 0 .138-.212 1.85 1.85 0 0 0-.715.38Zm-9.706-.913-.248.296-.223.137.233-.02a1.881 1.881 0 0 1-.804.657 2.511 2.511 0 0 1-.74.495c-.632.368-1.265.736-1.902 1.069a2.2 2.2 0 0 1-.452.196.932.932 0 0 1-.527.242.932.932 0 0 1-.526.241l-.301.144-.01-.116-.573.167c.004.039-.038.003-.08-.032a.136.136 0 0 0 .031-.081l.188-.095a42.713 42.713 0 0 0 2.956-1.55 12.095 12.095 0 0 0 2.112-1.358l.778-.498c-.003-.04.074-.046.078-.007a.073.073 0 0 1 .01.113Zm-6.568.496c-.038.003-.038.003-.035.042-.003-.039-.007-.078.032-.081Zm15.504-.338.189-.134a.853.853 0 0 0-.19.134Zm-.45.235a.554.554 0 0 1 .227-.098l.223-.137a.554.554 0 0 1-.226.098Zm-.364.305-.039.004-.035.042c.035-.041.035-.041.074-.045Zm-.113.05.039-.004Zm.003.038-.003-.039-.223.137c.075-.044.152-.051.227-.097Zm-.226.098-.184.134a.852.852 0 0 0 .184-.133Zm-.63.408.223-.137a.554.554 0 0 1-.226.098c.004.039-.035.042-.032.08a.038.038 0 0 1 .036-.04Zm-8.07.783a.663.663 0 0 1-.369.267c-.52.32-1.079.642-1.64.926l-2.027.999a1.836 1.836 0 0 1-.646.213c-.04.003-.078.007-.081-.032-.043-.036-.007-.078.032-.081a1.9 1.9 0 0 1 .413-.193 46.018 46.018 0 0 0 3.851-2.058 1.9 1.9 0 0 1 .414-.193.136.136 0 0 0 .08.032.143.143 0 0 1-.024.12Zm8.035-.741a.977.977 0 0 0-.258.179.978.978 0 0 0 .258-.178Zm-.663.449a1.112 1.112 0 0 0-.517.358l.456-.157-.039.003a.852.852 0 0 1 .098-.203Zm-.478.355-.039.003a.852.852 0 0 1-.184.134Zm-.223.137a.849.849 0 0 0-.293.221.849.849 0 0 0 .291-.22Zm-4.994 1.062.039-.003.003.043c.004.039-.035.042-.038.003Zm3.961-.346-.184.134a.853.853 0 0 0 .182-.133Zm-.184.134a.849.849 0 0 0-.293.226 1.367 1.367 0 0 0 .291-.225Zm-.29.26-.003-.038-.223.137c.072-.046.15-.052.224-.098Zm-.927.59.187-.095c-.08.008-.115.05-.189.096Zm-.407.27a.852.852 0 0 0 .184-.134Zm23.227-4.22c-1.539.76-3.081 1.482-4.53 2.352-.597.327-1.195.653-1.79 1.018-1.152.687-2.263 1.41-3.416 2.098-.078.007-.113.05-.152.053a.143.143 0 0 1-.12-.029s-.007-.078.032-.08c.33-.264.66-.489.994-.714 1.857-1.14 3.679-2.239 5.585-3.266 1.082-.604 2.209-1.133 3.338-1.662a3.799 3.799 0 0 0 .41-.231.246.246 0 0 0 .09-.321.214.214 0 0 0-.247-.135 1.675 1.675 0 0 0-.46.118l-1.696.736a3.099 3.099 0 0 1-.834.307.685.685 0 0 1 .138-.212 2.97 2.97 0 0 0-.757.3c-.559.323-1.16.61-1.718.933a5.582 5.582 0 0 0-.775.538l.31-.028-.183.134c-.075.046-.12-.029-.127-.106a2.959 2.959 0 0 0-.677.293 2.1 2.1 0 0 1-.788.382 1.8 1.8 0 0 1 .552-.4c.633-.368 1.227-.733 1.863-1.066a27.19 27.19 0 0 1 4.695-2.25c.036-.042.113-.048.149-.09.074-.046.11-.088.103-.166a.3.3 0 0 0-.17-.142.544.544 0 0 0-.426.037l-.611.171a14.316 14.316 0 0 0-2.754 1.18 19.645 19.645 0 0 1-2.352 1.301c-.074.046-.184.134-.258.18l-1.23.694c-.075.045-.193.095-.276-.015a.236.236 0 0 1-.027-.31l.202-.37c.032-.082.103-.166.015-.276a3.514 3.514 0 0 0-.315.419 1.311 1.311 0 0 1 .437-.821l.116-.01a4.672 4.672 0 0 0 .387-.504.312.312 0 0 0 .04-.434c-.052-.152-.179-.258-.115-.42a.524.524 0 0 0-.32-.52.553.553 0 0 1-.319-.52.433.433 0 0 0-.613-.299l-.258.18a20.792 20.792 0 0 0-1.876 1.377.358.358 0 0 1-.219.175.57.57 0 0 1-.677-.136l-.264-.33a1.914 1.914 0 0 0-1.158-.72 4.011 4.011 0 0 0-2.143.109 6.76 6.76 0 0 0-2.335 1.495 13.337 13.337 0 0 0-1.527 1.777 2.031 2.031 0 0 0-.287 2.1c.046.074.056.19.105.303a1.746 1.746 0 0 0 1.461 1.047 2.392 2.392 0 0 0 1.275-.19 22.091 22.091 0 0 0 4.32-2.06l.708-.414c.074-.046.148-.091.233-.02a1.368 1.368 0 0 0-.167.327 3.954 3.954 0 0 1-.533 1.064 3.629 3.629 0 0 1-1.578 1.672.2.2 0 0 0-.149.092c-.764.653-1.656 1.2-2.375 1.929-.435.39-.838.739-1.274 1.09a13.129 13.129 0 0 1-1.133.92c-.22.176-.397.387-.616.563a34.239 34.239 0 0 1-1.65 1.71c-.398.386-.79.812-1.149 1.196-.106.126-.216.214-.244.334a2.278 2.278 0 0 1-.458.588 12.462 12.462 0 0 0-.963 1.062 20.292 20.292 0 0 0-1.292 1.796c-.418.584-.797 1.205-1.21 1.828a11.579 11.579 0 0 0-1.002 1.966 2.62 2.62 0 0 1-.192.486 13.238 13.238 0 0 0-.84 2.03 3.799 3.799 0 0 0-.236.882 1.804 1.804 0 0 0 .44 1.448c.133.184.263.33.354.478a1.806 1.806 0 0 0 2.579.4 13.758 13.758 0 0 0 1.171-.923c.79-.813 1.62-1.629 2.364-2.515a32.308 32.308 0 0 0 3.699-5.14l1.54-2.521c.44-.782.92-1.568 1.364-2.31.099-.21.199-.41.302-.575a.25.25 0 0 1-.07-.346.92.92 0 0 1 .323-.341.773.773 0 0 0 .39-.465c-.075.046-.107.127-.186.173a.143.143 0 0 1-.12-.029l-.006-.075a1.05 1.05 0 0 1 .287-.3l.02.234a.818.818 0 0 0 .273-.455l-.189.134c.032-.08.026-.159.096-.243.032-.081.114-.05.2-.017a3.299 3.299 0 0 0 .479-.786 2.316 2.316 0 0 0-.4.348c.292-.69.292-.69.73-1.042a1.106 1.106 0 0 0 .358-.384 3.252 3.252 0 0 0 .27-.493 3.572 3.572 0 0 1 .623-.915 7.006 7.006 0 0 0 .712-.806 1.956 1.956 0 0 1 .535-.594c.258-.18.555-.362.856-.545l2.897-1.78a69.707 69.707 0 0 1 6.503-3.502c.187-.095.381-.112.48-.316-.2-.1-.38.072-.571.128Zm-16.015-.557a3.505 3.505 0 0 1 1.587-.648 1.515 1.515 0 0 1 .59.027 1.957 1.957 0 0 0-.46.118c-.113.05-.272.024-.29.26a.4.4 0 0 1-.152.053 4.375 4.375 0 0 1-.984.399l-.01-.117c-.078.007-.152.053-.23.06a.136.136 0 0 1-.08-.032c-.045-.075-.01-.117.029-.12Zm.466-.041a.852.852 0 0 1-.184.133l.223-.137Zm6.16-.264c.042.035-.032.08-.071.084a.554.554 0 0 1-.226.098c.035-.042.11-.088.18-.172.04-.004.075-.046.117-.01Zm-.332.23a.659.659 0 0 1-.061.2l-.228.02a.69.69 0 0 1 .288-.226Zm-5.928 1.138a3.147 3.147 0 0 1 1.77-.78c.04-.004.117-.01.12.028.007.078-.07.085-.144.13a9.396 9.396 0 0 0-1.694.774c-.074.046-.196.057-.265.102.072-.085.14-.208.213-.254Zm-1.217 1.75a7.631 7.631 0 0 1 1.516-1.463 2.685 2.685 0 0 1 1.59-.608l.2-.018a3.725 3.725 0 0 1 .931-.081c.078-.007.16.025.237.018a.205.205 0 0 1 .108.343 1.034 1.034 0 0 1-.216.22 13.858 13.858 0 0 1-2.351 1.3c-.34.148-.637.33-.976.477a3.152 3.152 0 0 1-.83.347.3.3 0 0 1-.283-.093.236.236 0 0 1 .012-.314c.034-.047.066-.089.063-.128Zm15.374-2.794a1.139 1.139 0 0 0 .343-.108c-.116.052-.233.062-.343.108Zm-.3.144c.113-.05.187-.095.3-.144Zm-.524.28c-.113.05-.196.056-.304.105l-.035.042.039-.003Zm-15.045 3.823-.004-.038c.04-.004.075-.046.114-.05l.192-.095a21.732 21.732 0 0 0 3.988-1.835 4.484 4.484 0 0 1 .64-.29 1.435 1.435 0 0 1 .7-.492 1.214 1.214 0 0 1-.7.491 2.522 2.522 0 0 0-.28.377l.6-.287a1.106 1.106 0 0 1-.4.348 18.306 18.306 0 0 1-3.257 1.689 2.207 2.207 0 0 1-.687.177.136.136 0 0 1-.074.046l-.078.007c.04-.004.036-.042.075-.046l.077-.007a2.162 2.162 0 0 0 .29-.26l-1.105.332a.084.084 0 0 1-.094-.067Zm.77-1.515c.04-.003.075-.046.11-.088Zm3.877-.417a.554.554 0 0 0-.226.098.554.554 0 0 0 .22-.098Zm1.549.256a5.645 5.645 0 0 1-1.401.983 18.569 18.569 0 0 1-3.345 1.584c-.304.105-.572.167-.802.227l-.233.02c-.042-.035-.08-.032-.084-.07-.039.003-.007-.079.032-.082.035-.042.113-.049.187-.095a23.191 23.191 0 0 0 5.513-2.676c.149-.09.213-.253.414-.192-.029.159-.177.213-.287.3Zm-5.426.161-.106.127.039-.004c-.01-.039.026-.081.061-.123ZM131 30.45a.853.853 0 0 0-.184.134Zm-.859.506a1.2 1.2 0 0 0 .45-.235 2.385 2.385 0 0 0-.453.234Zm0 0-.08.007a.853.853 0 0 1-.19.134.659.659 0 0 1 .193-.096c.039-.004.035-.043.074-.046Zm-1.089.525.003.034.3-.144c-.115.054-.231.064-.306.11Zm-.865.428.038-.003a2.685 2.685 0 0 1 .3-.144Zm8.155-.713a.963.963 0 0 1-.336.186.964.964 0 0 1 .336-.187Zm-.57.637a2.063 2.063 0 0 1 .778-.498c-.21.291-.21.291-.778.496Zm-6.604 4.137a2.153 2.153 0 0 1 1.065-.795 2.639 2.639 0 0 1-1.065.795Zm-.365.306a.7.7 0 0 1 .255-.218.45.45 0 0 1-.255.218Zm-.344.54a1.384 1.384 0 0 1-.336.185c-.149.091-.34.147-.527.242a2.145 2.145 0 0 1 .687-.647.174.174 0 0 1 .2-.018c.075.033.047.153-.024.237Zm-.883 1.994a2.651 2.651 0 0 1 1.055-.914 3.023 3.023 0 0 1-1.055.914Zm.235.449c-.028.12-.135.246-.008.353a3.399 3.399 0 0 1-.569 1.106c-.209.292-.373.659-.578.99-.27.493-.543.95-.856 1.405a11.038 11.038 0 0 0-.682 1.155.852.852 0 0 1-.1.205c-.733 1.003-1.305 2.07-2.038 3.074a14.248 14.248 0 0 1-.827 1.285 2.156 2.156 0 0 1-.503.514 1.185 1.185 0 0 0-.422.545 1.6 1.6 0 0 1-.567.676 6.363 6.363 0 0 0-.72.728c-.464.51-.973.946-1.48 1.42-.11.089-.256.219-.414.194-.195.017-.28-.054-.257-.252a.659.659 0 0 1 .06-.2 13.383 13.383 0 0 1 1.194-2.884c.376-.62.745-1.317 1.157-1.98a34.768 34.768 0 0 1 5.02-6.151c.757-.732 1.596-1.431 2.393-2.166l.11-.088.078-.007Zm-2.782.4.116-.01a.143.143 0 0 1-.029.12 1.163 1.163 0 0 1-.51.435 1.908 1.908 0 0 1 .423-.546Zm1.75-.114.004.038-.078.007a.136.136 0 0 0 .074-.05Zm-.477.354c.113-.049.223-.136.336-.185a10.419 10.419 0 0 1-1.29 1.325 9.375 9.375 0 0 0-.86.897 6.203 6.203 0 0 1-.864.858c-.29.26-.539.556-.79.813a2.176 2.176 0 0 1-.293.226c-.014-.155.057-.24.163-.366.574-.598 1.064-1.267 1.676-1.868a20.143 20.143 0 0 1 1.922-1.7Zm-7.083 6.724a3.142 3.142 0 0 1 .87-1.25 2.1 2.1 0 0 1 .659-.96c.039-.004.074-.046.11-.088.054-.28.273-.455.37-.698l.106-.127a3.699 3.699 0 0 1 .556-.792l.117-.01a10.634 10.634 0 0 0 1.112-1.154l.107-.127-.117.01.106-.126a1.526 1.526 0 0 1 .362-.345.7.7 0 0 0 .329-.263l.194-.017a1.7 1.7 0 0 1-.457.588 5.698 5.698 0 0 1-.684.685c-.61.64-1.173 1.355-1.74 2.03a1.526 1.526 0 0 1-.361.346c-.036.042-.071.084-.068.123a2.344 2.344 0 0 1-.702.922 3.48 3.48 0 0 1-.869 1.25.849.849 0 0 1-.172.328.849.849 0 0 1 .172-.325Zm9.012-6.149c-.004-.038-.007-.077.032-.08l.038-.004Zm1.216.481c.038-.003.074-.045.11-.088l-.036.003Zm-1.714.541-1.228 2.025a.854.854 0 0 1-.358.384.832.832 0 0 1 .231-.49c.383-.542.679-1.194 1.058-1.775.103-.166.164-.367.351-.462a.376.376 0 0 1-.054.318Zm.053 1.952c-.039.004-.035.043-.074.046-.004-.039-.004-.039.032-.081-.004-.039.035-.042.039-.004Zm-1.842.864a.45.45 0 0 1 .17-.29.7.7 0 0 1-.17.292Zm-3.855.22c-.245.334-.493.63-.699.963a.119.119 0 0 1-.155.014c-.003-.04-.049-.113-.013-.156a1.038 1.038 0 0 1 .35-.46 1.823 1.823 0 0 1 .517-.36Zm5.118-.096c.003.039.007.078-.032.081l-.213.254a.743.743 0 0 1 .166-.406l.077-.007a.054.054 0 0 1 .002.08Zm-2.222 1.446a.939.939 0 0 1 .206-.33 1.461 1.461 0 0 1 .55-.87 2.092 2.092 0 0 1-.55.87.607.607 0 0 1-.205.332Zm.923.703c-.277.415-.515.827-.791 1.282a32.287 32.287 0 0 1-2.635 3.44 34.712 34.712 0 0 1-2.001 2.172c-.436.39-.872.778-1.306 1.131l-.446.274a.143.143 0 0 1-.12-.029l-.007-.077.213-.254a25.79 25.79 0 0 0 3.889-3.862 12.603 12.603 0 0 0 1.365-1.84l1.011-1.42c.138-.207.351-.46.486-.707a1.572 1.572 0 0 1 .643-.683 1.635 1.635 0 0 1-.302.575Zm-2.745 1.726a2.684 2.684 0 0 1 .383-.542l.106-.126a.143.143 0 0 1 .029-.12 11.967 11.967 0 0 0 .925-1.06.606.606 0 0 1 .206-.33.607.607 0 0 1-.206.33 5.03 5.03 0 0 1-.959 1.571.629.629 0 0 1-.484.28Zm-5.172.374a2.032 2.032 0 0 1 .681-1.155.694.694 0 0 1 .274-.455.88.88 0 0 1-.274.455 3.515 3.515 0 0 1-.681 1.155 1.632 1.632 0 0 1-.373.659 1.018 1.018 0 0 1 .373-.657Zm2.247-1.601c-.036.042-.029.12-.06.2-.036.043-.065.163-.181.173-.078.007-.01-.116.096-.243Zm-1.877 6.738-.3.144c-.04.003-.081-.032-.12-.029l-.01-.116.29-.26a25.403 25.403 0 0 0 3.914-4.02 6.233 6.233 0 0 1 .922-1.099 3.056 3.056 0 0 0-.152.561l.078-.007c-.036.043-.032.082-.068.124l-.116.01a1.187 1.187 0 0 0-.284.338c.091.148.091.148-.09.32l-.105.127-.107.127-.067.123a2.234 2.234 0 0 1-.39.465l-.107.127a17.411 17.411 0 0 1-1.562 1.819c-.433.429-.907.823-1.381 1.216l-.262.14c-.073.005-.076-.034-.083-.11Zm.549-4.47.003.04a.85.85 0 0 0-.18.171l.099-.209c.035-.04.035-.04.078-.004Zm-1.484.482c-.091-.148.064-.162.135-.246-.032.079-.061.196-.135.244Zm1.21-.027a.887.887 0 0 1-.192.486.763.763 0 0 1 .192-.488Zm-1.48.52-.004-.038.043.035Zm.347 2.631-.039.004-.003-.04c.035-.042.035-.042.077-.006Zm47.67-50.538a2.522 2.522 0 0 0-.199-.491.293.293 0 0 0-.288-.17.963.963 0 0 0-.336.185l-.647.643a13.97 13.97 0 0 1-1.038 1.109 4.172 4.172 0 0 0-.573.598c-.252.256-.465.51-.677.761-.358.384-.677.762-.996 1.144-.213.253-.426.507-.64.72a8.038 8.038 0 0 0-.925 1.06l-.496.591c-.538.556-1.07 1.19-1.605 1.784-.896.94-1.708 1.95-2.604 2.889-1.074 1.15-2.056 2.45-3.172 3.564-.215.22-.39.465-.606.68a25.353 25.353 0 0 0-1.882 2.199c-.853.977-1.539 2.09-2.435 3.03-.035.042-.11.088-.142.169a5.992 5.992 0 0 1-.596.795 15 15 0 0 0-.946 1.257c-.245.335-.45.666-.734 1.003a5.646 5.646 0 0 0-.6.755c-.49.67-.94 1.335-1.39 2a2.147 2.147 0 0 0-.302.574.894.894 0 0 0-.017.704 2.717 2.717 0 0 1 .297.718 1.064 1.064 0 0 0 .316.48 1.15 1.15 0 0 0 1.5.144c.039-.004.074-.046.113-.05q1.066-.562 2.122-1.241a34.819 34.819 0 0 1 3.226-2.043 11.396 11.396 0 0 1 1.955-.914c.036-.043.075-.046.152-.053.152-.052.243.096.257.252a1.172 1.172 0 0 1-.196.447c-.165.406-.362.775-.562 1.184a1.334 1.334 0 0 0-.12.872 7.809 7.809 0 0 0 .238.918.712.712 0 0 0 .59.496c.16.026.315.012.297.248.006.078.123.068.205.06a1.836 1.836 0 0 0 .647-.212c1.35-.627 2.62-1.364 3.937-2.027a30.054 30.054 0 0 1 3.464-1.555 51.688 51.688 0 0 0 2.574-1.008c.23-.059.226-.098.124-.363a.554.554 0 0 1 .058-.24c.057-.24.043-.395-.161-.494a1.157 1.157 0 0 0-.606-.221c-.149.091-.34.147-.316.419-.032.08-.145.13-.258.179l-.95.318a52.14 52.14 0 0 0-2.839 1.109 3.248 3.248 0 0 1-.569.206 3.222 3.222 0 0 1 .481-.316 2.016 2.016 0 0 0 .485-.277 5.687 5.687 0 0 0-1.655.77 3.01 3.01 0 0 1 .576-.128 4.518 4.518 0 0 1-1.5.757.81.81 0 0 1-.448.24.685.685 0 0 1 .138-.213 1.584 1.584 0 0 0-.71.375l.31-.027a1.45 1.45 0 0 1-.707.414 3.413 3.413 0 0 1-.97.555c-.038.003-.042-.036-.08-.033-.004-.038.032-.08.028-.12.075-.045.11-.087.184-.133a1.536 1.536 0 0 0 .527-.247 1.139 1.139 0 0 0-.527.247c-.084-.07-.13-.145-.02-.233a.784.784 0 0 1 .297-.182c1.273-.66 2.543-1.357 3.858-1.981a31.778 31.778 0 0 1 4.05-1.567 3.413 3.413 0 0 1 .615-.132l.142-.169c.184-.134.131-.285.008-.353-.212-.182-.331-.206-.554-.069a4.28 4.28 0 0 1-1.322.546 7.243 7.243 0 0 0-1.608.613 4.371 4.371 0 0 1-.488.238 8.358 8.358 0 0 0-2.036.88 34.96 34.96 0 0 1-2.02 1.08c-.26.14-.384.073-.45-.234l-.017-.195c-.032.082-.107.127-.182.212-.036.042-.107.127-.149.091-.081-.032-.049-.113-.017-.194.1-.21.16-.405.263-.57a1.173 1.173 0 0 0-.08-1.363 8.249 8.249 0 0 0-.498-.779 1.24 1.24 0 0 0-1.022-.497 1.9 1.9 0 0 0-.463.08 14.372 14.372 0 0 0-2.463.917c-.113.049-.22.176-.332.23a2.385 2.385 0 0 1-.449.24 7.788 7.788 0 0 0-1.68.929 1.12 1.12 0 0 1-1.067.328 3.148 3.148 0 0 1 .986-1.26l.106-.127-.039.003.107-.126c.17-.29.305-.536.514-.828.773-1.007 1.546-2.013 2.358-3.023a7.997 7.997 0 0 1 1.212-1.359 2.599 2.599 0 0 1 .886-1.055l.106-.127.004.039a.614.614 0 0 1 .248-.296 1.7 1.7 0 0 1 .258-.179l-.01-.12a1.15 1.15 0 0 1 .5-.553c.219-.176.23-.49.453-.627.036-.042.11-.087.145-.13l.323-.34a7.238 7.238 0 0 1 1.035-1.148l.415-.623a.614.614 0 0 1 .248-.296 1.622 1.622 0 0 0 .677-.761.776.776 0 0 1 .27-.493c.07-.085.1-.205.175-.29a4.18 4.18 0 0 1 1.035-1.147c.035-.042.08.032.126.107a2.378 2.378 0 0 0 .67-.842c-.035.043-.07.085-.11.088l-.116.01-.006-.077a3.15 3.15 0 0 1 .567-.676.146.146 0 0 1 .233-.02c.148-.092.374-.19.357-.384a.553.553 0 0 1 .225-.567 95.272 95.272 0 0 1 1.91-2.32 3.367 3.367 0 0 0 .5-.552c.348-.5.78-.929 1.17-1.393a.92.92 0 0 1 .329-.264 3.499 3.499 0 0 1 1.208-1.397l-.039.003a8.563 8.563 0 0 0 .483-.744 5.733 5.733 0 0 0 .344-.539.67.67 0 0 0 .04-.481Zm-1.8 3.131-.006-.077-.078.006a.3.3 0 0 1-.149.092l.017.194a1.034 1.034 0 0 0 .216-.217Zm-5.292 6.174c.039-.003.074-.045.11-.088-.038.004-.074.046-.11.088Zm-5.808 4.734a.907.907 0 0 1-.438.351 2.272 2.272 0 0 1 .824-.893 2.684 2.684 0 0 1-.386.542Zm-3.396 6.362-.11.088.004.04Zm-2.516.768-.078.007-.003-.039a.466.466 0 0 1 .248-.296.536.536 0 0 1-.167.328Zm2.833 2.414a11.226 11.226 0 0 1 1.89-.753 1.252 1.252 0 0 1 .541-.086c.078-.007.085.071.13.145.007.078-.028.12-.103.166a.3.3 0 0 1-.192.095 30.846 30.846 0 0 0-5.757 2.968 1.791 1.791 0 0 1-.598.326c.032-.08.025-.158.057-.24a3.055 3.055 0 0 1-.785.421l-.038.004-.004-.039a1.065 1.065 0 0 1 .436-.39 50.631 50.631 0 0 1 4.423-2.617Zm-2.746-.073-.077.006.006.078Zm-.067.123-.004-.039-.035.042Zm3.512-.106a1.139 1.139 0 0 0 .343-.109c-.113.044-.23.055-.345.104Zm-1.124.567a.554.554 0 0 0-.226.098l.003.04.036-.043Zm2.48.175a21.257 21.257 0 0 0-4.31 2.211l-2.745 1.727a4.224 4.224 0 0 1-.711.375.554.554 0 0 1-.226.098.084.084 0 0 1-.085-.07c-.039.003-.007-.078-.007-.078l.259-.18a31.437 31.437 0 0 0 3.08-1.912 23.628 23.628 0 0 1 4.375-2.34 2.05 2.05 0 0 1 .646-.212.1.1 0 0 1 .127.106c-.035.042-.032.081-.07.085-.11.047-.22.136-.333.185Zm-3.193.2-.223.138c-.077.006-.113.049-.187.094.074-.045.152-.052.226-.098a.853.853 0 0 1 .186-.138Zm12.749-.996a.121.121 0 0 1 .074-.045l-.077.006Zm-.113.05.039-.004a.121.121 0 0 1 .074-.046l-.078.007c-.037-.002-.076.002-.033.041Zm-1.141.373c.151-.052.265-.101.417-.154Zm-.721.259a.735.735 0 0 0 .303-.105Zm-.417.153a.889.889 0 0 0 .417-.153Zm-.64.291a1.358 1.358 0 0 0 .64-.29 1.92 1.92 0 0 0-.639.285Zm-5.463 3.765c1.393-.63 2.733-1.413 4.12-2.121a41.853 41.853 0 0 1 5.131-2.131.424.424 0 0 1 .19-.056.2.2 0 0 1 .163.064.084.084 0 0 1-.07.084.866.866 0 0 1-.411.232c-.908.353-1.859.671-2.764 1.063a23.616 23.616 0 0 0-2.821 1.303c-1.086.565-2.126 1.203-3.257 1.69a.3.3 0 0 1-.192.095c-.152.052-.259.179-.42.115-.113-.07.032-.2.332-.343Zm-6.337-2.658a.554.554 0 0 0 .226-.098c-.072.043-.15.05-.224.095Zm0 0a.853.853 0 0 1-.184.134l.223-.137Zm-.184.134-.223.137a.852.852 0 0 1-.184.133l.223-.137a.853.853 0 0 1 .186-.136Zm-.633.368a.554.554 0 0 0 .226-.098c-.073.043-.15.05-.224.095Zm10.964-.84a1.366 1.366 0 0 0-.523.28 1.366 1.366 0 0 0 .523-.283Zm-12.139 1.72a2.569 2.569 0 0 1 .895-.508 2.314 2.314 0 0 1-.849.622.121.121 0 0 1-.08-.032s-.003-.078.034-.081Zm10.903-1.07.311-.027.439-.351a1.385 1.385 0 0 0-.748.38Zm-1.418.79.311-.027a4.144 4.144 0 0 1 .398-.382 2.01 2.01 0 0 0-.746.417Zm35.247-19.399c-.059-.23-.153-.417-.21-.607a1.206 1.206 0 0 0-1.023-.968 14.272 14.272 0 0 0-3.676-.422c-.2.017-.353-.008-.547.009a3.412 3.412 0 0 0-.629-.024c-.938.004-1.842-.034-2.735.044-.664.019-1.292-.005-1.952.053a1.486 1.486 0 0 1-.586.012c-.399-.083-.451-.235-.326-.598.035-.042.028-.12.064-.162-.014-.155-.014-.155.106-.127a1.96 1.96 0 0 0 .44-.351c.105-.127.215-.22.202-.37.008-.353.27-.493.528-.672l.106-.127.182-.216a8.655 8.655 0 0 1 1.187-1.2 1.032 1.032 0 0 1 .697-.53.375.375 0 0 0 .329-.264c.022-.197.174-.25.326-.302a2.226 2.226 0 0 0 .771-.576c.071-.085.186-.173.172-.329.019-.236.203-.37.348-.5a4.982 4.982 0 0 1 .768-.614l.003.038.107-.126a2.352 2.352 0 0 1 .283-.338c.464-.51.45-.666.09-1.221a.452.452 0 0 0-.565-.186 7.27 7.27 0 0 0-.743.457L180.968.796c-.503.514-1.051.953-1.596 1.43-.839.74-1.59 1.51-2.345 2.28l-.86.897a19.047 19.047 0 0 0-1.635 1.904 2.1 2.1 0 0 1-1.532.836 14.984 14.984 0 0 1-1.864.163 6.316 6.316 0 0 0-.851.113 2.699 2.699 0 0 1-.968.124 3.354 3.354 0 0 0-.625.015c-.427.038-.808.15-1.236.187-.857.035-1.695.304-2.556.301a1.139 1.139 0 0 0-.343.108 6.668 6.668 0 0 1-1.504.25c-.156.013-.308.065-.463.079-.728.18-1.416.358-2.148.5-.575.13-1.108.298-1.681.46l-2.969.962a7.063 7.063 0 0 0-1.173.455c-.488.238-.976.477-1.467.676a2.254 2.254 0 0 0-.527.242c-.149.091-.255.218-.086.36a.469.469 0 0 1 .105.303c.034.389.16.495.535.306l.078-.007a25.143 25.143 0 0 1 2.838-1.109 56.487 56.487 0 0 1 10.054-2.283 72.131 72.131 0 0 1 5.003-.515l.427-.038c.078-.007.2-.017.243.096.046.075-.025.16-.22.176l-3.425.3c-1.2.143-2.398.326-3.556.506-1.003.166-2.002.37-2.964.533q-1.843.396-3.677.908c-1.258.384-2.516.768-3.763 1.268a1.366 1.366 0 0 0-.524.28 4.14 4.14 0 0 0 .724-.22c.835-.307 1.63-.611 2.51-.845q1.886-.576 3.9-1.043a88.146 88.146 0 0 1 4.697-.88c1.78-.234 3.56-.467 5.35-.585l.35-.03a.222.222 0 0 1 .178.258.554.554 0 0 1-.057.24c-.316.419-.633.799-.99 1.221a5.21 5.21 0 0 0-.705.884 8.436 8.436 0 0 1-1.417 1.689 1.456 1.456 0 0 0-.252.257 12.92 12.92 0 0 1-.918 1.136 1.676 1.676 0 0 0-.316.42 5.327 5.327 0 0 1-.811 1.049c-.5.552-.918 1.136-1.375 1.725a15.766 15.766 0 0 1-1.643 2.257l-.106.127c-.515.827-1.071 1.62-1.586 2.446a5.57 5.57 0 0 0-.476.824c-.476.825-.913 1.645-1.35 2.466a13.303 13.303 0 0 0-.548 1.34 1.3 1.3 0 0 0 .01 1.016 6.718 6.718 0 0 0 .343.792 1.613 1.613 0 0 0 .971.776.994.994 0 0 0 .932-.081 11.124 11.124 0 0 0 1.73-.817c.713-.336 1.389-.669 2.11-.928a28.047 28.047 0 0 0 2.986-1.2 14.095 14.095 0 0 0 1.316-.623l1.163-.572c.452-.196.901-.43 1.346-.665.075-.046.193-.095.183-.212a1.106 1.106 0 0 0-.492.2c-1.577.764-3.189 1.57-4.857 2.185a54.231 54.231 0 0 0-4.673 2.052c-.262.14-.527.247-.828.385a.76.76 0 0 0-.268.063c-.039.003-.12-.029-.123-.068a.3.3 0 0 1 .064-.162l.34-.147c.452-.196.9-.43 1.314-.623.789-.382 1.577-.764 2.372-1.069a53.884 53.884 0 0 0 4.115-1.729c.83-.346 1.654-.77 2.482-1.156a1.063 1.063 0 0 0 .445-.274.23.23 0 0 0 .015-.275c-.042-.035-.087-.11-.165-.103-.113.05-.269.063-.382.112l-1.17.493a4.26 4.26 0 0 1-.642.257l-.004-.039a.629.629 0 0 1-.34.148l-.3.143a.443.443 0 0 1-.3.144l-.34.147a.918.918 0 0 1-.304.105 1.722 1.722 0 0 1-.6.287l.178-.25a3.269 3.269 0 0 0-.94.434c.039-.003.078-.007.08.032a.136.136 0 0 1-.073.046l-.01-.117a11.553 11.553 0 0 0-2.202.858c.038-.004.116-.01.084.07a.136.136 0 0 1-.074.046l-.01-.116a2.855 2.855 0 0 0-.944.395l.35-.03a.735.735 0 0 1 .303-.105.735.735 0 0 1-.304.105.629.629 0 0 1-.339.147l.039-.004a11.857 11.857 0 0 1-2.517 1.199l.212-.254c-.077.007-.116.01-.158-.025-.046-.074-.01-.116.025-.159l.3-.143a32.787 32.787 0 0 1 4.034-1.758 89.308 89.308 0 0 0 5.55-2.324c.113-.049.222-.137.336-.186a.234.234 0 0 0 .025-.158c-.004-.04-.085-.071-.123-.068a.073.073 0 0 0-.117.01c-.382.112-.805.188-1.184.339-.791.343-1.59.608-2.375 1.029a4.56 4.56 0 0 1-.76.267 32.648 32.648 0 0 0-3.261 1.188l-.152.052a6.045 6.045 0 0 1-1.35.627.5.5 0 0 1-.23.06.156.156 0 0 1-.211-.183c-.014-.155.008-.353-.006-.508l-.013-.156c.029-.12.064-.162.226-.098a.79.79 0 0 0 .179-.641.214.214 0 0 1 .135-.247c.148-.091.297-.182.322-.341-.084-.071-.133-.184-.023-.272a1.713 1.713 0 0 0 .405-.738 2.364 2.364 0 0 1 .946-1.257c.114-.049.146-.13.174-.25-.077.007-.123-.067-.052-.151l.137-.173.017.194a10.041 10.041 0 0 0 1.128-1.429 3.226 3.226 0 0 1 .376-.62l1.624-2.02a2.353 2.353 0 0 1 .283-.338c.036-.042.071-.084.11-.088a1.345 1.345 0 0 1 .28-.376 1.483 1.483 0 0 1 .305-.536c.557-.792 1.16-1.506 1.762-2.228.142-.169.326-.302.468-.471l.106-.127a4.052 4.052 0 0 1 1.17-1.393l-.039.003a.83.83 0 0 1 .351-.461l.545-.478.04-.004a.3.3 0 0 1 .12-.402 1.219 1.219 0 0 0 .313-.457c.067-.124-.06-.23.008-.353.064-.162.272-.024.378-.15l.532-.634c.035-.042.067-.124.025-.159-.094-.187.054-.279.167-.328a6.024 6.024 0 0 0 .876-.311 1.582 1.582 0 0 1 .725-.22c1.67-.146 3.392-.14 5.104-.25a1.326 1.326 0 0 1 .392.005c1.246-.07 2.464-.02 3.681.03a13.78 13.78 0 0 1 2.17.202 2.423 2.423 0 0 1 1.177.484 1.8 1.8 0 0 0 .296.248c.12.029.236.019.265-.101a1.246 1.246 0 0 0 .047-.753ZM183.315-.459a.143.143 0 0 1 .12.029s.007.078-.032.081a1.617 1.617 0 0 1-.736.534 2.553 2.553 0 0 1 .648-.644Zm-.977.908a1.96 1.96 0 0 1-.8.696 2.699 2.699 0 0 1 .8-.696Zm-.907.822a.606.606 0 0 1-.29.26.606.606 0 0 1 .29-.26Zm-.435.39a.45.45 0 0 1-.255.223.45.45 0 0 1 .255-.222Zm.515.973-.003-.039.039-.003c-.04.003-.04.003-.036.042Zm-4.205 2.48a2.2 2.2 0 0 1-.858.936 2.766 2.766 0 0 1 .858-.935ZM172.74 8.84a.96.96 0 0 1-.463.08l-3.378.295a.038.038 0 0 0 .043.035l3.417-.299c.042.036.081.032.085.071.006.078-.032.081-.071.085-.2.017-.346.07-.502.083-1.828.12-3.686.36-5.504.598a27.17 27.17 0 0 0-3.51.58c-1.502.288-2.958.611-4.452 1.016a38.246 38.246 0 0 0-4.067 1.373l-.3.143c-.078.007-.149.092-.272.024-.043-.035.015-.275.128-.324a5.523 5.523 0 0 1 .67-.372 45.167 45.167 0 0 1 3.998-1.328q1.95-.522 4.032-.939c1.074-.25 2.158-.384 3.277-.56 1.776-.273 3.602-.432 5.385-.627.427-.037.858-.036 1.285-.073a.3.3 0 0 1 .206.06c.039-.003.039-.003.042.035a.038.038 0 0 1-.05.044Zm14.672-.03-.035.042a2.083 2.083 0 0 1-.865-.041c-.116.01-.2-.061-.317-.051-.237-.018-.47.002-.704-.017-1.726-.045-3.452-.09-5.206-.014-1.246.07-2.457.097-3.702.127a.292.292 0 0 1-.202-.021c-.04.003-.043-.036-.081-.032.035-.042.032-.081.07-.085l.505-.044a.969.969 0 0 0 .308-.066l-.35.03c-.159-.024-.381.112-.515-.072.139-.207.34-.147.534-.164a103.38 103.38 0 0 1 3.547-.153c.978-.007 1.96.03 2.976.014.903 0 1.81.116 2.713.154a4.974 4.974 0 0 1 1.112.177l.209.1c-.004.039.039.074.003.116Zm-22.804 1.014c.08.032.116-.01.155-.013l-.116.01Zm22.293-.147c-1.736-.162-3.497-.164-5.259-.167l-2.767.124-3.156.159c-.272.024-.473-.037-.402-.122.064-.162.223-.137.378-.15.66-.058 1.36-.119 2.14-.148 1.56-.058 3.204-.08 4.842-.11a26.582 26.582 0 0 1 3.97.201.664.664 0 0 1 .276.015c.123.068.31-.027.408.2a.537.537 0 0 1-.43-.002Zm-14.974 1.504a1.187 1.187 0 0 1 .283-.338.423.423 0 0 1-.283.338Zm1.521-.055a.143.143 0 0 0-.113.049c.036-.042.071-.084.11-.088Zm-2.017.646a.47.47 0 0 1-.183.211.47.47 0 0 1 .183-.211.688.688 0 0 1 .322-.341.476.476 0 0 1-.322.34Zm-17.74 2.098a.942.942 0 0 0-.57.206 1.163 1.163 0 0 0 .57-.206Zm12.308 4.716c-.035.042-.106.127-.11.088-.08-.032.033-.081.068-.123.032-.081.071-.085.103-.166a.3.3 0 0 1-.06.201Zm-2.139 5.079c-.003-.04.032-.081.068-.124l-.106.127Zm5.271 2.55-.3.143.31-.027Zm-.3.143-.3.144.31-.027Zm-.3.144-.34.147.35-.03Zm-.34.147a.735.735 0 0 1-.304.105l.31-.028Zm-.304.105-.417.153.427-.037Zm.31-.028.004.04a.038.038 0 0 1 .036-.043Zm-5.11 1.976.311-.027-.01-.117Zm-.827.385a.554.554 0 0 0 .226-.098.554.554 0 0 0-.226.098Zm0 0a2.686 2.686 0 0 0-.3.144Zm-.64.291a.853.853 0 0 1-.189.134l.223-.137Zm-.488.238a1.206 1.206 0 0 0 .304-.104c-.113.049-.23.059-.304.103Zm22.993-4.239a.784.784 0 0 1-.183-.297.88.88 0 0 0-.831-.554 2.93 2.93 0 0 0-.583.051 19.129 19.129 0 0 0-2.956.61 1.765 1.765 0 0 1-.612.172 11.169 11.169 0 0 0-2.208.701 4.314 4.314 0 0 1-.986.36 2.73 2.73 0 0 0-.534.164c-.152.053-.293.222-.501.083-.13-.145-.066-.307-.04-.466-.008-.077.028-.12.02-.202l.04-.004c.038-.003.074-.045.113-.049l-.156.014a1.2 1.2 0 0 0-.064-.738l-.004-.039a2.4 2.4 0 0 0-.35-.872 4.61 4.61 0 0 0-.95-1.013.655.655 0 0 0-.75-.091l-.369 4.298a2.627 2.627 0 0 1-.985 1.26 23.04 23.04 0 0 0-1.901 1.536l-.653.565c-.071.085-.19.134-.255.223-.592.835-1.522 1.386-2.076 2.217.004.038-.035.042-.07.084a12.172 12.172 0 0 0-2.155 2.735 3.372 3.372 0 0 1-.238.412 7.733 7.733 0 0 0-.941 1.765c-.16.405-.32.81-.484 1.177a5.183 5.183 0 0 0-.396 2.187 2.699 2.699 0 0 0 .184.767l.431.901a1.35 1.35 0 0 0 .848.748.978.978 0 0 1 .286.132.777.777 0 0 0 .818-.033 7.717 7.717 0 0 0 1.476-1.032 16.572 16.572 0 0 0 2.314-2.625 2.228 2.228 0 0 0 .373-.659l-.218.137c-.039.004-.042-.035-.046-.074.068-.123.146-.13.269-.062a4.592 4.592 0 0 0 .653-1.036c-.095-.187.012-.314.157-.444.11-.088.215-.22.206-.331a7.797 7.797 0 0 1 .943-2.196c.032-.08.106-.126.142-.169a1.4 1.4 0 0 1 .118-.44c.227-.529.455-1.058.686-1.547l.213-.254c.007.078-.06.206.027.31a2.521 2.521 0 0 0 .295-.651c-.003-.039-.007-.078-.045-.074a.121.121 0 0 0-.075.045.538.538 0 0 1-.145.13 1.63 1.63 0 0 1 .122-.402 35.76 35.76 0 0 1 .74-1.864.854.854 0 0 1 .464-.51 1.4 1.4 0 0 0 .364-.306.177.177 0 0 0-.016-.194 3.253 3.253 0 0 1 .438-.352 20.551 20.551 0 0 1 1.917-.91 33.495 33.495 0 0 1 3.19-1.101c.421-.115.838-.27 1.22-.38a17.076 17.076 0 0 1 2.406-.68 2.064 2.064 0 0 1 .974-.047.554.554 0 0 0 .24.058c.236.018.307-.066.326-.303a.95.95 0 0 0-.237-.841Zm-11.42-1.311c.082.032.124.067.088.11.007.077-.067.123-.141.168l-.083-.501c.19-.056.268-.063.275.015.005.118-.07.163-.139.208Zm1.897 3.787a1.7 1.7 0 0 1 .258-.18l-.155.014a.136.136 0 0 1-.081-.032.143.143 0 0 1 .028-.12 3.799 3.799 0 0 0 .41-.231l1.669-.616a48.673 48.673 0 0 1 5.264-1.555 1.431 1.431 0 0 1 .7-.023c-.293.222-.61.171-.908.354l-.35.03c-.229.06.05.113-.025.16a3.679 3.679 0 0 1-.339.146l-1.756.506a42.093 42.093 0 0 0-4.361 1.594.735.735 0 0 0-.304.105.084.084 0 0 1-.084-.071.121.121 0 0 1 .029-.081Zm.3-1.944-.036.042.039-.003Zm7.124-.427-.04.003c-.077.007-.12-.028-.158-.025l.155-.013c.034-.003.077.032.038.036Zm-1.35.235-.116.01c-.039.004-.074.046-.113.05l.116-.01c.034-.004.07-.046.108-.05Zm-.763.224a1.2 1.2 0 0 0 .495-.161 1.934 1.934 0 0 0-.5.161Zm-.533.164a1.934 1.934 0 0 0 .494-.161 2.38 2.38 0 0 0-.5.161Zm-.04.003-.077.007a.038.038 0 0 0-.035.042l.039-.003a.136.136 0 0 0 .069-.046Zm-.801.227-.039.003a.136.136 0 0 1-.074.046l.077-.007c.073-.007.07-.045.03-.042Zm4.68-.175c-.038.004-.074.046-.151.053-1.728.386-3.396.999-5.07 1.539a22.891 22.891 0 0 0-3.523 1.4c-.152.052-.297.183-.494.16l-.046-.074c.035-.042.068-.123.106-.126l.446-.274a19.614 19.614 0 0 1 2.831-1.187c1.333-.43 2.665-.859 4.005-1.253.533-.164 1.11-.292 1.646-.417a.422.422 0 0 1 .237.018.084.084 0 0 1 .084.071Zm-4.797.219c-.152.052-.265.101-.417.154Zm-.911.314a2.056 2.056 0 0 0 .455-.157 1.038 1.038 0 0 0-.457.163Zm-.46.127a1.657 1.657 0 0 0 .42-.115Zm-.38.15a1.139 1.139 0 0 0 .344-.108 1.139 1.139 0 0 0-.343.105Zm-5.93 3.333a2.688 2.688 0 0 1-1.206.966l-.007-.08a3.599 3.599 0 0 0-.293.227l.194-.017a.3.3 0 0 1-.3.144l-.294.221c.09.149.017.194-.097.243a.849.849 0 0 1-.293.222l-.01-.12-.2.018a1.24 1.24 0 0 1 .355-.423 15.936 15.936 0 0 1 2.115-1.828c.11-.088.222-.137.332-.225l.155-.013c-.093.282-.108.557-.45.665Zm-.198.017.199-.017a.853.853 0 0 1 .099-.21 1.368 1.368 0 0 0-.298.227Zm-.914.746-.003-.04-.106.127Zm.772.793a1.526 1.526 0 0 1-.361.345 27.162 27.162 0 0 0-2.124 2.103c-.393.425-.744.887-1.138 1.312-.045-.074-.088-.11-.095-.192a23.078 23.078 0 0 1 2.97-3.194 2.866 2.866 0 0 1 .619-.524.143.143 0 0 1 .12.028Zm-1.864.163.2-.017-.011-.117Zm-.34.147a.852.852 0 0 0 .135.189.49.49 0 0 1-.495.16.518.518 0 0 1 .367-.35Zm-2.549 3.001c.245-.334.493-.63.741-.925a4.268 4.268 0 0 0 .351-.462l.107-.126a4.083 4.083 0 0 0 .273-.455 1.445 1.445 0 0 1 .615-.562l.017.199a.038.038 0 0 0-.035.042.121.121 0 0 0 .045.069c-.503.513-.964 1.062-1.424 1.611l-.567.676a1.908 1.908 0 0 1-.465.51 1.094 1.094 0 0 1 .342-.577Zm4.3-2.293c-.035.042-.074.046-.07.084a3.263 3.263 0 0 1-.535 1.495 27.346 27.346 0 0 1-1.214 2.689 5.188 5.188 0 0 1-.48.785c-.237.412-.553.831-.79 1.283a4.432 4.432 0 0 1-.529.672c-.503.513-.964 1.062-1.51 1.537l-.215.214a.886.886 0 0 1-.798.27c-.16-.025-.201-.06-.176-.219a2.547 2.547 0 0 1 .445-1.174l.027.311a.44.44 0 0 0 .08-.437l.167-.328.038-.003a.163.163 0 0 1-.023-.272.685.685 0 0 1 .185-.173.358.358 0 0 1 .044-.395c.07-.085.138-.208.21-.292l-.078.006c.032-.08.035-.042.077-.006a2.684 2.684 0 0 0 .383-.543 23.705 23.705 0 0 1 3.514-4.572c.358-.384.723-.69 1.084-1.034a.143.143 0 0 1 .113-.05c.08.031.048.113.051.152Zm-4.68 2.874a5.976 5.976 0 0 1-.997 1.574 4.178 4.178 0 0 1 .998-1.574Zm1.125.332-.035.043c.003.038-.036.042-.032.08l-.007-.077c.035-.046.032-.081.074-.05Zm-.106.127a.084.084 0 0 1-.07.085l-.008-.078Zm-.067.123a.818.818 0 0 1-.206.331 2.683 2.683 0 0 1 .089-.32Zm2.25 1.565c.003.039-.036.042-.075.045.039-.003.036-.042.032-.08l.036-.043c.042.036.042.036.006.078Zm-3.38.295.004.039-.042-.036Zm3.141.117a.849.849 0 0 1 .168-.328.536.536 0 0 1-.168.328Zm-.372.659a.7.7 0 0 1 .17-.29 1.186 1.186 0 0 1-.17.29Zm-.486.707a1.142 1.142 0 0 1 .45-.665 1.142 1.142 0 0 1-.45.665Zm-.172.329a7.97 7.97 0 0 1-1.273 1.515.784.784 0 0 1 .128-.324c.426-.507.812-1.049 1.273-1.516a.784.784 0 0 1-.123.324Zm.696.8.089-.321c.035-.042.07-.085.067-.124l.04-.003a.448.448 0 0 1-.191.447Zm-3.941.579.089-.321a.554.554 0 0 1 .057-.24l-.096.243a1.205 1.205 0 0 1-.045.317Zm3.277.34a12.426 12.426 0 0 1-1.95 1.853 1.774 1.774 0 0 1-.712.375c-.039.003-.116.01-.123-.068a.121.121 0 0 1 .032-.08.538.538 0 0 1 .145-.13 15.065 15.065 0 0 0 2.264-1.918.966.966 0 0 1 .517-.359 2.177 2.177 0 0 1-.168.328Zm-3.128 1.369c-.042-.036-.05-.114-.091-.149-.046-.074-.092-.149.018-.236a9.882 9.882 0 0 1 1.326-.899l-.46.55a.352.352 0 0 1 .197.02 1.426 1.426 0 0 1-.985.713Z" fill="#e53729"/><path data-name="パス 585" d="M3.064 32.366a5.688 5.688 0 0 1-2.247-.332c-1.155-.477-1.076-1.284.177-1.8a138.627 138.627 0 0 1 16.08-5.21c6.385-1.732 13.968-3.536 22.539-5.361C56.29 16.107 76.1 12.6 96.911 9.5c21.289-3.161 42.429-5.7 61.128-7.349C167.976 1.276 177.17.66 185.368.319c8.733-.363 16.4-.416 22.79-.157 1.676.068 2.787.692 2.482 1.394s-1.911 1.216-3.588 1.148c-5.991-.243-13.251-.191-21.579.156-7.969.332-16.932.933-26.641 1.788-18.417 1.621-39.26 4.129-60.277 7.252-20.538 3.052-40.073 6.514-56.494 10.011-17.03 3.626-29.784 7.1-36.885 10.046a6.208 6.208 0 0 1-2.112.409Z" transform="matrix(1 0 0 1 2.43 42.21)" fill="url(#a)"/></g></svg>