<svg xmlns="http://www.w3.org/2000/svg" width="438.265" height="156.41"><defs><linearGradient id="a" x1=".396" y1="-.297" x2=".5" y2="1" gradientUnits="objectBoundingBox"><stop offset="0" stop-color="#e53729"/><stop offset=".69" stop-color="#ff652c"/><stop offset="1" stop-color="#ff652c"/></linearGradient></defs><g opacity=".2"><path data-name="パス 602" d="M89.51 50.252a3.41 3.41 0 0 0-.965-1.947c-.294-.328-.595-.743-.896-1.158-.603-.83-1.056-.967-1.901-.536a11.684 11.684 0 0 0-2.58 1.814 34.445 34.445 0 0 1-2.68 2.619 6.057 6.057 0 0 0-1.055 1.063c-1.143 1.071-2.19 2.223-3.238 3.374l-2.902 3.163a41.195 41.195 0 0 0-3.127 3.629c-1.592 1.993-3.302 3.644-4.902 5.546l-1.591 1.993c-.888.96-1.68 2.001-2.48 2.954-1.032 1.326-2.064 2.653-3.008 3.975a40.467 40.467 0 0 1-3.233 4.433 9.214 9.214 0 0 0-.613 1.025l-1.873 2.813c-.16.19-.312.468-.48.571-.518.134-.743.595-1.143 1.072a3.737 3.737 0 0 1 .308-1.532 24.1 24.1 0 0 0 1.008-3.62 3.566 3.566 0 0 1-.75.506c.21-.636.346-1.09.56-1.638.277.152.117.343.133.518l.053.614a18.138 18.138 0 0 0 .853-2.37 4.11 4.11 0 0 0 .132-1.517c-.053-.614.628-.85.666-1.471-.007-.088-.015-.176-.103-.168s-.08.095-.167.103l-.16.19c.042-.533-.012-1.146.566-1.554a1.966 1.966 0 0 0 .938-1.394c.21-.637.427-1.186.552-1.726a3.352 3.352 0 0 0 .186-.9 4.391 4.391 0 0 1 .46-2.777 4.124 4.124 0 0 1 1.13-2.218 1.26 1.26 0 0 0 .275-.907 6.066 6.066 0 0 1 .452-2.865l.685-2.268c.338-1.177.677-2.355.928-3.524.144-.366.202-.72.544-.843a.574.574 0 0 0 .37-.827 1.504 1.504 0 0 1 .372-1.798c.16-.19.232-.374.05-.446a.84.84 0 0 1-.07-.789 7.633 7.633 0 0 0-.126-2.461 8.538 8.538 0 0 0-2.726-3.912 1.71 1.71 0 0 0-2.046-.175l-2.1 1.243a4.108 4.108 0 0 0-.837.515c-.945 1.319-2.285 2.142-3.325 3.381-.392.564-.88 1.048-1.356 1.708a11.328 11.328 0 0 1-1.272 1.616 19.144 19.144 0 0 0-2.814 3.156c-.865 1.224-1.832 2.28-2.792 3.423a16.387 16.387 0 0 0-1.816 2.455 2.077 2.077 0 0 1-.629.85 22.191 22.191 0 0 0-2.136 2.835 147.89 147.89 0 0 1-2.955 4.585l-1.744 2.271a6.714 6.714 0 0 0-.613 1.025 5.478 5.478 0 0 1-1.089 1.685 12.27 12.27 0 0 0-1.625 2.526c-1.154 1.955-2.307 3.914-3.469 5.778-.841 1.486-1.786 2.805-2.536 4.283l-.304.557a10.654 10.654 0 0 0-1.835 3.25 5.917 5.917 0 0 1-.53 1.018 19.233 19.233 0 0 0-1.968 3.792l-.225.461c-.08.096-.16.191-.343.119l-.015-.176c-.103-.167-.118-.342-.293-.327-.446-.05-.39-.408-.412-.667l-.465.743a2.38 2.38 0 0 1 .205-1.695c-.007-.088.08-.096.168-.103a.307.307 0 0 1 .103.167 4.54 4.54 0 0 1-.091.98 16.259 16.259 0 0 0 1.016-3.533.993.993 0 0 0-.149-.69.46.46 0 0 1 .114-.712 1.545 1.545 0 0 0 .713-.945 24.444 24.444 0 0 0 .756-3.43 3.599 3.599 0 0 0 .094-1.95c-.095-.08-.023-.263-.038-.438a50.127 50.127 0 0 1 .98-4.943c.13-.54.18-.987.59-1.287a2.238 2.238 0 0 1 .53-1.99 5.122 5.122 0 0 1 .117-1.687c.52-3.136.95-6.353 1.466-9.488.122-.629.156-1.25.278-1.879a8.343 8.343 0 0 0 .262-2.054 1.474 1.474 0 0 1 .17-1.074.959.959 0 0 0 .092-.98 13.031 13.031 0 0 1 .117-1.687 7.583 7.583 0 0 0-2.772-6.47 2.71 2.71 0 0 0-1.822-.635 4.976 4.976 0 0 0-2.393.912c-.91.697-1.836 1.22-2.742 1.917l-4.114 3.45c-.087.008-.08.095-.167.103-.568.58-1.223 1.166-1.703 1.738a7.458 7.458 0 0 0-1.946 2.996 1.923 1.923 0 0 1 .462.224l.216-.548a17.583 17.583 0 0 1 1.905-2.462 42.013 42.013 0 0 1 5.248-4.61 21.134 21.134 0 0 1 3.265-2.05 13.57 13.57 0 0 1 1.455-.57c.343-.117.446.05.477.4l-.416.302a31.388 31.388 0 0 1-3.798 2.01c-.064.27-.32.38-.567.579l-2.308 1.883a20.373 20.373 0 0 0-4.734 4.387 4.834 4.834 0 0 1-.735.683L6.2 62.917a.69.69 0 0 0 .172.956.8.8 0 0 0 1.052-.092l.48-.571a3.905 3.905 0 0 1 .612-1.025.672.672 0 0 0-.422.213c-.176.016-.256.11-.359-.057-.007-.087.073-.183.065-.27l.16-.19a36.42 36.42 0 0 1 9.16-7.335 9.576 9.576 0 0 1 2.115-1.068c.167-.103.35-.03.526-.046l.087-.008a.323.323 0 0 1-.064.27l-.59.317c-.584.404-1.27.64-1.94 1.053a12.434 12.434 0 0 0-2.834 1.925c.766-.332 1.173-.72 1.851-1.045a32.467 32.467 0 0 1 2.442-1.361 3.53 3.53 0 0 1 1.292-.378.648.648 0 0 1 .758.636 1.715 1.715 0 0 1-.027.705 11.274 11.274 0 0 1-.231 2.404c-.262 2.054-.437 4.1-.874 6.17-.445 1.981-.612 4.115-1.137 6.192l-.17 1.074a45.941 45.941 0 0 1-1.15 5.045c-.186.9-.46 1.807-.646 2.706-.202.72-.228 1.433-.43 2.157-.155 1.25-.677 2.355-.745 3.597a1.486 1.486 0 0 1-.137.453 8.923 8.923 0 0 0-.693 2.18 30.442 30.442 0 0 1-1.243 4.885.323.323 0 0 0-.064.27l-1.156 4.958a11.951 11.951 0 0 1-.75 2.538 1.63 1.63 0 0 0-.122.629c-.307 1.532-.703 3.064-1.103 4.6a15.853 15.853 0 0 0-.624 2.964 7.567 7.567 0 0 0 .04 1.413 1.71 1.71 0 0 0 .819 1.342 2.054 2.054 0 0 1 .968.975c.522.925 1.064 1.055 1.901.536.51-.221.438-.038.469.312.015.175.19.16.278.152a1.093 1.093 0 0 0 .651-.586c.465-.743 1.01-1.594 1.474-2.337l4.786-8.895c2.204-4.077 4.405-8.155 6.891-12.08 1.394-2.242 2.692-4.563 3.998-6.796.69-1.208 1.466-2.424 2.243-3.64a6.561 6.561 0 0 1 .521-1.105l-1.386 1.357c.008.088-.08.096-.072.183s-.073.183-.08.096l-.008-.084c.08-.095.168-.103.16-.19a8.097 8.097 0 0 1 1.474-2.337l-.179.987a2.937 2.937 0 0 0 1.055-1.064c.465-.743.937-1.406 1.394-2.24a6.319 6.319 0 0 0 1.074-1.86c-.176.015-.343.118-.446-.05a.529.529 0 0 1 .057-.358 1.215 1.215 0 0 1 .327-.293c.248-.199.35-.031.461.224l-.007-.087a9.038 9.038 0 0 0 1.96-2.82 13.935 13.935 0 0 0 1.753-2.185q2.832-3.96 5.952-7.672c.407-.39.8-.953 1.207-1.342a55.852 55.852 0 0 1 5.221-5.93 17.172 17.172 0 0 1 1.886-1.67.5.5 0 0 1 .598-.23c-.225.462.076.877-.053 1.418a13.569 13.569 0 0 1-.308 1.532c-.635 1.821-1.008 3.62-1.731 5.45-.788 2.099-1.21 4.343-2.086 6.45-.296.645-.582 1.376-.875 2.108l-1.826 6.253-.217.548c-.582 1.376-.902 2.816-1.4 4.185-.354 1.002-.521 2.076-.967 3.086a17.911 17.911 0 0 0-.62 1.997 33.846 33.846 0 0 1-1.305 4.264 16.901 16.901 0 0 0-1.195 3.548 16.933 16.933 0 0 1-.947 3.262 10.041 10.041 0 0 0-.872 3.167 8.878 8.878 0 0 1-.498 1.368 12.545 12.545 0 0 0-.582 2.435 1.53 1.53 0 0 0 .782 1.874 1.249 1.249 0 0 1 .766.728 1.6 1.6 0 0 0 1.829.723c.167-.103.343-.118.51-.221a2.234 2.234 0 0 1 .62-.937 1.663 1.663 0 0 1-.62.937c.126.43.317.59.564.392l.48-.572c.393-.564.777-1.216 1.162-1.867.993-1.765 1.98-3.617 2.886-5.37a101.948 101.948 0 0 1 6.697-11.27c1.242-1.962 2.574-3.845 3.827-5.72a4.13 4.13 0 0 0 .457-.835l-1.302 1.262a1.825 1.825 0 0 1 .449-.922c.224-.462.544-.843.769-1.304l.24-.286-.263.023.24-.286a5.308 5.308 0 0 0 .636-.758 1.515 1.515 0 0 1 1.166-.804l.038.438a9.434 9.434 0 0 0 1.984-2.557c-.175.015-.27-.065-.445-.05a.687.687 0 0 1 .32-.38.425.425 0 0 1 .605-.142 23.306 23.306 0 0 0 3.28-3.907l-.439.039a1.84 1.84 0 0 1 .305-.557c.16-.19.335-.206.613-.053a25.083 25.083 0 0 0 3.542-3.93l-.526.046a36.126 36.126 0 0 1-2.311 2.85c-.366-.144-.119-.342-.039-.437a10.23 10.23 0 0 0 1.425-1.89 4.714 4.714 0 0 1 .925-.523c.21-.637.792-1.04 1.097-1.601l.24-.286-.263.023c.08-.095.16-.19.247-.198l.015.175.24-.286-.175.015.16-.19a2.677 2.677 0 0 1 .636-.758l.16-.19.016.174.438-.038a5.648 5.648 0 0 1-.777 1.216 4.835 4.835 0 0 0 1.394-1.27 1.116 1.116 0 0 0-.533-.041l-.016-.176-.438.039c.072-.183.248-.199.438-.039.328-.293.56-.667.991-.789a2.928 2.928 0 0 1-.45.923 3.348 3.348 0 0 0 1.071-.889c.728-.766 1.371-1.532 2.102-2.214.808-.866 1.79-1.746 2.59-2.699l2.118-2.04c.247-.198.48-.571.75-.506.366.144.236.681.172.956a1.486 1.486 0 0 1-.186.9 14.311 14.311 0 0 1-.788 2.099 26.827 26.827 0 0 0-1.344 3.726 2.752 2.752 0 0 1-.362.914c-.658 1.563-1.233 3.11-1.8 4.661l-1.93 5.198c-.419 1.273-.925 2.553-1.256 3.822-.338 1.178-.852 2.37-1.286 3.468a4.598 4.598 0 0 0-.403 1.448 5.834 5.834 0 0 1-.64 1.73 10.685 10.685 0 0 0-.635 1.821c-.427 1.185-.483 2.515-1.188 3.636a1.228 1.228 0 0 0-.194.812 30.994 30.994 0 0 1-.992 3.799c-.476 1.63-1.04 3.27-1.42 4.98-.346 1.09-.597 2.26-.848 3.43-.33 1.265-.67 2.443-.905 3.792-.285 1.79-.665 3.502-.942 5.38a9.913 9.913 0 0 0-.194 2.843 3.347 3.347 0 0 0 .401 1.554 20.292 20.292 0 0 0 1.372 1.55.877.877 0 0 0 1.478-.306c.065-.27.05-.446.115-.712l.155-1.25a.328.328 0 0 1 .233-.373c.43-.126.4-.477.274-.907a4.261 4.261 0 0 1-.131-1.494c.13-.541.362-.915.14-1.425-.103-.168.057-.358.225-.461.343-.119.408-.39.202-.72a.73.73 0 0 1 .202-.72 5.608 5.608 0 0 0 .59-1.288c.072-.183.145-.366-.038-.438-.47-.313-.324-.674-.18-1.044.122-.629.339-1.178.468-1.719.015.175.023.263.206.335.088-.007.16-.19.24-.286l.582-2.435c-.263.023-.366-.144-.294-.327a2.4 2.4 0 0 1 .434-1.098l-.134 1.501a9.181 9.181 0 0 0 .781-2.183c.456-1.806.92-3.613 1.476-5.339a1.828 1.828 0 0 0 .004-.972 1.504 1.504 0 0 1-.043-1.497l.837-2.546c-.007-.087.08-.095.16-.19l.088-.008.095.08a1.116 1.116 0 0 0-.042.534 2.785 2.785 0 0 0 .606-1.113 27.645 27.645 0 0 0 1.225-4.169.672.672 0 0 0 .137-.453 28.419 28.419 0 0 0 1.43-3.838c.065-.27.217-.549.107-.804a1.06 1.06 0 0 1 .235-1.345 1.06 1.06 0 0 0 .4-.476c.08-.096.145-.366-.038-.439-.286-.24-.221-.51-.069-.788l.628-1.906a2.4 2.4 0 0 1 .697-1.12l1.039-3.27a6.897 6.897 0 0 1 .761-1.39 2.999 2.999 0 0 0 .827-1.662 1.504 1.504 0 0 1-.043-1.502 30.012 30.012 0 0 0 1.56-4.374 6.842 6.842 0 0 1 1.595-2.965c-.175.015-.358-.057-.285-.24.114-.713.148-1.338.818-1.75.065-.27.312-.468.202-.72a.69.69 0 0 1 .003-.971 4.23 4.23 0 0 0 .277-2.938Zm-39.478 1.944a11.567 11.567 0 0 1 1.592-1.994 25.351 25.351 0 0 1 2.868-2.546c-.103-.168-.206-.335-.046-.526a3.888 3.888 0 0 1 2.02-1.148.169.169 0 0 1 .27.065c.007.088-.073.183-.065.27-.08.096-.168.104-.335.206.27.065.54.13.293.328a3.856 3.856 0 0 1-1.611.759 6.198 6.198 0 0 1-.735.682 27.415 27.415 0 0 0-3.26 3.11 2.046 2.046 0 0 1-.99.798Zm5.462-5.157a2.006 2.006 0 0 0-1.006.617l.526-.046Zm.188 3.162L53 52.819a2.461 2.461 0 0 1-1.07.889 1.412 1.412 0 0 1 .353-1.003 4.61 4.61 0 0 1 .792-1.04c.991-.79 1.885-1.67 2.788-2.451a9.596 9.596 0 0 0 .918-.61c.176-.016.263-.023.366.144.096.08.016.176-.064.27-.495.401-.99.798-1.398 1.187Zm-36.813 2.073-.023-.263c-.168.103-.248.198.023.263Zm67.184-4.193-.24.286c.087-.008.183.072.27.065-.087.007-.167.103-.255.11a4.89 4.89 0 0 1-1.425.92l-.232.373c-1.055 1.063-2.205 2.047-3.26 3.11a.387.387 0 0 1-.43.126c-.024-.262.232-.373.296-.644l.24-.286a6.713 6.713 0 0 0 .903-.78c-.286-.24-.03-.351.225-.462l.015.175.16-.19.088-.008.982-.88a5.38 5.38 0 0 1 1.014-.53l.72-.858a.183.183 0 0 1-.031-.35 1.428 1.428 0 0 1 .75-.508.529.529 0 0 1 .358.057c.02.171-.06.267-.148.274Zm-71.005 5.94.023.262c-.008-.088.072-.183.064-.27Zm34.34-1.059a6.057 6.057 0 0 1-.864 1.224c-1.04 1.239-2.167 2.485-3.206 3.724l-1.897 2.55c-.48.571-.96 1.143-1.527 1.722a3.69 3.69 0 0 1 .682-1.295c1.736-2.36 3.743-4.654 5.575-6.933a4.331 4.331 0 0 1 1.238-.992 1.06 1.06 0 0 1 .4-.476 1.06 1.06 0 0 1-.4.476Zm-35.055 4.035Zm0 0a2.526 2.526 0 0 0-1.079.796 1.955 1.955 0 0 0 1.082-.797Zm70.863-5.49-.103-.167c.073-.183.152-.278.248-.198.087-.008.095.08.103.167s-.06.186-.24.202Zm-71.938 6.374-.008-.087-.16.19c.089-.092.089-.092.176-.1Zm-.168.103a1.84 1.84 0 0 0-.495.397 1.84 1.84 0 0 0 .508-.394Zm-1.9 1.49a1.915 1.915 0 0 0 .658-.498 1.209 1.209 0 0 0-.65.502Zm0 0a1.986 1.986 0 0 0-.903.782 1.844 1.844 0 0 0 .91-.778ZM83.1 53.81a.273.273 0 0 1-.167.103c-.008-.088-.008-.088.072-.183s.24-.286.335-.206c.2.163-.151.194-.231.289Zm-.415.3-.015-.174c.088-.008.088-.008.095.08Zm-4.312 1.172a2.586 2.586 0 0 1 .975-.968 2.054 2.054 0 0 1-.967.972Zm3.832-.6-.007-.087c.087-.008.167-.103.255-.11Zm-73.542 7.22c-.08.096-.072.184-.152.28l.24-.287Zm68.087-4.977c.24-.286.4-.476.659-.499a1.388 1.388 0 0 1-.65.503ZM59.237 59.52l.096.08-.008-.088c-.008-.087-.095-.08-.088.008Zm-13.681 2.079a1.12 1.12 0 0 1 .62-.938 2.55 2.55 0 0 1-.62.938Zm28.54-1.792a4.63 4.63 0 0 1 1.631-1.555 3.513 3.513 0 0 1-1.63 1.56Zm4.649-1.377-.088.007c-.087.008-.095-.08-.015-.175l.175-.015a.307.307 0 0 0-.072.187ZM37.08 68.692a8.604 8.604 0 0 1 2.441-3.392 5.449 5.449 0 0 1 1.824-2.367 6.883 6.883 0 0 1-1.824 2.367 10.448 10.448 0 0 1-2.44 3.396Zm6.864-5.28a1.018 1.018 0 0 1 .385-.652l.095-.008.096.08a1.183 1.183 0 0 1-.572.584Zm28.41-1.33c-1.928 2.2-3.775 4.303-5.702 6.502l-.488.485a28.698 28.698 0 0 1-3.37 3.914 12.045 12.045 0 0 1 3.37-3.914 5.29 5.29 0 0 1 .69-1.209l1.591-1.993a3.827 3.827 0 0 1 .473-.66 16.931 16.931 0 0 0 2.75-2.889 2.312 2.312 0 0 1 1.157-.896Zm3.668-.497.008.087Zm-35.307 6.263-.038-.438-.503.309c.065-.27.137-.453.503-.309a5.041 5.041 0 0 0 .88-1.048 6.753 6.753 0 0 1 1.44-1.715 10.476 10.476 0 0 1-2.282 3.201Zm33.437-4.334.088-.008c-.008-.087.072-.183.152-.278Zm-.152.278.24-.286c-.08.096-.16.191-.248.199Zm0 0c-.088.008-.168.103-.248.198Zm-.88 1.048c.08-.095.16-.19.152-.278Zm-37.064 5.27a1.915 1.915 0 0 1 .545-.843 1.4 1.4 0 0 1-.545.843Zm49.459-4.94a1.25 1.25 0 0 1-.13.541l.218-.548Zm-50.548 6.624a2.15 2.15 0 0 1-.704 1.033 2.191 2.191 0 0 1-.857 1.311 2.764 2.764 0 0 1 .857-1.31 2.15 2.15 0 0 1 .704-1.034 2.543 2.543 0 0 1 .937-1.406c-.122.629-.537.93-.937 1.406Zm-12.44.116c-.008-.088-.015-.175.072-.183l-.015-.175a.086.086 0 0 0-.08.095Zm15.656.31c.08-.096.073-.183.16-.19-.087.007-.167.102-.247.197ZM22.056 74.6l-.088.008a2.568 2.568 0 0 1-.106.804Zm12.871 1.785a1.943 1.943 0 0 1 .777-1.215 2.252 2.252 0 0 1-.777 1.22Zm-2.995.086a2.499 2.499 0 0 1-.613 1.024 1.362 1.362 0 0 1 .613-1.024 1.417 1.417 0 0 1 .297-.645.89.89 0 0 1-.296.649Zm51.242-4.743a1.923 1.923 0 0 1-.415.302c.278.156.343-.11.415-.298ZM65.583 73.53c-.08.096-.16.19-.248.199l.008.087Zm-5.401 2.86a4.484 4.484 0 0 1-1.497 2.078 5.049 5.049 0 0 1 1.497-2.074 7.261 7.261 0 0 1 1.656-2.264 4.767 4.767 0 0 1-1.656 2.26Zm-9.34-.773.088-.008-.08.096Zm-21.087 4.227a1.486 1.486 0 0 1-.137.453 24.006 24.006 0 0 1-2.56 4.02l-.007-.087a15.84 15.84 0 0 1 2.707-4.387 1.77 1.77 0 0 1 .705-1.033 1.168 1.168 0 0 1 .613-1.024 1.844 1.844 0 0 1-.613 1.024 2.046 2.046 0 0 1-.708 1.034Zm19.96-.95a6.108 6.108 0 0 1 .34-1.177.273.273 0 0 1 .167-.103c.175-.015.19.16.198.247a29.88 29.88 0 0 0-.75 2.538 23.909 23.909 0 0 0-.772 2.275 2.43 2.43 0 0 1-.465.743 4.415 4.415 0 0 1 .084-1.067c.426-1.18.765-2.358 1.199-3.456Zm13.404-2.23-.152.278c.08-.096.16-.19.152-.278Zm-.152.278c-.088.007-.168.103-.248.198Zm-.728.766c-.072.183-.152.278-.137.453.08-.091.065-.266.138-.45Zm-3.851 1.396a27.224 27.224 0 0 1-2.913 4.06 10.502 10.502 0 0 1 .575-1.464l-.023-.263a3.064 3.064 0 0 1 1.032-1.326 18.425 18.425 0 0 0 1.386-1.357.529.529 0 0 1-.057.354Zm19.672-1.185c-.065.27-.313.469-.32.381a.659.659 0 0 1 .05-.446l.304-.556a1.3 1.3 0 0 0-.034.62Zm-47.013 4.637a1.21 1.21 0 0 1 .62-.937 2.234 2.234 0 0 1-.616.937Zm28.55-1.7a1.417 1.417 0 0 1-.297.645l-.263.023a.323.323 0 0 1 .064-.27c.168-.104.328-.294.495-.397l-.022-.26.263-.022Zm17.724-1.283-.088.008c-.007-.088-.007-.088.08-.096Zm-50.963 5.865a1.368 1.368 0 0 1 .465-.743 1.368 1.368 0 0 1-.465.743Zm2.61.567c-.335.206.202-.72 1.009-1.593a3.262 3.262 0 0 1-1.009 1.593Zm19.059-1.224a1.852 1.852 0 0 1 .338-1.177 1.852 1.852 0 0 1-.338 1.177 2.592 2.592 0 0 1-.339 1.178 1.852 1.852 0 0 1 .335-1.177Zm-21.908.947a1.915 1.915 0 0 1-.378.736 1.388 1.388 0 0 1 .378-.736Zm31.928-2.436a.879.879 0 0 1-.407.389l.202-.72c.175-.02.365.136.205.327Zm-3.673 1.465a4.616 4.616 0 0 1-1.325 2.058 3.646 3.646 0 0 1 1.325-2.058 1.565 1.565 0 0 1 .613-1.025 2.499 2.499 0 0 1-.613 1.025Zm-28.629 1.799a2.4 2.4 0 0 1-.62.937 1.21 1.21 0 0 1 .624-.942Zm-1.698 2.797a1.367 1.367 0 0 1-.465.743 2.777 2.777 0 0 1-.833 1.578 1.768 1.768 0 0 1-.29.728c-.605 1.112-1.13 2.218-1.747 3.243l-.72.858a.9.9 0 0 1-.377.735 1.915 1.915 0 0 1 .377-.735 3.252 3.252 0 0 1 .354-1.003l1.763-3.064a2.677 2.677 0 0 1 .636-.758 2.492 2.492 0 0 1 .834-1.578 1.116 1.116 0 0 1 .041-.533l-.087.008a1.25 1.25 0 0 0 .51-.222 3.01 3.01 0 0 1 1.081-1.772 3.01 3.01 0 0 1-1.073 1.768Zm22.884-.851a1.456 1.456 0 0 1 .339-1.178 1.852 1.852 0 0 1 .338-1.177 1.852 1.852 0 0 1-.338 1.177 1.852 1.852 0 0 1-.335 1.173Zm-28.843 1.28a.086.086 0 0 1 .095.08l-.057.358c.008.087-.08.095-.175.015l-.008-.088c-.007-.087.073-.183.065-.27a.086.086 0 0 1 .08-.096Zm8.425.411c-.08.096-.168.103-.16.19a3.165 3.165 0 0 1-.914 1.67c.114-.712.114-.712.914-1.67l-.023-.258a.687.687 0 0 1 .32-.381c.083-.012.099.164-.141.45Zm25.314-1.329A24.775 24.775 0 0 1 50 92.203a.323.323 0 0 1-.256.11 2.1 2.1 0 0 1 .194-.811 18.416 18.416 0 0 1 1.885-2.637 1.209 1.209 0 0 1 .378-.736 1.915 1.915 0 0 1-.378.736ZM44.63 96.47a6.874 6.874 0 0 1-.81 1.837l.14-1.425.216-.549-.262.023c-.046-.526.369-.827.59-1.288l.007.092c.567-1.555 1.055-3.094 1.538-4.638a6.874 6.874 0 0 1 .81-1.837 2.342 2.342 0 0 1-.17 1.075Zm29.774-7.9.03.351c-.087.008-.08.095-.16.19l-.023-.262c.08-.095.16-.19.153-.278a2.786 2.786 0 0 1 .41-1.36 2.016 2.016 0 0 1-.41 1.36ZM53.61 90.122a1.388 1.388 0 0 1 .377-.735 1.915 1.915 0 0 1-.377.735ZM14.82 92.893c.183.072.023.263.03.35l-.16.19-.015-.175a.457.457 0 0 1 .149-.366Zm38.334-1.937c.008.088-.088.008-.088.008a.086.086 0 0 1-.095-.08 2.371 2.371 0 0 1 .643-.675 1.093 1.093 0 0 1-.46.747Zm-38.517 2.836a5.135 5.135 0 0 1-.528 1.988 4.641 4.641 0 0 1 .528-1.988Zm2.454-.215c.088-.007.175-.015.103.168l-.08.095c-.095-.08-.095-.08-.103-.168a.086.086 0 0 1 .08-.095Zm60.314-5.005-.008-.087-.08.095ZM24.594 93.54c-.088.007-.08.095-.168.103-.008-.088-.008-.088.072-.183-.007-.088.08-.095.088-.008.087-.008.008.088.008.088ZM23.23 96.13c-.69 1.208-1.371 2.504-2.148 3.72s-1.37 2.504-2.06 3.712l-3.632 6.94a5.69 5.69 0 0 1-.628.85l-.175.015c-.096-.08-.096-.08-.103-.168a1.25 1.25 0 0 1 .13-.54c.376-.736.753-1.48 1.138-2.131 1.59-2.969 3.194-5.842 4.797-8.72.224-.46.449-.922.681-1.295a3.905 3.905 0 0 0 .613-1.025 8.924 8.924 0 0 1 1.207-2.402 1.215 1.215 0 0 1 .328-.293c-.008-.088.175-.015.175-.015a.273.273 0 0 1 .103.167 1.964 1.964 0 0 1-.426 1.185Zm53.618-5.833c.008.088.096.08.088-.007a.307.307 0 0 1 .072-.183c-.087.008-.08.095-.167.103Zm-3.729 2.799a.665.665 0 0 1-.057.358l-.08.095-.015-.175c-.008-.088.072-.183.152-.278a2.553 2.553 0 0 1 .404-1.448 4.286 4.286 0 0 1-.404 1.448Zm-21.904.942c-.08.096-.175.016-.183-.072l.08-.095a.529.529 0 0 0 .343-.119Zm-.77 1.304c-.175.015-.19-.16-.11-.256l-.023-.262.263-.023a.323.323 0 0 1 .11.255c.008.087-.056.358-.24.286Zm-37.391 4.591a2.372 2.372 0 0 1 .395-1.54 2.33 2.33 0 0 1-.395 1.54Zm4.37.501.24-.285 1.497-2.074a16.505 16.505 0 0 1-1.565 3.316 7.93 7.93 0 0 1-.712.945l.008.088a1.272 1.272 0 0 1-.229-.599c.221-.549.259-1.082.762-1.39Zm31.986-2.794a2.093 2.093 0 0 1-.689 1.208c.008.087-.168.103-.175.015-.088.008-.095-.08-.103-.167a1.872 1.872 0 0 1 .967-1.056 1.4 1.4 0 0 1 .59-1.288 5.609 5.609 0 0 1-.59 1.288Zm-33.055 5.714a.307.307 0 0 1 .072-.183 4.88 4.88 0 0 1 .465-.743 2.117 2.117 0 0 1-.465.743l.016.175c-.08.091-.08.091-.172.1a.086.086 0 0 1 .084-.092Zm30.695-1.358-.176.015a.307.307 0 0 0-.103-.167c.217-.549.347-1.09.85-1.399.251-.198-.095.891-.571 1.551Zm-34.878 1.988-.217.549a1.717 1.717 0 0 1 .034-.621.886.886 0 0 1 .064-.27c.271.064.111.254.119.342Zm60.818-1.252c.072-.183-.03-.35.13-.541.293.327.038.438-.13.54Zm59.514-22.242a3.005 3.005 0 0 1-.393-1.471.54.54 0 0 0-.835-.457c-.838.515-1.882.694-2.728 1.121a11.932 11.932 0 0 1-2.495.748 12.885 12.885 0 0 0-3.509 1.278.647.647 0 0 1-.51.221 38.21 38.21 0 0 0-4.1 1.595l-3.325 1.354a31.075 31.075 0 0 0-3.916 1.667 11.748 11.748 0 0 1-1.524.75c-.773.245-1.051.093-1.2-.597l-.462-2.263a5.838 5.838 0 0 0-.68-1.707 1.246 1.246 0 0 0-1.295-.681 7.012 7.012 0 0 0-1.292.377l-2.975 1.32a46.324 46.324 0 0 0-4.762 2.094 21.27 21.27 0 0 1-3.078 1.152 11.718 11.718 0 0 0-1.627.583 10.466 10.466 0 0 1-2.312.82 2.874 2.874 0 0 1-1.494.131c-.358-.057.114-.712-.515-.838 2.875-4.49 1.808-4.573 1.945-5.026a2.723 2.723 0 0 0-.233-1.658c-.221-.51-.667-.56-1.074-.17l-.152.193c-1.379 1.445-4.836 7.31-4.93 9.261a4.067 4.067 0 0 0 .55 2.248 2.222 2.222 0 0 0 2.13 1.138 16.538 16.538 0 0 0 3.577-.489 54.125 54.125 0 0 0 7.452-2.59 65.666 65.666 0 0 0 6.812-2.89 5.372 5.372 0 0 1 1.116-.363.88.88 0 0 1 1.048.88 1.446 1.446 0 0 1-.605 1.112 2.205 2.205 0 0 1-.583.404 58.296 58.296 0 0 0-4.933 3.169c-.08.095-.16.19-.247.198a40.921 40.921 0 0 0-5.075 3.618c-2.727 2.093-5.462 4.19-7.995 6.526-.903.782-1.71 1.655-2.612 2.436a31.863 31.863 0 0 0-3.41 3.477 7.997 7.997 0 0 1-1.702 1.738 2.75 2.75 0 0 0-.895.873 11.99 11.99 0 0 1-1.92 2.287 10.542 10.542 0 0 0-.871 1.136c-1.265 1.7-2.441 3.392-3.698 5.18-.32.38-.45.922-.77 1.303a15.674 15.674 0 0 0-2.012 5.209 4.805 4.805 0 0 0 .05 1.585 13.544 13.544 0 0 0 1.068 3.174 2.844 2.844 0 0 0 1.159 1.135l.834.457a2.23 2.23 0 0 0 2.126.079 17.111 17.111 0 0 0 1.867-.866 46.482 46.482 0 0 0 11.79-8.624 16.893 16.893 0 0 0 1.207-1.342l-.697.061a1.915 1.915 0 0 1 .659-.499l.038.438a17.84 17.84 0 0 0 4.022-4.501.435.435 0 0 1 .034-.621c.24-.286.59-.317.925-.523a1.661 1.661 0 0 0 1.04-1.238 2.1 2.1 0 0 1 .514-1.193l2.369-3.21a9.317 9.317 0 0 1 .975-.968l.35-.03c.08-.095-.015-.175-.11-.255a3.299 3.299 0 0 1 .951-1.235 1.564 1.564 0 0 0 .553-.751 4.431 4.431 0 0 1 1.161-1.868 15.68 15.68 0 0 0 1.634-2.526c.597-1.2 1.294-2.41 1.884-3.697.666-1.471 1.42-2.95 1.991-4.5a5.091 5.091 0 0 1 2.742-2.982c1.364-.56 2.705-1.384 4.156-1.952 3.57-1.637 7.227-3.193 10.998-4.493 1.116-.363 2.137-.805 3.246-1.255a14.23 14.23 0 0 0 3.462-1.808 2.186 2.186 0 0 1-.689.149c-.343.118-.583.404-.949.26.137-.454.496-.397.838-.516a4.96 4.96 0 0 1 1.021-.442 2.205 2.205 0 0 0 .583-.404.979.979 0 0 0 .312-1.436Zm-2.095.271a6.786 6.786 0 0 1-2.225.813l-.175.015c-.096-.08-.191-.16-.199-.248-.095-.08-.023-.262.153-.278a1.25 1.25 0 0 1 .51-.221c.606-.141 1.22-.195 1.825-.336l.19.16a.086.086 0 0 0-.08.095Zm-25.768 3.223c-.08.095-.08.095-.167.103-.008-.088.08-.095.167-.103-.007-.088.08-.095.168-.103-.08.095-.08.095-.168.103Zm17.02-.251a4.881 4.881 0 0 1 1.883-.694c-.663.5-.663.5-1.882.694Zm-24.68 3.481a1.68 1.68 0 0 1-.675.324c.057-.358.416-.301.667-.412l.175-.015c-.091.008-.084.096-.171.103Zm19.66-1.365a.529.529 0 0 1-.343.119c.08-.096.16-.19.248-.199a.665.665 0 0 1 .342-.118c.107.256-.164.187-.252.195Zm-26.914 4.295c-.255.11-.495.396-.789.068.153-.278.423-.213.674-.323 1.284-.466 2.56-1.019 3.852-1.396a3.984 3.984 0 0 1 1.38-.386 29.106 29.106 0 0 1-3.487 1.54 9.343 9.343 0 0 1-1.63.497Zm-3.871.161c.175-.015.446.05.469.312s-.21.637-.393.565c-.35.03-.373-.233-.396-.496s.057-.358.32-.38Zm1.472 2.697a2.566 2.566 0 0 1-1.395.21c-.27-.064-.549-.217-.469-.312a.484.484 0 0 1 .423-.213l.438-.039a2.712 2.712 0 0 1 .884.011c.088-.007.271.065.279.153.095.08-.073.183-.16.19Zm14.385 5.013a3.566 3.566 0 0 1-.369.827 48.881 48.881 0 0 1-4.352 6.738c-1.264 1.7-2.712 3.327-4.064 5.035a18.373 18.373 0 0 0-1.584 2.08 13.254 13.254 0 0 1-1.855 2.013 4.834 4.834 0 0 1-.735.682 53.117 53.117 0 0 1-4.277 4.613l-3.755 3.506a3.414 3.414 0 0 1-.918.61 5.58 5.58 0 0 0-1.748 1.22 10.79 10.79 0 0 1-2.674 1.74 12.462 12.462 0 0 0-1.516.834c-.503.31-.854.34-1.235.02-.183-.072-.358-.057-.46-.225.151-.278.582-.404.36-.914-.205-.335.035-.621.275-.907l.807-.865c-.11-.256.042-.534.106-.804a15.066 15.066 0 0 1 1.546-2.52.33.33 0 0 0 .526-.046c.553-.75 1.295-1.349 1.386-2.328a2.1 2.1 0 0 1 .442-1.01 12.561 12.561 0 0 1 2.247-2.58 2.08 2.08 0 0 1 .864-1.224 5.33 5.33 0 0 0 1.607-1.818 6.888 6.888 0 0 1 1.63-1.555c.16-.19.415-.302.575-.492a1.931 1.931 0 0 0 1.7-.767 33.717 33.717 0 0 1 3.778-3.24 2.673 2.673 0 0 0 .575-.491 10.433 10.433 0 0 1 3.21-2.673c-.007-.088.08-.095.16-.19.896-.874 1.973-1.678 2.964-2.467.918-.61 1.74-1.3 2.659-1.91a21.044 21.044 0 0 1 1.74-1.3.387.387 0 0 1 .43-.126.582.582 0 0 1-.04.533Zm-3.686 13.39a2.332 2.332 0 0 0 .487-.484l-.087.008c-.069.182-.236.285-.396.476Zm-17.636 4.279-.526.046c.19.16.358.057.526-.046Zm-1.124 1.334.24-.286c-.08.095-.16.19-.247.198Zm-.32.381a.307.307 0 0 0 .168-.103l.152-.278c-.087.008-.167.103-.247.198-.084.008-.076.095-.069.183Zm6.765 3.648a1.544 1.544 0 0 1-.407.388 1.544 1.544 0 0 1 .407-.388 2.638 2.638 0 0 1 .808-.866 1.5 1.5 0 0 1-.804.865Zm-1.45 1.543a1.383 1.383 0 0 1 .887-.96 1.383 1.383 0 0 1-.887.96Zm-11.866 7.66c-.103-.168-.023-.263.145-.366l.503-.31a41.653 41.653 0 0 0 6.049-3.53l1.18-.633a9.201 9.201 0 0 0 1.917-1.315 5.912 5.912 0 0 1 1.005-.618 1.844 1.844 0 0 1 .903-.781 1.663 1.663 0 0 1-.815.773 8.227 8.227 0 0 1-3.051 2.474 6.832 6.832 0 0 1-2.118 2.04c-1.253.812-2.521 1.456-3.782 2.185l-.926.522c-.522.13-.705.058-1.01-.442Zm13.531-5.779a1.84 1.84 0 0 1-.495.397 3.35 3.35 0 0 0 .392-.564l.168-.103c.19.16.023.263-.065.27Zm-2.613 2.436a2.956 2.956 0 0 0-1.325 1l-.415.3a44.954 44.954 0 0 1-6.202 3.81 6.398 6.398 0 0 1-1.794.686.268.268 0 0 1-.35.03.14.14 0 1 1-.111-.255 8.136 8.136 0 0 1 .838-.514 40.267 40.267 0 0 0 9.039-5.647 3.905 3.905 0 0 0 .903-.781 1.465 1.465 0 0 1 1.364-.56 5.814 5.814 0 0 1-1.947 1.931Zm133.281-84.493c-.133-.518-.347-.941-.473-1.372a2.72 2.72 0 0 0-2.31-2.182 32.204 32.204 0 0 0-8.295-.953c-.438.038-.796-.019-1.234.02a7.697 7.697 0 0 0-1.418-.053c-2.118.008-4.157-.079-6.172.098-1.502.042-2.911-.011-4.405.12a3.354 3.354 0 0 1-1.322.027c-.9-.187-1.018-.53-.736-1.349.08-.095.065-.27.145-.366-.03-.35-.03-.35.24-.286a4.42 4.42 0 0 0 .99-.788c.24-.286.488-.485.457-.835.019-.796.605-1.113 1.192-1.517l.24-.286.4-.476a19.528 19.528 0 0 1 2.673-2.706 2.327 2.327 0 0 1 1.574-1.197.846.846 0 0 0 .742-.595c.05-.446.393-.564.735-.682a5.023 5.023 0 0 0 1.741-1.3c.16-.191.408-.39.377-.736.042-.533.457-.834.785-1.128a11.24 11.24 0 0 1 1.733-1.388l.008.088.24-.286a5.309 5.309 0 0 1 .636-.758c1.047-1.151 1.016-1.502.2-2.755a1.019 1.019 0 0 0-1.272-.418 16.402 16.402 0 0 0-1.676 1.03l-3.299 2.671c-1.135 1.16-2.373 2.15-3.603 3.225-1.885 1.67-3.588 3.404-5.29 5.142l-1.943 2.024a42.983 42.983 0 0 0-3.687 4.296 4.737 4.737 0 0 1-3.455 1.891 33.81 33.81 0 0 1-4.206.368 14.251 14.251 0 0 0-1.92.256 6.089 6.089 0 0 1-2.183.279 7.567 7.567 0 0 0-1.41.035c-.964.084-1.825.336-2.79.42-1.935.081-3.824.688-5.767.68a2.569 2.569 0 0 0-.774.245 15.047 15.047 0 0 1-3.395.561c-.35.031-.689.149-1.043.18-1.643.408-3.197.81-4.847 1.126-1.3.29-2.503.66-3.795 1.034l-6.685 2.173a15.936 15.936 0 0 0-2.648 1.026c-1.101.538-2.202 1.076-3.31 1.526a5.086 5.086 0 0 0-1.19.545c-.334.206-.574.492-.193.812a1.058 1.058 0 0 1 .236.682c.077.876.363 1.116 1.208.689l.175-.015a56.735 56.735 0 0 1 6.404-2.503 127.459 127.459 0 0 1 22.684-5.16c3.753-.505 7.514-.922 11.29-1.163l.964-.085c.175-.015.438-.038.548.217.103.168-.057.358-.495.397l-7.711.674c-2.71.325-5.41.737-8.028 1.142-2.263.375-4.519.837-6.694 1.203q-4.16.894-8.298 2.05c-2.834.866-5.677 1.732-8.492 2.861a3.084 3.084 0 0 0-1.18.633 9.343 9.343 0 0 0 1.633-.496c1.882-.694 3.677-1.38 5.662-1.907q4.257-1.3 8.8-2.359a211.04 211.04 0 0 1 10.6-1.985c4.015-.528 8.035-1.056 12.07-1.32l.788-.069a.5.5 0 0 1 .405.583 1.25 1.25 0 0 1-.13.541c-.712.945-1.432 1.803-2.231 2.756a11.753 11.753 0 0 0-1.592 1.993 19.037 19.037 0 0 1-3.2 3.812 3.286 3.286 0 0 0-.567.58 29.163 29.163 0 0 1-2.071 2.564 3.78 3.78 0 0 0-.713.946 12.02 12.02 0 0 1-1.824 2.366c-1.127 1.247-2.071 2.566-3.103 3.892-1.265 1.7-2.155 3.632-3.706 5.092l-.24.286c-1.16 1.867-2.418 3.655-3.579 5.522a12.572 12.572 0 0 0-1.074 1.86c-1.073 1.86-2.06 3.712-3.045 5.564a30.015 30.015 0 0 0-1.242 3.019 2.942 2.942 0 0 0 .024 2.294 15.162 15.162 0 0 0 .774 1.786 3.642 3.642 0 0 0 2.189 1.76 2.243 2.243 0 0 0 2.103-.184 25.1 25.1 0 0 0 3.9-1.846c1.612-.759 3.136-1.51 4.762-2.094a63.286 63.286 0 0 0 6.74-2.708 31.81 31.81 0 0 0 2.967-1.407l2.625-1.29c1.02-.441 2.034-.972 3.048-1.502.167-.103.422-.213.4-.476a2.499 2.499 0 0 0-1.11.45c-3.561 1.724-7.196 3.539-10.96 4.931a121.13 121.13 0 0 0-10.544 4.634c-.59.317-1.188.546-1.867.866a1.717 1.717 0 0 0-.605.14c-.088.009-.271-.064-.279-.151a.667.667 0 0 1 .145-.366l.766-.332c1.02-.442 2.034-.972 2.967-1.407 1.78-.858 3.562-1.724 5.353-2.41 3.166-1.16 6.228-2.487 9.284-3.902 1.874-.782 3.733-1.74 5.6-2.609a2.4 2.4 0 0 0 1.005-.617.52.52 0 0 0 .034-.621c-.095-.08-.198-.248-.373-.233-.255.11-.606.141-.861.252l-2.64 1.114a9.611 9.611 0 0 1-1.456.568l-.007-.083a1.418 1.418 0 0 1-.766.332l-.674.323a1 1 0 0 1-.674.324l-.766.332a2.07 2.07 0 0 1-.681.236 3.886 3.886 0 0 1-1.357.648l.393-.564a7.374 7.374 0 0 0-2.122.98c.087-.007.175-.015.183.073a.307.307 0 0 1-.168.103l-.023-.263a26.068 26.068 0 0 0-4.948 1.937c.088-.007.263-.023.19.16a.307.307 0 0 1-.167.103l-.023-.263a6.442 6.442 0 0 0-2.13.889l.789-.07a1.657 1.657 0 0 1 .681-.235 1.657 1.657 0 0 1-.681.236 1.418 1.418 0 0 1-.766.332l.088-.008a26.755 26.755 0 0 1-5.684 2.704l.48-.572c-.176.016-.263.023-.359-.057-.103-.167-.023-.262.057-.358l.674-.323a73.971 73.971 0 0 1 9.097-3.974c4.275-1.61 8.446-3.387 12.523-5.244.255-.111.502-.31.758-.42a.529.529 0 0 0 .057-.358c-.008-.088-.191-.16-.279-.152a.165.165 0 0 0-.263.023c-.86.251-1.817.423-2.67.763-1.787.774-3.593 1.373-5.36 2.322a10.289 10.289 0 0 1-1.715.592c-2.598.58-4.872 1.838-7.36 2.674l-.343.118a13.64 13.64 0 0 1-3.055 1.415 1.116 1.116 0 0 1-.518.133.353.353 0 0 1-.476-.4c-.031-.35.018-.796-.012-1.146l-.031-.35c.065-.271.145-.367.51-.222a1.782 1.782 0 0 0 .404-1.448.483.483 0 0 1 .304-.557c.336-.205.667-.411.728-.766-.19-.16-.301-.415-.053-.613a3.866 3.866 0 0 0 .913-1.67 5.335 5.335 0 0 1 2.137-2.835c.255-.11.327-.293.392-.564-.175.015-.278-.152-.118-.343l.32-.381.038.438a22.657 22.657 0 0 0 2.544-3.224 7.281 7.281 0 0 1 .849-1.399l3.663-4.559a5.307 5.307 0 0 1 .637-.758c.08-.095.16-.19.247-.198a3.035 3.035 0 0 1 .628-.85 3.348 3.348 0 0 1 .69-1.208c1.256-1.787 2.612-3.407 3.975-5.027.32-.381.735-.682 1.055-1.063l.24-.286a9.143 9.143 0 0 1 2.636-3.14l-.088.007a1.875 1.875 0 0 1 .792-1.04l1.23-1.08.088-.007a.684.684 0 0 1 .274-.907 2.75 2.75 0 0 0 .704-1.033c.153-.278-.133-.518.02-.796.144-.366.613-.053.853-.34l1.2-1.429c.08-.095.151-.278.056-.358-.213-.423.122-.629.377-.735a13.595 13.595 0 0 0 1.97-.702 3.57 3.57 0 0 1 1.634-.496c3.769-.33 7.655-.316 11.518-.565a2.993 2.993 0 0 1 .884.011c2.812-.157 5.56-.044 8.307.069a31.088 31.088 0 0 1 4.896.455 5.467 5.467 0 0 1 2.656 1.093 4.063 4.063 0 0 0 .667.56c.27.064.534.041.598-.23a2.81 2.81 0 0 0 .128-1.704Zm-12.183-23.219a.323.323 0 0 1 .27.065s.016.175-.072.183a3.65 3.65 0 0 1-1.66 1.205 5.76 5.76 0 0 1 1.462-1.453Zm-2.205 2.047a4.422 4.422 0 0 1-1.806 1.57 6.083 6.083 0 0 1 1.806-1.57Zm-2.045 1.857a1.368 1.368 0 0 1-.652.586 1.368 1.368 0 0 1 .652-.586Zm-.983.88a1.018 1.018 0 0 1-.575.492 1.018 1.018 0 0 1 .57-.491Zm1.163 2.195-.008-.088.088-.008c-.088.008-.088.008-.08.096Zm-9.49 5.597a4.97 4.97 0 0 1-1.934 2.112 6.242 6.242 0 0 1 1.935-2.112Zm-10.302 8.406a2.166 2.166 0 0 1-1.044.18l-7.624.665a.086.086 0 0 0 .095.08l7.712-.673c.095.08.183.072.19.16.016.175-.072.182-.16.19-.438.038-.78.157-1.131.187-4.127.272-8.318.815-12.425 1.35a61.31 61.31 0 0 0-7.92 1.31c-3.388.65-6.68 1.38-10.044 2.291a86.299 86.299 0 0 0-9.177 3.098l-.674.324c-.176.015-.336.206-.614.053-.095-.08.034-.62.29-.727a12.462 12.462 0 0 1 1.516-.835c2.903-1.137 5.91-2.106 9.01-2.995q4.4-1.18 9.087-2.118c2.423-.565 4.869-.867 7.395-1.265 4.008-.615 8.127-.975 12.15-1.415.964-.084 1.936-.08 2.896-.164a.672.672 0 0 1 .453.137c.088-.008.088-.008.095.08a.086.086 0 0 1-.076.087Zm33.107-.067-.08.095a4.698 4.698 0 0 1-1.951-.094c-.263.022-.454-.137-.712-.115-.534-.042-1.06.004-1.593-.037-3.894-.102-7.788-.203-11.743-.034-2.812.158-5.544.22-8.363.29a.659.659 0 0 1-.446-.05c-.088.008-.096-.08-.183-.072.08-.096.072-.183.16-.19l1.139-.1a2.186 2.186 0 0 0 .69-.149l-.79.069c-.357-.057-.86.252-1.161-.163.312-.47.765-.332 1.203-.37 2.725-.15 5.361-.292 8.006-.347 2.206-.016 4.42.056 6.713.032 2.031-.001 4.085.261 6.123.348a11.224 11.224 0 0 1 2.508.399l.46.224c.004.088.1.168.02.264Zm-51.456 2.288c.183.072.262-.023.35-.03l-.263.022Zm50.302-.333c-3.917-.36-7.891-.37-11.865-.376-2.111.096-4.134.184-6.245.28l-7.121.358c-.614.053-1.067-.084-.907-.274.145-.366.503-.31.853-.34 1.494-.13 3.067-.268 4.828-.333 3.52-.131 7.224-.19 10.927-.253a59.977 59.977 0 0 1 8.958.454 1.5 1.5 0 0 1 .621.034c.278.152.697-.06.922.45a1.21 1.21 0 0 1-.97 0Zm-33.788 3.393a2.678 2.678 0 0 1 .637-.758.955.955 0 0 1-.637.758Zm3.433-.123a.323.323 0 0 0-.255.11c.08-.095.16-.19.248-.198Zm-4.552 1.458a1.06 1.06 0 0 1-.4.476 1.06 1.06 0 0 1 .4-.476 1.552 1.552 0 0 1 .728-.766 1.074 1.074 0 0 1-.728.766Zm-40.033 4.733a2.124 2.124 0 0 0-1.283.466 2.623 2.623 0 0 0 1.283-.466Zm27.774 10.642c-.08.096-.24.286-.248.199-.183-.073.073-.183.153-.279.072-.183.16-.19.232-.373a.672.672 0 0 1-.133.453Zm-4.827 11.46c-.007-.088.072-.183.152-.278l-.24.285Zm11.898 5.76-.674.323.697-.06Zm-.674.323-.674.324.697-.061Zm-.674.324-.766.332.789-.07Zm-.766.332a1.657 1.657 0 0 1-.681.236l.697-.061Zm-.681.236-.941.347.964-.084Zm.697-.061.007.088a.086.086 0 0 1 .08-.096Zm-11.54 4.452.697-.06-.023-.264Zm-1.867.866a1.25 1.25 0 0 0 .51-.222 1.25 1.25 0 0 0-.51.226Zm0 0a6.06 6.06 0 0 0-.674.323Zm-1.448.656a1.922 1.922 0 0 1-.415.301l.503-.309Zm-1.1.538a2.719 2.719 0 0 0 .681-.237c-.247.11-.51.133-.677.24Zm72.74-66.93a5.69 5.69 0 0 0-.45-1.11.662.662 0 0 0-.653-.384 2.173 2.173 0 0 0-.758.42l-1.462 1.452a31.522 31.522 0 0 1-2.342 2.5 9.415 9.415 0 0 0-1.295 1.35c-.568.58-1.048 1.151-1.527 1.723-.808.865-1.528 1.723-2.247 2.58-.48.572-.96 1.144-1.447 1.632a18.135 18.135 0 0 0-2.087 2.39l-1.116 1.333c-1.215 1.254-2.415 2.684-3.621 4.03-2.023 2.119-3.855 4.398-5.877 6.517-2.422 2.596-4.635 5.523-7.156 8.043-.488.484-.88 1.048-1.371 1.532a57.203 57.203 0 0 0-4.247 4.963c-1.927 2.2-3.473 4.719-5.495 6.838-.08.095-.248.198-.32.381a13.52 13.52 0 0 1-1.348 1.796 33.846 33.846 0 0 0-2.136 2.835c-.553.751-1.017 1.502-1.657 2.264a12.738 12.738 0 0 0-1.356 1.708c-1.104 1.51-2.12 3.011-3.138 4.513a4.844 4.844 0 0 0-.681 1.296 2.016 2.016 0 0 0-.038 1.592 6.133 6.133 0 0 1 .672 1.62 2.4 2.4 0 0 0 .713 1.085 2.599 2.599 0 0 0 3.383.322c.088-.007.168-.103.255-.11q2.406-1.27 4.789-2.803a78.562 78.562 0 0 1 7.28-4.61 25.702 25.702 0 0 1 4.41-2.062c.08-.096.168-.103.343-.119.343-.118.55.217.58.568a2.642 2.642 0 0 1-.442 1.01c-.361.914-.818 1.749-1.271 2.672a3.012 3.012 0 0 0-.27 1.966 17.614 17.614 0 0 0 .534 2.072 1.605 1.605 0 0 0 1.334 1.12c.358.057.705.027.667.56.016.175.278.152.454.137a4.144 4.144 0 0 0 1.463-.481c3.055-1.415 5.912-3.078 8.872-4.572a67.815 67.815 0 0 1 7.821-3.51c1.97-.701 3.932-1.49 5.806-2.273.518-.133.51-.22.282-.819a1.25 1.25 0 0 1 .129-.541c.13-.541.099-.892-.363-1.116a2.609 2.609 0 0 0-1.368-.499c-.335.206-.765.332-.712.945-.072.183-.327.294-.583.404l-2.144.718c-2.225.812-4.362 1.617-6.404 2.502a7.328 7.328 0 0 1-1.284.465 7.271 7.271 0 0 1 1.085-.713 4.55 4.55 0 0 0 1.094-.625 12.832 12.832 0 0 0-3.734 1.739 6.79 6.79 0 0 1 1.3-.29 10.196 10.196 0 0 1-3.383 1.708 1.827 1.827 0 0 1-1.014.53 1.544 1.544 0 0 1 .313-.469 3.576 3.576 0 0 0-1.604.843l.697-.061a3.27 3.27 0 0 1-1.596.934 7.697 7.697 0 0 1-2.187 1.25c-.088.009-.095-.08-.183-.071-.008-.088.072-.183.065-.271.167-.103.247-.198.415-.301a3.468 3.468 0 0 0 1.189-.546 2.568 2.568 0 0 0-1.189.546c-.19-.16-.294-.328-.046-.526a1.768 1.768 0 0 1 .666-.411c2.873-1.488 5.737-3.062 8.705-4.474a71.703 71.703 0 0 1 9.139-3.535 7.697 7.697 0 0 1 1.387-.298l.32-.381c.415-.302.297-.644.018-.797-.476-.4-.743-.465-1.25-.155a9.657 9.657 0 0 1-2.982 1.231 16.343 16.343 0 0 0-3.593 1.374 9.865 9.865 0 0 1-1.101.538 18.859 18.859 0 0 0-4.594 1.99 80.683 80.683 0 0 1-4.556 2.43c-.59.316-.869.164-1.018-.53l-.038-.438c-.072.183-.24.286-.4.477-.08.095-.24.285-.335.206-.183-.073-.11-.256-.039-.439.225-.46.362-.914.59-1.287a2.645 2.645 0 0 0-.18-3.075 18.614 18.614 0 0 0-1.125-1.756 2.799 2.799 0 0 0-2.305-1.123 4.282 4.282 0 0 0-1.044.18c-2 .35-3.677 1.38-5.559 2.074-.255.11-.495.397-.75.507a5.38 5.38 0 0 1-1.013.53 17.573 17.573 0 0 0-3.79 2.098 2.526 2.526 0 0 1-2.408.74 7.104 7.104 0 0 1 2.224-2.844l.24-.285-.088.007.24-.286c.384-.651.689-1.208 1.161-1.867 1.744-2.272 3.488-4.543 5.324-6.823a18.036 18.036 0 0 1 2.735-3.065 5.863 5.863 0 0 1 2-2.382l.239-.286.008.088a1.386 1.386 0 0 1 .56-.667 3.826 3.826 0 0 1 .582-.404l-.023-.263A2.599 2.599 0 0 1 198.514 56c.495-.397.521-1.106 1.024-1.414.08-.096.248-.199.328-.294l.727-.766a16.334 16.334 0 0 1 2.335-2.588l.937-1.406a1.385 1.385 0 0 1 .56-.667 3.662 3.662 0 0 0 1.527-1.723 1.751 1.751 0 0 1 .605-1.113c.16-.19.225-.461.384-.652a9.432 9.432 0 0 1 2.335-2.588c.08-.095.183.073.286.24a5.367 5.367 0 0 0 1.512-1.898c-.08.095-.16.19-.248.198l-.263.023-.015-.175a7.108 7.108 0 0 1 1.28-1.525.33.33 0 0 1 .525-.045c.336-.206.846-.428.808-.866a1.247 1.247 0 0 1 .506-1.28c1.432-1.803 2.872-3.518 4.311-5.233a7.597 7.597 0 0 0 1.127-1.247c.785-1.128 1.76-2.096 2.636-3.14a2.077 2.077 0 0 1 .743-.595 7.897 7.897 0 0 1 2.727-3.148l-.088.008a19.318 19.318 0 0 0 1.09-1.685 12.93 12.93 0 0 0 .776-1.216 1.514 1.514 0 0 0 .11-1.077Zm-4.059 7.069-.015-.175-.176.015a.667.667 0 0 1-.335.206l.039.438a2.332 2.332 0 0 0 .487-.484Zm-11.94 13.935c.088-.008.168-.103.248-.198-.087.007-.167.103-.247.198Zm-13.106 10.678a2.046 2.046 0 0 1-.99.789 5.126 5.126 0 0 1 1.854-2.017 6.057 6.057 0 0 1-.86 1.231Zm-7.664 14.356-.248.198.008.088ZM184.65 67.9l-.176.016-.007-.088a1.052 1.052 0 0 1 .56-.667 1.209 1.209 0 0 1-.377.74Zm6.396 5.446a25.331 25.331 0 0 1 4.266-1.697 2.824 2.824 0 0 1 1.22-.195c.175-.016.19.16.293.327.015.176-.065.27-.232.374a.672.672 0 0 1-.423.213 69.602 69.602 0 0 0-13.013 6.7 4.041 4.041 0 0 1-1.349.736c.073-.183.057-.358.13-.54a6.897 6.897 0 0 1-1.772.949l-.087.007-.008-.087a2.4 2.4 0 0 1 .983-.88 114.24 114.24 0 0 1 9.992-5.907Zm-6.196-.161-.175.015.015.175Zm-.152.278-.008-.088-.08.096Zm7.925-.251a2.569 2.569 0 0 0 .774-.244c-.26.107-.523.13-.778.24Zm-2.537 1.281a1.25 1.25 0 0 0-.51.222l.007.087.08-.095Zm5.598.394a47.963 47.963 0 0 0-9.718 5l-6.194 3.896a9.533 9.533 0 0 1-1.604.843 1.25 1.25 0 0 1-.51.22.189.189 0 0 1-.191-.16c-.088.009-.016-.174-.016-.174l.583-.404a70.934 70.934 0 0 0 6.948-4.32 53.314 53.314 0 0 1 9.874-5.278 4.624 4.624 0 0 1 1.463-.481.233.233 0 0 1 .286.24c-.08.095-.072.183-.16.19-.263.116-.51.314-.766.425Zm-7.202.453-.502.309c-.176.015-.256.11-.423.213.167-.103.343-.118.51-.221a1.923 1.923 0 0 1 .411-.305Zm28.767-2.249a.273.273 0 0 1 .167-.103l-.175.016Zm-.255.111.087-.008a.273.273 0 0 1 .168-.103l-.176.016c-.091.004-.18.011-.084.091Zm-2.576.843c.343-.118.598-.229.941-.347Zm-1.627.584a1.657 1.657 0 0 0 .682-.236Zm-.94.347a2.005 2.005 0 0 0 .94-.347Zm-1.448.656a3.066 3.066 0 0 0 1.447-.656 4.331 4.331 0 0 0-1.448.652Zm-12.327 8.49c3.143-1.422 6.167-3.187 9.295-4.785a94.438 94.438 0 0 1 11.589-4.81.957.957 0 0 1 .43-.126.457.457 0 0 1 .366.145.189.189 0 0 1-.16.19 1.952 1.952 0 0 1-.926.523c-2.05.797-4.194 1.514-6.236 2.4a53.285 53.285 0 0 0-6.366 2.94c-2.45 1.273-4.796 2.714-7.348 3.82a.672.672 0 0 1-.423.214c-.343.118-.583.404-.949.26-.278-.153.05-.446.728-.77Zm-14.299-5.99a1.25 1.25 0 0 0 .51-.222c-.167.103-.342.118-.51.221Zm0 0a1.922 1.922 0 0 1-.415.3l.503-.309Zm-.415.3-.503.31a1.923 1.923 0 0 1-.415.3l.503-.309a1.922 1.922 0 0 1 .415-.3Zm-1.433.828a1.25 1.25 0 0 0 .51-.221c-.162.106-.338.122-.51.225Zm24.736-1.896a3.084 3.084 0 0 0-1.181.633 3.084 3.084 0 0 0 1.185-.63ZM179.28 81.26a5.798 5.798 0 0 1 2.019-1.147 5.221 5.221 0 0 1-1.909 1.403.273.273 0 0 1-.183-.073s-.01-.175.077-.183Zm24.601-2.414.697-.06.991-.79a3.126 3.126 0 0 0-1.684.85Zm-3.2 1.785.698-.061a9.35 9.35 0 0 1 .895-.873 4.534 4.534 0 0 0-1.684.942Zm53.682-11.233a.937.937 0 0 0-.107-1.227c-.279-.152-.31-.503-.42-.758-.229-.598-.507-.75-1.097-.434l-.926.523a1.586 1.586 0 0 1-1.029.354 9.915 9.915 0 0 0-1.554.401 5.142 5.142 0 0 1-1.65.32 21.569 21.569 0 0 0-2.35.383l-4.973.7a29.743 29.743 0 0 1-3.95.256c-3.529.044-6.913-.279-10.068-2.03-.556-.305-.82-.282-1.204.37s-1.078.797-1.756 1.125l-.175.015-.286-.24a.323.323 0 0 1 .065-.27c-.008-.088.08-.096.167-.103.16-.191.51-.222.488-.485-.015-.175-.381-.32-.72-.202a2.892 2.892 0 0 0-1.692.85 20.927 20.927 0 0 0-3.264 4.083 5.708 5.708 0 0 0-.92 3.612 25.073 25.073 0 0 0 .485 2.519 5.042 5.042 0 0 0 6.303 3.422 11.536 11.536 0 0 0 3.966-2.112c.335-.206.933-.435.442-1.01-.088.008-.016-.175.064-.27.628-.85 1.356-1.708 1.897-2.55a11.748 11.748 0 0 0 .475-1.631c.297-.644.553-.751 1.261-.729.183.073.446.05.712.115a24.91 24.91 0 0 0 3.567.39 16.243 16.243 0 0 0 5.448-.299c1.57-.225 3.22-.546 4.797-.684a10.352 10.352 0 0 0 4.457-1.537 14.51 14.51 0 0 1 3.033-1.678c.43-.126.853-.34.529-1.018Zm-16.341 1.958c1.92-.256 3.832-.6 5.76-.769 1.486-.218 2.957-.523 4.431-.828a7.357 7.357 0 0 0 2.656-.935 3.81 3.81 0 0 1 .43-.126c.08-.095.256-.11.263-.022.103.167.023.262-.064.27a4.96 4.96 0 0 1-1.021.442 2.551 2.551 0 0 0-1.246.904c-.152.278-.327.294-.583.404a3.126 3.126 0 0 1-.86.252c-2.096.271-4.176.718-6.375.822a.869.869 0 0 1-.541-.13l2.454-.214a.665.665 0 0 0-.72-.202l-3.685.322c-.35.03-.796-.019-1.234.02a.35.35 0 0 1 .335-.206Zm-10.92 2.37c-.16.191-.224.462-.384.652a8.714 8.714 0 0 1-2.917 2.993 5.062 5.062 0 0 1-2.934.786c-.526.046-.636-.21-.594-.743a9.75 9.75 0 0 1 .643-1.734c.16-.19.057-.358-.119-.343a3.706 3.706 0 0 1 1.642-2.44l.982-.88a4.88 4.88 0 0 1 .651-.586.992.992 0 0 1 1.418.052l1.46 1.55a.664.664 0 0 1 .153.694Zm21.165-3.354-.095-.08a.307.307 0 0 0-.168.103l.263-.023Zm-1.825.336-1.402.123.007.087 1.403-.122Zm4.672.917a9.081 9.081 0 0 1-4.187 1.606c-2.095.271-4.183.63-6.286.814a6.987 6.987 0 0 1-1.936.08c-.263.024-.613.054-.812-.193a2.231 2.231 0 0 1 1.037-.267c2.366-.207 4.629-.582 6.987-.876.869-.164 1.738-.328 2.599-.58a8.387 8.387 0 0 0 2.297-.996c.423-.213.822-.69 1.371-.473-.224.462-.743.595-1.07.889Zm-20.89 5.537a1.25 1.25 0 0 1 .13-.54l-.175.015Zm-.16.191.008.088c-.007-.088.073-.183.153-.279-.076.095-.164.103-.156.19Zm-7.207 2.396a.323.323 0 0 1-.27-.065c-.089.008-.176.015-.191-.16-.008-.087-.016-.175.072-.183a9.638 9.638 0 0 1 2.232-.725 6.713 6.713 0 0 1-.903.782l.614-.054a.086.086 0 0 1 .095.08l.008.088a1.705 1.705 0 0 1-1.555.4.307.307 0 0 1-.098-.164Zm3.452 1.111a1.825 1.825 0 0 1-.83.602 5.549 5.549 0 0 1-1.89.607l-.171.015c-.095-.08-.183-.072-.19-.16s-.016-.175.072-.183l.247-.198c.766-.332 1.456-.569 2.13-.889a1.116 1.116 0 0 0 .518-.133s.183.072.19.16c0-.008.016.171-.072.179Zm65.462-12.784c-4.056 3.092-8.414 5.769-12.478 8.773a16.822 16.822 0 0 1-2.679 1.643 10.396 10.396 0 0 1-2.655.934c-.088.008-.27-.065-.278-.152a.307.307 0 0 1 .072-.183 9.866 9.866 0 0 1 1.1-.538 17.623 17.623 0 0 0 3.376-1.8c1.333-.911 2.673-1.739 4-2.734 1.908-1.402 3.911-2.725 5.915-4.048 1.166-.805 2.41-1.716 3.664-2.528a7.61 7.61 0 0 0 .823-.69.76.76 0 0 0 .217-.549.558.558 0 0 0-.564-.392 1.5 1.5 0 0 0-.606.141c-.423.214-.758.42-1.18.633l-4.759 3.153a3.61 3.61 0 0 1-1.44.744 7.92 7.92 0 0 1-2.817 2.024l.217-.548a2.508 2.508 0 0 0-1.166.804l.941-.347a1.06 1.06 0 0 1-.4.476c-1.573 1.197-3.146 2.394-4.818 3.423a8.01 8.01 0 0 1-3.978.966.307.307 0 0 1-.103-.168.273.273 0 0 1 .073-.183l.422-.213a28.043 28.043 0 0 0 5.985-3.26c1.086-.713 2.164-1.514 3.242-2.314a91.594 91.594 0 0 1 8.685-5.704 1.923 1.923 0 0 0 .415-.301c.167-.103.327-.294.224-.461-.023-.263-.206-.336-.468-.313a2.414 2.414 0 0 0-1.124.275 34.087 34.087 0 0 0-5.46 3.214c-1.755 1.125-3.32 2.41-5.077 3.535a1.84 1.84 0 0 0-.495.396 20.568 20.568 0 0 1-3.68 2.44 14.036 14.036 0 0 0-1.939 1.053 1.582 1.582 0 0 1-1.417-.053c-.183-.072-.294-.327-.126-.43a4.244 4.244 0 0 0 1.146-2.043c.506-1.28.925-2.553 1.526-3.754a1.086 1.086 0 0 0 .29-.727 1.66 1.66 0 0 1 .777-1.216 8.588 8.588 0 0 0 1.356-1.708.689.689 0 0 0-.085-.964c-.453-.137-.644-.297-.507-.75a1.009 1.009 0 0 0-.53-1.014 2.08 2.08 0 0 1-1.063-1.055 1.262 1.262 0 0 0-1.894-.452 1.564 1.564 0 0 0-.553.75 3.97 3.97 0 0 1-1.687 1.914c-1.493 1.102-2.986 2.203-4.384 3.385a13.288 13.288 0 0 1-1.508.927 56.191 56.191 0 0 0-5.06 2.738 8.044 8.044 0 0 1-1.173.72 2.844 2.844 0 0 1-1.47.394.67.67 0 0 1-.675-.644 7.806 7.806 0 0 1 .452-2.865 1.4 1.4 0 0 0-.622-2.065l-.285-.24a.935.935 0 0 0-1.155-.076 3.582 3.582 0 0 0-1.135 1.16 12.078 12.078 0 0 0-1.656 4.294 6.497 6.497 0 0 0 .161 1.84 8.686 8.686 0 0 0 1.266 2.362 3.188 3.188 0 0 0 3.563 1.367 12.857 12.857 0 0 0 3.086-1.065 12.462 12.462 0 0 0 1.517-.835c1.771-.95 3.546-1.899 5.306-2.936.175-.015.255-.11.423-.213a.469.469 0 0 1 .652.384 1.5 1.5 0 0 1-.034.621 2.569 2.569 0 0 1-.107.804 8.167 8.167 0 0 0 1.682 5.06 4.398 4.398 0 0 0 4.44 1.289 10.403 10.403 0 0 0 3.836-1.571c2.26-1.434 4.335-2.94 6.499-4.454 2.41-1.715 4.918-3.34 7.416-5.063.659-.499 1.238-.99 1.82-1.395a2.407 2.407 0 0 0 .313-.469 4.172 4.172 0 0 0-1.604.847Zm-21.894-2.06-.56.667-.503.309.526-.046a4.244 4.244 0 0 1-1.813 1.483 5.666 5.666 0 0 1-1.668 1.117c-1.433.827-2.857 1.662-4.293 2.406a4.96 4.96 0 0 1-1.021.442 2.1 2.1 0 0 1-1.189.545 2.1 2.1 0 0 1-1.188.546l-.675.324-.023-.267-1.291.377c.007.088-.088.008-.183-.072a.307.307 0 0 0 .072-.183l.423-.213a98.187 98.187 0 0 0 6.67-3.493 27.282 27.282 0 0 0 4.766-3.066l1.756-1.124c-.008-.088.168-.103.175-.016a.165.165 0 0 1 .02.264Zm-14.83 1.115c-.087.007-.087.007-.08.095-.007-.088-.015-.175.073-.183Zm34.99-.762.415-.3a1.922 1.922 0 0 0-.415.304Zm-1.014.53a1.25 1.25 0 0 1 .51-.22l.504-.31a1.25 1.25 0 0 1-.51.222Zm-.822.69-.088.008-.08.095c.08-.09.08-.09.168-.099Zm-.256.111.088-.008Zm.008.088-.008-.088-.502.309c.168-.099.343-.114.51-.217Zm-.51.22-.416.302a1.923 1.923 0 0 0 .416-.297Zm-1.425.92.503-.309a1.25 1.25 0 0 1-.51.222c.007.087-.08.095-.073.182a.086.086 0 0 1 .084-.091Zm-18.208 1.768a1.5 1.5 0 0 1-.83.602 51.746 51.746 0 0 1-3.703 2.09l-4.572 2.253a4.144 4.144 0 0 1-1.463.481c-.088.008-.175.016-.183-.072-.095-.08-.015-.175.073-.183a4.287 4.287 0 0 1 .933-.435c2.967-1.407 5.92-2.99 8.689-4.644a4.288 4.288 0 0 1 .933-.435.307.307 0 0 0 .183.072.323.323 0 0 1-.06.275Zm18.132-1.673a2.205 2.205 0 0 0-.583.404 2.205 2.205 0 0 0 .583-.4Zm-1.501 1.014a2.508 2.508 0 0 0-1.166.804l1.029-.354-.088.007a1.923 1.923 0 0 1 .225-.453Zm-1.078.797-.088.007a1.923 1.923 0 0 1-.415.302Zm-.503.309a1.915 1.915 0 0 0-.659.499 1.915 1.915 0 0 0 .66-.491Zm-11.27 2.397.088-.008.007.088c.008.088-.08.095-.087.008Zm8.939-.78-.416.3a1.922 1.922 0 0 0 .416-.293Zm-.416.3a1.915 1.915 0 0 0-.658.5 3.086 3.086 0 0 0 .66-.492Zm-.65.587-.008-.08-.502.31c.163-.103.338-.119.506-.222Zm-2.092 1.33.423-.213c-.178.028-.259.119-.426.222Zm-.918.61a1.922 1.922 0 0 0 .415-.3Zm52.41-9.515c-3.47 1.716-6.948 3.344-10.22 5.308-1.349.736-2.698 1.472-4.038 2.295-2.602 1.552-5.109 3.184-7.714 4.736-.176.015-.256.11-.343.118a.323.323 0 0 1-.27-.064s-.016-.176.072-.183c.742-.595 1.493-1.102 2.243-1.61 4.19-2.573 8.3-5.051 12.601-7.37 2.442-1.36 4.987-2.555 7.532-3.748a8.573 8.573 0 0 0 .925-.523.554.554 0 0 0 .202-.72.483.483 0 0 0-.556-.304 3.78 3.78 0 0 0-1.036.267l-3.829 1.659a6.988 6.988 0 0 1-1.882.694 1.544 1.544 0 0 1 .312-.469 6.702 6.702 0 0 0-1.706.68c-1.261.728-2.618 1.376-3.878 2.104a12.595 12.595 0 0 0-1.749 1.213l.697-.061-.415.3c-.168.104-.27-.064-.286-.24a6.676 6.676 0 0 0-1.531.665 4.74 4.74 0 0 1-1.78.857 4.061 4.061 0 0 1 1.246-.903c1.433-.828 2.765-1.655 4.205-2.399A61.345 61.345 0 0 1 328.26 63.3c.08-.096.255-.11.335-.206.167-.103.247-.198.232-.374a.687.687 0 0 0-.381-.32 1.228 1.228 0 0 0-.964.085l-1.38.385a32.304 32.304 0 0 0-6.213 2.662 44.33 44.33 0 0 1-5.306 2.936c-.168.103-.415.301-.583.404l-2.773 1.567c-.167.103-.423.214-.62-.034a.532.532 0 0 1-.062-.697l.457-.835c.072-.183.232-.373.034-.62a7.934 7.934 0 0 0-.712.945 2.959 2.959 0 0 1 .986-1.853l.263-.023a10.545 10.545 0 0 0 .872-1.135.7.7 0 0 0 .091-.98c-.118-.343-.404-.582-.26-.948a1.182 1.182 0 0 0-.72-1.174 1.247 1.247 0 0 1-.72-1.173.978.978 0 0 0-1.384-.674l-.583.404a46.908 46.908 0 0 0-4.232 3.108.808.808 0 0 1-.495.396 1.286 1.286 0 0 1-1.532-.308l-.595-.742a4.318 4.318 0 0 0-2.614-1.626 9.052 9.052 0 0 0-4.835.246 15.251 15.251 0 0 0-5.269 3.37 30.088 30.088 0 0 0-3.446 4.014 4.583 4.583 0 0 0-.638 4.731c.103.168.126.43.236.682a3.94 3.94 0 0 0 3.297 2.361 5.398 5.398 0 0 0 2.873-.428 49.84 49.84 0 0 0 9.756-4.645l1.596-.934c.168-.103.336-.206.526-.046a3.085 3.085 0 0 0-.377.735 8.924 8.924 0 0 1-1.203 2.401 8.187 8.187 0 0 1-3.56 3.76.457.457 0 0 0-.336.205c-1.726 1.475-3.737 2.71-5.36 4.354-.982.88-1.884 1.67-2.875 2.458a29.626 29.626 0 0 1-2.552 2.078c-.495.396-.895.873-1.394 1.27a77.257 77.257 0 0 1-3.725 3.857c-.895.873-1.782 1.833-2.59 2.699-.24.285-.487.484-.552.75a5.142 5.142 0 0 1-1.032 1.327 28.111 28.111 0 0 0-2.175 2.397 45.775 45.775 0 0 0-2.913 4.052c-.944 1.318-1.794 2.717-2.73 4.123a26.127 26.127 0 0 0-2.262 4.436 5.913 5.913 0 0 1-.434 1.098 29.87 29.87 0 0 0-1.895 4.58 8.576 8.576 0 0 0-.529 1.99 4.072 4.072 0 0 0 .988 3.269c.301.415.595.742.797 1.078a4.074 4.074 0 0 0 5.818.904 31.043 31.043 0 0 0 2.644-2.085c1.782-1.833 3.652-3.675 5.332-5.676a72.9 72.9 0 0 0 8.347-11.59l3.476-5.69c.994-1.765 2.076-3.537 3.077-5.214.225-.46.45-.922.681-1.296a.565.565 0 0 1-.156-.78 2.077 2.077 0 0 1 .728-.767 1.742 1.742 0 0 0 .88-1.048c-.168.103-.24.286-.408.39a.323.323 0 0 1-.27-.066l-.016-.175a2.371 2.371 0 0 1 .643-.674l.046.526a1.844 1.844 0 0 0 .613-1.025l-.415.301c.072-.183.057-.358.217-.549.072-.183.255-.11.438-.038a7.448 7.448 0 0 0 1.082-1.772 5.225 5.225 0 0 0-.904.781c.659-1.563.659-1.563 1.65-2.352a2.499 2.499 0 0 0 .807-.865 7.34 7.34 0 0 0 .605-1.112 8.06 8.06 0 0 1 1.425-2.067 15.806 15.806 0 0 0 1.607-1.819 4.414 4.414 0 0 1 1.207-1.341c.583-.404 1.254-.812 1.924-1.228l6.537-4.015a157.287 157.287 0 0 1 14.673-7.905c.423-.213.861-.251 1.086-.712-.46-.221-.868.168-1.299.294Zm-36.133-1.258a7.908 7.908 0 0 1 3.585-1.462 3.42 3.42 0 0 1 1.33.06 4.415 4.415 0 0 0-1.036.268c-.255.11-.614.054-.651.587a.91.91 0 0 1-.343.118 9.873 9.873 0 0 1-2.218.896l-.023-.263c-.175.016-.342.118-.518.134a.307.307 0 0 1-.183-.073c-.114-.162-.034-.257.053-.265Zm1.052-.092a1.922 1.922 0 0 1-.415.3l.503-.308Zm13.895-.596c.096.08-.072.183-.16.19a1.25 1.25 0 0 1-.51.222c.08-.096.248-.199.408-.39.087-.007.167-.102.262-.022Zm-.75.507a1.485 1.485 0 0 1-.137.453l-.526.046a1.556 1.556 0 0 1 .663-.5Zm-13.373 2.581a7.097 7.097 0 0 1 3.996-1.762c.088-.008.263-.023.271.065.015.175-.16.19-.328.293a21.207 21.207 0 0 0-3.82 1.747c-.168.103-.431.126-.599.229.16-.19.313-.469.48-.572Zm-2.745 3.953a17.218 17.218 0 0 1 3.424-3.302 6.059 6.059 0 0 1 3.593-1.373l.438-.039a8.404 8.404 0 0 1 2.103-.183c.175-.016.358.057.534.041a.463.463 0 0 1 .244.774 2.333 2.333 0 0 1-.488.484 31.269 31.269 0 0 1-5.306 2.936c-.766.332-1.44.744-2.202 1.075a7.11 7.11 0 0 1-1.874.782.685.685 0 0 1-.637-.21.533.533 0 0 1 .027-.704c.071-.102.151-.198.144-.285Zm34.682-6.298a2.568 2.568 0 0 0 .773-.244c-.255.107-.518.13-.773.24Zm-.674.324c.255-.11.423-.214.674-.324Zm-1.181.633c-.255.11-.43.126-.682.236l-.08.095.088-.007Zm-33.958 8.614-.007-.087c.087-.008.167-.103.255-.111l.423-.214a49.035 49.035 0 0 0 9.001-4.146 10.121 10.121 0 0 1 1.448-.656 3.24 3.24 0 0 1 1.58-1.11 2.738 2.738 0 0 1-1.58 1.11 5.698 5.698 0 0 0-.628.85l1.356-.649a2.499 2.499 0 0 1-.903.782 41.306 41.306 0 0 1-7.348 3.82 4.981 4.981 0 0 1-1.555.401.307.307 0 0 1-.167.103l-.176.016c.088-.008.08-.096.168-.103l.175-.016a4.88 4.88 0 0 0 .651-.586l-2.495.747a.189.189 0 0 1-.198-.15Zm1.732-3.418c.088-.008.168-.103.248-.199Zm8.748-.941a1.25 1.25 0 0 0-.51.221 1.25 1.25 0 0 0 .514-.222Zm3.495.577a12.738 12.738 0 0 1-3.162 2.22 41.9 41.9 0 0 1-7.547 3.569c-.682.236-1.291.377-1.81.511l-.525.046c-.096-.08-.183-.072-.19-.16-.089.008-.016-.175.071-.183.08-.095.256-.11.423-.214a52.324 52.324 0 0 0 12.462-6.03c.335-.205.48-.57.933-.434-.061.359-.404.477-.651.675Zm-12.242.368-.24.286.088-.008c-.004-.092.075-.187.155-.283Zm8.237-.72a1.923 1.923 0 0 0-.415.301Zm-1.931 1.14a2.71 2.71 0 0 0 1.013-.53 5.38 5.38 0 0 0-1.01.526Zm0 0-.171.015a1.922 1.922 0 0 1-.416.301 1.486 1.486 0 0 1 .423-.213c.088-.012.08-.1.168-.107Zm-2.457 1.186.007.088.675-.324c-.248.106-.51.129-.679.232Zm-1.947.965.088-.008a6.062 6.062 0 0 1 .674-.324Zm18.403-1.608a2.173 2.173 0 0 1-.758.42 2.173 2.173 0 0 1 .762-.424Zm-1.287 1.437a4.654 4.654 0 0 1 1.756-1.125c-.469.655-.469.655-1.753 1.12Zm-14.898 9.333a4.858 4.858 0 0 1 2.403-1.8 5.955 5.955 0 0 1-2.403 1.8Zm-.823.69a1.577 1.577 0 0 1 .575-.492 1.018 1.018 0 0 1-.575.492Zm-.777 1.216a3.125 3.125 0 0 1-.758.42c-.335.205-.766.331-1.189.545a4.84 4.84 0 0 1 1.55-1.46.393.393 0 0 1 .439-.039c.183.073.118.343-.042.534Zm-1.99 4.5a5.983 5.983 0 0 1 2.38-2.062 6.82 6.82 0 0 1-2.38 2.062Zm.53 1.014c-.065.27-.305.556-.02.796a7.676 7.676 0 0 1-1.287 2.497c-.472.659-.841 1.486-1.31 2.233a36.424 36.424 0 0 1-1.93 3.171 24.913 24.913 0 0 0-1.538 2.607 1.921 1.921 0 0 1-.225.461c-1.656 2.264-2.947 4.673-4.604 6.937a32.152 32.152 0 0 1-1.865 2.9 4.866 4.866 0 0 1-1.127 1.158 2.674 2.674 0 0 0-.952 1.231 3.609 3.609 0 0 1-1.28 1.525 14.352 14.352 0 0 0-1.622 1.647c-1.047 1.15-2.198 2.134-3.34 3.202-.248.198-.576.491-.934.434-.438.039-.629-.121-.58-.567a1.486 1.486 0 0 1 .138-.454 30.195 30.195 0 0 1 2.698-6.505c.85-1.399 1.683-2.972 2.612-4.466a78.449 78.449 0 0 1 11.33-13.882c1.71-1.655 3.604-3.225 5.401-4.887l.248-.199.175-.015Zm-6.28.902.263-.023a.323.323 0 0 1-.064.27 2.623 2.623 0 0 1-1.15.984 4.305 4.305 0 0 1 .951-1.231Zm3.951-.257.008.087-.175.016a.307.307 0 0 0 .167-.103Zm-1.078.796c.255-.11.503-.309.758-.42a23.512 23.512 0 0 1-2.917 2.993 21.155 21.155 0 0 0-1.946 2.032 13.995 13.995 0 0 1-1.95 1.937c-.651.586-1.215 1.254-1.782 1.833a4.91 4.91 0 0 1-.66.5c-.03-.351.13-.542.37-.828 1.295-1.349 2.4-2.858 3.782-4.215a45.451 45.451 0 0 1 4.345-3.828Zm-15.981 15.176a7.09 7.09 0 0 1 1.961-2.82 4.726 4.726 0 0 1 1.489-2.162c.088-.008.168-.103.248-.198.121-.629.612-1.025.833-1.578l.24-.286a8.356 8.356 0 0 1 1.257-1.787l.263-.023a23.99 23.99 0 0 0 2.51-2.604l.24-.286-.264.023.24-.286a3.444 3.444 0 0 1 .816-.773 1.582 1.582 0 0 0 .742-.595l.439-.038a3.834 3.834 0 0 1-1.032 1.326 12.862 12.862 0 0 1-1.543 1.548c-1.379 1.445-2.643 3.056-3.926 4.581a3.444 3.444 0 0 1-.816.774c-.08.095-.16.19-.152.278a5.289 5.289 0 0 1-1.584 2.081 7.854 7.854 0 0 1-1.961 2.82 1.915 1.915 0 0 1-.378.736 1.915 1.915 0 0 1 .378-.731Zm20.333-13.874c-.007-.088-.015-.176.073-.183l.087-.008Zm2.744 1.084c.088-.007.168-.102.248-.198l-.088.008Zm-3.867 1.221-2.78 4.57a1.925 1.925 0 0 1-.807.865 1.877 1.877 0 0 1 .522-1.105c.864-1.223 1.53-2.694 2.387-4.005.232-.374.37-.827.792-1.041a.849.849 0 0 1-.11.716Zm.12 4.405c-.087.008-.08.095-.167.103-.008-.088-.008-.088.072-.183-.008-.088.08-.095.087-.008Zm-4.156 1.952a1.018 1.018 0 0 1 .385-.651 1.577 1.577 0 0 1-.385.651Zm-8.699.496c-.552.75-1.112 1.421-1.576 2.168a.268.268 0 0 1-.35.03c-.008-.087-.111-.254-.031-.35a2.34 2.34 0 0 1 .792-1.04 4.114 4.114 0 0 1 1.165-.808Zm11.55-.215c.007.088.014.176-.073.183l-.48.572a1.676 1.676 0 0 1 .362-.915l.175-.015a.122.122 0 0 1 .015.175Zm-5.014 3.264a2.117 2.117 0 0 1 .465-.743 3.299 3.299 0 0 1 1.241-1.963 4.721 4.721 0 0 1-1.24 1.963 1.368 1.368 0 0 1-.466.743Zm2.081 1.584c-.62.937-1.161 1.868-1.778 2.893a72.847 72.847 0 0 1-5.944 7.76c-1.44 1.715-2.975 3.35-4.517 4.898-.983.88-1.966 1.761-2.956 2.554l-1.006.618a.323.323 0 0 1-.27-.065l-.016-.175.48-.572a58.192 58.192 0 0 0 8.771-8.713 28.44 28.44 0 0 0 3.081-4.155l2.281-3.201c.312-.47.792-1.041 1.097-1.601a3.549 3.549 0 0 1 1.454-1.54 3.69 3.69 0 0 1-.677 1.3Zm-6.194 3.897a6.058 6.058 0 0 1 .865-1.224l.24-.286a.323.323 0 0 1 .064-.27 27.01 27.01 0 0 0 2.087-2.39 1.367 1.367 0 0 1 .465-.743 1.368 1.368 0 0 1-.465.743 11.35 11.35 0 0 1-2.162 3.544 1.418 1.418 0 0 1-1.094.626Zm-11.666.842a4.585 4.585 0 0 1 1.538-2.606 1.565 1.565 0 0 1 .613-1.025 1.986 1.986 0 0 1-.613 1.025 7.93 7.93 0 0 1-1.538 2.606 3.684 3.684 0 0 1-.841 1.487 2.3 2.3 0 0 1 .837-1.486Zm5.07-3.621c-.08.095-.065.27-.137.453-.08.095-.145.366-.408.389-.175.015-.022-.263.217-.549Zm-4.238 15.205-.675.323c-.087.008-.183-.072-.27-.064l-.023-.263.651-.587a57.32 57.32 0 0 0 8.832-9.072 14.063 14.063 0 0 1 2.08-2.477 6.897 6.897 0 0 0-.331 1.265l.175-.016c-.08.096-.072.183-.152.279l-.263.023a2.678 2.678 0 0 0-.637.758c.206.335.206.335-.201.72l-.24.285-.24.286-.153.279a5.04 5.04 0 0 1-.88 1.048l-.24.286a39.285 39.285 0 0 1-3.526 4.105c-.975.968-2.045 1.856-3.116 2.744l-.59.317c-.179.023-.186-.064-.201-.24Zm1.237-10.087.008.088a1.92 1.92 0 0 0-.407.389l.224-.461c.08-.096.08-.096.175-.016Zm-3.348 1.088c-.206-.336.144-.366.304-.557-.072.183-.137.454-.304.557Zm2.732-.062a2 2 0 0 1-.434 1.097 1.721 1.721 0 0 1 .434-1.097Zm-3.341 1.174-.008-.087.095.08Zm.783 5.937-.088.007-.007-.087c.08-.096.08-.096.175-.016ZM376.775 7.05a5.689 5.689 0 0 0-.45-1.108.662.662 0 0 0-.652-.385 2.173 2.173 0 0 0-.758.42l-1.462 1.452a31.527 31.527 0 0 1-2.342 2.5 9.415 9.415 0 0 0-1.295 1.35c-.568.58-1.048 1.15-1.528 1.723-.807.865-1.527 1.723-2.247 2.58-.48.572-.96 1.144-1.446 1.632a18.138 18.138 0 0 0-2.087 2.39l-1.12 1.334c-1.215 1.254-2.415 2.683-3.622 4.029-2.022 2.119-3.854 4.398-5.876 6.518-2.422 2.595-4.635 5.522-7.156 8.042-.488.484-.88 1.048-1.371 1.533a57.203 57.203 0 0 0-4.247 4.962c-1.927 2.2-3.473 4.719-5.495 6.838-.08.096-.248.199-.32.381a13.523 13.523 0 0 1-1.348 1.796 33.837 33.837 0 0 0-2.137 2.836c-.552.75-1.016 1.501-1.656 2.264a12.737 12.737 0 0 0-1.356 1.707c-1.104 1.51-2.121 3.011-3.138 4.513a4.844 4.844 0 0 0-.681 1.296 2.016 2.016 0 0 0-.038 1.593 6.132 6.132 0 0 1 .672 1.619 2.4 2.4 0 0 0 .713 1.085 2.599 2.599 0 0 0 3.383.323c.088-.008.168-.103.255-.11q2.417-1.28 4.8-2.812a78.562 78.562 0 0 1 7.28-4.61 25.702 25.702 0 0 1 4.41-2.063c.08-.095.168-.103.344-.118.343-.119.548.217.58.567a2.643 2.643 0 0 1-.443 1.01c-.361.915-.818 1.75-1.271 2.672a3.012 3.012 0 0 0-.27 1.966 17.617 17.617 0 0 0 .534 2.073 1.605 1.605 0 0 0 1.334 1.12c.359.056.705.026.667.559.016.175.279.152.454.137a4.144 4.144 0 0 0 1.463-.481c3.055-1.415 5.912-3.077 8.872-4.572a67.817 67.817 0 0 1 7.821-3.51c1.97-.701 3.932-1.49 5.806-2.272.518-.134.51-.222.282-.82a1.25 1.25 0 0 1 .13-.54c.128-.542.098-.893-.363-1.117a2.609 2.609 0 0 0-1.368-.499c-.336.206-.766.332-.713.946-.072.182-.327.293-.582.404l-2.145.717c-2.225.812-4.362 1.617-6.404 2.502a7.328 7.328 0 0 1-1.284.465 7.27 7.27 0 0 1 1.086-.713 4.55 4.55 0 0 0 1.093-.625 12.832 12.832 0 0 0-3.733 1.74 6.79 6.79 0 0 1 1.299-.291 10.196 10.196 0 0 1-3.383 1.708 1.827 1.827 0 0 1-1.013.53 1.544 1.544 0 0 1 .312-.468 3.576 3.576 0 0 0-1.604.842l.697-.06a3.27 3.27 0 0 1-1.596.933 7.697 7.697 0 0 1-2.187 1.251c-.087.008-.095-.08-.183-.072-.007-.088.073-.183.065-.27.168-.104.248-.199.415-.302a3.468 3.468 0 0 0 1.189-.545 2.568 2.568 0 0 0-1.189.545c-.19-.16-.293-.327-.046-.526a1.768 1.768 0 0 1 .667-.411c2.872-1.487 5.737-3.062 8.704-4.473a71.702 71.702 0 0 1 9.14-3.536 7.697 7.697 0 0 1 1.386-.298l.32-.381c.415-.301.297-.644.019-.796-.477-.4-.743-.465-1.25-.156a9.656 9.656 0 0 1-2.983 1.232 16.343 16.343 0 0 0-3.593 1.373 9.866 9.866 0 0 1-1.1.538 18.859 18.859 0 0 0-4.595 1.99 80.683 80.683 0 0 1-4.556 2.43c-.59.316-.869.164-1.018-.53l-.038-.438c-.072.183-.24.286-.4.477-.08.095-.24.286-.335.206-.183-.073-.11-.255-.038-.438.224-.461.361-.915.59-1.288a2.645 2.645 0 0 0-.18-3.075 18.61 18.61 0 0 0-1.126-1.756 2.799 2.799 0 0 0-2.305-1.123 4.282 4.282 0 0 0-1.044.18c-2 .35-3.676 1.38-5.558 2.075-.256.11-.496.396-.75.507a5.38 5.38 0 0 1-1.014.53 17.572 17.572 0 0 0-3.79 2.097 2.526 2.526 0 0 1-2.408.74 7.103 7.103 0 0 1 2.224-2.843l.24-.286-.088.007.24-.285c.385-.652.69-1.209 1.161-1.868 1.745-2.271 3.489-4.543 5.324-6.823a18.038 18.038 0 0 1 2.735-3.064 5.863 5.863 0 0 1 2-2.383l.24-.285.007.087a1.385 1.385 0 0 1 .56-.667 3.825 3.825 0 0 1 .583-.404l-.023-.263a2.599 2.599 0 0 1 1.127-1.246c.495-.397.521-1.105 1.024-1.414.08-.095.248-.198.328-.294l.728-.766a16.334 16.334 0 0 1 2.334-2.588l.937-1.406a1.386 1.386 0 0 1 .56-.667 3.662 3.662 0 0 0 1.535-1.724 1.751 1.751 0 0 1 .605-1.112c.16-.19.225-.461.385-.652a9.433 9.433 0 0 1 2.334-2.588c.08-.095.183.072.286.24a5.367 5.367 0 0 0 1.512-1.898c-.08.095-.16.19-.248.198l-.263.023-.015-.175a7.108 7.108 0 0 1 1.28-1.525.33.33 0 0 1 .526-.046c.335-.206.845-.427.807-.865a1.247 1.247 0 0 1 .506-1.28c1.432-1.803 2.872-3.519 4.311-5.234a7.597 7.597 0 0 0 1.128-1.246c.784-1.128 1.759-2.097 2.635-3.14a2.077 2.077 0 0 1 .743-.595 7.897 7.897 0 0 1 2.727-3.148l-.088.007a19.326 19.326 0 0 0 1.09-1.684 12.935 12.935 0 0 0 .776-1.216 1.514 1.514 0 0 0 .091-1.072Zm-4.066 7.067-.016-.176-.175.016a.667.667 0 0 1-.335.206l.038.438a2.332 2.332 0 0 0 .488-.484ZM360.773 28.05c.088-.007.168-.103.248-.198-.088.008-.168.103-.248.198Zm-13.106 10.682a2.046 2.046 0 0 1-.991.789 5.126 5.126 0 0 1 1.855-2.016 6.056 6.056 0 0 1-.864 1.227Zm-7.665 14.352-.247.199.007.087Zm-5.68 1.737-.175.015-.008-.087a1.052 1.052 0 0 1 .56-.667 1.209 1.209 0 0 1-.377.739Zm6.396 5.446a25.33 25.33 0 0 1 4.267-1.698 2.824 2.824 0 0 1 1.22-.195c.174-.015.19.16.293.328.015.175-.065.27-.233.373a.672.672 0 0 1-.422.214 69.601 69.601 0 0 0-13.013 6.7 4.041 4.041 0 0 1-1.349.736c.072-.183.057-.358.13-.541a6.897 6.897 0 0 1-1.772.95l-.088.007-.007-.088a2.4 2.4 0 0 1 .982-.88 114.242 114.242 0 0 1 9.992-5.906Zm-6.195-.162-.175.016.015.175Zm-.152.279-.008-.088-.08.095Zm7.925-.251a2.568 2.568 0 0 0 .773-.244c-.255.106-.518.13-.773.24Zm-2.537 1.281a1.25 1.25 0 0 0-.51.221l.007.088.08-.095Zm5.597.394a47.964 47.964 0 0 0-9.718 5l-6.193 3.896a9.533 9.533 0 0 1-1.605.842 1.25 1.25 0 0 1-.51.222.189.189 0 0 1-.19-.16c-.088.007-.016-.176-.016-.176l.583-.404a70.936 70.936 0 0 0 6.947-4.32 53.313 53.313 0 0 1 9.875-5.277 4.624 4.624 0 0 1 1.463-.481.233.233 0 0 1 .285.24c-.08.095-.072.183-.16.19-.258.115-.506.313-.761.424Zm-7.2.453-.504.308c-.175.016-.255.111-.423.214.168-.103.343-.118.51-.221a1.923 1.923 0 0 1 .416-.305Zm28.765-2.249a.273.273 0 0 1 .168-.103l-.175.015Zm-.255.11.088-.007a.273.273 0 0 1 .167-.103l-.175.015c-.088.004-.176.012-.08.092Zm-2.575.844c.343-.119.598-.23.94-.347Zm-1.627.583a1.657 1.657 0 0 0 .682-.236Zm-.941.347a2.005 2.005 0 0 0 .941-.347Zm-1.448.657a3.066 3.066 0 0 0 1.448-.657 4.331 4.331 0 0 0-1.44.652Zm-12.323 8.49c3.143-1.423 6.168-3.188 9.295-4.786a94.441 94.441 0 0 1 11.59-4.81.957.957 0 0 1 .43-.125.457.457 0 0 1 .366.144.189.189 0 0 1-.16.19 1.953 1.953 0 0 1-.926.523c-2.05.797-4.195 1.515-6.236 2.4a53.284 53.284 0 0 0-6.366 2.94c-2.45 1.273-4.796 2.715-7.348 3.82a.672.672 0 0 1-.423.214c-.343.118-.583.404-.949.26-.278-.153.05-.446.727-.77Zm-14.298-5.992a1.25 1.25 0 0 0 .51-.22c-.163.102-.342.117-.51.22Zm0 0a1.923 1.923 0 0 1-.415.302l.503-.31Zm-.415.302-.503.308a1.922 1.922 0 0 1-.415.302l.503-.31a1.922 1.922 0 0 1 .41-.3Zm-1.433.827a1.25 1.25 0 0 0 .51-.221c-.163.107-.338.122-.506.225Zm24.735-1.896a3.085 3.085 0 0 0-1.18.633 3.085 3.085 0 0 0 1.185-.63Zm-27.386 3.898a5.798 5.798 0 0 1 2.02-1.148 5.221 5.221 0 0 1-1.91 1.403.273.273 0 0 1-.182-.072s-.015-.176.076-.184Zm24.606-2.415.697-.06.99-.79a3.126 3.126 0 0 0-1.687.85Zm-3.2 1.785.697-.061a9.347 9.347 0 0 1 .896-.873 4.534 4.534 0 0 0-1.684.942Zm79.532-43.775c-.134-.518-.347-.94-.473-1.371a2.719 2.719 0 0 0-2.31-2.183 32.204 32.204 0 0 0-8.295-.953c-.438.039-.797-.018-1.235.02a7.697 7.697 0 0 0-1.417-.053c-2.119.009-4.157-.078-6.173.098-1.501.043-2.91-.01-4.404.12a3.354 3.354 0 0 1-1.322.027c-.9-.186-1.018-.529-.736-1.348.08-.096.064-.27.144-.366-.03-.35-.03-.35.24-.286a4.42 4.42 0 0 0 .99-.789c.24-.286.488-.484.458-.835.018-.796.605-1.112 1.192-1.517l.24-.285.4-.477a19.528 19.528 0 0 1 2.673-2.706 2.327 2.327 0 0 1 1.573-1.197.846.846 0 0 0 .743-.595c.05-.445.392-.564.735-.682a5.023 5.023 0 0 0 1.74-1.3c.16-.19.408-.389.378-.735.042-.534.457-.835.784-1.129a11.24 11.24 0 0 1 1.733-1.387l.008.087.24-.285a5.308 5.308 0 0 1 .636-.758c1.048-1.151 1.017-1.502.201-2.755a1.019 1.019 0 0 0-1.273-.419 16.4 16.4 0 0 0-1.676 1.03L412.39 3.42c-1.135 1.159-2.373 2.15-3.604 3.225-1.885 1.67-3.588 3.404-5.29 5.142l-1.943 2.024a42.983 42.983 0 0 0-3.686 4.296 4.737 4.737 0 0 1-3.455 1.89 33.81 33.81 0 0 1-4.207.368 14.251 14.251 0 0 0-1.92.257 6.089 6.089 0 0 1-2.183.279 7.567 7.567 0 0 0-1.41.034c-.964.085-1.825.336-2.789.42-1.935.082-3.825.688-5.768.681a2.569 2.569 0 0 0-.773.244 15.047 15.047 0 0 1-3.395.562c-.35.03-.69.149-1.044.18-1.642.408-3.196.809-4.846 1.125-1.3.29-2.504.66-3.795 1.034l-6.698 2.175a15.938 15.938 0 0 0-2.648 1.026c-1.1.538-2.201 1.075-3.31 1.525a5.087 5.087 0 0 0-1.189.546c-.335.206-.575.492-.194.811a1.058 1.058 0 0 1 .237.682c.076.877.362 1.116 1.208.69l.175-.016a56.736 56.736 0 0 1 6.404-2.502 127.46 127.46 0 0 1 22.684-5.16c3.753-.505 7.513-.922 11.29-1.164l.963-.084c.175-.015.438-.038.549.217.103.167-.057.358-.495.396l-7.704.673c-2.709.325-5.41.738-8.028 1.143-2.263.375-4.518.837-6.694 1.203q-4.16.894-8.298 2.05c-2.834.866-5.676 1.732-8.492 2.861a3.084 3.084 0 0 0-1.18.633 9.343 9.343 0 0 0 1.634-.496c1.882-.694 3.676-1.38 5.661-1.907q4.258-1.3 8.8-2.359a211.04 211.04 0 0 1 10.6-1.986c4.016-.527 8.036-1.055 12.07-1.319l.789-.069a.5.5 0 0 1 .404.583 1.25 1.25 0 0 1-.125.545c-.712.945-1.432 1.802-2.232 2.755a11.754 11.754 0 0 0-1.591 1.994 19.037 19.037 0 0 1-3.2 3.811 3.286 3.286 0 0 0-.567.58 29.163 29.163 0 0 1-2.072 2.565 3.782 3.782 0 0 0-.712.945 12.02 12.02 0 0 1-1.824 2.367c-1.127 1.246-2.072 2.565-3.104 3.891-1.264 1.7-2.155 3.632-3.705 5.092l-.24.286c-1.161 1.868-2.418 3.655-3.579 5.523a12.57 12.57 0 0 0-1.074 1.86c-1.073 1.86-2.06 3.712-3.046 5.564a30.015 30.015 0 0 0-1.241 3.018 2.942 2.942 0 0 0 .024 2.294 15.157 15.157 0 0 0 .774 1.787 3.642 3.642 0 0 0 2.184 1.751 2.243 2.243 0 0 0 2.103-.183 25.1 25.1 0 0 0 3.9-1.846c1.612-.76 3.136-1.51 4.763-2.094a63.286 63.286 0 0 0 6.739-2.708 31.81 31.81 0 0 0 2.967-1.407l2.625-1.29c1.021-.442 2.034-.972 3.048-1.502.167-.103.422-.213.4-.476a2.499 2.499 0 0 0-1.11.45c-3.561 1.724-7.195 3.539-10.959 4.931a121.13 121.13 0 0 0-10.544 4.634c-.59.317-1.19.545-1.867.866a1.717 1.717 0 0 0-.606.14c-.088.008-.27-.064-.278-.152a.667.667 0 0 1 .144-.365l.766-.332c1.02-.443 2.034-.973 2.967-1.407 1.78-.858 3.562-1.724 5.353-2.41 3.166-1.16 6.229-2.487 9.284-3.902 1.874-.782 3.733-1.74 5.6-2.609a2.4 2.4 0 0 0 1.005-.618.52.52 0 0 0 .034-.62c-.095-.08-.198-.248-.373-.233-.255.11-.606.141-.861.252l-2.64 1.114a9.612 9.612 0 0 1-1.456.568l-.007-.08a1.418 1.418 0 0 1-.765.332l-.674.324a1 1 0 0 1-.674.324l-.766.332a2.07 2.07 0 0 1-.682.236 3.886 3.886 0 0 1-1.356.648l.392-.564a7.375 7.375 0 0 0-2.122.98c.088-.007.175-.015.183.073a.307.307 0 0 1-.167.103l-.023-.263a26.067 26.067 0 0 0-4.949 1.937c.088-.007.263-.023.191.16a.307.307 0 0 1-.168.103l-.023-.263a6.442 6.442 0 0 0-2.13.889l.79-.07a1.657 1.657 0 0 1 .68-.235 1.657 1.657 0 0 1-.68.236 1.418 1.418 0 0 1-.767.332l.088-.008a26.755 26.755 0 0 1-5.684 2.704l.48-.572c-.175.016-.263.023-.358-.057-.103-.167-.023-.263.057-.358l.674-.324a73.971 73.971 0 0 1 9.1-3.974c4.275-1.61 8.447-3.387 12.523-5.244.255-.11.503-.309.758-.42a.529.529 0 0 0 .057-.358c-.008-.087-.19-.16-.278-.152a.165.165 0 0 0-.263.023c-.861.252-1.817.424-2.67.763-1.787.775-3.593 1.374-5.36 2.323a10.288 10.288 0 0 1-1.715.591c-2.598.58-4.873 1.839-7.36 2.674l-.343.119a13.64 13.64 0 0 1-3.055 1.414 1.116 1.116 0 0 1-.519.134.353.353 0 0 1-.476-.4c-.03-.35.019-.796-.012-1.147l-.03-.35c.064-.27.144-.366.51-.222a1.782 1.782 0 0 0 .403-1.448.483.483 0 0 1 .305-.556c.335-.206.666-.411.728-.766-.191-.16-.302-.415-.054-.613a3.866 3.866 0 0 0 .914-1.67 5.334 5.334 0 0 1 2.136-2.835c.255-.111.328-.294.392-.564-.175.015-.278-.153-.118-.343l.32-.381.038.438a22.657 22.657 0 0 0 2.544-3.225 7.281 7.281 0 0 1 .85-1.399l3.663-4.558a5.307 5.307 0 0 1 .636-.758c.08-.095.16-.19.248-.198a3.035 3.035 0 0 1 .628-.85 3.348 3.348 0 0 1 .689-1.208c1.257-1.788 2.612-3.407 3.976-5.027.32-.382.735-.683 1.055-1.064l.24-.286a9.143 9.143 0 0 1 2.635-3.14l-.087.008a1.875 1.875 0 0 1 .792-1.04l1.23-1.08.087-.007a.684.684 0 0 1 .274-.907 2.75 2.75 0 0 0 .705-1.033c.152-.278-.134-.518.019-.796.144-.366.613-.054.853-.34l1.2-1.43c.08-.094.152-.277.057-.357-.214-.423.121-.63.377-.736a13.595 13.595 0 0 0 1.97-.702 3.57 3.57 0 0 1 1.634-.496c3.768-.329 7.654-.315 11.518-.565a2.993 2.993 0 0 1 .884.012c2.812-.158 5.559-.045 8.306.069a31.088 31.088 0 0 1 4.897.455 5.467 5.467 0 0 1 2.656 1.092 4.063 4.063 0 0 0 .667.56c.27.065.533.042.598-.229a2.81 2.81 0 0 0 .128-1.705ZM417.71.56a.323.323 0 0 1 .27.065s.015.175-.072.182a3.65 3.65 0 0 1-1.66 1.205A5.76 5.76 0 0 1 417.71.56Zm-2.206 2.047a4.422 4.422 0 0 1-1.805 1.57 6.083 6.083 0 0 1 1.805-1.57Zm-2.045 1.856a1.368 1.368 0 0 1-.651.587 1.368 1.368 0 0 1 .651-.587Zm-.983.88a1.018 1.018 0 0 1-.575.493 1.019 1.019 0 0 1 .58-.492Zm1.163 2.195-.007-.088.087-.007c-.087.007-.087.007-.08.095Zm-9.489 5.597a4.97 4.97 0 0 1-1.934 2.112 6.242 6.242 0 0 1 1.934-2.112Zm-10.303 8.406a2.166 2.166 0 0 1-1.044.18l-7.624.666a.086.086 0 0 0 .096.08l7.711-.674c.095.08.183.072.19.16.016.175-.072.183-.16.19-.437.039-.78.157-1.13.188-4.127.272-8.318.815-12.426 1.35a61.31 61.31 0 0 0-7.92 1.31c-3.387.65-6.68 1.379-10.043 2.29a86.298 86.298 0 0 0-9.178 3.098l-.674.324c-.175.016-.335.206-.613.054-.096-.08.034-.621.29-.728a12.462 12.462 0 0 1 1.516-.835c2.903-1.136 5.909-2.105 9.01-2.995q4.4-1.179 9.086-2.118c2.423-.565 4.87-.867 7.395-1.264 4.008-.615 8.127-.975 12.15-1.415.965-.084 1.936-.08 2.896-.165a.672.672 0 0 1 .454.137c.087-.007.087-.007.095.08a.086.086 0 0 1-.077.087Zm33.107-.067-.08.095a4.698 4.698 0 0 1-1.95-.094c-.264.023-.454-.137-.713-.114-.533-.042-1.06.004-1.593-.038-3.894-.101-7.788-.202-11.743-.033-2.812.157-5.543.22-8.363.289a.659.659 0 0 1-.446-.05c-.087.008-.095-.08-.183-.072.08-.095.073-.183.16-.19l1.14-.1a2.186 2.186 0 0 0 .689-.148l-.789.068c-.358-.057-.86.252-1.162-.163.312-.469.766-.332 1.204-.37 2.724-.15 5.36-.292 8.005-.346 2.206-.016 4.42.055 6.714.031 2.03 0 4.084.262 6.123.348a11.224 11.224 0 0 1 2.507.4l.461.224c.004.088.1.168.02.263Zm-51.456 2.289c.183.072.263-.023.35-.031l-.262.023Zm50.303-.334c-3.917-.36-7.892-.37-11.866-.376-2.11.096-4.134.185-6.245.28l-7.12.358c-.614.054-1.068-.083-.908-.274.145-.366.503-.309.854-.34 1.493-.13 3.067-.267 4.827-.333 3.52-.13 7.224-.19 10.927-.252a59.977 59.977 0 0 1 8.958.453 1.5 1.5 0 0 1 .622.035c.278.152.697-.061.922.449a1.21 1.21 0 0 1-.971 0Zm-33.788 3.394a2.677 2.677 0 0 1 .636-.758.955.955 0 0 1-.636.758Zm3.433-.123a.323.323 0 0 0-.255.11c.08-.095.16-.19.247-.198Zm-4.553 1.457a1.06 1.06 0 0 1-.4.476 1.06 1.06 0 0 1 .4-.476 1.552 1.552 0 0 1 .728-.766 1.074 1.074 0 0 1-.728.766ZM350.87 32.89a2.124 2.124 0 0 0-1.284.466 2.623 2.623 0 0 0 1.284-.466Zm27.773 10.642c-.08.095-.24.286-.247.198-.183-.072.072-.182.152-.278.072-.183.16-.19.232-.373a.672.672 0 0 1-.14.454Zm-4.826 11.46c-.008-.088.072-.183.152-.279l-.24.286Zm11.89 5.76-.674.324.697-.061Zm-.674.324-.674.323.697-.06Zm-.674.323-.766.332.788-.069Zm-.766.332a1.657 1.657 0 0 1-.682.236l.697-.06Zm-.682.236-.94.348.963-.085Zm.697-.06.008.087a.086.086 0 0 1 .08-.095Zm-11.54 4.452.698-.061-.023-.263Zm-1.867.865a1.25 1.25 0 0 0 .51-.221 1.25 1.25 0 0 0-.51.225Zm0 0a6.06 6.06 0 0 0-.674.324Zm-1.447.656a1.922 1.922 0 0 1-.416.302l.503-.31Zm-1.101.538a2.719 2.719 0 0 0 .681-.236c-.247.11-.51.133-.677.24Zm51.88-9.566a1.768 1.768 0 0 1-.412-.666 1.986 1.986 0 0 0-1.875-1.25 6.614 6.614 0 0 0-1.314.115 43.163 43.163 0 0 0-6.68 1.379 3.984 3.984 0 0 1-1.378.385 25.2 25.2 0 0 0-4.98 1.583 9.736 9.736 0 0 1-2.224.813 6.164 6.164 0 0 0-1.204.37c-.343.118-.659.499-1.132.187-.293-.328-.148-.69-.092-1.052-.015-.175.065-.27.05-.446l.087-.007c.088-.008.168-.103.256-.11l-.35.03a2.712 2.712 0 0 0-.146-1.665l-.008-.088a5.413 5.413 0 0 0-.79-1.962 10.402 10.402 0 0 0-2.142-2.285 1.477 1.477 0 0 0-1.696-.205l-.83 9.697a5.928 5.928 0 0 1-2.224 2.844 51.986 51.986 0 0 0-4.289 3.465l-1.478 1.273c-.16.19-.415.301-.575.492-1.34 1.883-3.44 3.126-4.68 5 .007.088-.08.096-.16.19a27.466 27.466 0 0 0-4.849 6.164 7.61 7.61 0 0 1-.536.93 17.448 17.448 0 0 0-2.125 3.982c-.361.915-.723 1.83-1.092 2.657a11.695 11.695 0 0 0-.894 4.934 6.098 6.098 0 0 0 .416 1.73l.973 2.034a3.047 3.047 0 0 0 1.913 1.687 2.205 2.205 0 0 1 .644.297 1.753 1.753 0 0 0 1.848-.073 17.411 17.411 0 0 0 3.33-2.322 37.386 37.386 0 0 0 5.22-5.93 5.027 5.027 0 0 0 .842-1.487l-.503.309c-.087.008-.095-.08-.103-.168.153-.278.328-.293.606-.14a10.362 10.362 0 0 0 1.474-2.337c-.214-.423.027-.705.354-1.002.247-.199.487-.485.465-.743.277-1.879 1.381-3.388 2.128-4.955.072-.183.24-.285.32-.38a3.15 3.15 0 0 1 .266-.995c.514-1.193 1.028-2.386 1.55-3.491l.479-.572c.015.175-.137.454.06.697a5.689 5.689 0 0 0 .667-1.47c-.008-.088-.015-.176-.103-.168a.273.273 0 0 0-.168.102 1.215 1.215 0 0 1-.327.294 3.677 3.677 0 0 1 .274-.907 86.722 86.722 0 0 1 1.663-4.207 1.926 1.926 0 0 1 1.044-1.147 3.159 3.159 0 0 0 .823-.69.4.4 0 0 0-.039-.438 7.34 7.34 0 0 1 .991-.789 46.368 46.368 0 0 1 4.324-2.056 75.576 75.576 0 0 1 7.2-2.483c.949-.26 1.89-.607 2.75-.858a38.53 38.53 0 0 1 5.425-1.538 4.658 4.658 0 0 1 2.199-.104 1.25 1.25 0 0 0 .54.13c.534.041.69-.149.736-.683a2.142 2.142 0 0 0-.515-1.897Zm-25.773-2.954c.182.072.278.152.198.248.015.175-.153.278-.32.38l-.187-1.13c.43-.127.605-.142.62.033.024.263-.144.37-.311.47Zm4.278 8.545a3.826 3.826 0 0 1 .583-.404l-.35.03a.307.307 0 0 1-.183-.072.323.323 0 0 1 .064-.27 8.573 8.573 0 0 0 .926-.523l3.764-1.389a109.828 109.828 0 0 1 11.879-3.51 3.23 3.23 0 0 1 1.581-.046c-.659.5-1.38.386-2.05.797l-.784.069c-.518.134.11.255-.057.358a8.303 8.303 0 0 1-.766.332l-3.962 1.14a94.98 94.98 0 0 0-9.84 3.598 1.657 1.657 0 0 0-.682.236.189.189 0 0 1-.19-.16.273.273 0 0 1 .067-.186Zm.677-4.386-.08.095.087-.008Zm16.07-.963-.087.008c-.175.015-.27-.065-.358-.057l.35-.03c.092-.009.187.071.1.079Zm-3.044.531-.263.023c-.087.008-.167.103-.255.11l.263-.022c.092-.008.172-.104.26-.111Zm-1.722.504a2.709 2.709 0 0 0 1.117-.363 4.364 4.364 0 0 0-1.113.362Zm-1.204.37a4.364 4.364 0 0 0 1.117-.363 5.372 5.372 0 0 0-1.113.362Zm-.087.007-.175.016a.086.086 0 0 0-.08.095l.087-.008a.307.307 0 0 0 .172-.103Zm-1.81.512-.087.007a.307.307 0 0 1-.168.103l.175-.015c.18-.016.172-.103.084-.096Zm10.562-.393c-.088.007-.168.103-.343.118-3.897.87-7.661 2.259-11.437 3.472a51.649 51.649 0 0 0-7.935 3.165c-.343.119-.666.412-1.116.363l-.103-.168c.08-.095.152-.278.24-.286l1.005-.617a44.259 44.259 0 0 1 6.39-2.678c3.005-.965 6.01-1.938 9.024-2.82 1.204-.37 2.503-.66 3.715-.942a.953.953 0 0 1 .533.042.189.189 0 0 1 .19.16Zm-10.817.503c-.343.119-.598.23-.941.347Zm-2.057.71a4.64 4.64 0 0 0 1.028-.355 2.342 2.342 0 0 0-1.024.355Zm-1.037.267a3.742 3.742 0 0 0 .95-.26Zm-.853.34a2.569 2.569 0 0 0 .773-.245 2.569 2.569 0 0 0-.769.244Zm-13.378 7.526a6.066 6.066 0 0 1-2.72 2.18l-.015-.175a8.115 8.115 0 0 0-.659.5l.439-.04a.665.665 0 0 1-.675.325l-.658.499c.206.335.038.438-.217.548a1.915 1.915 0 0 1-.66.5l-.022-.263-.438.038a2.799 2.799 0 0 1 .8-.953 35.958 35.958 0 0 1 4.756-4.128c.248-.198.503-.31.75-.507l.351-.03c-.225.64-.259 1.262-1.032 1.506Zm-.438.038.438-.038a1.924 1.924 0 0 1 .224-.461 3.085 3.085 0 0 0-.662.5Zm-2.06 1.686-.009-.092-.243.29Zm1.745 1.79a3.444 3.444 0 0 1-.815.773 61.276 61.276 0 0 0-4.795 4.746c-.888.96-1.68 2.001-2.567 2.962-.103-.168-.198-.248-.214-.423a52.08 52.08 0 0 1 6.696-7.208 6.467 6.467 0 0 1 1.401-1.182.323.323 0 0 1 .27.065Zm-4.206.367.438-.038-.023-.267Zm-.766.332a1.923 1.923 0 0 0 .301.415 1.108 1.108 0 0 1-1.116.363 1.169 1.169 0 0 1 .815-.782Zm-5.766 6.77a41.15 41.15 0 0 1 1.672-2.09 9.631 9.631 0 0 0 .792-1.04l.24-.286a9.214 9.214 0 0 0 .613-1.025 3.262 3.262 0 0 1 1.394-1.27l.038.439a.086.086 0 0 0-.08.095.273.273 0 0 0 .103.168c-1.135 1.158-2.175 2.397-3.214 3.636l-1.28 1.524a4.305 4.305 0 0 1-1.047 1.152 2.468 2.468 0 0 1 .769-1.304Zm9.702-5.175c-.08.095-.167.103-.16.19.028 1.322-.684 2.268-1.21 3.373a61.7 61.7 0 0 1-2.737 6.067 11.704 11.704 0 0 1-1.081 1.772c-.537.93-1.25 1.875-1.778 2.893a9.996 9.996 0 0 1-1.192 1.517c-1.135 1.159-2.175 2.398-3.41 3.477l-.487.484a2 2 0 0 1-1.802.599c-.358-.057-.453-.137-.396-.495a5.748 5.748 0 0 1 1.004-2.649l.061.697a.993.993 0 0 0 .18-.987l.376-.735.088-.008a.368.368 0 0 1-.054-.613 1.544 1.544 0 0 1 .408-.39.809.809 0 0 1 .099-.89c.16-.191.312-.47.472-.66l-.175.015c.072-.183.08-.095.175-.015a6.058 6.058 0 0 0 .864-1.224 53.487 53.487 0 0 1 7.929-10.317c.807-.865 1.63-1.555 2.445-2.333a.323.323 0 0 1 .255-.11c.191.071.119.254.126.342Zm-10.559 6.485a13.484 13.484 0 0 1-2.25 3.552 9.428 9.428 0 0 1 2.25-3.552Zm2.538.75-.08.095c.008.088-.08.095-.072.183l-.015-.175c.08-.096.072-.183.171-.104Zm-.24.286a.189.189 0 0 1-.16.19l-.015-.175Zm-.152.278a1.844 1.844 0 0 1-.465.743 6.06 6.06 0 0 1 .202-.72Zm5.077 3.53c.007.087-.08.095-.168.103.088-.008.08-.096.072-.183l.08-.095c.1.08.1.08.016.175Zm-7.624.666.007.088-.095-.08Zm7.087.264a1.915 1.915 0 0 1 .377-.736 1.209 1.209 0 0 1-.377.736Zm-.842 1.486a1.578 1.578 0 0 1 .385-.652 2.674 2.674 0 0 1-.385.652Zm-1.096 1.601a2.576 2.576 0 0 1 1.017-1.502 2.577 2.577 0 0 1-1.017 1.498Zm-.377.735a17.984 17.984 0 0 1-2.88 3.43 1.768 1.768 0 0 1 .29-.727c.96-1.143 1.824-2.367 2.88-3.43a1.768 1.768 0 0 1-.29.727Zm1.57 1.806.202-.72c.08-.096.16-.19.153-.279l.087-.007a1.01 1.01 0 0 1-.442 1.006Zm-8.892 1.307.202-.72a1.25 1.25 0 0 1 .129-.542l-.217.55a2.72 2.72 0 0 1-.114.712Zm7.392.766a28.04 28.04 0 0 1-4.403 4.182 4.004 4.004 0 0 1-1.604.843c-.088.007-.263.023-.278-.153a.273.273 0 0 1 .072-.183 1.215 1.215 0 0 1 .327-.293 33.987 33.987 0 0 0 5.097-4.33 2.178 2.178 0 0 1 1.166-.805 4.91 4.91 0 0 1-.373.74Zm-7.055 3.09c-.096-.08-.111-.256-.206-.336-.103-.167-.206-.335.041-.533a22.298 22.298 0 0 1 3.002-2.029l-1.04 1.24a.793.793 0 0 1 .446.048 3.218 3.218 0 0 1-2.243 1.61Z" fill="#e53729"/><path data-name="パス 585" d="M6.427 28.7a22.184 22.184 0 0 1-4.7-.441c-2.423-.561-2.286-1.44.306-1.964 8.11-1.639 19.325-3.366 33.333-5.132 13.247-1.67 28.989-3.377 46.79-5.073 34.638-3.3 75.812-6.448 119.072-9.1 44.266-2.717 88.234-4.761 127.15-5.909C349.062.464 368.2.11 385.278.022c18.189-.094 34.167.114 47.493.619 3.5.132 5.833.853 5.221 1.608s-3.942 1.261-7.438 1.129c-12.5-.473-27.625-.668-44.969-.578-16.6.086-35.258.432-55.464 1.028-38.329 1.132-81.684 3.148-125.379 5.83-42.7 2.621-83.3 5.724-117.4 8.973C51.974 22 25.511 25.353 10.814 28.324a23.243 23.243 0 0 1-4.387.376Z" transform="matrix(1 0 0 1 -.473 126.385)" fill="url(#a)"/></g></svg>