<svg xmlns="http://www.w3.org/2000/svg" xmlns:xlink="http://www.w3.org/1999/xlink" width="398.936" height="129.881" viewBox="0 0 398.936 129.881">
  <defs>
    <linearGradient id="linear-gradient" x1="0.396" y1="-0.297" x2="0.5" y2="1" gradientUnits="objectBoundingBox">
      <stop offset="0" stop-color="#e53729"/>
      <stop offset="0.69" stop-color="#ff652c"/>
      <stop offset="1" stop-color="#ff652c"/>
    </linearGradient>
  </defs>
  <g id="txt_bg" transform="matrix(0.999, 0.035, -0.035, 0.999, -254.811, -3413.887)" opacity="0.12">
    <path id="パス_605" data-name="パス 605" d="M55.384-57.224a3.923,3.923,0,0,0-2.484-1.84,8.289,8.289,0,0,0-3.68.092,19.358,19.358,0,0,0-4.876,1.748l-.276.184a8.683,8.683,0,0,0-2.576,1.38l-.552.276a3.646,3.646,0,0,0-2.116,1.1,5.136,5.136,0,0,1-.736.46,5.135,5.135,0,0,0-.736.46c-1.2.92-2.3,1.748-3.5,2.576a1.637,1.637,0,0,0-.736.644,10.966,10.966,0,0,1-1.656,1.38l-1.1.828c-1.1,1.012-2.208,2.024-3.22,3.128a48.287,48.287,0,0,1-3.68,3.864,5.952,5.952,0,0,0-.736.828,22.464,22.464,0,0,1-2.944,3.68l-.552.644a18.656,18.656,0,0,1-1.2,1.656c-.828,1.2-1.656,2.3-2.484,3.5l-.368.552a7.741,7.741,0,0,1-1.38,2.392c-.46.828-1.012,1.564-1.472,2.392a28.013,28.013,0,0,0-2.944,5.428,2,2,0,0,1-.46.736A41.7,41.7,0,0,0,5.98-12.6a3.845,3.845,0,0,1-.368.92,11.045,11.045,0,0,0-1.748,4.14,9.788,9.788,0,0,1-.828,2.3,10.222,10.222,0,0,0-.644,1.472L1.564-.184C.92,2.576.092,5.244.184,8.1a1.167,1.167,0,0,1-.092.552A15.329,15.329,0,0,0,.46,14.076,6.312,6.312,0,0,0,1.748,17.2a23.991,23.991,0,0,0,2.116,2.208,7.708,7.708,0,0,0,7.36,1.472,17.675,17.675,0,0,0,4.324-2.3c2.392-1.748,4.692-3.68,6.9-5.612,3.128-2.76,6.256-5.52,9.2-8.464l9.384-9.2a37.914,37.914,0,0,0,2.576-2.852,2.894,2.894,0,0,0,.828-1.1,6.425,6.425,0,0,0-1.472,1.2c-1.012,1.1-2.116,2.3-3.128,3.312L35.328.276C33.3,2.3,31.188,4.324,29.072,6.348c-2.576,2.3-5.06,4.692-7.728,6.992a57.33,57.33,0,0,1-5.06,4.048c-.736.552-1.564,1.012-2.3,1.472a4.485,4.485,0,0,1-1.012.368c-.092.092-.184.092-.276-.092l.092-.184c.184-.184.46-.276.644-.46,1.012-.644,2.024-1.288,2.944-1.932A132.332,132.332,0,0,0,27.232,7.176c2.944-2.668,5.7-5.428,8.556-8.1,1.564-1.472,3.036-2.944,4.6-4.508C41.4-6.44,42.32-7.636,43.516-8.648a2.072,2.072,0,0,0,.736-1.288.666.666,0,0,0-.736-.828,4.618,4.618,0,0,0-1.1.184,1.627,1.627,0,0,1-.644,1.012,2.74,2.74,0,0,1,.644-1.012,2.547,2.547,0,0,0,.092-.828.481.481,0,0,0-.736-.368,3.6,3.6,0,0,0-.92.736,7.075,7.075,0,0,1-1.656,1.656,10.945,10.945,0,0,0-1.748,1.84,7.354,7.354,0,0,1-1.2,1.2,19.338,19.338,0,0,0-3.4,3.312,5.516,5.516,0,0,1-1.1,1.012A6.7,6.7,0,0,0,30.084-.46a10.073,10.073,0,0,1-.92,1.012,25.07,25.07,0,0,0-2.3,2.116c-.644.644-1.38,1.288-2.024,1.84-1.012.92-2.024,1.748-3.036,2.576-.184.184-.368.46-.644.552a23.227,23.227,0,0,0-2.3,1.932,3.6,3.6,0,0,1-.92.736c-1.1.828-1.932,1.84-3.128,2.576-.092,0-.276.092-.276.184A5.378,5.378,0,0,1,12.6,14.628c-.92.46-1.748,1.012-2.668,1.564a15.26,15.26,0,0,1-2.852,1.1,1.578,1.578,0,0,1-1.748-.46l-.276-.46h.092A2.271,2.271,0,0,1,4.416,14.9,13.545,13.545,0,0,1,4.14,10.58a2.264,2.264,0,0,1,.368-1.012A1.3,1.3,0,0,0,4.6,8.74V8.556A3.594,3.594,0,0,0,4.692,5.8c-.092-.184,0-.368.184-.552a.919.919,0,0,0,.368-1.012A.978.978,0,0,1,5.336,3.5a4.3,4.3,0,0,0,.46-.92C6.164,1.288,6.532.092,6.808-1.2A28.081,28.081,0,0,1,8.372-5.888,9.577,9.577,0,0,0,8.924-7.36a21.967,21.967,0,0,1,1.38-3.4,11.613,11.613,0,0,0,1.2-3.128,6.188,6.188,0,0,0,.644-1.012c.644-1.288,1.38-2.484,2.024-3.772a54.249,54.249,0,0,1,4.324-7.452,84.675,84.675,0,0,1,8-10.856A2.883,2.883,0,0,0,27.232-38a4.612,4.612,0,0,1-1.288.736,3.347,3.347,0,0,1,1.288-1.472V-38a4.584,4.584,0,0,0,1.012-.92l2.484-2.576a7.543,7.543,0,0,0,1.564-1.84c-.276-.92-.184-1.1.644-1.564.092-.092.276-.092.368-.276.828-1.2,2.208-1.84,3.22-2.852a3.268,3.268,0,0,1,.828-.368,4.262,4.262,0,0,1,2.76-1.748,6.185,6.185,0,0,1-2.76,1.748,3.173,3.173,0,0,1-.828,1.1c-.828.736-1.656,1.472-2.576,2.208a5.089,5.089,0,0,0-1.1,1.288,4.127,4.127,0,0,0,1.2-.92,67.871,67.871,0,0,1,6.532-4.968c1.472-1.012,2.944-1.84,4.416-2.76A33.639,33.639,0,0,1,49.22-54.1a6.6,6.6,0,0,1,4.6.092,1.047,1.047,0,0,1,.736,1.288c-.092.276-.092.552-.184.828a21.532,21.532,0,0,1-.828,2.208,82.437,82.437,0,0,1-5.7,10.948C46.276-36.156,44.8-33.58,43.332-31.1a22.473,22.473,0,0,0-.92,2.208v.276c0,.46-.092.828-.092,1.2a.41.41,0,0,0,.276.552c.276.184.46,0,.644-.184l.276-.46A26.455,26.455,0,0,0,46-30.636c1.564-2.3,3.22-4.508,4.692-6.9a4.127,4.127,0,0,1,.92-1.2c.276-.552.552-1.2.828-1.748l2.668-5.152A5.258,5.258,0,0,1,56.12-47.1a2.878,2.878,0,0,0,.46-.92l.276-1.1A10.129,10.129,0,0,0,55.384-57.224Zm-12.42,2.208h.552l-.552-.276a5.311,5.311,0,0,1,2.76-1.2,5.056,5.056,0,0,1,.828-.644,14.888,14.888,0,0,1,4.876-1.012c.276,0,.552.092.828.092l.184.184a.321.321,0,0,0-.184.092c-.184,0-.276,0-.368.092-.184.184.092.092.092.184.092,0,.092.092.184.092a.285.285,0,0,1-.184.092c-1.472.368-2.944.644-4.324.92-.368.092-.552,0-.368-.368l-1.564.276a4.25,4.25,0,0,0-.644.644,2.9,2.9,0,0,1-1.564.828l-.552.276Zm9.476,0c-.276,0-.552.092-.828.092a17.613,17.613,0,0,0-6.164,1.748,5.154,5.154,0,0,1-2.208.92,4.361,4.361,0,0,1,.92-.92,21.734,21.734,0,0,1,6.164-2.3,8.889,8.889,0,0,1,2.208-.092l.276.184C52.808-55.108,52.624-55.108,52.44-55.016Zm-11.592,1.2,1.1-.644c-.092-.092-.184-.092-.092-.276h.092v.276h.46a13.239,13.239,0,0,1-3.68,2.116A7.983,7.983,0,0,1,40.848-53.82Zm-.46,3.4a1.736,1.736,0,0,1,.92-1.2,4.285,4.285,0,0,1,1.84-.552A6.735,6.735,0,0,1,40.388-50.416Zm-3.5-.552a2.14,2.14,0,0,1-1.012.828,3.509,3.509,0,0,1-1.288,1.012A3.509,3.509,0,0,1,33.3-48.116l-.276.276A6.956,6.956,0,0,1,31.1-46.092L27.6-42.5c-.92,1.012-1.932,1.932-2.852,3.036-.276.276-.552.46-.828.736v-.552a8.673,8.673,0,0,0,.92-.92,31.706,31.706,0,0,1,2.392-2.576L29.9-45.356a3.476,3.476,0,0,1,1.1-.828,5.281,5.281,0,0,1,2.024-1.748c.092,0,.184-.092.276-.184a2.031,2.031,0,0,1,1.288-1.012A1.779,1.779,0,0,1,35.88-50.14c.092-.184.092-.368.184-.552l.276-.276h.552a2.4,2.4,0,0,1,1.472-1.012A2.685,2.685,0,0,1,36.892-50.968Zm-4.048,7.176-.276.184C32.66-43.608,32.752-43.7,32.844-43.792Zm-3.128,2.484V-41.4a3.243,3.243,0,0,1,1.472-1.472C30.636-41.952,30.084-41.4,29.716-41.308Zm-.92.92c0,.092-.092.184-.184.276-.092-.092-.184-.092-.092-.184s.184-.184.276-.184C28.8-40.48,28.888-40.388,28.8-40.388ZM21.344-35.7a2,2,0,0,1-.46.736,2,2,0,0,1,.46-.736,2.553,2.553,0,0,1,1.288-1.472.321.321,0,0,1,.092-.184v.092a.09.09,0,0,0-.092.092A2.866,2.866,0,0,1,21.344-35.7Zm4.232-1.1v-.092h.092C25.576-36.892,25.576-36.892,25.576-36.8ZM24.2-35.052a.648.648,0,0,1-.368.46.09.09,0,0,1-.092-.092c0-.092.092-.184.184-.276,0-.092.184-.092.276-.184Zm-9.66,9.292a3.062,3.062,0,0,1-1.012,1.748,13.573,13.573,0,0,1-2.3,4.048,10.506,10.506,0,0,1,2.3-4.048,2.636,2.636,0,0,1,1.012-1.748,4.67,4.67,0,0,1,.828-1.656l3.312-4.968A4.822,4.822,0,0,1,19.6-33.4a1.637,1.637,0,0,1,.736-1.012A2.609,2.609,0,0,1,19.6-33.4a3.109,3.109,0,0,1-.552,1.1l-3.68,5.612A3.955,3.955,0,0,1,14.536-25.76Zm7.636-6.624c.092-.276.092-.644.368-.828a.285.285,0,0,1,.184-.092.285.285,0,0,1,.092.184A2.625,2.625,0,0,1,22.172-32.384Zm-1.564,2.3c-.46.828-1.012,1.564-1.564,2.392l-.46.552c-.184.092-.368.184-.46,0a.176.176,0,0,1-.092-.276,3.268,3.268,0,0,1,.368-.828,6.824,6.824,0,0,1,1.472-1.84H19.78A1.779,1.779,0,0,1,21.068-31.1,8.965,8.965,0,0,1,20.608-30.084Zm-5.06,7.636a2.011,2.011,0,0,0-.276.46v-.46h.276V-23a3.531,3.531,0,0,1,1.012-1.012A3.55,3.55,0,0,1,15.548-22.448ZM8.924-15.364a4.337,4.337,0,0,1-.552,1.38.2.2,0,0,1-.184.184C8-13.892,8.1-13.984,8.1-14.076a2.418,2.418,0,0,1,.828-1.288,9.358,9.358,0,0,1,2.024-4.048,20.809,20.809,0,0,1-1.656,3.588C9.2-15.64,9.016-15.548,8.924-15.364Zm3.128,0a4.227,4.227,0,0,0-.644,1.472.435.435,0,0,1-.46-.46h-.276a.173.173,0,0,1,.276,0,19.859,19.859,0,0,1,2.024-3.588A8.629,8.629,0,0,1,12.052-15.364ZM10.488-12.42l-.092-.092V-12.6c.092-.092.184,0,.184.092A.09.09,0,0,0,10.488-12.42Zm-4.6,4.14a.553.553,0,0,0-.092.368c0,.092-.092.092-.184.184v-.184a1.27,1.27,0,0,1,.276-.368,8.668,8.668,0,0,1,1.748-4.232A17.106,17.106,0,0,1,5.888-8.28Zm35.236-.644a1.79,1.79,0,0,1-.92,1.1v-.46Zm3.312.184v.092a.09.09,0,0,1,.092-.092ZM39.008-7.36v.092h-.092ZM7.544-4.968A5.844,5.844,0,0,1,8-7.084l.184.276A14.6,14.6,0,0,1,7.544-4.968ZM9.568,17.848,10.4,17.2a51.83,51.83,0,0,0,7.084-4.968c3.036-2.392,5.888-4.968,8.74-7.636C27.784,3.128,29.44,1.656,31.1.184l2.576-2.576A35.267,35.267,0,0,0,36.34-4.968,3.509,3.509,0,0,1,37.628-5.98a5.7,5.7,0,0,1-1.012,1.564l-.276.276h.184l-.184.184v-.276l-.276.276L35.6-3.4l-.276.276h.184l-.184.184-.276.276A8.767,8.767,0,0,1,32.66-.184a1.112,1.112,0,0,1-.92.276A5.952,5.952,0,0,1,31,.92a.345.345,0,0,1,0,.552,3.3,3.3,0,0,1-1.288.92V2.116a8.3,8.3,0,0,0-2.3,2.116h.552a7.029,7.029,0,0,1-2.3,2.024l.552-.828a5.961,5.961,0,0,0-1.84,1.564h.552A6.048,6.048,0,0,1,22.908,8.74a4.426,4.426,0,0,1-.828,1.012,80.3,80.3,0,0,1-7.452,6.164,7.189,7.189,0,0,1-1.84,1.012,1.308,1.308,0,0,1-.552.184v-.184a10.983,10.983,0,0,0-1.472.736,3.4,3.4,0,0,0-1.012.46.321.321,0,0,1-.184-.092ZM3.588-1.38A.285.285,0,0,1,3.5-1.2c0,.092,0,.184-.092.092A.09.09,0,0,1,3.5-1.2c0-.092,0-.184.092-.184A6.982,6.982,0,0,1,4.6-4.692,11.419,11.419,0,0,1,3.588-1.38ZM35.052-2.944h.276V-3.22Zm-28.7,1.1a.09.09,0,0,0-.092-.092.09.09,0,0,1,.092-.092l.092.092A.09.09,0,0,1,6.348-1.84ZM5.98-.368c0,.092-.092.092-.184,0A.09.09,0,0,0,5.888-.46H5.98Zm25.76.46c.092,0,.184-.092.276-.184C31.924-.092,31.832,0,31.74.092ZM5.428,2.208c-.092,0-.184,0-.184-.092a.321.321,0,0,1,.092-.184c.092-.092.184,0,.184.092S5.428,2.116,5.428,2.208Zm17.48,6.256-.552.276h.552ZM21.9,9.292l.276-.276c.092-.092.092-.184.184-.276l-.276.276C22.08,9.108,21.988,9.2,21.9,9.292Zm-1.84,1.472a5.057,5.057,0,0,0,1.564-1.2A3.965,3.965,0,0,0,20.056,10.764Zm0,0c-.092.092-.092.184-.184.276l.276-.276Zm-1.472,1.288.736-.46A3.227,3.227,0,0,0,18.584,12.052Zm-.552.552-.276.184C17.94,12.788,17.94,12.7,18.032,12.6Zm-1.2,1.012.184-.276C16.928,13.432,16.836,13.524,16.836,13.616Zm0,0c-.092.092-.184.184-.276.184l-.828.552a3.729,3.729,0,0,1,.828-.46Zm-1.1.736c0,.092-.092.184-.184.276l.276-.276Zm-.184.276c-.276.184-.552.276-.828.46l-.184.276.276-.276Zm-2.576,1.748a5.1,5.1,0,0,0-.736.552.689.689,0,0,1,.46-.092ZM91.264-11.04c-4.508,2.852-9.292,5.244-13.8,8A17.593,17.593,0,0,1,74.52-1.564a10.868,10.868,0,0,1-2.852.736c-.092,0-.276-.092-.276-.184a.321.321,0,0,1,.092-.184,10.318,10.318,0,0,1,1.2-.46A18.432,18.432,0,0,0,76.36-3.22C77.832-4.048,79.3-4.784,80.776-5.7c2.116-1.288,4.324-2.484,6.532-3.68,1.288-.736,2.668-1.564,4.048-2.3a7.958,7.958,0,0,0,.92-.644.8.8,0,0,0,.276-.552A.583.583,0,0,0,92-13.34a1.566,1.566,0,0,0-.644.092c-.46.184-.828.368-1.288.552L84.824-9.844A3.777,3.777,0,0,1,83.26-9.2a8.284,8.284,0,0,1-3.128,1.84l.276-.552a2.623,2.623,0,0,0-1.288.736l1.012-.276a1.109,1.109,0,0,1-.46.46c-1.748,1.1-3.5,2.208-5.336,3.128A8.377,8.377,0,0,1,70.1-3.22a.321.321,0,0,1-.092-.184.285.285,0,0,1,.092-.184l.46-.184A29.329,29.329,0,0,0,77.1-6.624c1.2-.644,2.392-1.38,3.588-2.116a95.793,95.793,0,0,1,9.568-5.152,2.011,2.011,0,0,0,.46-.276c.184-.092.368-.276.276-.46,0-.276-.184-.368-.46-.368a2.525,2.525,0,0,0-1.2.184,35.645,35.645,0,0,0-5.98,2.852c-1.932,1.012-3.68,2.208-5.612,3.22a1.924,1.924,0,0,0-.552.368A21.511,21.511,0,0,1,73.14-6.164a14.679,14.679,0,0,0-2.116.92,1.655,1.655,0,0,1-1.472-.184c-.184-.092-.276-.368-.092-.46a4.439,4.439,0,0,0,1.38-2.024c.644-1.288,1.2-2.576,1.932-3.772a1.136,1.136,0,0,0,.368-.736,1.736,1.736,0,0,1,.92-1.2,8.982,8.982,0,0,0,1.564-1.656.72.72,0,0,0,0-1.012c-.46-.184-.644-.368-.46-.828a1.055,1.055,0,0,0-.46-1.1,2.176,2.176,0,0,1-1.012-1.2,1.32,1.32,0,0,0-1.932-.644,1.637,1.637,0,0,0-.644.736,4.152,4.152,0,0,1-1.932,1.84c-1.656,1.012-3.312,2.024-4.876,3.128a13.9,13.9,0,0,1-1.656.828,58.769,58.769,0,0,0-5.52,2.392,8.412,8.412,0,0,1-1.288.644,2.974,2.974,0,0,1-1.564.276.7.7,0,0,1-.644-.736,8.163,8.163,0,0,1,.736-2.944,1.469,1.469,0,0,0-.46-2.208l-.276-.276a.977.977,0,0,0-1.2-.184,3.746,3.746,0,0,0-1.288,1.1,12.633,12.633,0,0,0-2.116,4.324,6.8,6.8,0,0,0,0,1.932,9.085,9.085,0,0,0,1.1,2.576,3.333,3.333,0,0,0,3.588,1.748A13.447,13.447,0,0,0,57.04-5.7,13.034,13.034,0,0,0,58.7-6.44c1.932-.828,3.864-1.656,5.8-2.576.184,0,.276-.092.46-.184a.49.49,0,0,1,.644.46A1.566,1.566,0,0,1,65.5-8.1a2.686,2.686,0,0,1-.184.828A8.541,8.541,0,0,0,66.608-1.84,4.6,4.6,0,0,0,71.116-.092a10.88,10.88,0,0,0,4.14-1.288c2.484-1.288,4.784-2.668,7.176-4.048,2.668-1.564,5.428-3.036,8.188-4.6.736-.46,1.38-.92,2.024-1.288a2.517,2.517,0,0,0,.368-.46A4.363,4.363,0,0,0,91.264-11.04ZM68.632-15.18l-.644.644-.552.276h.552a4.439,4.439,0,0,1-2.024,1.38,5.925,5.925,0,0,1-1.84,1.012C62.56-11.132,61-10.4,59.432-9.752a5.187,5.187,0,0,1-1.1.368,2.2,2.2,0,0,1-1.288.46,2.2,2.2,0,0,1-1.288.46l-.736.276v-.276l-1.38.276c0,.092-.092,0-.184-.092a.321.321,0,0,0,.092-.184L54-8.648c2.484-.92,4.876-1.932,7.268-3.036a28.534,28.534,0,0,0,5.244-2.76l1.932-1.012c0-.092.184-.092.184,0A.173.173,0,0,1,68.632-15.18Zm-15.548-.184c-.092,0-.092,0-.092.092,0-.092,0-.184.092-.184Zm36.524,2.392.46-.276A2.011,2.011,0,0,0,89.608-12.972Zm-1.1.46a1.308,1.308,0,0,1,.552-.184l.552-.276a1.308,1.308,0,0,1-.552.184Zm-.92.644h-.092l-.092.092C87.492-11.868,87.492-11.868,87.584-11.868Zm-.276.092H87.4Zm0,.092v-.092l-.552.276C86.94-11.592,87.124-11.592,87.308-11.684Zm-.552.184-.46.276A2.011,2.011,0,0,0,86.756-11.5Zm-1.564.828.552-.276a1.308,1.308,0,0,1-.552.184c0,.092-.092.092-.092.184A.09.09,0,0,1,85.192-10.672Zm-19.136.184a1.564,1.564,0,0,1-.92.552c-1.288.644-2.668,1.288-4.048,1.84L56.12-6.164a4.334,4.334,0,0,1-1.564.368c-.092,0-.184,0-.184-.092-.092-.092,0-.184.092-.184a4.485,4.485,0,0,1,1.012-.368c3.22-1.2,6.44-2.576,9.476-4.048a4.485,4.485,0,0,1,1.012-.368.321.321,0,0,0,.184.092A.338.338,0,0,1,66.056-10.488ZM85.1-10.58a2.306,2.306,0,0,0-.644.368A2.306,2.306,0,0,0,85.1-10.58Zm-1.656.92a2.623,2.623,0,0,0-1.288.736l1.1-.276h-.092A2.011,2.011,0,0,1,83.444-9.66Zm-1.2.736h-.092a2.011,2.011,0,0,1-.46.276Zm-.552.276a2,2,0,0,0-.736.46A2,2,0,0,0,81.7-8.648ZM69.736-7.176h.092v.092c0,.092-.092.092-.092,0Zm9.384,0-.46.276A2.011,2.011,0,0,0,79.12-7.176Zm-.46.276a2,2,0,0,0-.736.46A3.228,3.228,0,0,0,78.66-6.9Zm-.736.552V-6.44l-.552.276C77.556-6.256,77.74-6.256,77.924-6.348Zm-2.3,1.2.46-.184C75.9-5.336,75.808-5.244,75.624-5.152ZM74.612-4.6a2.011,2.011,0,0,0,.46-.276Zm52.072-4.14c-.092-.46-.46-.828-1.2-.644a3.45,3.45,0,0,0-1.012.092.244.244,0,0,1-.276-.276.321.321,0,0,1,.184-.092c.276-.092.552-.092.828-.184a1.635,1.635,0,0,0,.92-.368.336.336,0,0,0,.184-.46.337.337,0,0,0-.368-.368h-.828a11.254,11.254,0,0,1-1.564.276c-2.392-.092-4.784.368-7.176.276-.92,0-1.932,0-2.852.092a3.485,3.485,0,0,1-1.38,0c-.828,0-1.656-.092-2.484-.092a22.125,22.125,0,0,1-6.44-1.2,2.011,2.011,0,0,0-.46-.276,1.076,1.076,0,0,1-.736-1.012,1.8,1.8,0,0,1-.092-.644,10.166,10.166,0,0,0-1.38-3.956,1.12,1.12,0,0,0-1.472-.644c-.46.092-.828.276-1.2.368a16.43,16.43,0,0,0-3.864,2.76c-.828.644-1.656,1.38-2.484,2.116a3.227,3.227,0,0,1-.736.46c-.46.276-.828.092-1.1-.368-.092-.184-.092-.46-.184-.644a.649.649,0,0,0-1.2-.184,20.819,20.819,0,0,0-1.2,1.84c-1.288,2.116-2.576,4.232-3.864,6.44a2.112,2.112,0,0,0-.368,1.288,5.06,5.06,0,0,1,.184,2.024.646.646,0,0,0,.368.828c.368.184.46.46.644.736.184.552,1.1.736,1.38.368a31.361,31.361,0,0,0,3.5-3.5,2.382,2.382,0,0,0,.644-1.012.465.465,0,0,1,.644-.46.8.8,0,0,0,.552-.276c.276-.368.736-.552.828-1.1a2,2,0,0,1,.46-.736h.276a1.109,1.109,0,0,0,.46-.46l.552-.552a1.849,1.849,0,0,0,.736-.368,13.173,13.173,0,0,1,2.024-1.38l.276-.276H96.14l.276-.276,1.38-1.1c.92-.828,1.38-.644,1.564.552a5.734,5.734,0,0,0,1.564,2.944A8.771,8.771,0,0,0,105.248-5.8a29.248,29.248,0,0,0,5.7.552,89.4,89.4,0,0,0,13.064-1.1,4.618,4.618,0,0,0,1.1-.184l.276-.184c.092,0,.092-.092.092-.184H125.3c-.644.092-1.288.276-1.932.368-1.932.184-3.864.368-5.8.644A44.641,44.641,0,0,1,111.5-5.7a16.847,16.847,0,0,1-4.324-.46,1.308,1.308,0,0,1-.552-.184.2.2,0,0,1-.184-.184.321.321,0,0,1,.184-.092h1.1a50.06,50.06,0,0,0,5.244.276c1.012,0,2.116-.092,3.128-.184a71.516,71.516,0,0,0,8.924-.92c.276-.092.552-.092.828-.184C126.408-7.912,126.776-8.28,126.684-8.74Zm-27.968-8v-.092l.092.092ZM121.992-9.2c-.092.092-.184.092-.368.092-1.2.184-2.484.276-3.772.368a7.9,7.9,0,0,0-1.564.276h3.68c-.184.092-.368.092-.552.184A50.266,50.266,0,0,1,110.308-8a4.193,4.193,0,0,1-2.116-.46h1.2a20.863,20.863,0,0,1-2.3-.552c0-.368.276-.276.46-.184a86.017,86.017,0,0,0,9.752.092c1.656,0,3.312-.184,5.06-.276C122.36-9.2,122.176-9.2,121.992-9.2Zm-1.564.644a.553.553,0,0,1,.368-.092.338.338,0,0,1,.276.092Zm-11.04.092a5.384,5.384,0,0,0,1.2.184H115a6.212,6.212,0,0,0,1.288-.184C113.988-8.464,111.688-8.372,109.388-8.464Zm51.888-.276c-.092-.46-.46-.828-1.2-.644a3.45,3.45,0,0,0-1.012.092.244.244,0,0,1-.276-.276.321.321,0,0,1,.184-.092c.276-.092.552-.092.828-.184a1.635,1.635,0,0,0,.92-.368.336.336,0,0,0,.184-.46.337.337,0,0,0-.368-.368h-.828a11.254,11.254,0,0,1-1.564.276c-2.392-.092-4.784.368-7.176.276-.92,0-1.932,0-2.852.092a3.484,3.484,0,0,1-1.38,0c-.828,0-1.656-.092-2.484-.092a22.125,22.125,0,0,1-6.44-1.2,2.011,2.011,0,0,0-.46-.276,1.076,1.076,0,0,1-.736-1.012,1.8,1.8,0,0,1-.092-.644,10.166,10.166,0,0,0-1.38-3.956,1.12,1.12,0,0,0-1.472-.644c-.46.092-.828.276-1.2.368a16.43,16.43,0,0,0-3.864,2.76c-.828.644-1.656,1.38-2.484,2.116a3.227,3.227,0,0,1-.736.46c-.46.276-.828.092-1.1-.368-.092-.184-.092-.46-.184-.644a.649.649,0,0,0-1.2-.184,20.819,20.819,0,0,0-1.2,1.84c-1.288,2.116-2.576,4.232-3.864,6.44a2.112,2.112,0,0,0-.368,1.288,5.06,5.06,0,0,1,.184,2.024.646.646,0,0,0,.368.828c.368.184.46.46.644.736.184.552,1.1.736,1.38.368a31.361,31.361,0,0,0,3.5-3.5,2.382,2.382,0,0,0,.644-1.012.465.465,0,0,1,.644-.46.8.8,0,0,0,.552-.276c.276-.368.736-.552.828-1.1a2,2,0,0,1,.46-.736h.276a1.109,1.109,0,0,0,.46-.46l.552-.552a1.849,1.849,0,0,0,.736-.368,13.173,13.173,0,0,1,2.024-1.38l.276-.276h-.276l.276-.276,1.38-1.1c.92-.828,1.38-.644,1.564.552a5.734,5.734,0,0,0,1.564,2.944A8.771,8.771,0,0,0,139.84-5.8a29.249,29.249,0,0,0,5.7.552,89.4,89.4,0,0,0,13.064-1.1,4.618,4.618,0,0,0,1.1-.184l.276-.184c.092,0,.092-.092.092-.184H159.9c-.644.092-1.288.276-1.932.368-1.932.184-3.864.368-5.8.644A44.641,44.641,0,0,1,146.1-5.7a16.847,16.847,0,0,1-4.324-.46,1.308,1.308,0,0,1-.552-.184.2.2,0,0,1-.184-.184.321.321,0,0,1,.184-.092h1.1a50.06,50.06,0,0,0,5.244.276c1.012,0,2.116-.092,3.128-.184a71.516,71.516,0,0,0,8.924-.92c.276-.092.552-.092.828-.184C161-7.912,161.368-8.28,161.276-8.74Zm-27.968-8v-.092l.092.092ZM156.584-9.2c-.092.092-.184.092-.368.092-1.2.184-2.484.276-3.772.368a7.9,7.9,0,0,0-1.564.276h3.68c-.184.092-.368.092-.552.184A50.266,50.266,0,0,1,144.9-8a4.194,4.194,0,0,1-2.116-.46h1.2a20.861,20.861,0,0,1-2.3-.552c0-.368.276-.276.46-.184a86.017,86.017,0,0,0,9.752.092c1.656,0,3.312-.184,5.06-.276C156.952-9.2,156.768-9.2,156.584-9.2Zm-1.564.644a.553.553,0,0,1,.368-.092.338.338,0,0,1,.276.092Zm-11.04.092a5.384,5.384,0,0,0,1.2.184h4.416a6.212,6.212,0,0,0,1.288-.184C148.58-8.464,146.28-8.372,143.98-8.464Zm29.348-19.872a.556.556,0,0,0,.276.552,1,1,0,0,0,1.564.092l.552-.552a11.849,11.849,0,0,1,1.564-1.472c.184-.092.368-.46.46,0a4.53,4.53,0,0,0,1.38-.92,20.087,20.087,0,0,1,2.024-1.932,1.555,1.555,0,0,0,.644-.92h.092a.345.345,0,0,1,0-.552l.92-.828a2.989,2.989,0,0,0,.92-1.2.756.756,0,0,0-.092-.644.577.577,0,0,0-.736-.184,6.777,6.777,0,0,0-1.288.368l.92-.92c.184-.184.46-.276.368-.552,0-.276-.368-.368-.828-.184a1.308,1.308,0,0,0-.552.184,15.267,15.267,0,0,0-2.944,2.024,7.418,7.418,0,0,1-1.288,1.1A29.105,29.105,0,0,0,173.6-31a.933.933,0,0,0-.276.92A2.832,2.832,0,0,1,173.328-28.336Zm3.956-1.1c-.092.092-.092.276.092.276.092,0,.184-.092.276-.184l.092-.368h-.46Zm6.072,20.332c-.092.092-.276.092-.46.184a56.39,56.39,0,0,1-5.612,1.656,63.3,63.3,0,0,0-8,2.76c-1.932.736-3.772,1.472-5.7,2.3a19.535,19.535,0,0,1-4.14,1.1,1.277,1.277,0,0,1-.828,0c-.092,0-.092-.092-.092-.184-.092-.092,0-.092,0-.092l.552-.276A25.916,25.916,0,0,0,161.92-2.3c1.564-.46,2.944-1.1,4.416-1.656a80.178,80.178,0,0,1,8.924-3.312c2.484-.736,4.968-1.472,7.452-2.116.368-.184.736-.276,1.1-.46a.621.621,0,0,0,.368-.552.931.931,0,0,0-.368-.644c-.368-.092-.644-.276-1.012-.368a2.547,2.547,0,0,0-1.2.276h.368l.092.184a.478.478,0,0,1-.368.184,4.555,4.555,0,0,1-1.2.368c-1.84.552-3.772,1.012-5.7,1.564a3.131,3.131,0,0,1-1.288.184,2.5,2.5,0,0,1-1.564.552,2.4,2.4,0,0,1-.736.276,1.045,1.045,0,0,1,.736-.276,2.439,2.439,0,0,0,.46-.552,6.413,6.413,0,0,0-1.748.552,17.677,17.677,0,0,0-3.588,1.564c.276,0,.552-.092.828-.092a1.816,1.816,0,0,1-1.288.552l.46-.46.092-.092a18,18,0,0,0-4.324,1.84h.736a10.741,10.741,0,0,1-4.048,1.472c-.092,0-.276,0-.276-.184,0-.092.184-.184.276-.276h-.276c-.184,0-.276-.092-.276-.184-.092-.184.092-.276.184-.276.092-.092.184-.092.368-.184a43.379,43.379,0,0,0,6.348-2.208,67.629,67.629,0,0,1,10.212-3.68A55.05,55.05,0,0,1,182.8-11.96a.469.469,0,0,0,.46-.368.493.493,0,0,0-.46-.46h-.644c-1.932.368-3.772.368-5.612,1.1-.552.276-1.2.46-1.748.736a9.7,9.7,0,0,1-2.208.552,14.149,14.149,0,0,0-4.324,1.472,14.679,14.679,0,0,1-2.116.92c-1.38.552-2.852,1.012-4.324,1.472l-1.1.276c-.276,0-.46-.276-.368-.46a2.273,2.273,0,0,1,.368-.828,19.739,19.739,0,0,1,1.656-2.208,1.4,1.4,0,0,0,.644-1.1,2.735,2.735,0,0,1,.736-1.84,9.162,9.162,0,0,0,.92-1.012,1.653,1.653,0,0,0,.368-.828.883.883,0,0,0-.276-.92.685.685,0,0,0-.828-.092c-.184.092-.276.092-.276-.184,0-.092.092-.184.092-.276.276-.552.092-.736-.552-.736a2.623,2.623,0,0,0-1.288.736c-1.012.92-1.84,2.024-2.852,3.128a39.432,39.432,0,0,0-3.68,5.06,3.436,3.436,0,0,0-.46,2.668c0,.368.092.736.092,1.012a3.822,3.822,0,0,0,4.6,3.588.09.09,0,0,0,.092-.092c1.2-.276,2.3-.552,3.4-.92,1.656-.552,3.312-1.2,4.876-1.84a50.27,50.27,0,0,1,7.084-2.576c2.852-.828,5.7-1.656,8.464-2.668.184-.092.46-.092.644-.368C184.276-9.2,183.816-9.2,183.356-9.108Zm-2.76-1.84c-.368.092-.736.184-1.012.276l1.012-.184Zm-1.012.276c-.368.092-.644.184-1.012.276Zm-2.024.552a5.657,5.657,0,0,0,1.012-.276A1.855,1.855,0,0,0,177.56-10.12Zm-1.84.46a4.188,4.188,0,0,0,1.84-.46A6.007,6.007,0,0,0,175.72-9.66Zm-1.748.552a3.029,3.029,0,0,0,1.748-.552A4.3,4.3,0,0,0,173.972-9.108Zm0,0a3.391,3.391,0,0,0-1.564.46h1.012A2.439,2.439,0,0,0,173.972-9.108Zm-.46.46h0Zm-11.5,4.14.828-.276h-.092Zm0,0a2.165,2.165,0,0,0-.736.184C161.552-4.416,161.828-4.416,162.012-4.508Zm61.364-4.876a.72.72,0,0,0,0-1.012,1.449,1.449,0,0,1-.368-1.2c.276-.552-.368-1.012-.828-.92a6.212,6.212,0,0,0-1.288.184l-6.256,1.656a1.948,1.948,0,0,0-.644.276,8.314,8.314,0,0,1-1.932.736c-2.3.552-4.508,1.288-6.9,1.748-1.748.368-3.4.828-5.152,1.2-1.564.368-3.128.736-4.692,1.012a26.663,26.663,0,0,1-5.8.46,37.773,37.773,0,0,1-4.876-.276c-1.288-.092-1.288-.736-.644-1.656a29.218,29.218,0,0,1,4.784-5.336,11.425,11.425,0,0,1,2.116-1.564,7.983,7.983,0,0,1,3.128-1.1,7,7,0,0,1,1.932.276c.552.184.736.552.368,1.2l-.552.92a3.1,3.1,0,0,0-.368,2.024.983.983,0,0,0,1.472.644,1.883,1.883,0,0,0,.736-.736,17.258,17.258,0,0,1,1.1-1.656,2.286,2.286,0,0,0,.644-2.024,7.954,7.954,0,0,0-.828-3.22,2.176,2.176,0,0,0-1.012-1.2,5.359,5.359,0,0,0-2.668-.828h-2.024a6.6,6.6,0,0,0-3.312,1.2,4,4,0,0,1-.644.368,9.853,9.853,0,0,0-3.864,2.576c-1.012,1.1-2.024,2.208-3.036,3.4a11.858,11.858,0,0,0-1.748,2.944,5.848,5.848,0,0,0-.552,1.656,18.816,18.816,0,0,0,0,3.22,4.744,4.744,0,0,0,3.4,3.864,9.706,9.706,0,0,0,2.852.368A20,20,0,0,1,189.244,0h1.748a51.662,51.662,0,0,0,9.2-1.38c5.52-1.288,11.04-2.76,16.468-4.6a55.909,55.909,0,0,0,5.52-1.932c.552-.276,1.2-.368,1.012-1.2C223.1-9.2,223.284-9.292,223.376-9.384Zm-34.592-7.268a2,2,0,0,1,.736-.46,6.455,6.455,0,0,0,1.472-.92,2.306,2.306,0,0,1,.644-.368,9.547,9.547,0,0,1,2.944-.368,8.871,8.871,0,0,1,1.1.184.478.478,0,0,1,.368.184.7.7,0,0,1,.184.368q0,.138-.276.276h-.46a19.229,19.229,0,0,1-2.3.092,8.826,8.826,0,0,0-3.68,1.012c-.184.092-.46.092-.644.184h-.092Zm6.9,1.012a14.977,14.977,0,0,0-2.852.276c-.552.092-1.012.184-1.748.368a1.632,1.632,0,0,1,.92-.736,6.672,6.672,0,0,1,3.772-.368c.184,0,.368.092.368.184C196.144-15.64,195.868-15.64,195.684-15.64ZM188.048-12.6c.092,0,.184,0,.184-.092a.321.321,0,0,1-.092.184.09.09,0,0,0-.092.092C187.956-12.512,187.956-12.512,188.048-12.6Zm30.268,2.852a.09.09,0,0,1-.092-.092l.092-.092c.184-.092.184,0,.184.092ZM185.38-9.844v.092c-.092,0-.092.092-.184.092.092-.092.092-.092.092-.184C185.38-9.936,185.38-9.936,185.38-9.844Zm31.372,3.22c-.276.092-.552.276-.92.092,0-.184.184-.184.276-.184.644-.092,1.2-.276,1.84-.368A2.711,2.711,0,0,1,216.752-6.624Zm-12.512.552a2.45,2.45,0,0,1-1.1.276C203.412-6.072,203.872-5.98,204.24-6.072Zm8.464.736-1.748.552c-3.128.828-6.348,1.748-9.568,2.576a45.083,45.083,0,0,1-7.82,1.472,44.34,44.34,0,0,1-8.556-.184L184-1.2c-.092,0-.092-.092-.184-.184.092,0,.184-.092.276-.092a11.731,11.731,0,0,1,1.748.092c1.012,0,2.024.092,3.036.092A44.784,44.784,0,0,0,202.4-3.036c3.22-.736,6.348-1.564,9.476-2.484a1.733,1.733,0,0,1,.736-.184s.184,0,.184.092C212.888-5.52,212.8-5.428,212.7-5.336ZM183.54-3.956c0-.184.184-.092.368-.092a16.286,16.286,0,0,1,2.116.092,43.7,43.7,0,0,0,14.26-1.288,3.142,3.142,0,0,1,1.38-.184c-.276.368-.552.276-.828.368-1.2.368-2.484.552-3.68,1.012h1.472a5.657,5.657,0,0,1,1.012-.276,1.855,1.855,0,0,1-1.012.276,4.07,4.07,0,0,1-1.38.46,38.147,38.147,0,0,1-7.176.828,1.513,1.513,0,0,1-.92-.184v-.092c-.092,0,0-.092,0-.092.184,0,.368-.092.552-.092.92-.092,1.84-.092,2.668-.092a1.364,1.364,0,0,0,.644-.092h-1.2a58.282,58.282,0,0,1-8-.368C183.724-3.772,183.54-3.864,183.54-3.956Zm13.064.092h.184c.092-.092.276-.092.368-.184a.553.553,0,0,1-.368.092C196.7-3.956,196.6-3.956,196.6-3.864Zm-1.564.184h-.184a.09.09,0,0,0-.092.092h.092A.321.321,0,0,1,195.04-3.68Zm66.24-7.36c-4.508,2.852-9.292,5.244-13.8,8a17.594,17.594,0,0,1-2.944,1.472,10.868,10.868,0,0,1-2.852.736c-.092,0-.276-.092-.276-.184A.321.321,0,0,1,241.5-1.2a10.318,10.318,0,0,1,1.2-.46,18.432,18.432,0,0,0,3.68-1.564c1.472-.828,2.944-1.564,4.416-2.484,2.116-1.288,4.324-2.484,6.532-3.68,1.288-.736,2.668-1.564,4.048-2.3a7.956,7.956,0,0,0,.92-.644.8.8,0,0,0,.276-.552.583.583,0,0,0-.552-.46,1.566,1.566,0,0,0-.644.092c-.46.184-.828.368-1.288.552L254.84-9.844a3.777,3.777,0,0,1-1.564.644,8.284,8.284,0,0,1-3.128,1.84l.276-.552a2.623,2.623,0,0,0-1.288.736l1.012-.276a1.109,1.109,0,0,1-.46.46c-1.748,1.1-3.5,2.208-5.336,3.128a8.377,8.377,0,0,1-4.232.644.321.321,0,0,1-.092-.184.285.285,0,0,1,.092-.184l.46-.184a29.328,29.328,0,0,0,6.532-2.852c1.2-.644,2.392-1.38,3.588-2.116a95.791,95.791,0,0,1,9.568-5.152,2.011,2.011,0,0,0,.46-.276c.184-.092.368-.276.276-.46,0-.276-.184-.368-.46-.368a2.525,2.525,0,0,0-1.2.184,35.644,35.644,0,0,0-5.98,2.852c-1.932,1.012-3.68,2.208-5.612,3.22a1.924,1.924,0,0,0-.552.368,21.511,21.511,0,0,1-4.048,2.208,14.679,14.679,0,0,0-2.116.92,1.655,1.655,0,0,1-1.472-.184c-.184-.092-.276-.368-.092-.46a4.439,4.439,0,0,0,1.38-2.024c.644-1.288,1.2-2.576,1.932-3.772a1.136,1.136,0,0,0,.368-.736,1.736,1.736,0,0,1,.92-1.2,8.982,8.982,0,0,0,1.564-1.656.72.72,0,0,0,0-1.012c-.46-.184-.644-.368-.46-.828a1.055,1.055,0,0,0-.46-1.1,2.176,2.176,0,0,1-1.012-1.2,1.32,1.32,0,0,0-1.932-.644,1.636,1.636,0,0,0-.644.736,4.152,4.152,0,0,1-1.932,1.84c-1.656,1.012-3.312,2.024-4.876,3.128a13.9,13.9,0,0,1-1.656.828,58.77,58.77,0,0,0-5.52,2.392,8.412,8.412,0,0,1-1.288.644,2.974,2.974,0,0,1-1.564.276.7.7,0,0,1-.644-.736,8.163,8.163,0,0,1,.736-2.944,1.469,1.469,0,0,0-.46-2.208l-.276-.276a.977.977,0,0,0-1.2-.184,3.746,3.746,0,0,0-1.288,1.1,12.633,12.633,0,0,0-2.116,4.324,6.8,6.8,0,0,0,0,1.932,9.085,9.085,0,0,0,1.1,2.576,3.333,3.333,0,0,0,3.588,1.748,13.447,13.447,0,0,0,3.312-.828,13.034,13.034,0,0,0,1.656-.736c1.932-.828,3.864-1.656,5.8-2.576.184,0,.276-.092.46-.184a.49.49,0,0,1,.644.46,1.566,1.566,0,0,1-.092.644,2.686,2.686,0,0,1-.184.828,8.541,8.541,0,0,0,1.288,5.428,4.6,4.6,0,0,0,4.508,1.748,10.88,10.88,0,0,0,4.14-1.288c2.484-1.288,4.784-2.668,7.176-4.048,2.668-1.564,5.428-3.036,8.188-4.6.736-.46,1.38-.92,2.024-1.288a2.517,2.517,0,0,0,.368-.46A4.364,4.364,0,0,0,261.28-11.04Zm-22.632-4.14-.644.644-.552.276H238a4.439,4.439,0,0,1-2.024,1.38,5.925,5.925,0,0,1-1.84,1.012c-1.564.736-3.128,1.472-4.692,2.116a5.187,5.187,0,0,1-1.1.368,2.2,2.2,0,0,1-1.288.46,2.2,2.2,0,0,1-1.288.46l-.736.276v-.276l-1.38.276c0,.092-.092,0-.184-.092a.321.321,0,0,0,.092-.184l.46-.184c2.484-.92,4.876-1.932,7.268-3.036a28.534,28.534,0,0,0,5.244-2.76l1.932-1.012c0-.092.184-.092.184,0A.173.173,0,0,1,238.648-15.18ZM223.1-15.364c-.092,0-.092,0-.092.092,0-.092,0-.184.092-.184Zm36.524,2.392.46-.276A2.01,2.01,0,0,0,259.624-12.972Zm-1.1.46a1.308,1.308,0,0,1,.552-.184l.552-.276a1.308,1.308,0,0,1-.552.184Zm-.92.644h-.092l-.092.092C257.508-11.868,257.508-11.868,257.6-11.868Zm-.276.092h.092Zm0,.092v-.092l-.552.276C256.956-11.592,257.14-11.592,257.324-11.684Zm-.552.184-.46.276A2.011,2.011,0,0,0,256.772-11.5Zm-1.564.828.552-.276a1.308,1.308,0,0,1-.552.184c0,.092-.092.092-.092.184A.09.09,0,0,1,255.208-10.672Zm-19.136.184a1.565,1.565,0,0,1-.92.552c-1.288.644-2.668,1.288-4.048,1.84l-4.968,1.932a4.334,4.334,0,0,1-1.564.368c-.092,0-.184,0-.184-.092-.092-.092,0-.184.092-.184a4.484,4.484,0,0,1,1.012-.368c3.22-1.2,6.44-2.576,9.476-4.048a4.484,4.484,0,0,1,1.012-.368.321.321,0,0,0,.184.092A.338.338,0,0,1,236.072-10.488Zm19.044-.092a2.306,2.306,0,0,0-.644.368A2.306,2.306,0,0,0,255.116-10.58Zm-1.656.92a2.623,2.623,0,0,0-1.288.736l1.1-.276h-.092A2.011,2.011,0,0,1,253.46-9.66Zm-1.2.736h-.092a2.012,2.012,0,0,1-.46.276Zm-.552.276a2,2,0,0,0-.736.46A2,2,0,0,0,251.712-8.648Zm-11.96,1.472h.092v.092c0,.092-.092.092-.092,0Zm9.384,0-.46.276A2.011,2.011,0,0,0,249.136-7.176Zm-.46.276a2,2,0,0,0-.736.46A3.228,3.228,0,0,0,248.676-6.9Zm-.736.552V-6.44l-.552.276C247.572-6.256,247.756-6.256,247.94-6.348Zm-2.3,1.2.46-.184C245.916-5.336,245.824-5.244,245.64-5.152Zm-1.012.552a2.011,2.011,0,0,0,.46-.276Zm59.8-52.348c-.276-.092-.552-.092-.92-.184-.092,0-.276-.092-.276-.184a.927.927,0,0,1,.092-.276c.184-.184.368-.276.46-.46a.176.176,0,0,0,.092-.276c0-.184-.184-.276-.368-.368a1.89,1.89,0,0,0-1.012,0,7.335,7.335,0,0,0-1.472.736c-1.38.92-2.576,2.116-3.864,3.128L294.676-52.9c-1.472,1.1-2.576,2.668-4.14,3.588l-.46.46a10.5,10.5,0,0,1-1.012,1.012l-5.244,4.968a56.448,56.448,0,0,1-4.692,4.692c-1.472,1.38-2.852,2.852-4.232,4.324-.46.46-.736,1.1-1.2,1.564a17.739,17.739,0,0,0-2.852,3.036A11.385,11.385,0,0,1,269.56-27.6a24.952,24.952,0,0,1-3.22,3.772l-.46.552a15.939,15.939,0,0,1-2.024,2.852,7.837,7.837,0,0,0-1.564,2.3,2.876,2.876,0,0,1-.828,1.012,4.269,4.269,0,0,0-1.288,2.024,10.029,10.029,0,0,1-.552,1.012,13.148,13.148,0,0,0-2.116,5.244,3.655,3.655,0,0,0,.184,2.208,19.689,19.689,0,0,1,.92,2.024,5.443,5.443,0,0,0,3.68,2.668,7.448,7.448,0,0,0,2.852-.092c1.656-.46,3.312-.92,4.968-1.472,1.38-.46,2.668-1.012,3.956-1.472A52.69,52.69,0,0,0,281.52-8a29.288,29.288,0,0,0,3.68-2.116,1.057,1.057,0,0,0,.644-.736,3.339,3.339,0,0,1-.644.276,23.194,23.194,0,0,1-3.864,2.208,76.168,76.168,0,0,1-9.016,3.5l-4.876,1.564a16.105,16.105,0,0,1-3.036.552c-.092,0-.276,0-.276-.184,0,0,.092-.184.184-.184,1.2-.368,2.392-.644,3.5-1.012l8.1-2.76a47.508,47.508,0,0,0,9.292-4.324,1.883,1.883,0,0,0,.736-.736.681.681,0,0,0-.552-.92,7.217,7.217,0,0,0-1.288-.184,2.48,2.48,0,0,0-.644.736c0,.092.092.092.092.184-.092,0-.092-.092-.092-.184a2.011,2.011,0,0,0-.46.276h.46a.7.7,0,0,1-.46.184v-.184a2.011,2.011,0,0,0-.46.276h.368c-.092.092-.276.092-.368.184a2.011,2.011,0,0,1-.46.276,2.01,2.01,0,0,1-.46.276,2.912,2.912,0,0,1-1.1.736c-1.012.46-2.116.92-3.128,1.288-2.852.92-5.8,1.84-8.648,2.852l-1.012.276c-.276,0-.276-.184-.276-.368-1.012.276-1.84.46-2.852.644a1.566,1.566,0,0,1-.644.092h-.184c0-.092,0-.184.092-.184.184-.092.276-.184.46-.184a28.4,28.4,0,0,0,3.956-1.288c2.668-.92,5.244-1.84,7.912-2.668a30.622,30.622,0,0,0,6.44-2.668,6.974,6.974,0,0,1,1.472-.552l.46-.552c.092-.184.276-.276.092-.552-.184-.184-.368-.184-.552-.276a1.837,1.837,0,0,0-.828.184c-1.288.644-2.576,1.2-3.68,1.84a10.711,10.711,0,0,1-3.956,1.38,8.872,8.872,0,0,0-2.76.92,7.637,7.637,0,0,1-1.932.552,12.439,12.439,0,0,0-3.128,1.012,24.315,24.315,0,0,1-3.68,1.1,2.026,2.026,0,0,1-.736.092c-.552.092-.828-.276-.736-.828a.338.338,0,0,0,.092-.276,6.077,6.077,0,0,1,1.564-2.576h.092c-.368-.276-.276-.46-.092-.644.46-.736,1.012-1.38,1.472-2.116a20.206,20.206,0,0,1,1.564-2.3l1.1-1.38a33.863,33.863,0,0,1,2.76-3.588,21.274,21.274,0,0,0,1.84-2.208c1.288-1.748,2.76-3.4,4.232-5.152,1.012-1.1,2.024-2.208,3.036-3.4a21.127,21.127,0,0,1,3.036-2.76,9.163,9.163,0,0,0,.92-1.012c.644-.736,1.1-1.656,2.024-2.024l.276-.276a21.082,21.082,0,0,1,1.932-2.116,2.049,2.049,0,0,0,.828-1.564c0-.184.184-.276.276-.46l.276-.276H289.8a20.889,20.889,0,0,1,2.852-2.852c.644-.644,1.38-1.288,2.024-1.84a4.135,4.135,0,0,1,1.472-1.1l.276-.276h-.092l.552-.276c0-.092.092-.184.184-.276a1.637,1.637,0,0,1,.736-1.012c.46-.46,1.012-.828,1.564-1.288,1.472-1.288,2.944-2.576,4.508-3.772a1.65,1.65,0,0,1,.644-.46,2.44,2.44,0,0,0,.46-.552A.738.738,0,0,0,304.428-56.948ZM282.072-11.592h.46v-.276A2.011,2.011,0,0,0,282.072-11.592Zm-.46.276h.46v-.276A2.011,2.011,0,0,0,281.612-11.316Zm-.092.092c.092,0,.092.092.092.184v-.276Zm-1.1.46a.7.7,0,0,0-.46.184Zm-2.392,1.012a2.165,2.165,0,0,0-.736.184A2.844,2.844,0,0,1,278.024-9.752Zm-2.208.644c-.092,0-.092.092-.184.092A.321.321,0,0,0,275.816-9.108Zm-.92.368.736-.276a1.733,1.733,0,0,1-.736.184Zm0,0a2.165,2.165,0,0,0-.736.184C274.436-8.648,274.712-8.648,274.9-8.74Zm-1.656.46c.276-.092.644-.184.92-.276ZM272.5-8c.276-.092.46-.184.736-.276Zm-.736.276a2.844,2.844,0,0,0-.736.184A1.733,1.733,0,0,0,271.768-7.728Zm-1.38.46c.184-.092.46-.184.644-.276Zm54.28-3.772c-4.508,2.852-9.292,5.244-13.8,8a17.594,17.594,0,0,1-2.944,1.472,10.868,10.868,0,0,1-2.852.736c-.092,0-.276-.092-.276-.184a.321.321,0,0,1,.092-.184,10.319,10.319,0,0,1,1.2-.46,18.432,18.432,0,0,0,3.68-1.564c1.472-.828,2.944-1.564,4.416-2.484,2.116-1.288,4.324-2.484,6.532-3.68,1.288-.736,2.668-1.564,4.048-2.3a7.956,7.956,0,0,0,.92-.644.8.8,0,0,0,.276-.552.583.583,0,0,0-.552-.46,1.566,1.566,0,0,0-.644.092c-.46.184-.828.368-1.288.552l-5.244,2.852a3.776,3.776,0,0,1-1.564.644,8.284,8.284,0,0,1-3.128,1.84l.276-.552a2.623,2.623,0,0,0-1.288.736l1.012-.276a1.109,1.109,0,0,1-.46.46c-1.748,1.1-3.5,2.208-5.336,3.128a8.377,8.377,0,0,1-4.232.644.321.321,0,0,1-.092-.184.285.285,0,0,1,.092-.184l.46-.184A29.329,29.329,0,0,0,310.5-6.624c1.2-.644,2.392-1.38,3.588-2.116a95.791,95.791,0,0,1,9.568-5.152,2.011,2.011,0,0,0,.46-.276c.184-.092.368-.276.276-.46,0-.276-.184-.368-.46-.368a2.525,2.525,0,0,0-1.2.184,35.644,35.644,0,0,0-5.98,2.852c-1.932,1.012-3.68,2.208-5.612,3.22a1.925,1.925,0,0,0-.552.368,21.512,21.512,0,0,1-4.048,2.208,14.68,14.68,0,0,0-2.116.92,1.655,1.655,0,0,1-1.472-.184c-.184-.092-.276-.368-.092-.46a4.439,4.439,0,0,0,1.38-2.024c.644-1.288,1.2-2.576,1.932-3.772a1.136,1.136,0,0,0,.368-.736,1.736,1.736,0,0,1,.92-1.2,8.983,8.983,0,0,0,1.564-1.656.72.72,0,0,0,0-1.012c-.46-.184-.644-.368-.46-.828a1.055,1.055,0,0,0-.46-1.1,2.176,2.176,0,0,1-1.012-1.2,1.32,1.32,0,0,0-1.932-.644,1.636,1.636,0,0,0-.644.736,4.152,4.152,0,0,1-1.932,1.84c-1.656,1.012-3.312,2.024-4.876,3.128a13.9,13.9,0,0,1-1.656.828,58.768,58.768,0,0,0-5.52,2.392,8.412,8.412,0,0,1-1.288.644,2.974,2.974,0,0,1-1.564.276.7.7,0,0,1-.644-.736,8.163,8.163,0,0,1,.736-2.944,1.469,1.469,0,0,0-.46-2.208l-.276-.276a.977.977,0,0,0-1.2-.184,3.746,3.746,0,0,0-1.288,1.1,12.633,12.633,0,0,0-2.116,4.324,6.8,6.8,0,0,0,0,1.932,9.085,9.085,0,0,0,1.1,2.576,3.333,3.333,0,0,0,3.588,1.748,13.447,13.447,0,0,0,3.312-.828A13.034,13.034,0,0,0,292.1-6.44c1.932-.828,3.864-1.656,5.8-2.576.184,0,.276-.092.46-.184a.49.49,0,0,1,.644.46,1.566,1.566,0,0,1-.092.644,2.686,2.686,0,0,1-.184.828,8.541,8.541,0,0,0,1.288,5.428A4.6,4.6,0,0,0,304.52-.092a10.88,10.88,0,0,0,4.14-1.288c2.484-1.288,4.784-2.668,7.176-4.048,2.668-1.564,5.428-3.036,8.188-4.6.736-.46,1.38-.92,2.024-1.288a2.517,2.517,0,0,0,.368-.46A4.364,4.364,0,0,0,324.668-11.04Zm-22.632-4.14-.644.644-.552.276h.552a4.439,4.439,0,0,1-2.024,1.38,5.925,5.925,0,0,1-1.84,1.012c-1.564.736-3.128,1.472-4.692,2.116a5.186,5.186,0,0,1-1.1.368,2.2,2.2,0,0,1-1.288.46,2.2,2.2,0,0,1-1.288.46l-.736.276v-.276l-1.38.276c0,.092-.092,0-.184-.092a.321.321,0,0,0,.092-.184l.46-.184c2.484-.92,4.876-1.932,7.268-3.036a28.535,28.535,0,0,0,5.244-2.76l1.932-1.012c0-.092.184-.092.184,0A.173.173,0,0,1,302.036-15.18Zm-15.548-.184c-.092,0-.092,0-.092.092,0-.092,0-.184.092-.184Zm36.524,2.392.46-.276A2.01,2.01,0,0,0,323.012-12.972Zm-1.1.46a1.308,1.308,0,0,1,.552-.184l.552-.276a1.308,1.308,0,0,1-.552.184Zm-.92.644H320.9l-.092.092C320.9-11.868,320.9-11.868,320.988-11.868Zm-.276.092h.092Zm0,.092v-.092l-.552.276C320.344-11.592,320.528-11.592,320.712-11.684Zm-.552.184-.46.276A2.011,2.011,0,0,0,320.16-11.5Zm-1.564.828.552-.276a1.308,1.308,0,0,1-.552.184c0,.092-.092.092-.092.184A.09.09,0,0,1,318.6-10.672Zm-19.136.184a1.565,1.565,0,0,1-.92.552c-1.288.644-2.668,1.288-4.048,1.84l-4.968,1.932a4.334,4.334,0,0,1-1.564.368c-.092,0-.184,0-.184-.092-.092-.092,0-.184.092-.184a4.484,4.484,0,0,1,1.012-.368c3.22-1.2,6.44-2.576,9.476-4.048a4.484,4.484,0,0,1,1.012-.368.321.321,0,0,0,.184.092A.338.338,0,0,1,299.46-10.488ZM318.5-10.58a2.306,2.306,0,0,0-.644.368A2.306,2.306,0,0,0,318.5-10.58Zm-1.656.92a2.623,2.623,0,0,0-1.288.736l1.1-.276h-.092A2.01,2.01,0,0,1,316.848-9.66Zm-1.2.736h-.092a2.011,2.011,0,0,1-.46.276Zm-.552.276a2,2,0,0,0-.736.46A2,2,0,0,0,315.1-8.648ZM303.14-7.176h.092v.092c0,.092-.092.092-.092,0Zm9.384,0-.46.276A2.011,2.011,0,0,0,312.524-7.176Zm-.46.276a2,2,0,0,0-.736.46A3.227,3.227,0,0,0,312.064-6.9Zm-.736.552V-6.44l-.552.276C310.96-6.256,311.144-6.256,311.328-6.348Zm-2.3,1.2.46-.184C309.3-5.336,309.212-5.244,309.028-5.152Zm-1.012.552a2.011,2.011,0,0,0,.46-.276Zm79.4-4.784h-.368a4.555,4.555,0,0,0-1.2.368,68.881,68.881,0,0,1-6.716,2.76c-2.852,1.1-5.7,2.116-8.464,3.5-.92.46-1.84.828-2.76,1.288-.46.184-.828.276-1.288.46h-.644a.321.321,0,0,1-.184-.092.338.338,0,0,1,.092-.276l.276-.184a22.513,22.513,0,0,0,4.14-1.564c1.1-.552,2.208-1.1,3.312-1.564,3.22-1.288,6.532-2.576,9.752-3.772,1.2-.552,2.484-1.012,3.68-1.656a.676.676,0,0,0,.368-.736.608.608,0,0,0-.644-.552h-1.1v-.184a3.858,3.858,0,0,0-2.024.736h.736l-.092.092a25.978,25.978,0,0,1-5.8,2.208c.552-.552,1.288-.552,1.84-1.012a10.191,10.191,0,0,0-3.312,1.2,10.245,10.245,0,0,0,1.564-.184,17.53,17.53,0,0,1-4.6,1.748,9.635,9.635,0,0,1,1.012-.736,18,18,0,0,0-3.128,1.1l-4.14,1.932-.736.276a.321.321,0,0,0-.184-.092c0-.092,0-.184.092-.184a10.035,10.035,0,0,1,1.012-.552c4.048-1.84,8.1-3.588,12.236-5.06,1.748-.644,3.5-1.38,5.244-2.024.552-.184.828-.46.644-.736-.184-.368-.46-.46-1.012-.368a11.121,11.121,0,0,0-2.3.736c-1.2.552-2.484,1.012-3.772,1.472a39.95,39.95,0,0,0-4.6,1.84c-1.656.828-3.4,1.472-5.06,2.208a1.583,1.583,0,0,1-1.1.184c-1.1-.184-1.38-.276-.736-1.288l2.576-4.692a3.51,3.51,0,0,0-.276-3.772c-.276-.368-.46-.828-.736-1.288a1.423,1.423,0,0,0-2.024-.828c-1.1.46-2.116,1.012-3.128,1.472a37.412,37.412,0,0,0-4.508,2.852,8.736,8.736,0,0,1-1.564.92,19.461,19.461,0,0,0-3.312,2.3,19.537,19.537,0,0,1-3.5,2.668,14.038,14.038,0,0,1-1.472,1.012,2,2,0,0,1-.736.46.283.283,0,0,1-.368-.368,2.054,2.054,0,0,1,.552-1.2,1.846,1.846,0,0,0,.368-1.564c-.092-.276.092-.552.184-.828l.736-1.38a3.47,3.47,0,0,0-.184-3.956,4.956,4.956,0,0,1-.644-1.2,1.379,1.379,0,0,0-1.472-.92,4.066,4.066,0,0,0-2.3.552,4.224,4.224,0,0,1-1.288.644c-1.84.552-3.4,1.564-5.244,2.208a4.085,4.085,0,0,0-1.012.736,7.458,7.458,0,0,1-1.656.92,9.332,9.332,0,0,0-2.208.92,10.055,10.055,0,0,1-1.38.736,14.885,14.885,0,0,0-1.656.92,6.232,6.232,0,0,1-2.208,1.1,9.391,9.391,0,0,0-2.668,1.012,1.427,1.427,0,0,1-1.1.184.719.719,0,0,1-.46-1.012l.368-.644a3.9,3.9,0,0,1,.552-1.288c.092-.184.276-.184.552-.184v-.092c.184-.552-.184-1.1.184-1.656.276-.552.552-1.1.828-1.564.368-.736.828-1.38,1.2-2.024l.644-1.1a.894.894,0,0,0-.092-.828.694.694,0,0,0-.736-.092c-.184.092-.368.276-.552.092-.092-.368.276-.552.368-.828v-.276H327.8a2.193,2.193,0,0,0-1.012.552A9.341,9.341,0,0,0,324.76-17.2a78.414,78.414,0,0,0-3.68,7.36,3.367,3.367,0,0,0-.368,2.116,23.11,23.11,0,0,0,.368,2.484,3.265,3.265,0,0,0,4.048,2.3,14.3,14.3,0,0,0,2.116-.736,50.013,50.013,0,0,0,4.6-2.024c2.208-1.012,4.416-2.208,6.624-3.312,1.84-.92,3.68-1.84,5.52-2.668l.552-.276a.338.338,0,0,1,.276.092.285.285,0,0,1-.092.184c-.092.184-.276.276-.276.368a2.7,2.7,0,0,1-.644,1.748,55.011,55.011,0,0,0-3.128,5.612,2.814,2.814,0,0,0-.276,1.564c.092.736.276,1.472.368,2.208a1.466,1.466,0,0,0,1.2,1.2,1,1,0,0,0,.46.092c.092.092.276.184.276.276.092.644.46.552.92.46a4.555,4.555,0,0,0,1.2-.368,28.2,28.2,0,0,0,5.152-2.852c3.22-2.208,6.256-4.692,9.476-6.992a30.2,30.2,0,0,1,3.5-2.484,2.924,2.924,0,0,1,.828-.276.2.2,0,0,1,.184.184c-.368.552-.276,1.288-.644,1.84a6.746,6.746,0,0,0-1.1,2.944,9.334,9.334,0,0,0,.184,2.3,4.669,4.669,0,0,0,1.38,2.76,2.317,2.317,0,0,0,2.576.736,27.619,27.619,0,0,0,3.312-1.288c2.024-.92,3.956-1.84,5.98-2.668l8.648-3.312c.828-.368,1.656-.828,2.484-1.2l.46-.184C387.32-9.108,387.5-9.2,387.412-9.384Zm-63.02,3.5c0-.184-.092-.46.092-.552a1.753,1.753,0,0,1,.92-.46c1.2-.46,2.3-1.012,3.5-1.564,3.036-1.288,5.888-2.944,8.832-4.416a3.546,3.546,0,0,1,1.656-.552,4.952,4.952,0,0,1,1.1-.828c1.932-.92,3.864-1.84,5.888-2.668l1.012-.276c.184,0,.368.184.276.276-.184.46-.276.92-.92,1.1-.736.092-1.472.552-2.3.644l.552-.552a6.641,6.641,0,0,0-1.84.828h.828a5.849,5.849,0,0,1-2.668,1.2,1.615,1.615,0,0,1,.368-.46c-.736.276-1.564.46-2.3.736l-.276.552c.092,0,.092.092.092.184,0-.092-.092-.092-.092-.184a2.011,2.011,0,0,1-.46.276h.46a1.554,1.554,0,0,0-.46.184,2.193,2.193,0,0,1-1.012.552,1.452,1.452,0,0,1-.736.46c.092-.092.092-.276.184-.46a3.4,3.4,0,0,0-1.012.46h.736l-.736.552c-.276.092-.46,0-.46-.276a17.694,17.694,0,0,0-2.3,1.1c.368.276.644-.184,1.012-.092a2.609,2.609,0,0,1-1.012.736c-2.3,1.2-4.6,2.3-6.992,3.312a8.613,8.613,0,0,1-1.472.368A.336.336,0,0,1,324.392-5.888Zm40.2-10.028a4.665,4.665,0,0,1,1.472-.828,3.729,3.729,0,0,1,.828-.46h.276a.176.176,0,0,1-.092.276,1.981,1.981,0,0,1-1.012.184A2.026,2.026,0,0,1,364.6-15.916Zm-19.6.184a1.308,1.308,0,0,0,.552-.184C345.368-15.824,345.184-15.824,345-15.732Zm18.492.552c.368-.092.828-.184,1.288-.276l-2.3,1.472a2.7,2.7,0,0,1-.92.276A2.071,2.071,0,0,1,363.492-15.18Zm-19.5,2.852c-2.944,1.38-5.888,2.944-8.74,4.324L330-5.336c-1.2.552-2.392,1.012-3.68,1.472a3.814,3.814,0,0,1-1.472.276.321.321,0,0,1-.184-.092c0-.092.092-.184.092-.276l.828-.276a25.51,25.51,0,0,1,2.392-.92c2.576-1.012,4.968-2.3,7.452-3.5,3.036-1.472,5.888-3.22,8.924-4.508a10.317,10.317,0,0,1,1.2-.46c.092-.092.276,0,.276.184,0,0,0,.184-.092.184l-.368.276A9.286,9.286,0,0,1,343.988-12.328Zm16.744-.828A2.214,2.214,0,0,1,360-12.6a1.431,1.431,0,0,1,.736-.552,1.065,1.065,0,0,1,.644-.46A1.065,1.065,0,0,1,360.732-13.156Zm4.048.552a15.9,15.9,0,0,1-2.76,1.472.973.973,0,0,1,.552-.644,23.271,23.271,0,0,1,2.024-1.2c.092-.092.368-.092.368,0C365.056-12.788,364.964-12.7,364.78-12.6Zm-26.68.184h.552V-12.7Zm18.032,2.3a8.3,8.3,0,0,1,3.312-2.3A8.3,8.3,0,0,1,356.132-10.12Zm-19.044-1.748h.552v-.276Zm-10.856.276a1.307,1.307,0,0,1-.552.184C325.864-11.316,326.048-11.408,326.232-11.592Zm56.12,1.2a2.2,2.2,0,0,0,1.288-.46A2.2,2.2,0,0,0,382.352-10.4Zm0,0-.736.276a1.733,1.733,0,0,1,.736-.184Zm-2.024.828a3.226,3.226,0,0,0,1.288-.552A2.747,2.747,0,0,0,380.328-9.568Zm-11.684.276V-9.2h.092v-.092S368.644-9.384,368.644-9.292Zm-14.536.736a1.655,1.655,0,0,1,.828-.552A1.655,1.655,0,0,1,354.108-8.556Zm22.908.184a.321.321,0,0,1-.184.092h.184Zm-1.288.552a3.982,3.982,0,0,0,1.1-.46A1.911,1.911,0,0,0,375.728-7.82Zm-22.816.276a1.431,1.431,0,0,1,.736-.552A1.431,1.431,0,0,1,352.912-7.544Zm22.816-.276c-.276.092-.46.184-.736.276ZM347.3-6.992V-6.9h-.092Zm29.716,2.76.552-.276h-.092A2.011,2.011,0,0,1,377.016-4.232Zm-9.936.46a2.2,2.2,0,0,1,1.288-.46,2.2,2.2,0,0,1-1.288.46.956.956,0,0,1-.736.368C366.16-3.5,366.528-3.68,367.08-3.772ZM351.072-2.76l-.276.276c-1.656.92-3.22,2.208-4.968,3.036-.368.184-.736.276-1.2.46a.689.689,0,0,1-.46.092c-.092,0-.184,0-.184-.092a.28.28,0,0,1,0-.368,1.483,1.483,0,0,0,.644-.368,26.594,26.594,0,0,0,5.06-2.668,3.03,3.03,0,0,1,1.2-.644c.092,0,.184,0,.184.092C351.164-2.944,351.164-2.852,351.072-2.76Z" transform="translate(384.85 3495.357) rotate(-7)" fill="#e53729"/>
    <path id="パス_585" data-name="パス 585" d="M5.835,40.436a13.282,13.282,0,0,1-4.263-.621c-2.2-.79-2.076-2.029.278-2.767a296.782,296.782,0,0,1,30.265-7.232c12.028-2.353,26.321-4.758,42.483-7.148,31.449-4.65,68.834-9.085,108.112-12.827C222.9,6.012,262.823,3.133,298.157,1.514,316.933.654,334.314.155,349.816.031,366.331-.1,380.838.192,392.938.9c3.174.187,5.3,1.2,4.74,2.266S394.1,4.947,390.925,4.76c-11.345-.667-25.082-.941-40.83-.815-15.069.121-32.013.608-50.359,1.449-34.8,1.594-74.166,4.434-113.839,8.214C147.128,17.3,110.268,21.673,79.3,26.251,47.19,31,23.163,35.722,9.818,39.908A13.857,13.857,0,0,1,5.835,40.436Z" transform="translate(376.921 3492.329) rotate(-4)" fill="url(#linear-gradient)"/>
  </g>
</svg>
