<svg xmlns="http://www.w3.org/2000/svg" width="179.504" height="113.361"><defs><linearGradient id="a" x1=".396" x2=".5" y1="-.297" y2="1" gradientUnits="objectBoundingBox"><stop offset="0" stop-color="#e53729"/><stop offset=".69" stop-color="#ff652c"/><stop offset="1" stop-color="#ff652c"/></linearGradient></defs><g opacity=".14"><path fill="#e53729" d="M66.493 9.144a.819.819 0 0 1-.522-.693.523.523 0 0 0-.773-.394 2.381 2.381 0 0 0-.952.73c-1.075 1.478-2.241 2.872-3.213 4.434-1.465 2.252-3.033 4.327-4.602 6.495-2.285 3.43-4.379 6.937-6.863 10.2-.076.192-.25.3-.334.4a18.518 18.518 0 0 1-1.784 2.832c-.402.681-.903 1.283-1.306 1.96s-.82 1.176-1.23 1.77c-.561.972-1.222 1.86-1.791 2.74-1.139 1.762-2.27 3.61-3.507 5.292-.968 1.562-2.043 3.04-3.118 4.52-.326.49-.553 1.063-.88 1.553-1.237 1.678-2.467 3.447-3.514 5.2a28.62 28.62 0 0 1-1.883 2.75c-.733 1.079-1.47 2.158-2.194 3.33-.649 1.072-1.385 2.152-2.126 3.232-1.377 2.151-2.858 4.219-4.14 6.454-.96 1.653-1.918 3.399-3.069 5.069-1.556 2.259-3.001 4.693-4.462 7.036a2.608 2.608 0 0 1-.944.821c-.175.108-.267.116-.367.032-.008-.091-.107-.175-.115-.267a5.86 5.86 0 0 0 .127-.657l1.03-4.06a28.756 28.756 0 0 0 1.054-4.892 8.492 8.492 0 0 0-.72 1.267 2.815 2.815 0 0 1 .154-1.398c.076-.191.044-.558.327-.49s.123.358.147.633a4.544 4.544 0 0 0 .59-1.713c.413-1.605.814-3.302 1.316-5.008a18.259 18.259 0 0 0 .616-2.454 1.09 1.09 0 0 0-.156-.725c-.33-.617-.347-.8.271-1.127a.684.684 0 0 0 .502-.598l.627-2.37c.33-1.506.752-3.02 1.082-4.526-.092.008-.191-.076-.283-.068.167-.199.191.076.283.068a3.399 3.399 0 0 0 .425-2.53.9.9 0 0 1 .295-.856A1 1 0 0 0 20.853 52c-.108-.175.06-.374.235-.482a3.858 3.858 0 0 0 .712-1.354c-.008-.092-.107-.176-.115-.267a.09.09 0 0 0-.084.1c-.183.015-.25.298-.442.223a.553.553 0 0 1 .06-.375 9.281 9.281 0 0 1 .52-1.43 2.041 2.041 0 0 0 .37-1.048 24.873 24.873 0 0 1 1.194-5.366c.378-.956.656-1.996.947-2.945.429-1.334.783-2.56 1.129-3.887a319.422 319.422 0 0 0 2.625-9 6.658 6.658 0 0 1 .856-1.828 8.11 8.11 0 0 1 .664-1.905 17.16 17.16 0 0 1 .466-2.071c.286-.948.564-1.988.938-3.036a4.562 4.562 0 0 0-.866-4.633c-.108-.175-.474-.143-.641.056a3.267 3.267 0 0 0-.295.857c-1.404 4-2.805 8.092-4.297 12.1-.43 1.422-.955 2.852-1.372 4.366a12.518 12.518 0 0 1-.808 2.378 38.93 38.93 0 0 0-1.034 2.952 28.09 28.09 0 0 1-.94 3.036c-.218.666-.437 1.331-.74 2.096a23.69 23.69 0 0 0-1.164 4.625l-.22.666a47.032 47.032 0 0 0-1.63 4.573 27.437 27.437 0 0 0-1.25 4.725c-.143.474-.202.849-.353 1.235-.346 1.323-.792 2.562-1.054 3.785-.338 1.414-.676 2.828-1.114 4.159-.951 2.848-1.515 5.852-2.283 8.688l-1.03 4.064c-.489 1.797-.899 3.49-1.392 5.199-.27 1.127-.624 2.362-.79 3.58-.303 1.866-.7 3.654-1.098 5.443a5.208 5.208 0 0 0-.131 1.673 1.654 1.654 0 0 0 .761 1.318A9.155 9.155 0 0 1 8.59 95.53a1.787 1.787 0 0 0 1.527.609 3.71 3.71 0 0 1 1.007-.088 1.614 1.614 0 0 0 1.777-.802 28.361 28.361 0 0 0 1.982-2.665c1.29-2.144 2.672-4.296 3.953-6.53a3.029 3.029 0 0 0 .537-1.252 4.82 4.82 0 0 0-.828 1.088 4.36 4.36 0 0 1-.836.996.173.173 0 0 1-.275.024c-.008-.092.068-.283.06-.374l.25-.3a7.306 7.306 0 0 0 1.139-1.76c.16-.291.227-.574.585-.698l.092-.008.1.084a6.34 6.34 0 0 0-.287.948 2.479 2.479 0 0 0 .677-.705c.653-.98 1.214-1.953 1.775-2.925a22.331 22.331 0 0 1 1.947-3.124 9.013 9.013 0 0 0 1.019-2.12 1.83 1.83 0 0 1 .637-1.16 2.175 2.175 0 0 0 .903-1.282.478.478 0 0 1-.35.215c-.084.1-.175.107-.183.016-.092.008-.1-.084-.108-.175l.41-.59c.167-.2.359-.124.49.326a4.74 4.74 0 0 0 1.052-1.657.32.32 0 0 1-.176.108c-.183.016-.35.215-.458.04-.1-.084-.024-.275.06-.375a2.608 2.608 0 0 1 .844-.904 7.955 7.955 0 0 0 .86-.722.557.557 0 0 1-.152-.725 6.28 6.28 0 0 1 1.49-1.976 4.083 4.083 0 0 1 .943-.821.59.59 0 0 1-.163-.817 13.518 13.518 0 0 0 .811-1.275 6.797 6.797 0 0 1 2.525-2.805c-.291-.16-.399-.335-.24-.626.402-.68.796-1.454 1.206-2.043.578-.79 1.163-1.487 1.649-2.268 1.265-2.418 2.838-4.494 4.303-6.745.243-.39.593-.606.836-.997l.072.825c.243-.39.478-.873.804-1.363-.45.132-.61.423-.876.538a2.765 2.765 0 0 1 .896-1.366l.008.091a1.848 1.848 0 0 1 .303-.765c.736-1.08 1.38-2.151 2.11-3.323l.76-.805c.075-.19.06-.374.227-.573l3.658-5.674a2.875 2.875 0 0 1 .936-.913 1.577 1.577 0 0 0 .983-1.378 1.71 1.71 0 0 1 .705-1.446 2.292 2.292 0 0 1 1.497-1.885.932.932 0 0 0 .477-.873 1.942 1.942 0 0 1 .287-.948c.653-.98 1.206-2.044 1.859-3.024 1.214-1.953 2.62-3.83 3.925-5.79 1.783-2.833 3.567-5.666 5.633-8.431a3.463 3.463 0 0 0 .704-1.446c.052-.47.028-.741-.454-.976ZM46.51 42.462l-.458.04.04.458Zm-1.54 2.442-.26.207c.092-.008.172-.107.263-.207Zm-3.173 4.893.25-.299c-.091.008-.175.108-.258.207Zm-23.936 2.83-.008-.092c.092-.008.092-.008.1.084a.09.09 0 0 1-.084.1Zm-.974 3.685a2.793 2.793 0 0 1-.565 1.988 4.461 4.461 0 0 1 .565-1.988Zm-1.114 4.16a5.752 5.752 0 0 1-.457 2.159c-.092.008-.084.1-.175.107s-.1-.083-.108-.175a4.362 4.362 0 0 1 .74-2.092Zm17.552 2.25c-.008-.09.076-.19.16-.29l-.251.299Zm-.25.3.25-.3c-.175.108-.167.2-.25.3ZM11.437 76.359l.584-2.82a36.71 36.71 0 0 0 1.357-4.55c.187-1.032.473-1.98.751-3.02.084-.1.16-.29.251-.299.184-.016.108.176.116.267.016.183-.068.283-.06.375-.827 3.21-1.562 6.414-2.39 9.625a2.041 2.041 0 0 1-.37 1.047l-.083.1-.1-.084Zm5.294-10.155c.091-.008.191.075.107.175a.32.32 0 0 1-.075.191.2.2 0 0 1-.2-.167c.096-.009.088-.1.168-.2Zm14.985-.756c-.092.008-.175.108-.259.207Zm-.259.207c-.083.1-.167.2-.159.291.083-.103.167-.199.16-.29ZM16.211 68.65c.008.092.008.092-.084.1-.083.1-.091.008-.1-.084l.168-.199Zm-.64 2.18.183-.017.008.092c-.084.1-.084.1-.175.108-.1-.084-.1-.084-.016-.184Zm11.011 2.457c-.092.008-.175.108-.259.207.095-.012.18-.112.259-.207Zm-12.984 4.546c-.084.1-.092.008-.1-.084l.092-.008Zm9.365.474a1.74 1.74 0 0 1 .653-.98 2.335 2.335 0 0 1-.653.98Zm-12.67 3.969a4.257 4.257 0 0 1 .756-3.016 7.997 7.997 0 0 1-.756 3.016Zm9.296-3.49c-.084.1-.175.108-.167.2a3.499 3.499 0 0 1-1.131 1.849 3.499 3.499 0 0 1 1.13-1.853c-.007-.092-.015-.183.076-.191-.016-.184.076-.192.084-.1ZM11.168 87a11.019 11.019 0 0 1 .906-3.403 5.59 5.59 0 0 0 .68-1.72l.41-1.606a.32.32 0 0 1 .076-.191c.183-.016.2.167.207.259a21.159 21.159 0 0 1-.823 3.21 6.104 6.104 0 0 0-.39 1.88 3.108 3.108 0 0 1-.676 1.814.7.7 0 0 0-.358.123c-.016-.183-.116-.266-.032-.366Zm-1.818-.768a36.26 36.26 0 0 1-.89 4.6c.008.092-.068.284-.16.292a12.111 12.111 0 0 1 1.05-4.892 7.707 7.707 0 0 1 .955-3.869 16.565 16.565 0 0 1-.955 3.869Zm7.202-2.107-1.37 2.34a20.206 20.206 0 0 0-1.424 2.709 12.235 12.235 0 0 1-1.13 1.853.32.32 0 0 0-.176.107c-.191-.075-.2-.167-.124-.358a3.26 3.26 0 0 0 .187-1.032 5.324 5.324 0 0 1 1.174-2.41 17.405 17.405 0 0 0 2.795-3.937 8.83 8.83 0 0 1 1.162-1.487 11.753 11.753 0 0 1-1.098 2.22Zm.276 4.223a2.411 2.411 0 0 1-.386.864 116.2 116.2 0 0 1-2.444 3.726 11.843 11.843 0 0 1-1.33 1.685.7.7 0 0 1-.442.224c-.008-.092-.1-.084-.107-.176a.127.127 0 0 1-.016-.183 3.998 3.998 0 0 1 .493-.69 32.244 32.244 0 0 0 2.365-3.53l1.477-2.16c.084-.099.259-.206.359-.123a.28.28 0 0 1 .028.367Zm65.76-36.575a.979.979 0 0 0-.112-1.283c-.291-.159-.323-.525-.439-.792-.24-.626-.53-.785-1.143-.454l-.976.547a1.658 1.658 0 0 1-1.072.366 10.365 10.365 0 0 0-1.625.42 5.375 5.375 0 0 1-1.725.334 22.548 22.548 0 0 0-2.457.4l-5.198.73a31.095 31.095 0 0 1-4.13.27c-3.69.045-7.227-.292-10.522-2.128-.582-.318-.857-.294-1.259.387s-1.13.838-1.835 1.176l-.188.017-.299-.251a.338.338 0 0 1 .068-.283c-.008-.092.084-.1.175-.108.167-.199.534-.231.51-.506-.016-.183-.399-.334-.757-.21a3.024 3.024 0 0 0-1.768.892 21.879 21.879 0 0 0-3.412 4.276 5.968 5.968 0 0 0-.962 3.777 26.212 26.212 0 0 0 .507 2.632 5.271 5.271 0 0 0 6.59 3.579 12.06 12.06 0 0 0 4.146-2.209c.35-.215.976-.454.461-1.056-.091.008-.016-.183.068-.282.661-.889 1.413-1.786 1.983-2.666a12.282 12.282 0 0 0 .497-1.705c.31-.674.577-.79 1.318-.762.191.076.466.052.75.12a26.043 26.043 0 0 0 3.728.412 16.98 16.98 0 0 0 5.692-.312c1.641-.236 3.362-.571 5.015-.715a10.823 10.823 0 0 0 4.66-1.612 15.17 15.17 0 0 1 3.17-1.754c.45-.131.892-.355.553-1.064Zm-17.08 2.046c2.007-.268 4.007-.627 6.022-.803 1.55-.228 3.091-.547 4.633-.866a7.697 7.697 0 0 0 2.776-.981 3.983 3.983 0 0 1 .45-.132c.083-.1.266-.116.274-.024.108.175.025.275-.067.283a5.185 5.185 0 0 1-1.063.462 2.667 2.667 0 0 0-1.303.945c-.159.29-.342.306-.609.422a3.268 3.268 0 0 1-.9.263c-2.19.284-4.366.751-6.664.86a.908.908 0 0 1-.566-.136l2.554-.223a.7.7 0 0 0-.757-.21l-3.848.336c-.367.032-.833-.02-1.29.02a.367.367 0 0 1 .354-.216Zm-11.42 2.475c-.167.2-.235.482-.402.681a9.11 9.11 0 0 1-3.05 3.129 5.292 5.292 0 0 1-3.067.821c-.55.048-.665-.218-.622-.776a10.196 10.196 0 0 1 .673-1.813c.167-.2.06-.374-.124-.358a3.874 3.874 0 0 1 1.716-2.55l1.023-.92a5.098 5.098 0 0 1 .685-.614 1.037 1.037 0 0 1 1.482.055l1.527 1.62a.7.7 0 0 1 .16.725Zm22.127-3.499-.1-.083a.32.32 0 0 0-.175.107l.275-.024Zm-1.908.352-1.466.128.008.091 1.466-.128Zm4.884.954a9.496 9.496 0 0 1-4.377 1.674c-2.191.284-4.374.66-6.573.852a7.304 7.304 0 0 1-2.023.084c-.275.024-.641.056-.849-.203a2.333 2.333 0 0 1 1.08-.279c2.473-.216 4.84-.607 7.305-.915.908-.171 1.816-.343 2.716-.606a8.769 8.769 0 0 0 2.402-1.041c.442-.223.86-.721 1.434-.495-.231.482-.773.622-1.115.929Zm-21.835 5.785a1.307 1.307 0 0 1 .135-.566l-.183.016Zm-.167.199.008.091c-.008-.091.075-.19.159-.29-.084.1-.175.107-.167.199Zm-7.536 2.505a.338.338 0 0 1-.283-.068c-.091.008-.183.016-.199-.167-.008-.092-.016-.183.076-.191a10.076 10.076 0 0 1 2.334-.758 7.018 7.018 0 0 1-.944.82l.641-.055a.09.09 0 0 1 .1.083l.008.092a1.783 1.783 0 0 1-1.625.419.32.32 0 0 1-.108-.175Zm3.614 1.16a1.908 1.908 0 0 1-.868.63 5.798 5.798 0 0 1-1.976.635l-.183.016c-.1-.084-.191-.076-.2-.167s-.015-.184.076-.192l.259-.207c.8-.347 1.517-.594 2.226-.933a1.167 1.167 0 0 0 .542-.14s.191.076.2.168c-.005 0 .011.183-.08.191Zm38.62-28.114a.556.556 0 0 0 .322.526 1 1 0 0 0 1.566-.045l.501-.597a11.843 11.843 0 0 1 1.43-1.602c.175-.108.326-.49.458-.04a4.527 4.527 0 0 0 1.294-1.036 20.081 20.081 0 0 1 1.847-2.1 1.554 1.554 0 0 0 .562-.973l.091-.008a.345.345 0 0 1-.048-.55l.844-.904a2.988 2.988 0 0 0 .812-1.275.756.756 0 0 0-.148-.633.577.577 0 0 0-.749-.12 6.774 6.774 0 0 0-1.25.479l.836-.996c.167-.2.434-.315.318-.582-.024-.275-.398-.334-.84-.111a1.307 1.307 0 0 0-.534.231 15.261 15.261 0 0 0-2.76 2.276 7.416 7.416 0 0 1-1.186 1.208 29.094 29.094 0 0 0-3.324 4.175.933.933 0 0 0-.195.94 2.832 2.832 0 0 1 .152 1.737Zm3.843-1.44c-.084.1-.068.283.116.267.091-.008.175-.107.258-.207l.06-.374-.458.04Zm7.816 19.72c-.084.099-.267.115-.442.223a56.368 56.368 0 0 1-5.445 2.137 63.275 63.275 0 0 0-7.726 3.444 145.02 145.02 0 0 0-5.476 2.787 19.527 19.527 0 0 1-4.027 1.455 1.277 1.277 0 0 1-.825.072c-.091.008-.1-.083-.107-.175-.1-.083-.008-.091-.008-.091l.525-.323a25.906 25.906 0 0 0 2.776-.89c1.518-.593 2.836-1.35 4.254-2.032a80.148 80.148 0 0 1 8.598-4.075c2.41-.945 4.82-1.898 7.237-2.756.35-.215.709-.338 1.055-.553a.62.62 0 0 0 .319-.582.93.93 0 0 0-.423-.61c-.374-.059-.665-.218-1.04-.278a2.546 2.546 0 0 0-1.17.38l.366-.032.108.175a.478.478 0 0 1-.35.215 4.553 4.553 0 0 1-1.164.47c-1.784.71-3.668 1.337-5.54 2.054a3.13 3.13 0 0 1-1.266.296 2.499 2.499 0 0 1-1.502.68 2.4 2.4 0 0 1-.71.34 1.045 1.045 0 0 1 .71-.34 2.438 2.438 0 0 0 .41-.59 6.41 6.41 0 0 0-1.693.703 17.67 17.67 0 0 0-3.44 1.874c.274-.024.541-.14.816-.164a1.815 1.815 0 0 1-1.235.662l.419-.498.091-.1A17.993 17.993 0 0 0 83.495 60l.733-.064a10.737 10.737 0 0 1-3.907 1.818c-.091.008-.275.024-.29-.159-.009-.092.167-.2.25-.299l-.275.024c-.183.016-.282-.067-.29-.159-.108-.175.067-.283.159-.29.083-.1.175-.108.35-.216a43.362 43.362 0 0 0 6.13-2.751 67.603 67.603 0 0 1 9.849-4.55 55.03 55.03 0 0 1 6.544-2.233.469.469 0 0 0 .426-.406.493.493 0 0 0-.498-.418l-.642.056c-1.891.534-3.724.694-5.492 1.583-.526.323-1.155.563-1.677.885a9.696 9.696 0 0 1-2.15.742 14.144 14.144 0 0 0-4.179 1.842 14.673 14.673 0 0 1-2.026 1.105c-1.327.67-2.752 1.255-4.178 1.842l-1.072.37c-.274.024-.482-.235-.406-.426a2.272 2.272 0 0 1 .294-.856 19.73 19.73 0 0 1 1.457-2.343 1.4 1.4 0 0 0 .546-1.152 2.734 2.734 0 0 1 .573-1.896 9.156 9.156 0 0 0 .828-1.088 1.652 1.652 0 0 0 .294-.856.883.883 0 0 0-.355-.893.685.685 0 0 0-.832-.02c-.175.108-.267.116-.291-.158-.008-.092.076-.192.068-.283.226-.574.027-.741-.614-.685a2.622 2.622 0 0 0-1.219.845c-.927 1.004-1.656 2.175-2.568 3.363a39.418 39.418 0 0 0-3.224 5.359 3.435 3.435 0 0 0-.226 2.697c.032.366.156.725.18 1a3.82 3.82 0 0 0 4.893 3.172.09.09 0 0 0 .083-.1c1.171-.379 2.243-.75 3.306-1.211 1.601-.694 3.194-1.483 4.696-2.257a50.25 50.25 0 0 1 6.83-3.19c2.767-1.072 5.531-2.144 8.196-3.393.175-.107.45-.131.609-.422.075-.191-.383-.151-.833-.02Zm-2.909-1.593c-.358.124-.717.247-.984.363l.992-.271Zm-.984.363c-.358.124-.625.24-.983.363Zm-1.967.726a5.655 5.655 0 0 0 .979-.37 1.854 1.854 0 0 0-.98.366Zm-1.792.618a4.186 4.186 0 0 0 1.792-.618 6.005 6.005 0 0 0-1.793.614Zm-1.697.698a3.028 3.028 0 0 0 1.692-.702 4.298 4.298 0 0 0-1.692.702Zm0 0a3.39 3.39 0 0 0-1.518.594l1.008-.088a2.438 2.438 0 0 0 .51-.506Zm-.419.498ZM82.687 60.35l.8-.347-.087.007Zm0 0a2.164 2.164 0 0 0-.717.247c.27-.116.546-.14.72-.248Zm60.683-10.195a.72.72 0 0 0-.088-1.008 1.448 1.448 0 0 1-.47-1.163c.226-.574-.455-.976-.906-.844a6.21 6.21 0 0 0-1.266.295l-6.086 2.194a1.947 1.947 0 0 0-.617.33 8.31 8.31 0 0 1-1.86.901c-2.242.75-4.377 1.675-6.72 2.342-1.708.518-3.313 1.12-5.025 1.643-1.526.502-3.051 1.005-4.585 1.416a26.653 26.653 0 0 1-5.735.963 37.758 37.758 0 0 1-4.88.149c-1.29.02-1.347-.62-.785-1.593a29.206 29.206 0 0 1 4.3-5.73 11.42 11.42 0 0 1 1.97-1.742 7.98 7.98 0 0 1 3.02-1.367 6.997 6.997 0 0 1 1.948.107c.565.135.78.485.47 1.163l-.47.964a3.099 3.099 0 0 0-.19 2.047.983.983 0 0 0 1.522.513 1.882 1.882 0 0 0 .67-.796 17.25 17.25 0 0 1 .95-1.745 2.285 2.285 0 0 0 .466-2.072 7.95 7.95 0 0 0-1.105-3.134 2.175 2.175 0 0 0-1.112-1.107 5.357 5.357 0 0 0-2.729-.593l-2.015.176a6.597 6.597 0 0 0-3.194 1.484 3.998 3.998 0 0 1-.61.422 9.85 9.85 0 0 0-3.623 2.902 112.978 112.978 0 0 0-2.728 3.65 11.853 11.853 0 0 0-1.473 3.078 5.846 5.846 0 0 0-.405 1.697 18.812 18.812 0 0 0 .28 3.207 4.742 4.742 0 0 0 3.722 3.552 9.702 9.702 0 0 0 2.872.118 19.992 19.992 0 0 1 3.318-.105l1.74-.152a51.642 51.642 0 0 0 9.042-2.175c5.385-1.763 10.754-3.709 16-6.014a55.885 55.885 0 0 0 5.328-2.404c.526-.323 1.163-.47.903-1.283-.099-.08.076-.187.16-.287Zm-35.08-4.228a2 2 0 0 1 .693-.522 6.453 6.453 0 0 0 1.386-1.044 2.305 2.305 0 0 1 .61-.423 9.543 9.543 0 0 1 2.899-.623 8.868 8.868 0 0 1 1.111.088.478.478 0 0 1 .383.151.7.7 0 0 1 .215.35q.012.138-.25.3l-.459.04a19.223 19.223 0 0 1-2.282.291 8.823 8.823 0 0 0-3.577 1.328c-.175.108-.45.132-.625.24l-.092.007Zm6.96.407a14.971 14.971 0 0 0-2.817.523c-.541.14-.991.272-1.708.519a1.631 1.631 0 0 1 .852-.813 6.67 6.67 0 0 1 3.724-.695c.183-.016.374.06.382.151.028.275-.246.299-.43.315Zm-7.336 3.692c.091-.008.183-.016.175-.108a.32.32 0 0 1-.076.191.09.09 0 0 0-.083.1c-.1-.088-.1-.088-.016-.183Zm30.39.206a.09.09 0 0 1-.1-.083l.083-.1c.176-.108.184-.016.192.076Zm-32.807 2.774.008.092c-.091.008-.083.1-.175.107.084-.1.084-.1.076-.19.083-.104.083-.104.09-.013Zm31.521.477c-.267.116-.526.323-.908.172-.016-.183.167-.2.259-.207.633-.148 1.17-.38 1.8-.527a2.71 2.71 0 0 1-1.151.558Zm-12.412 1.638a2.45 2.45 0 0 1-1.07.371c.246-.302.708-.25 1.07-.374Zm8.493-.003-1.693.702c-3.042 1.096-6.169 2.293-9.303 3.397a45.066 45.066 0 0 1-7.66 2.143 44.323 44.323 0 0 1-8.536.561l-1.032-.19c-.092.007-.1-.084-.2-.168.092-.008.176-.108.267-.116a11.725 11.725 0 0 1 1.749-.06c1.008-.088 2.024-.085 3.031-.173a44.767 44.767 0 0 0 13.316-2.917 158.871 158.871 0 0 0 9.22-3.298 1.732 1.732 0 0 1 .717-.247s.183-.016.191.075c.1.088.016.187-.067.287Zm-28.922 3.912c-.016-.184.175-.108.359-.124a16.28 16.28 0 0 1 2.115-.092 43.683 43.683 0 0 0 14.088-2.524 3.14 3.14 0 0 1 1.358-.303c-.243.39-.525.323-.792.438-1.163.471-2.426.766-3.577 1.328l1.466-.128a5.655 5.655 0 0 1 .984-.363 1.854 1.854 0 0 1-.984.363 4.068 4.068 0 0 1-1.334.578 38.133 38.133 0 0 1-7.074 1.45 1.512 1.512 0 0 1-.932-.104l-.008-.091c-.092.008-.008-.092-.008-.092.183-.016.358-.124.541-.14.909-.171 1.825-.251 2.65-.323a1.363 1.363 0 0 0 .633-.148l-1.195.104a58.26 58.26 0 0 1-7.999.33c-.092.004-.283-.072-.291-.163Zm13.018-1.045.183-.016c.083-.1.267-.116.35-.216a.553.553 0 0 1-.358.124c-.092.004-.184.012-.176.104Zm-1.542.319-.183.016a.09.09 0 0 0-.084.1l.092-.008a.32.32 0 0 1 .175-.112Zm60.102-10.513c-.2-.167-.216-.35-.056-.642a.79.79 0 0 0-.197-1.187 1.7 1.7 0 0 1-.553-1.055c-.056-.641-.447-.884-1.072-.645l-.8.347c-.885.447-1.769.893-2.661 1.248l-4.162 2.021a57.072 57.072 0 0 1-7.273 3.405l-.274.024a25.016 25.016 0 0 1-4.385 1.587c-1.542.32-3.175.647-4.724.875a10.496 10.496 0 0 1-3.426-.163 1.848 1.848 0 0 1-.765-.302.56.56 0 0 1 .012-.924 1.705 1.705 0 0 1 .625-.24 43.622 43.622 0 0 0 4.003-1.734c.175-.107.45-.131.717-.247a.09.09 0 0 1 .1.084l.015.183-.342.307a13.727 13.727 0 0 1-3.545 1.694 1.167 1.167 0 0 0-.541.14c-.092.008-.267.115-.26.207.017.183.2.167.292.16a3.129 3.129 0 0 0 .908-.173 33.171 33.171 0 0 0 5.38-2.87 2.383 2.383 0 0 0 .928-1.004 8.167 8.167 0 0 1 1.29-2.144 3.205 3.205 0 0 0 .684-2.737 9.796 9.796 0 0 0-1.958-4.444 2.856 2.856 0 0 0-2.685-1.15 6.835 6.835 0 0 0-4.178 1.842 28.439 28.439 0 0 0-3.436 3.993 9.396 9.396 0 0 0-1.679 6.147c.088 1.007.184 2.107.364 3.107a7.356 7.356 0 0 0 2.376 3.946 7.497 7.497 0 0 0 5.21 1.572 32.587 32.587 0 0 0 6.632-1.226 68.288 68.288 0 0 0 10.069-4.203 84.301 84.301 0 0 0 7.917-4.477 2.71 2.71 0 0 1 1.155-.562 1.307 1.307 0 0 0 .533-.231c-.115-.175-.131-.358-.239-.533Zm-26.37-7.02c.267-.116.35-.215.052-.466-.008-.092.068-.283.16-.291a3.877 3.877 0 0 1 1.716-.427c.1.084.191.076.2.167.107.175-.076.191-.16.291-.092.008-.267.116.016.183.092-.008.275-.024.29.16l-.258.207a.829.829 0 0 0-.45.131 10.849 10.849 0 0 0-1.8.527 9.966 9.966 0 0 0-1.677.885 2.622 2.622 0 0 1 1.911-1.371Zm2.642 1.708a.285.285 0 0 1-.076.19.338.338 0 0 1-.266.117 5.234 5.234 0 0 0-2.57 1.232 1.48 1.48 0 0 1 .991-1.291 2.549 2.549 0 0 1 1.808-.435.32.32 0 0 1 .113.183Zm-3.89 3.017a9.33 9.33 0 0 0 1.122-.93 4.565 4.565 0 0 1 1.936-1.091.433.433 0 0 1 .558.043.786.786 0 0 1 .056.641 6.997 6.997 0 0 1-1.672 1.993 7.806 7.806 0 0 1-1.944 1c-.358.124-.558-.043-.606-.593-.136-.453.115-.752.55-1.067Zm2.765 2.066c-.16.29-.434.315-.701.43l-.167.2s-.084.1-.092.008c-.091.008-.1-.084.084-.1a.32.32 0 0 1 .175-.107c.167-.2.326-.49.601-.515-.008-.091.092-.008.092-.008Zm-4.78 2.356c-.015-.183.16-.29.343-.307a8.097 8.097 0 0 1 1.334-.578c.084-.1.184-.016.192.076a.285.285 0 0 1-.076.191l-.167.2a.32.32 0 0 1 .107.174.09.09 0 0 0-.083.1 5.619 5.619 0 0 1-1.227.753c-.183.016-.442.224-.557-.043-.108-.18-.033-.37.134-.57Zm1.634-.327-.009-.096s-.091.008.008.092Zm4.688-.225-.008-.092.092-.008Zm23.008-.806c.184-.016.375.06.558.043a1.167 1.167 0 0 0-.558-.051Zm-8.331 3.959a100.668 100.668 0 0 1-7.09 3.388 29.443 29.443 0 0 1-6.101 2.01 22.64 22.64 0 0 1-4.314.285.32.32 0 0 1-.191-.075c-.016-.184.067-.283.159-.291.458-.04.908-.172 1.275-.204a32.247 32.247 0 0 0 9.216-2.29c2.043-.917 4.094-1.743 6.12-2.843.618-.33 1.427-.586 2.136-.925a.433.433 0 0 1 .557.044 6.422 6.422 0 0 1-1.768.893Zm-12.67 1.845a53.54 53.54 0 0 0 5.383-1.77c.216.35.032.366-.15.382l-1.048.645.091-.008a.285.285 0 0 0 .192.076c.1.083.107.175.016.183-.084.1-.167.2-.26.207a25.248 25.248 0 0 1-7.216 1.923.367.367 0 0 1-.383-.15 16.973 16.973 0 0 1 2.072-.547c-1.474.036-2.9.622-4.422.11 2-.364 3.915-.624 5.724-1.059Zm1.68.223a7.054 7.054 0 0 0 2.502-.957l-1.259.386a3.119 3.119 0 0 0-1.243.563Zm-1.266.295-.1-.084-.083.1.091-.008Z" data-name="パス 606"/><path fill="url(#a)" d="M2.453 28.593a3.556 3.556 0 0 1-1.792-.439c-.925-.554-.873-1.435.117-1.954A85.736 85.736 0 0 1 13.5 21.083c5.057-1.664 11.067-3.365 17.862-5.054C44.587 12.741 60.306 9.6 76.82 6.959c16.9-2.707 33.683-4.743 48.539-5.888 7.894-.608 15.2-.961 21.72-1.049a165.555 165.555 0 0 1 18.131.617c1.334.132 2.227.849 1.993 1.6s-1.5 1.257-2.839 1.125A157.049 157.049 0 0 0 147.2 2.79c-6.336.085-13.46.43-21.173 1.024C111.391 4.942 94.84 6.95 78.16 9.622c-16.3 2.611-31.8 5.7-44.817 8.94-13.5 3.357-23.6 6.7-29.215 9.657a3.666 3.666 0 0 1-1.675.374Z" data-name="パス 585" transform="matrix(1 0 0 1 4.919 83.436)"/></g></svg>