<svg xmlns="http://www.w3.org/2000/svg" width="921.242" height="282.062"><g fill="#777"><path data-name="パス 597" d="M139.558 75.412a5.714 5.714 0 0 0-.037-4.33 5.202 5.202 0 0 1-.276-1.68 3.615 3.615 0 0 0-.87-2.215c-.622-1.098-1.383-1.246-2.47-.436a13.35 13.35 0 0 0-2.532 2.015 38.74 38.74 0 0 1-7.407 6.037 21.289 21.289 0 0 0-2.344 2.006 49.094 49.094 0 0 1-4.885 3.833c-1.266 1.008-2.531 2.016-3.985 3.034-2.541 1.827-5.083 3.655-7.618 5.67l-2.542 1.829a28.399 28.399 0 0 1-4.707 3.635c-1.46.83-2.739 1.646-4.192 2.668a111.956 111.956 0 0 1-10.917 7.35 113.83 113.83 0 0 0-10.013 6.55 15.545 15.545 0 0 1-2.373 1.441 12.475 12.475 0 0 0-3.48 1.877 27.495 27.495 0 0 1-5.686 2.93 11.234 11.234 0 0 0-2.008 1.235 25.463 25.463 0 0 1-6.951 3.94 9.528 9.528 0 0 0-2.749 1.463 29.221 29.221 0 0 1-7.346 3.589 42.497 42.497 0 0 0-6.842 2.429c-2.402.879-4.627 1.56-7.098 1.124a13.324 13.324 0 0 0-2.64-.05c-.76-.15-1.508-.11-2.085-.269q-2.565-.43-2.401-2.7a21.31 21.31 0 0 0-.067-4.893 5.815 5.815 0 0 1 .297-1.518 35.916 35.916 0 0 1 4.483-11.535c.208.366.227.742.593.534a.81.81 0 0 0 .712-.79c-.03-.564-.583-.346-.77-.336a9.832 9.832 0 0 1 .97-3.065c1.533-3.093 2.883-6.177 5.005-8.736a18.117 18.117 0 0 0 2.76-4.853 77.626 77.626 0 0 1 5.411-8.197 13.199 13.199 0 0 1 1.632-1.215 3.301 3.301 0 0 1 .9-.8c.178-.198.168-.386-.02-.376-.198-.178-.198-.178-.385-.168a13.911 13.911 0 0 1 2.611-4.091c1.77-2.165 3.334-4.695 5.49-6.69l.187-.01.06 1.13c.168-.385.534-.592.702-.978.356-.395.524-.78.129-1.137a10.12 10.12 0 0 1 2.611-4.091c3.04-3.172 6.083-6.156 9.119-9.328l4.153-3.423c.544-.405.91-.612 1.489-.266l.544-.405c.524-.78.88-1.176 1.849-.661.583.346 1.117-.247 1.275-.82a3.849 3.849 0 0 0-.354-3.187c-.228-.742-.989-.89-1.73-.663a11.505 11.505 0 0 1-2.205 1.056c-.366.208-.554.218-.761-.148a.656.656 0 0 0 .168-.386 7.767 7.767 0 0 1 1.998-1.422c.365-.208.939-.05 1.087-.81-.02-.376-.602-.722-1.528-.486l-2.224.681a27.012 27.012 0 0 0-5.64 3.877c-1.266 1.008-2.522 2.204-3.778 3.403-1.44 1.205-2.888 2.411-4.322 3.804-3.02 3.548-6.428 6.74-9.247 10.465s-5.832 7.273-8.843 11.009a8.18 8.18 0 0 0-1.058 1.373 28.207 28.207 0 0 1-3.324 4.882L31.51 87.46c-2.067 3.687-4.333 7.195-6.4 10.882l-4.126 7.56c-1.89 3.489-2.824 7.305-3.94 11.126a23.396 23.396 0 0 0-.705 8.135 39.267 39.267 0 0 0 2.488 7.969 11.205 11.205 0 0 0 2.836 3.807 16.17 16.17 0 0 0 8.302 3.899 14.618 14.618 0 0 0 3.025.218 46.093 46.093 0 0 0 10.044-2.407 131.43 131.43 0 0 0 22.07-10.193c1.64-1.027 3.098-2.045 4.548-3.062-.376.02-.742.227-1.305.256a.656.656 0 0 1-.208-.366l-.01-.187.91-.613c.376-.02.742-.227.761.149s-.158.573-.148.76a9.98 9.98 0 0 0 3.119-1.665.908.908 0 0 1 .119-1.324c.89-.988 2.007-1.235 2.907-2.035a14.05 14.05 0 0 1 6.447-2.785 2.136 2.136 0 0 0 1.469-.642c-.385-.168-.78-.524-.237-.93 2.73-1.837 5.637-3.872 8.554-5.72 1.641-1.027 3.48-1.876 5.31-2.913.019.375.404.544.77.336l2.008-1.235a1.763 1.763 0 0 0 .85-1.74c-.029-.563.515-.968 1.059-1.373.712-.79 2.037-.671 2.759-1.274a7.174 7.174 0 0 1 2.521-2.203 3.827 3.827 0 0 1 .93-.237c-.327.959-1.43 1.393-1.372 2.52.108 2.066-1.312 3.647-2.552 5.218-2.839 3.354-5.094 7.047-7.548 10.565-1.572 2.342-2.961 4.675-4.342 7.007-1.401 1.956-2.82 3.725-4.046 5.484-1.75 2.54-3.492 5.268-5.055 7.798a192.85 192.85 0 0 0-6.618 10.327c-1.39 2.145-2.78 4.477-4.352 6.82-.861 1.547-2.107 2.935-2.972 4.486a109.027 109.027 0 0 1-5.876 10.1c-2.097 3.124-3.997 6.42-5.896 9.726-.861 1.547-1.92 2.925-2.592 4.467a24.228 24.228 0 0 1-3.79 6.79 17.045 17.045 0 0 0-1.9 3.108c-3.622 6.4-7.055 12.799-10.28 19.56a18.102 18.102 0 0 0-1.143 3.449 3.237 3.237 0 0 0 .543 3.177 9.26 9.26 0 0 1 1.294 3.139c.049.939.83 1.46 1.778 1.602a6.123 6.123 0 0 1 2.67.614c.77.336 1.324.12 1.458-.83l-.127-2.45.187-.01c-.71-2.787.507-4.734 2.682-6.35-.592-.534-.434-1.108-.285-1.869.821-2.303 2.235-4.072 3.255-6.197a2.764 2.764 0 0 1 1.078-.998 4.778 4.778 0 0 0 2.328-2.381l1.029-1.937a3.694 3.694 0 0 0 .792-2.867 1.808 1.808 0 0 1 1.038-1.757 4.786 4.786 0 0 0 2.146-2.184 49.014 49.014 0 0 0 2.923-5.426.908.908 0 0 0 .119-1.325.907.907 0 0 1 .307-1.33 5.334 5.334 0 0 0 1.988-1.606c-.385-.169-.751.039-.959-.327s.149-.761.327-.959l1.47-.642a2.764 2.764 0 0 0 1.077-.997c.346-.584.524-.781-.247-1.118-.573-.158-.217-.553-.039-.751 2.037-.671 2.888-2.41 3.739-4.15.178-.198.158-.574.336-.771-.188.01-.366.207-.741.227-.178.198-.376.02-.198-.178a.656.656 0 0 1 .168-.386.977.977 0 0 1 .771.337 6.603 6.603 0 0 0 .861-1.548c-.434-1.107-.444-1.295.11-1.508a3.489 3.489 0 0 0 2.185-1.433 79.452 79.452 0 0 1 3.977-6.8.953.953 0 0 1-.949-.138c-.207-.366.149-.761.327-.959.356-.395.731-.415 1.097-.622a1.9 1.9 0 0 0 1.275-.832c1.217-1.947 2.82-3.726 3.64-6.029-.375.02-.76-.148-1.136-.129a7.541 7.541 0 0 1 2.483-2.954 4.915 4.915 0 0 0 2.404-4.458 1.708 1.708 0 0 1 .495-1.344 17.17 17.17 0 0 0 1.37-2.52 4.986 4.986 0 0 1 1.079-.998c2.224-.681 3.08-2.42 3.728-4.338a4.096 4.096 0 0 1-1.45 1.017l.496-1.344a.884.884 0 0 1 1.488-.266 20.837 20.837 0 0 0 3.839-5.85 5.716 5.716 0 0 1-1.266 1.007 2.1 2.1 0 0 1 1.236-1.567l.03.564.534-.593a11.644 11.644 0 0 0 1.9-3.305 3.78 3.78 0 0 0 .672-1.538 2.401 2.401 0 0 1 1.949-2.362c-.01-.188.178-.198.356-.395.356-.395.158-.573-.05-.94.456-2.095 1.88-3.676 3.117-5.247 1.741-2.728 3.877-5.1 5.43-7.817a8.115 8.115 0 0 1 3.04-3.172l.505-1.157c.169-.385.554-.217.95.139l-.01-.188c1.479-.454 1.977-1.798 2.472-3.142a.582.582 0 0 1-.366.207 1.422 1.422 0 0 1-.741.227.572.572 0 0 1-.04-.751 10.434 10.434 0 0 0 1.05-1.558c3.665-5.472 8.116-10.413 11.977-15.892a36.106 36.106 0 0 1 2.68-2.777c.534-.593 1.098-.622 1.499-.078l3.926-4.16a2.238 2.238 0 0 0 .644-2.106c-.016-.372-.233-.925-.065-1.31Zm-15.806 21.923a.184.184 0 0 1 .178-.197 4.986 4.986 0 0 1 .88-1.176l-1.068 1.186Zm-1.76 2.352c.9-.8 1.621-1.403 1.76-2.352a3.769 3.769 0 0 0-1.76 2.348Zm.01.188-.01-.188-.179.198Zm-2.124 2.555a4.986 4.986 0 0 1-.88 1.176 4.986 4.986 0 0 1 1.078-.997Zm-52.577 17.624c-4.558 2.874-9.512 5.393-14.278 7.902a19.84 19.84 0 0 1-3.52 1.125l.03.564c-3.995 2.845-8.632 4.217-13.476 5.223-.188.01-.564.03-.583-.346l.356-.395a.656.656 0 0 0 .366-.208c-1.869.286-3.372.365-5.052.64a.4.4 0 0 1-.396-.355l.357-.396a9.44 9.44 0 0 1 2.234-.493 59.004 59.004 0 0 0 12.422-3.854 13.112 13.112 0 0 1 3.51-1.31 15.96 15.96 0 0 0 4.775-2.32 6.681 6.681 0 0 1 1.652-.84 23.01 23.01 0 0 0 6.624-2.982c1.652-.84 3.293-1.867 4.944-2.707a9.448 9.448 0 0 1 2.393-1.066 11.312 11.312 0 0 1-2.358 1.818Zm12.95-.865a2.673 2.673 0 0 1-1.107.435.184.184 0 0 1-.178.197l.376-.02a4.11 4.11 0 0 1 .914-.612Zm26.612 1.06a3.337 3.337 0 0 0 1.4-1.957 3.188 3.188 0 0 0-1.396 1.957Zm-27.893-.428a1.587 1.587 0 0 0-1.295.445c.01.187-.178.197.02.375l.188-.01a1.27 1.27 0 0 0 1.087-.81Zm-14.466 7.912c-1.65.84-2.897 2.223-4.983 1.955a.656.656 0 0 0-.207-.365.184.184 0 0 1 .178-.198 4.112 4.112 0 0 0 .91-.613l.563-.029a9.26 9.26 0 0 0 3.138-1.294.691.691 0 0 1 .574.159c-.192.01-.173.385-.173.385Zm-20.523 3.708 1.66-.651 1.47-.642-1.661.652Zm10.606 1.142c-3.678 1.694-7.337 3.773-11.232 4.918a33.87 33.87 0 0 1-7.069 1.687l-1.127.059c-.197-.178-.385-.168-.395-.356l.168-.385a6.683 6.683 0 0 1 1.859-.474 92.289 92.289 0 0 0 15.35-5.322 10.08 10.08 0 0 1 2.018-1.047c.929-.236 1.65-.84 2.62-.325a3.278 3.278 0 0 1-2.192 1.245Zm-17.646 1.11-.184.009a.656.656 0 0 0-.366.207l.376-.02c.184-.009.362-.207.174-.197Zm58.343 2.796c.01.188-.178.198-.365.208l-.03-.564a4.28 4.28 0 0 1 1.612-1.586 2.718 2.718 0 0 1-1.217 1.942Zm-4.391 6.068a4.986 4.986 0 0 0 .88-1.176 1.926 1.926 0 0 1-.88 1.172Zm-13.688 12.007a6.635 6.635 0 0 1-1.578 2.158 5.125 5.125 0 0 1 1.01-2.312c.177-.198.355-.396.543-.406.382.169.016.376.025.56Zm6.125 1.945c.178-.198.356-.396.346-.584-.174.198-.356.396-.346.584Zm-1.47.641-.01-.188.179-.197c.01.188.01.188-.168.385Zm-8.002 12.66-.01-.188.178-.197a.656.656 0 0 0-.168.385Zm-2.01 4.814-.187.01.01.187Zm-6.212 10.87-.188.01c.01.189-.178.198-.356.396l.01.188Zm-15.12 13.413-.188.01.178-.198Zm144.793-69.341a2 2 0 0 0-.137-2.63c-.584-.346-.623-1.098-.84-1.651-.444-1.295-1.027-1.642-2.313-1.01l-2.017 1.047a3.393 3.393 0 0 1-2.224.682 21.2 21.2 0 0 0-3.352.74 10.993 10.993 0 0 1-3.55.561 46.12 46.12 0 0 0-5.05.64l-10.678 1.123a63.596 63.596 0 0 1-8.462.253c-7.542-.17-14.749-1.113-21.36-5.096-1.166-.692-1.73-.663-2.6.7s-2.364 1.627-3.837 2.273l-.375.02-.593-.535a.691.691 0 0 1 .158-.573c-.01-.188.178-.198.366-.207.356-.396 1.107-.435 1.078-.998-.02-.376-.79-.712-1.528-.486a6.184 6.184 0 0 0-3.679 1.695 44.745 44.745 0 0 0-7.279 8.479 12.206 12.206 0 0 0-2.237 7.65 53.611 53.611 0 0 0 .847 5.418 10.78 10.78 0 0 0 13.21 7.79 24.665 24.665 0 0 0 8.632-4.218c.732-.415 2.027-.859 1.02-2.125-.189.01-.02-.375.158-.573 1.41-1.769 3.02-3.548 4.243-5.307a25.118 25.118 0 0 0 1.138-3.45c.683-1.353 1.237-1.566 2.749-1.461.385.168.949.139 1.518.297a53.262 53.262 0 0 0 7.592 1.107 34.729 34.729 0 0 0 11.665-.232c3.37-.365 6.92-.926 10.3-1.103a22.134 22.134 0 0 0 9.64-2.952c2.196-1.244 4.193-2.667 6.605-3.358.93-.237 1.85-.661 1.207-2.134Zm-35.065 2.96c4.122-.404 8.235-.995 12.367-1.21 3.187-.355 6.357-.897 9.53-1.44a15.732 15.732 0 0 0 5.745-1.802 8.146 8.146 0 0 1 .929-.237c.178-.198.554-.217.563-.03.208.366.03.564-.158.574a10.605 10.605 0 0 1-2.215.869 5.453 5.453 0 0 0-2.729 1.837c-.346.583-.722.603-1.276.82a6.683 6.683 0 0 1-1.858.474c-4.498.423-8.977 1.222-13.682 1.279a1.857 1.857 0 0 1-1.147-.317l5.255-.274a1.42 1.42 0 0 0-1.528-.481l-7.892.412c-.752.039-1.7-.1-2.64-.051a.751.751 0 0 1 .736-.42Zm-23.51 4.244c-.356.396-.514.969-.87 1.364a18.631 18.631 0 0 1-6.458 6.176 10.823 10.823 0 0 1-6.328 1.46c-1.127.06-1.344-.495-1.215-1.631a20.847 20.847 0 0 1 1.504-3.657c.356-.396.149-.762-.227-.742a7.924 7.924 0 0 1 3.69-5.09l2.165-1.807a10.434 10.434 0 0 1 1.44-1.206 2.12 2.12 0 0 1 3.025.22l3.004 3.42a1.42 1.42 0 0 1 .27 1.493Zm45.476-5.579-.198-.178a.656.656 0 0 0-.366.207l.564-.029Zm-3.925.582-3.005.156.01.188 3.005-.157Zm9.914 2.307a19.417 19.417 0 0 1-9.066 3.11c-4.498.423-8.987 1.034-13.495 1.27a14.939 14.939 0 0 1-4.142.027c-.563.03-1.314.07-1.72-.475a4.771 4.771 0 0 1 2.235-.493c5.071-.265 9.935-.895 14.997-1.348 1.868-.286 3.737-.572 5.595-1.045a17.933 17.933 0 0 0 4.984-1.955c.92-.425 1.81-1.413 2.966-.909-.515.973-1.632 1.22-2.354 1.822Zm-45.047 10.266a2.673 2.673 0 0 1 .317-1.147l-.375.02Zm-.356.395.01.188c-.01-.188.168-.386.346-.583-.174.197-.361.207-.352.395Zm-15.581 4.58a.691.691 0 0 1-.574-.158c-.187.01-.375.02-.395-.356-.01-.188-.02-.376.168-.386a20.61 20.61 0 0 1 4.829-1.386 14.355 14.355 0 0 1-1.988 1.607l1.315-.069a.184.184 0 0 1 .197.178l.01.188c-1.097.622-2.007 1.235-3.351.74a.656.656 0 0 1-.207-.358Zm7.294 2.633a3.902 3.902 0 0 1-1.82 1.225 11.863 11.863 0 0 1-4.083 1.155l-.375.02c-.198-.179-.386-.169-.395-.357s-.02-.375.168-.385l.544-.405c1.66-.652 3.148-1.106 4.617-1.744a2.386 2.386 0 0 0 1.117-.247s.386.169.396.356c.003-.008.023.372-.165.382Zm140.843-22.419c-8.9 6.303-18.412 11.697-27.321 17.812a35.968 35.968 0 0 1-5.854 3.315 22.218 22.218 0 0 1-5.745 1.803c-.188.01-.573-.159-.583-.347a.656.656 0 0 1 .168-.385 21.094 21.094 0 0 1 2.393-1.067 37.682 37.682 0 0 0 7.346-3.589c2.917-1.847 5.844-3.51 8.752-5.542 4.182-2.855 8.563-5.532 12.943-8.21 2.552-1.635 5.28-3.48 8.02-5.126a16.27 16.27 0 0 0 1.81-1.413 1.626 1.626 0 0 0 .504-1.156 1.193 1.193 0 0 0-1.176-.88 3.201 3.201 0 0 0-1.305.256c-.92.424-1.651.84-2.57 1.264l-10.402 6.393c-1.098.623-1.998 1.423-3.129 1.482a16.937 16.937 0 0 1-6.19 4.09l.513-1.157a5.362 5.362 0 0 0-2.552 1.636l2.037-.671a2.266 2.266 0 0 1-.89.988c-3.451 2.44-6.902 4.88-10.557 6.954a17.126 17.126 0 0 1-8.58 1.77.656.656 0 0 1-.207-.365.582.582 0 0 1 .168-.386l.92-.424a59.96 59.96 0 0 0 13.032-6.52c2.373-1.441 4.736-3.071 7.1-4.702a195.84 195.84 0 0 1 18.985-11.538 4.11 4.11 0 0 0 .91-.612c.366-.207.722-.603.514-.969-.03-.563-.415-.731-.978-.702a5.162 5.162 0 0 0-2.422.503c-4.252 1.54-8.069 4.188-11.905 6.46s-7.278 4.9-11.115 7.172a3.935 3.935 0 0 0-1.087.81 43.977 43.977 0 0 1-8.03 4.94 30.014 30.014 0 0 0-4.222 2.103 3.384 3.384 0 0 1-3.025-.218c-.385-.169-.602-.722-.236-.93 1.45-1.017 1.928-2.737 2.601-4.279 1.178-2.698 2.168-5.387 3.543-7.907a2.322 2.322 0 0 0 .673-1.538 3.55 3.55 0 0 1 1.75-2.54 18.362 18.362 0 0 0 3.021-3.547 1.472 1.472 0 0 0-.107-2.067c-.96-.326-1.354-.682-1.028-1.641a2.158 2.158 0 0 0-1.057-2.205 4.448 4.448 0 0 1-2.193-2.334 2.701 2.701 0 0 0-4.013-1.109 3.346 3.346 0 0 0-1.237 1.568 8.489 8.489 0 0 1-3.748 3.962c-3.273 2.243-6.546 4.485-9.622 6.906a28.413 28.413 0 0 1-3.292 1.867 120.146 120.146 0 0 0-11.015 5.471 17.197 17.197 0 0 1-2.561 1.453 6.08 6.08 0 0 1-3.168.73 1.433 1.433 0 0 1-1.393-1.43c.268-2.086.16-4.152 1.185-6.089.85-1.74.763-3.43-1.175-4.459l-.592-.534a2 2 0 0 0-2.462-.248 7.657 7.657 0 0 0-2.512 2.391 25.827 25.827 0 0 0-3.86 9.054 13.894 13.894 0 0 0 .207 3.944 18.572 18.572 0 0 0 2.528 5.142c1.828 2.541 4.16 3.926 7.512 3.186a27.491 27.491 0 0 0 6.673-2.043 26.646 26.646 0 0 0 3.303-1.675c3.856-1.897 7.717-3.793 11.559-5.877.376-.02.554-.218.92-.425a1 1 0 0 1 1.363.87 3.201 3.201 0 0 1-.119 1.325 5.491 5.491 0 0 1-.287 1.71c-.407 3.035 1.212 8.789 3.208 10.945a9.404 9.404 0 0 0 9.39 3.088 22.244 22.244 0 0 0 8.315-3.07c4.934-2.895 9.482-5.957 14.219-9.03 5.28-3.481 10.759-6.773 16.227-10.264 1.45-1.017 2.719-2.025 3.995-2.845a5.146 5.146 0 0 0 .702-.978 8.92 8.92 0 0 0-3.487 1.68Zm-46.647-6.04-1.246 1.387-1.098.622 1.127-.058c-.86 1.547-2.521 2.203-3.985 3.033a12.112 12.112 0 0 1-3.649 2.262c-3.118 1.665-6.229 3.339-9.353 4.82a10.605 10.605 0 0 1-2.215.869 4.494 4.494 0 0 1-2.58 1.076 4.494 4.494 0 0 1-2.581 1.077l-1.47.641-.03-.571-2.787.71c.01.188-.188.01-.386-.168a.656.656 0 0 0 .168-.385l.92-.425c4.973-2.143 9.749-4.464 14.515-6.969a58.334 58.334 0 0 0 10.412-6.193l3.837-2.272c-.01-.188.366-.208.376-.02a.353.353 0 0 1 .025.564Zm-31.763 1.277c-.188.01-.188.01-.178.198-.01-.188-.02-.376.168-.386Zm74.827.995.91-.612a4.11 4.11 0 0 0-.91.612Zm-2.205 1.057a2.673 2.673 0 0 1 1.108-.435l1.097-.622a2.673 2.673 0 0 1-1.107.435Zm-1.81 1.413-.187.01-.178.197c.174-.197.174-.197.362-.207Zm-.553.217Zm.01.188-.01-.188-1.098.622c.362-.207.738-.226 1.108-.434Zm-1.108.434-.91.613a4.112 4.112 0 0 0 .906-.612Zm-3.108 1.858 1.097-.623a2.673 2.673 0 0 1-1.107.435c.01.188-.178.197-.168.385a.184.184 0 0 1 .178-.197Zm-39.045 2.414a3.201 3.201 0 0 1-1.82 1.225c-2.56 1.452-5.31 2.914-8.068 4.188l-9.941 4.47a8.861 8.861 0 0 1-3.158.918c-.188.01-.376.02-.386-.168-.197-.178-.02-.375.169-.385a9.168 9.168 0 0 1 2.027-.86 222.016 222.016 0 0 0 18.915-9.274 9.168 9.168 0 0 1 2.026-.859.656.656 0 0 0 .386.168.691.691 0 0 1-.154.578Zm38.87-2.217a4.715 4.715 0 0 0-1.275.82 4.714 4.714 0 0 0 1.272-.82Zm-3.286 2.055a5.362 5.362 0 0 0-2.552 1.636l2.225-.681-.188.01a4.11 4.11 0 0 1 .515-.965Zm-2.364 1.626-.188.01a4.11 4.11 0 0 1-.91.612Zm-1.097.622a4.096 4.096 0 0 0-1.45 1.018 4.095 4.095 0 0 0 1.45-1.014Zm-24.261 4.28.187-.01.01.188c.01.188-.178.198-.188.01Zm19.158-1-.91.613a4.112 4.112 0 0 0 .91-.609Zm-.91.613a4.095 4.095 0 0 0-1.45 1.017 6.603 6.603 0 0 0 1.45-1.013Zm-1.44 1.205-.01-.188-1.097.622c.362-.203.738-.222 1.104-.43Zm-4.568 2.687.92-.425c-.38.028-.554.221-.923.429Zm-2.01 1.239a4.11 4.11 0 0 0 .909-.613Zm105.87-14.001c-.237-.93-1.028-1.642-2.51-1.188a7.053 7.053 0 0 0-2.057.296.5.5 0 0 1-.593-.534.656.656 0 0 1 .366-.208c.553-.217 1.117-.246 1.67-.463a3.342 3.342 0 0 0 1.84-.85.687.687 0 0 0 .326-.959.69.69 0 0 0-.79-.712l-1.69.089a23.01 23.01 0 0 1-3.168.73c-4.894.067-9.728 1.261-14.622 1.328-1.878.098-3.944.206-5.813.492a7.124 7.124 0 0 1-2.817.147c-1.69.088-3.39-.011-5.081.077a45.231 45.231 0 0 1-13.276-1.756 4.11 4.11 0 0 0-.968-.514 2.201 2.201 0 0 1-1.607-1.988 3.672 3.672 0 0 1-.256-1.305c-.345-2.996-1.783-5.369-3.24-7.93a2.289 2.289 0 0 0-3.073-1.158c-.93.237-1.661.652-2.403.88-2.936 1.47-5.26 3.852-7.598 6.046-1.622 1.403-3.234 2.994-4.846 4.585a6.603 6.603 0 0 1-1.45 1.017c-.91.613-1.68.276-2.293-.634-.207-.365-.237-.929-.444-1.295a1.326 1.326 0 0 0-2.462-.248 42.56 42.56 0 0 0-2.245 3.884c-2.405 4.457-4.809 8.915-7.207 13.56a4.318 4.318 0 0 0-.614 2.669 10.345 10.345 0 0 1 .591 4.113 1.32 1.32 0 0 0 .84 1.65c.77.337.988.89 1.393 1.43.434 1.108 2.332 1.382 2.857.605a64.115 64.115 0 0 0 6.769-7.506 4.87 4.87 0 0 0 1.21-2.135.95.95 0 0 1 1.266-1.008 1.626 1.626 0 0 0 1.098-.622c.524-.781 1.44-1.205 1.573-2.342a4.095 4.095 0 0 1 .86-1.548l.564-.03a2.267 2.267 0 0 0 .89-.988l1.06-1.19a3.78 3.78 0 0 0 1.46-.829 26.932 26.932 0 0 1 3.985-3.033l.534-.593-.563.03.534-.593 2.7-2.401c1.79-1.789 2.748-1.462 3.255.96a11.723 11.723 0 0 0 3.511 5.844 17.931 17.931 0 0 0 9.083 4.422 59.795 59.795 0 0 0 11.704.52 182.783 182.783 0 0 0 26.558-3.647 9.441 9.441 0 0 0 2.235-.493l.544-.405c.187-.01.178-.198.168-.386l-.376.02c-1.305.257-2.6.7-3.905.957-3.925.582-7.854 1.164-11.765 1.933a91.264 91.264 0 0 1-12.377 1.022 34.442 34.442 0 0 1-8.877-.478 2.673 2.673 0 0 1-1.146-.317.4.4 0 0 1-.396-.356.656.656 0 0 1 .366-.207l2.254-.118c3.579.002 7.177.379 10.736.005 2.066-.108 4.31-.414 6.366-.71a146.208 146.208 0 0 0 18.122-2.828c.553-.218 1.117-.247 1.67-.464 1.098-.623 1.806-1.413 1.57-2.342Zm-57.954-13.361-.01-.184.198.178Zm48.325 12.921c-.178.198-.366.208-.741.228-2.423.503-5.042.828-7.662 1.153a16.147 16.147 0 0 0-3.168.73l7.513-.392c-.365.207-.741.227-1.107.434a102.765 102.765 0 0 1-18.566 1.535 8.573 8.573 0 0 1-4.369-.714l2.442-.128c-1.528-.485-3.217-.208-4.755-.881-.039-.752.535-.593.92-.425a175.852 175.852 0 0 0 19.92-.851c3.38-.177 6.742-.73 10.3-1.103.024.375-.351.395-.727.414Zm-3.128 1.482a1.13 1.13 0 0 1 .741-.227.691.691 0 0 1 .574.159Zm-22.53 1.364a11.005 11.005 0 0 0 2.461.249l9.016-.47a12.706 12.706 0 0 0 2.61-.514c-4.692.241-9.377.678-14.083.731Zm223.827-20.158c-1.186-1.068-2.372-2.136-4.23-1.662l-1.879.098a.953.953 0 0 0 .95.139c.385.168.75-.04.78.524a6.215 6.215 0 0 1-2.63.137c-2.63.138-5.269.087-7.912.037l-20.878.524a9.157 9.157 0 0 1-2.264-.07 8.004 8.004 0 0 1-2.086-.268c-.188.01-.573-.158-.207-.366.178-.197.563-.029.544-.405a23.044 23.044 0 0 0-3.589-.189c-.197-.178-.583-.346-.405-.544a.4.4 0 0 1 .356-.395 30.756 30.756 0 0 0 4.152.16c6.01-.314 12.03-.44 17.863-.556 6.03.062 11.863-.054 17.715.206l2.066-.108.534-.593a.827.827 0 0 0-.236-.93 2.415 2.415 0 0 0-1.918-.653c-2.837-.228-5.664-.27-8.492-.31-1.7-.1-3.197.167-4.705.057-5.655-.081-11.309-.163-16.944.131a44.169 44.169 0 0 1-4.893.067 45.835 45.835 0 0 0-5.081.077 18.909 18.909 0 0 1-4.735-.506c-2.303-.821-4.784-1.445-7.097-2.455-2.51-1.187-3.266-1.148-5.23.838a11.351 11.351 0 0 1-1.42 1.577 9.858 9.858 0 0 1-1.968 1.986c-2.166 1.808-4.332 3.617-6.695 5.247a26.504 26.504 0 0 1-5.844 3.51 56.915 56.915 0 0 0-5.893 2.568c-.366.208-.93.237-1.295.444-2.6.701-3.187.355-4.062-2.048a.691.691 0 0 1-.217-.553c-.71-2.788-2.697-4.757-4.693-6.912a4.891 4.891 0 0 0-7.147.184 15.683 15.683 0 0 1-5.979 4.456 45.839 45.839 0 0 0-5.122 2.904 32.597 32.597 0 0 1-7.149 3.763 18.271 18.271 0 0 0-6.605 3.358c-2.185 1.433-4.795 1.946-7.395 2.647-.376.02-.574-.159-.781-.525a5.036 5.036 0 0 1 .15-4.34 8.945 8.945 0 0 0 1.09-4.388c-.228-.742-.454-1.48-1.216-1.632a3.829 3.829 0 0 1-1.373-1.058 1.342 1.342 0 0 0-2.076-.08 16.446 16.446 0 0 0-1.4 1.956 26.871 26.871 0 0 0-2.712 5.792 9.523 9.523 0 0 0-.171 7.543l.68 2.224a7.522 7.522 0 0 0 2.056 3.283c2.144 1.391 4.26 2.226 6.86 1.526l2.787-.711a77.86 77.86 0 0 0 9.018-4.05 184.468 184.468 0 0 0 20.889-11.068c.554-.217.91-.612 1.46-.83 1.65-.839 1.829-1.036 3.054.783a17.754 17.754 0 0 1 .651 1.661l.682 2.225c1.461 2.749 3.635 4.707 6.848 4.916 1.888.09 3.964.17 5.586-1.233.356-.396.732-.415 1.285-.632a85.055 85.055 0 0 0 15.194-8.327l2.195-1.245c1.91-3.113 5.27-3.665 8.434-4.395a4.427 4.427 0 0 1 1.519.297 5.633 5.633 0 0 1 1.917.654 39.725 39.725 0 0 0 9.49 1.388c1.136.129 2.254-.118 3.41.387a.854.854 0 0 0 .94-.05c.514-.968 1.468-.641 2.224-.68a10.228 10.228 0 0 1 3.38-.177c2.442-.127 5.082-.077 7.533-.016l12.973-.677a7.17 7.17 0 0 1 2.827.04c.968.515.968.515 1.72.476a14.235 14.235 0 0 0 2.807-.335l1.127-.06a.4.4 0 0 0 .356-.394.36.36 0 0 0-.217-.554 20.724 20.724 0 0 0-3.4-.2 301.457 301.457 0 0 0-18.437.398c-3.39-.011-6.772.165-10.153.342a53.524 53.524 0 0 1-7.74-.35 2.471 2.471 0 0 1-1.908-.465c.534-.593 1.296-.445 2.047-.484 2.64.05 5.09.111 7.72-.026 8.838-.273 17.488-.536 26.336-.621.939-.05 2.076.08 3.207.02l2.442-.127a1.27 1.27 0 0 0 1.087-.81 1.463 1.463 0 0 0-.458-1.487Zm-61.804-.54-.188.01c-.01-.189-.01-.189.178-.198a.184.184 0 0 1 .178-.198c.202.182.014.192-.164.385Zm-70.094 20.985c-.197-.178-.385-.168-.76-.148a.36.36 0 0 1-.218-.554 1.437 1.437 0 0 1 .92-.425 164.746 164.746 0 0 0 16.354-7.818c5.32-2.726 10.254-5.62 15.376-8.524a21.31 21.31 0 0 1 3.668-1.887c.366-.207.741-.227.751-.04.208.367-.356.396-.534.594a.656.656 0 0 0-.366.207 7.864 7.864 0 0 0-3.089 2.233 5.565 5.565 0 0 1 1.859-.473c-1.78 1.976-4.183 2.855-6.388 3.911l.505-1.156a48.096 48.096 0 0 1-4.4 2.301c-.356.396-.535.593-.13 1.137l-.187.01a19.509 19.509 0 0 1-6.407 3.54 46.68 46.68 0 0 1-8.069 4.188 27.437 27.437 0 0 1-8.107 3.437c-.55.209-.946-.147-.778-.533Zm67.013-18.753a6.237 6.237 0 0 1 2.531-2.015 4.124 4.124 0 0 1-2.531 2.015Zm41.075-3.274-.01-.188-11.081.579.01.188Zm-44.883 6.11a6.603 6.603 0 0 1 1.45-1.018 4.096 4.096 0 0 1-1.45 1.018Zm-3.079 2.42a.656.656 0 0 1-.385-.168l-.02-.375a.977.977 0 0 1 .732-.415 5.633 5.633 0 0 1 1.839-.85 5.135 5.135 0 0 1-2.162 1.808Zm-23.528.287c-.178.197-.168.385-.356.395l-2.175 1.616c-8.405 4.96-17.027 9.364-25.847 13.591a39.009 39.009 0 0 1-6.096 2.202 3.201 3.201 0 0 1-1.305.257c-.198-.178-.386-.169-.396-.356a.582.582 0 0 1 .169-.386c.178-.198.365-.207.741-.227 6.096-2.202 11.598-5.126 17.471-8.069 5.142-2.528 10.264-5.432 15.386-8.337a4.828 4.828 0 0 1 2.205-1.056.184.184 0 0 0 .197.178Zm11.024 5.451c-.01-.188.356-.395.534-.593l-1.314.069c-.188.01-.198-.178-.396-.356a.184.184 0 0 1 .178-.198c.178-.197.356-.395.544-.405 2.769-1.086 5.725-2.182 8.493-3.268l1.48-.454a7.157 7.157 0 0 1-2.354 1.818 9.98 9.98 0 0 0-3.12 1.665c.93-.237 2.047-.483 2.977-.72l.534-.593a.691.691 0 0 1 .573.159c-.188.01-.178.197-.366.207-.178.198-.366.207-.741.227a14.05 14.05 0 0 1-6.447 2.785c-.18.013-.555.033-.575-.343Zm-27.777-1.756a2.673 2.673 0 0 0 1.107-.434 2.673 2.673 0 0 0-1.107.438Zm-.91.613a4.11 4.11 0 0 0 .91-.613Zm-2.176 1.616 1.078-.998a7.966 7.966 0 0 0-2.57 1.264 4.674 4.674 0 0 1 1.493-.258Zm44.752-1.394-.178.198a44.728 44.728 0 0 1-10.47 5.066l-1.306.257c-.375.02-.76-.149-.77-.337s.168-.385.346-.583a3.177 3.177 0 0 0 .92-.424 62.975 62.975 0 0 0 9.768-4.089 3.487 3.487 0 0 1 1.295-.444c.178-.198.376-.02.386.168Zm-51.752 4.404a7.966 7.966 0 0 0-2.57 1.264c.563-.029 1.117-.246 1.488-.266Zm52.998-2.2a4.11 4.11 0 0 1 .91-.613l-1.098.622Zm-62.756 6.48ZM611.35 107.85a2 2 0 0 0-.138-2.63c-.583-.345-.622-1.097-.84-1.65-.443-1.296-1.027-1.642-2.312-1.01l-2.017 1.047a3.393 3.393 0 0 1-2.225.681 21.199 21.199 0 0 0-3.351.74 10.993 10.993 0 0 1-3.55.562 46.12 46.12 0 0 0-5.051.64l-10.677 1.123a63.597 63.597 0 0 1-8.462.253c-7.543-.171-14.749-1.113-21.36-5.096-1.166-.693-1.73-.663-2.6.7s-2.364 1.627-3.837 2.273l-.376.02-.593-.535a.691.691 0 0 1 .159-.573c-.01-.188.178-.198.366-.208.356-.395 1.107-.434 1.078-.998-.02-.375-.79-.712-1.528-.485a6.184 6.184 0 0 0-3.679 1.695 44.745 44.745 0 0 0-7.28 8.479 12.206 12.206 0 0 0-2.237 7.65 53.596 53.596 0 0 0 .848 5.418 10.78 10.78 0 0 0 13.214 7.785 24.665 24.665 0 0 0 8.632-4.217c.731-.415 2.027-.86 1.019-2.125-.188.01-.02-.376.158-.573 1.41-1.769 3.02-3.548 4.243-5.307a25.12 25.12 0 0 0 1.135-3.445c.683-1.354 1.237-1.568 2.749-1.462.385.168.949.139 1.518.297a53.264 53.264 0 0 0 7.591 1.107 34.729 34.729 0 0 0 11.665-.232c3.372-.365 6.92-.927 10.302-1.103a22.134 22.134 0 0 0 9.64-2.952c2.194-1.244 4.192-2.667 6.604-3.358.93-.237 1.85-.661 1.207-2.135Zm-35.066 2.96c4.123-.403 8.235-.994 12.368-1.21 3.187-.355 6.356-.897 9.53-1.439a15.731 15.731 0 0 0 5.744-1.802 8.15 8.15 0 0 1 .93-.237c.178-.198.553-.218.563-.03.208.366.03.564-.158.574a10.605 10.605 0 0 1-2.215.869 5.453 5.453 0 0 0-2.73 1.837c-.345.583-.721.603-1.275.82a6.682 6.682 0 0 1-1.858.474c-4.498.423-8.977 1.222-13.682 1.279a1.858 1.858 0 0 1-1.147-.317l5.26-.275a1.42 1.42 0 0 0-1.529-.485l-7.893.412c-.751.04-1.7-.1-2.64-.05a.751.751 0 0 1 .733-.415Zm-23.509 4.245c-.356.396-.515.969-.87 1.364a18.632 18.632 0 0 1-6.458 6.176 10.824 10.824 0 0 1-6.328 1.46c-1.127.059-1.344-.495-1.215-1.632a20.848 20.848 0 0 1 1.504-3.657c.356-.395.149-.76-.227-.741a7.924 7.924 0 0 1 3.69-5.09l2.165-1.808a10.43 10.43 0 0 1 1.44-1.205 2.12 2.12 0 0 1 3.025.219l3.004 3.422a1.42 1.42 0 0 1 .27 1.492Zm45.476-5.58-.198-.177a.656.656 0 0 0-.366.207l.564-.03Zm-3.925.582-3.005.157.01.188 3.005-.157Zm9.914 2.308a19.417 19.417 0 0 1-9.066 3.11c-4.499.423-8.987 1.034-13.495 1.27a14.939 14.939 0 0 1-4.142.027c-.563.03-1.315.069-1.72-.475a4.771 4.771 0 0 1 2.235-.493c5.071-.265 9.935-.896 14.997-1.348 1.868-.286 3.737-.572 5.595-1.046a17.933 17.933 0 0 0 4.98-1.95c.92-.425 1.81-1.413 2.966-.909-.51.969-1.628 1.215-2.35 1.818Zm-45.047 10.266a2.673 2.673 0 0 1 .317-1.147l-.376.02Zm-.356.395.01.188c-.01-.188.168-.386.346-.583-.174.197-.358.207-.348.394Zm-15.581 4.58a.691.691 0 0 1-.574-.158c-.188.01-.375.02-.395-.357-.01-.187-.02-.375.168-.385a20.61 20.61 0 0 1 4.829-1.386 14.355 14.355 0 0 1-1.988 1.606l1.315-.068a.184.184 0 0 1 .197.178l.01.188c-1.097.622-2.007 1.234-3.351.74a.656.656 0 0 1-.211-.358Zm7.294 2.633a3.902 3.902 0 0 1-1.82 1.225 11.863 11.863 0 0 1-4.083 1.155l-.375.02c-.198-.179-.386-.17-.396-.357s-.02-.376.169-.385l.543-.405c1.662-.652 3.149-1.106 4.618-1.744a2.385 2.385 0 0 0 1.117-.247s.386.168.395.356c.004-.008.024.372-.164.381Zm130.941-17.194c-.237-.929-1.027-1.641-2.51-1.187a7.053 7.053 0 0 0-2.056.296.5.5 0 0 1-.593-.534.656.656 0 0 1 .366-.208c.553-.217 1.117-.246 1.67-.464a3.342 3.342 0 0 0 1.84-.849.687.687 0 0 0 .326-.959.69.69 0 0 0-.79-.712l-1.69.088a23.01 23.01 0 0 1-3.169.73c-4.893.068-9.727 1.262-14.62 1.329-1.88.098-3.945.206-5.814.492a7.123 7.123 0 0 1-2.817.147c-1.69.088-3.39-.012-5.081.077a45.231 45.231 0 0 1-13.276-1.756 4.112 4.112 0 0 0-.968-.514 2.201 2.201 0 0 1-1.607-1.988 3.672 3.672 0 0 1-.256-1.305c-.345-2.996-1.783-5.37-3.24-7.93a2.289 2.289 0 0 0-3.073-1.158c-.93.237-1.661.652-2.403.879-2.936 1.472-5.26 3.853-7.599 6.047-1.621 1.403-3.233 2.994-4.845 4.585a6.603 6.603 0 0 1-1.45 1.017c-.91.612-1.68.276-2.293-.634-.208-.366-.237-.93-.445-1.295a1.326 1.326 0 0 0-2.46-.248 42.567 42.567 0 0 0-2.247 3.884c-2.404 4.457-4.808 8.915-7.206 13.56a4.318 4.318 0 0 0-.614 2.669 10.346 10.346 0 0 1 .591 4.112 1.32 1.32 0 0 0 .84 1.652c.77.336.988.89 1.393 1.43.434 1.107 2.332 1.38 2.856.604a64.117 64.117 0 0 0 6.765-7.51 4.87 4.87 0 0 0 1.207-2.135.95.95 0 0 1 1.266-1.008 1.626 1.626 0 0 0 1.098-.622c.524-.78 1.44-1.205 1.572-2.342a4.095 4.095 0 0 1 .861-1.548l.564-.03a2.266 2.266 0 0 0 .89-.987l1.068-1.186a3.78 3.78 0 0 0 1.46-.83 26.931 26.931 0 0 1 3.985-3.033l.534-.593-.564.03.534-.593 2.7-2.401c1.79-1.789 2.749-1.462 3.256.96a11.723 11.723 0 0 0 3.51 5.843 17.931 17.931 0 0 0 9.084 4.423 59.796 59.796 0 0 0 11.708.52 182.783 182.783 0 0 0 26.558-3.647 9.441 9.441 0 0 0 2.234-.493l.544-.405c.188-.01.178-.198.169-.386l-.376.02c-1.305.256-2.6.7-3.905.957-3.925.581-7.854 1.163-11.765 1.932a91.264 91.264 0 0 1-12.377 1.023 34.442 34.442 0 0 1-8.877-.478 2.673 2.673 0 0 1-1.147-.317.4.4 0 0 1-.395-.356.656.656 0 0 1 .366-.208l2.254-.117c3.578.001 7.177.378 10.736.004 2.066-.107 4.31-.413 6.366-.709a146.209 146.209 0 0 0 18.122-2.829c.553-.217 1.117-.247 1.67-.464 1.094-.622 1.806-1.412 1.57-2.342Zm-57.945-13.36-.01-.185.198.178Zm48.321 12.921c-.178.198-.366.208-.742.227-2.422.503-5.042.828-7.661 1.153a16.147 16.147 0 0 0-3.168.73l7.513-.391c-.366.207-.741.227-1.107.434a102.765 102.765 0 0 1-18.566 1.534 8.574 8.574 0 0 1-4.369-.714l2.442-.127c-1.528-.485-3.217-.209-4.755-.882-.039-.751.534-.593.92-.425a175.852 175.852 0 0 0 19.92-.85c3.38-.177 6.742-.73 10.3-1.104.024.376-.351.395-.727.415Zm-3.129 1.482a1.13 1.13 0 0 1 .742-.227.691.691 0 0 1 .573.158Zm-22.53 1.36a11.005 11.005 0 0 0 2.462.248l9.016-.47a12.7 12.7 0 0 0 2.61-.513c-4.696.245-9.382.682-14.087.735Zm105.907-6.093c-.237-.93-1.027-1.641-2.51-1.187a7.053 7.053 0 0 0-2.057.296.5.5 0 0 1-.593-.534.656.656 0 0 1 .366-.208c.554-.217 1.117-.247 1.671-.464a3.342 3.342 0 0 0 1.839-.85.687.687 0 0 0 .327-.958.69.69 0 0 0-.79-.712l-1.687.088a23.01 23.01 0 0 1-3.168.73c-4.893.067-9.728 1.261-14.621 1.329-1.879.098-3.945.205-5.813.491a7.123 7.123 0 0 1-2.818.147c-1.69.089-3.39-.011-5.08.077a45.231 45.231 0 0 1-13.276-1.755 4.112 4.112 0 0 0-.969-.515 2.201 2.201 0 0 1-1.606-1.988 3.672 3.672 0 0 1-.257-1.305c-.344-2.995-1.783-5.369-3.239-7.93a2.289 2.289 0 0 0-3.074-1.157c-.929.237-1.66.651-2.402.879-2.937 1.471-5.261 3.853-7.599 6.046-1.622 1.403-3.234 2.994-4.846 4.585a6.603 6.603 0 0 1-1.45 1.018c-.91.612-1.68.276-2.293-.634-.207-.366-.237-.93-.444-1.295a1.326 1.326 0 0 0-2.461-.249 42.567 42.567 0 0 0-2.246 3.884c-2.404 4.458-4.808 8.915-7.207 13.56a4.318 4.318 0 0 0-.614 2.67 10.346 10.346 0 0 1 .592 4.112 1.32 1.32 0 0 0 .84 1.651c.77.337.987.89 1.392 1.43.435 1.108 2.332 1.381 2.857.604a64.117 64.117 0 0 0 6.765-7.51 4.87 4.87 0 0 0 1.207-2.134.95.95 0 0 1 1.266-1.008 1.626 1.626 0 0 0 1.097-.622c.524-.781 1.44-1.206 1.573-2.343a4.095 4.095 0 0 1 .86-1.547l.564-.03a2.266 2.266 0 0 0 .89-.988l1.069-1.186a3.78 3.78 0 0 0 1.46-.83 26.931 26.931 0 0 1 3.984-3.032l.534-.593-.563.03.534-.594 2.7-2.4c1.79-1.79 2.749-1.463 3.256.96a11.723 11.723 0 0 0 3.51 5.843 17.931 17.931 0 0 0 9.083 4.423 59.796 59.796 0 0 0 11.705.519 182.783 182.783 0 0 0 26.558-3.646 9.441 9.441 0 0 0 2.234-.494l.544-.405c.188-.01.178-.197.168-.385l-.375.02c-1.305.256-2.6.7-3.906.957-3.924.581-7.853 1.163-11.764 1.932a91.264 91.264 0 0 1-12.377 1.023 34.442 34.442 0 0 1-8.877-.479 2.673 2.673 0 0 1-1.147-.316.4.4 0 0 1-.395-.356.656.656 0 0 1 .366-.208l2.254-.118c3.578.002 7.176.38 10.735.005 2.066-.108 4.31-.413 6.367-.709a146.209 146.209 0 0 0 18.121-2.83c.554-.216 1.117-.246 1.671-.463 1.094-.618 1.806-1.409 1.57-2.338Zm-57.949-13.357-.01-.184.198.178Zm48.325 12.922c-.178.198-.366.207-.742.227-2.422.503-5.042.828-7.662 1.153a16.147 16.147 0 0 0-3.167.73l7.513-.392c-.366.208-.742.227-1.107.435a102.765 102.765 0 0 1-18.566 1.534 8.574 8.574 0 0 1-4.37-.714l2.443-.127c-1.528-.485-3.217-.209-4.755-.882-.04-.751.534-.593.92-.425a175.852 175.852 0 0 0 19.92-.851c3.38-.177 6.742-.729 10.3-1.103.024.376-.352.395-.727.415Zm-3.129 1.482a1.13 1.13 0 0 1 .742-.227.691.691 0 0 1 .573.158Zm-22.53 1.364a11.005 11.005 0 0 0 2.462.248l9.016-.47a12.7 12.7 0 0 0 2.61-.513c-4.692.24-9.378.677-14.084.73Zm57.805-43.695a1.138 1.138 0 0 0 .622 1.098 2.042 2.042 0 0 0 3.207.02l1.068-1.185a24.22 24.22 0 0 1 3.04-3.172c.366-.208.703-.979.94-.05a9.26 9.26 0 0 0 2.719-2.025 41.07 41.07 0 0 1 3.926-4.16 3.18 3.18 0 0 0 1.217-1.947l.188-.01a.705.705 0 0 1-.059-1.126l1.79-1.789a6.11 6.11 0 0 0 1.75-2.54 1.545 1.545 0 0 0-.256-1.305 1.18 1.18 0 0 0-1.518-.297 13.853 13.853 0 0 0-2.59.888l1.78-1.976c.356-.395.91-.612.693-1.166-.03-.564-.79-.712-1.71-.288a2.673 2.673 0 0 0-1.108.435 31.214 31.214 0 0 0-5.795 4.446 15.165 15.165 0 0 1-2.512 2.391c-2.887 2.41-4.797 5.524-7.1 8.285a1.908 1.908 0 0 0-.466 1.908 5.79 5.79 0 0 1 .174 3.565Zm7.959-2.675c-.178.197-.159.573.217.553.188-.01.366-.207.544-.405l.148-.76-.939.048Zm14.563 40.863c-.178.197-.554.217-.92.425a115.278 115.278 0 0 1-11.28 3.978 129.408 129.408 0 0 0-16.048 6.488 295.838 295.838 0 0 0-11.4 5.304 39.938 39.938 0 0 1-8.335 2.695 2.61 2.61 0 0 1-1.69.088c-.188.01-.198-.178-.207-.366-.198-.178-.01-.187-.01-.187l1.097-.623a52.984 52.984 0 0 0 5.754-1.623c3.148-1.106 5.893-2.567 8.84-3.851 5.883-2.756 11.756-5.699 17.866-7.713 4.993-1.763 9.986-3.535 14.989-5.114.731-.415 1.469-.642 2.205-1.057a1.27 1.27 0 0 0 .692-1.166 1.9 1.9 0 0 0-.82-1.276c-.761-.148-1.344-.494-2.105-.643a5.202 5.202 0 0 0-2.413.69l.752-.038.207.366a.977.977 0 0 1-.731.414 9.312 9.312 0 0 1-2.403.88c-3.698 1.322-7.593 2.467-11.479 3.804a6.403 6.403 0 0 1-2.61.513 5.107 5.107 0 0 1-3.138 1.294 4.915 4.915 0 0 1-1.47.642 2.136 2.136 0 0 1 1.47-.642 4.985 4.985 0 0 0 .88-1.176 13.11 13.11 0 0 0-3.51 1.313c-2.392 1.067-4.983 1.955-7.158 3.58.564-.03 1.117-.247 1.68-.277a3.714 3.714 0 0 1-2.57 1.265l.89-.988.178-.198a36.802 36.802 0 0 0-8.632 4.217l1.499-.078a21.96 21.96 0 0 1-8.108 3.437c-.188.01-.563.03-.583-.347-.01-.187.356-.395.534-.592l-.555.029c-.376.02-.574-.159-.583-.347-.208-.366.158-.573.346-.583.178-.197.366-.207.732-.415a88.686 88.686 0 0 0 12.724-5.184 138.262 138.262 0 0 1 20.457-8.601 112.55 112.55 0 0 1 13.535-4.097.96.96 0 0 0 .9-.8 1.007 1.007 0 0 0-.988-.89l-1.315.068c-3.905.957-7.661 1.153-11.34 2.852-1.097.622-2.392 1.067-3.49 1.685a19.839 19.839 0 0 1-4.45 1.362 28.927 28.927 0 0 0-8.67 3.466 30.014 30.014 0 0 1-4.222 2.104c-2.759 1.274-5.715 2.37-8.671 3.466l-2.225.681c-.563.03-.969-.514-.8-.9a4.647 4.647 0 0 1 .663-1.73 40.353 40.353 0 0 1 3.145-4.684 2.868 2.868 0 0 0 1.198-2.322c-.266-1.49.614-2.67 1.302-3.835a18.724 18.724 0 0 0 1.77-2.164 3.38 3.38 0 0 0 .664-1.73 1.8 1.8 0 0 0-.662-1.849 1.4 1.4 0 0 0-1.7-.1c-.366.208-.554.218-.583-.346-.01-.187.168-.385.158-.573.505-1.156.11-1.508-1.205-1.44a5.361 5.361 0 0 0-2.551 1.636c-1.968 1.986-3.541 4.328-5.49 6.69a80.613 80.613 0 0 0-6.974 10.723 7.025 7.025 0 0 0-.655 5.496c.04.751.266 1.489.296 2.056.828 5.042 4.742 7.852 9.774 6.836a.184.184 0 0 0 .178-.198c2.412-.691 4.637-1.372 6.852-2.241 3.322-1.304 6.634-2.795 9.758-4.276a102.772 102.772 0 0 1 14.189-6.014c5.734-1.995 11.469-3.99 17-6.35.366-.207.93-.236 1.275-.82.168-.389-.767-.34-1.7-.103Zm-5.83-3.463c-.742.227-1.48.454-2.038.672l2.047-.484Zm-2.038.672c-.741.227-1.295.444-2.036.671Zm-4.073 1.342a11.563 11.563 0 0 0 2.037-.671 3.792 3.792 0 0 0-2.037.667Zm-3.708 1.136a8.56 8.56 0 0 0 3.708-1.136 12.28 12.28 0 0 0-3.708 1.132Zm-3.51 1.313a6.193 6.193 0 0 0 3.51-1.313 8.791 8.791 0 0 0-3.51 1.309Zm0 0a6.933 6.933 0 0 0-3.148 1.106l2.067-.108a4.988 4.988 0 0 0 1.081-1.002Zm-.89.988Zm-23.037 9.678 1.661-.652-.188.01Zm0 0a4.427 4.427 0 0 0-1.48.454c.55-.221 1.114-.25 1.48-.458Zm110.728-14.82c-.395-.356-.415-.732-.068-1.315a1.617 1.617 0 0 0-.32-2.44 3.47 3.47 0 0 1-1.057-2.205c-.068-1.314-.85-1.839-2.144-1.39l-1.661.651c-1.84.85-3.679 1.695-5.527 2.36l-8.652 3.842c-4.963 2.331-9.917 4.85-15.108 6.44l-.563.029a51.162 51.162 0 0 1-9.076 2.922c-3.178.542-6.535 1.094-9.718 1.449a21.47 21.47 0 0 1-7-.577 3.78 3.78 0 0 1-1.537-.673 1.146 1.146 0 0 1 .09-1.888 3.487 3.487 0 0 1 1.295-.444c2.956-1.096 5.734-1.995 8.305-3.259.366-.207.93-.237 1.48-.454a.184.184 0 0 1 .197.178l.02.376-.722.603a28.074 28.074 0 0 1-7.367 3.21 2.385 2.385 0 0 0-1.117.246c-.188.01-.553.217-.544.405.02.376.396.356.584.346a6.403 6.403 0 0 0 1.868-.286 67.843 67.843 0 0 0 11.203-5.481 4.873 4.873 0 0 0 1.968-1.986 16.702 16.702 0 0 1 2.79-4.29 6.554 6.554 0 0 0 1.593-5.545 20.04 20.04 0 0 0-3.687-9.224 5.84 5.84 0 0 0-5.406-2.543c-3.187.355-6.155 1.075-8.671 3.466a58.161 58.161 0 0 0-7.31 7.915 19.209 19.209 0 0 0-3.87 12.444c.108 2.066.226 4.32.521 6.377a15.044 15.044 0 0 0 4.574 8.236 15.332 15.332 0 0 0 10.55 3.593 66.647 66.647 0 0 0 13.643-2.03c7.247-1.881 14.06-4.878 20.872-7.87a172.41 172.41 0 0 0 16.502-8.583 5.543 5.543 0 0 1 2.393-1.067 2.673 2.673 0 0 0 1.108-.434c-.208-.366-.228-.742-.435-1.108Zm-53.398-16.24c.553-.217.731-.414.138-.948-.01-.188.159-.574.347-.583a7.93 7.93 0 0 1 3.539-.75c.198.178.385.168.395.356.208.366-.168.385-.346.583-.188.01-.554.217.02.376.187-.01.563-.03.583.346l-.544.405a1.7 1.7 0 0 0-.93.237 22.187 22.187 0 0 0-3.717.947 20.382 20.382 0 0 0-3.49 1.685c.85-1.735 2.334-2.19 4.005-2.653Zm5.277 3.68a.582.582 0 0 1-.168.386.691.691 0 0 1-.554.217 10.705 10.705 0 0 0-5.34 2.35 3.026 3.026 0 0 1 2.127-2.559 5.214 5.214 0 0 1 3.727-.76.656.656 0 0 1 .208.366Zm-8.168 5.889a19.078 19.078 0 0 0 2.353-1.818 9.338 9.338 0 0 1 4.035-2.094.886.886 0 0 1 1.136.129 1.607 1.607 0 0 1 .069 1.315 14.306 14.306 0 0 1-3.56 3.952 15.966 15.966 0 0 1-4.045 1.906c-.741.227-1.136-.129-1.195-1.256-.233-.933.297-1.522 1.207-2.134Zm5.504 4.42c-.346.584-.91.613-1.46.83l-.355.396s-.178.197-.188.01c-.188.01-.198-.179.178-.198a.656.656 0 0 1 .366-.208c.356-.395.702-.978 1.265-1.007-.01-.188.188-.01.188-.01Zm-9.937 4.475c-.02-.376.346-.583.722-.603a16.551 16.551 0 0 1 2.769-1.086c.178-.198.375-.02.385.168a.582.582 0 0 1-.168.385l-.356.396a.656.656 0 0 1 .207.366.184.184 0 0 0-.178.197 11.491 11.491 0 0 1-2.56 1.452c-.377.02-.92.425-1.138-.129-.207-.366-.039-.751.317-1.146Zm3.361-.552-.01-.188s-.187.01.014.187Zm9.6-.125-.01-.188.187-.01Zm47.084-.009c.376-.02.761.149 1.137.129a2.385 2.385 0 0 0-1.137-.129Zm-17.313 7.496c-4.775 2.32-9.749 4.464-14.732 6.419a60.216 60.216 0 0 1-12.615 3.676 46.3 46.3 0 0 1-8.838.273.656.656 0 0 1-.385-.169c-.02-.375.158-.573.346-.583.939-.049 1.868-.286 2.62-.325a65.952 65.952 0 0 0 19.001-4.009c4.242-1.724 8.493-3.268 12.715-5.372 1.286-.632 2.956-1.096 4.43-1.734a.886.886 0 0 1 1.137.129 13.133 13.133 0 0 1-3.679 1.695ZM820.782 115a109.498 109.498 0 0 0 11.133-3.218c.415.732.039.751-.337.771l-2.195 1.249.188-.01a.582.582 0 0 0 .386.168c.197.178.207.366.02.376-.179.197-.357.395-.545.405a51.637 51.637 0 0 1-14.889 3.414.751.751 0 0 1-.77-.337 34.716 34.716 0 0 1 4.28-.977c-3.015-.03-5.971 1.066-9.045-.092 4.113-.596 8.047-.985 11.774-1.745Zm3.42.575c2.047-.484 3.728-.76 5.181-1.773l-2.6.7a6.379 6.379 0 0 0-2.58 1.073Zm-2.61.513-.197-.178-.178.197.375-.02Zm94.098-15.831a3.78 3.78 0 0 1-.83-1.46c-.661-1.849-2.015-2.531-3.913-2.81a14.141 14.141 0 0 0-2.817.148c-4.864.63-9.738 1.073-14.375 2.445a8.519 8.519 0 0 1-2.976.72 53.883 53.883 0 0 0-10.763 3.01 20.817 20.817 0 0 1-4.815 1.57 13.177 13.177 0 0 0-2.6.701c-.741.227-1.45 1.018-2.432.316-.602-.722-.266-1.49-.117-2.254-.02-.376.158-.574.138-.95l.188-.01c.188-.009.366-.207.554-.216l-.751.039a5.803 5.803 0 0 0-.187-3.569l-.01-.188a11.575 11.575 0 0 0-1.54-4.251c-1.047-2.017-2.816-3.432-4.406-5.044a3.158 3.158 0 0 0-3.608-.565l-2.505 20.656a12.675 12.675 0 0 1-4.965 5.91 111.15 111.15 0 0 0-9.424 7.083l-3.254 2.615c-.356.395-.91.612-1.265 1.007-3.001 3.924-7.58 6.423-10.38 10.336.01.188-.179.197-.357.395-4.124 3.982-8.06 7.954-10.82 12.807a16.268 16.268 0 0 1-1.217 1.947 37.306 37.306 0 0 0-4.837 8.351c-.842 1.927-1.683 3.855-2.534 5.594a25.005 25.005 0 0 0-2.278 10.478 13.032 13.032 0 0 0 .76 3.727l1.925 4.42a6.515 6.515 0 0 0 3.963 3.748 4.714 4.714 0 0 1 1.354.683 3.749 3.749 0 0 0 3.954-.018 37.23 37.23 0 0 0 7.288-4.712 79.946 79.946 0 0 0 11.593-12.279 10.749 10.749 0 0 0 1.91-3.113l-1.098.622c-.188.01-.198-.178-.208-.365.347-.583.722-.603 1.305-.257 1.05-1.557 2.67-2.964 3.324-4.882-.425-.92.11-1.508.831-2.115.544-.405 1.078-.998 1.05-1.557.732-3.994 3.205-7.136 4.917-10.428.168-.385.534-.592.712-.79a6.738 6.738 0 0 1 .643-2.105c1.188-2.51 2.375-5.021 3.572-7.344l1.068-1.186c.02.376-.326.96.079 1.5a12.163 12.163 0 0 0 1.533-3.094c-.01-.188-.02-.376-.207-.366a.582.582 0 0 0-.366.207 2.601 2.601 0 0 1-.722.603 7.86 7.86 0 0 1 .653-1.918 185.425 185.425 0 0 1 3.87-8.865 4.119 4.119 0 0 1 2.324-2.382 6.754 6.754 0 0 0 1.813-1.413.854.854 0 0 0-.049-.939 15.692 15.692 0 0 1 2.176-1.616 99.145 99.145 0 0 1 9.393-4.069 161.597 161.597 0 0 1 15.572-4.768c2.046-.483 4.083-1.155 5.942-1.628a82.384 82.384 0 0 1 11.715-2.872 9.96 9.96 0 0 1 4.706-.057 2.673 2.673 0 0 0 1.146.317c1.137.129 1.49-.266 1.622-1.403a4.58 4.58 0 0 0-.967-4.097Zm-54.861-8.25c.385.17.583.347.405.545.02.375-.346.583-.712.79l-.315-2.432c.929-.237 1.305-.256 1.324.12.026.563-.336.774-.702.978Zm8.503 18.58a8.176 8.176 0 0 1 1.276-.82l-.751.039a.656.656 0 0 1-.386-.168.691.691 0 0 1 .158-.574 18.325 18.325 0 0 0 2.018-1.047l8.146-2.685a234.823 234.823 0 0 1 25.646-6.612c1.127-.059 2.235-.493 3.391.011-1.45 1.018-2.976.72-4.44 1.55l-1.69.089c-1.117.246.218.553-.148.76a17.75 17.75 0 0 1-1.661.652l-8.552 2.142a203.08 203.08 0 0 0-21.297 6.95 3.544 3.544 0 0 0-1.479.454.4.4 0 0 1-.395-.356.582.582 0 0 1 .164-.386Zm1.774-9.322-.178.198.188-.01Zm34.418-.855-.188.01c-.376.02-.574-.158-.761-.148l.751-.04c.192-.01.39.168.202.178Zm-6.545.907-.564.03c-.187.01-.365.207-.553.217l.563-.03c.192-.01.37-.207.558-.217Zm-3.717.948a5.792 5.792 0 0 0 2.412-.691 9.331 9.331 0 0 0-2.408.69Zm-2.6.7a9.331 9.331 0 0 0 2.412-.69 11.486 11.486 0 0 0-2.409.69Zm-.188.01-.368.02a.184.184 0 0 0-.178.197l.188-.01a.656.656 0 0 0 .362-.207Zm-3.906.957-.187.01a.656.656 0 0 1-.366.207l.375-.02c.38-.019.37-.207.182-.197Zm22.599-.05c-.188.01-.366.208-.742.228-8.393 1.568-16.54 4.253-24.703 6.563a110.434 110.434 0 0 0-17.193 6.17c-.742.228-1.46.83-2.413.692l-.207-.366c.178-.198.346-.583.534-.593l2.195-1.245a94.63 94.63 0 0 1 13.852-5.243c6.496-1.842 12.991-3.691 19.497-5.35 2.6-.7 5.398-1.223 8.008-1.736a2.037 2.037 0 0 1 1.137.13.4.4 0 0 1 .395.355Zm-23.152.267c-.742.228-1.295.445-2.037.672Zm-4.45 1.363a9.92 9.92 0 0 0 2.225-.681 5.008 5.008 0 0 0-2.22.68Zm-2.234.493a8.004 8.004 0 0 0 2.047-.483Zm-1.849.662a5.491 5.491 0 0 0 1.671-.464 5.491 5.491 0 0 0-1.667.463Zm-29.155 15.082a12.97 12.97 0 0 1-5.978 4.455l-.02-.375a17.346 17.346 0 0 0-1.45 1.017l.94-.049a1.422 1.422 0 0 1-1.47.642l-1.45 1.017c.416.732.05.94-.504 1.157a4.095 4.095 0 0 1-1.45 1.017l-.029-.564-.94.05a5.978 5.978 0 0 1 1.781-1.977 76.885 76.885 0 0 1 10.478-8.461c.544-.405 1.098-.622 1.642-1.027l.751-.04c-.51 1.35-.63 2.674-2.3 3.138Zm-.939.049.94-.05a4.112 4.112 0 0 1 .514-.968 6.603 6.603 0 0 0-1.454 1.018Zm-4.529 3.442-.01-.192-.534.593Zm3.597 3.956a7.363 7.363 0 0 1-1.8 1.597 131.04 131.04 0 0 0-10.602 9.782c-1.968 1.986-3.738 4.15-5.706 6.136-.208-.366-.405-.544-.425-.92a111.341 111.341 0 0 1 14.85-14.9 13.826 13.826 0 0 1 3.08-2.425.691.691 0 0 1 .573.158Zm-9.016.47.94-.049-.03-.567Zm-1.66.652a4.114 4.114 0 0 0 .612.91 2.37 2.37 0 0 1-2.413.69 2.501 2.501 0 0 1 1.8-1.604Zm-12.829 14.038c1.237-1.567 2.483-2.955 3.729-4.338a20.6 20.6 0 0 0 1.77-2.164l.535-.593a19.702 19.702 0 0 0 1.39-2.145c.89-.988 1.583-2.154 3.07-2.608l.049.939a.184.184 0 0 0-.178.197.582.582 0 0 0 .207.366c-2.512 2.392-4.826 4.96-7.14 7.53l-2.849 3.162a9.204 9.204 0 0 1-2.324 2.382 5.276 5.276 0 0 1 1.741-2.728Zm21.12-10.331c-.178.197-.366.207-.356.395-.04 2.827-1.633 4.794-2.834 7.117a131.929 131.929 0 0 1-6.303 12.763 25.024 25.024 0 0 1-2.443 3.706c-1.217 1.947-2.81 3.914-4.016 6.048a21.386 21.386 0 0 1-2.66 3.153c-2.513 2.39-4.827 4.96-7.54 7.173l-1.078.998a4.273 4.273 0 0 1-3.896 1.145c-.761-.148-.959-.326-.81-1.087.653-1.918.733-3.994 2.345-5.585l.078 1.499a2.123 2.123 0 0 0 .456-2.095l.861-1.548.188-.01a.787.787 0 0 1-.069-1.315 3.301 3.301 0 0 1 .9-.8 1.728 1.728 0 0 1 .278-1.898c.356-.395.702-.978 1.058-1.374l-.363.02c.168-.386.178-.198.375-.02a12.95 12.95 0 0 0 1.935-2.55c4.857-7.975 11.088-14.892 17.714-21.453 1.79-1.789 3.6-3.202 5.4-4.802a.691.691 0 0 1 .553-.218c.386.165.217.55.227.738Zm-23.049 13.068a28.83 28.83 0 0 1-5.074 7.422 20.16 20.16 0 0 1 5.074-7.422Zm5.367 1.792-.178.198c.01.187-.178.197-.168.385l-.02-.376c.179-.197.169-.385.366-.207Zm-.534.593a.4.4 0 0 1-.356.395l-.02-.376Zm-.346.583a3.944 3.944 0 0 1-1.049 1.557 12.959 12.959 0 0 1 .486-1.528Zm10.584 7.923c.01.188-.178.198-.366.207.188-.01.178-.197.168-.385l.178-.198c.198.178.198.178.02.376Zm-16.341.853.01.188-.198-.178Zm15.124 1.094a4.096 4.096 0 0 1 .861-1.548 2.584 2.584 0 0 1-.865 1.548Zm-1.909 3.113a3.374 3.374 0 0 1 .87-1.364 5.716 5.716 0 0 1-.87 1.364Zm-2.463 3.334a5.51 5.51 0 0 1 2.285-3.132 5.51 5.51 0 0 1-2.289 3.128Zm-.86 1.548a38.451 38.451 0 0 1-6.41 7.115 3.782 3.782 0 0 1 .674-1.538c2.136-2.372 4.075-4.921 6.409-7.115a3.78 3.78 0 0 1-.674 1.538Zm3.22 3.975.486-1.528c.178-.197.356-.395.346-.583l.188-.01a2.161 2.161 0 0 1-1.02 2.121Zm-19.095 2.127.485-1.528a2.672 2.672 0 0 1 .317-1.147l-.505 1.157a5.815 5.815 0 0 1-.297 1.518Zm15.742 2.192a59.951 59.951 0 0 1-9.72 8.606 8.562 8.562 0 0 1-3.491 1.685c-.188.01-.564.03-.584-.346a.582.582 0 0 1 .169-.386 2.601 2.601 0 0 1 .722-.603c4.202-2.48 7.618-5.67 11.214-8.872a4.658 4.658 0 0 1 2.551-1.636 10.505 10.505 0 0 1-.86 1.552Zm-15.311 6.073c-.198-.179-.217-.554-.415-.732-.207-.366-.415-.732.13-1.137 2.194-1.245 4.162-3.23 6.565-4.11l-2.314 2.57a1.7 1.7 0 0 1 .948.139 6.88 6.88 0 0 1-4.914 3.27Z" opacity=".1"/><path data-name="パス 585" d="M12.662 252.294a33.544 33.544 0 0 1-9.747-1.633c-4.996-1.817-4.62-4.379.84-5.721 17.084-4.205 40.651-8.429 70.048-12.567 27.799-3.914 60.808-7.753 98.105-11.407 72.581-7.117 158.78-13.298 249.275-17.898 92.601-4.703 184.51-7.461 265.794-7.965 43.191-.27 83.151.096 118.77 1.09 37.944 1.057 71.247 2.838 98.988 5.29 7.276.643 12.078 2.921 10.723 5.082s-8.35 3.4-15.628 2.754c-26.012-2.3-57.547-3.978-93.725-4.985-34.623-.966-73.578-1.321-115.787-1.058-80.054.507-170.684 3.222-262.09 7.868-89.324 4.536-174.311 10.636-245.773 17.644-74.11 7.258-129.647 15.12-160.605 22.733a35.043 35.043 0 0 1-9.188.773Z" opacity=".1"/></g></svg>