<svg xmlns="http://www.w3.org/2000/svg" width="567.42" height="161.919"><defs><linearGradient id="a" x1=".396" y1="-.297" x2=".5" y2="1" gradientUnits="objectBoundingBox"><stop offset="0" stop-color="#e53729"/><stop offset=".69" stop-color="#ff652c"/><stop offset="1" stop-color="#ff652c"/></linearGradient></defs><g data-name="グループ 340" opacity=".14"><path data-name="パス 596" d="M79.652 67.555a18.993 18.993 0 0 0-2.285-5.978 11.183 11.183 0 0 0-6.536-5.08 18.244 18.244 0 0 0-2.965-.624c-.899-.186-1.878-.277-2.777-.46a3.549 3.549 0 0 0-.964.085 6.173 6.173 0 0 1-2.183.279c-1.06.004-2.191.191-3.243.283-1.84.16-3.638.848-5.475 1.008l-.087.008c-1.029.355-2.057.71-3.182.98a15.363 15.363 0 0 1-3.26 1.08 1.272 1.272 0 0 0-.599.229 22.048 22.048 0 0 0-3.908 1.754 1.25 1.25 0 0 1-.51.221 10.387 10.387 0 0 0-3.136 1.51l-.853.34c-.336.206-.766.332-1.189.545-2.282 1.17-4.453 2.597-6.72 3.943a31.775 31.775 0 0 0-4.392 3.293 13.113 13.113 0 0 0-1.638 1.468 11.466 11.466 0 0 1-1.782 1.834 14.244 14.244 0 0 0-2.65 2.968 20.939 20.939 0 0 0-2.41 3.743 10.732 10.732 0 0 0-1.275 4.615 8.475 8.475 0 0 0 .13 1.494c.34.853.6 1.802.85 2.663a5.758 5.758 0 0 0 2.372 2.883 8.735 8.735 0 0 0 3.285 1.218 14.311 14.311 0 0 0 6.66-.582 2.311 2.311 0 0 0 1.261-.728c-.773.244-1.554.4-2.327.645-.088.007-.183-.073-.359-.057l-.095-.08.08-.096a.948.948 0 0 1 .682-.236 6.885 6.885 0 0 0 2.137-.805c.168-.103.248-.198.232-.373a.667.667 0 0 0-.366-.145 6.657 6.657 0 0 1-1.322.027c-.263.023-.518.134-.796-.018.137-.454.51-.221.674-.324l.175-.015a.307.307 0 0 1 .168-.103c-.015-.176-.11-.256-.198-.248-1.163-.163-2.31-.151-3.464-.227a18.25 18.25 0 0 1-5.445-.672 1.63 1.63 0 0 1-1.315-1.916 7.11 7.11 0 0 0 .231-2.405 2.799 2.799 0 0 1 .194-.811 3.684 3.684 0 0 1 .842-1.487 3.13 3.13 0 0 1 1.104-1.509l-.096.008a2.767 2.767 0 0 1 1.363-1.624c-.236-.682.26-1.082.77-1.303a7.265 7.265 0 0 0 1.82-1.395c1.31-1.175 2.62-2.349 3.946-3.348a74.05 74.05 0 0 1 10.88-6.87 78.67 78.67 0 0 1 16.865-6.065 40.93 40.93 0 0 1 6.454-.918 14.35 14.35 0 0 1 3.989.182c1.17.25 2.34.498 3.43.848a11.556 11.556 0 0 1 4.05 1.942 8.434 8.434 0 0 1 3.063 7.768 23.49 23.49 0 0 1-2.56 8.082c-1.051 2.123-2.277 4.26-3.511 6.311l-.225.461c-1.44 1.716-2.776 3.598-4.12 5.394-.785 1.128-1.664 2.176-2.544 3.224s-1.767 2.009-2.643 3.057l-1.984 2.557a6.198 6.198 0 0 1-.735.683 15.539 15.539 0 0 0-2.868 2.546 17.593 17.593 0 0 0-2.845 2.81 4.987 4.987 0 0 1-1.078.796 4.05 4.05 0 0 0-1.501 1.014 6.083 6.083 0 0 1-1.805 1.575 16.182 16.182 0 0 0-1.798 1.662 7.552 7.552 0 0 1-1.916 1.311l-1.082.713a22.566 22.566 0 0 0-3.394 2.592l-.502.309a17.707 17.707 0 0 0-2.084 1.418 21.28 21.28 0 0 1-3.017 1.853c-1.177.721-2.358 1.358-3.52 2.162a1.981 1.981 0 0 1-2.446.302 2.864 2.864 0 0 0 .244-1.257 7.51 7.51 0 0 1 1.023-3.357l.21-.636c.071-.183.24-.286.43-.126a14.853 14.853 0 0 0 1.214-3.285l-.26.022.214-.548.008.088q.108-.275.262-.023l-.007-.088a5.028 5.028 0 0 0 .552-.75.415.415 0 0 0-.133-.519c-.199-.247-.214-.423.129-.54a1.786 1.786 0 0 0 .96-1.144 3.348 3.348 0 0 0 .323-1.353c.05-.446.823-.69.864-1.224a2.392 2.392 0 0 1-.788.07.8.8 0 0 1 .21-.637 1.183 1.183 0 0 0 .471-.66l-.263.024a.165.165 0 0 1 .263-.023 5.041 5.041 0 0 1 .88-1.053.924.924 0 0 1 .369-.827l.046.526a2.876 2.876 0 0 0 .849-1.398c.065-.271-.03-.351-.206-.336a3.566 3.566 0 0 1 .37-.827.323.323 0 0 1 .27.065l-.008-.088a1.915 1.915 0 0 0 .377-.735c-.087.008-.27-.065-.198-.248a1.451 1.451 0 0 1 .62-.937l-.186.9a16.359 16.359 0 0 0 1.77-2.98.948.948 0 0 0 .115-.713 1.566 1.566 0 0 1 .567-1.555.659.659 0 0 0 .126.43c.095.08.255-.11.335-.205.597-1.2 1.302-2.322 1.907-3.434a2.3 2.3 0 0 0 .202-.72c-.278-.152-.278-.152-.046-.526l.008.088a1.28 1.28 0 0 1 .457-.835 1.367 1.367 0 0 1 .465-.743 2.117 2.117 0 0 1-.465.743 2.077 2.077 0 0 1-.457.835l.038.438a8.463 8.463 0 0 0 1.786-2.805l-.503.309c.073-.183.057-.358.137-.454.153-.278.328-.293.519-.133a4.88 4.88 0 0 1 .464-.743.668.668 0 0 1 .194-.812l-.087.008a3.199 3.199 0 0 1 1.115-1.527l.263-.023a3.629 3.629 0 0 0 .776-1.215 6.165 6.165 0 0 1 1.463-2.42c.152-.278.327-.294.59-.316.16-.191.328-.294.4-.477l.08-.095c-.183-.073-.198-.248-.126-.43.32-.382.644-.675.967-1.057l.046.526a5.041 5.041 0 0 1 .88-1.048l-.526.046 1.074-1.86a4.534 4.534 0 0 1 1.394-1.27.323.323 0 0 1 .255-.11.273.273 0 0 1 .103.167l-.536.93a4.147 4.147 0 0 1 1.268-.64c.518-.134.583-.404.537-.93a4.96 4.96 0 0 0-.442-1.021c-.889-1.07-1.247-1.127-2.508-.4a14.02 14.02 0 0 0-3.035 2.65c-1.208 1.342-2.232 2.756-3.44 4.098a35.372 35.372 0 0 0-2.688 3.59 60.71 60.71 0 0 0-3.66 5.618 57.866 57.866 0 0 0-3.217 5.667 16.558 16.558 0 0 1-1.226 2.138c-1.016 1.502-1.652 3.323-2.573 4.905a24.235 24.235 0 0 0-1.272 2.672c-.434 1.097-.955 2.203-1.477 3.308a52.37 52.37 0 0 0-2.288 5.056c-.353 1.002-.62 1.997-.974 2.995a17.174 17.174 0 0 0-1.06 7.069.59.59 0 0 1-.202.72 9.776 9.776 0 0 1-2.267 1.346 21.719 21.719 0 0 0-2.464 1.098 10.634 10.634 0 0 1-2.13.889c-1.555.4-3.014.881-4.568 1.282a11.995 11.995 0 0 1-3.96.169c-1.074-.171-1.455-.49-1.638-1.534a4.282 4.282 0 0 1-.18-1.044l-.084-.964c-.113-.332-.223-.583-.574-.552a.582.582 0 0 1-.66-.472c-.198-.248-.365-.145-.613.053a3.079 3.079 0 0 0-.327 2.32 9.58 9.58 0 0 0 .935 2.656 5.549 5.549 0 0 0 2.904 2.925 7.967 7.967 0 0 0 4.283.51 23.339 23.339 0 0 0 5.364-1.264c2.058-.71 4.115-1.42 6.07-2.297a110.635 110.635 0 0 0 11.054-5.91 118.003 118.003 0 0 0 11.176-7.511 61.903 61.903 0 0 0 3.817-2.806c1.733-1.388 3.37-2.855 5.1-4.335q2.824-2.494 5.362-5.233c2.263-2.405 4.437-4.802 6.51-7.368a3.399 3.399 0 0 0 .837-1.574 1.486 1.486 0 0 1-.423.214 9.672 9.672 0 0 1 2.136-2.836l.24-.286.008.088a24.152 24.152 0 0 1 2.467-4.101l.415-.301a2.455 2.455 0 0 0 1.425-1.89 1.456 1.456 0 0 0 .338-1.178l.08-.096c-.046-.525.362-.914.77-1.303l.095.08a.744.744 0 0 1-.054-.613 13.863 13.863 0 0 1 1.134-3.19 11.432 11.432 0 0 0 1.225-4.169 19.916 19.916 0 0 0-.132-7.582Zm-9.888-10.086a.307.307 0 0 1-.072.183 1.5 1.5 0 0 1-.606.142 2.864 2.864 0 0 1-1.258-.244 2.551 2.551 0 0 0-1.615-.3c.023.263-.057.358-.32.381-.884-.011-1.76.065-2.645.054a23.49 23.49 0 0 0-3.505.307q-2.876.383-5.738 1.03a17.615 17.615 0 0 1-2.072.535 2.687 2.687 0 0 1-1.673.058c-.343.118-.69.149-1.036.267-.088.008-.343.118-.335.206-.034.621-.568.58-.91.698a46.182 46.182 0 0 0-5.559 2.075 5.787 5.787 0 0 1-1.284.465c-.007-.088.152-.278.137-.453a.522.522 0 0 1 .766-.332c.255-.11.598-.229.94-.347.089-.008.176-.016.073-.183l-.095-.08a7.877 7.877 0 0 1 1.955-.873 69.551 69.551 0 0 1 9.185-3.01c1.722-.504 3.554-.753 5.292-1.08a32.015 32.015 0 0 1 6.511-.309c.98.091 1.966.27 2.942.361a2.071 2.071 0 0 1 .914.362Zm-12.855.421.007.088.438-.038c.088-.008.271.064.256-.111l-.697.06Zm8.081-.53 1.14-.099a1.074 1.074 0 0 0-1.144.096Zm1.227-.107-.088.008ZM55.27 58.298c-.088.008-.08.095.007.088s.08-.095.168-.103l-.088.008Zm-1.818.424-.263.023c-.087.008-.167.103-.342.118l.35-.03c.083-.012.163-.107.25-.115Zm-1.722.504a2.435 2.435 0 0 0 1.117-.363Zm-1.47.393a3.005 3.005 0 0 0 1.47-.393 7.552 7.552 0 0 0-1.47.389Zm17.05.096a40.411 40.411 0 0 0-7.998.433 40.232 40.232 0 0 0-6.32 1.436c-1.81.511-3.7 1.118-5.509 1.629l-1.531.664a17.712 17.712 0 0 1-2.991 1.144 2.164 2.164 0 0 0-.933.435 10.002 10.002 0 0 1-2.53 1.369c-.167.103-.343.118-.446-.05-.007-.087.073-.183.153-.278a4.833 4.833 0 0 1 2.819-1.041 2.88 2.88 0 0 1 1.573-1.197 91.806 91.806 0 0 1 7.875-2.896 64.842 64.842 0 0 1 7.086-1.767 33.187 33.187 0 0 1 7.822-.418 3.742 3.742 0 0 0 .98.09c.182.073.533.042.548.218-.057.358-.415.3-.598.229Zm-24.442 2.223.023.263-.095-.08c-.095-.08-.008-.087.072-.183Zm-7.15 4.069a3.086 3.086 0 0 1-.659.499c-.998.705-2.09 1.33-3.097 1.948a4.09 4.09 0 0 0-.765.332c.064-.27.232-.373.48-.572 1.093-.625 2.186-1.25 3.272-1.963.255-.11.518-.134.773-.244l-.023-.263.918-.61.008.087a5.446 5.446 0 0 0 1.611-.759 6.309 6.309 0 0 1 2.137-.804c-.255.11-.407.388-.658.499l-3.391 1.709c-.255.11-.438.038-.606.14Zm-.17 3.105-1.947.965a1.215 1.215 0 0 1-.327.294l-.092.008c-.095-.08-.103-.168.073-.183l.342-.119a1.492 1.492 0 0 1 1.295-1.349 10.158 10.158 0 0 1 1.387-.298 1.915 1.915 0 0 1-.731.682Zm-8.854 2.805a14.803 14.803 0 0 1 4.327-3.027l-.08.095a22.673 22.673 0 0 1-4.247 2.932Zm1.662 1.797a4.91 4.91 0 0 1 .377-.735l.503-.309.941-.347a4.555 4.555 0 0 1-1.82 1.391Zm-.903.782c-.008-.088.08-.096.072-.183l.263-.023-.16.19Zm-4.279.55s-.08.095-.087.008c-.088.007-.088.007.08-.096a.273.273 0 0 0 .167-.103Zm29.892-.488a2.973 2.973 0 0 1 1.006-.618c.175-.015.342-.118.445.05a.392.392 0 0 1-.129.54.086.086 0 0 1-.08.096 11.973 11.973 0 0 0-2.643 2.085 2.205 2.205 0 0 0-.583.404 11.379 11.379 0 0 1 1.984-2.557Zm1.17 2.285c-.087.008-.167.103-.247.199.088-.012.168-.107.248-.199Zm-.807.866a.273.273 0 0 0 .168-.107c.08-.096.072-.183.152-.279l-.248.199c-.087.007-.08.095-.072.183Zm-2.071 2.565.24-.286c-.08.095-.16.19-.248.198Zm-3.646.76a2.332 2.332 0 0 1 .487-.484c-.16.19-.232.373-.487.484a2.645 2.645 0 0 1-.857 1.31 2.645 2.645 0 0 1 .86-1.318Zm3.154-.276-.16.19.008.088c-.004-.092.076-.187.156-.286Zm-5.748 3.946c.153-.278.225-.461.48-.572a1.565 1.565 0 0 1 .613-1.024 1.986 1.986 0 0 1-.613 1.024l-.48.572c-.072.183-.05.446-.304.557-.164.098-.012-.18.308-.561Zm-5.106 8.213a6.37 6.37 0 0 1 .818-1.75c.225-.46.37-.826.59-1.287l1.364-1.624a9.596 9.596 0 0 1-.442 1.01c-.45.922-.994 1.764-1.443 2.686a2.34 2.34 0 0 1-.887.96 2 2 0 0 1-.842 1.487 2.3 2.3 0 0 1 .842-1.482Zm5.295-4.083c-.008-.088.072-.183.152-.278l-.24.286Zm29.928-2.085-.16.19a.307.307 0 0 1 .076-.183c-.015-.175.073-.183.168-.103Zm-.346 1.09c-.08.095-.073.182-.16.19a.086.086 0 0 1 .095.08c.08-.095.168-.103.16-.19.08-.096-.008-.088-.095-.08Zm-.986 1.852a1.92 1.92 0 0 0 .312-.469l-.008-.088-.087.008Zm-.945 1.318c.008.088-.072.183-.152.279l.24-.286Zm-.152.279a9.596 9.596 0 0 0-.918.61l.015.175a1.844 1.844 0 0 0 .903-.785ZM39.179 94.49a1.577 1.577 0 0 1-.384.651.91.91 0 0 1 .384-.651Zm24.11 4.074a.529.529 0 0 1-.344.119 36.005 36.005 0 0 1 3.767-4.391 2.929 2.929 0 0 1-.217.548 32.404 32.404 0 0 1-3.207 3.724Zm-25.96-.999c-.008-.087.08-.095.087-.007.088-.008 0 0 .008.087-.088.008-.08.096-.168.103a.307.307 0 0 0 .073-.183Zm-.666 1.471a1.388 1.388 0 0 1 .377-.735 1.915 1.915 0 0 1-.377.735Zm-.16.191Zm25.083 1.076a5.45 5.45 0 0 1 1.12-1.335 1.742 1.742 0 0 1-1.12 1.335 9.64 9.64 0 0 1-3.078 3.178 11.714 11.714 0 0 1 3.078-3.178Zm-27.874 4.378a1.368 1.368 0 0 1 .465-.743 2.499 2.499 0 0 1 .978-1.948 5.023 5.023 0 0 1-.979 1.94 1.367 1.367 0 0 1-.465.743 2.178 2.178 0 0 1-.59 1.287 3.099 3.099 0 0 1-.597 1.2 2.267 2.267 0 0 1 .597-1.2 2.508 2.508 0 0 1 .59-1.28Zm30.724-4.098.59-.316c-.16.19-.312.469-.59.316Zm-2.384 3.034a69.792 69.792 0 0 1-7.023 6.534c-1.07.888-2.045 1.856-3.211 2.665-1.325.999-2.556 2.077-3.889 2.989-3.57 2.603-7.241 5.043-11.009 7.403-1.348.736-2.602 1.552-4.038 2.296a68.274 68.274 0 0 1-9.146 4.42 31.374 31.374 0 0 1-6.187 1.953c-.35.03-.606.14-.869.164l-.358-.057c.065-.27.335-.206.503-.309a67.274 67.274 0 0 0 11.276-4.34l1.448-.657a4.288 4.288 0 0 0 .934-.435c2.936-1.761 5.881-3.424 8.81-5.273a129.828 129.828 0 0 0 13.446-9.74c1.74-1.3 3.291-2.76 4.936-4.144a33.094 33.094 0 0 0 2.525-2.428 16.694 16.694 0 0 1 3.048-2.558 10.001 10.001 0 0 1-1.196 1.517Zm-26.042 2.099a2.508 2.508 0 0 0 .59-1.288c-.168.103-.248.198-.415.301Zm-.385.648a1.018 1.018 0 0 0 .385-.652 1.018 1.018 0 0 0-.385.652Zm20.56-1.179.022.263.24-.285a5.59 5.59 0 0 1 1.821-1.396 6.257 6.257 0 0 1-2.197 2.135.323.323 0 0 1-.111-.255l-.438.038a1.915 1.915 0 0 1 .663-.496Zm-20.552 1.27-.008-.091-.08.095Zm0 0c-.16.19-.145.366-.217.55Zm-3.276.905.08-.096.015.18c-.08.095-.08.095-.175.015a.086.086 0 0 0 .08-.1Zm22.548-.646c.088-.008.088-.008.096.08l.007.084c-.088.007-.088.007-.095-.08Zm-1.18.633c.08-.095.16-.19.247-.198.175-.015.103.167-.152.278a.323.323 0 0 1-.256.11c.08-.095.073-.182.16-.19Zm-23.488 16.18a2.752 2.752 0 0 0 .838-.514 144.276 144.276 0 0 0 13.465-8.598c1.581-1.11 3.067-2.299 4.552-3.488 1.079-.797 2.244-1.61 3.226-2.49a2.267 2.267 0 0 1 1.079-.796 2.634 2.634 0 0 0-.29.727c.008.088.095.08.103.168-.175.015-.103-.168-.103-.168l-.789.07a1.107 1.107 0 0 1-.841 1.486l-.24.293c-.007-.087.073-.183.065-.27a2.499 2.499 0 0 0-.742.595l.526-.046a3.493 3.493 0 0 1-1.669 1.117l-.023-.267a3.905 3.905 0 0 0-.903.781 1.923 1.923 0 0 1-.415.301l.438-.038a4.023 4.023 0 0 1-1.387 1.357c-.91.698-1.828 1.308-2.742 1.918-.16.19-.423.213-.674.323a2.371 2.371 0 0 1-.644.675 26.478 26.478 0 0 1-2.921 1.933 7.61 7.61 0 0 0-.823.69c-2.514 1.544-5.028 3.088-7.55 4.545a1.844 1.844 0 0 1-.933.434c-.263.023-.279-.152-.294-.327a.529.529 0 0 1-.358-.057c-.103-.075-.03-.258.05-.354Zm.437-12.223a2.18 2.18 0 0 1-.582 1.375 3.173 3.173 0 0 1 .578-1.375Zm20.544-1.354.263-.023-.015-.175c-.084.096-.164.19-.251.199ZM32.5 113.088a1.923 1.923 0 0 1 .224-.461l-.262.023Zm12.586 1.55c.167-.104.342-.12.422-.214-.17.015-.25.11-.418.213Zm-13.704 1.73-.225.461a1.923 1.923 0 0 0 .225-.46Zm11.89-.336.439-.039a1.922 1.922 0 0 1 .225-.46 1.915 1.915 0 0 0-.667.5Zm-1.432.827a4.88 4.88 0 0 1-.651.587 1.367 1.367 0 0 0 .651-.587Zm-1.58 1.11a4.88 4.88 0 0 0-.652.586.957.957 0 0 0 .43-.125 1.923 1.923 0 0 0 .222-.457Zm-1.159.896a1.25 1.25 0 0 1-.51.22 1.923 1.923 0 0 1-.415.302c.167-.103.343-.118.422-.214Zm-1.34.82.414-.302a1.923 1.923 0 0 0-.414.31Zm-1.014.53.009.099.502-.309a1.25 1.25 0 0 1-.51.217Zm-.415.3c.167-.102.342-.118.422-.213-.174.027-.254.118-.422.221Zm-1.844 1.133.423-.214a.672.672 0 0 0-.422.222Zm0 0-.503.309c-.167.103-.247.198-.415.3l.507-.304a1.923 1.923 0 0 1 .412-.297Zm-1.844 1.132a.672.672 0 0 0 .423-.213Zm-2.106 1.156a.672.672 0 0 0 .423-.206Zm-16.309 6.373c-.255.111-.606.142-.949.26-.087.008-.35.03-.365-.145-.103-.167.152-.278.24-.286a17.082 17.082 0 0 1 2.087-.359 19.621 19.621 0 0 0 1.985-.526 68.518 68.518 0 0 0 8.87-3.593l.765-.332a.654.654 0 0 1 .572.48.457.457 0 0 1-.144.366l-.503.309a46.5 46.5 0 0 1-8.199 3.189c-.167.103-.342.118-.51.22-.667-.559-1.322.028-1.943-.006a7.327 7.327 0 0 0-1.906.423ZM114.893 96.97c-.126-.43-.507-.75-1.193-.514a3.299 3.299 0 0 0-.956.172.233.233 0 0 1-.286-.24.307.307 0 0 1 .168-.103c.255-.11.518-.133.773-.244a1.562 1.562 0 0 0 .846-.427.32.32 0 0 0 .137-.453.322.322 0 0 0-.381-.32l-.789.069a10.76 10.76 0 0 1-1.47.393c-2.287.112-4.527.749-6.813.86-.876.077-1.84.161-2.709.325a3.332 3.332 0 0 1-1.314.115c-.79.069-1.585.05-2.374.12a21.155 21.155 0 0 1-6.234-.604 1.923 1.923 0 0 0-.461-.225 1.03 1.03 0 0 1-.781-.903 1.717 1.717 0 0 1-.142-.605 9.72 9.72 0 0 0-1.643-3.654 1.07 1.07 0 0 0-1.456-.49c-.43.125-.766.331-1.109.45a15.709 15.709 0 0 0-3.454 2.95c-.735.683-1.463 1.453-2.19 2.223a3.086 3.086 0 0 1-.66.499c-.414.3-.78.156-1.081-.26-.103-.167-.126-.43-.23-.597a.62.62 0 0 0-1.154-.076 19.907 19.907 0 0 0-.986 1.852c-1.05 2.123-2.101 4.246-3.148 6.456a2.02 2.02 0 0 0-.244 1.258 4.838 4.838 0 0 1 .344 1.913.617.617 0 0 0 .42.758c.365.144.476.4.674.643.22.51 1.112.605 1.345.236a29.988 29.988 0 0 0 3.043-3.618 2.277 2.277 0 0 0 .53-1.017.445.445 0 0 1 .575-.492.76.76 0 0 0 .502-.309c.233-.373.652-.586.697-1.12a1.915 1.915 0 0 1 .377-.736l.263-.023a1.06 1.06 0 0 0 .4-.476l.48-.572a1.768 1.768 0 0 0 .667-.411 12.595 12.595 0 0 1 1.816-1.487l.24-.286-.263.023.24-.286 1.223-1.167c.807-.865 1.26-.728 1.54.396a5.483 5.483 0 0 0 1.738 2.673 8.387 8.387 0 0 0 4.318 1.919 27.966 27.966 0 0 0 5.48.051 85.485 85.485 0 0 0 12.355-2.14 4.415 4.415 0 0 0 1.036-.266l.248-.199c.087-.007.08-.095.072-.182l-.183.016c-.606.14-1.204.37-1.81.51-1.825.337-3.654.673-5.467 1.097a42.683 42.683 0 0 1-5.768.68 16.108 16.108 0 0 1-4.162-.082 1.25 1.25 0 0 1-.54-.129.189.189 0 0 1-.191-.16.307.307 0 0 1 .167-.103l1.052-.092a47.864 47.864 0 0 0 5.018-.173c.964-.085 2.008-.264 2.964-.436a68.38 68.38 0 0 0 8.424-1.619c.255-.11.518-.134.773-.244.503-.305.82-.686.697-1.117Zm-27.306-5.296-.007-.084.095.08Zm22.799 5.249c-.08.095-.168.103-.343.118-1.124.275-2.343.47-3.562.664a7.552 7.552 0 0 0-1.471.394l3.505-.306c-.167.102-.343.118-.51.22a48.062 48.062 0 0 1-8.653 1.022 4.01 4.01 0 0 1-2.054-.262l1.14-.1a19.947 19.947 0 0 1-2.237-.334c-.03-.35.24-.286.423-.214a82.245 82.245 0 0 0 9.296-.724c1.578-.138 3.14-.45 4.797-.684.02.175-.16.19-.331.206Zm-1.44.744a.529.529 0 0 1 .342-.119.323.323 0 0 1 .271.065ZM98.44 98.669a5.148 5.148 0 0 0 1.155.075l4.206-.367a5.94 5.94 0 0 0 1.211-.283c-2.19.192-4.373.475-6.572.575Zm41.061-4.03c-.19-.16-.206-.335-.053-.613a.756.756 0 0 0-.188-1.131 1.623 1.623 0 0 1-.53-1.014c-.053-.613-.427-.845-1.024-.613l-.766.332c-.846.427-1.692.85-2.545 1.194l-3.98 1.937a54.59 54.59 0 0 1-6.957 3.257l-.263.023a23.929 23.929 0 0 1-4.194 1.514c-1.479.306-3.037.619-4.519.837a10.041 10.041 0 0 1-3.28-.155 1.768 1.768 0 0 1-.728-.29.536.536 0 0 1 .01-.884 1.63 1.63 0 0 1 .599-.229 41.725 41.725 0 0 0 3.829-1.659c.167-.103.43-.126.681-.236a.086.086 0 0 1 .096.08l.015.171-.328.294a13.13 13.13 0 0 1-3.39 1.62 1.116 1.116 0 0 0-.519.134c-.087.008-.255.11-.247.198.015.176.19.16.278.153a2.993 2.993 0 0 0 .869-.164 31.729 31.729 0 0 0 5.146-2.746 2.28 2.28 0 0 0 .888-.96 7.812 7.812 0 0 1 1.233-2.05 3.065 3.065 0 0 0 .655-2.619 9.371 9.371 0 0 0-1.877-4.25 2.732 2.732 0 0 0-2.569-1.101 6.538 6.538 0 0 0-3.996 1.762 27.202 27.202 0 0 0-3.286 3.82 8.984 8.984 0 0 0-1.606 5.879c.084.964.176 2.016.348 2.972a7.036 7.036 0 0 0 2.273 3.775 7.171 7.171 0 0 0 4.992 1.51 31.17 31.17 0 0 0 6.344-1.172 65.319 65.319 0 0 0 9.626-4.02 80.637 80.637 0 0 0 7.573-4.282 2.592 2.592 0 0 1 1.101-.538 1.25 1.25 0 0 0 .51-.221c-.102-.168-.117-.343-.22-.51Zm-25.222-6.714c.255-.11.335-.206.049-.446-.008-.087.065-.27.152-.278a3.709 3.709 0 0 1 1.642-.408c.096.08.183.072.19.16.104.167-.072.182-.151.278-.088.007-.256.11.015.175.087-.008.263-.023.278.152l-.248.199a.793.793 0 0 0-.43.125 10.377 10.377 0 0 0-1.722.504 9.533 9.533 0 0 0-1.604.843 2.508 2.508 0 0 1 1.829-1.3Zm2.526 1.634a.273.273 0 0 1-.072.182.323.323 0 0 1-.255.111 5.007 5.007 0 0 0-2.457 1.186 1.415 1.415 0 0 1 .952-1.231 2.44 2.44 0 0 1 1.73-.416.307.307 0 0 1 .103.171Zm-3.721 2.885a8.923 8.923 0 0 0 1.07-.888 4.367 4.367 0 0 1 1.852-1.045.415.415 0 0 1 .533.042.752.752 0 0 1 .054.614 6.69 6.69 0 0 1-1.6 1.905 7.467 7.467 0 0 1-1.859.957c-.343.119-.533-.041-.58-.567-.13-.43.115-.712.53-1.014Zm2.645 1.977c-.152.278-.415.301-.666.411l-.16.19s-.08.096-.088.008c-.088.008-.095-.08.08-.095a.307.307 0 0 1 .168-.103c.16-.19.312-.469.575-.492-.008-.087.087-.007.087-.007Zm-4.57 2.258c-.016-.176.151-.279.327-.294a7.741 7.741 0 0 1 1.276-.553c.08-.095.175-.015.183.072a.273.273 0 0 1-.073.183l-.16.19a.307.307 0 0 1 .103.168.086.086 0 0 0-.08.096 5.374 5.374 0 0 1-1.173.72c-.175.016-.423.214-.533-.041-.103-.168-.03-.35.13-.541Zm1.561-.314-.007-.087s-.088.007.003.088Zm4.485-.215-.008-.087.088-.008Zm22.007-.775c.176-.015.358.057.534.042a1.116 1.116 0 0 0-.534-.042Zm-7.97 3.787a96.291 96.291 0 0 1-6.78 3.242 28.162 28.162 0 0 1-5.832 1.926 21.655 21.655 0 0 1-4.126.272.307.307 0 0 1-.183-.072c-.016-.175.064-.27.152-.278.438-.039.869-.164 1.22-.195a30.845 30.845 0 0 0 8.815-2.183c1.955-.873 3.916-1.667 5.855-2.72.59-.316 1.364-.56 2.042-.88a.415.415 0 0 1 .534.042 6.142 6.142 0 0 1-1.696.846Zm-12.12 1.761a51.212 51.212 0 0 0 5.152-1.686c.206.335.03.35-.145.366l-1.006.618.088-.008a.273.273 0 0 0 .183.072c.095.08.103.168.015.176-.08.095-.16.19-.247.198a24.15 24.15 0 0 1-6.904 1.84.35.35 0 0 1-.366-.145 16.237 16.237 0 0 1 1.985-.527c-1.41.035-2.773.596-4.229.105 1.913-.344 3.746-.589 5.475-1.005Zm1.609.213a6.747 6.747 0 0 0 2.393-.911l-1.204.37a2.984 2.984 0 0 0-1.19.541Zm-1.212.283-.095-.08-.08.095.088-.008Zm56.31-15.424a.323.323 0 0 0-.271-.065 2.173 2.173 0 0 0 .281-.82.433.433 0 0 0-.556-.304 7.797 7.797 0 0 0-1.433.828 9.75 9.75 0 0 1-2.537 1.281 4.715 4.715 0 0 0-.926.523c-1.325.998-2.849 1.754-4.167 2.836l-.59.317c-1.501 1.014-3.09 2.036-4.583 3.137a13.295 13.295 0 0 1-3.127 1.598.793.793 0 0 1-.446-.05.393.393 0 0 1-.038-.437c.514-1.193.75-2.538 1.82-3.427a.879.879 0 0 0 .312-.468c-.038-.439-.5-.66-.443-1.021-.03-.35.297-.644.091-.98a.672.672 0 0 0-.213-.422 2.252 2.252 0 0 1-.843-1.605c-.148-.689-.78-.903-1.47-.666-.168.103-.248.199-.336.206a.392.392 0 0 1-.541-.13c-.198-.247-.316-.59-.515-.837-.213-.423-.434-.933-.64-1.269a3.637 3.637 0 0 0-2.805-1.786 29.92 29.92 0 0 0-3.92.608.273.273 0 0 1-.169.103 17.626 17.626 0 0 0-4.117 2.39 6.22 6.22 0 0 0-1.486 1.19 13.113 13.113 0 0 1-1.638 1.468 19.718 19.718 0 0 0-4.62 4.73 10.542 10.542 0 0 0-.872 1.136 5.724 5.724 0 0 0-1.103 4.6c.126.43.164.868.29 1.299a3.375 3.375 0 0 0 1.156 2.106c.198.248.476.4.674.644a2.162 2.162 0 0 0 2.005.627 9.343 9.343 0 0 0 1.635-.496 34.829 34.829 0 0 0 7.333-4c1.432-.827 2.757-1.746 4.094-2.653a8.174 8.174 0 0 1 .838-.515c.256-.11.439-.038.637.21a3.348 3.348 0 0 1 .4 1.554 4.175 4.175 0 0 0 2.029 3.001 2.39 2.39 0 0 0 1.555.567 7.497 7.497 0 0 0 1.992-.44 31.547 31.547 0 0 0 6.065-3.355c3.081-2.123 6.17-4.16 9.157-6.363a3.125 3.125 0 0 1 .758-.42 4.836 4.836 0 0 1 1.394-1.27 3.16 3.16 0 0 1 .823-.689 1.086 1.086 0 0 0 .29-.728c-.104-.167-.031-.35-.047-.526.076-1.062-.026-1.225-1.178-1.217Zm-30.19.165-.022-.263a5.444 5.444 0 0 1 2.757-1.746 12.602 12.602 0 0 1 2.934-.786c.175-.015.358.057.533.042.183.072.198.247.214.423a.323.323 0 0 1-.065.27 3.872 3.872 0 0 1-.86.252 48.147 48.147 0 0 0-4.709 1.563c-.255.11-.518.134-.773.244a3.166 3.166 0 0 1-1.669 1.118 3.166 3.166 0 0 1 1.669-1.118Zm6.771-.327a.233.233 0 0 1-.24.286c-.175.016-.342.119-.518.134a18.365 18.365 0 0 0-3.684 1.293 1.023 1.023 0 0 1-.86.252c-.088.008-.088.008-.096-.08l-.008-.088.24-.286a11.816 11.816 0 0 1 4.538-1.632l.263-.023a.457.457 0 0 1 .373.144Zm.858 1.78a6.983 6.983 0 0 1-1.496 2.073c-.823.69-1.653 1.293-2.484 1.895-1.763 1.037-3.432 2.154-5.1 3.271a1.915 1.915 0 0 0-.66.5 10.122 10.122 0 0 1-2.098 1.242 7.27 7.27 0 0 0-1.867.866.672.672 0 0 1-.423.213c-.087.008-.263.023-.27-.064-.096-.08-.199-.248-.119-.343a.76.76 0 0 1 .217-.549c.872-1.136 1.832-2.28 2.8-3.335s2.037-1.944 3.1-2.92a2.899 2.899 0 0 1 1.085-.713c-.007-.088.08-.095.16-.19a10.937 10.937 0 0 1 5.577-2.872 2.166 2.166 0 0 1 1.06-.004c.549.132.755.468.53.929Zm21.467-.904-.088.007a.086.086 0 0 1 .08-.095c.08-.095.08-.095.168-.103Zm-9.767 6.504a1.367 1.367 0 0 1-.651.587 2.117 2.117 0 0 1 .667-.588Zm-13.982 2.458c.008.088-.08.095-.16.19a31.154 31.154 0 0 0-2.742 1.918l-3.608 2.17a24.323 24.323 0 0 1-3.965 2.112 5.662 5.662 0 0 1-2.065.622l-.438.038c-.008-.087-.095-.08-.103-.167s-.015-.176.072-.183l.503-.31a19.157 19.157 0 0 0 4.754-2.088 48.563 48.563 0 0 0 4.518-2.867 27.99 27.99 0 0 1 2.682-1.648.529.529 0 0 1 .343-.118c.087-.008.263-.023.278.152a.273.273 0 0 1-.069.179Zm-13.27 1.774a.323.323 0 0 1 .255-.111.086.086 0 0 0-.08.095.307.307 0 0 1-.168.103Zm28.701-1.978a1.513 1.513 0 0 1-1.22.195.73.73 0 0 1-.201.72l-.99.789a43.15 43.15 0 0 1-4.804 2.627 4.125 4.125 0 0 1-2.073.534l-.358-.057c-.088.008-.095-.08-.103-.168s-.015-.175.072-.183a2.07 2.07 0 0 1 .682-.236 11.923 11.923 0 0 0 3.66-1.556 12.913 12.913 0 0 1 2.866-1.575 6.561 6.561 0 0 0 1.245-.903 2.726 2.726 0 0 1 1.093-.625c.088-.008.343-.119.366.144.108.18-.147.29-.23.297Zm-23.455 2.402a1.215 1.215 0 0 1 .328-.293l.175-.016c-.08.096-.072.183-.16.191a.665.665 0 0 0-.342.122Zm-5.626 2.35c-.11-.255.049-.446.312-.469a19.415 19.415 0 0 1 3.006-.965 2.274 2.274 0 0 1 2.065-.622l-.415.302a1.239 1.239 0 0 1-1.65.32 1.136 1.136 0 0 1-.689 1.208 6.21 6.21 0 0 1-2.057.71c-.34.114-.542-.133-.572-.484Zm19.53-2.854a2.864 2.864 0 0 1 1.196-.458l.19.16a.086.086 0 0 1-.08.095 2.863 2.863 0 0 1-1.196.458l-.183-.072c-.003-.088-.01-.176.077-.184Zm.66.472.014.175a.582.582 0 0 1-.518.134c-.087.008-.095-.08-.103-.168.073-.183.427-.214.61-.141Zm78.241-12.046-.35.03a4.354 4.354 0 0 0-1.11.45 65.861 65.861 0 0 1-6.167 3.189c-2.624 1.289-5.257 2.49-7.775 4.034-.838.515-1.684.942-2.522 1.457-.422.213-.765.332-1.188.545l-.614.054a.307.307 0 0 1-.182-.072.323.323 0 0 1 .064-.271l.248-.198a21.525 21.525 0 0 0 3.813-1.839c1.005-.617 2.011-1.235 3.024-1.769a406.11 406.11 0 0 1 8.975-4.404c1.093-.626 2.282-1.171 3.367-1.884a.647.647 0 0 0 .29-.728.582.582 0 0 0-.66-.472l-1.05.092-.016-.175a3.69 3.69 0 0 0-1.867.865l.697-.06-.08.095a24.84 24.84 0 0 1-5.337 2.585c.48-.572 1.18-.633 1.668-1.117a9.743 9.743 0 0 0-3.055 1.415 9.796 9.796 0 0 0 1.479-.306 16.762 16.762 0 0 1-4.237 2.048 9.212 9.212 0 0 1 .903-.781 17.216 17.216 0 0 0-2.887 1.312l-3.783 2.184-.674.324a.307.307 0 0 0-.183-.072c-.008-.088-.015-.175.072-.183a9.596 9.596 0 0 1 .918-.61c3.703-2.09 7.413-4.091 11.23-5.838 1.612-.759 3.216-1.605 4.827-2.364.51-.221.75-.507.553-.75-.206-.336-.477-.4-.995-.267a10.634 10.634 0 0 0-2.13.888c-1.093.626-2.282 1.171-3.47 1.716a38.195 38.195 0 0 0-4.229 2.136c-1.508.926-3.12 1.685-4.636 2.524a1.514 1.514 0 0 1-1.036.267c-1.067-.083-1.338-.148-.804-1.166l2.063-4.683a3.356 3.356 0 0 0-.577-3.57c-.293-.328-.507-.75-.804-1.166a1.36 1.36 0 0 0-1.997-.62c-1.013.53-1.931 1.14-2.857 1.662a35.768 35.768 0 0 0-4.057 3.092 8.354 8.354 0 0 1-1.417 1.007 18.608 18.608 0 0 0-2.963 2.466 18.68 18.68 0 0 1-3.104 2.832 13.422 13.422 0 0 1-1.318 1.087 1.915 1.915 0 0 1-.659.499.27.27 0 0 1-.381-.32 1.964 1.964 0 0 1 .426-1.185 1.765 1.765 0 0 0 .22-1.525c-.11-.255.042-.533.107-.804l.582-1.375a3.318 3.318 0 0 0-.505-3.753 4.74 4.74 0 0 1-.713-1.086 1.318 1.318 0 0 0-1.478-.754 3.887 3.887 0 0 0-2.145.718 4.038 4.038 0 0 1-1.173.72c-1.707.68-3.112 1.777-4.812 2.54a3.905 3.905 0 0 0-.903.781 7.131 7.131 0 0 1-1.5 1.014 8.923 8.923 0 0 0-2.027 1.06 9.613 9.613 0 0 1-1.254.812 14.232 14.232 0 0 0-1.5 1.014 5.959 5.959 0 0 1-2.012 1.236 8.98 8.98 0 0 0-2.457 1.186 1.363 1.363 0 0 1-1.036.267.688.688 0 0 1-.523-.926l.297-.644a3.726 3.726 0 0 1 .419-1.273c.072-.182.248-.198.51-.22l-.007-.088c.13-.541-.267-1.037.037-1.593.217-.549.434-1.098.658-1.563.29-.727.674-1.383.971-2.027l.522-1.105a.855.855 0 0 0-.157-.781.664.664 0 0 0-.705-.027c-.167.103-.327.293-.518.133-.118-.342.217-.548.282-.819l-.022-.247-.263.023a2.1 2.1 0 0 0-.918.61 8.93 8.93 0 0 0-1.744 2.272 74.985 74.985 0 0 0-2.892 7.317 3.219 3.219 0 0 0-.175 2.046 22.1 22.1 0 0 0 .557 2.335 3.122 3.122 0 0 0 4.048 1.854 13.675 13.675 0 0 0 1.954-.873 47.82 47.82 0 0 0 4.213-2.31c2.02-1.148 4.023-2.471 6.034-3.707 1.676-1.03 3.352-2.059 5.036-3l.503-.31a.323.323 0 0 1 .27.065.273.273 0 0 1-.072.183c-.072.183-.24.286-.232.374a2.582 2.582 0 0 1-.468 1.718 52.604 52.604 0 0 0-2.512 5.606 2.691 2.691 0 0 0-.133 1.517c.149.69.386 1.38.534 2.072a1.4 1.4 0 0 0 1.235 1.036.957.957 0 0 0 .446.05c.095.08.278.152.286.24.14.606.484.487.914.361a4.355 4.355 0 0 0 1.109-.45 26.96 26.96 0 0 0 4.67-3.145c2.883-2.371 5.568-4.99 8.444-7.449a28.873 28.873 0 0 1 3.123-2.657 2.799 2.799 0 0 1 .766-.332.189.189 0 0 1 .19.16c-.304.557-.155 1.25-.46 1.807a6.45 6.45 0 0 0-.807 2.892 8.924 8.924 0 0 0 .367 2.175 4.464 4.464 0 0 0 1.544 2.514 2.215 2.215 0 0 0 2.515.483 26.408 26.408 0 0 0 3.047-1.502c1.852-1.045 3.615-2.082 5.474-3.04l7.963-3.862c.758-.42 1.509-.927 2.267-1.346l.423-.214c.08-.099.247-.202.144-.37Zm-59.737 8.575c-.015-.175-.126-.43.042-.534a1.676 1.676 0 0 1 .838-.514c1.1-.538 2.106-1.156 3.2-1.785 2.78-1.48 5.363-3.294 8.044-4.941a3.39 3.39 0 0 1 1.532-.664 4.735 4.735 0 0 1 .982-.88c1.764-1.038 3.532-2.075 5.387-3.032l.94-.347c.176-.015.367.145.287.24-.137.453-.187.9-.785 1.128-.69.149-1.356.648-2.137.805l.48-.572a6.35 6.35 0 0 0-1.684.942l.789-.069a5.598 5.598 0 0 1-2.442 1.361 1.544 1.544 0 0 1 .312-.468c-.674.323-1.455.568-2.13.888l-.217.549c.088-.008.096.08.103.167-.007-.087-.095-.08-.103-.167a1.922 1.922 0 0 1-.415.301l.438-.038a1.486 1.486 0 0 0-.422.213 2.1 2.1 0 0 1-.918.61 1.388 1.388 0 0 1-.66.5c.08-.096.065-.271.138-.454a3.252 3.252 0 0 0-.926.522l.697-.06-.651.586c-.255.11-.438.038-.461-.225a16.92 16.92 0 0 0-2.099 1.243c.373.233.598-.228.956-.171a2.499 2.499 0 0 1-.903.78 92.794 92.794 0 0 1-6.384 3.738 8.236 8.236 0 0 1-1.372.473.32.32 0 0 1-.452-.125Zm37.46-12.898a4.461 4.461 0 0 1 1.334-.911 3.566 3.566 0 0 1 .75-.507l.263-.023a.169.169 0 0 1-.065.27 1.9 1.9 0 0 1-.948.26 1.937 1.937 0 0 1-1.33.91Zm-18.65 1.806a1.25 1.25 0 0 0 .51-.221c-.163.103-.338.118-.506.22Zm17.66-1.013c.343-.118.774-.244 1.204-.37l-2.068 1.593a2.581 2.581 0 0 1-.854.34 1.98 1.98 0 0 1 1.722-1.563Zm-18.336 4.34c-2.69 1.559-5.364 3.294-7.966 4.845l-4.772 2.982c-1.094.626-2.194 1.163-3.383 1.709a3.647 3.647 0 0 1-1.38.385.307.307 0 0 1-.182-.072c-.008-.088.072-.183.065-.27l.765-.333a24.39 24.39 0 0 1 2.202-1.075c2.37-1.178 4.54-2.604 6.807-3.95 2.766-1.655 5.34-3.557 8.126-5.037a9.865 9.865 0 0 1 1.1-.538c.08-.095.263-.023.279.153 0 0 .015.175-.073.183l-.327.293a8.878 8.878 0 0 1-1.261.724Zm15.88-2.183a2.117 2.117 0 0 1-.651.587 1.367 1.367 0 0 1 .65-.587 1.018 1.018 0 0 1 .576-.492 1.018 1.018 0 0 1-.575.492Zm3.901.19a15.201 15.201 0 0 1-2.506 1.63.93.93 0 0 1 .472-.658 22.25 22.25 0 0 1 1.829-1.308c.08-.095.342-.118.35-.03.103.167.023.262-.145.365Zm-25.398 2.395.526-.046-.023-.263Zm17.368.69a7.932 7.932 0 0 1 2.963-2.467 7.93 7.93 0 0 1-2.963 2.467Zm-18.286-.08.526-.046-.023-.263Zm-10.317 1.166a1.25 1.25 0 0 1-.51.221c.182.073.35-.03.51-.22Zm53.555-3.531a2.1 2.1 0 0 0 1.189-.546 2.1 2.1 0 0 0-1.189.546Zm0 0-.674.324a1.657 1.657 0 0 1 .682-.237Zm-1.859.957a3.084 3.084 0 0 0 1.18-.633 2.627 2.627 0 0 0-1.18.633Zm-11.11 1.236.007.087.088-.007-.008-.088s-.095-.08-.087.008Zm-13.781 1.906a1.582 1.582 0 0 1 .742-.595 1.582 1.582 0 0 1-.742.6Zm21.835-1.731a.307.307 0 0 1-.167.103l.175-.016Zm-1.18.633a3.808 3.808 0 0 0 1.013-.53 1.827 1.827 0 0 0-1.013.534Zm-21.71 2.162a1.367 1.367 0 0 1 .65-.587 1.368 1.368 0 0 1-.65.59Zm21.71-2.158c-.255.11-.423.213-.674.324Zm-27.01 3.154.008.088-.088.008Zm28.535.156.503-.309-.088.008a1.923 1.923 0 0 1-.415.301Zm-9.422 1.265a2.1 2.1 0 0 1 1.189-.545 2.1 2.1 0 0 1-1.189.545.914.914 0 0 1-.666.411c-.191-.071.144-.277.662-.41Zm-15.163 2.296-.24.286c-1.501 1.014-2.884 2.371-4.48 3.301-.335.206-.674.324-1.101.538a.659.659 0 0 1-.43.126c-.088.008-.176.015-.184-.072a.268.268 0 0 1-.03-.35 1.417 1.417 0 0 0 .583-.405 25.426 25.426 0 0 0 4.597-2.962 2.899 2.899 0 0 1 1.083-.705c.087-.008.175-.015.183.072.087-.011.095.076.019.171Zm93.302-14.51a.689.689 0 0 0-.084-.964 1.385 1.385 0 0 1-.45-1.108c.217-.549-.435-.934-.865-.808a5.94 5.94 0 0 0-1.212.283l-5.821 2.098a1.863 1.863 0 0 0-.59.316 7.949 7.949 0 0 1-1.78.858c-2.145.717-4.187 1.602-6.427 2.24-1.634.496-3.173 1.071-4.808 1.568-1.463.48-2.918.957-4.385 1.354a25.49 25.49 0 0 1-5.482.92 36.117 36.117 0 0 1-4.667.147c-1.235.02-1.288-.59-.752-1.523a27.936 27.936 0 0 1 4.114-5.477 10.925 10.925 0 0 1 1.885-1.67 7.633 7.633 0 0 1 2.887-1.312 6.697 6.697 0 0 1 1.863.102c.542.13.743.465.45 1.109l-.449.922a2.96 2.96 0 0 0-.182 1.959.94.94 0 0 0 1.456.49 1.8 1.8 0 0 0 .636-.758 16.494 16.494 0 0 1 .914-1.669 2.186 2.186 0 0 0 .445-1.981 7.605 7.605 0 0 0-1.057-2.999 2.08 2.08 0 0 0-1.063-1.055 5.124 5.124 0 0 0-2.61-.566l-1.928.168a6.314 6.314 0 0 0-3.056 1.415 3.825 3.825 0 0 1-.583.404 9.421 9.421 0 0 0-3.47 2.776c-.872 1.136-1.744 2.272-2.604 3.495a11.339 11.339 0 0 0-1.42 2.95 5.592 5.592 0 0 0-.388 1.623 17.993 17.993 0 0 0 .268 3.067 4.536 4.536 0 0 0 3.563 3.393 9.28 9.28 0 0 0 2.748.113 19.122 19.122 0 0 1 3.174-.1l1.665-.146a49.397 49.397 0 0 0 8.648-2.08c5.15-1.686 10.286-3.548 15.303-5.752a53.455 53.455 0 0 0 5.098-2.3c.502-.309 1.108-.45.864-1.223-.1-.08.068-.183.148-.278Zm-33.554-4.044a1.915 1.915 0 0 1 .658-.499 6.172 6.172 0 0 0 1.326-.999 2.205 2.205 0 0 1 .583-.404 9.127 9.127 0 0 1 2.773-.595 8.482 8.482 0 0 1 1.067.083.457.457 0 0 1 .366.145.667.667 0 0 1 .206.335q.012.131-.24.286l-.438.038a18.387 18.387 0 0 1-2.183.28 8.44 8.44 0 0 0-3.421 1.27c-.168.102-.43.125-.598.228l-.088.008Zm6.656.39a14.32 14.32 0 0 0-2.693.5c-.518.134-.949.26-1.635.496a1.56 1.56 0 0 1 .816-.773 6.38 6.38 0 0 1 3.562-.665c.175-.015.358.057.366.145.022.259-.244.282-.42.297Zm-7.017 3.523c.088-.008.175-.015.168-.103a.307.307 0 0 1-.073.183.086.086 0 0 0-.08.095c-.102-.075-.102-.075-.022-.17Zm29.057.203a.086.086 0 0 1-.095-.08l.08-.092c.167-.103.175-.015.183.073Zm-31.376 2.653.008.087c-.088.008-.08.096-.168.103.08-.095.08-.095.072-.183.08-.09.08-.09.088-.007Zm30.15.456c-.255.11-.502.309-.868.164-.016-.175.16-.19.247-.198.606-.141 1.117-.363 1.722-.504a2.592 2.592 0 0 1-1.1.538Zm-11.872 1.567a2.342 2.342 0 0 1-1.028.355c.24-.286.686-.237 1.028-.355Zm8.127-.008-1.619.672c-2.91 1.049-5.9 2.193-8.899 3.25a43.106 43.106 0 0 1-7.33 2.06 42.396 42.396 0 0 1-8.165.538l-.987-.179c-.087.008-.095-.08-.19-.16.088-.008.168-.103.255-.11a11.216 11.216 0 0 1 1.673-.058c.964-.085 1.935-.081 2.895-.165a42.82 42.82 0 0 0 12.74-2.791 151.964 151.964 0 0 0 8.82-3.155 1.657 1.657 0 0 1 .682-.236s.175-.015.183.072c.099.076.019.171-.06.27Zm-27.668 3.742c-.015-.175.168-.103.343-.118a15.572 15.572 0 0 1 2.023-.088 41.784 41.784 0 0 0 13.476-2.414 3.005 3.005 0 0 1 1.299-.29c-.232.373-.503.309-.758.42-1.109.45-2.32.732-3.421 1.27l1.402-.123a5.409 5.409 0 0 1 .94-.347 1.773 1.773 0 0 1-.94.347 3.891 3.891 0 0 1-1.276.553 36.475 36.475 0 0 1-6.767 1.386 1.446 1.446 0 0 1-.891-.099l-.007-.08c-.088.008-.008-.087-.008-.087.175-.015.343-.118.518-.134.869-.164 1.745-.24 2.534-.31a1.3 1.3 0 0 0 .606-.14l-1.14.099a55.726 55.726 0 0 1-7.654.316c-.088.003-.271-.073-.279-.157Zm12.455-1 .176-.015c.08-.095.255-.11.335-.206a.529.529 0 0 1-.343.118c-.091.012-.179.02-.172.104Zm-1.478.306-.175.015a.086.086 0 0 0-.08.096l.087-.008a.307.307 0 0 1 .168-.099Zm60.474-14.29a.937.937 0 0 0-.107-1.227c-.279-.153-.31-.503-.42-.758-.229-.598-.507-.75-1.097-.434l-.926.522a1.586 1.586 0 0 1-1.029.355 9.915 9.915 0 0 0-1.554.4 5.141 5.141 0 0 1-1.65.321 21.569 21.569 0 0 0-2.35.382l-4.973.7a29.743 29.743 0 0 1-3.95.257c-3.529.043-6.913-.28-10.068-2.03-.556-.305-.82-.282-1.204.37s-1.078.796-1.756 1.124l-.175.016-.286-.24a.323.323 0 0 1 .065-.271c-.008-.088.08-.095.167-.103.16-.19.51-.221.488-.484-.015-.175-.381-.32-.72-.202a2.892 2.892 0 0 0-1.692.85 20.927 20.927 0 0 0-3.264 4.082 5.708 5.708 0 0 0-.92 3.613 25.078 25.078 0 0 0 .485 2.518 5.042 5.042 0 0 0 6.303 3.423 11.536 11.536 0 0 0 3.966-2.113c.335-.205.933-.434.441-1.01-.087.008-.015-.175.065-.27.628-.85 1.356-1.708 1.897-2.55a11.746 11.746 0 0 0 .475-1.63c.297-.645.553-.751 1.261-.73.183.073.446.05.712.115a24.91 24.91 0 0 0 3.567.391 16.243 16.243 0 0 0 5.448-.3c1.57-.225 3.22-.546 4.797-.683a10.352 10.352 0 0 0 4.457-1.538 14.51 14.51 0 0 1 3.033-1.678c.43-.125.853-.339.529-1.017Zm-16.342 1.957c1.92-.256 3.833-.6 5.761-.768 1.486-.218 2.957-.523 4.431-.829a7.358 7.358 0 0 0 2.656-.934 3.808 3.808 0 0 1 .43-.126c.08-.095.256-.11.263-.023.103.168.023.263-.064.27a4.96 4.96 0 0 1-1.021.443 2.551 2.551 0 0 0-1.246.904c-.152.278-.327.293-.583.404a3.126 3.126 0 0 1-.86.251c-2.096.272-4.176.719-6.375.822a.869.869 0 0 1-.541-.129l2.454-.214a.665.665 0 0 0-.72-.202l-3.685.322c-.35.03-.796-.02-1.234.02a.35.35 0 0 1 .339-.207ZM301.71 78.44c-.16.19-.225.461-.385.652a8.715 8.715 0 0 1-2.917 2.992 5.062 5.062 0 0 1-2.934.786c-.526.046-.636-.21-.595-.743a9.75 9.75 0 0 1 .644-1.734c.16-.19.057-.358-.119-.342a3.706 3.706 0 0 1 1.642-2.44l.982-.88a4.88 4.88 0 0 1 .651-.587.992.992 0 0 1 1.418.053l1.46 1.55a.664.664 0 0 1 .153.693Zm21.164-3.354-.096-.08a.307.307 0 0 0-.167.103l.263-.023Zm-1.825.336-1.402.122.007.088 1.402-.123Zm4.672.916a9.081 9.081 0 0 1-4.187 1.602c-2.096.272-4.184.63-6.287.814a6.987 6.987 0 0 1-1.935.081c-.263.023-.614.054-.812-.194a2.231 2.231 0 0 1 1.036-.267c2.366-.207 4.63-.581 6.988-.875.869-.165 1.737-.329 2.598-.58a8.387 8.387 0 0 0 2.298-.992c.423-.214.822-.69 1.371-.473-.224.461-.743.595-1.07.888Zm-20.89 5.538a1.25 1.25 0 0 1 .13-.541l-.175.015Zm-.16.19.008.088c-.007-.087.073-.183.153-.278-.076.095-.164.103-.156.19Zm-7.207 2.396a.323.323 0 0 1-.27-.064c-.089.007-.176.015-.192-.16-.007-.088-.015-.176.073-.183a9.638 9.638 0 0 1 2.232-.725 6.713 6.713 0 0 1-.903.781l.614-.053a.086.086 0 0 1 .095.08l.008.087a1.705 1.705 0 0 1-1.555.401.307.307 0 0 1-.098-.164Zm3.456 1.111a1.825 1.825 0 0 1-.83.603 5.548 5.548 0 0 1-1.89.606l-.175.015c-.095-.08-.183-.072-.19-.16s-.016-.175.072-.182l.247-.199c.766-.331 1.456-.568 2.13-.888a1.116 1.116 0 0 0 .518-.134s.183.073.19.16c0-.008.016.172-.072.18Zm87.07-13.082-.35.03a4.355 4.355 0 0 0-1.11.45 65.86 65.86 0 0 1-6.167 3.188c-2.624 1.29-5.257 2.49-7.775 4.035-.838.515-1.684.942-2.522 1.457-.422.213-.765.332-1.188.545l-.614.054a.307.307 0 0 1-.183-.073.323.323 0 0 1 .065-.27l.248-.198a21.525 21.525 0 0 0 3.813-1.839c1.005-.617 2.01-1.235 3.024-1.769a406.11 406.11 0 0 1 8.975-4.405c1.093-.625 2.282-1.17 3.367-1.883a.647.647 0 0 0 .29-.728.582.582 0 0 0-.66-.472l-1.047.091-.015-.175a3.69 3.69 0 0 0-1.867.866l.697-.061-.08.095a24.838 24.838 0 0 1-5.337 2.586c.48-.572 1.18-.633 1.668-1.117a9.744 9.744 0 0 0-3.055 1.414 9.796 9.796 0 0 0 1.478-.305 16.762 16.762 0 0 1-4.236 2.048 9.215 9.215 0 0 1 .903-.782 17.217 17.217 0 0 0-2.887 1.316l-3.783 2.185-.674.324a.307.307 0 0 0-.183-.073c-.007-.087-.015-.175.073-.183a9.596 9.596 0 0 1 .918-.61c3.702-2.09 7.413-4.091 11.23-5.837 1.611-.76 3.215-1.606 4.826-2.365.51-.22.75-.507.553-.75-.206-.336-.477-.4-.995-.267a10.634 10.634 0 0 0-2.13.889c-1.093.625-2.282 1.17-3.47 1.716a38.198 38.198 0 0 0-4.229 2.135c-1.508.927-3.12 1.686-4.636 2.525a1.514 1.514 0 0 1-1.036.267c-1.067-.084-1.337-.148-.804-1.166l2.063-4.684a3.356 3.356 0 0 0-.577-3.57c-.293-.327-.507-.75-.804-1.166a1.36 1.36 0 0 0-1.997-.62c-1.013.53-1.931 1.14-2.857 1.663a35.77 35.77 0 0 0-4.056 3.091 8.353 8.353 0 0 1-1.418 1.007 18.609 18.609 0 0 0-2.963 2.467 18.68 18.68 0 0 1-3.112 2.828 13.422 13.422 0 0 1-1.318 1.087 1.915 1.915 0 0 1-.659.499.27.27 0 0 1-.381-.32 1.964 1.964 0 0 1 .426-1.185 1.765 1.765 0 0 0 .22-1.525c-.11-.255.042-.533.107-.804l.582-1.375a3.318 3.318 0 0 0-.505-3.753 4.74 4.74 0 0 1-.713-1.085 1.318 1.318 0 0 0-1.478-.754 3.887 3.887 0 0 0-2.145.717 4.038 4.038 0 0 1-1.173.72c-1.707.68-3.112 1.778-4.812 2.54a3.905 3.905 0 0 0-.903.781 7.131 7.131 0 0 1-1.5 1.015 8.922 8.922 0 0 0-2.027 1.06 9.614 9.614 0 0 1-1.254.812 14.232 14.232 0 0 0-1.5 1.014 5.959 5.959 0 0 1-2.012 1.235 8.98 8.98 0 0 0-2.457 1.186 1.363 1.363 0 0 1-1.036.267.688.688 0 0 1-.523-.925l.297-.644a3.727 3.727 0 0 1 .419-1.273c.072-.183.247-.199.51-.221l-.007-.088c.129-.541-.267-1.036.037-1.593.217-.549.434-1.097.658-1.562.29-.728.674-1.384.971-2.028l.522-1.105a.855.855 0 0 0-.157-.781.664.664 0 0 0-.705-.027c-.167.103-.327.294-.518.134-.118-.343.217-.549.282-.82l-.022-.247-.263.023a2.1 2.1 0 0 0-.918.61 8.93 8.93 0 0 0-1.744 2.272 74.982 74.982 0 0 0-2.893 7.317 3.219 3.219 0 0 0-.174 2.046 22.091 22.091 0 0 0 .557 2.336 3.122 3.122 0 0 0 4.048 1.853 13.675 13.675 0 0 0 1.954-.873 47.82 47.82 0 0 0 4.213-2.31c2.02-1.148 4.023-2.471 6.034-3.707 1.676-1.029 3.352-2.058 5.036-3l.503-.31a.323.323 0 0 1 .27.066.273.273 0 0 1-.072.182c-.072.183-.24.286-.232.374a2.582 2.582 0 0 1-.468 1.719 52.598 52.598 0 0 0-2.513 5.605 2.69 2.69 0 0 0-.132 1.517c.149.69.386 1.38.534 2.073a1.4 1.4 0 0 0 1.235 1.036.957.957 0 0 0 .446.05c.095.08.278.151.286.239.14.606.484.488.914.362a4.355 4.355 0 0 0 1.109-.45 26.96 26.96 0 0 0 4.674-3.146c2.883-2.371 5.568-4.99 8.444-7.449a28.87 28.87 0 0 1 3.123-2.657 2.799 2.799 0 0 1 .766-.332.189.189 0 0 1 .19.16c-.304.557-.155 1.25-.46 1.807a6.45 6.45 0 0 0-.81 2.892 8.925 8.925 0 0 0 .366 2.175 4.463 4.463 0 0 0 1.544 2.515 2.215 2.215 0 0 0 2.515.482 26.409 26.409 0 0 0 3.047-1.502c1.852-1.045 3.615-2.082 5.474-3.04l7.963-3.862c.758-.42 1.509-.926 2.267-1.346l.423-.213c.08-.1.247-.202.144-.37Zm-59.737 8.575c-.015-.175-.126-.43.042-.534a1.676 1.676 0 0 1 .838-.514c1.1-.538 2.106-1.156 3.2-1.785 2.78-1.48 5.363-3.294 8.044-4.941a3.39 3.39 0 0 1 1.532-.664 4.735 4.735 0 0 1 .982-.88c1.764-1.038 3.532-2.075 5.387-3.032l.94-.347c.176-.015.367.145.287.24-.137.453-.187.9-.785 1.128-.69.148-1.356.648-2.137.805l.48-.572a6.35 6.35 0 0 0-1.684.942l.789-.069a5.598 5.598 0 0 1-2.442 1.361 1.544 1.544 0 0 1 .312-.469c-.674.324-1.455.57-2.13.889l-.217.549c.088-.008.096.08.103.167-.007-.087-.095-.08-.103-.167a1.923 1.923 0 0 1-.415.3l.438-.037a1.486 1.486 0 0 0-.423.213 2.1 2.1 0 0 1-.918.61 1.387 1.387 0 0 1-.658.5c.08-.096.064-.271.137-.454a3.252 3.252 0 0 0-.926.522l.697-.06-.651.586c-.255.11-.438.038-.461-.225a16.92 16.92 0 0 0-2.1 1.243c.374.233.599-.229.957-.172a2.499 2.499 0 0 1-.903.782 92.794 92.794 0 0 1-6.384 3.736 8.235 8.235 0 0 1-1.372.473.32.32 0 0 1-.456-.124Zm37.46-12.898a4.461 4.461 0 0 1 1.334-.911 3.566 3.566 0 0 1 .75-.507l.263-.023a.169.169 0 0 1-.065.27 1.9 1.9 0 0 1-.948.26 1.937 1.937 0 0 1-1.334.91Zm-18.65 1.806a1.25 1.25 0 0 0 .51-.221c-.163.102-.342.118-.51.221Zm17.66-1.013c.343-.118.774-.244 1.204-.37l-2.068 1.593a2.581 2.581 0 0 1-.854.34 1.98 1.98 0 0 1 1.718-1.563Zm-18.34 4.34c-2.69 1.56-5.364 3.294-7.966 4.846l-4.772 2.981c-1.094.626-2.195 1.164-3.383 1.709a3.647 3.647 0 0 1-1.38.385.307.307 0 0 1-.182-.072c-.008-.088.072-.183.065-.27l.765-.332a24.39 24.39 0 0 1 2.202-1.076c2.37-1.178 4.54-2.604 6.807-3.95 2.766-1.654 5.34-3.557 8.125-5.037a9.864 9.864 0 0 1 1.101-.537c.08-.096.263-.023.279.152 0 0 .015.175-.073.183l-.327.293a8.878 8.878 0 0 1-1.261.725Zm15.88-2.183a2.117 2.117 0 0 1-.652.587 1.368 1.368 0 0 1 .652-.587 1.018 1.018 0 0 1 .575-.491 1.018 1.018 0 0 1-.575.491Zm3.901.19a15.202 15.202 0 0 1-2.506 1.631.93.93 0 0 1 .472-.66 22.254 22.254 0 0 1 1.828-1.307c.08-.095.343-.118.351-.03.103.167.023.262-.145.365Zm-25.398 2.395.526-.046-.023-.263Zm17.368.69a7.93 7.93 0 0 1 2.963-2.466 7.932 7.932 0 0 1-2.963 2.466Zm-18.286-.08.526-.046-.023-.263ZM329.53 75.48a1.25 1.25 0 0 1-.51.222c.182.072.35-.031.51-.222Zm53.555-3.53a2.1 2.1 0 0 0 1.188-.546 2.1 2.1 0 0 0-1.188.545Zm0 0-.674.323a1.657 1.657 0 0 1 .682-.236Zm-1.86.956a3.084 3.084 0 0 0 1.182-.633 2.627 2.627 0 0 0-1.181.633Zm-11.105 1.236.007.087.088-.008-.008-.087s-.095-.08-.087.008Zm-13.781 1.906a1.582 1.582 0 0 1 .742-.595 1.582 1.582 0 0 1-.746.6Zm21.835-1.731a.307.307 0 0 1-.167.103l.175-.016Zm-1.18.633a3.808 3.808 0 0 0 1.013-.53 1.827 1.827 0 0 0-1.017.534Zm-21.71 2.161a1.367 1.367 0 0 1 .65-.586 1.367 1.367 0 0 1-.654.59Zm21.71-2.161c-.256.11-.423.213-.675.324Zm-27.01 3.154.008.092-.088.008Zm28.535.156.503-.309-.088.008a1.922 1.922 0 0 1-.419.306Zm-9.422 1.265a2.1 2.1 0 0 1 1.188-.545 2.1 2.1 0 0 1-1.188.545.914.914 0 0 1-.667.411c-.194-.067.141-.273.66-.406Zm-15.164 2.296-.24.286c-1.5 1.014-2.883 2.371-4.48 3.301-.335.206-.674.324-1.1.538a.659.659 0 0 1-.431.126c-.088.008-.175.015-.183-.072a.268.268 0 0 1-.03-.35 1.417 1.417 0 0 0 .582-.405 25.428 25.428 0 0 0 4.598-2.962 2.899 2.899 0 0 1 1.086-.713c.087-.008.175-.016.182.072.08 0 .088.089.008.184Zm62.231-11.357c-.19-.16-.206-.336-.053-.614a.756.756 0 0 0-.187-1.131 1.623 1.623 0 0 1-.53-1.014c-.054-.613-.428-.845-1.025-.613l-.766.332c-.846.427-1.692.85-2.545 1.194l-3.984 1.941a54.59 54.59 0 0 1-6.96 3.258l-.263.023a23.929 23.929 0 0 1-4.199 1.514c-1.478.306-3.036.619-4.518.837a10.041 10.041 0 0 1-3.281-.155 1.768 1.768 0 0 1-.728-.29.536.536 0 0 1 .011-.884 1.63 1.63 0 0 1 .598-.229c1.364-.56 2.648-1.026 3.83-1.659.167-.103.43-.126.68-.236a.086.086 0 0 1 .096.08l.015.171-.327.294a13.13 13.13 0 0 1-3.39 1.62 1.116 1.116 0 0 0-.52.134c-.087.008-.254.11-.247.198.016.176.19.16.279.153a2.993 2.993 0 0 0 .868-.164 31.729 31.729 0 0 0 5.147-2.746 2.28 2.28 0 0 0 .887-.96 7.811 7.811 0 0 1 1.234-2.05 3.065 3.065 0 0 0 .654-2.619 9.372 9.372 0 0 0-1.877-4.25 2.732 2.732 0 0 0-2.568-1.101 6.538 6.538 0 0 0-3.996 1.762 27.202 27.202 0 0 0-3.287 3.82 8.983 8.983 0 0 0-1.605 5.88c.084.963.176 2.015.348 2.97a7.036 7.036 0 0 0 2.272 3.776 7.171 7.171 0 0 0 4.997 1.51 31.17 31.17 0 0 0 6.343-1.172 65.318 65.318 0 0 0 9.627-4.02 80.638 80.638 0 0 0 7.573-4.282 2.592 2.592 0 0 1 1.1-.538 1.25 1.25 0 0 0 .511-.221c-.103-.168-.118-.343-.221-.51Zm-25.222-6.715c.255-.11.335-.206.049-.446-.008-.087.065-.27.152-.278a3.709 3.709 0 0 1 1.642-.408c.096.08.183.072.19.16.104.167-.071.182-.151.278-.088.007-.256.11.015.175.088-.008.263-.023.278.152l-.247.199a.793.793 0 0 0-.431.125 10.378 10.378 0 0 0-1.722.504 9.533 9.533 0 0 0-1.604.843 2.508 2.508 0 0 1 1.821-1.295Zm2.526 1.634a.273.273 0 0 1-.072.182.323.323 0 0 1-.255.111 5.007 5.007 0 0 0-2.457 1.186 1.415 1.415 0 0 1 .952-1.231 2.44 2.44 0 0 1 1.73-.416.307.307 0 0 1 .095.176Zm-3.72 2.885a8.923 8.923 0 0 0 1.07-.888 4.367 4.367 0 0 1 1.85-1.045.415.415 0 0 1 .534.042.752.752 0 0 1 .054.614 6.69 6.69 0 0 1-1.6 1.905 7.467 7.467 0 0 1-1.859.957c-.343.119-.533-.041-.58-.567-.133-.426.108-.708.523-1.009Zm2.644 1.977c-.152.278-.415.301-.666.411l-.16.19s-.08.096-.088.008c-.087.008-.095-.08.08-.095a.307.307 0 0 1 .168-.103c.16-.19.312-.469.575-.492-.008-.087.088-.007.088-.007Zm-4.571 2.254c-.015-.176.152-.279.327-.294a7.741 7.741 0 0 1 1.277-.553c.08-.095.175-.015.183.072a.273.273 0 0 1-.073.183l-.16.19a.307.307 0 0 1 .103.168.086.086 0 0 0-.08.096 5.375 5.375 0 0 1-1.173.72c-.175.016-.423.214-.533-.041-.11-.16-.038-.342.122-.533Zm1.562-.314-.007-.08s-.096.01 0 .09Zm4.484-.215-.007-.087.087-.008Zm22.008-.775c.175-.015.358.057.533.042a1.116 1.116 0 0 0-.54-.033Zm-7.97 3.787a96.291 96.291 0 0 1-6.78 3.242 28.162 28.162 0 0 1-5.844 1.935 21.655 21.655 0 0 1-4.126.272.307.307 0 0 1-.183-.076c-.016-.175.064-.27.152-.278.438-.039.869-.164 1.22-.195a30.845 30.845 0 0 0 8.815-2.183c1.955-.873 3.916-1.667 5.855-2.72.59-.316 1.364-.56 2.043-.88a.415.415 0 0 1 .533.042 6.142 6.142 0 0 1-1.692.85Zm-12.12 1.761a51.208 51.208 0 0 0 5.151-1.686c.206.335.031.35-.144.366l-1.006.618.088-.008a.273.273 0 0 0 .183.072c.095.08.103.168.015.176-.08.095-.16.19-.248.198a24.15 24.15 0 0 1-6.903 1.84.35.35 0 0 1-.366-.145 16.237 16.237 0 0 1 1.985-.527c-1.41.035-2.774.596-4.23.105 1.91-.336 3.74-.58 5.465-.996Zm1.609.213a6.747 6.747 0 0 0 2.392-.911l-1.203.37a2.983 2.983 0 0 0-1.197.55Zm-1.212.283-.095-.08-.08.095.087-.008Zm107.01-48.644c-.134-.518-.348-.941-.474-1.372a2.72 2.72 0 0 0-2.31-2.182 32.204 32.204 0 0 0-8.295-.953c-.438.038-.796-.019-1.234.02a7.697 7.697 0 0 0-1.418-.053c-2.118.008-4.157-.078-6.172.098-1.502.043-2.911-.01-4.405.12a3.354 3.354 0 0 1-1.322.027c-.9-.186-1.018-.53-.736-1.349.08-.095.065-.27.145-.365-.031-.35-.031-.35.24-.286a4.42 4.42 0 0 0 .99-.79c.24-.285.488-.483.457-.834.019-.796.605-1.112 1.192-1.517l.24-.286.4-.476a19.527 19.527 0 0 1 2.673-2.706 2.327 2.327 0 0 1 1.573-1.197.846.846 0 0 0 .743-.595c.05-.446.392-.564.735-.682a5.023 5.023 0 0 0 1.741-1.3c.16-.19.408-.39.377-.736.042-.533.457-.834.785-1.128a11.24 11.24 0 0 1 1.733-1.387l.008.087.24-.286a5.31 5.31 0 0 1 .636-.758c1.047-1.15 1.016-1.501.2-2.755a1.019 1.019 0 0 0-1.272-.418 16.4 16.4 0 0 0-1.676 1.03l-3.299 2.672c-1.135 1.158-2.373 2.15-3.604 3.224-1.885 1.67-3.587 3.404-5.29 5.143l-1.942 2.024a42.983 42.983 0 0 0-3.687 4.295 4.737 4.737 0 0 1-3.455 1.892 33.81 33.81 0 0 1-4.206.367 14.252 14.252 0 0 0-1.92.256 6.089 6.089 0 0 1-2.184.28 7.567 7.567 0 0 0-1.41.034c-.963.084-1.824.336-2.788.42-1.936.081-3.825.688-5.769.681a2.569 2.569 0 0 0-.773.244 15.047 15.047 0 0 1-3.395.562c-.35.03-.69.148-1.044.18-1.642.408-3.196.808-4.846 1.125-1.3.29-2.503.66-3.795 1.034l-6.697 2.175a15.938 15.938 0 0 0-2.648 1.026c-1.101.537-2.202 1.075-3.31 1.525a5.087 5.087 0 0 0-1.19.546c-.334.205-.574.491-.193.811a1.058 1.058 0 0 1 .236.682c.077.876.362 1.116 1.208.69l.175-.016a56.736 56.736 0 0 1 6.404-2.502 127.46 127.46 0 0 1 22.684-5.161c3.753-.505 7.514-.922 11.29-1.163l.964-.084c.175-.016.438-.039.548.217.103.167-.057.358-.495.396l-7.712.674c-2.708.325-5.41.737-8.027 1.143-2.263.374-4.519.836-6.694 1.203q-4.16.893-8.298 2.05c-2.835.865-5.677 1.731-8.492 2.86a3.084 3.084 0 0 0-1.181.633 9.343 9.343 0 0 0 1.634-.496c1.882-.694 3.677-1.38 5.662-1.907q4.257-1.3 8.8-2.358a211.04 211.04 0 0 1 10.6-1.986c4.015-.528 8.035-1.055 12.07-1.32l.788-.069a.5.5 0 0 1 .405.583 1.25 1.25 0 0 1-.13.541c-.712.946-1.432 1.803-2.231 2.756a11.754 11.754 0 0 0-1.592 1.993 19.037 19.037 0 0 1-3.2 3.812 3.286 3.286 0 0 0-.567.58 29.163 29.163 0 0 1-2.071 2.565 3.78 3.78 0 0 0-.713.945 12.02 12.02 0 0 1-1.824 2.367c-1.127 1.246-2.071 2.565-3.103 3.891-1.265 1.7-2.156 3.632-3.706 5.092l-.24.286c-1.161 1.868-2.418 3.655-3.579 5.523a12.57 12.57 0 0 0-1.074 1.86c-1.073 1.86-2.06 3.711-3.046 5.564a30.015 30.015 0 0 0-1.24 3.018 2.942 2.942 0 0 0 .023 2.294 15.157 15.157 0 0 0 .774 1.786 3.642 3.642 0 0 0 2.194 1.771 2.243 2.243 0 0 0 2.103-.183 25.1 25.1 0 0 0 3.9-1.846c1.612-.76 3.136-1.51 4.762-2.094a63.284 63.284 0 0 0 6.74-2.704 31.81 31.81 0 0 0 2.968-1.407l2.624-1.29c1.021-.442 2.035-.972 3.048-1.502.167-.103.423-.213.4-.476a2.499 2.499 0 0 0-1.109.45c-3.562 1.724-7.196 3.539-10.96 4.931a121.13 121.13 0 0 0-10.544 4.634c-.59.317-1.189.545-1.867.866a1.717 1.717 0 0 0-.606.14c-.088.008-.27-.064-.278-.152a.667.667 0 0 1 .144-.365l.766-.332c1.021-.443 2.034-.973 2.968-1.407 1.779-.858 3.562-1.724 5.352-2.41 3.166-1.16 6.229-2.487 9.284-3.902 1.874-.782 3.733-1.74 5.6-2.609a2.4 2.4 0 0 0 1.006-.618.52.52 0 0 0 .034-.62c-.096-.08-.199-.248-.374-.233-.255.11-.606.141-.86.252l-2.641 1.114a9.611 9.611 0 0 1-1.455.568l-.008-.087a1.418 1.418 0 0 1-.766.331l-.674.324a1 1 0 0 1-.674.324l-.766.332a2.07 2.07 0 0 1-.681.236 3.886 3.886 0 0 1-1.357.648l.393-.564a7.375 7.375 0 0 0-2.122.98c.087-.007.175-.015.183.073a.307.307 0 0 1-.168.103l-.023-.263a26.067 26.067 0 0 0-4.948 1.937c.087-.007.263-.023.19.16a.307.307 0 0 1-.167.103l-.023-.263a6.442 6.442 0 0 0-2.13.889l.789-.07a1.657 1.657 0 0 1 .681-.235 1.657 1.657 0 0 1-.681.236 1.418 1.418 0 0 1-.766.332l.088-.008a26.755 26.755 0 0 1-5.684 2.704l.48-.572c-.176.016-.263.023-.359-.057-.103-.167-.023-.263.057-.358l.674-.324a73.971 73.971 0 0 1 9.097-3.973c4.275-1.61 8.446-3.387 12.522-5.245.256-.11.503-.308.759-.419a.529.529 0 0 0 .057-.358c-.008-.088-.191-.16-.279-.152a.165.165 0 0 0-.263.023c-.86.251-1.817.423-2.67.763-1.787.774-3.593 1.373-5.36 2.322a10.289 10.289 0 0 1-1.715.592c-2.598.58-4.872 1.838-7.36 2.674l-.343.118a13.64 13.64 0 0 1-3.055 1.415 1.116 1.116 0 0 1-.518.133.353.353 0 0 1-.477-.4c-.03-.35.02-.796-.011-1.146l-.031-.351c.065-.27.145-.366.51-.221a1.782 1.782 0 0 0 .404-1.448.483.483 0 0 1 .304-.557c.336-.206.667-.411.728-.766-.19-.16-.301-.415-.054-.613a3.866 3.866 0 0 0 .914-1.67 5.334 5.334 0 0 1 2.137-2.835c.255-.11.327-.294.392-.564-.175.015-.278-.152-.118-.343l.32-.381.038.438a22.657 22.657 0 0 0 2.544-3.224 7.281 7.281 0 0 1 .849-1.4l3.663-4.558a5.307 5.307 0 0 1 .636-.758c.08-.095.16-.19.248-.198a3.035 3.035 0 0 1 .628-.85 3.348 3.348 0 0 1 .69-1.208c1.256-1.787 2.612-3.407 3.975-5.027.32-.381.735-.682 1.055-1.063l.24-.286a9.143 9.143 0 0 1 2.636-3.14l-.088.007a1.875 1.875 0 0 1 .792-1.04l1.23-1.08.088-.007a.684.684 0 0 1 .274-.907 2.75 2.75 0 0 0 .704-1.033c.153-.278-.133-.518.02-.796.144-.366.613-.054.852-.34l1.2-1.429c.08-.095.152-.278.057-.358-.213-.423.122-.629.377-.735a13.595 13.595 0 0 0 1.97-.702 3.57 3.57 0 0 1 1.634-.496c3.769-.33 7.655-.316 11.518-.565a2.993 2.993 0 0 1 .884.01c2.812-.156 5.56-.043 8.307.07a31.088 31.088 0 0 1 4.896.455 5.467 5.467 0 0 1 2.656 1.093 4.063 4.063 0 0 0 .667.56c.27.064.534.041.598-.23a2.809 2.809 0 0 0 .128-1.704ZM491.007 5.376a.323.323 0 0 1 .27.064s.016.176-.072.183a3.65 3.65 0 0 1-1.66 1.205A5.76 5.76 0 0 1 491 5.388Zm-2.205 2.047a4.422 4.422 0 0 1-1.806 1.57 6.083 6.083 0 0 1 1.799-1.558Zm-2.046 1.856a1.368 1.368 0 0 1-.65.587 1.368 1.368 0 0 1 .643-.574Zm-.982.88a1.018 1.018 0 0 1-.575.492 1.018 1.018 0 0 1 .568-.479Zm1.163 2.195-.008-.088.088-.007c-.095.02-.095.02-.087.107Zm-9.49 5.597a4.97 4.97 0 0 1-1.934 2.112 6.242 6.242 0 0 1 1.928-2.1Zm-10.302 8.406a2.166 2.166 0 0 1-1.044.18l-7.628.666a.086.086 0 0 0 .095.08l7.712-.674c.095.08.183.072.19.16.016.175-.072.183-.16.19-.438.039-.78.157-1.131.188-4.127.272-8.318.815-12.425 1.35a61.31 61.31 0 0 0-7.921 1.31c-3.387.65-6.679 1.379-10.043 2.29a86.298 86.298 0 0 0-9.177 3.099l-.674.323c-.176.016-.336.206-.614.054-.095-.08.034-.621.29-.728a12.462 12.462 0 0 1 1.516-.835c2.903-1.136 5.909-2.105 9.01-2.994q4.4-1.18 9.087-2.119c2.423-.565 4.869-.867 7.395-1.264 4.008-.615 8.127-.975 12.15-1.415.964-.084 1.936-.08 2.896-.165a.672.672 0 0 1 .453.137c.088-.007.088-.007.095.08a.086.086 0 0 1-.08.1Zm33.107-.067-.08.095a4.698 4.698 0 0 1-1.951-.094c-.263.023-.454-.137-.713-.115-.533-.041-1.059.005-1.592-.037-3.894-.101-7.788-.203-11.743-.034-2.812.158-5.544.22-8.364.29a.659.659 0 0 1-.445-.05c-.088.008-.096-.08-.183-.072.08-.095.072-.183.16-.19l1.139-.1a2.186 2.186 0 0 0 .69-.149l-.79.07c-.358-.058-.86.251-1.162-.164.313-.469.766-.332 1.204-.37 2.725-.15 5.361-.292 8.005-.346 2.207-.017 4.42.055 6.714.031 2.03 0 4.085.261 6.123.348a11.224 11.224 0 0 1 2.508.4l.46.224c-.003.1.097.18.013.276Zm-51.457 2.288c.183.073.263-.023.351-.03l-.263.023Zm50.303-.333c-3.917-.36-7.891-.37-11.865-.376-2.111.096-4.134.185-6.245.28l-7.121.358c-.614.054-1.067-.083-.907-.274.144-.366.503-.309.853-.34 1.494-.13 3.067-.267 4.828-.333 3.52-.131 7.224-.19 10.927-.252a59.977 59.977 0 0 1 8.958.453 1.5 1.5 0 0 1 .621.034c.278.153.697-.06.922.45a1.21 1.21 0 0 1-.978.013Zm-33.788 3.394a2.677 2.677 0 0 1 .636-.758.955.955 0 0 1-.643.77Zm3.433-.124a.323.323 0 0 0-.255.111c.08-.095.16-.19.248-.198Zm-4.552 1.458a1.06 1.06 0 0 1-.4.476 1.06 1.06 0 0 1 .4-.476 1.552 1.552 0 0 1 .727-.766 1.074 1.074 0 0 1-.734.778Zm-40.025 4.733a2.124 2.124 0 0 0-1.284.465 2.623 2.623 0 0 0 1.273-.452Zm27.774 10.642c-.08.095-.24.286-.248.198-.183-.072.072-.183.152-.278.073-.183.16-.19.233-.374a.672.672 0 0 1-.148.467Zm-4.827 11.46c-.008-.088.072-.184.152-.279l-.24.286Zm11.883 5.772-.674.324.697-.06Zm-.674.324-.674.324.697-.061Zm-.674.324-.766.332.789-.07Zm-.766.332a1.657 1.657 0 0 1-.681.236l.697-.061Zm-.681.236-.941.347.964-.084Zm.697-.061.007.088a.086.086 0 0 1 .08-.096Zm-11.54 4.452.697-.061-.023-.263Zm-1.867.865a1.25 1.25 0 0 0 .51-.22 1.25 1.25 0 0 0-.51.224Zm0 0a6.063 6.063 0 0 0-.674.324Zm-1.448.657a1.923 1.923 0 0 1-.415.3l.503-.308Zm-1.1.537a2.719 2.719 0 0 0 .681-.236c-.247.11-.51.133-.677.24Zm56.985-9.747c-.126-.43-.507-.75-1.193-.514a3.299 3.299 0 0 0-.956.172.233.233 0 0 1-.286-.24.307.307 0 0 1 .167-.103c.256-.11.519-.133.774-.244a1.563 1.563 0 0 0 .845-.427.32.32 0 0 0 .137-.454.322.322 0 0 0-.38-.32l-.79.07a10.76 10.76 0 0 1-1.47.393c-2.286.111-4.526.749-6.813.86-.876.077-1.84.16-2.708.325a3.332 3.332 0 0 1-1.315.115c-.789.069-1.585.05-2.374.119a21.155 21.155 0 0 1-6.233-.603 1.922 1.922 0 0 0-.462-.225 1.03 1.03 0 0 1-.78-.903 1.717 1.717 0 0 1-.142-.606 9.72 9.72 0 0 0-1.644-3.653 1.07 1.07 0 0 0-1.456-.49c-.43.125-.765.33-1.108.45a15.709 15.709 0 0 0-3.455 2.95c-.735.682-1.462 1.452-2.19 2.222a3.086 3.086 0 0 1-.659.5c-.415.3-.78.156-1.082-.26-.103-.167-.126-.43-.229-.597a.62.62 0 0 0-1.154-.076 19.904 19.904 0 0 0-.986 1.852c-1.051 2.123-2.102 4.246-3.149 6.456a2.02 2.02 0 0 0-.243 1.258 4.838 4.838 0 0 1 .343 1.912.617.617 0 0 0 .42.758c.366.145.476.4.674.644.221.51 1.113.605 1.345.236a29.988 29.988 0 0 0 3.04-3.621 2.278 2.278 0 0 0 .529-1.018.445.445 0 0 1 .575-.492.76.76 0 0 0 .503-.309c.232-.373.65-.586.696-1.12a1.915 1.915 0 0 1 .378-.735l.263-.023a1.06 1.06 0 0 0 .4-.477l.48-.572a1.768 1.768 0 0 0 .666-.411 12.595 12.595 0 0 1 1.813-1.483l.24-.286-.263.023.24-.286 1.222-1.166c.808-.865 1.261-.728 1.54.395a5.483 5.483 0 0 0 1.739 2.674 8.387 8.387 0 0 0 4.317 1.918 27.966 27.966 0 0 0 5.48.051A85.484 85.484 0 0 0 495.59 66a4.415 4.415 0 0 0 1.037-.267l.247-.198c.088-.008.08-.095.073-.183l-.176.015c-.605.142-1.203.37-1.81.512-1.824.336-3.653.672-5.466 1.095a42.683 42.683 0 0 1-5.769.681 16.108 16.108 0 0 1-4.157-.078 1.25 1.25 0 0 1-.541-.13.189.189 0 0 1-.19-.16.307.307 0 0 1 .167-.103l1.052-.091a47.864 47.864 0 0 0 5.018-.174c.964-.084 2.008-.264 2.964-.436a68.38 68.38 0 0 0 8.424-1.619c.255-.11.518-.133.773-.244.503-.305.823-.686.697-1.116Zm-27.307-5.296-.007-.08.096.08Zm22.804 5.252c-.08.095-.168.103-.343.118-1.124.275-2.343.47-3.563.665a7.552 7.552 0 0 0-1.47.393l3.505-.306c-.168.103-.343.118-.51.221a48.062 48.062 0 0 1-8.653 1.021 4.01 4.01 0 0 1-2.054-.262l1.14-.1a19.947 19.947 0 0 1-2.238-.334c-.03-.35.24-.286.423-.213a82.245 82.245 0 0 0 9.297-.724c1.577-.138 3.14-.451 4.797-.684.02.174-.156.19-.331.205Zm-1.44.744a.529.529 0 0 1 .342-.118.323.323 0 0 1 .27.064Zm-10.505 1.002a5.149 5.149 0 0 0 1.154.076l4.207-.368a5.94 5.94 0 0 0 1.211-.282c-2.19.191-4.373.474-6.572.574Zm49.557-6.798c-4.057 3.092-8.415 5.768-12.479 8.772a16.821 16.821 0 0 1-2.678 1.643 10.396 10.396 0 0 1-2.656.934c-.087.008-.27-.064-.278-.152a.307.307 0 0 1 .073-.183 9.866 9.866 0 0 1 1.1-.537 17.623 17.623 0 0 0 3.375-1.8c1.333-.912 2.674-1.74 4-2.734 1.908-1.403 3.912-2.726 5.915-4.049 1.166-.804 2.411-1.716 3.665-2.528a7.613 7.613 0 0 0 .823-.69.76.76 0 0 0 .217-.548.558.558 0 0 0-.565-.393 1.5 1.5 0 0 0-.605.142c-.423.213-.758.42-1.181.633l-4.758 3.153a3.61 3.61 0 0 1-1.44.744 7.92 7.92 0 0 1-2.826 2.013l.217-.55a2.508 2.508 0 0 0-1.166.805l.94-.347a1.06 1.06 0 0 1-.4.476c-1.572 1.197-3.146 2.395-4.818 3.424a8.01 8.01 0 0 1-3.977.965.307.307 0 0 1-.103-.167.273.273 0 0 1 .072-.183l.423-.214a28.042 28.042 0 0 0 5.985-3.26c1.085-.713 2.163-1.514 3.241-2.314a91.597 91.597 0 0 1 8.685-5.704 1.921 1.921 0 0 0 .415-.301c.168-.103.328-.294.225-.461-.023-.263-.206-.335-.469-.312a2.414 2.414 0 0 0-1.124.274 34.087 34.087 0 0 0-5.458 3.215c-1.757 1.124-3.322 2.41-5.078 3.534a1.84 1.84 0 0 0-.495.396 20.567 20.567 0 0 1-3.671 2.452 14.036 14.036 0 0 0-1.94 1.053 1.582 1.582 0 0 1-1.417-.053c-.183-.072-.293-.328-.126-.43a4.244 4.244 0 0 0 1.147-2.043c.506-1.28.924-2.554 1.526-3.754a1.086 1.086 0 0 0 .29-.728 1.66 1.66 0 0 1 .776-1.215 8.588 8.588 0 0 0 1.356-1.708.689.689 0 0 0-.084-.964c-.454-.137-.644-.297-.507-.75a1.01 1.01 0 0 0-.53-1.014 2.08 2.08 0 0 1-1.064-1.055 1.262 1.262 0 0 0-1.894-.453 1.564 1.564 0 0 0-.552.751 3.97 3.97 0 0 1-1.687 1.913c-1.493 1.102-2.986 2.204-4.384 3.386a13.288 13.288 0 0 1-1.509.926 56.191 56.191 0 0 0-5.059 2.738 8.044 8.044 0 0 1-1.173.72 2.844 2.844 0 0 1-1.47.394.67.67 0 0 1-.675-.643 7.806 7.806 0 0 1 .452-2.865 1.4 1.4 0 0 0-.622-2.065l-.286-.24a.935.935 0 0 0-1.154-.076 3.582 3.582 0 0 0-1.135 1.159 12.078 12.078 0 0 0-1.656 4.295 6.497 6.497 0 0 0 .16 1.84 8.687 8.687 0 0 0 1.267 2.362 3.188 3.188 0 0 0 3.567 1.366 12.857 12.857 0 0 0 3.086-1.065 12.462 12.462 0 0 0 1.516-.835c1.772-.949 3.547-1.899 5.307-2.936.175-.015.255-.11.423-.213a.469.469 0 0 1 .651.384 1.5 1.5 0 0 1-.034.622 2.569 2.569 0 0 1-.106.804 8.167 8.167 0 0 0 1.678 5.059 4.398 4.398 0 0 0 4.44 1.29 10.403 10.403 0 0 0 3.836-1.572c2.259-1.434 4.335-2.94 6.498-4.453 2.411-1.716 4.918-3.34 7.417-5.063.658-.5 1.238-.991 1.82-1.395a2.4 2.4 0 0 0 .313-.47 4.172 4.172 0 0 0-1.608.848Zm-21.902-2.06-.56.667-.503.309.526-.046a4.244 4.244 0 0 1-1.813 1.483 5.666 5.666 0 0 1-1.669 1.117c-1.432.827-2.856 1.662-4.293 2.406a4.96 4.96 0 0 1-1.02.442 2.1 2.1 0 0 1-1.19.546 2.1 2.1 0 0 1-1.188.545l-.674.324-.023-.267-1.292.378c.008.087-.087.007-.183-.073a.307.307 0 0 0 .073-.183l.423-.213a98.187 98.187 0 0 0 6.67-3.493 27.282 27.282 0 0 0 4.766-3.065l1.756-1.125c-.008-.088.167-.103.175-.015a.165.165 0 0 1 .023.263Zm-14.822 1.114c-.087.008-.087.008-.08.096-.007-.088-.015-.176.073-.183Zm34.99-.761.415-.301a1.922 1.922 0 0 0-.415.305Zm-1.014.53a1.25 1.25 0 0 1 .51-.221l.503-.309a1.25 1.25 0 0 1-.51.221Zm-.823.69-.083.007-.08.096c.08-.092.08-.092.164-.099Zm-.255.11.088-.007Zm.008.088-.008-.087-.503.308c.168-.099.343-.114.511-.217Zm-.51.221-.416.302a1.921 1.921 0 0 0 .416-.298Zm-1.426.92.503-.31a1.25 1.25 0 0 1-.51.222c.007.088-.08.095-.073.183a.086.086 0 0 1 .089-.092Zm-18.208 1.767a1.5 1.5 0 0 1-.83.603 51.746 51.746 0 0 1-3.703 2.09l-4.571 2.253a4.144 4.144 0 0 1-1.463.48c-.088.008-.176.016-.183-.071-.095-.08-.015-.176.072-.183a4.287 4.287 0 0 1 .933-.435c2.968-1.407 5.92-2.99 8.69-4.645a4.288 4.288 0 0 1 .933-.434.307.307 0 0 0 .183.072.323.323 0 0 1-.06.274Zm18.132-1.672a2.2 2.2 0 0 0-.582.404 2.205 2.205 0 0 0 .583-.4Zm-1.5 1.014a2.508 2.508 0 0 0-1.166.804l1.028-.355-.087.008a1.923 1.923 0 0 1 .225-.453Zm-1.079.796-.087.008a1.924 1.924 0 0 1-.416.301Zm-.503.31a1.914 1.914 0 0 0-.658.498 1.915 1.915 0 0 0 .66-.49Zm-11.27 2.397.088-.008.008.088c.008.087-.08.095-.088.007Zm8.94-.781-.416.3a1.924 1.924 0 0 0 .416-.292Zm-.416.3a1.915 1.915 0 0 0-.659.5 3.086 3.086 0 0 0 .66-.491Zm-.651.588-.007-.08-.503.309c.164-.103.34-.118.507-.221Zm-2.091 1.33.423-.213c-.179.027-.259.119-.427.222Zm-.918.61a1.924 1.924 0 0 0 .415-.301Zm45.296-8.108c-.19-.16-.206-.335-.053-.613a.756.756 0 0 0-.188-1.132 1.622 1.622 0 0 1-.53-1.013c-.053-.613-.427-.846-1.025-.613l-.765.332c-.846.427-1.692.85-2.545 1.194l-3.985 1.941a54.593 54.593 0 0 1-6.956 3.257l-.263.023a23.928 23.928 0 0 1-4.194 1.514c-1.478.306-3.036.619-4.519.837a10.041 10.041 0 0 1-3.28-.155 1.768 1.768 0 0 1-.728-.29.536.536 0 0 1 .011-.884 1.63 1.63 0 0 1 .598-.229 41.724 41.724 0 0 0 3.829-1.659c.167-.103.43-.126.682-.236a.086.086 0 0 1 .095.08l.015.171-.328.294a13.13 13.13 0 0 1-3.39 1.62 1.116 1.116 0 0 0-.518.134c-.088.008-.255.11-.248.199.015.175.19.16.278.152a2.993 2.993 0 0 0 .869-.164 31.73 31.73 0 0 0 5.147-2.746 2.28 2.28 0 0 0 .887-.96 7.811 7.811 0 0 1 1.234-2.05 3.065 3.065 0 0 0 .654-2.619 9.371 9.371 0 0 0-1.877-4.25 2.732 2.732 0 0 0-2.568-1.1 6.538 6.538 0 0 0-3.996 1.761 27.2 27.2 0 0 0-3.287 3.82 8.983 8.983 0 0 0-1.606 5.88c.085.963.177 2.015.348 2.971a7.036 7.036 0 0 0 2.277 3.779 7.17 7.17 0 0 0 4.988 1.506 31.17 31.17 0 0 0 6.344-1.172 65.32 65.32 0 0 0 9.627-4.02 80.64 80.64 0 0 0 7.573-4.282 2.592 2.592 0 0 1 1.1-.538 1.25 1.25 0 0 0 .511-.22c-.103-.168-.118-.344-.221-.511Zm-25.223-6.714c.256-.11.336-.206.05-.446-.008-.088.064-.27.152-.278a3.709 3.709 0 0 1 1.642-.409c.095.08.183.073.19.16.104.168-.072.183-.152.278-.087.008-.255.111.016.176.087-.008.263-.023.278.152l-.248.198a.793.793 0 0 0-.43.126 10.377 10.377 0 0 0-1.722.504 9.533 9.533 0 0 0-1.604.842 2.508 2.508 0 0 1 1.825-1.295Zm2.527 1.633a.273.273 0 0 1-.072.183.323.323 0 0 1-.255.11 5.007 5.007 0 0 0-2.457 1.187 1.415 1.415 0 0 1 .952-1.231 2.44 2.44 0 0 1 1.73-.416.307.307 0 0 1 .099.176Zm-3.721 2.886a8.923 8.923 0 0 0 1.07-.888 4.367 4.367 0 0 1 1.852-1.045.415.415 0 0 1 .533.042.752.752 0 0 1 .054.613 6.691 6.691 0 0 1-1.6 1.906 7.467 7.467 0 0 1-1.859.957c-.343.118-.533-.041-.58-.567-.129-.426.111-.708.527-1.01Zm2.645 1.977c-.152.278-.415.3-.666.411l-.16.19s-.08.096-.088.008c-.088.008-.095-.08.08-.095a.307.307 0 0 1 .168-.103c.16-.19.312-.469.575-.492-.008-.087.087-.007.087-.007Zm-4.575 2.262c-.015-.176.153-.279.328-.294a7.741 7.741 0 0 1 1.276-.553c.08-.095.175-.015.183.072a.273.273 0 0 1-.072.183l-.16.19a.307.307 0 0 1 .103.169.086.086 0 0 0-.08.095 5.374 5.374 0 0 1-1.173.72c-.176.016-.423.214-.534-.041-.103-.168-.03-.35.13-.541Zm1.562-.313-.007-.088s-.084.007.007.088Zm4.485-.216-.008-.087.088-.008Zm22.008-.775c.175-.015.358.057.533.042a1.116 1.116 0 0 0-.533-.042Zm-7.97 3.787a96.291 96.291 0 0 1-6.78 3.242 28.162 28.162 0 0 1-5.837 1.926 21.656 21.656 0 0 1-4.126.273.307.307 0 0 1-.183-.073c-.015-.175.065-.27.152-.278.438-.038.869-.164 1.22-.195a30.845 30.845 0 0 0 8.815-2.183c1.955-.873 3.917-1.666 5.856-2.719.59-.316 1.363-.56 2.042-.88a.415.415 0 0 1 .533.041 6.143 6.143 0 0 1-1.692.846Zm-12.12 1.762a51.213 51.213 0 0 0 5.15-1.687c.207.336.032.35-.144.366l-1.005.618.087-.008a.273.273 0 0 0 .183.072c.095.08.103.168.016.176-.08.095-.16.19-.248.198a24.15 24.15 0 0 1-6.903 1.84.35.35 0 0 1-.366-.145 16.234 16.234 0 0 1 1.985-.527c-1.41.035-2.774.596-4.23.105 1.913-.344 3.746-.588 5.476-1.004Zm1.608.212a6.746 6.746 0 0 0 2.393-.911l-1.204.37a2.984 2.984 0 0 0-1.189.541Zm-1.211.283-.096-.08-.08.095.088-.008Z" fill="#e53729"/><path data-name="パス 585" d="M8.235 44.278a23.783 23.783 0 0 1-6.017-.68c-3.105-.865-2.93-2.222.392-3.03 10.39-2.53 24.764-5.194 42.713-7.919 16.974-2.577 37.146-5.21 59.955-7.827 44.384-5.092 97.144-9.949 152.576-14.046 56.721-4.192 113.06-7.345 162.927-9.118 26.5-.942 51.027-1.488 72.9-1.625 23.307-.145 43.78.177 60.857.955 4.479.2 7.474 1.315 6.69 2.482s-5.051 1.946-9.531 1.742c-16.011-.73-35.4-1.03-57.622-.892-21.267.132-45.178.666-71.07 1.586-49.11 1.747-104.664 4.857-160.654 8.994-54.714 4.044-106.733 8.831-150.433 13.845C66.6 33.945 32.689 39.116 13.856 43.7a24.885 24.885 0 0 1-5.621.578Z" transform="rotate(-3 2229.994 -19.212)" fill="url(#a)"/></g></svg>