<svg xmlns="http://www.w3.org/2000/svg" width="171.917" height="135.873"><defs><linearGradient id="a" x1=".396" x2=".5" y1="-.297" y2="1" gradientUnits="objectBoundingBox"><stop offset="0" stop-color="#e53729"/><stop offset=".69" stop-color="#ff652c"/><stop offset="1" stop-color="#ff652c"/></linearGradient></defs><g opacity=".15"><path fill="url(#a)" d="M2.478 30.174a3.47 3.47 0 0 1-1.81-.463c-.934-.59-.882-1.514.118-2.065a84.5 84.5 0 0 1 12.852-5.4c5.108-1.756 11.178-3.551 18.041-5.334 13.355-3.47 29.231-6.78 45.911-9.572 17.068-2.857 34.02-5.005 49.026-6.213C134.589.488 141.97.116 148.553.023a160.078 160.078 0 0 1 18.312.651c1.348.139 2.249.9 2.013 1.691s-1.52 1.326-2.868 1.187a151.853 151.853 0 0 0-17.339-.608c-6.4.09-13.594.454-21.386 1.081-14.778 1.19-31.5 3.309-48.343 6.129-16.464 2.756-32.117 6.018-45.266 9.435C20.04 23.132 9.836 26.656 4.169 29.78a3.571 3.571 0 0 1-1.691.394Z" data-name="パス 585" transform="rotate(3 -1820.912 68.34)"/><path fill="#e53729" d="M85.091 17.33a2.362 2.362 0 0 0-1.701-1.513 11.096 11.096 0 0 0-4.279-.365c-1.195.104-2.366.391-3.47.488a40.106 40.106 0 0 0-4.647.683 13.017 13.017 0 0 1-2.641.415 8.049 8.049 0 0 0-1.45.311c-1.976.635-3.892.894-5.783 1.429a1.167 1.167 0 0 1-.542.14 11.577 11.577 0 0 0-2.442.582 9.97 9.97 0 0 1-3.999.719 4.137 4.137 0 0 0-2.533.59 15.461 15.461 0 0 1-2.86 1.081 26.043 26.043 0 0 0-3.6 1.053 8.512 8.512 0 0 1-2.075.55 9.232 9.232 0 0 0-2.167.56 5.185 5.185 0 0 1-1.064.462c-1.533.41-2.95 1.088-4.492 1.408l-.359.123a20.092 20.092 0 0 1-3.035 1.189 6.891 6.891 0 0 0-1.425.586l-1.072.37a22.081 22.081 0 0 0-3.39 1.4 48.605 48.605 0 0 0-4.747 2.723c-.183.016-.266.115-.342.307a.61.61 0 0 0-.326.49 2.999 2.999 0 0 0 .949 2.41.608.608 0 0 0 .557.043l1.669-.977c-.2-.167-.315-.434-.056-.641a10.787 10.787 0 0 1 .964-.546 74.49 74.49 0 0 1 8.83-3.54 239.899 239.899 0 0 1 11.394-3.766l1.271-.291c.092-.008.275-.024.291.159a.415.415 0 0 1-.25.299c-.359.123-.801.347-1.251.478-4.234 1.2-8.444 2.677-12.57 4.053-2.326.849-4.636 1.882-6.962 2.731a3.998 3.998 0 0 0-1.66 1.068 10.048 10.048 0 0 0 1.517-.594c1.692-.702 3.38-1.5 5.17-2.113 4.56-1.691 9.144-3.107 13.812-4.619a2.546 2.546 0 0 1 .817-.163q.412-.036.299.25a3.199 3.199 0 0 1-.522 1.43l-1.747 2.184c-.976 1.47-2.067 2.766-2.946 4.32a11.157 11.157 0 0 1-1.724 2.458 6.944 6.944 0 0 0-.896 1.37c-.645 1.073-1.19 2.228-1.926 3.308-1.457 2.343-2.914 4.685-4.172 7.196-.394.773-.705 1.446-1.107 2.127a15.316 15.316 0 0 0-1.42 2.705 8.746 8.746 0 0 1-1.215 1.953 5.589 5.589 0 0 0-.804 1.362c-.613 1.438-1.425 2.71-2.138 4.064a4.012 4.012 0 0 1-1.429 1.602c-1.585.877-3.162 1.846-4.755 2.631a16.725 16.725 0 0 0-2.716 1.714 2.171 2.171 0 0 0-.66.889c-.093.008-.076.191.015.183.008.092.1.084.191.076a2.01 2.01 0 0 0 .434-.315 23.311 23.311 0 0 1 3.138-2.12c.877-.539 1.86-.902 2.828-1.452a.689.689 0 0 0 .45-.131.32.32 0 0 1 .191.075l.016.184a1.792 1.792 0 0 1-.836.996 11.155 11.155 0 0 0-1.243.57 29.589 29.589 0 0 0-4.396 2.507l-.776.626c-.251.299-.211.757.196 1.187.298.25.466.052.725-.156a.7.7 0 0 0 .354-.22c-.275.025-.474-.142-.216-.35a2.799 2.799 0 0 1 .602-.514c1.226-.753 2.47-1.32 3.703-1.985a1.167 1.167 0 0 1 .542-.14.32.32 0 0 1 .191.076l.016.183a3.267 3.267 0 0 1-.792.439 10.218 10.218 0 0 0-1.41.769l.908-.172c.45-.131.757.211.705.677a2.207 2.207 0 0 1-.545 1.152c-.553 1.063-1.107 2.127-1.568 3.183a10.835 10.835 0 0 1-.86 1.833c-.847 1.92-1.795 3.757-2.638 5.677-.788 1.546-1.377 3.26-2.257 4.813l-.31.674c-.378.956-.748 2.003-1.218 2.968a29.752 29.752 0 0 0-.93 3.127 1.523 1.523 0 0 0 .095 1.096 18.38 18.38 0 0 1 1.084 1.844c.223.442.59.41 1.048.37.366-.032.816-.164.868-.63a3.412 3.412 0 0 1 1.09-2.31.478.478 0 0 0 .152-.383 13.5 13.5 0 0 0 1.106-3.232c.251-.299.251-.299-.04-.458a2.192 2.192 0 0 1 .462-1.056c.191.076.374.06.45-.131l.219-.666a1.307 1.307 0 0 0-.534.232 3.499 3.499 0 0 1 .72-1.267l-.008-.092c.2.167.383.151.458-.04a5.978 5.978 0 0 0 .828-2.1 2.01 2.01 0 0 0-.434.316c.076-.192.143-.474.434-.315a1.482 1.482 0 0 0 .446-1.243 2.57 2.57 0 0 1 .836-2.1l.008.091c.008.092-.068.283.032.367s.175-.108.258-.207a55.35 55.35 0 0 0 1.56-3.275c.227-.574.737-1.08.315-1.69-.1-.083.067-.282.143-.474a3.436 3.436 0 0 1 .493-.689 5.864 5.864 0 0 1 .621-1.347l.064.733c.076-.19.251-.298.327-.49l1.882-3.764c-.091.008-.175.107-.267.115-.083.1-.242.39-.442.223-.091.008-.016-.183-.016-.183.16-.29.335-.398.626-.24a.09.09 0 0 0 .1.085 10.925 10.925 0 0 0 .994-2.395l-.434.315a1.446 1.446 0 0 1 .828-1.088c.518-.415 1.14-.746 1.737-1.256a1.848 1.848 0 0 1 .7-.43c.626-.24 1.172-.38 1.701-.61a78.35 78.35 0 0 1 7.652-2.238 16.803 16.803 0 0 1 8.269-.446l.183-.016c.283.068.45-.131.518-.414a3.983 3.983 0 0 1 .051-.466c-.57-1.243-1.132-2.394-2.622-2.54a11.938 11.938 0 0 0-4.796.049l-1.991.451a25.903 25.903 0 0 0-5.15 1.28 3.449 3.449 0 0 1-1 .18 1.7 1.7 0 0 1-1.705-.497l-.279.025a2.01 2.01 0 0 1 .235-.482l.04.458a8.38 8.38 0 0 0 1.751-3.2 2.01 2.01 0 0 0-.434.315 3.225 3.225 0 0 1 .438-1.33 22.055 22.055 0 0 0 1.44-2.527c.395-.773.797-1.454 1.283-2.235.159-.29.342-.307.633-.148a2.514 2.514 0 0 0 .62-1.346 9.632 9.632 0 0 0 .646-1.072 12.235 12.235 0 0 0 1.13-1.853.567.567 0 0 1-.148-.633 3.077 3.077 0 0 1 1.247-1.586 2.479 2.479 0 0 0 .677-.705l-.459.04a5.95 5.95 0 0 1 .661-.889 3.399 3.399 0 0 1 .53-1.339c.47-.964 1.042-1.845 1.6-2.816l2.201-3.332a91.402 91.402 0 0 1 6.693-8.985 1.908 1.908 0 0 1 .868-.63 2.417 2.417 0 0 0 1.318-.761 3.09 3.09 0 0 1 1.242-.57c3.235-1.021 6.584-1.78 9.834-2.613l8.059-1.808a60.323 60.323 0 0 1 9.037-1.16 2.546 2.546 0 0 1 .833.02c.749.12 1.506.33 1.502 1.346.016.183.124.359.307.343a1.223 1.223 0 0 0 1.57-1.06 5.998 5.998 0 0 0-.377-2.191Zm-2.263-.545a1.911 1.911 0 0 1-1 .18 65.463 65.463 0 0 0-7.321.732c-3.64.595-7.174 1.365-10.798 2.147a9.996 9.996 0 0 1-1.64.236 25.033 25.033 0 0 1-5.143 1.372 2.2 2.2 0 0 1-.84-.111c-.275.024-.45.132-.634.148-.1-.084-.374-.06-.382-.152-.108-.175.159-.29.25-.298 1.18-.288 2.343-.667 3.43-.946 3.445-.763 6.783-1.608 10.137-2.27 2.266-.476 4.54-.859 6.723-1.234a24.459 24.459 0 0 1 6.338-.37 2.923 2.923 0 0 1 .848.203.285.285 0 0 1 .108.176c.008.091.016.179-.076.187Zm-.039 1.669a3.727 3.727 0 0 1-1.008.088c-.64.056-1.382.028-2.023.084a62.91 62.91 0 0 0-8.29 1.279c-3.632.686-7.157 1.548-10.674 2.502-1.9.443-3.7.97-5.596 1.412a3.313 3.313 0 0 1-1.649.144 6.084 6.084 0 0 1 1.968-.726c4.417-1.217 8.926-2.442 13.458-3.391 1.908-.352 3.808-.795 5.72-1.146a44.347 44.347 0 0 1 6.955-.7 4.85 4.85 0 0 1 1.12.179c.09-.008.099.083.198.167-.095.008-.087.1-.179.108ZM55.301 21.87l-.008-.091.092-.008c.008.091.008.091-.084.1Zm-6.54 1.218c-.26.207-.626.24-.677.705a.927.927 0 0 1-.267.116c-1.617.51-3.15.921-4.776 1.34-.175.108-.458.04-.633.148l-.008-.092a2.053 2.053 0 0 1-1.258.387 7.997 7.997 0 0 1-3.227 1.113 1.82 1.82 0 0 1-.991.271 7.138 7.138 0 0 1-2.952 1.089 13.47 13.47 0 0 1-3.668 1.336 1.291 1.291 0 0 1-1.266.295l.008.092a10.652 10.652 0 0 1-3.652 1.523c-.032-.367.135-.566.485-.781.626-.24 1.155-.563 1.777-.801 3.21-1.296 6.512-2.6 9.738-3.713q5.389-1.717 10.801-3.16l.367-.031a.32.32 0 0 1 .191.075ZM37.89 26.53a.338.338 0 0 0 .267-.116c-.087.008-.179.108-.267.116Zm-.983.363 1.007-.088-.024-.275Zm-.992.271 1.008-.088-.016-.183a4.745 4.745 0 0 0-.992.271Zm0 0a.32.32 0 0 0-.175.108.285.285 0 0 0 .175-.108Zm-.259.207.08-.099c-.18.016-.18.016-.08.1Zm-2.692.882 1.007-.088-.024-.275a2.1 2.1 0 0 0-.983.363Zm-8.097 3.477a1.223 1.223 0 0 1-.71.339 1.045 1.045 0 0 1 .71-.34l-.024-.274.458-.04a2.01 2.01 0 0 1-.434.315Zm-1.585.877c-.26.207-.534.231-.458.04-.024-.275.15-.383.326-.49a1.283 1.283 0 0 1 1.008-.088l-.092.008a3.728 3.728 0 0 1-.784.53Zm11.239 14.527-.1-.084c.084-.1.168-.2.16-.29.183-.017.19.075.199.166-.084.1-.076.192-.259.208Zm-2.555 4.562-.1-.084.092-.008Zm-1.525 2.625a1.65 1.65 0 0 1 .402-.68 1.065 1.065 0 0 1-.402.68Zm-1.385 3.168-.82 1.175a3.574 3.574 0 0 1 .836-2.007 6.944 6.944 0 0 1 .895-1.371 7.79 7.79 0 0 1-.91 2.203ZM31 61.75c2.425-.766 4.95-1.448 7.484-2.038a23.61 23.61 0 0 1 4.39-.476 3.32 3.32 0 0 1 1.58.139.81.81 0 0 1-.716.247 21.598 21.598 0 0 0-2.39.116c-.367.032-.75-.119-.8.347a.553.553 0 0 1-.36.124 69.48 69.48 0 0 0-8.567 2.318c-.266.115-.633.147-.991.271a.466.466 0 0 1-.466-.052c-.008-.091.035-.649.127-.657.267-.115.434-.315.709-.339Zm7.967.32c-2.892.714-5.76 1.707-8.635 2.6l-1.259.387a.2.2 0 0 1-.2-.167c-.09.008-.007-.092-.015-.183a1.045 1.045 0 0 1 .709-.339 60.014 60.014 0 0 1 8.093-2.461 25.382 25.382 0 0 1 5.174-1.006 6.96 6.96 0 0 0 1.382-.029c-1.8.527-3.525.862-5.25 1.198Zm-19.783 7.082a4.37 4.37 0 0 0-1.669.977 4.37 4.37 0 0 0 1.669-.977Zm2.264 2.664a3.387 3.387 0 0 1-.856 1.83 3.06 3.06 0 0 1 .856-1.83 7.18 7.18 0 0 1 1.492-2.992 6.678 6.678 0 0 1-1.492 2.992Zm-3.933-1.687a1.476 1.476 0 0 0-.967.546 3.399 3.399 0 0 1 .967-.546Zm5.587 4.774.143-.474a5.098 5.098 0 0 0-.685.613c.2.172.375.056.542-.14Zm-5.391 4.902c-.176.108-.032-.366.294-.857-.064.283-.032.65-.29.857Zm-2.647 5.585a14.34 14.34 0 0 1 2.097-4.522 20.25 20.25 0 0 1-2.097 4.522Zm1.94 2.139-.007-.092Zm-3.09.547-.167.199c.083-.1.075-.191.159-.29Zm85.026-76.02a9.616 9.616 0 0 0-2.616-6.694 1.876 1.876 0 0 0-1.904-.665 2.512 2.512 0 0 0-1.677.885 19.25 19.25 0 0 1-2.389 2.24 5.95 5.95 0 0 0-.76.805c-1.58 1.984-3.165 3.97-4.642 6.037-1.306 1.96-2.803 3.845-4.208 5.722a4.25 4.25 0 0 0-.586.697c-1.206 2.044-2.611 3.92-3.825 5.873-1.943 3.124-3.985 6.168-5.645 9.356l-.478.872a13.722 13.722 0 0 0-1.6 2.817 9.19 9.19 0 0 1-.62 1.347 26.638 26.638 0 0 0-1.51 2.809 21.169 21.169 0 0 1-1.81 3.57 31.7 31.7 0 0 0-1.577 3.091c-.696 1.538-1.484 3.084-2.173 4.714a4.35 4.35 0 0 1-2.206 2.223 13.295 13.295 0 0 0-1.943 1.001l-2.035 1.009c-.534.23-1.056.553-1.593.785a42.234 42.234 0 0 0-4.28 2.778 5.359 5.359 0 0 0-1.74 2.276 15.664 15.664 0 0 1 1.895-1.55 46.622 46.622 0 0 1 9.16-5.048l.091-.008c.183-.016.442-.223.458-.04.108.176-.067.283-.243.39-.091.009-.083.1-.167.2l-.008-.092c-.733.064-1.147.655-1.669.977-.442.223-.892.355-1.242.57l-.526.323.096-.008-.8.347a4.776 4.776 0 0 1-2.203 1.208 1.317 1.317 0 0 1-.968.546c-.342.307-.776.621-1.123.929l-1.812 1.45a2.447 2.447 0 0 0-.828 1.088 1.05 1.05 0 0 0 .563 1.155c.466.052.434-.315.593-.606.092-.008.084-.1.167-.199-.19-.075-.39-.243-.223-.442a2.699 2.699 0 0 1 1.015-1.012c.968-.546 1.836-1.176 2.896-1.73 1.505-.778 3.014-1.467 4.516-2.245.175-.107.45-.131.625-.239 0 0 .191.076.2.167l-.077.192c-.35.215-.708.338-1.055.553-1.055.554-2.218 1.025-3.274 1.579-.434.315-.876.538-1.31.853l1.693-.702c.8-.347 1.6-.694 2.393-1.132l.8-.347c.276-.024.543-.14.75.119.2.167.132.45.064.733a8.545 8.545 0 0 0-.378.956 11.237 11.237 0 0 0-1.067 2.678l-.672 1.813a42.267 42.267 0 0 0-2.264 6.844 5.59 5.59 0 0 1-.68 1.721 3.445 3.445 0 0 0-.546 1.152l-1.694 5.968a11.733 11.733 0 0 0-.285 3.071 1.565 1.565 0 0 0 .295 1.267c.315.434.63.868.936 1.21a1.109 1.109 0 0 0 .499.418 3.506 3.506 0 0 0 1.366-.211 1.22 1.22 0 0 0 .47-.965c.083-.1.067-.282.15-.382.414-1.606.744-3.111 1.166-4.625A3.37 3.37 0 0 0 54.924 82c-.283-.068-.39-.243-.315-.434l.477-.873.064.733a5.864 5.864 0 0 1 .621-1.346 7.268 7.268 0 0 0 .652-3.104 1.136 1.136 0 0 1 .303-.765 7.434 7.434 0 0 1 .465-2.071c.37-1.048.911-2.203 1.285-3.251a.8.8 0 0 1 .785-.53l1.317-2.885c-.183.016-.267.116-.358.124-.084.1-.184.016-.192-.076l.084-.1c.167-.199.267-.115.466.052a2.45 2.45 0 0 0 .18-1.12 4.041 4.041 0 0 1 .464-2.07c.303-.766.788-1.547 1.09-2.312a1.924 1.924 0 0 1 .32-.581 9.368 9.368 0 0 1 3.575-2.348c2.609-.782 5.301-1.667 7.906-2.537l8.994-2.72a2.285 2.285 0 0 1 .724-.164.78.78 0 0 1 .705.677l-.182 1.128c-.286.948-.481 1.888-.768 2.836-.338 1.415-.767 2.837-1.105 4.251a29.063 29.063 0 0 0-1.118 4.067 43.39 43.39 0 0 1-1.225 5c-.557 2.08-1.022 4.151-1.587 6.139-.27 1.127-.44 2.346-.8 3.482a45.183 45.183 0 0 0-.965 4.792c-.12.749-.012.924.746 1.139.19.076.382.151.406.426l.223.442c.232.534.331.617.957.378.266-.116.45-.132.573.227.1.084.2.167.375.06.342-.307.776-.622.72-1.268a5.698 5.698 0 0 1 .182-2.139c-.442.224-.725.156-.665-.219a4.542 4.542 0 0 1 .855-2.844l.183-.016c.092-.008.1.084.108.176a10.048 10.048 0 0 1-.321 1.605l-.163 1.307a5.452 5.452 0 0 0 .513-1.522c.724-2.28 1.349-4.642 2.073-6.92a14.42 14.42 0 0 0 .5-2.721c-.083.1-.167.199-.258.207-.084.1-.267.116-.283-.068a1.705 1.705 0 0 1 .127-.657 7.12 7.12 0 0 1 .512-1.53l.105 1.195a7.118 7.118 0 0 0 .767-2.836l-.525.323a11.725 11.725 0 0 1 .791-2.562 15.586 15.586 0 0 1-.266 2.239 3.998 3.998 0 0 0 .31-.674l1.07-3.605c.84-3.027 1.595-6.048 2.447-8.984a5.37 5.37 0 0 0 .226-1.681l-.848 1.92c.012-.924.072-1.298.406-1.697.084-.1.267-.115.442-.223a5.132 5.132 0 0 0 .657-1.996 2.4 2.4 0 0 1 1.97-1.742A19.223 19.223 0 0 1 94 51.627a4.616 4.616 0 0 0 1.111.087c.375.06.618-.33.578-.789a1.564 1.564 0 0 0-.63-.868c-.897-.752-1.534-1.712-2.75-1.883a.09.09 0 0 1-.1-.083c-.573-.227-.688-.494-.653-1.147l.139-1.582.091-.008c-.49-.326-.33-.617-.088-1.008.1.084.291.16.367-.032a3.799 3.799 0 0 0 .52-1.43.32.32 0 0 1-.107-.175c-.083.1-.175.108-.167.2-.084.099-.167.198-.358.123l-.024-.275a3.925 3.925 0 0 1 1.09-2.31 1.4 1.4 0 0 0 .462-1.057c-.092.008-.176.108-.267.116-.283-.068-.207-.259-.215-.35l.437-1.331c.287-.948.673-1.813.971-2.67a8.648 8.648 0 0 1 .72-3.386l.048.55c.016.183-.152.382.223.442a3.62 3.62 0 0 0 .382-1.972c-.184.016-.267.115-.443.223l.163-1.307c.66-3.011 1.328-5.935 2.088-8.86a3.226 3.226 0 0 1 .394-.772c.076-.192.243-.39.135-.566a.732.732 0 0 1 .111-.84c.168-.2.052-.467.12-.75a3.339 3.339 0 0 1 .505-1.613c.167-.2.051-.466-.056-.641l.091-.008c-.015-1.191-.028-2.39.051-3.597Zm-5.03-5.745a.938.938 0 0 1 .81-.255l.015.183a.676.676 0 0 1-.533.231c-.092.008-.192-.075-.283-.067Zm.332.618a2.799 2.799 0 0 1-1.402.86 1.787 1.787 0 0 1 1.406-.86Zm-1.9 1.458a2.882 2.882 0 0 1-.943.82 1.636 1.636 0 0 1 .943-.82Zm2.67.97c-.183.017-.275.025-.375-.059-.091.008-.107-.175-.016-.183a.556.556 0 0 1 .526-.323.32.32 0 0 0 .191.076c.024.27-.151.378-.326.486Zm.383 2.275-.163 1.307c-.735 3.203-1.272 6.573-2.29 9.708a19.97 19.97 0 0 0-.45 2.255 12.434 12.434 0 0 1-.735 3.203 56.031 56.031 0 0 0-1.965 7.095c-.278 1.04-.648 2.088-.93 3.128a21.015 21.015 0 0 0-.8 3.482c-.27 1.127-.632 2.27-.907 3.402-.135.566-.362 1.136-.497 1.705-.143.474-.386.865-.537 1.251a1.66 1.66 0 0 1-1.203 1.028c-.983.363-1.967.726-2.959.998a3.674 3.674 0 0 1-1.724.335 7.097 7.097 0 0 0-1.359.303 34.297 34.297 0 0 1-5.218 1.56c.008.091-.083.1-.175.107-1.768.893-3.776 1.161-5.556 1.87a2.373 2.373 0 0 1-1.948-.106c-.183.016-.207-.259-.124-.359a8.762 8.762 0 0 1 1.875-2.84.7.7 0 0 1 .116-.841 2.33 2.33 0 0 0 1.206-2.044c-.016-.184.15-.383.227-.574a3.238 3.238 0 0 1 1.106-2.128c.283.068.283.068.16-.29a4.435 4.435 0 0 1 .887-2.478 42.73 42.73 0 0 0 3.391-5.559.924.924 0 0 1 .868-.63 3.199 3.199 0 0 0 .904-1.282 3.834 3.834 0 0 1 .632-2.271l2.369-3.53a1.305 1.305 0 0 1 .76-.805 1.03 1.03 0 0 0 .677-.706.455.455 0 0 1 .036-.65 16.47 16.47 0 0 1 1.608-2.724c.577-.79 1.246-1.586 1.915-2.383l.25-.3a3.686 3.686 0 0 0 1.64-2.358 2.486 2.486 0 0 1 1.43-1.602 1.884 1.884 0 0 0 1.246-1.586c.076-.191.052-.466.144-.474.617-.33.736-1.08 1.059-1.662a.966.966 0 0 1 .784-.53c.466.052.717-.247.968-.546l1.847-2.1c.335-.399.578-.789 1.131-.837.49.422.356.992.304 1.454Zm-1.502-1.346-.167.2.083-.1Zm4.242 10.519-.024-.275c-.016-.183-.115-.267-.131-.45.016.183-.068.283-.052.466.008.092-.068.283.207.259Zm-2.366 9.9.008.091a.09.09 0 0 1 .084-.1Zm-.807 3.393a.7.7 0 0 0-.143.475c.008.091.107.175.115.266-.008-.091.076-.19.16-.29.055-.379.04-.558-.136-.45Zm-19.267 2.422-.167.2c.088-.008.08-.1.163-.2Zm19.247-1.589c-.091.008-.175.108-.258.207Zm-1.456 4.466-.008-.092Zm-21.17 2.865c-.084.1-.068.283-.144.474a1.553 1.553 0 0 0 .144-.474Zm16.56 2.523a6.259 6.259 0 0 1 .54-2.263 4.843 4.843 0 0 1-.54 2.263Zm-4.822 6.052a6.987 6.987 0 0 0-2.341.763 8.914 8.914 0 0 1-2.083.459c-.992.271-1.976.634-2.968.905l-.458.04c-.091.008-.1-.083-.19-.075a.09.09 0 0 1 .086-.104 11.935 11.935 0 0 1 2.968-.906c.19.076.374.06.565.135a4.96 4.96 0 0 1 1.944-1l2.354-.483c.183-.016.267-.115.283.068a.2.2 0 0 1-.16.198ZM71.52 54.241a11.27 11.27 0 0 1 2.96-.997.32.32 0 0 0 .19.076c-.083.1-.075.191-.167.2-.992.27-1.884.625-2.875.897a.32.32 0 0 1-.112-.175Zm11.71-1.208c-.716.248-1.35.395-1.975.635.593-.606 1.334-.578 2.143-.834Zm-16.378 2.724a13.042 13.042 0 0 1 3.05-1.005 2.336 2.336 0 0 1-1.218.845l-1.716.427a.32.32 0 0 1-.192-.076c-.103-.083-.02-.183.072-.19Zm8.72-.577a7.426 7.426 0 0 1-3.051 1.005 50.617 50.617 0 0 1-5.19 1.93 5.244 5.244 0 0 1-1.187.196.09.09 0 0 0-.084.1c-.175.108-.434.315-.625.24-.275.023.076-.192.526-.324l.183-.016a8.897 8.897 0 0 1 2.135-.925 23.874 23.874 0 0 1 4.234-1.2 7.426 7.426 0 0 1 3.05-1.006 11.114 11.114 0 0 1 4.33-1.213 16.78 16.78 0 0 1-4.325 1.213Zm10.042 1.892c-.215-.35-.056-.642.004-1.016.49-1.797.88-2.57.903-2.295.164.817-.322 1.598-.524 2.446-.068.283-.036.65-.387.865Zm3.357-2.786c-.008-.092-.016-.183.076-.191a.32.32 0 0 1 .076-.192l.016.184c.004.092-.088.1-.168.199Zm-3.786 4.208a3.573 3.573 0 0 1-.692 2.645 8.626 8.626 0 0 1 .688-2.645ZM62.61 62.22c.084-.1.076-.191-.016-.183a.338.338 0 0 0-.283-.068.285.285 0 0 1 .108.176c.1.083.1.083.191.075Zm-10.75 2.693a6.419 6.419 0 0 0-2.361 1.5 7.973 7.973 0 0 0 2.361-1.5Zm34.624-.994a.285.285 0 0 1-.108-.175 2.311 2.311 0 0 1 .438-1.33c.25-.3.14.541-.33 1.505ZM49.5 66.412c-.176.108-.359.124-.534.231a1.307 1.307 0 0 0 .534-.23Zm-.693.522c-.008-.091.075-.19.159-.29l-.25.298Zm34.309-.413c-.06.375-.028.741-.088 1.112-.6 2.637-1.209 5.183-2 7.744a3.67 3.67 0 0 1-.537 1.251 26.656 26.656 0 0 1 .894-4.509c.522-1.43.848-2.936 1.273-4.45a2.1 2.1 0 0 1 .454-1.143 5.907 5.907 0 0 1 .768-2.837 5.336 5.336 0 0 1-.764 2.832ZM53.369 78.998l-.251.299.032.367-.167.199-.024-.275c.083-.1.167-.2.159-.291.084-.1.076-.191.06-.374.083-.1.083-.1.175-.108Zm25.734 2.921a9.873 9.873 0 0 1 .97-3.685 8.434 8.434 0 0 1-.97 3.685Zm3.146-2.029c-.06.375-.028.741-.478.873a1.209 1.209 0 0 1 .195-.94l.445-1.243a5.305 5.305 0 0 1-.162 1.31Zm80.57-73.137a10.061 10.061 0 0 0-2.607-4.48 4.692 4.692 0 0 0-1.928-.935 5.949 5.949 0 0 1-1.227-.262 4.13 4.13 0 0 0-2.972-.202l-.732.064a3.14 3.14 0 0 0-1.359.303 6.149 6.149 0 0 1-1.7.61 5.185 5.185 0 0 0-1.064.463c-.7.43-1.501.777-2.202 1.207a31.228 31.228 0 0 0-4.373 2.783l-.167.199a8.335 8.335 0 0 1-1.378 1.136 17.953 17.953 0 0 0-1.97 1.741 114.063 114.063 0 0 0-4.755 4.754c-1.68 1.901-3.46 3.714-5.049 5.611a99.614 99.614 0 0 0-10.39 14.201 8.457 8.457 0 0 1-2.174 2.59 19.266 19.266 0 0 0-1.446 1.42l-.936.912c-.927 1.004-1.955 1.925-2.882 2.929-2.676 3.188-5.069 6.443-7.445 9.882l-.478.872a10.322 10.322 0 0 1-1.29 2.144 26.429 26.429 0 0 0-2.22 4.164c-.538 1.25-.98 2.578-1.505 3.916a22.691 22.691 0 0 0-2.089 6.733 2.07 2.07 0 0 1-1.516 1.706 9.31 9.31 0 0 1-2.733.423 2.546 2.546 0 0 0-1.187.196 3.689 3.689 0 0 1-1.716.427 4.477 4.477 0 0 0-1.088.187 11.733 11.733 0 0 1-3.067.822.4.4 0 0 0-.45.132l-3.29 1.391a1.993 1.993 0 0 0-1.357 2.426c.1.084.016.184.032.367a1.31 1.31 0 0 0 .645 1.047.858.858 0 0 0 1.211.08c.693-.523 1.61-.603 2.095-1.388.083-.1.358-.124.625-.24a7.214 7.214 0 0 1 1.267-.295c2.792-.797 5.612-1.228 8.34-1.744 1.55-.227 1.749-.06 2.152 1.382a13.695 13.695 0 0 0 3.365 5.802 8.055 8.055 0 0 0 2.35 1.549 13.43 13.43 0 0 0 7.199 1.033 21.45 21.45 0 0 0 7.977-2.728 57.346 57.346 0 0 0 7.575-5.185 13.845 13.845 0 0 1 1.477-1.053c.343-.307.916-.08 1.358-.303a2.072 2.072 0 0 1 1.65-.144c1.597.322 3.194.644 4.8 1.058a49.435 49.435 0 0 1 4.832 1.424 37.623 37.623 0 0 1 6.459 3.128 11.225 11.225 0 0 1 3.303 2.942 5.55 5.55 0 0 1 1.229 3.493 6.997 6.997 0 0 1-.676 2.829 22.272 22.272 0 0 1-4.1 5.897c-.594.606-1.1 1.2-1.597 1.801a6.09 6.09 0 0 0-1.199 2.136.41.41 0 0 0 .04.458.6.6 0 0 0 .475.143c.358-.124.708-.339 1.063-.462.526-.323 1.055-.554 1.585-.877.677-.706 1.346-1.503 2.015-2.3a22.63 22.63 0 0 0 3.164-4.984 14.728 14.728 0 0 0 .646-8.457 6.118 6.118 0 0 0-.833-2.143 11.088 11.088 0 0 0-3.268-3.592 25.397 25.397 0 0 0-5.618-3.02 3.399 3.399 0 0 1-1.048-.37 11.04 11.04 0 0 0-2.945-.948 6.422 6.422 0 0 1-1.896-.572 6.638 6.638 0 0 0-1.896-.658 6.098 6.098 0 0 1-1.812-.672.615.615 0 0 1-.264-.9c.168-.2.068-.283-.199-.167a1.307 1.307 0 0 0-.534.23c.168-.198.41-.589.677-.704a7.297 7.297 0 0 0 1.864-1.917 5.304 5.304 0 0 1 2.146-1.85c.267-.115.458-.04.717-.247a1.09 1.09 0 0 0-.74-.027c.668-.797 1.72-1.443 2.38-2.332 0 0 .183-.016.191.076.216.35.39.243.55-.048a1.351 1.351 0 0 0 .41-.59l.1.084a1.267 1.267 0 0 1 .338-1.414l3.197-3.603a13.856 13.856 0 0 1 1.939-2.108 23.215 23.215 0 0 1 1.724-2.459 119.928 119.928 0 0 1 4.132-5.53c.16-.291.327-.49.701-.43.283.067.35-.216.434-.316.143-.474.111-.84.546-1.151.075-.191.25-.299.326-.49a2.742 2.742 0 0 1 .96-1.653 2.213 2.213 0 0 0 .485-.781l-.275.024.251-.3a2.672 2.672 0 0 1 .92-1.095c-.148-.633.278-1.04.513-1.522.227-.574.745-.988.96-1.653a32.848 32.848 0 0 1 2.113-4.339c.394-.773.696-1.538 1.082-2.402.673-1.813 1.246-3.71 1.91-5.614a3.843 3.843 0 0 0 .287-.948c.489-1.797.882-3.677 1.276-5.466a25.919 25.919 0 0 0-.416-13.257Zm-7.718-4.864a4.513 4.513 0 0 1 2.912.576c.008.092.1.084.108.175a.09.09 0 0 0-.084.1l-.024-.275-1.007.088a4.915 4.915 0 0 1-3.008.448c-.274.024-.048-.55-.498-.418-.175.107-.366.032-.641.056a1.09 1.09 0 0 1-.741-.028 4.672 4.672 0 0 1 2.983-.722Zm-6.086 2.19a1 1 0 0 1 .45-.132 5.58 5.58 0 0 1 2.318-.941.618.618 0 0 1-.609.422 5.377 5.377 0 0 1-1.709.519 2.011 2.011 0 0 1-.434.314l-.183.016c-.108-.175.076-.19.167-.199Zm8.374.745c.024.275-.26.207-.442.223-.084.1-.092.008-.184.016a12.917 12.917 0 0 0-4.93.615 2.546 2.546 0 0 1-.817.164l-.1-.084a.338.338 0 0 1 .068-.282c.091-.008.175-.108.266-.116a24.167 24.167 0 0 1 3.792-.978 7.163 7.163 0 0 1 1.956.199c.184-.012.375.063.391.247Zm3.864 11.478a58.443 58.443 0 0 1-3.13 10.617 88.757 88.757 0 0 1-5.484 11.188c-1.45 2.434-2.986 4.876-4.546 7.136-1.649 2.267-3.305 4.443-5.06 6.535l-4.269 5.08c-1.346 1.503-2.592 3.09-4.037 4.508a153.28 153.28 0 0 0-5.53 5.376c-.594.605-1.379 1.136-2.064 1.75a7.467 7.467 0 0 0-.844.904 3.399 3.399 0 0 1-3.234 1.02l-3.434-.253a4.165 4.165 0 0 1-1.49-.147 7.536 7.536 0 0 0-2.864-.026 4.915 4.915 0 0 1-2.04-.1 12.355 12.355 0 0 0-4.536-.064 7.562 7.562 0 0 1-2.49.033 6.439 6.439 0 0 0-2.29.2l-1.279.111c-1.008.088-1.307-.162-1.486-1.162a6.82 6.82 0 0 1 .727-4.31 2.006 2.006 0 0 1 .326-.49c.076-.191.144-.474.319-.582a2.155 2.155 0 0 0 .864-1.737 8.354 8.354 0 0 1 1.412-3.908l-.008-.092a8.622 8.622 0 0 1 1.979-2.758 2.087 2.087 0 0 1 1.043-1.845 2.89 2.89 0 0 0 1.321-1.777 13.165 13.165 0 0 1 .928-2.02 1.12 1.12 0 0 1 1.047-.645 10.496 10.496 0 0 1 .92-1.096.545.545 0 0 1-.148-.633 1.237 1.237 0 0 1 .593-.606 1.564 1.564 0 0 0 .868-.63c-.14-.541-.155-.724.287-.948.091-.008.275-.024.29.16l.04.458a20.003 20.003 0 0 1 .117 2.39 13.247 13.247 0 0 0 1.233 4.6 6.06 6.06 0 0 0 3.781 3.081 1.119 1.119 0 0 0 1.275-.204c.418-.498.326-.49.103-.932a3.455 3.455 0 0 0-2.084-1.664c-.283-.067-.49-.326-.773-.394a2.38 2.38 0 0 1-.96-1.485 5.559 5.559 0 0 1-.153-1.741 30.255 30.255 0 0 1 .48-4.012 9.607 9.607 0 0 1 2.166-4.804 12.504 12.504 0 0 0 2.563-4.47l.008.09a1.483 1.483 0 0 0 .203-.848 5.877 5.877 0 0 0 1.075-1.478 6.683 6.683 0 0 1 1.624-2.543 26.935 26.935 0 0 1 3.882-5.231c.083-.1.067-.283.243-.39 1.672-1.993 3.252-3.978 5.032-5.795a6.084 6.084 0 0 1 1.62-1.526c.184-.016.284.067.367-.032s-.016-.183-.115-.267a17.27 17.27 0 0 1 3.743-3.65 3.799 3.799 0 0 1 1.437-1.51c.35-.216.792-.44 1.226-.754a5.94 5.94 0 0 1 1.872-1.825 23.311 23.311 0 0 1 3.138-2.12l.434-.316a2.314 2.314 0 0 0 1.717-.427 27.99 27.99 0 0 1 4.66-1.61 6.413 6.413 0 0 1 5.059.85 4.433 4.433 0 0 1 1.94 2.138 9.376 9.376 0 0 1 .647 3.174 18.293 18.293 0 0 1-.26 4.462Zm-19.21-4.322-.226.574c.175-.104.442-.22.227-.57Zm-7.465 7.576c-.008-.091.075-.191.159-.29l-.25.298Zm-23.835 25.161c.168-.199.343-.307.426-.406-.083.1-.15.382-.234.482a.756.756 0 0 1-.418.498c-.18.02-.02-.271.23-.57Zm43.702-1.695-.275.024.024.275Zm-46.019 4.76-.226.573c.008.092-.084.1-.092.008a.09.09 0 0 1-.1-.083 1.109 1.109 0 0 0 .423-.495Zm37.17 8.018-.084.1-.168.2a.338.338 0 0 1 .267-.116c.084-.1.084-.1-.016-.184Zm-.252.3-.458.04c.2.167.283.067.458-.04Zm-42.866 8.083-.275.024c.092-.008.108.176.275-.024Zm-1.782 4.957c.091-.008.1.083.107.175s-.083.1-.167.199c-.091.008-.1-.084-.107-.175a.2.2 0 0 1 .167-.2Zm.85 2.326c-.009-.092.075-.192.067-.283l.633-.148a52.058 52.058 0 0 1 5.322-.373c1.482.056 3.04-.08 4.52-.025 3.331.078 6.578.256 9.84.617.191.076.375.06.566.135.092-.008.191.076.207.259.008.092-.175.108-.259.207l-.183.016a1 1 0 0 1-.992.271c-2.055-.281-4.003-.388-6.043-.487a49.853 49.853 0 0 0-7.393-.093l-.458.04a19.274 19.274 0 0 0-4.597.218 2.333 2.333 0 0 1-1.111-.088c-.096.008-.112-.175-.12-.266Zm-5.832.878a.919.919 0 0 1-.426.407 6.21 6.21 0 0 1-1.267.295 64.497 64.497 0 0 0-8.333 1.832c-1.179.288-2.425.766-3.592 1.145-.184.016-.359.123-.634.147l-.183.016-.024-.27a2.734 2.734 0 0 1 1.769-.894 2.589 2.589 0 0 1 1.326-.67 50.92 50.92 0 0 1 6.409-1.667c1.187-.196 2.45-.491 3.724-.695l.916-.08a.31.31 0 0 1 .315.434Zm32.296-2.268a2.621 2.621 0 0 1 1.107-1.112 2.175 2.175 0 0 1-1.107 1.112Zm-19.478 1.056c-.092.008-.092.008-.191-.076a.338.338 0 0 1-.267.116c.091-.008.191.076.283.068s.091-.008.175-.108Zm2.956.019a.09.09 0 0 1-.1-.084.09.09 0 0 0-.084.1l.1.083c-.008-.091-.008-.091.084-.1Zm2.139.182c.083-.1.275-.024.259-.207l-.275.024c-.092.008-.183.016-.084.1a.09.09 0 0 0 .1.083Zm2.115-.092-.084.1.092-.009Zm3.346.261s-.008-.092-.091.008c-.092.008.008.092.091-.008Zm-17.204 1.78 2.382-.208a93.799 93.799 0 0 1 11.532-.084c1.399.154 2.697.226 4.088.289.183-.016.382.15.565.135.008.092.1.083.108.175-.092.008-.084.1-.175.108a1.016 1.016 0 0 1-.733.064c-1.665-.04-3.247-.178-4.912-.217-1.673-.131-3.33-.079-4.995-.118-2.482.125-5.063.166-7.537.382-.366.032-.649-.036-1.015-.004-.1-.083-.108-.175-.2-.167a.2.2 0 0 1 .168-.2 2.025 2.025 0 0 1 .728-.155Zm-6.28 1.01.007.092a.338.338 0 0 1-.267.116l-1.533.41a68.848 68.848 0 0 0-9.607 2.044 1.167 1.167 0 0 1-.542.14c-.1-.084-.191-.076-.199-.167 0 0-.016-.184.076-.192l.709-.338q3.513-1 7.05-1.72c1.274-.204 2.457-.4 3.648-.504.184-.016.45-.131.65.036Zm10.988 6.333a12.203 12.203 0 0 1-4.254-.09 1.668 1.668 0 0 1-1.487-1.162c-.279-1.08-.733-2.06-.921-3.15a1.618 1.618 0 0 1 .445-1.244 2.174 2.174 0 0 1 1.677-.885 18.903 18.903 0 0 1 3.222-.097l.733-.064c3.032-.172 5.987-.153 9.043-.051a18.959 18.959 0 0 0 2.406.067l1.306.162a.386.386 0 0 1 .323.526 2.171 2.171 0 0 1-.478.873 8.86 8.86 0 0 1-1.736 1.255c-1.502.777-2.995 1.646-4.596 2.34a19.716 19.716 0 0 1-5.683 1.52Zm25.443-7.762a58.754 58.754 0 0 1 11.207 3.545 26.043 26.043 0 0 1 2.725 1.608c.1.083.207.259.124.358-.076.191-.267.116-.367.032a32.456 32.456 0 0 1-3.1-1.668l-.274.024-.574-.226-.482-.235-.574-.227-.773-.394a.587.587 0 0 1-.55.048 2.01 2.01 0 0 0-.482-.235l-.573-.227a2.2 2.2 0 0 1-1.323-.346l.092-.008a3.566 3.566 0 0 1-2.18-.64 2.923 2.923 0 0 1-1.298-.071l-3.02-.752c-.191-.075-.207-.259-.04-.458.175-.108.342-.307.534-.231a2.72 2.72 0 0 1 .928.103Zm-18.866 8.018a.7.7 0 0 1 .15-.382 19.354 19.354 0 0 0-2.15.742c-.175.107-.617.33-.641.056-.124-.359.342-.307.518-.415a3.786 3.786 0 0 1 .708-.339 39.443 39.443 0 0 0 7.492-4.066c.434-.315.86-.721 1.386-1.044a1.541 1.541 0 0 1 1.071-.37c.008.091.1.083.2.167a.338.338 0 0 1-.068.283 3.609 3.609 0 0 1-1.219.845l-.25.298-.025-.274a5.133 5.133 0 0 1-.693.522l-.525.323.55-.048a4.751 4.751 0 0 1-1.554 1.239 17.798 17.798 0 0 1-4.671 2.531c-.088.008-.271.024-.28-.068Zm30.81-1.307a20.968 20.968 0 0 0-2.884-1.317 84.613 84.613 0 0 0-10.788-3.027 2.734 2.734 0 0 1-1.896-.573 1.804 1.804 0 0 1 1.382-.028 59.807 59.807 0 0 1 10.577 2.768 39.934 39.934 0 0 1 4.438 2.197 3.173 3.173 0 0 1 .889.66 4.668 4.668 0 0 1-1.717-.68Zm-23.634-3.197.275-.024-.024-.275Zm19.052-.649.55-.048c-.191-.076-.29-.16-.474-.143a.285.285 0 0 1-.076.191Zm-16.176 1.875a36.415 36.415 0 0 1-8.06 4.95 7.788 7.788 0 0 1-1.525.503l-.2-.167a.32.32 0 0 1 .076-.191l.709-.34a43.572 43.572 0 0 0 7.73-4.552 4.93 4.93 0 0 1 .968-.546c.175-.107.35-.215.458-.04.195.168.02.275-.16.383Zm-5.564.763a.338.338 0 0 1 .267-.116c.083-.1.159-.29.326-.49a2.754 2.754 0 0 1-.7.43c-.084.1-.084.1.015.184Zm-1.86.901c.175-.108.359-.124.442-.223-.183.016-.267.115-.442.223Z" data-name="パス 608"/></g></svg>