<svg xmlns="http://www.w3.org/2000/svg" width="1093.8" height="263.949"><g opacity=".08" fill="#e53729"><path data-name="パス 585" d="M24.77 255.583a58.98 58.98 0 0 1-11.632-1.015c-6.006-1.291-5.663-3.316.759-4.523 20.089-3.776 47.87-7.752 82.574-11.819 32.815-3.846 71.811-7.776 115.905-11.682 85.801-7.6 187.796-14.849 294.957-20.964 109.648-6.257 218.564-10.962 314.963-13.608 51.225-1.4 98.644-2.222 140.937-2.424 45.056-.216 84.635.263 117.647 1.426 8.66.3 14.45 1.963 12.933 3.704s-9.764 2.902-18.425 2.602c-30.953-1.09-68.43-1.538-111.394-1.331-41.112.2-87.338.994-137.392 2.367-94.945 2.602-202.342 7.248-310.58 13.424-105.772 6.033-206.334 13.178-290.816 20.66-87.61 7.76-153.163 15.479-189.57 22.321a61.82 61.82 0 0 1-10.867.862Z"/><path data-name="パス 595" d="M156.614 83.895a23.253 23.253 0 0 0-3.075-8.548 7.36 7.36 0 0 0-1.75-2.044.735.735 0 0 0-1.293.396l.06 1.147a10.405 10.405 0 0 0 1.075 4.873 23.562 23.562 0 0 1 1.494 16.023 58.72 58.72 0 0 1-3.213 10.847 166.435 166.435 0 0 1-11.574 23.77 130.365 130.365 0 0 1-8.034 12.914c-.906 1.526-1.976 3.06-2.882 4.586l-8.12 11.268c-1.38 1.875-2.916 3.93-4.46 5.819a87.2 87.2 0 0 0-4.945 6.008c-2.623 3.255-5.746 6.375-8.705 9.487-2.494 2.595-4.996 5.025-7.325 7.611a14.792 14.792 0 0 1-4.417 3.517l-.793.534a54.893 54.893 0 0 1-8.264 5.36 34.06 34.06 0 0 1-9.341 3.61 13.406 13.406 0 0 1-4.415.394c-1.647-.078-1.992-.389-2.41-2.01a14.085 14.085 0 0 0-.636-2.76 8.696 8.696 0 0 1-.731-4.562 38.946 38.946 0 0 1 1.302-9.597c.967-3.665 1.598-7.313 2.72-10.986a4.37 4.37 0 0 1 1.813-3.052c.474-.353.466-.517-.094-1.798l-.034-.655a13.86 13.86 0 0 1 .674-2.829 17.781 17.781 0 0 1 1.148-3.185c2.66-8.847 5.82-17.555 9.316-26.117a19.533 19.533 0 0 1 1.346-2.535c.768-1.025 1.705-1.892 1.804-3.215l-.328.017c-.164.008-.164.008-.155.172l-.009-.164.164-.008a2.332 2.332 0 0 0 .277-1 7.884 7.884 0 0 1 2.084-4.217 1.674 1.674 0 0 1 .25-1.491 5.42 5.42 0 0 0 .761-4.312c-.404-1.457-.481-2.932-1.533-4.192-.345-.31-.37-.802-.551-1.12a2.08 2.08 0 0 0-.733-1.441 1.34 1.34 0 0 0-1.983-.225 6.768 6.768 0 0 0-2.045 1.75c-3.252 3.784-6.497 7.732-9.568 11.835a45.058 45.058 0 0 1-3.383 4.448 22.521 22.521 0 0 0-3.089 3.776 17.437 17.437 0 0 1-1.38 1.876c-2.925 3.767-6.018 7.543-9.103 11.318-2.308 3.082-4.784 6-7.088 9.082a68.831 68.831 0 0 0-6.01 7.707 11.66 11.66 0 0 1-2.329 2.586 30.214 30.214 0 0 0-3.114 3.284c-1.687 2.224-3.563 4.13-5.263 6.186a47.785 47.785 0 0 1-4.823 5.184 4.35 4.35 0 0 0-.768 1.026 4.227 4.227 0 0 1-3.028 1.801c-.163.009-.336-.146-.672-.293-.164.008-.32.18-.483.19-.32.18-.492.025-.345-.311a2.943 2.943 0 0 1 .763-1.19l.069 1.31a6.129 6.129 0 0 0 .927-1.198c.863-2.35 2.067-4.544 2.754-7.044a1.254 1.254 0 0 0-.802.37l.406-1.664c.147-.336.285-.836.621-.69.5.139.198.647.215.975 1.545-1.884 2.236-4.388 3.271-6.582-.008-.164.139-.5-.198-.647-1-.276-.37-.802.113-.992a5.302 5.302 0 0 0 1.696-2.06c.448-.845.889-1.85 1.329-2.862a7.896 7.896 0 0 0 1.17-2.682c-.672-.294-.672-.294-.051-.983l-.155.172.44-1.009a3.91 3.91 0 0 1 .89-1.85l.067 1.304c2.425-3.906 4.014-8.096 6.102-12.148.138-.5.285-.837.423-1.337l-.487.026a3.91 3.91 0 0 1 .889-1.85.992.992 0 0 1 .957-.543l-.163.009a6.043 6.043 0 0 0 1.636-3.207c-.673-.294-.199-.647-.052-.983.751-1.354 1.157-3.018 2.244-4.225a13.224 13.224 0 0 0 1.812-3.052 26.546 26.546 0 0 1 1.485-3.035l5.39-9.975c2.701-4.905 5.222-10.13 8.423-14.898a17.308 17.308 0 0 0 2.201-5.043 3.138 3.138 0 0 0-.818-3.08c-.517-.465-1.017-.603-1.483-.086a9.392 9.392 0 0 0-2.32 2.75c-1.83 2.724-3.66 5.448-5.316 8.328-1.821 2.888-3.478 5.767-5.29 8.82-.751 1.353-1.83 2.724-2.58 4.077a131.285 131.285 0 0 1-6.792 11.527c-.751 1.353-1.502 2.707-2.093 4.052a59.867 59.867 0 0 1-2.4 4.397c-.742 1.518-1.652 2.88-2.399 4.397-1.77 3.871-4.039 7.604-5.964 11.648-1.19 2.366-2.718 4.578-3.4 7.242a6.651 6.651 0 0 1-.743 1.518 26.112 26.112 0 0 0-1.926 3.71l-2.641 6.05c-1.053 1.866-1.938 3.883-2.99 5.746a6.65 6.65 0 0 0-.743 1.517c-.708 2.173-1.744 4.363-2.615 6.548-1.33 2.855-2.49 5.876-3.488 8.722a9.25 9.25 0 0 0-.553 2 3.077 3.077 0 0 0 .792 2.587 6.244 6.244 0 0 1 1.586 2.053 2.982 2.982 0 0 0 1.732 1.713 17.896 17.896 0 0 0 1.85.89 2.313 2.313 0 0 0 2.29-.284 7.285 7.285 0 0 0 1.73-1.405 80.291 80.291 0 0 0 5.486-5.05c2.796-3.104 5.763-6.052 8.559-9.155 2.33-2.586 4.486-5.328 6.98-7.922a14.794 14.794 0 0 0 1.389-1.716c1.225-1.707 2.787-3.267 4.176-4.982a45.058 45.058 0 0 0 3.382-4.449c.31-.345.138-.5-.043-.819a3.573 3.573 0 0 1 .751-1.354c1.855-2.232 3.53-4.784 5.393-6.853.94-.87 1.544-1.884 2.665-2.443a2.201 2.201 0 0 0 1.096-1.043c.863-2.35 2.58-4.078 4.133-5.802a1.852 1.852 0 0 0 1.773-.585l1.217-1.867c-.828-.121-1-.277-.698-.785 2.152-2.906 4.297-5.81 6.61-8.724a2.265 2.265 0 0 1 .629-.526.6.6 0 0 1 .483-.19.986.986 0 0 1 .198.647c-.562 1.833-.795 3.656-1.356 5.493-2.016 5.527-4.196 10.898-5.872 16.572a208.31 208.31 0 0 0-5.908 22.003 51.9 51.9 0 0 0-1.106 13.366c.102 5.088 2.61 9.065 6.247 12.654a9.104 9.104 0 0 0 1.362.914 17.05 17.05 0 0 0 13.884 1.58 35.162 35.162 0 0 0 8.65-4.23 103.047 103.047 0 0 0 10.922-7.964 22.658 22.658 0 0 0 4.193-4.655c1.772-.585 2.855-1.952 3.925-3.49l-1.315.068c-.155.172-.138.5-.293.672.008.164-.156.173-.328.018l.155-.173.466-.517.466-.517c.155-.173.31-.345.647-.198s.19.483.207.81l2.027-2.077a.6.6 0 0 0 .138-.5c.242-1.656.234-1.816.7-2.34.94-.871 1.704-1.893 2.648-2.768 2.623-3.258 5.255-6.353 7.714-9.603a17.594 17.594 0 0 1 4.176-4.987 16.037 16.037 0 0 1 4.28-6.134 10.93 10.93 0 0 1 1.95-3.552c1.83-2.724 4.331-5.155 5.644-8.345a1.977 1.977 0 0 1 .776-.862c1.696-2.06 3.4-4.12 4.082-6.785.147-.336.138-.5.293-.672 1.209-2.035 2.417-4.07 3.461-6.092 1.217-1.867 2.606-3.586 3.306-5.923a.573.573 0 0 0 .147-.336 67.151 67.151 0 0 0 3.702-7.75 67.868 67.868 0 0 1 2.91-7.218c-.009-.163.146-.336.138-.5.846-2.673 1.692-5.346 2.366-8.174a46.881 46.881 0 0 0 .612-19.76ZM40.608 127.742l-.163.008.155-.172Zm-.31.345a2.551 2.551 0 0 1-.915 1.362Zm42.721.074a2.08 2.08 0 0 0-.215-.974l.051.983Zm-43.912 2.292a9.104 9.104 0 0 0-.915 1.362 2.551 2.551 0 0 1 .915-1.366Zm-1.38 1.875a8.093 8.093 0 0 1-2.366 5.053 14.28 14.28 0 0 1 2.365-5.053Zm3.715 1.942a1.479 1.479 0 0 1 .207.811c.146-.336.138-.5-.207-.81Zm.215.975-.009-.168-.155.172Zm39.057-.889-.009-.163-.164.008.009.164Zm-1.032 2.19.155-.172-.172-.156-.156.173a.161.161 0 0 1 .173.155Zm-41.02 4.277a5.563 5.563 0 0 0 1.355-2.375l-.957.543Zm-4.94-.235a2.951 2.951 0 0 1-.907 1.526 2.951 2.951 0 0 1 .906-1.526Zm33.342-.097c-.155.172-.155.172-.319.18l.164-.008a.161.161 0 0 0 .155-.172Zm-35.016 2.813c.155-.172.319-.18.31-.345l.026.492-.155.172c-.156.008-.329-.147-.173-.32Zm45.887-2.23.163-.01c-.017-.327-.017-.327-.172-.154ZM36.212 144.4a1.49 1.49 0 0 1 .432-1.172.161.161 0 0 1 .155-.173l.173.155c-.303.34-.44.849-.752 1.19Zm-.457.681.155-.172c-.008-.164-.008-.164.156-.173l.008.164c-.147.172-.139.336-.311.18Zm-5.313 2.08a5.032 5.032 0 0 1-1.355 2.376 4.313 4.313 0 0 1 1.359-2.371Zm2.344 3.986a9.104 9.104 0 0 1 .914-1.362 2.551 2.551 0 0 1-.906 1.365Zm41.703-.534a4.762 4.762 0 0 0 .847-2.673 4.23 4.23 0 0 0-.838 2.677Zm-45.842-.072c.008.164.008.164-.156.173a.161.161 0 0 1 .164-.169Zm-1.787 3.544a.353.353 0 0 1 .31-.345c-.155.173-.155.173-.146.336-.155.173-.155.173-.32.181a.161.161 0 0 1 .164-.169Zm-2.21 4.72a2.278 2.278 0 0 1 .734-1.682 2.278 2.278 0 0 1-.734 1.682 7.884 7.884 0 0 1-2.084 4.216 9.21 9.21 0 0 1 2.084-4.216Zm29.778-2.376.466-.517c-.155.172-.31.344-.475.353Zm-25.32 2.8c.164-.008.336.147.509.302l-.492.026a.161.161 0 0 1-.172-.155c-.009-.164-.017-.328.155-.173Zm101.975-4.176.777-.862c-.32.185-.466.52-.777.862ZM18.875 170.928a9.261 9.261 0 0 1 2.529-5.06 2.278 2.278 0 0 1 .734-1.682 7.664 7.664 0 0 1-.734 1.682 11.335 11.335 0 0 1-2.529 5.06 14.707 14.707 0 0 1-2.805 6.058 18.501 18.501 0 0 1 2.805-6.05Zm109.326-11.292c-.009-.164-.017-.328-.337-.147a1.244 1.244 0 0 0-.638.362 1.479 1.479 0 0 0 .81-.206Zm-80.119 4.346c-.18-.319-.655.034-.983.051.673.302 1.332.268.988-.04Zm-8.918 2.269c.138-.5.457-.681.768-1.026a1.6 1.6 0 0 1-.763 1.038Zm-1.687 2.224a3.287 3.287 0 0 1 1.536-2.052 3.832 3.832 0 0 1-1.535 2.064Zm86.892-3.55.466-.517c-.318.193-.31.357-.465.53Zm0 0-1.423 1.06a1.435 1.435 0 0 0 1.424-1.048ZM30.981 176.22a12.536 12.536 0 0 1 3.39-4.284 12.32 12.32 0 0 1-3.39 4.284Zm-7.864-2.707Zm11.148 5.822-.155.172a.161.161 0 0 1 .155-.172Zm-14.517 8.315a3.55 3.55 0 0 1 1.696-2.06 18.415 18.415 0 0 0 3.467-2.81c.156-.172.311-.344.475-.353a2.901 2.901 0 0 1-.751 1.354c-2.019 2.24-3.857 4.801-6.548 6.753l-.009-.168c-.237-1.466.548-2.164 1.67-2.716Zm-8.055-.072a6.672 6.672 0 0 1 1.908-4.372 14.857 14.857 0 0 1-1.908 4.372Zm17.938-2.584a62.896 62.896 0 0 1-4.512 4.844l-6.548 6.754a21.829 21.829 0 0 1-2.993 2.46c-.164.009-.483.19-.664-.13-.008-.163-.025-.491.139-.5a1.977 1.977 0 0 1 .776-.862q5.41-4.964 10.301-10.395a16.65 16.65 0 0 1 4.262-3.344c.033.643-.45.833-.76 1.173Zm65.187 5.474c.19.483-.13.664-.284.836-1.251 1.216-2.33 2.587-3.951 3a19.35 19.35 0 0 1 4.235-3.836Zm-4.718 4.025.32-.016c-.156.172-.156.172-.147.336l-.164.008c-.16.009-.168-.151-.013-.328Zm6.47 1.141c-.154.173-.482.19-.637.362-.458.681-.907 1.526-1.89 1.577-.483.19.45-.845 1.89-1.577l.465-.517c-.008-.164.156-.173.32-.181a.573.573 0 0 1-.155.337ZM75.88 202.3a2.663 2.663 0 0 1 1.433-.896c2.717-1.456 5.442-2.749 7.987-4.36a9.742 9.742 0 0 1 1.276-.724.6.6 0 0 1 .5.138.508.508 0 0 1-.146.337c.008.163-.147.336-.302.508l-.168.009a3.44 3.44 0 0 0-1.26 1.052 9.16 9.16 0 0 0 1.268-.888c.173.155.345.31.19.483.009.164-.147.336-.302.509a25.06 25.06 0 0 1-7.333 4.161c-.483.19-1.13.388-1.327-.26-.668-.129-1.126.552-1.815-.069Zm7.565-3.023.957-.543a2.772 2.772 0 0 0 .802-.37c-.319.18-.646.197-.966.378a3.587 3.587 0 0 1-.793.535Zm7.907.408a34.816 34.816 0 0 1-12.446 7.062 4.078 4.078 0 0 1-1.302.232.6.6 0 0 1-.5-.138c.163-.009.146-.337.146-.337l1.285-.56a49.715 49.715 0 0 0 10.066-5.454 23.727 23.727 0 0 1 3.528-1.667c-.31.345-.457.681-.777.862Zm-7.907-.408a3.587 3.587 0 0 0-.794.534Zm-2.553 1.447-.958.543a2.332 2.332 0 0 1 .966-.379Zm119.482-46.489c-.345-.31-.362-.638-.06-1.147a1.41 1.41 0 0 0-.275-2.121 3.027 3.027 0 0 1-.922-1.924c-.06-1.147-.74-1.604-1.867-1.217l-1.449.569c-1.604.74-3.208 1.482-4.821 2.055l-7.551 3.355a101.824 101.824 0 0 1-13.18 5.617l-.491.026a44.631 44.631 0 0 1-7.918 2.549c-2.768.473-5.7.954-8.477 1.264a18.73 18.73 0 0 1-6.105-.503 3.301 3.301 0 0 1-1.345-.587 1 1 0 0 1 .078-1.647 3.041 3.041 0 0 1 1.13-.388c2.579-.956 5.002-1.74 7.245-2.842.32-.181.81-.207 1.294-.396a.161.161 0 0 1 .172.155l.017.328-.63.525a24.49 24.49 0 0 1-6.425 2.8 2.08 2.08 0 0 0-.975.215c-.164.009-.483.19-.474.354.017.327.344.31.508.302a5.582 5.582 0 0 0 1.63-.25 59.182 59.182 0 0 0 9.769-4.781 4.25 4.25 0 0 0 1.713-1.733 14.57 14.57 0 0 1 2.433-3.741 5.717 5.717 0 0 0 1.39-4.837 17.48 17.48 0 0 0-3.212-8.048 5.095 5.095 0 0 0-4.717-2.218c-2.777.31-5.372.938-7.564 3.024a50.738 50.738 0 0 0-6.376 6.904 16.756 16.756 0 0 0-3.376 10.856c.094 1.798.197 3.769.455 5.562a13.124 13.124 0 0 0 3.99 7.185 13.375 13.375 0 0 0 9.207 3.134 58.138 58.138 0 0 0 11.901-1.77A121.832 121.832 0 0 0 183.304 164a150.405 150.405 0 0 0 14.396-7.487 4.835 4.835 0 0 1 2.09-.94 2.332 2.332 0 0 0 .967-.378c-.185-.315-.202-.643-.383-.962ZM153.8 140.071c.483-.19.638-.362.12-.828-.008-.164.139-.5.303-.509a6.918 6.918 0 0 1 3.087-.654c.173.156.337.147.345.311.181.32-.147.336-.302.509-.164.008-.483.19.017.327.164-.008.492-.025.509.302l-.475.354a1.479 1.479 0 0 0-.81.206 19.355 19.355 0 0 0-3.243.827 17.781 17.781 0 0 0-3.045 1.473c.738-1.517 2.032-1.913 3.494-2.318Zm4.603 3.21a.508.508 0 0 1-.147.336.6.6 0 0 1-.483.19 9.34 9.34 0 0 0-4.657 2.046 2.64 2.64 0 0 1 1.855-2.233 4.548 4.548 0 0 1 3.251-.662.573.573 0 0 1 .177.323Zm-7.125 5.136a16.644 16.644 0 0 0 2.053-1.585 8.146 8.146 0 0 1 3.52-1.827.773.773 0 0 1 .99.112 1.4 1.4 0 0 1 .06 1.147 12.48 12.48 0 0 1-3.105 3.449 13.926 13.926 0 0 1-3.528 1.662c-.647.198-.992-.112-1.043-1.095-.21-.81.255-1.328 1.049-1.862Zm4.802 3.857c-.302.509-.794.535-1.277.724l-.31.345s-.156.172-.164.008c-.164.009-.173-.155.155-.172a.573.573 0 0 1 .319-.18c.31-.346.613-.854 1.104-.88-.008-.164.164-.009.164-.009Zm-8.669 3.903c-.017-.328.302-.509.63-.526a14.439 14.439 0 0 1 2.415-.947c.155-.173.328-.017.336.146a.508.508 0 0 1-.147.337l-.31.344a.573.573 0 0 1 .18.32.161.161 0 0 0-.154.172 10.025 10.025 0 0 1-2.239 1.267c-.327.017-.802.37-.991-.113-.181-.319-.034-.655.276-1Zm2.932-.482-.008-.164s-.168.01.004.165Zm8.374-.108-.009-.164.164-.009Zm41.074-.012c.327-.017.664.13.991.112a2.08 2.08 0 0 0-.991-.112Zm-15.107 6.543c-4.166 2.02-8.504 3.894-12.851 5.6a52.524 52.524 0 0 1-11.005 3.203 40.39 40.39 0 0 1-7.71.238.573.573 0 0 1-.336-.147c-.017-.328.138-.5.302-.509.82-.042 1.63-.249 2.29-.283a57.532 57.532 0 0 0 16.571-3.494c3.7-1.508 7.41-2.851 11.092-4.687 1.121-.551 2.579-.956 3.864-1.516a.773.773 0 0 1 .992.113 11.456 11.456 0 0 1-3.209 1.482Zm-22.71 2.5a95.52 95.52 0 0 0 9.71-2.812c.362.639.035.656-.293.673l-1.915 1.086.164-.009a.508.508 0 0 0 .336.147c.173.155.181.32.017.328-.155.172-.31.344-.474.353a45.045 45.045 0 0 1-12.988 2.982.655.655 0 0 1-.673-.293 30.284 30.284 0 0 1 3.735-.853c-2.63-.027-5.21.93-7.891-.08 3.592-.517 7.02-.86 10.275-1.523Zm2.983.501a12.585 12.585 0 0 0 4.523-1.55l-2.272.611a5.565 5.565 0 0 0-2.247.939Zm-2.281.448-.172-.156-.156.173.328-.017ZM283.283 49.192c-.836-.285-1.026-.768-.74-1.604.138-.5-.371-.802-.854-.613a7.103 7.103 0 0 0-.81.207 15.557 15.557 0 0 0-4.28 3.016c-2.186 2.25-4.201 4.491-6.556 6.586a9.898 9.898 0 0 0-1.243 1.38 19.665 19.665 0 0 1-1.872 1.9c-2.976 2.784-5.78 5.724-8.584 8.663-3.253 3.784-6.67 7.577-9.935 11.198-1.242 1.38-2.665 2.443-3.744 3.81-2.312 2.914-4.806 5.508-7.29 8.267-2.178 2.417-4.34 4.99-6.678 7.413a50.47 50.47 0 0 0-3.71 4.465 31.785 31.785 0 0 1-4.97 5.517 6.129 6.129 0 0 0-.923 1.199 37.592 37.592 0 0 1-3.244 3.948c-2.779 3.43-5.385 7.017-8.163 10.444-1.678 2.392-3.21 4.603-4.565 6.974-1.51 2.544-3.02 5.087-4.703 7.475-1.519 2.383-3.038 4.759-4.392 7.13-1.502 2.707-2.84 5.405-4.178 8.104a49.58 49.58 0 0 0-4.687 10.924 10.173 10.173 0 0 0-.459 3.803 15.143 15.143 0 0 0 3.592 9.013c3.68 4.408 8.664 5.458 13.797 3.059a25.995 25.995 0 0 0 9.463-7.56 4.757 4.757 0 0 0 1.346-2.534 23.727 23.727 0 0 1 1.291-3.674c1.795-3.38 2.408-4.233.694-8.744-.396-1.293-.086-1.638 1.225-1.707a.6.6 0 0 1 .483-.19 75.742 75.742 0 0 0 10.59-1.702 22.256 22.256 0 0 0 4.701-1.231 38.446 38.446 0 0 1 6.443-2.472q6.779-2.326 13.532-5.143a3.663 3.663 0 0 0 2.08-1.094l-.01-.164a.573.573 0 0 0-.336-.146 1.784 1.784 0 0 0-.81.206c-6.59 2.809-13.533 5.143-20.484 7.313a46.43 46.43 0 0 1-9.41 2.294.986.986 0 0 1-.664-.13.161.161 0 0 1-.172-.155l.155-.172c.328-.017.483-.19.81-.207 6.978-1.679 13.748-4.168 20.528-6.493 2.742-.965 5.477-2.09 8.22-3.058a6.367 6.367 0 0 0 1.746-1.077.853.853 0 0 0-.068-1.31 1.014 1.014 0 0 0-1.164-.269 4.79 4.79 0 0 0-1.458.405c-7.098 2.506-14.213 4.685-21.32 7.024a16.165 16.165 0 0 1-2.769.473l1.587-1.069c-1.621.413-3.251.663-4.872 1.076-.647.198-1.303.232-1.95.43a9.355 9.355 0 0 0-2.121.275 5.733 5.733 0 0 1 2.087-.93c1.782-.422 3.57-.844 5.347-1.43 7.271-2.35 14.706-4.71 22.132-7.233l1.612-.578a1.254 1.254 0 0 0 .803-.37c.155-.172.31-.345.302-.509a.524.524 0 0 0-.518-.466.721.721 0 0 0-.827-.12 6.978 6.978 0 0 0-1.782.42c-3.398 1-6.804 1.835-10.194 2.997-3.398 1-6.952 2.167-10.505 3.342a13.08 13.08 0 0 1-2.432.62 94.068 94.068 0 0 1-9.443 1.643 79.843 79.843 0 0 1-8.857.298 3.201 3.201 0 0 1-1.32-.096c-1-.276-1.84-.725-2.051-1.536-.38-.966.406-1.664 1.2-2.198a.161.161 0 0 1 .155-.173 8.363 8.363 0 0 0 2.623-3.258 12.238 12.238 0 0 0 1.04-2.014.721.721 0 0 1-.206-.81 8.144 8.144 0 0 1 2.606-3.587 17.978 17.978 0 0 0 3.253-3.784 133.66 133.66 0 0 1 10.487-13.199 9.38 9.38 0 0 0 1.079-1.37c.889-1.85 2.623-3.259 4.193-4.655l-.164.008a19.843 19.843 0 0 0 2.485-2.758 23.43 23.43 0 0 1 4.184-4.819c1.26-1.051 1.838-2.56 2.925-3.767a2.08 2.08 0 0 0 .113-.992 2.506 2.506 0 0 1 .57-1.672 52.394 52.394 0 0 1 5.142-5.362 12.285 12.285 0 0 1 1.976-3.06c3.416-3.793 7.005-7.43 10.077-11.534a2.786 2.786 0 0 1 .932-1.035c2.485-2.758 4.978-5.353 7.471-7.947 2.649-2.767 5.142-5.362 7.79-8.13l6.07-6.56a14.074 14.074 0 0 0 1.96-3.387 1.068 1.068 0 0 0-.41-1.462ZM255.975 83.15a4.374 4.374 0 0 0 1.88-1.742 6.924 6.924 0 0 0-1.88 1.742Zm-7.74 9.111-.819.043a17.897 17.897 0 0 0-.889 1.85 3.236 3.236 0 0 0 1.709-1.893Zm-39.646 49.387c-.155.173-.328.017-.336-.146q.22-.505.466-.518l.172.156c.017.327-.138.5-.302.508Zm30.31 4.662c.647-.199 1.13-.388 1.772-.586l-1.78.422c-.648.198-1.13.387-1.774.585Zm-1.782.421c-.163.009-.155.173-.319.181.16-.008.16-.008.315-.18Zm-6.787 2.158a8.236 8.236 0 0 0 1.949-.43 4.162 4.162 0 0 0-1.953.434Zm-2.08 1.094.328-.017a.573.573 0 0 1-.319.18l-.164.01c-.167.012-.012-.164.156-.173Zm-20.68 6.834a14.439 14.439 0 0 1 2.5.69 2.351 2.351 0 0 1 1.146 3.063 20.42 20.42 0 0 1-1.468 3.362c-1.838 2.56-3.693 4.793-5.535 7.19a8.367 8.367 0 0 1-4.14 2.52l-3.563 1.007c-1.966.103-3.664-.959-3.275-2.95l.431-1.177c-.008-.164.156-.172.32-.18l.008.163c.18.32.026.491.362.638l.31-.345a18.228 18.228 0 0 1 1.01-2.685c.57-1.673 1.313-3.19 1.882-4.863a8.572 8.572 0 0 0 .968-3.5 9.526 9.526 0 0 1 1.593-4.027 1.429 1.429 0 0 1 1.773-.585 7.998 7.998 0 0 1 1.832.561 10.354 10.354 0 0 0 3.845 1.118Zm-8.02 19.477a50.707 50.707 0 0 0 7.008-4.309 15.343 15.343 0 0 0 2.993-2.46c-.008-.164.32-.181.32-.181.335.146.18.319.025.491.008.164-.155.173-.147.336a4.039 4.039 0 0 1-3.191 1.81c.034.655-.432 1.173-.726 1.841a1.2 1.2 0 0 1-.276 1 5.903 5.903 0 0 1-3.347 1.978c-.483.19-.345-.31-.354-.474l-2.432.62c-.352-.463-.033-.644.13-.652Zm11.792-.784a44.951 44.951 0 0 1-5.698 4.076 11.166 11.166 0 0 1-3.864 1.516.573.573 0 0 1-.336-.146c-.172-.156-.017-.328.147-.337a2.644 2.644 0 0 1 1.112-.715 28.798 28.798 0 0 0 6.673-4.291 6.303 6.303 0 0 1 2.872-1.629 3.874 3.874 0 0 1-.906 1.526ZM410.213 47.817c-.19-.483-.672-.294-1.164-.268s-.81.206-1.302.232a9.904 9.904 0 0 0 1.242-1.38.7.7 0 0 0 .113-.99c-.181-.32-.664-.13-.983.05a6.065 6.065 0 0 0-1.756.914 34.522 34.522 0 0 0-7.263 5.636 9.018 9.018 0 0 1-1.415 1.224c-1.423 1.06-2.683 2.112-4.098 3.336-4.71 4.189-9.937 7.912-14.475 12.256l-.475.353c-2.204 1.919-4.244 3.672-6.28 5.586-5.038 4.206-9.378 9.197-14.243 13.558-2.666 2.444-5.16 5.034-7.644 7.793-2.313 2.914-5.134 5.525-7.61 8.448-1.553 1.724-3.106 3.448-4.65 5.336a15.636 15.636 0 0 1-4.202 4.49c-.164.01-.32.182-.474.354-1.398 1.552-2.796 3.103-4.202 4.49s-2.295 3.242-3.702 4.63c-2.795 3.103-5.09 6.345-7.55 9.595a16.378 16.378 0 0 1-3.744 3.81 52.833 52.833 0 0 1-3.976 2.512 1.123 1.123 0 0 1-1.656-.243 12.238 12.238 0 0 1-1.253-1.906 6.695 6.695 0 0 0-3.57-2.278 6.47 6.47 0 0 0-3.94.041c-3.562 1.008-6.78 2.326-9.264 5.084a17.967 17.967 0 0 1-1.713 1.733 15.107 15.107 0 0 0-4.642 5.5 5.743 5.743 0 0 0-.76 4.311 21.1 21.1 0 0 0 .817 3.079 5.674 5.674 0 0 0 6.958 4.237l4.036-1.36a46.76 46.76 0 0 0 11.42-4.704 2.948 2.948 0 0 1 1.44-.732 3.34 3.34 0 0 0 2.406-1.112c.303-.509.966-.379 1.165.268.361.638.568 1.449.93 2.087a8.019 8.019 0 0 0 7.802 4.686 20.357 20.357 0 0 0 8.107-2.066 85.939 85.939 0 0 0 10.243-5.3c7.323-4.489 14.483-8.97 21.814-13.296.32-.18.966-.379.94-.87-.008-.164-.508-.302-.689-.622-.172-.155-.025-.491-.043-.819a1.185 1.185 0 0 0-.421-1.781c-.845-.449-1.362-.915-1.094-2.079.138-.5-.716-1.113-1.363-.914a1.419 1.419 0 0 0-.957.542c-1.113.716-2.398 1.276-3.51 1.987a21.91 21.91 0 0 0-2.89 1.3 10.992 10.992 0 0 1-2.89 1.302 20.54 20.54 0 0 0-6.564 3.3 26.112 26.112 0 0 1-3.493 2.318c-3.675 1.995-7.513 4.007-11.179 6.17a12.946 12.946 0 0 1-4.683 1.558l-.983.052a1.014 1.014 0 0 1-.888-1.268 10.457 10.457 0 0 1 .268-1.165c1.208-2.034 2.084-4.216 3.97-5.793l-.173.01c.915-1.363 1.502-2.708 2.417-4.07a20.831 20.831 0 0 1 5.754-6.211 1.473 1.473 0 0 1 .251-1.492l1.398-1.552c2.17-2.577 4.495-5.163 6.67-7.577a6.424 6.424 0 0 1 1.57-1.396 4.488 4.488 0 0 0 2.018-2.241c.13-.664.604-1.018 1.07-1.535a11.487 11.487 0 0 0 2.502-2.435c1.225-1.707 2.795-3.103 4.029-4.646a22.404 22.404 0 0 1 3.606-3.31l-.026-.491a29.326 29.326 0 0 1 3.391-4.285c-.525-.63.113-.991.424-1.336l-.424 1.336a10.219 10.219 0 0 0 2.83-2.452 30.797 30.797 0 0 1 5.314-5.206 3.874 3.874 0 0 0 1.406-1.388 11.822 11.822 0 0 1 3.115-3.284 3.722 3.722 0 0 0 1.661-2.715 1.418 1.418 0 0 1 .44-1.01 30.698 30.698 0 0 1 5.496-4.886l.466-.518.466-.517-.164.009a39.849 39.849 0 0 1 4.693-4.517l2.985-2.62c1.89-1.577 3.606-3.31 5.849-4.413l.466-.517a17.434 17.434 0 0 1 4.693-4.517l1.423-1.06a130.24 130.24 0 0 0 9.18-9.844 7.58 7.58 0 0 0 1.087-1.207c.151-.328.453-.837.1-1.311Zm-39.685 39.21-.008-.164.172.156Zm-48.389 64.466a57.892 57.892 0 0 0 11.23-5.186c3.028-1.801 6.232-3.447 9.084-5.403 4.295-2.69 8.953-4.74 13.43-7.113a.986.986 0 0 1 .646-.198c.656-.034.517.466.37.802l.026.492a8.52 8.52 0 0 1-4.002 2.012 2.351 2.351 0 0 1-1.756.913c-.319.18-.474.353-.793.534l-.958.543a3.642 3.642 0 0 1-1.755.913c-.009-.164-.19-.483-.51-.302a6.066 6.066 0 0 0-1.755.913l.345.31c-.328.018-.172-.154-.345-.31a5.214 5.214 0 0 0-1.449.569c-2.389 1.439-4.942 2.887-7.495 4.334a7.136 7.136 0 0 0-1.096 1.043l1.773-.585a6.882 6.882 0 0 1-2.221 1.594l.44-1.008a13.08 13.08 0 0 0-2.553 1.447 2.08 2.08 0 0 0 .991.113 25.746 25.746 0 0 1-8.16 4.205c-.155.172-.49.025-.344-.311-.009-.164.63-.526-.181-.32-.655.035-1.294.397-1.95.431a4.04 4.04 0 0 1-1.957.267c.135-.492.626-.518.945-.699Zm-26.106-12.274a11.848 11.848 0 0 1 6.624-2.149c.172.155.5.138.353.474a1.759 1.759 0 0 1-.276 1 25.473 25.473 0 0 1-3.407.836c-.483.19-.345-.31-.362-.639-1.138.224-1.94.595-2.915.81Zm61.693-1.577a1.23 1.23 0 0 1 .811-.207.161.161 0 0 1 .172.156l.009.163a2.255 2.255 0 0 1-1.268.888c-5.409 3.404-10.99 6.653-16.406 9.893-2.873 1.628-5.573 3.412-8.454 4.877a32.936 32.936 0 0 1-7.564 3.024 3.201 3.201 0 0 1-1.138.223l-.328.017c-.164.009-.336-.146-.5-.138a.353.353 0 0 1 .31-.345 2.646 2.646 0 0 1 1.45-.568 53.746 53.746 0 0 0 9.47-4.273c6.064-3.438 12.12-7.044 18.179-10.643 1.755-.909 3.506-1.99 5.257-3.067Zm-54.632 4.655a.6.6 0 0 1-.483.19c-1.45.568-2.907.972-4.52 1.55-.163.008-.491.025-.508-.303 0 0 .147-.336.31-.344a11.337 11.337 0 0 1 4.839-1.732c.328-.017.492-.025.664.13.181.323-.138.504-.302.513Zm-10.508.22c-.008-.164.156-.173.32-.181-.164.008-.32.18-.475.353-.005-.164-.005-.164.16-.173Zm4.647 4.029a.161.161 0 0 1-.173-.156l-.008-.163a.161.161 0 0 1 .155-.173 9.969 9.969 0 0 1 5.296-2.412c-.217 2.147-1.83 2.724-3.606 3.31-.492.025-.354-.475-.38-.966Zm-4.625 5.827c-.181-.319.302-.508.785-.698.966-.379 2.096-.766 3.062-1.145l4.675-1.723a4.653 4.653 0 0 1 2.095-.767 5.002 5.002 0 0 1-1.578 1.237c-.638.362-1.268.887-1.906 1.25l1.31-.07c.156-.172.311-.344.475-.352.155-.173.328-.018.491-.026-.163.008-.155.172-.319.18a.986.986 0 0 1-.647.199l-.31.345a29.644 29.644 0 0 1-8.556 2.91c-.186-.482.625-.69.427-1.336Zm39.222-4.018c.319-.181.646-.199.802-.37a.161.161 0 0 0 .155-.173l-.16.008a3.587 3.587 0 0 0-.793.538Zm-1.748 1.077a2.332 2.332 0 0 1-.966.379l-1.285.56c.483-.19.811-.207 1.294-.397Zm-24 2.9a12.822 12.822 0 0 1-3.183 1.969 53.775 53.775 0 0 1-10.98 3.698 2.08 2.08 0 0 1-.974.215c-.172-.155-.336-.146-.345-.31a.314.314 0 0 1 .139-.5l1.772-.586a76.443 76.443 0 0 0 12.092-4.41l1.286-.56.172.156Zm101.891-8.934c-.345-.31-.362-.638-.06-1.146a1.41 1.41 0 0 0-.275-2.122 3.027 3.027 0 0 1-.922-1.923c-.06-1.147-.74-1.605-1.866-1.217l-1.45.568c-1.604.741-3.208 1.482-4.821 2.055l-7.547 3.351a101.822 101.822 0 0 1-13.183 5.621l-.492.026a44.631 44.631 0 0 1-7.917 2.55c-2.769.472-5.7.954-8.478 1.263a18.73 18.73 0 0 1-6.105-.503 3.301 3.301 0 0 1-1.345-.587 1 1 0 0 1 .078-1.647 3.042 3.042 0 0 1 1.13-.387c2.58-.956 5.003-1.74 7.245-2.843.32-.18.81-.207 1.294-.396a.161.161 0 0 1 .172.155l.017.328-.63.526a24.49 24.49 0 0 1-6.425 2.8 2.08 2.08 0 0 0-.975.215c-.163.008-.483.19-.474.353.017.328.345.31.509.302a5.582 5.582 0 0 0 1.63-.25 59.182 59.182 0 0 0 9.768-4.78 4.25 4.25 0 0 0 1.713-1.733 14.57 14.57 0 0 1 2.433-3.742 5.717 5.717 0 0 0 1.39-4.837 17.48 17.48 0 0 0-3.212-8.047 5.095 5.095 0 0 0-4.716-2.218c-2.777.309-5.373.937-7.564 3.023a50.738 50.738 0 0 0-6.376 6.905 16.756 16.756 0 0 0-3.377 10.855c.094 1.799.197 3.769.455 5.563a13.124 13.124 0 0 0 3.99 7.185 13.375 13.375 0 0 0 9.207 3.134 58.138 58.138 0 0 0 11.902-1.771 121.833 121.833 0 0 0 18.207-6.862 150.406 150.406 0 0 0 14.396-7.487 4.835 4.835 0 0 1 2.087-.93 2.332 2.332 0 0 0 .966-.38c-.185-.322-.202-.65-.379-.97Zm-46.578-14.162c.483-.19.638-.362.121-.828-.009-.164.138-.5.302-.509a6.918 6.918 0 0 1 3.088-.654c.172.155.336.147.344.31.181.32-.146.337-.302.51-.164.008-.483.189.017.327.164-.009.492-.026.51.302l-.475.353a1.479 1.479 0 0 0-.811.207 19.355 19.355 0 0 0-3.243.826 17.78 17.78 0 0 0-3.045 1.474c.747-1.518 2.036-1.914 3.494-2.318Zm4.604 3.21a.508.508 0 0 1-.147.336.6.6 0 0 1-.483.19 9.34 9.34 0 0 0-4.658 2.046 2.64 2.64 0 0 1 1.855-2.233 4.548 4.548 0 0 1 3.251-.663.573.573 0 0 1 .182.324Zm-7.126 5.136a16.646 16.646 0 0 0 2.053-1.586 8.146 8.146 0 0 1 3.52-1.826.773.773 0 0 1 .991.112 1.4 1.4 0 0 1 .06 1.147 12.48 12.48 0 0 1-3.106 3.448 13.927 13.927 0 0 1-3.528 1.663c-.647.198-.991-.113-1.043-1.096-.206-.81.26-1.328 1.053-1.862Zm4.802 3.857c-.302.509-.794.534-1.277.724l-.31.344s-.156.173-.164.009c-.164.009-.173-.155.155-.172a.573.573 0 0 1 .32-.181c.31-.345.612-.854 1.103-.88-.008-.163.164-.008.164-.008Zm-8.668 3.903c-.018-.328.302-.51.63-.526a14.438 14.438 0 0 1 2.414-.948c.156-.172.328-.017.337.147a.508.508 0 0 1-.147.336l-.31.345a.573.573 0 0 1 .18.32.161.161 0 0 0-.155.172 10.025 10.025 0 0 1-2.238 1.267c-.328.017-.802.37-.992-.113-.177-.32-.03-.656.28-1Zm2.932-.482-.009-.164s-.164.009.009.164Zm8.373-.109-.008-.163.164-.009Zm41.074-.008c.328-.017.664.13.992.113a2.08 2.08 0 0 0-.992-.117Zm-15.103 6.54c-4.166 2.02-8.504 3.893-12.851 5.599a52.524 52.524 0 0 1-11.001 3.203 40.391 40.391 0 0 1-7.71.238.573.573 0 0 1-.336-.147c-.017-.328.138-.5.302-.508.82-.043 1.63-.25 2.29-.284a57.532 57.532 0 0 0 16.568-3.494c3.7-1.507 7.408-2.851 11.091-4.686 1.122-.552 2.58-.956 3.864-1.516a.773.773 0 0 1 .992.112 11.456 11.456 0 0 1-3.209 1.482Zm-22.71 2.499a95.52 95.52 0 0 0 9.71-2.811c.363.638.035.655-.293.672l-1.915 1.086.164-.008a.508.508 0 0 0 .336.146c.173.156.181.32.018.328-.156.172-.311.345-.475.353a45.045 45.045 0 0 1-12.98 2.982.655.655 0 0 1-.673-.293 30.283 30.283 0 0 1 3.735-.853c-2.63-.027-5.21.93-7.89-.08 3.583-.516 7.015-.86 10.267-1.522Zm2.983.501a12.585 12.585 0 0 0 4.524-1.55l-2.273.611a5.565 5.565 0 0 0-2.247.94Zm-2.28.448-.173-.155-.155.172.327-.017Zm82.084-13.814a3.301 3.301 0 0 1-.724-1.276c-.577-1.613-1.758-2.213-3.413-2.45a12.337 12.337 0 0 0-2.458.127 80.508 80.508 0 0 0-12.54 2.134 7.431 7.431 0 0 1-2.596.628 47.005 47.005 0 0 0-9.392 2.626 18.16 18.16 0 0 1-4.2 1.37 11.495 11.495 0 0 0-2.272.611c-.647.198-1.268.888-2.122.275-.526-.63-.232-1.302-.103-1.966-.017-.328.139-.5.122-.828l.163-.009c.164-.008.32-.18.483-.19l-.639.034a5.06 5.06 0 0 0-.163-3.113l-.008-.164a10.097 10.097 0 0 0-1.344-3.708c-.913-1.756-2.46-2.994-3.844-4.4a2.755 2.755 0 0 0-3.147-.493l-2.185 18.022a11.057 11.057 0 0 1-4.332 5.155 96.963 96.963 0 0 0-8.22 6.18l-2.839 2.284c-.31.345-.793.534-1.104.879-2.614 3.422-6.608 5.602-9.058 9.016.008.164-.156.173-.311.345-3.598 3.474-7.031 6.939-9.435 11.172a14.192 14.192 0 0 1-1.062 1.698 32.543 32.543 0 0 0-4.228 7.286c-.733 1.681-1.467 3.362-2.21 4.88a21.81 21.81 0 0 0-1.987 9.14 11.37 11.37 0 0 0 .663 3.251l1.68 3.856a5.683 5.683 0 0 0 3.456 3.27 4.113 4.113 0 0 1 1.182.595 3.27 3.27 0 0 0 3.449-.016 32.474 32.474 0 0 0 6.357-4.11 69.737 69.737 0 0 0 10.12-10.715 9.377 9.377 0 0 0 1.662-2.716l-.958.543c-.163.009-.172-.155-.18-.319.302-.508.63-.526 1.138-.224.915-1.362 2.33-2.586 2.9-4.258-.371-.802.095-1.32.725-1.841.474-.354.94-.871.914-1.363.64-3.483 2.797-6.225 4.29-9.096.147-.336.466-.517.621-.69a5.878 5.878 0 0 1 .562-1.832c1.036-2.19 2.076-4.38 3.116-6.406l.932-1.034c.017.328-.285.836.068 1.31a10.61 10.61 0 0 0 1.338-2.698c-.009-.164-.017-.328-.181-.319a.508.508 0 0 0-.32.181 2.265 2.265 0 0 1-.629.526 6.857 6.857 0 0 1 .57-1.673 161.754 161.754 0 0 1 3.375-7.734 3.593 3.593 0 0 1 2.028-2.077 5.893 5.893 0 0 0 1.586-1.241.745.745 0 0 0-.043-.82 13.684 13.684 0 0 1 1.898-1.413 86.483 86.483 0 0 1 8.194-3.55 140.964 140.964 0 0 1 13.584-4.158c1.78-.422 3.562-1.008 5.183-1.421a71.867 71.867 0 0 1 10.22-2.505 8.689 8.689 0 0 1 4.105-.05 2.332 2.332 0 0 0 1 .276c.992.113 1.302-.232 1.415-1.224a3.996 3.996 0 0 0-.844-3.57Zm-47.861-7.195c.336.147.508.302.353.474.017.328-.302.51-.621.69l-.26-2.122c.812-.207 1.14-.224 1.156.104.022.491-.297.672-.616.853Zm7.418 16.207a7.134 7.134 0 0 1 1.128-.716l-.655.034a.573.573 0 0 1-.336-.147.6.6 0 0 1 .138-.5 15.987 15.987 0 0 0 1.755-.913l7.107-2.343a204.847 204.847 0 0 1 22.372-5.768c.983-.05 1.95-.43 2.958.01-1.268.888-2.596.629-3.872 1.353l-1.475.077c-.975.215.19.483-.13.663a15.488 15.488 0 0 1-1.449.569l-7.46 1.868a177.154 177.154 0 0 0-18.578 6.063 3.091 3.091 0 0 0-1.293.396.353.353 0 0 1-.345-.31.508.508 0 0 1 .147-.337Zm1.547-8.131-.156.172.164-.009Zm30.027-.746-.164.008c-.327.017-.5-.138-.664-.13l.656-.034c.176-.009.348.147.184.155Zm-5.709.79-.476.025c-.163.009-.319.181-.483.19l.492-.026c.16-.008.315-.18.48-.189Zm-3.243.827a5.052 5.052 0 0 0 2.105-.603 8.14 8.14 0 0 0-2.093.602Zm-2.272.612a8.14 8.14 0 0 0 2.104-.603 10.02 10.02 0 0 0-2.088.602Zm-.164.008-.328.017a.161.161 0 0 0-.155.173l.164-.009a.572.572 0 0 0 .335-.182Zm-3.394.838-.164.009a.573.573 0 0 1-.32.181l.328-.017c.332-.021.324-.181.156-.173Zm19.713-.043c-.164.009-.319.181-.647.198-7.322 1.368-14.433 3.711-21.552 5.726a96.338 96.338 0 0 0-15 5.383c-.646.198-1.276.724-2.104.603l-.18-.32c.155-.172.302-.508.465-.517l1.915-1.086a82.551 82.551 0 0 1 12.084-4.573c5.666-1.61 11.333-3.22 17.008-4.667 2.272-.611 4.708-1.067 6.985-1.515a1.777 1.777 0 0 1 .992.113.353.353 0 0 1 .345.31Zm-20.196.233c-.647.198-1.13.388-1.773.585Zm-3.881 1.188a8.654 8.654 0 0 0 1.94-.594 4.369 4.369 0 0 0-1.937.59Zm-1.95.43a6.978 6.978 0 0 0 1.782-.42Zm-1.612.578a4.791 4.791 0 0 0 1.457-.405 4.79 4.79 0 0 0-1.454.4Zm-25.433 13.153a11.314 11.314 0 0 1-5.22 3.887l-.016-.328a15.133 15.133 0 0 0-1.268.888l.819-.043a1.24 1.24 0 0 1-1.285.56l-1.268.887c.362.639.043.82-.44 1.01a3.573 3.573 0 0 1-1.268.887l-.026-.488-.82.043a5.214 5.214 0 0 1 1.554-1.724 67.07 67.07 0 0 1 9.144-7.378c.474-.353.957-.543 1.432-.896l.655-.034c-.431 1.172-.536 2.324-1.993 2.729Zm-.82.042.82-.042a3.587 3.587 0 0 1 .449-.845 5.756 5.756 0 0 0-1.268.887Zm-3.95 3-.009-.16-.466.517Zm3.137 3.45a6.424 6.424 0 0 1-1.57 1.397 114.309 114.309 0 0 0-9.248 8.533c-1.713 1.732-3.261 3.62-4.978 5.353-.181-.32-.354-.474-.37-.802a97.13 97.13 0 0 1 12.958-12.999 12.062 12.062 0 0 1 2.682-2.111.6.6 0 0 1 .5.138Zm-7.865.41.82-.042-.026-.491Zm-1.449.57a3.588 3.588 0 0 0 .535.793 2.067 2.067 0 0 1-2.105.603 2.18 2.18 0 0 1 1.57-1.397Zm-11.19 12.245c1.079-1.371 2.17-2.578 3.253-3.785a17.964 17.964 0 0 0 1.544-1.884l.466-.517a17.187 17.187 0 0 0 1.217-1.867c.777-.862 1.381-1.875 2.675-2.275l.042.82a.161.161 0 0 0-.155.172.508.508 0 0 0 .18.319c-2.194 2.086-4.21 4.327-6.228 6.568l-2.485 2.759a8.03 8.03 0 0 1-2.027 2.077 4.602 4.602 0 0 1 1.518-2.387Zm18.424-9.013c-.155.173-.32.181-.31.345-.036 2.467-1.425 4.182-2.47 6.208a115.074 115.074 0 0 1-5.498 11.13 21.829 21.829 0 0 1-2.135 3.234c-1.062 1.698-2.45 3.414-3.504 5.276a18.654 18.654 0 0 1-2.32 2.75c-2.196 2.086-4.21 4.327-6.575 6.254l-.94.87a3.728 3.728 0 0 1-3.398.999c-.664-.13-.837-.285-.707-.949.57-1.673.64-3.483 2.05-4.871l.068 1.31a1.852 1.852 0 0 0 .398-1.824l.75-1.353.165-.009a.686.686 0 0 1-.06-1.147 2.88 2.88 0 0 1 .785-.698 1.508 1.508 0 0 1 .242-1.656c.31-.344.613-.853.923-1.198l-.327.017c.146-.336.155-.172.327-.017a11.297 11.297 0 0 0 1.688-2.224c4.237-6.957 9.672-12.991 15.452-18.715 1.562-1.56 3.14-2.792 4.71-4.189a.6.6 0 0 1 .484-.19c.34.151.193.484.202.651Zm-20.106 11.405a25.15 25.15 0 0 1-4.427 6.474 17.586 17.586 0 0 1 4.427-6.474Zm4.681 1.559-.155.172c.009.164-.155.172-.147.336l-.017-.328c.155-.172.147-.332.32-.18Zm-.466.517a.353.353 0 0 1-.31.345l-.017-.32Zm-.302.508a3.44 3.44 0 0 1-.914 1.362 11.305 11.305 0 0 1 .423-1.336Zm9.233 6.912c.009.164-.155.172-.319.18.164-.008.155-.172.147-.335l.155-.173c.172.155.172.155.017.332Zm-14.255.744.009.164-.173-.156Zm13.194.954a3.573 3.573 0 0 1 .75-1.353 2.255 2.255 0 0 1-.75 1.357Zm-1.662 2.716a2.943 2.943 0 0 1 .76-1.19 4.986 4.986 0 0 1-.764 1.194Zm-2.152 2.905a4.802 4.802 0 0 1 1.993-2.733 4.802 4.802 0 0 1-1.993 2.737Zm-.751 1.354a33.543 33.543 0 0 1-5.587 6.202 3.301 3.301 0 0 1 .587-1.345c1.863-2.069 3.555-4.293 5.587-6.202a3.301 3.301 0 0 1-.587 1.349Zm2.81 3.468.423-1.337c.155-.172.31-.345.302-.509l.164-.008a1.885 1.885 0 0 1-.89 1.858Zm-16.662 1.855.423-1.336a2.332 2.332 0 0 1 .277-1l-.44 1.008a5.072 5.072 0 0 1-.26 1.332Zm13.737 1.912a52.295 52.295 0 0 1-8.48 7.507 7.468 7.468 0 0 1-3.045 1.474c-.164.008-.492.025-.51-.303a.508.508 0 0 1 .148-.336 2.265 2.265 0 0 1 .63-.526 63.399 63.399 0 0 0 9.782-7.74 4.064 4.064 0 0 1 2.23-1.43 9.158 9.158 0 0 1-.755 1.358Zm-13.36 5.301c-.173-.155-.19-.483-.362-.638-.181-.319-.362-.638.112-.992 1.915-1.085 3.632-2.818 5.724-3.584l-2.02 2.241a1.479 1.479 0 0 1 .829.121 6.003 6.003 0 0 1-4.283 2.852ZM473.02 105.337a.992.992 0 0 0 .543.957 1.782 1.782 0 0 0 2.794.019l.932-1.035a21.129 21.129 0 0 1 2.648-2.767c.32-.18.613-.853.82-.043a8.079 8.079 0 0 0 2.372-1.766 35.822 35.822 0 0 1 3.425-3.63 2.774 2.774 0 0 0 1.061-1.698l.164-.008a.615.615 0 0 1-.051-.984l1.561-1.56a5.33 5.33 0 0 0 1.528-2.215 1.348 1.348 0 0 0-.224-1.139 1.028 1.028 0 0 0-1.328-.259 12.085 12.085 0 0 0-2.264.775l1.553-1.724c.31-.344.794-.534.604-1.017-.025-.492-.69-.621-1.491-.25a2.332 2.332 0 0 0-.966.378 27.227 27.227 0 0 0-5.055 3.879 13.23 13.23 0 0 1-2.196 2.086c-2.519 2.103-4.184 4.819-6.195 7.224a1.665 1.665 0 0 0-.406 1.664 5.051 5.051 0 0 1 .17 3.113Zm6.939-2.334c-.155.172-.138.5.19.483.163-.009.319-.181.474-.354l.13-.663-.82.042Zm12.704 35.646c-.155.173-.483.19-.802.371a100.565 100.565 0 0 1-9.837 3.47 112.891 112.891 0 0 0-13.999 5.66 263.562 263.562 0 0 0-9.945 4.627 34.84 34.84 0 0 1-7.27 2.35 2.276 2.276 0 0 1-1.475.078c-.164.008-.172-.155-.18-.32-.173-.155-.01-.163-.01-.163l.958-.543a46.22 46.22 0 0 0 5.02-1.412c2.742-.965 5.14-2.24 7.71-3.36a142.99 142.99 0 0 1 15.586-6.724c4.356-1.542 8.712-3.084 13.076-4.461.638-.362 1.285-.56 1.923-.922a1.108 1.108 0 0 0 .604-1.018 1.66 1.66 0 0 0-.715-1.112c-.664-.13-1.173-.432-1.833-.562a4.542 4.542 0 0 0-2.104.603l.655-.034.181.319a.852.852 0 0 1-.638.362 8.123 8.123 0 0 1-2.096.766c-3.226 1.154-6.624 2.15-10.013 3.316a5.585 5.585 0 0 1-2.281.448 4.455 4.455 0 0 1-2.734 1.128 4.289 4.289 0 0 1-1.285.56 1.863 1.863 0 0 1 1.285-.56 4.351 4.351 0 0 0 .768-1.026 11.438 11.438 0 0 0-3.062 1.146 31.526 31.526 0 0 0-6.249 3.12c.492-.027.975-.216 1.466-.242a3.24 3.24 0 0 1-2.246 1.103l.776-.862.155-.172a32.104 32.104 0 0 0-7.53 3.679l1.311-.069a19.157 19.157 0 0 1-7.064 2.998c-.164.008-.492.026-.509-.302-.009-.164.31-.345.466-.517l-.492.025c-.327.017-.5-.138-.508-.302-.181-.319.138-.5.302-.508.155-.173.319-.181.638-.362a77.363 77.363 0 0 0 11.1-4.523 120.61 120.61 0 0 1 17.842-7.503 98.178 98.178 0 0 1 11.807-3.574.837.837 0 0 0 .785-.698.88.88 0 0 0-.862-.776l-1.139.06c-3.407.834-6.684 1.005-9.888 2.487-.958.543-2.087.93-3.045 1.473a17.308 17.308 0 0 1-3.881 1.189 25.233 25.233 0 0 0-7.564 3.023 26.18 26.18 0 0 1-3.683 1.835c-2.407 1.112-4.986 2.064-7.564 3.024l-1.941.594c-.492.026-.845-.449-.698-.785a4.054 4.054 0 0 1 .578-1.509 35.2 35.2 0 0 1 2.744-4.086 2.501 2.501 0 0 0 1.045-2.026c-.233-1.303.535-2.332 1.14-3.346a16.335 16.335 0 0 0 1.544-1.884 2.948 2.948 0 0 0 .579-1.508 1.574 1.574 0 0 0-.578-1.613 1.222 1.222 0 0 0-1.483-.087c-.319.18-.483.19-.508-.302-.009-.164.146-.337.138-.5.44-1.01.095-1.32-1.052-1.26a4.677 4.677 0 0 0-2.23 1.43c-1.712 1.733-3.088 3.777-4.788 5.837a70.332 70.332 0 0 0-6.084 9.354 6.129 6.129 0 0 0-.57 4.794c.033.656.232 1.303.257 1.79.722 4.398 4.136 6.849 8.526 5.967a.161.161 0 0 0 .156-.173c2.104-.602 4.045-1.197 5.977-1.955 2.898-1.137 5.783-2.437 8.513-3.73a89.651 89.651 0 0 1 12.377-5.246c5.002-1.74 10.004-3.48 14.826-5.539.32-.18.81-.206 1.113-.715.142-.344-.677-.301-1.488-.095Zm-5.087-3.02c-.646.198-1.293.396-1.772.585l1.781-.421Zm-1.772.585c-.647.199-1.13.388-1.773.586Zm-3.554 1.172a10.089 10.089 0 0 0 1.773-.586 3.307 3.307 0 0 0-1.769.586Zm-3.234.99a7.468 7.468 0 0 0 3.234-.99 10.712 10.712 0 0 0-3.234.99Zm-3.062 1.146a5.402 5.402 0 0 0 3.062-1.146 7.67 7.67 0 0 0-3.062 1.146Zm0 0a6.048 6.048 0 0 0-2.742.964l1.798-.094a4.35 4.35 0 0 0 .944-.87Zm-.776.862Zm-20.097 8.442 1.45-.569-.165.009Zm0 0a3.862 3.862 0 0 0-1.293.396c.483-.19.974-.215 1.293-.396Zm109.948-15.104c-6.58 2.973-13.17 5.78-19.398 9.228-2.562 1.283-5.123 2.571-7.677 4.015-4.95 2.723-9.726 5.6-14.68 8.324-.328.017-.484.19-.647.198a.6.6 0 0 1-.5-.138s-.018-.328.146-.337c1.424-1.06 2.856-1.952 4.287-2.852 7.98-4.524 15.803-8.875 23.97-12.916 4.641-2.378 9.463-4.437 14.288-6.496a15.987 15.987 0 0 0 1.756-.914 1.033 1.033 0 0 0 .423-1.336.9.9 0 0 0-1.017-.604 7.051 7.051 0 0 0-1.95.43l-7.244 2.843a13.034 13.034 0 0 1-3.554 1.171 2.88 2.88 0 0 1 .613-.853 12.506 12.506 0 0 0-3.226 1.154c-2.398 1.275-4.968 2.395-7.366 3.67a23.492 23.492 0 0 0-3.338 2.146l1.31-.068-.793.534c-.32.18-.5-.138-.517-.466a12.453 12.453 0 0 0-2.898 1.137 8.838 8.838 0 0 1-3.373 1.49 7.575 7.575 0 0 1 2.381-1.603c2.717-1.456 5.27-2.903 7.996-4.196 6.564-3.3 12.955-6.755 20.08-8.77.155-.172.482-.19.638-.362.319-.18.474-.353.457-.68a1.28 1.28 0 0 0-.69-.622 2.289 2.289 0 0 0-1.798.094l-2.596.628a60.254 60.254 0 0 0-11.756 4.557 82.683 82.683 0 0 1-10.083 5.127c-.32.18-.794.534-1.113.715l-5.279 2.74c-.319.18-.802.37-1.155-.104a.992.992 0 0 1-.069-1.31l.907-1.527c.146-.336.457-.68.104-1.155a14.793 14.793 0 0 0-1.39 1.715 5.52 5.52 0 0 1 1.96-3.388l.491-.026a19.665 19.665 0 0 0 1.696-2.06 1.312 1.312 0 0 0 .234-1.815c-.198-.647-.716-1.113-.422-1.782a2.201 2.201 0 0 0-1.267-2.238 2.325 2.325 0 0 1-1.267-2.238 1.824 1.824 0 0 0-2.534-1.346l-1.113.715a87.48 87.48 0 0 0-8.092 5.516 1.507 1.507 0 0 1-.948.707 2.401 2.401 0 0 1-2.829-.674l-1.06-1.424a8.055 8.055 0 0 0-4.767-3.201 16.884 16.884 0 0 0-9.03.143 28.447 28.447 0 0 0-10.04 5.945 56.125 56.125 0 0 0-6.686 7.25c-1.993 2.733-2.83 5.57-1.513 8.787.181.319.207.81.396 1.293a7.348 7.348 0 0 0 5.992 4.617 10.066 10.066 0 0 0 5.385-.614 92.963 92.963 0 0 0 18.476-8.03l3.036-1.636c.319-.181.638-.362.983-.052a5.755 5.755 0 0 0-.751 1.354c-.406 1.664-1.493 2.87-2.4 4.397-1.66 2.715-3.658 5.448-6.875 6.77a.852.852 0 0 0-.638.362c-3.313 2.638-7.143 4.81-10.274 7.766-1.89 1.577-3.623 2.982-5.521 4.395a55.254 55.254 0 0 1-4.9 3.706c-.949.707-1.721 1.569-2.674 2.276a142.246 142.246 0 0 1-7.195 6.947c-1.722 1.569-3.443 3.301-5.004 4.862-.466.517-.94.87-1.079 1.37a9.59 9.59 0 0 1-2.01 2.41 52.44 52.44 0 0 0-4.21 4.327 85.378 85.378 0 0 0-5.695 7.362c-1.846 2.4-3.52 4.948-5.358 7.508a48.732 48.732 0 0 0-4.505 8.122 11.027 11.027 0 0 1-.88 2.017 55.716 55.716 0 0 0-3.833 8.415 15.997 15.997 0 0 0-1.123 3.673 7.595 7.595 0 0 0 1.636 6.158c.534.794 1.06 1.424 1.422 2.062a7.603 7.603 0 0 0 10.787 2.066 57.906 57.906 0 0 0 5.064-3.715c3.442-3.301 7.048-6.611 10.31-10.232a135.976 135.976 0 0 0 16.32-21.064l6.851-10.376c1.968-3.224 4.1-6.457 6.075-9.518.45-.844.898-1.69 1.355-2.374a1.054 1.054 0 0 1-.24-1.467 3.874 3.874 0 0 1 1.405-1.387 3.25 3.25 0 0 0 1.705-1.893c-.32.181-.466.518-.785.699a.6.6 0 0 1-.5-.139l-.017-.327a4.423 4.423 0 0 1 1.25-1.216l.052.983a3.44 3.44 0 0 0 1.217-1.866l-.794.534c.147-.336.13-.664.44-1.009.147-.336.484-.19.82-.043a13.89 13.89 0 0 0 2.135-3.233 9.745 9.745 0 0 0-1.73 1.405c1.33-2.862 1.33-2.862 3.227-4.276a4.653 4.653 0 0 0 1.562-1.56 13.686 13.686 0 0 0 1.208-2.035 15.033 15.033 0 0 1 2.753-3.766 29.483 29.483 0 0 0 3.114-3.284 8.233 8.233 0 0 1 2.338-2.426c1.113-.716 2.39-1.44 3.666-2.163l12.447-7.061a293.38 293.38 0 0 1 27.868-13.777c.803-.37 1.622-.414 2.07-1.258-.84-.438-1.625.257-2.436.463Zm-67.278-4.703a14.749 14.749 0 0 1 6.77-2.49 6.377 6.377 0 0 1 2.475.2 8.236 8.236 0 0 0-1.95.43c-.482.19-1.146.06-1.259 1.052a1.7 1.7 0 0 1-.646.198 18.414 18.414 0 0 1-4.192 1.533l-.026-.491c-.328.017-.647.198-.974.215a.573.573 0 0 1-.337-.147c-.18-.319-.025-.491.135-.5Zm1.966-.103a3.587 3.587 0 0 1-.794.535l.958-.543Zm25.948-.204c.172.155-.147.336-.31.345a2.332 2.332 0 0 1-.967.379c.156-.172.475-.353.786-.698.163-.009.319-.181.491-.026Zm-1.432.896a2.772 2.772 0 0 1-.285.837l-.979.05a2.901 2.901 0 0 1 1.264-.887Zm-25.096 3.939a13.242 13.242 0 0 1 7.564-3.024c.164-.008.492-.025.5.139.017.327-.31.344-.63.525a39.555 39.555 0 0 0-7.236 3.007c-.32.18-.81.206-1.13.387.315-.345.613-.853.932-1.034Zm-5.376 7.181a32.115 32.115 0 0 1 6.591-5.93 11.305 11.305 0 0 1 6.78-2.325l.819-.043a15.675 15.675 0 0 1 3.932-.206c.328-.017.664.13.992.113a.863.863 0 0 1 .404 1.458 4.35 4.35 0 0 1-.94.87c-3.355 1.818-6.366 3.947-10.083 5.127-1.45.568-2.726 1.292-4.175 1.86a13.262 13.262 0 0 1-3.545 1.336 1.278 1.278 0 0 1-1.172-.432.993.993 0 0 1 .095-1.32c.156-.172.31-.344.303-.504Zm65.06-9.475a4.791 4.791 0 0 0 1.458-.404c-.483.19-.975.215-1.458.404Zm-1.285.56c.483-.19.802-.37 1.285-.56Zm-2.246 1.103c-.483.19-.811.207-1.294.396l-.155.173.164-.009Zm-63.842 13.848-.009-.164c.164-.009.32-.181.483-.19l.802-.37a91.46 91.46 0 0 0 17.043-7.133 18.874 18.874 0 0 1 2.735-1.129 6.043 6.043 0 0 1 3.019-1.96 5.102 5.102 0 0 1-3.02 1.96 10.616 10.616 0 0 0-1.233 1.54l2.57-1.12a4.653 4.653 0 0 1-1.73 1.404 77.044 77.044 0 0 1-13.947 6.639 9.291 9.291 0 0 1-2.924.645.573.573 0 0 1-.32.181l-.335.018c.164-.009.155-.173.32-.181l.327-.017a9.104 9.104 0 0 0 1.26-1.052l-4.701 1.231a.353.353 0 0 1-.34-.302Zm3.452-6.26c.164-.008.319-.18.474-.353Zm16.368-1.183a2.332 2.332 0 0 0-.966.38 2.332 2.332 0 0 0 .966-.384Zm6.48 1.305a23.759 23.759 0 0 1-6.039 3.93 78.15 78.15 0 0 1-14.304 6.168c-1.294.396-2.432.62-3.407.835l-.983.052c-.172-.156-.336-.147-.345-.311-.164.009-.017-.328.147-.336.155-.173.483-.19.802-.37 8.426-2.244 16.112-6.1 23.607-10.434.639-.361.932-1.034 1.764-.749-.13.664-.772.862-1.247 1.215Zm-22.848-.122-.466.518.164-.009c-.009-.164.15-.332.302-.509Zm15.402-.804a3.587 3.587 0 0 0-.794.535Zm-3.679 2a5.054 5.054 0 0 0 1.924-.922 10.036 10.036 0 0 0-1.924.922Zm0 0-.327.017a3.587 3.587 0 0 1-.794.534 2.772 2.772 0 0 1 .802-.37c.168-.01.16-.173.32-.181Zm-4.658 2.046.009.164 1.285-.56c-.479.193-.97.219-1.29.4Zm-3.691 1.671.164-.008a11.305 11.305 0 0 1 1.285-.56Zm34.409-1.796a4.054 4.054 0 0 1-1.44.733 4.054 4.054 0 0 1 1.444-.729Zm-2.494 2.595a8.682 8.682 0 0 1 3.347-1.978c-.919 1.198-.919 1.198-3.343 1.982Zm-28.383 16.437c1.062-1.699 2.83-2.452 4.598-3.198a11.105 11.105 0 0 1-4.598 3.198Zm-1.578 1.232a2.943 2.943 0 0 1 1.104-.879 1.9 1.9 0 0 1-1.104.88Zm-1.528 2.216a5.828 5.828 0 0 1-1.44.732c-.639.362-1.45.569-2.255.94a9.028 9.028 0 0 1 2.984-2.621.732.732 0 0 1 .82-.043c.34.147.202.647-.109.992Zm-4.005 8.26a11.159 11.159 0 0 1 4.572-3.69 12.72 12.72 0 0 1-4.572 3.69Zm.922 1.923c-.138.5-.604 1.017-.087 1.483a14.318 14.318 0 0 1-2.554 4.57c-.924 1.198-1.662 2.715-2.58 4.077a69.715 69.715 0 0 1-3.806 5.785 46.467 46.467 0 0 0-3.038 4.759 3.587 3.587 0 0 1-.448.845c-3.236 4.112-5.8 8.517-9.035 12.63a59.961 59.961 0 0 1-3.667 5.284 9.075 9.075 0 0 1-2.195 2.086 4.986 4.986 0 0 0-1.855 2.233 6.73 6.73 0 0 1-2.485 2.758 26.778 26.778 0 0 0-3.132 2.957c-2.027 2.077-4.236 3.835-6.435 5.757-.475.354-1.105.88-1.765.75-.819.042-1.164-.268-1.043-1.096a2.772 2.772 0 0 1 .285-.836 56.325 56.325 0 0 1 5.452-11.95c1.67-2.552 3.33-5.431 5.16-8.156a146.323 146.323 0 0 1 22.018-25.136c3.296-2.965 6.928-5.784 10.387-8.757l.474-.354.328-.017Zm-11.767 1.271.492-.026a.6.6 0 0 1-.139.5 4.891 4.891 0 0 1-2.212 1.759 8.03 8.03 0 0 1 1.86-2.233Zm7.382-.22.009.163-.328.017a.573.573 0 0 0 .323-.185Zm-2.062 1.421c.483-.19.958-.543 1.44-.732a43.852 43.852 0 0 1-5.629 5.387 39.457 39.457 0 0 0-3.753 3.646 26.112 26.112 0 0 1-3.761 3.482c-1.26 1.052-2.347 2.259-3.442 3.301a9.16 9.16 0 0 1-1.268.888c-.034-.655.276-1 .742-1.517 2.502-2.435 4.659-5.172 7.325-7.612a84.774 84.774 0 0 1 8.35-6.843Zm-30.776 27.237a13.225 13.225 0 0 1 3.84-5.13 8.815 8.815 0 0 1 2.916-3.93c.164-.01.319-.181.474-.354.268-1.164 1.217-1.867 1.653-2.88l.466-.516a15.584 15.584 0 0 1 2.46-3.25l.49-.026a44.755 44.755 0 0 0 4.85-4.69l.465-.516-.491.025.466-.517a6.424 6.424 0 0 1 1.57-1.396 2.951 2.951 0 0 0 1.423-1.06l.82-.043a7.15 7.15 0 0 1-2.01 2.409 23.993 23.993 0 0 1-2.973 2.784c-2.657 2.603-5.134 5.525-7.618 8.284a6.424 6.424 0 0 1-1.57 1.396c-.156.173-.311.345-.303.509a9.864 9.864 0 0 1-3.088 3.776 14.649 14.649 0 0 1-3.84 5.129 3.573 3.573 0 0 1-.751 1.353 3.573 3.573 0 0 1 .75-1.357Zm38.808-24.534c-.009-.164-.017-.328.146-.337l.164-.008Zm5.043 2.2c.164-.008.32-.18.475-.353l-.164.009Zm-7.287 2.024-5.476 8.336a3.592 3.592 0 0 1-1.561 1.56 3.502 3.502 0 0 1 1.044-2.025c1.687-2.224 3.029-4.923 4.712-7.311.457-.681.742-1.518 1.544-1.884a1.584 1.584 0 0 1-.263 1.324Zm-.064 8.218c-.164.009-.156.173-.32.181-.008-.164-.008-.164.147-.336-.008-.164.156-.172.164-.009Zm-7.875 3.369a1.9 1.9 0 0 1 .76-1.19 2.943 2.943 0 0 1-.76 1.19Zm-16.247.355c-1.078 1.37-2.17 2.577-3.08 3.94a.5.5 0 0 1-.656.034c-.008-.164-.19-.483-.034-.656a4.365 4.365 0 0 1 1.54-1.891 7.674 7.674 0 0 1 2.23-1.427Zm21.542.354c.008.164.017.328-.147.336l-.932 1.035a3.126 3.126 0 0 1 .734-1.681l.327-.018a.227.227 0 0 1 .018.328Zm-9.558 5.756a3.949 3.949 0 0 1 .915-1.362 6.152 6.152 0 0 1 2.442-3.577 8.804 8.804 0 0 1-2.442 3.577 2.551 2.551 0 0 1-.915 1.362Zm3.776 3.09c-1.225 1.706-2.287 3.405-3.504 5.275a135.87 135.87 0 0 1-11.587 14.078c-2.795 3.103-5.763 6.05-8.74 8.835-1.889 1.577-3.778 3.155-5.672 4.568l-1.915 1.085a.6.6 0 0 1-.5-.138l-.017-.327.932-1.035c6.34-4.438 11.637-9.972 16.926-15.67a53.046 53.046 0 0 0 6.018-7.543l4.46-5.82c.613-.853 1.545-1.883 2.153-2.905a6.619 6.619 0 0 1 2.813-2.775 6.882 6.882 0 0 1-1.367 2.375Zm-11.8 6.859a11.298 11.298 0 0 1 1.687-2.224l.466-.518a.6.6 0 0 1 .138-.5c1.579-1.232 2.64-2.93 4.046-4.318a2.551 2.551 0 0 1 .915-1.362 2.551 2.551 0 0 1-.915 1.362c-.854 2.509-2.563 4.405-4.262 6.465a2.645 2.645 0 0 1-2.075 1.095Zm-21.813.81a8.553 8.553 0 0 1 3.037-4.76 2.92 2.92 0 0 1 1.225-1.875 3.702 3.702 0 0 1-1.217 1.867 14.79 14.79 0 0 1-3.045 4.768 6.871 6.871 0 0 1-1.662 2.715 4.28 4.28 0 0 1 1.662-2.715Zm9.683-6.417c-.155.173-.138.5-.285.837-.155.172-.294.672-.785.698-.328.017-.026-.492.44-1.009Zm-8.878 28.062-1.285.56c-.164.008-.337-.147-.5-.138l-.026-.492 1.26-1.052a106.917 106.917 0 0 0 17.055-16.334 26.23 26.23 0 0 1 4.038-4.482 12.86 12.86 0 0 0-.7 2.34l.328-.017c-.155.173-.146.337-.302.509l-.491.026a4.994 4.994 0 0 0-1.243 1.375c.362.638.362.638-.423 1.336l-.466.518-.466.517-.302.508a9.404 9.404 0 0 1-1.704 1.893l-.466.517a73.28 73.28 0 0 1-6.842 7.422c-1.88 1.74-3.934 3.327-5.987 4.913l-1.121.551c-.332.021-.34-.143-.357-.47Zm2.966-18.72.008.163a3.579 3.579 0 0 0-.785.698l.45-.845c.154-.172.154-.172.327-.017Zm-6.317 1.808c-.362-.639.293-.673.604-1.018-.143.336-.281.837-.6 1.018Zm5.096.062a3.732 3.732 0 0 1-.88 2.018 3.211 3.211 0 0 1 .884-2.018Zm-6.309 1.973-.008-.16.172.155Zm1.086 11.115-.164.009-.009-.164c.155-.173.155-.173.328-.017Zm200.71-101.825-.509-.302a1.1 1.1 0 0 1-.56-1.285.793.793 0 0 0-.06-1.147 1.246 1.246 0 0 0-1.5-.415 14.776 14.776 0 0 0-2.596.628c-3.234.99-6.309 1.973-9.367 3.118a55.654 55.654 0 0 0-7.245 2.843c-2.553 1.447-5.132 2.403-7.693 3.687-2.398 1.275-5.167 1.749-7.547 3.351l-.328.018a.657.657 0 0 1-.862-.777c.449-.845.725-1.841 1.174-2.69-.828-.121-1.009-.44-.707-.949a5.677 5.677 0 0 0 1.545-1.884 81.129 81.129 0 0 1 5.35-7.672 5.477 5.477 0 0 0 .33-6.26c-.37-.803-.896-1.433-1.267-2.239-1.275-2.398-3.284-3.115-5.871-2.322l-3.718 1.18a20.782 20.782 0 0 0-2.898 1.137c-1.906 1.25-4.174 1.86-6.09 2.946-2.716 1.456-5.45 2.589-8.004 4.033-2.863 1.792-5.917 3.101-8.78 4.894-2.545 1.611-5.28 2.74-7.815 4.515a.852.852 0 0 1-.639.362 15.771 15.771 0 0 0-4.494 2.038 3.702 3.702 0 0 1-3.458-.148c-.336-.147-.353-.475-.206-.81a31.723 31.723 0 0 1 3.365-4.777 4.865 4.865 0 0 1 1.019-2.517l1.95-3.553a3.26 3.26 0 0 0-.18-3.44l-.887-1.268c-.526-.63-1.026-.768-1.656-.243a13.115 13.115 0 0 0-2.019 2.242 92.75 92.75 0 0 0-8.547 12.443 9.366 9.366 0 0 0-.934 7.278 7.103 7.103 0 0 1 .206.811c.12 2.298 1.344 3.709 3.215 4.925a4.944 4.944 0 0 0 3.483.64l1.613-.577a68.588 68.588 0 0 0 12.188-5.73c6.391-3.455 12.766-7.238 19.166-10.529 3.045-1.473 5.926-2.938 8.979-4.247a2.194 2.194 0 0 1 1.466-.241 6.303 6.303 0 0 1-1.32 3.026l-2.774 3.595-3.66 5.449a6.649 6.649 0 0 0-.872 5.303 36.598 36.598 0 0 0 .852 3.734c.594 1.94 2.292 3.002 3.818 3.908 1.518.742 2.811.346 4.269-.058a95.673 95.673 0 0 0 11.256-4.695l10.91-5.006a122.484 122.484 0 0 1 12.886-4.944c1.773-.586 3.545-1.335 5.314-2.08.163-.01.474-.354.63-.526l-.01-.164c-.008-.164-.008-.164-.172-.156-.5-.138-.974.216-1.457.405-2.734 1.129-5.477 2.09-8.22 3.058a92.909 92.909 0 0 0-12.713 5.1l-12.188 5.725c-1.764.749-3.38 1.326-5.158 1.912a14.774 14.774 0 0 1-2.596.628.524.524 0 0 1-.517-.466.353.353 0 0 1 .31-.344 5.214 5.214 0 0 1 1.45-.569 49.102 49.102 0 0 0 5.158-1.912c2.734-1.129 5.46-2.42 8.021-3.705 5.783-2.437 11.385-5.359 17.362-7.318l8.556-2.91a11.39 11.39 0 0 0 2.087-.931c1.441-.728 1.536-2.048.166-3.126Zm-53.335-5.103c3.683-1.835 7.375-3.506 11.067-5.178a16.8 16.8 0 0 1 5.485-1.929c.483-.19 1.13-.388 1.492.25-.475.354-.432 1.173-.906 1.527-.164.008-.156.172-.32.18a60.073 60.073 0 0 0-7.098 2.507c-.319.181-.655.034-.974.215a17.028 17.028 0 0 1-4.986 2.064l-.025-.488a4.514 4.514 0 0 0-2.39 1.44 5.09 5.09 0 0 1-2.872 1.628l-1.336-.423a7.553 7.553 0 0 1 2.863-1.793Zm9.514-3.454a3.92 3.92 0 0 0 2.255-.939 3.92 3.92 0 0 0-2.256.935Zm-.966.38c-.475.353-.139.5.034.655l.932-1.035c-.32.181-.811.207-.966.38Zm.034.655Zm-.882 5.139a270.597 270.597 0 0 0-25.583 13.493 80.48 80.48 0 0 1-9.126 4.584 11.57 11.57 0 0 1-4.045 1.197.508.508 0 0 0-.336-.147c-.181-.319-.026-.491.13-.664a10.457 10.457 0 0 1 1.13-.387 64.111 64.111 0 0 0 12.187-5.73c6.072-3.274 11.972-6.704 18.045-9.978 4.321-2.197 8.823-4.075 13.153-6.108l1.147-.06.026.492a6.367 6.367 0 0 1-1.747 1.076Zm-12.323-.014a4.466 4.466 0 0 1-2.553 1.448 3.702 3.702 0 0 1 2.553-1.448Zm-2.709 1.62a.7.7 0 0 1-.104 1.156 4.323 4.323 0 0 1-3.39 1.162l-2.271.612a13.676 13.676 0 0 1 5.765-2.93Zm-23.53 11.908 1.285-.56a62.151 62.151 0 0 0 10.402-5.312 26.87 26.87 0 0 1 5.288-2.58c-.855 2.509-2.934 3.603-5.194 4.378a8.793 8.793 0 0 1-1.755.914c.146-.337.302-.51.285-.837a16.29 16.29 0 0 0-4.304 2.529.161.161 0 0 0 .172.155.161.161 0 0 1-.155.173l-.026-.492a5.753 5.753 0 0 0-2.247 1.103l1.311-.068a9.993 9.993 0 0 1-4.968 2.395c-.32.18-.664-.13-.681-.457a1.493 1.493 0 0 1 .587-1.341Zm80.756-10.952c.008.164-.147.337-.302.509l-.164.009c.336.146.672.293.362.638a4.835 4.835 0 0 1-2.087.93l-7.271 2.351c-1.613.577-3.226 1.154-4.83 1.895a8.313 8.313 0 0 1-2.113.44 4.123 4.123 0 0 1-2.247 1.102 6.881 6.881 0 0 1-3.536 1.5c-.155.172-.31.344-.474.353a.227.227 0 0 1-.328.017l.155-.173a1.24 1.24 0 0 1 .647-.198 4.35 4.35 0 0 1 .94-.87 14.45 14.45 0 0 0-2.768.473l-2.679 2.107a4.543 4.543 0 0 1 1.466-.24 3.24 3.24 0 0 1-2.247 1.102 3.456 3.456 0 0 1-2.087.93 3.456 3.456 0 0 1 2.087-.93l.777-.862.155-.172a9.898 9.898 0 0 0-3.062 1.146c-2.57 1.12-5.132 2.403-7.702 3.523l3.088-.654a5.512 5.512 0 0 1 2.255-.939 5.085 5.085 0 0 1-2.079 1.094 11.468 11.468 0 0 1-3.86 1.684c-.163.009-.655.035-.663-.13a.524.524 0 0 1 .466-.516 3.587 3.587 0 0 0 .793-.535c-.164.009-.491.026-.5-.138-.345-.31-.026-.491.294-.672l1.449-.569c2.087-.93 4.338-1.87 6.417-2.964a23.776 23.776 0 0 1 5.632-2.265 8.779 8.779 0 0 1 4.494-2.038 10.46 10.46 0 0 1 2.23-1.43c5.304-2.25 10.798-4.015 16.292-5.78a1.784 1.784 0 0 1 .81-.207c.337.143.345.307.19.48Zm-5.313 2.08a5.816 5.816 0 0 0-1.773.586 3.74 3.74 0 0 0 1.777-.581Zm-3.062 1.147 1.285-.56-1.45.568Zm-62.074 3.732 1.475-.077-.026-.491Zm62.074-3.732-1.773.585a10.088 10.088 0 0 0 1.773-.581Zm-3.39 1.162.164-.008 1.45-.569a4.79 4.79 0 0 1-1.458.405Zm0 0a3.042 3.042 0 0 0-1.13.388 3.042 3.042 0 0 0 1.13-.384Zm-7.753 2.54-1.885 1.582 2.76-.637a3.24 3.24 0 0 1 2.246-1.103l.776-.862c-1.31.233-2.586.956-3.897 1.025Zm118.484-12.094a3.301 3.301 0 0 1-.724-1.277c-.577-1.613-1.758-2.212-3.414-2.45a12.336 12.336 0 0 0-2.458.128 80.508 80.508 0 0 0-12.54 2.133 7.43 7.43 0 0 1-2.595.628 47.005 47.005 0 0 0-9.392 2.627 18.16 18.16 0 0 1-4.2 1.369 11.495 11.495 0 0 0-2.273.611c-.647.198-1.268.888-2.121.275-.526-.63-.233-1.302-.103-1.966-.017-.327.138-.5.121-.828l.164-.008c.164-.009.32-.181.483-.19l-.655.035a5.06 5.06 0 0 0-.163-3.114l-.008-.163a10.099 10.099 0 0 0-1.344-3.71c-.913-1.755-2.46-2.992-3.844-4.399a2.755 2.755 0 0 0-3.148-.493l-2.177 18.022a11.057 11.057 0 0 1-4.327 5.155 96.968 96.968 0 0 0-8.22 6.18l-2.839 2.284c-.31.344-.794.534-1.104.879-2.615 3.422-6.608 5.602-9.059 9.016.009.164-.155.172-.31.345-3.598 3.473-7.032 6.939-9.435 11.172a14.192 14.192 0 0 1-1.062 1.698 32.544 32.544 0 0 0-4.22 7.285c-.734 1.681-1.467 3.363-2.21 4.88a21.81 21.81 0 0 0-1.987 9.14 11.37 11.37 0 0 0 .663 3.251l1.68 3.856a5.684 5.684 0 0 0 3.456 3.27 4.113 4.113 0 0 1 1.181.595 3.27 3.27 0 0 0 3.45-.016 32.477 32.477 0 0 0 6.357-4.11 69.737 69.737 0 0 0 10.12-10.715 9.377 9.377 0 0 0 1.662-2.715l-.958.543c-.164.008-.172-.156-.18-.32.301-.508.629-.525 1.138-.223.914-1.362 2.33-2.586 2.899-4.26-.37-.801.095-1.318.725-1.84.475-.354.94-.87.915-1.362.64-3.484 2.797-6.225 4.29-9.096.147-.337.466-.517.621-.69a5.878 5.878 0 0 1 .562-1.832c1.035-2.19 2.075-4.38 3.116-6.406l.931-1.035c.017.328-.285.837.069 1.311a10.61 10.61 0 0 0 1.338-2.699c-.009-.163-.018-.327-.181-.319a.508.508 0 0 0-.32.181 2.265 2.265 0 0 1-.63.526 6.86 6.86 0 0 1 .57-1.673 161.754 161.754 0 0 1 3.376-7.734 3.593 3.593 0 0 1 2.027-2.077 5.894 5.894 0 0 0 1.574-1.24.745.745 0 0 0-.042-.82 13.686 13.686 0 0 1 1.897-1.413 86.486 86.486 0 0 1 8.19-3.55 140.964 140.964 0 0 1 13.588-4.159c1.782-.421 3.562-1.007 5.184-1.42a71.867 71.867 0 0 1 10.22-2.505 8.689 8.689 0 0 1 4.104-.05 2.332 2.332 0 0 0 1 .276c.992.113 1.303-.232 1.415-1.224a3.996 3.996 0 0 0-.843-3.57Zm-47.862-7.196c.337.147.509.302.354.475.017.328-.302.509-.621.69l-.275-2.122c.81-.207 1.138-.224 1.155.104.03.491-.285.672-.609.853Zm7.418 16.207a7.134 7.134 0 0 1 1.113-.715l-.655.034a.573.573 0 0 1-.337-.147.6.6 0 0 1 .138-.5 15.987 15.987 0 0 0 1.756-.913l7.107-2.342a204.849 204.849 0 0 1 22.372-5.768c.983-.052 1.949-.43 2.958.01-1.268.887-2.596.628-3.873 1.352l-1.474.077c-.975.215.19.483-.13.664a15.486 15.486 0 0 1-1.45.568l-7.46 1.868a177.16 177.16 0 0 0-18.573 6.063 3.09 3.09 0 0 0-1.294.396.353.353 0 0 1-.345-.31.508.508 0 0 1 .151-.337Zm1.555-8.131-.155.172.164-.009Zm30.028-.746-.164.008c-.328.017-.5-.138-.664-.13l.655-.034c.16-.008.333.147.169.156Zm-5.71.79-.49.026c-.165.009-.32.181-.484.19l.492-.026c.16-.008.31-.18.479-.19Zm-3.242.827a5.052 5.052 0 0 0 2.104-.603 8.14 8.14 0 0 0-2.108.603Zm-2.272.612a8.14 8.14 0 0 0 2.104-.603 10.019 10.019 0 0 0-2.104.603Zm-.164.008-.328.017a.161.161 0 0 0-.155.173l.164-.009a.573.573 0 0 0 .319-.18Zm-3.407.835-.164.009a.573.573 0 0 1-.319.18l.328-.016c.328-.018.32-.177.155-.169Zm19.714-.043c-.164.009-.32.18-.647.198-7.322 1.368-14.433 3.71-21.553 5.725a96.336 96.336 0 0 0-14.999 5.383c-.647.199-1.276.724-2.104.603l-.181-.319c.155-.172.302-.509.466-.517l1.915-1.086a82.552 82.552 0 0 1 12.083-4.574c5.667-1.61 11.333-3.22 17.008-4.666 2.272-.612 4.709-1.068 6.986-1.515a1.777 1.777 0 0 1 .991.113.353.353 0 0 1 .345.31Zm-20.197.233c-.647.198-1.13.387-1.773.585Zm-3.881 1.188a8.654 8.654 0 0 0 1.94-.594 4.369 4.369 0 0 0-1.94.594Zm-1.95.43a6.978 6.978 0 0 0 1.782-.421Zm-1.612.577a4.791 4.791 0 0 0 1.458-.404 4.791 4.791 0 0 0-1.458.404Zm-25.436 13.157a11.314 11.314 0 0 1-5.22 3.887l-.017-.327a15.133 15.133 0 0 0-1.268.887l.82-.042a1.24 1.24 0 0 1-1.285.56l-1.269.887c.362.639.043.82-.44 1.009a3.572 3.572 0 0 1-1.268.888l-.025-.488-.82.043a5.214 5.214 0 0 1 1.553-1.724 67.07 67.07 0 0 1 9.145-7.378c.474-.353.957-.543 1.432-.896l.655-.034c-.432 1.172-.536 2.324-1.993 2.728Zm-.82.043.82-.043a3.587 3.587 0 0 1 .448-.844 5.756 5.756 0 0 0-1.268.887Zm-3.95 3-.009-.16-.466.517Zm3.133 3.45a6.423 6.423 0 0 1-1.57 1.397 114.309 114.309 0 0 0-9.248 8.533c-1.713 1.732-3.262 3.62-4.979 5.353-.18-.319-.353-.474-.37-.802a97.13 97.13 0 0 1 12.958-12.999 12.062 12.062 0 0 1 2.683-2.111.6.6 0 0 1 .5.138Zm-7.865.411.82-.043-.026-.491Zm-1.449.568a3.587 3.587 0 0 0 .534.794 2.067 2.067 0 0 1-2.104.603 2.18 2.18 0 0 1 1.574-1.397Zm-11.186 12.245c1.078-1.37 2.17-2.577 3.252-3.784a17.964 17.964 0 0 0 1.545-1.884l.466-.517a17.187 17.187 0 0 0 1.217-1.867c.776-.862 1.38-1.875 2.674-2.275l.043.82a.161.161 0 0 0-.155.171.508.508 0 0 0 .18.32c-2.195 2.086-4.21 4.327-6.228 6.568l-2.485 2.759a8.03 8.03 0 0 1-2.028 2.077 4.602 4.602 0 0 1 1.519-2.388Zm18.424-9.012c-.156.173-.32.181-.311.345-.036 2.466-1.425 4.182-2.47 6.208a115.067 115.067 0 0 1-5.497 11.13 21.829 21.829 0 0 1-2.136 3.234c-1.061 1.698-2.45 3.414-3.503 5.276a18.654 18.654 0 0 1-2.321 2.75c-2.195 2.086-4.21 4.327-6.574 6.253l-.94.871a3.728 3.728 0 0 1-3.399.999c-.663-.13-.836-.285-.706-.949.57-1.673.64-3.484 2.05-4.872l.068 1.311a1.852 1.852 0 0 0 .398-1.824l.75-1.353.164-.009a.686.686 0 0 1-.06-1.147 2.88 2.88 0 0 1 .786-.698 1.508 1.508 0 0 1 .242-1.656c.31-.344.612-.853.923-1.198l-.328.017c.147-.336.156-.172.328-.017a11.297 11.297 0 0 0 1.687-2.224c4.237-6.957 9.673-12.991 15.453-18.715 1.562-1.56 3.14-2.793 4.71-4.189a.6.6 0 0 1 .483-.19c.34.151.194.483.203.651Zm-20.107 11.404a25.148 25.148 0 0 1-4.426 6.475 17.586 17.586 0 0 1 4.426-6.475Zm4.682 1.56-.155.172c.008.164-.156.172-.147.336l-.017-.328c.155-.172.147-.332.319-.18Zm-.466.517a.353.353 0 0 1-.31.344l-.017-.32Zm-.302.508a3.44 3.44 0 0 1-.915 1.362 11.305 11.305 0 0 1 .423-1.336Zm9.233 6.912c.008.164-.155.172-.32.18.165-.008.156-.172.147-.336l.156-.172c.172.155.172.155.017.332Zm-14.255.744.008.164-.172-.156Zm13.193.954a3.573 3.573 0 0 1 .751-1.353 2.255 2.255 0 0 1-.75 1.357Zm-1.661 2.716a2.943 2.943 0 0 1 .76-1.19 4.986 4.986 0 0 1-.764 1.194Zm-2.153 2.905a4.802 4.802 0 0 1 1.994-2.733 4.802 4.802 0 0 1-1.993 2.737Zm-.754 1.358a33.545 33.545 0 0 1-5.587 6.202 3.301 3.301 0 0 1 .587-1.345c1.863-2.069 3.554-4.293 5.587-6.202a3.301 3.301 0 0 1-.587 1.345Zm2.81 3.468.423-1.337c.155-.172.31-.345.302-.508l.164-.009a1.885 1.885 0 0 1-.886 1.853Zm-16.662 1.855.423-1.336a2.332 2.332 0 0 1 .277-1l-.44 1.008a5.072 5.072 0 0 1-.256 1.328Zm13.736 1.912a52.297 52.297 0 0 1-8.48 7.507 7.468 7.468 0 0 1-3.045 1.474c-.163.008-.491.025-.508-.302a.508.508 0 0 1 .147-.337 2.265 2.265 0 0 1 .63-.525 63.399 63.399 0 0 0 9.782-7.74 4.064 4.064 0 0 1 2.23-1.43 9.158 9.158 0 0 1-.752 1.353Zm-13.356 5.297c-.172-.155-.19-.483-.362-.638-.18-.32-.362-.638.113-.992 1.915-1.085 3.632-2.818 5.723-3.584l-2.018 2.24a1.48 1.48 0 0 1 .827.122 6.003 6.003 0 0 1-4.283 2.852Zm160.82-76.084a1.284 1.284 0 0 0-.094-1.799 2.584 2.584 0 0 1-.767-2.095c.44-1.01-.75-1.765-1.56-1.562a11.079 11.079 0 0 0-2.281.448l-10.988 3.53a3.475 3.475 0 0 0-1.121.552 14.827 14.827 0 0 1-3.373 1.49c-4.045 1.197-7.908 2.717-12.126 3.755-3.079.818-5.986 1.791-9.065 2.609-2.75.8-5.502 1.602-8.262 2.235a47.55 47.55 0 0 1-10.28 1.358c-3.45.015-6.062.316-8.71-.039-2.306-.044-2.366-1.19-1.3-2.89 2.11-3.724 5.064-6.835 8.024-9.947a20.375 20.375 0 0 1 3.623-2.982 14.237 14.237 0 0 1 5.468-2.257 12.49 12.49 0 0 1 3.467.312c1 .276 1.362.914.766 2.095l-.897 1.69a5.52 5.52 0 0 0-.468 3.64 1.753 1.753 0 0 0 2.682 1.01 3.359 3.359 0 0 0 1.242-1.38 30.764 30.764 0 0 1 1.817-3.048 4.077 4.077 0 0 0 .959-3.665 14.184 14.184 0 0 0-1.774-5.658 3.88 3.88 0 0 0-1.91-2.036 9.557 9.557 0 0 0-4.829-1.226l-3.604.188c-1.95.43-4.062.869-5.784 2.438a7.134 7.134 0 0 1-1.113.715c-2.742.964-4.614 2.87-6.642 4.947-1.696 2.06-3.4 4.12-5.09 6.345a21.148 21.148 0 0 0-2.84 5.405 10.429 10.429 0 0 0-.83 3 33.56 33.56 0 0 0 .3 5.736 8.462 8.462 0 0 0 6.414 6.561 17.308 17.308 0 0 0 5.113.39 35.666 35.666 0 0 1 5.912.02l3.113-.162a92.135 92.135 0 0 0 16.257-3.313c9.711-2.81 19.406-5.942 28.902-9.723a99.706 99.706 0 0 0 9.651-3.954c.958-.543 2.096-.767 1.687-2.224-.164-.156.155-.337.31-.51Zm-62.284-9.729a3.573 3.573 0 0 1 1.268-.887 11.511 11.511 0 0 0 2.536-1.776 4.113 4.113 0 0 1 1.113-.715 17.026 17.026 0 0 1 5.209-.93 15.82 15.82 0 0 1 1.983.226.852.852 0 0 1 .673.293 1.244 1.244 0 0 1 .361.639q.013.246-.465.517l-.82.043a34.294 34.294 0 0 1-4.087.377 15.74 15.74 0 0 0-6.46 2.14c-.32.182-.811.207-1.13.388l-.164.009Zm12.382 1.157a26.712 26.712 0 0 0-5.053.757c-.975.215-1.782.421-3.08.818a2.91 2.91 0 0 1 1.57-1.397 11.9 11.9 0 0 1 6.685-1.006c.327-.017.664.13.672.294.026.495-.466.521-.793.538Zm-13.317 6.117c.164-.008.328-.017.32-.18a.573.573 0 0 1-.148.335.161.161 0 0 0-.155.173c-.172-.148-.172-.148-.017-.324Zm54.172 2.266a.161.161 0 0 1-.172-.155l.155-.173c.32-.18.328-.017.336.147Zm-58.667 2.898.008.163c-.163.009-.155.173-.319.181.156-.172.156-.172.147-.336.156-.168.156-.168.164-.004Zm56.172 2.818c-.483.19-.957.543-1.63.25-.017-.328.311-.345.475-.354 1.138-.224 2.104-.603 3.243-.826a4.835 4.835 0 0 1-2.087.934Zm-22.228 2.146a4.369 4.369 0 0 1-1.94.594c.458-.512 1.29-.392 1.936-.59Zm15.143.524-3.062 1.146c-5.494 1.765-11.143 3.703-16.801 5.477a80.403 80.403 0 0 1-13.79 3.349 79.077 79.077 0 0 1-15.264.472l-1.824-.398c-.164.008-.172-.155-.345-.31.164-.01.32-.182.483-.19a20.92 20.92 0 0 1 3.122.001c1.799-.094 3.613-.024 5.416-.118 8.218.064 16.161-1.994 23.923-4.37a283.443 283.443 0 0 0 16.646-5.305 3.091 3.091 0 0 1 1.294-.397s.328-.017.336.147c.177.155.017.328-.138.5Zm-51.817 5.173c-.017-.328.32-.18.647-.198a29.045 29.045 0 0 1 3.777-.033c8.727.366 17.024-1.217 25.277-3.623a5.603 5.603 0 0 1 2.441-.456c-.457.68-.957.543-1.44.732-2.096.767-4.373 1.214-6.46 2.14l2.621-.136a10.089 10.089 0 0 1 1.773-.586 3.307 3.307 0 0 1-1.773.586 7.258 7.258 0 0 1-2.415.947 68.03 68.03 0 0 1-12.703 2.15 2.701 2.701 0 0 1-1.656-.242l-.008-.164c-.164.009-.009-.164-.009-.164.328-.017.647-.198.975-.215 1.63-.25 3.268-.335 4.743-.412a2.433 2.433 0 0 0 1.138-.224l-2.13.112a103.94 103.94 0 0 1-14.289.088c-.164.009-.5-.138-.509-.302Zm23.276-1.05.332-.018c.155-.172.483-.19.638-.362a.986.986 0 0 1-.647.198c-.168.01-.332.018-.323.182Zm-2.768.473-.328.017a.161.161 0 0 0-.155.172l.163-.008a.573.573 0 0 1 .32-.181ZM913.96 13.48a10.613 10.613 0 0 0-.766-2.096 1.234 1.234 0 0 0-1.19-.76 4.054 4.054 0 0 0-1.44.733l-2.821 2.612a58.798 58.798 0 0 1-4.522 4.508 17.559 17.559 0 0 0-2.501 2.434c-1.096 1.043-2.028 2.078-2.96 3.112-1.561 1.56-2.959 3.112-4.356 4.664-.932 1.034-1.864 2.069-2.804 2.94a33.825 33.825 0 0 0-4.047 4.318l-2.178 2.418c-2.346 2.258-4.676 4.844-7.014 7.266-3.908 3.819-7.471 7.948-11.38 11.766-4.684 4.68-9.007 10-13.868 14.525-.94.87-1.704 1.892-2.648 2.767a106.692 106.692 0 0 0-8.24 8.974c-3.735 3.974-6.782 8.569-10.69 12.387-.155.173-.474.353-.62.69a25.22 25.22 0 0 1-2.624 3.258 63.116 63.116 0 0 0-4.167 5.147c-1.079 1.37-1.994 2.733-3.236 4.112a23.755 23.755 0 0 0-2.631 3.094c-2.162 2.742-4.15 5.475-6.144 8.207a9.037 9.037 0 0 0-1.355 2.375 3.76 3.76 0 0 0-.173 2.967 11.437 11.437 0 0 1 1.145 3.062 4.477 4.477 0 0 0 1.258 2.07 4.838 4.838 0 0 0 6.286.81c.164-.009.319-.181.483-.19q4.567-2.21 9.108-4.911a146.532 146.532 0 0 1 13.87-8.118 47.939 47.939 0 0 1 8.358-3.557c.156-.173.32-.181.647-.198.647-.199 1.009.44 1.043 1.095a4.93 4.93 0 0 1-.889 1.85c-.734 1.681-1.636 3.207-2.537 4.897a5.618 5.618 0 0 0-.632 3.647 32.853 32.853 0 0 0 .861 3.899 2.994 2.994 0 0 0 2.418 2.178c.664.13 1.32.095 1.207 1.087.017.327.508.302.836.285a7.73 7.73 0 0 0 2.755-.801c5.784-2.438 11.222-5.35 16.837-7.944a126.492 126.492 0 0 1 14.793-6.03c3.717-1.18 7.426-2.523 10.97-3.858.975-.215.966-.38.579-1.509a2.332 2.332 0 0 1 .276-1c.277-1 .242-1.656-.602-2.105a4.866 4.866 0 0 0-2.518-1.018c-.638.362-1.45.568-1.39 1.715-.146.336-.629.526-1.112.715l-4.045 1.197c-4.2 1.37-8.236 2.734-12.1 4.246a13.67 13.67 0 0 1-2.424.784 13.561 13.561 0 0 1 2.07-1.258 8.483 8.483 0 0 0 2.079-1.094 23.934 23.934 0 0 0-7.073 2.998 12.664 12.664 0 0 1 2.44-.456 19.015 19.015 0 0 1-6.416 2.963 3.409 3.409 0 0 1-1.924.922 2.88 2.88 0 0 1 .613-.853 6.669 6.669 0 0 0-3.045 1.473l1.31-.068a6.103 6.103 0 0 1-3.035 1.637 14.364 14.364 0 0 1-4.158 2.188c-.164.009-.172-.155-.336-.146-.009-.164.147-.337.138-.5.32-.181.475-.354.794-.535a6.468 6.468 0 0 0 2.255-.939 4.79 4.79 0 0 0-2.255.94c-.345-.311-.526-.63-.052-.984a3.301 3.301 0 0 1 1.277-.724c5.451-2.588 10.894-5.333 16.517-7.762a133.738 133.738 0 0 1 17.267-5.995 14.36 14.36 0 0 1 2.605-.464l.621-.69c.794-.534.596-1.181.087-1.483-.862-.777-1.362-.915-2.324-.372a18.008 18.008 0 0 1-5.64 2.098 30.483 30.483 0 0 0-6.78 2.325 18.4 18.4 0 0 1-2.087.93 35.175 35.175 0 0 0-8.694 3.412c-2.717 1.456-5.758 2.93-8.651 4.23-1.122.552-1.63.25-1.858-1.053l-.043-.819c-.147.336-.466.517-.777.862-.155.172-.466.517-.638.362-.336-.147-.19-.483-.043-.82.449-.844.734-1.68 1.191-2.366 1.372-2.043.95-3.828-.135-5.743a34.73 34.73 0 0 0-1.978-3.347 5.218 5.218 0 0 0-4.225-2.244 7.989 7.989 0 0 0-1.958.266c-3.751.525-6.943 2.334-10.496 3.506-.483.19-.949.706-1.432.896a10.037 10.037 0 0 1-1.923.922 32.776 32.776 0 0 0-7.203 3.662 4.712 4.712 0 0 1-4.536 1.222 13.25 13.25 0 0 1 4.331-5.155l.466-.517-.164.009.466-.518c.76-1.19 1.364-2.207 2.287-3.405 3.4-4.12 6.799-8.241 10.362-12.37 1.705-1.892 3.236-4.112 5.297-5.534a10.936 10.936 0 0 1 3.883-4.31l.466-.518.008.164a2.585 2.585 0 0 1 1.087-1.206 7.134 7.134 0 0 1 1.113-.716l-.025-.48a4.838 4.838 0 0 1 2.187-2.25c.949-.706 1.044-2.025 2.002-2.568.155-.173.474-.354.63-.526l1.406-1.388a30.462 30.462 0 0 1 4.52-4.672l1.838-2.56a2.585 2.585 0 0 1 1.087-1.207c1.268-.888 2.537-1.775 2.96-3.112a3.266 3.266 0 0 1 1.208-2.034c.31-.345.449-.845.76-1.19a17.594 17.594 0 0 1 4.52-4.672c.155-.173.336.147.517.466 1.277-.724 2.028-2.078 2.942-3.44-.155.173-.31.345-.474.354l-.492.025-.017-.327a13.257 13.257 0 0 1 2.485-2.759.615.615 0 0 1 .983-.051c.638-.362 1.604-.741 1.562-1.56a2.325 2.325 0 0 1 1.027-2.358c2.787-3.267 5.578-6.37 8.377-9.474a14.17 14.17 0 0 0 2.187-2.25c1.536-2.052 3.417-3.793 5.125-5.69a3.875 3.875 0 0 1 1.423-1.06 14.733 14.733 0 0 1 5.289-5.697l-.164.008a36.036 36.036 0 0 0 2.144-3.069 24.11 24.11 0 0 0 1.527-2.215 2.824 2.824 0 0 0 .213-1.983Zm-8.034 12.906-.017-.328-.327.018a1.244 1.244 0 0 1-.639.361l.043.82a4.35 4.35 0 0 0 .944-.871Zm-23.16 25.196c.163-.008.318-.18.474-.353-.164.009-.32.181-.475.353Zm-25.13 19.056a3.816 3.816 0 0 1-1.897 1.414 9.56 9.56 0 0 1 3.589-3.638 11.297 11.297 0 0 1-1.692 2.224ZM842.413 96.9l-.474.354.008.164Zm-10.694 2.863-.328.017-.008-.164a1.962 1.962 0 0 1 1.087-1.206 2.255 2.255 0 0 1-.751 1.35Zm11.56 10.565a47.246 47.246 0 0 1 8.063-2.885 5.267 5.267 0 0 1 2.29-.284c.328-.017.345.31.526.63.017.327-.139.5-.458.68a1.254 1.254 0 0 1-.802.371c-8.728 2.76-16.715 7.116-24.694 11.64a7.538 7.538 0 0 1-2.562 1.284c.147-.337.13-.664.276-1-1.12.55-2.061 1.421-3.363 1.654l-.164.008-.009-.164a4.479 4.479 0 0 1 1.89-1.577 213.08 213.08 0 0 1 19.006-10.357Zm-11.539-.712-.327.017.017.328Zm-.302.509-.008-.164-.156.172Zm14.79.05a4.791 4.791 0 0 0 1.457-.406c-.483.194-.974.22-1.457.405Zm-4.813 2.222a2.332 2.332 0 0 0-.966.379l.008.164.155-.173Zm10.408 1.1a89.463 89.463 0 0 0-18.441 8.684l-11.8 6.86a17.781 17.781 0 0 1-3.045 1.473 2.331 2.331 0 0 1-.966.379.353.353 0 0 1-.345-.31c-.164.008-.017-.329-.017-.329l1.113-.715a132.312 132.312 0 0 0 13.24-7.591 99.445 99.445 0 0 1 18.743-9.194 8.625 8.625 0 0 1 2.752-.8.435.435 0 0 1 .517.465c-.155.173-.147.337-.31.345-.484.19-.958.54-1.441.733Zm-13.45.373-.957.543c-.327.017-.483.19-.802.37.32-.18.647-.198.966-.379a3.588 3.588 0 0 1 .794-.534Zm53.77-2.314a.508.508 0 0 1 .319-.18l-.328.017Zm-.483.19.164-.009a.508.508 0 0 1 .319-.18l-.328.017c-.164.008-.332.017-.155.176Zm-4.856 1.403c.647-.198 1.13-.387 1.773-.585Zm-3.07.982a3.091 3.091 0 0 0 1.293-.396Zm-1.773.586a3.74 3.74 0 0 0 1.773-.586Zm-2.734 1.128a5.719 5.719 0 0 0 2.734-1.128 8.079 8.079 0 0 0-2.742 1.129Zm-23.536 15.03c5.951-2.447 11.705-5.54 17.639-8.314a176.149 176.149 0 0 1 21.912-8.209 1.784 1.784 0 0 1 .81-.207.852.852 0 0 1 .673.294.353.353 0 0 1-.31.345 3.642 3.642 0 0 1-1.756.913c-3.873 1.352-7.918 2.549-11.782 4.065a99.386 99.386 0 0 0-12.057 5.065c-4.65 2.215-9.118 4.748-13.948 6.64a1.254 1.254 0 0 1-.802.37c-.647.198-1.113.715-1.781.421-.517-.298.113-.823 1.402-1.383Zm-26.266-12.102a2.332 2.332 0 0 0 .966-.379c-.32.177-.647.194-.966.38Zm0 0a3.587 3.587 0 0 1-.793.534l.957-.542Zm-.793.534-.958.543a3.587 3.587 0 0 1-.794.535l.958-.543a3.587 3.587 0 0 1 .794-.535Zm-2.722 1.457a2.332 2.332 0 0 0 .966-.38c-.315.182-.642.199-.966.38Zm46.232-1.92a5.753 5.753 0 0 0-2.246 1.103 5.753 5.753 0 0 0 2.25-1.104Zm-51.308 5.47a10.813 10.813 0 0 1 3.839-2.003 9.738 9.738 0 0 1-3.649 2.495.508.508 0 0 1-.336-.147s-.01-.336.154-.345Zm46.017-2.894 1.31-.068 1.898-1.414a5.83 5.83 0 0 0-3.2 1.482Zm-6.081 3.11 1.31-.068a17.437 17.437 0 0 1 1.722-1.568 8.458 8.458 0 0 0-3.2 1.645Zm100.799-17.419a1.747 1.747 0 0 0-.12-2.298c-.509-.302-.543-.957-.733-1.44-.387-1.13-.896-1.432-2.017-.88l-1.756.913a2.96 2.96 0 0 1-1.94.594 18.493 18.493 0 0 0-2.924.645 9.59 9.59 0 0 1-3.096.49 40.23 40.23 0 0 0-4.407.559l-9.314.98a55.477 55.477 0 0 1-7.382.22c-6.58-.15-12.865-.971-18.633-4.45-1.017-.603-1.509-.578-2.272.612s-2.062 1.422-3.347 1.978l-.328.017-.517-.466a.6.6 0 0 1 .138-.5c-.009-.163.155-.172.32-.18.31-.345.965-.38.94-.871-.018-.328-.69-.621-1.337-.423a5.394 5.394 0 0 0-3.209 1.482 39.034 39.034 0 0 0-6.35 7.396 10.647 10.647 0 0 0-1.956 6.674 46.765 46.765 0 0 0 .74 4.726 9.404 9.404 0 0 0 11.527 6.792 21.517 21.517 0 0 0 7.53-3.68c.638-.361 1.764-.749.889-1.85-.164.01-.017-.327.138-.5 1.234-1.542 2.632-3.094 3.702-4.628a21.91 21.91 0 0 0 .993-3.01c.595-1.18 1.078-1.37 2.398-1.275.336.147.827.121 1.327.26a46.462 46.462 0 0 0 6.623.968 30.296 30.296 0 0 0 10.176-.202c2.94-.318 6.037-.808 8.986-.962a19.309 19.309 0 0 0 8.409-2.575 27.064 27.064 0 0 1 5.758-2.93c.81-.206 1.613-.576 1.053-1.858Zm-30.589 2.583c3.596-.352 7.184-.868 10.788-1.056 2.777-.31 5.546-.783 8.314-1.256a13.723 13.723 0 0 0 5.011-1.576 7.103 7.103 0 0 1 .81-.206c.156-.173.484-.19.492-.026.181.32.026.492-.138.5a9.25 9.25 0 0 1-1.932.758 4.757 4.757 0 0 0-2.38 1.603c-.303.509-.63.526-1.113.715a5.83 5.83 0 0 1-1.622.414c-3.924.369-7.83 1.066-11.935 1.115a1.62 1.62 0 0 1-1-.276l4.591-.24a1.24 1.24 0 0 0-1.336-.423l-6.882.36c-.655.034-1.483-.087-2.306-.044a.655.655 0 0 1 .638-.358Zm-20.508 3.699c-.311.345-.45.845-.76 1.19a16.253 16.253 0 0 1-5.63 5.387 9.442 9.442 0 0 1-5.519 1.273c-.983.052-1.173-.431-1.06-1.423a18.186 18.186 0 0 1 1.312-3.19c.31-.345.13-.664-.198-.647a6.912 6.912 0 0 1 3.219-4.44l1.889-1.577a9.104 9.104 0 0 1 1.26-1.051 1.849 1.849 0 0 1 2.638.19l2.62 2.985a1.239 1.239 0 0 1 .229 1.303Zm39.67-4.864-.172-.155a.573.573 0 0 0-.32.18l.492-.025Zm-3.424.507-2.621.137.008.164 2.622-.137Zm8.649 2.014a16.938 16.938 0 0 1-7.909 2.717c-3.924.369-7.84.902-11.772 1.107a13.032 13.032 0 0 1-3.613.024c-.491.026-1.147.06-1.5-.414a4.162 4.162 0 0 1 1.949-.43c4.424-.232 8.667-.782 13.082-1.177 1.63-.249 3.26-.498 4.882-.911a15.644 15.644 0 0 0 4.347-1.706c.802-.37 1.578-1.233 2.587-.792-.449.84-1.424 1.056-2.053 1.582Zm-39.293 8.95a2.332 2.332 0 0 1 .276-1l-.327.018Zm-.31.346.008.164c-.009-.164.147-.337.302-.51-.155.173-.32.182-.31.346Zm-13.593 3.995a.6.6 0 0 1-.5-.138c-.164.008-.328.017-.345-.31-.009-.165-.017-.328.147-.337a17.978 17.978 0 0 1 4.209-1.205 12.526 12.526 0 0 1-1.73 1.404l1.147-.06a.161.161 0 0 1 .172.156l.009.164c-.958.542-1.748 1.077-2.924.645a.573.573 0 0 1-.185-.319Zm6.363 2.297a3.402 3.402 0 0 1-1.587 1.068 10.349 10.349 0 0 1-3.562 1.008l-.328.017c-.172-.155-.336-.147-.345-.31s-.017-.328.147-.337l.475-.353c1.449-.569 2.742-.965 4.027-1.525a2.08 2.08 0 0 0 .975-.215s.336.147.345.31c0 0 .017.328-.147.337Zm104.484-22.212a1.747 1.747 0 0 0-.12-2.298c-.509-.302-.543-.957-.732-1.44-.388-1.13-.897-1.432-2.018-.88l-1.755.912a2.96 2.96 0 0 1-1.941.594 18.493 18.493 0 0 0-2.924.646 9.59 9.59 0 0 1-3.096.49 40.23 40.23 0 0 0-4.407.559l-9.313.979a55.477 55.477 0 0 1-7.382.22c-6.58-.149-12.866-.97-18.634-4.449-1.017-.604-1.509-.578-2.272.612s-2.062 1.422-3.347 1.978l-.328.017-.517-.466a.6.6 0 0 1 .138-.5c-.008-.164.155-.172.32-.181.31-.345.965-.379.94-.87-.017-.328-.69-.622-1.337-.424a5.394 5.394 0 0 0-3.208 1.482 39.034 39.034 0 0 0-6.35 7.396 10.647 10.647 0 0 0-1.956 6.674 46.765 46.765 0 0 0 .74 4.726 9.404 9.404 0 0 0 11.526 6.792 21.517 21.517 0 0 0 7.53-3.679c.638-.362 1.764-.75.89-1.85-.165.01-.018-.327.137-.5 1.234-1.543 2.632-3.094 3.702-4.629a21.91 21.91 0 0 0 .993-3.009c.595-1.181 1.078-1.37 2.398-1.275.336.147.828.12 1.328.259a46.462 46.462 0 0 0 6.622.969 30.296 30.296 0 0 0 10.176-.203c2.94-.318 6.037-.808 8.986-.962a19.309 19.309 0 0 0 8.41-2.574 27.064 27.064 0 0 1 5.757-2.93c.81-.206 1.613-.577 1.053-1.858Zm-30.589 2.582c3.596-.352 7.184-.868 10.789-1.056 2.777-.309 5.545-.782 8.313-1.255a13.723 13.723 0 0 0 5.011-1.576 7.103 7.103 0 0 1 .811-.207c.155-.172.483-.19.492-.025.18.319.025.491-.139.5a9.25 9.25 0 0 1-1.932.758 4.757 4.757 0 0 0-2.38 1.603c-.302.508-.63.525-1.113.715a5.83 5.83 0 0 1-1.622.413c-3.923.37-7.83 1.066-11.935 1.116a1.62 1.62 0 0 1-1-.276l4.588-.24a1.24 1.24 0 0 0-1.337-.423l-6.882.36c-.655.033-1.483-.088-2.306-.045a.655.655 0 0 1 .642-.358Zm-20.508 3.7c-.31.344-.449.844-.76 1.19a16.253 16.253 0 0 1-5.63 5.386 9.442 9.442 0 0 1-5.519 1.274c-.983.051-1.172-.432-1.06-1.423a18.186 18.186 0 0 1 1.312-3.19c.31-.345.13-.664-.198-.647a6.912 6.912 0 0 1 3.219-4.44l1.889-1.577a9.104 9.104 0 0 1 1.26-1.052 1.849 1.849 0 0 1 2.638.191l2.62 2.985a1.239 1.239 0 0 1 .229 1.302Zm39.67-4.864-.172-.155a.573.573 0 0 0-.32.18l.492-.025Zm-3.424.507-2.621.137.008.164 2.626-.137Zm8.649 2.013a16.938 16.938 0 0 1-7.909 2.717c-3.924.37-7.839.902-11.771 1.107a13.032 13.032 0 0 1-3.614.025c-.491.025-1.147.06-1.5-.415a4.162 4.162 0 0 1 1.95-.43c4.423-.231 8.666-.781 13.082-1.176 1.63-.25 3.26-.499 4.88-.912a15.644 15.644 0 0 0 4.348-1.705c.802-.37 1.579-1.233 2.587-.793-.449.841-1.423 1.056-2.053 1.582Zm-39.293 8.952a2.332 2.332 0 0 1 .277-1l-.328.016Zm-.31.344.008.164c-.008-.164.147-.336.302-.508-.155.172-.319.18-.31.344Zm-13.593 3.996a.6.6 0 0 1-.5-.138c-.164.008-.328.017-.345-.311-.008-.164-.017-.328.147-.336a17.978 17.978 0 0 1 4.209-1.206 12.526 12.526 0 0 1-1.73 1.405l1.147-.06a.161.161 0 0 1 .172.155l.009.164c-.958.543-1.747 1.077-2.924.646a.573.573 0 0 1-.185-.32Zm6.363 2.296a3.402 3.402 0 0 1-1.587 1.069 10.349 10.349 0 0 1-3.562 1.007l-.328.018c-.172-.156-.336-.147-.344-.311s-.017-.328.146-.336l.475-.354c1.449-.568 2.743-.964 4.028-1.524a2.08 2.08 0 0 0 .974-.215s.337.146.345.31c0 0 .017.328-.147.336Zm121.87-101.489c-.5-.138-.992-.112-1.656-.242-.164.009-.5-.138-.509-.302a1.653 1.653 0 0 1 .138-.5c.31-.345.63-.526.777-.862a.314.314 0 0 0 .138-.5c-.017-.328-.353-.475-.69-.621a3.37 3.37 0 0 0-1.798.093 13.08 13.08 0 0 0-2.553 1.448c-2.372 1.767-4.391 4.008-6.591 5.93l-4.245 3.672c-2.519 2.103-4.34 4.991-7.04 6.779l-.776.862a18.725 18.725 0 0 1-1.704 1.892l-8.878 9.336c-2.64 2.93-4.935 6.168-7.92 8.792-2.493 2.595-4.814 5.345-7.135 8.095-.777.862-1.208 2.034-1.985 2.896a31.636 31.636 0 0 0-4.797 5.673 20.31 20.31 0 0 1-2.144 3.069 44.504 44.504 0 0 1-5.384 7.017l-.768 1.026a28.424 28.424 0 0 1-3.34 5.267 13.974 13.974 0 0 0-2.571 4.242 5.128 5.128 0 0 1-1.381 1.875 7.612 7.612 0 0 0-2.11 3.725 17.897 17.897 0 0 1-.89 1.85 23.449 23.449 0 0 0-3.28 9.536 6.518 6.518 0 0 0 .533 3.915 35.107 35.107 0 0 1 1.826 3.52 9.704 9.704 0 0 0 6.802 4.41 13.283 13.283 0 0 0 5.071-.43c2.907-.973 5.81-1.946 8.711-3.083 2.415-.948 4.658-2.047 6.91-2.99a93.966 93.966 0 0 0 12.989-6.1 52.235 52.235 0 0 0 6.357-4.11 1.884 1.884 0 0 0 1.079-1.37 5.954 5.954 0 0 1-1.122.55 41.366 41.366 0 0 1-6.676 4.292c-4.943 2.887-10.428 4.816-15.733 7.065l-8.538 3.25a28.723 28.723 0 0 1-5.355 1.266c-.164.008-.492.025-.51-.302 0 0 .148-.337.312-.345 2.095-.767 4.2-1.37 6.132-2.124l14.162-5.668a84.728 84.728 0 0 0 16.147-8.564 3.359 3.359 0 0 0 1.243-1.38 1.216 1.216 0 0 0-1.069-1.587 12.872 12.872 0 0 0-2.315-.208 4.42 4.42 0 0 0-1.078 1.371c.008.164.172.155.18.32-.163.008-.172-.156-.18-.32a3.589 3.589 0 0 0-.794.534l.82-.042a1.254 1.254 0 0 1-.803.37l-.017-.328a3.585 3.585 0 0 0-.794.535l.656-.034c-.156.172-.483.189-.639.361a3.589 3.589 0 0 1-.793.535 3.585 3.585 0 0 1-.794.534 5.194 5.194 0 0 1-1.898 1.413 81.214 81.214 0 0 1-5.45 2.59c-4.994 1.903-10.152 3.815-15.137 5.882l-1.773.586c-.492.026-.509-.302-.526-.63-1.773.586-3.234.99-5.02 1.412a2.792 2.792 0 0 1-1.138.224l-.328.017c-.008-.164-.017-.328.147-.336.32-.181.475-.354.802-.37a50.644 50.644 0 0 0 6.926-2.666c4.666-1.887 9.169-3.765 13.84-5.487a54.615 54.615 0 0 0 11.22-5.35 12.438 12.438 0 0 1 2.571-1.12l.768-1.026c.147-.337.466-.518.113-.992-.345-.31-.673-.294-1.01-.44a3.276 3.276 0 0 0-1.457.404c-2.238 1.267-4.476 2.37-6.383 3.62a19.102 19.102 0 0 1-6.917 2.825 15.823 15.823 0 0 0-4.83 1.895 13.62 13.62 0 0 1-3.39 1.163 22.184 22.184 0 0 0-5.477 2.089 43.362 43.362 0 0 1-6.451 2.308 3.613 3.613 0 0 1-1.302.232c-.975.216-1.5-.414-1.388-1.406a.6.6 0 0 0 .138-.5 10.839 10.839 0 0 1 2.546-4.733l.164-.009c-.681-.457-.534-.793-.224-1.138.751-1.354 1.67-2.552 2.425-3.906a36.016 36.016 0 0 1 2.572-4.241l1.838-2.56a60.388 60.388 0 0 1 4.581-6.651 37.943 37.943 0 0 0 3.072-4.104c2.136-3.233 4.6-6.319 7.058-9.569 1.696-2.06 3.4-4.12 5.091-6.345a37.682 37.682 0 0 1 5.15-5.197 16.345 16.345 0 0 0 1.545-1.884c1.079-1.37 1.813-3.052 3.417-3.793l.466-.517a37.602 37.602 0 0 1 3.244-3.948 3.654 3.654 0 0 0 1.33-2.863c-.018-.328.301-.509.448-.845l.466-.517-.164.009a37.258 37.258 0 0 1 4.814-5.345c1.087-1.207 2.338-2.426 3.434-3.465a7.374 7.374 0 0 1 2.519-2.103l.466-.517-.164.008.957-.543c-.008-.164.147-.336.303-.508a2.92 2.92 0 0 1 1.216-1.867c.777-.862 1.722-1.569 2.666-2.443 2.502-2.435 5.004-4.862 7.678-7.137a2.943 2.943 0 0 1 1.104-.88 4.352 4.352 0 0 0 .768-1.025 1.317 1.317 0 0 0-1.065-1.592Zm-35.6 82.857.819-.043-.026-.491a3.589 3.589 0 0 0-.793.534Zm-.794.534.82-.042-.026-.492a3.585 3.585 0 0 0-.794.534Zm-.155.173c.164-.009.172.155.18.319l-.025-.492Zm-1.924.922a1.253 1.253 0 0 0-.802.37Zm-4.166 2.02a3.86 3.86 0 0 0-1.294.396 5.071 5.071 0 0 1 1.294-.392Zm-3.872 1.353c-.164.008-.156.172-.32.18a.572.572 0 0 0 .324-.177Zm-1.605.74 1.285-.56a3.09 3.09 0 0 1-1.293.397Zm0 0a3.863 3.863 0 0 0-1.293.397c.483-.186.974-.212 1.294-.393Zm-2.906.974c.483-.19 1.13-.388 1.613-.577Zm-1.285.56c.483-.19.802-.37 1.285-.56Zm-1.286.56a5.072 5.072 0 0 0-1.293.396 3.091 3.091 0 0 0 1.294-.392Zm-2.415.947c.32-.18.803-.37 1.122-.551Z"/></g></svg>