<svg xmlns="http://www.w3.org/2000/svg" width="175.138" height="91.131"><defs><linearGradient id="a" x2="1" y2="1" gradientUnits="objectBoundingBox"><stop offset="0" stop-color="#fa484b"/><stop offset="1" stop-color="#ff681d"/></linearGradient></defs><path data-name="パス 588" d="M24.217 16.408c.989 0 1.088-.1 1.088-1.088v-4.651h44.626v4.453c0 .989.1 1.088 1.088 1.088h8.806c.989 0 1.088-.1 1.088-1.088 0-.495-.2-5.739-.2-32.158v-20.878c0-15.733.2-21.274.2-21.867 0-.989-.1-1.088-1.088-1.088-.693 0-4.156.2-13.754.2H46.777a77.56 77.56 0 0 0 3.463-7.421 6.8 6.8 0 0 1 1.484-2.375 2 2 0 0 0 .792-1.385c0-.495-.495-1.088-1.385-1.286-2.869-.495-7.223-1.187-10.587-1.484a23.085 23.085 0 0 1-1.088 4.651 64.967 64.967 0 0 1-3.661 9.3h-6.433c-9.6 0-13.061-.2-13.754-.2-.989 0-1.088.1-1.088 1.088 0 .693.2 6.135.2 24.539v18.305c0 26.419-.2 31.663-.2 32.257 0 .989.1 1.088 1.088 1.088ZM25.305 1.17V-10.7h44.626V1.17Zm0-21.175v-11.082h44.626V-20Zm0-31.169h44.626v10.785H25.305Zm96.078 67.68c.989 0 1.088-.1 1.088-.989v-4.551h56.4v4.156c0 .891.1.989 1.088.989h8.608c.989 0 1.088-.1 1.088-.989 0-.594-.2-5.145-.2-28.695v-19.295c0-14.545.2-19.295.2-19.889 0-.989-.1-1.088-1.088-1.088-.693 0-3.958.2-13.457.2h-19.688v-5.345c0-6.728.2-8.608.495-9.895a9.177 9.177 0 0 0 .594-2.375 1.358 1.358 0 0 0-1.484-1.187c-3.463-.4-7.322-.594-11.082-.693a89.439 89.439 0 0 1 .792 14.248v5.244h-18.4c-9.5 0-12.764-.2-13.457-.2-.989 0-1.088.1-1.088 1.088 0 .594.2 5.343.2 22.164v17.217c0 23.649-.2 28.2-.2 28.893 0 .891.1.989 1.088.989Zm34.039-15.138v-18.6h23.451v18.6Zm-32.95 0v-18.6h22.263v18.6Zm56.4-45.417v17.415h-23.45v-17.415Zm-56.4 0h22.263v17.415h-22.263Z" transform="translate(-14.52 74.624)" style="fill:url(#a)"/></svg>