<svg xmlns="http://www.w3.org/2000/svg" width="498.256" height="92.417"><defs><linearGradient id="a" x2="1" y2="1" gradientUnits="objectBoundingBox"><stop offset="0" stop-color="#fa484b"/><stop offset="1" stop-color="#ff681d"/></linearGradient></defs><path data-name="パス 587" d="M55.346-69.754a1.663 1.663 0 0 0 .989-1.484c0-.792-.594-1.187-1.781-1.385A82.666 82.666 0 0 0 43.967-74.8a25.241 25.241 0 0 1-3.661 7.025C32.093-55.9 20.121-45.412 2.112-37.695a17.627 17.627 0 0 1 4.552 6.827c.693 1.682 1.088 2.375 1.781 2.375a5.656 5.656 0 0 0 2.276-.891 129.118 129.118 0 0 0 19.888-12.862v7.916c0 .989.1 1.088 1.187 1.088.594 0 2.968-.2 10.587-.2h13.755c7.718 0 10.093.2 10.686.2.989 0 1.088-.1 1.088-1.088v-7.619A105.428 105.428 0 0 0 88.691-29.68a5.928 5.928 0 0 0 2.375.891c.891 0 1.187-.693 1.682-2.573a23.254 23.254 0 0 1 4.057-8.312C80.281-45.412 65.439-54.318 54.554-69.16ZM31.6-43.038a95.894 95.894 0 0 0 17.215-18.008 91.811 91.811 0 0 0 17.613 18.008c-.989 0-3.562.1-10.291.1H42.384c-7.619 0-9.994-.1-10.587-.1Zm34.037 27.211a120.242 120.242 0 0 1-19.2 28.1q-.594.594-.594.891c0 .693 1.286 1.187 5.046 2.672 2.869 1.187 4.156 1.781 4.947 1.781.495 0 .792-.3 1.187-.792 7.619-9.7 15.634-21.769 19.295-28.794 1.385-2.573 2.177-3.859 3.265-4.749.989-.792 1.286-1.187 1.286-2.177 0-.594-.2-1.385-3.463-4.552-2.573-2.474-3.463-2.771-4.453-2.771a5.558 5.558 0 0 0-1.484.4 9.612 9.612 0 0 1-3.463.4H32.39c-9.6 0-12.863-.2-13.457-.2-.989 0-1.088.1-1.088 1.088v7.718c0 1.088.1 1.187 1.088 1.187.594 0 3.859-.2 13.457-.2Zm93.209-35.522c13.259 0 22.164 11.181 22.164 22.956 0 18.7-13.16 25.627-29.882 29.585a20.986 20.986 0 0 1 6.926 6.234c1.286 1.979 2.177 2.375 4.255 1.781 20.086-6.036 30.476-17.613 30.476-36.017 0-19.691-13.952-34.335-37.7-34.335-13.358 0-23.846 4.354-32.158 12.665-7.124 7.124-11.181 16.227-11.181 25.726 0 16.128 8.806 25.43 17.514 25.43 7.421 0 12.566-3.958 16.821-11.379 5.937-10.39 10.093-25.825 12.368-42.647Zm-11.874.594c-1.682 13.16-6.135 27.409-10.488 35.423-2.672 4.749-4.848 6.036-7.421 6.036-3.067 0-6.728-5.046-6.728-14.15 0-6.333 2.968-12.962 7.718-18.305 4.447-4.849 9.992-7.619 16.919-9.005Zm138.725.2c.1-2.375.1-4.749.1-7.223 0-6.135.2-9 .495-10.093a16.894 16.894 0 0 0 .693-2.573c0-.495-.594-.891-1.583-1.088-2.375-.3-6.234-.594-9.2-.693a107.372 107.372 0 0 1 .693 14.051c0 2.573 0 5.145-.1 7.619-4.057 0-5.541-.2-6.036-.2-.989 0-1.088.1-1.088 1.088v7.025c0 .989.1 1.088 1.088 1.088.495 0 1.88-.1 5.838-.2a156.433 156.433 0 0 1-2.672 25.133 61.383 61.383 0 0 1-9.5 22.659l.3-1.979a40.769 40.769 0 0 1 .792-4.453 363.068 363.068 0 0 1-11.583 1.784v-4.354h1.286c7.223 0 9.5.2 10.093.2 1.088 0 1.187-.1 1.187-1.088v-5.741c0-.989-.1-1.088-1.187-1.088-.594 0-2.869.2-10.093.2h-1.286v-4.947h2.474c7.421 0 9.895.2 10.488.2 1.088 0 1.187-.1 1.187-1.088 0-.594-.2-2.869-.2-8.015v-10.098c0-5.343.2-7.619.2-8.213 0-.891-.1-.989-1.187-.989-.594 0-3.067.2-10.488.2h-2.474v-4.749h2.766c7.718 0 10.291.2 10.884.2.891 0 .989-.1.989-1.088v-5.838c0-.989-.1-1.088-.989-1.088-.594 0-3.166.2-10.884.2h-2.771v-5.541a159.007 159.007 0 0 0 10.291-1.781 16.722 16.722 0 0 1 2.968-.3c.792 0 1.286-.3 1.286-1.088a2.9 2.9 0 0 0-.594-1.682 49.581 49.581 0 0 0-5.046-5.64 15.91 15.91 0 0 1-4.255 1.682 157.472 157.472 0 0 1-25.726 3.463 2.823 2.823 0 0 1 .693-.792c.792-.693 1.187-1.187 1.187-1.88s-.594-1.088-1.583-1.484a78.159 78.159 0 0 0-8.905-2.869 38.378 38.378 0 0 1-1.484 7.025C219.3-55.6 215.444-46.3 207.627-36.408a36.82 36.82 0 0 1 2.573 9c.3 1.187.594 1.781.989 1.781.495 0 1.088-.594 1.781-1.484l3.958-5.442c-.1 3.958-.2 8.015-.2 11.379V1.093c0 9.6-.2 14.347-.2 14.941 0 .989.1 1.088 1.088 1.088h7.421c.989 0 1.088-.1 1.088-1.088 0-.495-.2-5.343-.2-14.941v-49.672a148.619 148.619 0 0 0 5.739-15.04 23.9 23.9 0 0 1 .891-2.573 24.145 24.145 0 0 1 2.771 4.848c.792 1.979.792 2.078 3.364 1.88 2.474-.2 4.848-.495 7.223-.792v4.456h-3.661c-7.718 0-10.291-.2-10.884-.2-.989 0-1.088.1-1.088 1.088v5.838c0 .989.1 1.088 1.088 1.088.594 0 3.166-.2 10.884-.2h3.661v4.749h-2.375c-7.421 0-9.895-.2-10.488-.2-1.088 0-1.187.1-1.187.989 0 .693.2 2.869.2 8.213v10.093c0 5.145-.2 7.322-.2 8.015 0 .989.1 1.088 1.187 1.088.594 0 3.067-.2 10.488-.2h2.375v4.947h-3.067c-7.223 0-9.5-.2-10.093-.2-.989 0-1.088.1-1.088 1.088v5.739c0 .989.1 1.088 1.088 1.088.594 0 2.869-.2 10.093-.2h3.067V2.28c-2.771.3-5.442.495-7.817.594-3.364.2-5.937.3-8.806.2.495 3.463.891 5.937 1.385 8.015.2 1.088.594 1.682.989 1.682a2.545 2.545 0 0 0 1.385-.495 10.275 10.275 0 0 1 3.76-.891c8.411-.989 18.305-2.474 24.539-3.562a13.861 13.861 0 0 0 2.276-.495l-2.17 2.772a20.557 20.557 0 0 1 5.442 4.354c.891.891 1.385 1.385 1.88 1.385.4 0 .792-.4 1.484-1.286a71.2 71.2 0 0 0 12.171-28.4 198.677 198.677 0 0 0 3.067-27.9h5.046c0 18.4-.4 32.257-1.88 41.756-.792 5.145-1.187 6.234-4.453 6.234a37.7 37.7 0 0 1-6.728-.693 23.42 23.42 0 0 1 1.88 6.63c.3 3.166.3 3.166 2.177 3.364a37.348 37.348 0 0 0 4.75.2c7.619 0 9.6-3.562 10.785-10.884 1.682-11.577 2.078-28.2 2.177-45.021 0-3.166.1-6.036.2-9.4 0-.989-.2-1.187-1.187-1.187-.594 0-2.573.2-9.1.2Zm-25.331 28.989h-6.432v-5.145h6.432Zm-20.779 0v-5.145h6.333v5.145ZM260.366-37.4v4.947h-6.432V-37.4Zm-20.779 4.95v-4.95h6.333v4.947ZM350.112-56.4a174.467 174.467 0 0 1-24.638 1.583c.594 3.166 1.286 6.827 1.583 7.916.2.989.792 1.385 1.979 1.385a171.35 171.35 0 0 0 24.044-2.375c1.286 2.771 2.771 6.135 3.76 8.213a172.547 172.547 0 0 1-26.617 2.478A49.925 49.925 0 0 0 332-29.086c.3.989.693 1.385 1.781 1.385a233.746 233.746 0 0 0 27.119-2.968 115.059 115.059 0 0 0 8.213 11.676c-3.958-1.682-9.8-2.474-17.019-2.474-15.436 0-24.539 6.63-24.539 17.217 0 12.171 12.072 18.6 34.83 18.6q3.711 0 7.124-.3c1.385-.1 1.781-.495 2.078-1.484a64.325 64.325 0 0 0 1.979-9c.1-.792-.2-1.286-1.187-1.286-3.562.2-7.223.594-10.884.594-15.139 0-23.55-2.078-23.55-8.51 0-4.651 5.442-7.52 14.743-7.52 7.025 0 13.556.989 18.6 3.166a24.913 24.913 0 0 1 5.838 3.166 2.631 2.631 0 0 0 1.385.594c.594 0 .989-.3 1.583-.989a28.7 28.7 0 0 0 4.057-6.135c.495-1.088.495-1.484-.495-2.375-4.848-4.453-8.707-9.994-12.962-17.118a121.784 121.784 0 0 0 16.722-4.848c.989-.4.989-.891.792-1.781a37.523 37.523 0 0 0-1.781-6.531c-.3-.891-.792-1.088-1.781-.594a116.208 116.208 0 0 1-18.009 5.145c-1.286-2.771-2.573-5.838-3.463-8.312 6.728-1.484 12.764-2.968 19.394-5.046a1.513 1.513 0 0 0 1.187-1.781c-.4-1.979-1.088-4.749-1.682-6.63-.3-.792-.792-.891-1.682-.495a154.319 154.319 0 0 1-20.191 5.246c-.594-1.682-.891-2.573-1.583-5.145a17.561 17.561 0 0 1-.4-2.968c0-.594.2-1.286.2-1.88 0-.989-.792-1.781-2.177-1.781a69.97 69.97 0 0 0-11.973 1.088 25.1 25.1 0 0 1 3.463 6.333c.996 2.473 1.59 4.155 2.382 6.427Zm91.382 9.4c-.2 30.08-7.619 43.735-30.377 54.916a21.571 21.571 0 0 1 5.937 6.036c.891 1.484 1.286 2.177 1.979 2.177.495 0 1.088-.4 2.375-1.088 16.821-9.99 25.232-21.567 28.992-39.872h26.914C476.819-13.749 475.73-4.646 474.246.3c-.891 3.364-2.573 4.947-5.838 4.947a96.223 96.223 0 0 1-12.171-.891 21.912 21.912 0 0 1 2.177 7.619c.4 3.166.4 3.364 3.166 3.562 3.265.2 6.036.2 7.817.2 9.895 0 13.754-2.869 15.931-12.27 1.286-5.442 2.474-14.644 3.265-29.388.1-2.474.2-5.145.4-7.718 0-1.088-.2-1.385-1.187-1.385-.594 0-3.364.2-11.676.2h-24.246c.4-3.76.693-7.817.792-12.171h34.236c8.905 0 11.874.2 12.467.2.891 0 .99-.1.99-1.187V-56c0-1.088-.1-1.187-.99-1.187-.594 0-3.562.2-12.467.2h-26.024v-6.728c0-3.661.2-4.947.594-5.739a6.054 6.054 0 0 0 .594-2.078c0-.594-.594-.989-1.583-1.088-3.364-.3-7.223-.495-10.785-.495a49.32 49.32 0 0 1 .693 9.7v6.432h-24.244c-8.806 0-11.775-.2-12.467-.2-.989 0-1.088.1-1.088 1.187v8.015c0 1.088.1 1.187 1.088 1.187.693 0 3.661-.2 12.467-.2Z" transform="translate(-2.112 74.8)" style="fill:url(#a)"/></svg>