<svg xmlns="http://www.w3.org/2000/svg" width="146.249" height="46.191"><defs><linearGradient id="a" x2="1" y2="1" gradientUnits="objectBoundingBox"><stop offset="0" stop-color="#e66163"/><stop offset="1" stop-color="#dd682e"/></linearGradient></defs><path data-name="パス 589" d="M3.334-1.249c1.813 4.794 5.671 7.192 11.752 7.192 9.589 0 15.2-6.958 15.2-24.791 0-15.027-5.672-21.4-14.5-21.4-8.186 0-13.446 5.964-13.446 15.611 0 8.829 5.087 14.383 11.869 14.383a9.6 9.6 0 0 0 9.121-5.321C23.038-3.88 20.173.33 15.2.33c-2.456 0-3.859-1.286-4.678-4.268Zm19.646-20.23c-1.579 3.625-3.859 5.613-7.075 5.613-3.742 0-6.139-3.274-6.139-8.946 0-6.081 1.988-9.823 6.315-9.823 4.794 0 6.84 4.444 6.899 13.156Zm13.857 20.23c1.813 4.794 5.672 7.192 11.752 7.192 9.589 0 15.2-6.958 15.2-24.791 0-15.027-5.672-21.4-14.5-21.4-8.186 0-13.448 5.964-13.448 15.611 0 8.829 5.087 14.383 11.869 14.383a9.6 9.6 0 0 0 9.121-5.321C56.541-3.88 53.676.33 48.706.33c-2.456 0-3.859-1.286-4.678-4.268Zm19.646-20.23c-1.579 3.625-3.859 5.613-7.075 5.613-3.742 0-6.139-3.274-6.139-8.946 0-6.081 1.988-9.823 6.315-9.823 4.794 0 6.84 4.444 6.898 13.156ZM79.052-2.945H70.69v8.069h8.361Zm7.6 1.7c1.813 4.79 5.672 7.188 11.748 7.188 9.589 0 15.2-6.958 15.2-24.791 0-15.027-5.672-21.4-14.5-21.4-8.186 0-13.448 5.964-13.448 15.611 0 8.829 5.087 14.383 11.869 14.383a9.6 9.6 0 0 0 9.121-5.321C106.357-3.88 103.492.33 98.522.33c-2.456 0-3.859-1.286-4.678-4.268ZM106.3-21.479c-1.579 3.625-3.859 5.613-7.075 5.613-3.742 0-6.139-3.274-6.139-8.946 0-6.081 1.988-9.823 6.315-9.823 4.792 0 6.839 4.444 6.899 13.156Zm19.056-4.844c-4.048 0-6.8 2.793-6.8 8.015 0 5.181 2.753 8.1 6.8 8.1 4.088 0 6.881-2.914 6.881-8.136s-2.794-7.979-6.882-7.979Zm0 2.793c1.983 0 2.955 1.741 2.955 5.222 0 3.522-1.012 5.343-2.955 5.343s-2.914-1.822-2.914-5.343q-.002-5.222 2.913-5.222Zm18.9-2.793h-2.429L122.764 5.655h2.469Zm-2.469 15.868c-4.129 0-6.881 2.793-6.881 7.974 0 5.222 2.753 8.136 6.881 8.136 4.007 0 6.8-2.914 6.8-8.136s-2.787-7.975-6.798-7.975Zm0 2.753c1.943 0 2.914 1.781 2.914 5.262 0 3.522-1.012 5.343-2.914 5.343-1.983 0-2.955-1.822-2.955-5.343.002-3.482.974-5.26 2.957-5.26Z" transform="translate(-2.34 40.248)" style="fill:url(#a)"/></svg>