<svg xmlns="http://www.w3.org/2000/svg" xmlns:xlink="http://www.w3.org/1999/xlink" width="320.352" height="132.138" viewBox="0 0 320.352 132.138">
  <defs>
    <linearGradient id="linear-gradient" x1="0.396" y1="-0.297" x2="0.5" y2="1" gradientUnits="objectBoundingBox">
      <stop offset="0" stop-color="#e53729"/>
      <stop offset="0.69" stop-color="#ff652c"/>
      <stop offset="1" stop-color="#ff652c"/>
    </linearGradient>
  </defs>
  <g id="txt_bg" transform="matrix(0.999, 0.035, -0.035, 0.999, -251.981, -3391.937)" opacity="0.14">
    <path id="パス_585" data-name="パス 585" d="M4.7,31.672a10.976,10.976,0,0,1-3.434-.486c-1.772-.619-1.672-1.589.224-2.168a244.663,244.663,0,0,1,24.375-5.664c9.687-1.843,21.2-3.727,34.215-5.6,25.329-3.642,55.438-7.116,87.071-10.047,32.369-3,64.521-5.254,92.978-6.522,15.122-.674,29.12-1.065,41.6-1.162,13.3-.1,24.984.126,34.729.683,2.556.146,4.265.941,3.818,1.775s-2.882,1.392-5.439,1.246c-9.137-.522-20.2-.737-32.884-.638-12.136.095-25.782.476-40.558,1.135-28.028,1.249-59.731,3.473-91.683,6.433-31.224,2.893-60.91,6.317-85.849,9.9-25.863,3.719-45.214,7.418-55.961,10.7A11.456,11.456,0,0,1,4.7,31.672Z" transform="translate(373.71 3481.481) rotate(-2)" fill="url(#linear-gradient)"/>
    <path id="パス_604" data-name="パス 604" d="M64.216-50.784a12.649,12.649,0,0,0-4.324-7.268,22.011,22.011,0,0,0-4.784-2.576,3.5,3.5,0,0,0-.92-.276,43.079,43.079,0,0,0-4.968-.92,21.048,21.048,0,0,0-3.4-.092,6.074,6.074,0,0,1-1.288.092,27.937,27.937,0,0,0-4.784.368c-1.1.276-2.208.552-3.312.736a7.876,7.876,0,0,0-2.116.46A14.556,14.556,0,0,1,31-59.432a8.445,8.445,0,0,0-2.944.92,15.872,15.872,0,0,1-2.208.92,20,20,0,0,0-3.864,1.564,14.6,14.6,0,0,1-3.128,1.656,21.9,21.9,0,0,0-4.048,2.3c-1.656,1.012-3.036,2.484-4.692,3.5a1.109,1.109,0,0,0-.46.46,47.561,47.561,0,0,0-4.508,5.152c-.46.828-1.012,1.564-1.38,2.392a11.9,11.9,0,0,0-.46,9.384,4.227,4.227,0,0,0,.644,1.472,10.833,10.833,0,0,0,3.68,3.68,7.494,7.494,0,0,0,3.956,1.288,3.084,3.084,0,0,0,.92,0c.276-.092.276-.276,0-.368-.092-.092-.184-.184-.092-.276a2.306,2.306,0,0,0,.644-.368c.184-.092.184-.368,0-.552l-.552-.276c-.184-.092-.46-.184-.46-.368,0-.46-.184-.552-.552-.644-1.012-.368-2.116-.828-3.128-1.288-.644-.368-1.288-.828-1.932-1.288a3.373,3.373,0,0,1-1.288-3.036c0-.552.092-1.2.092-1.84A5.38,5.38,0,0,1,5.612-36.8a10.443,10.443,0,0,1,2.3-3.588l.276-.276a3.245,3.245,0,0,1,1.2-1.84,26.229,26.229,0,0,1,4.508-3.956A9.194,9.194,0,0,1,15.18-47.2a2.679,2.679,0,0,0,1.656-1.1A24.279,24.279,0,0,0,19.5-49.68c1.38-.736,2.852-1.472,4.324-2.116a6.862,6.862,0,0,0,1.38-.828H24.2a7.211,7.211,0,0,1,1.288-.46l-.276.46c.92-.276,1.84-.552,2.76-.92a65.98,65.98,0,0,1,10.12-2.76,52.591,52.591,0,0,1,10.028-.736,20.6,20.6,0,0,1,4.048.644A20.352,20.352,0,0,1,57.592-54a9.1,9.1,0,0,1,2.668,2.3,7.089,7.089,0,0,1,1.1,8.28c-.736,1.472-1.564,2.852-2.392,4.232A75.386,75.386,0,0,1,52.9-31c-2.024,2.116-3.588,4.6-5.98,6.348-.092.092-.184.276-.368.368-1.932,1.932-3.864,3.772-5.98,5.52-1.748,1.472-3.588,2.944-5.428,4.416A9.115,9.115,0,0,1,33.58-13.34c-.736.46-1.472.828-2.116,1.288A41.646,41.646,0,0,1,25.576-8.74C24.288-8.1,23-7.544,21.62-6.992a9.273,9.273,0,0,1-3.128.828,1.145,1.145,0,0,1-1.38-.736c-.184.092-.276.276-.46.092-.092,0,0-.276,0-.368a4.928,4.928,0,0,1,1.38-1.38,2.523,2.523,0,0,0,1.2-1.564,1.628,1.628,0,0,1,.828-1.288c.276-.184.368-.368.644-.552-.276-.184-.184-.276-.092-.46l.092-.092v.552a.506.506,0,0,1,.276-.46l-.092-.092a7.422,7.422,0,0,0,1.564-2.208h-.276L22.448-15A.973.973,0,0,1,23-15.64a1.979,1.979,0,0,0,.92-1.38L24.2-17.3H23.92l.552-.736A8.785,8.785,0,0,1,26.4-20.24a3.016,3.016,0,0,0,1.2-1.748,3.494,3.494,0,0,1,1.472-2.3,2.011,2.011,0,0,0,.276-.46.942.942,0,0,1,.46-.552,3.814,3.814,0,0,0,1.012-1.1c-.092-.46.184-.736.368-1.1l1.932-2.484c.736-1.1,1.564-2.208,2.392-3.22.552-.644.92-1.38,1.38-2.024,1.2-1.38,2.392-2.76,3.5-4.232.46-.552.92-1.1,1.38-1.564a24.821,24.821,0,0,0,2.3-3.128c0-.092,0-.092.092-.184a.7.7,0,0,0-.552-.92c-.092,0-.184.092-.368.092-.184-.092-.276-.184-.184-.368v-.092c.092-.184.184-.276,0-.368H42.78a11.65,11.65,0,0,0-2.3,1.932,41.235,41.235,0,0,0-3.312,3.68c-1.748,2.116-3.588,4.048-5.152,6.256-1.748,2.576-3.956,4.784-5.7,7.268a35.991,35.991,0,0,0-3.128,4.508,2,2,0,0,1-.46.736A19.293,19.293,0,0,0,20.7-18.86c-.368.552-.736,1.1-1.1,1.564-.92,1.472-2.024,2.852-2.852,4.324a2,2,0,0,1-.46.736,14.17,14.17,0,0,0-1.932,2.852A13.165,13.165,0,0,1,12.88-7.176c-.644.828-1.1.828-2.024.46L10.3-6.992a21.047,21.047,0,0,0-2.116-.92.656.656,0,0,0-.92.552,3.361,3.361,0,0,0,.276,1.38A6.608,6.608,0,0,0,8.832-4.14a5.551,5.551,0,0,0,.736.736.974.974,0,0,1,.092,1.2c0,.184-.092.276-.184.46A30.436,30.436,0,0,0,6.808,2.576c-.552.736-1.1,1.564-1.564,2.3L3.312,8.464C2.3,10.212,1.288,11.868.368,13.708A3.52,3.52,0,0,0,.552,17.02a.875.875,0,0,0,1.564,0,2.306,2.306,0,0,1,.368-.644,9.7,9.7,0,0,1,1.38-2.76c.828-1.2,1.288-2.668,2.3-3.772a3.063,3.063,0,0,0,.276-.552A13.882,13.882,0,0,1,7.82,6.716a2.992,2.992,0,0,1,1.1-1.472c.644-.46.46-1.2.92-1.656.184-.184.276-.46.46-.644l.92-.92c-.092-.184-.092-.276.092-.46a2.219,2.219,0,0,0,.92-1.1h.092c-.184,0-.276-.092-.276-.184.184-.368.46-.46.736-.736a2.574,2.574,0,0,1,2.3-.644,3.485,3.485,0,0,0,1.38,0c1.564-.276,3.22-.46,4.784-.828a13.446,13.446,0,0,0,4.784-1.932,8.077,8.077,0,0,0-2.116.644,23.6,23.6,0,0,1-5.152,1.38,7.173,7.173,0,0,1-3.128,0c-.092,0-.276-.092-.184-.184a.2.2,0,0,1,.184-.184c.368,0,.736-.092,1.1-.092a21.19,21.19,0,0,0,8.28-2.116,5.55,5.55,0,0,1,1.748-.552.285.285,0,0,1,.184.092v.184l-1.012.828a8.736,8.736,0,0,0,3.036-1.2c.92-.552,1.84-1.1,2.76-1.564,1.288-.736,2.484-1.564,3.68-2.392a4.608,4.608,0,0,0,.736-.644.8.8,0,0,1,.276-.552l-.276.552a5.621,5.621,0,0,0,1.288-.644c.184-.184.46-.276.368-.552a.613.613,0,0,1,.644-.736A3.86,3.86,0,0,0,40.2-12.42c-.276-.092-.46-.276-.184-.552a1.706,1.706,0,0,1,1.1-.644,1.616,1.616,0,0,0,.92-.828c.092-.368.368-.46.644-.736l3.4-3.036c1.564-1.564,3.128-3.128,4.692-4.6.828-.828,1.656-1.656,2.392-2.484a4.616,4.616,0,0,1,1.288-1.38,2.306,2.306,0,0,1,.368-.644c1.1-1.472,2.3-2.944,3.5-4.324a8.674,8.674,0,0,1,.92-.92v.092q0-.414.276-.276a2.686,2.686,0,0,1,.46-1.288,22.318,22.318,0,0,0,1.288-1.84,9.66,9.66,0,0,0,1.1-1.932c.184-.644.46-1.288.644-1.932A19.887,19.887,0,0,0,64.308-43.7,20.332,20.332,0,0,0,64.216-50.784Zm-7.636-7.36c-.092,0-.184.092-.276.092a2.306,2.306,0,0,1-.644-.368.833.833,0,0,0-.92-.276,3.711,3.711,0,0,1-1.012,0,33.019,33.019,0,0,0-8.556-1.012,4.479,4.479,0,0,1-1.1-.092,2.525,2.525,0,0,1,1.2-.184,4.479,4.479,0,0,1,1.1-.092h1.288a4.479,4.479,0,0,0,1.1-.092h-5.8c-.276-.092-.644-.092-.736.368-.092.276-.46.276-.644.276l-2.76.276a29.972,29.972,0,0,0-4.14.828,17.94,17.94,0,0,1-3.864.736l-1.012.552a73.993,73.993,0,0,0-7.084,2.668,6.988,6.988,0,0,0-1.012.368c-.092,0-.184.092-.368.184H21.16c.092,0,.092-.092.184-.092.092-.092.184-.092.368-.092a2.528,2.528,0,0,1,1.472-.92,50.2,50.2,0,0,1,6.164-2.392,4.167,4.167,0,0,1,1.472-.276A8.315,8.315,0,0,1,33.3-58.7a4.852,4.852,0,0,0,1.1-.276,5.368,5.368,0,0,0,2.392-.552.338.338,0,0,1,.276-.092c.828.276,1.472-.184,2.208-.368a14.412,14.412,0,0,1,2.76-.46,12.468,12.468,0,0,1,1.84-.184,25.618,25.618,0,0,1,11.5,1.38,3.268,3.268,0,0,1,.828.368.611.611,0,0,1,.368.46Zm-1.656,1.932c-1.564-.368-3.036-.736-4.692-1.012-1.1-.092-2.208-.184-3.312-.184a34.739,34.739,0,0,0-8.74.736c-1.472.276-2.852.552-4.232.92a1,1,0,0,1-1.1-.184,4.93,4.93,0,0,1,1.012-.46,44.661,44.661,0,0,1,6.808-1.38c1.932-.184,3.864-.276,5.7-.368a23.429,23.429,0,0,1,7.544,1.1,3.86,3.86,0,0,1,1.748.828C55.384-55.936,55.2-56.12,54.924-56.212ZM27.232-53.728c-.092.092-.184.092-.368.092-.092.092-.092,0-.092-.092a.09.09,0,0,1,.092-.092.338.338,0,0,0,.276-.092l.092.092Zm-7.36.552c-.092,0-.184,0-.184.092a.321.321,0,0,1,.092-.184.09.09,0,0,0,.092-.092C19.964-53.268,19.964-53.268,19.872-53.176Zm1.564,2.024a1.136,1.136,0,0,1-.736.368c-.184-.092.092-.368.644-.552l.552-.276A1.109,1.109,0,0,1,21.436-51.152Zm-4.784-.184-.552.276a1.615,1.615,0,0,1,.46-.368.338.338,0,0,1,.276-.092C16.928-51.428,16.744-51.336,16.652-51.336Zm-3.588,6.072c.092,0,.092,0,.184-.092a.09.09,0,0,0,.092-.092C13.248-45.356,13.156-45.264,13.064-45.264ZM32.2-28.06l-.092.092H32.2Zm-8.464,7.268a3.308,3.308,0,0,1-.736,1.1A1.3,1.3,0,0,1,23.736-20.792ZM22.724-19.32c0-.092.092-.092.184-.184,0,.092-.092.184-.092.276-.092,0-.092,0-.184.092C22.632-19.228,22.632-19.32,22.724-19.32ZM34.04-11.776a.285.285,0,0,0-.184.092,2.078,2.078,0,0,1-1.012.736,1.929,1.929,0,0,1,1.012-.736l.184-.184h.092C34.224-11.868,34.132-11.776,34.04-11.776Zm-1.38.92h.092c-.092,0-.092,0-.184.092ZM30.176-9.2a1.065,1.065,0,0,1,.644-.46A1.065,1.065,0,0,1,30.176-9.2Zm-1.38.828a1.477,1.477,0,0,1-1.012.46A2.571,2.571,0,0,1,25.76-6.9a2.193,2.193,0,0,1-1.012.552,2.439,2.439,0,0,0,.46-.552h.552a2.715,2.715,0,0,1,2.024-1.012,1.318,1.318,0,0,1,1.012-.46,1.431,1.431,0,0,1,.736-.552A2.214,2.214,0,0,1,28.8-8.372ZM17.3-7.084c0-.092-.092-.092-.092,0a.285.285,0,0,0-.092.184.321.321,0,0,1,.184-.092Zm5.428,1.748h-.092a3.42,3.42,0,0,0-2.116.46c.092.092.092.092.184.092h.092c.092.092.092.184,0,.184a.09.09,0,0,1-.092.092,8.426,8.426,0,0,1-3.956.736c-.092,0-.276-.092-.276-.184s.092-.184.276-.184h.368c-.092-.184-.276-.092-.368-.092a.338.338,0,0,1-.276-.092c-.092,0-.092-.092-.092-.184a.09.09,0,0,1,.092-.092l.92-.276A16.561,16.561,0,0,0,21.62-5.8a1.82,1.82,0,0,1,1.012-.184c.184,0,.276.092.276.184A.336.336,0,0,1,22.724-5.336Zm5.8,0h-.276c.092-.092.092-.184.184-.184s.276-.092.368-.092ZM19.412-4.6a3.307,3.307,0,0,1,1.012-.184.09.09,0,0,0,.092-.092h-.092Zm-.368.184a.09.09,0,0,0,.092-.092C19.044-4.508,19.044-4.508,19.044-4.416Zm73.048-8.648a.979.979,0,0,0,0-1.288c-.276-.184-.276-.552-.368-.828-.184-.644-.46-.828-1.1-.552l-1.012.46A1.659,1.659,0,0,1,88.5-15a10.369,10.369,0,0,0-1.656.276,5.377,5.377,0,0,1-1.748.184,22.558,22.558,0,0,0-2.484.184l-5.244.276a31.107,31.107,0,0,1-4.14-.092c-3.68-.276-7.176-.92-10.3-3.036-.552-.368-.828-.368-1.288.276s-1.2.736-1.932,1.012h-.184l-.276-.276a.338.338,0,0,1,.092-.276c0-.092.092-.092.184-.092.184-.184.552-.184.552-.46,0-.184-.368-.368-.736-.276a3.025,3.025,0,0,0-1.84.736A21.887,21.887,0,0,0,53.728-12.6a5.97,5.97,0,0,0-1.288,3.68,26.222,26.222,0,0,0,.276,2.668,5.273,5.273,0,0,0,6.256,4.14A12.065,12.065,0,0,0,63.3-3.956c.368-.184,1.012-.368.552-1.012-.092,0,0-.184.092-.276.736-.828,1.564-1.656,2.208-2.484a12.287,12.287,0,0,0,.644-1.656c.368-.644.644-.736,1.38-.644.184.092.46.092.736.184a26.053,26.053,0,0,0,3.68.736,16.987,16.987,0,0,0,5.7.184c1.656-.092,3.4-.276,5.06-.276a10.827,10.827,0,0,0,4.784-1.2,15.175,15.175,0,0,1,3.312-1.472c.46-.092.92-.276.644-1.012Zm-17.2.552c2.024-.092,4.048-.276,6.072-.276,1.564-.092,3.128-.276,4.692-.46a7.7,7.7,0,0,0,2.852-.736,3.984,3.984,0,0,1,.46-.092c.092-.092.276-.092.276,0,.092.184,0,.276-.092.276a5.186,5.186,0,0,1-1.1.368,2.668,2.668,0,0,0-1.38.828c-.184.276-.368.276-.644.368a3.269,3.269,0,0,1-.92.184c-2.208.092-4.416.368-6.716.276a.909.909,0,0,1-.552-.184h2.576a.7.7,0,0,0-.736-.276H75.808c-.368,0-.828-.092-1.288-.092A.367.367,0,0,1,74.888-12.512ZM63.3-11.04c-.184.184-.276.46-.46.644a9.114,9.114,0,0,1-3.312,2.852,5.294,5.294,0,0,1-3.128.552c-.552,0-.644-.276-.552-.828a10.2,10.2,0,0,1,.828-1.748c.184-.184.092-.368-.092-.368a3.876,3.876,0,0,1,1.932-2.392l1.1-.828a5.1,5.1,0,0,1,.736-.552,1.037,1.037,0,0,1,1.472.184l1.38,1.748A.7.7,0,0,1,63.3-11.04ZM85.652-12.6,85.56-12.7a.321.321,0,0,0-.184.092h.276Zm-1.932.184H82.248v.092H83.72ZM88.5-11.04A9.5,9.5,0,0,1,84-9.752c-2.208.092-4.416.276-6.624.276a7.307,7.307,0,0,1-2.024-.092c-.276,0-.644,0-.828-.276a2.334,2.334,0,0,1,1.1-.184c2.484,0,4.876-.184,7.36-.276.92-.092,1.84-.184,2.76-.368a8.772,8.772,0,0,0,2.484-.828c.46-.184.92-.644,1.472-.368C89.424-11.408,88.872-11.316,88.5-11.04ZM66.24-7.176a1.308,1.308,0,0,1,.184-.552H66.24Zm-.184.184V-6.9c0-.092.092-.184.184-.276C66.148-7.084,66.056-7.084,66.056-6.992Zm-7.728,1.84a.338.338,0,0,1-.276-.092c-.092,0-.184,0-.184-.184,0-.092,0-.184.092-.184a10.08,10.08,0,0,1,2.392-.552,7.021,7.021,0,0,1-1.012.736h.644a.09.09,0,0,1,.092.092v.092a1.784,1.784,0,0,1-1.656.276A.321.321,0,0,1,58.328-5.152Zm3.5,1.472a1.909,1.909,0,0,1-.92.552,5.8,5.8,0,0,1-2.024.46H58.7c-.092-.092-.184-.092-.184-.184s0-.184.092-.184l.276-.184c.828-.276,1.564-.46,2.3-.736a1.167,1.167,0,0,0,.552-.092s.184.092.184.184C61.916-3.864,61.916-3.68,61.824-3.68Zm64.4-5.06c-.092-.46-.46-.828-1.2-.644a3.45,3.45,0,0,0-1.012.092.244.244,0,0,1-.276-.276.321.321,0,0,1,.184-.092c.276-.092.552-.092.828-.184a1.635,1.635,0,0,0,.92-.368.336.336,0,0,0,.184-.46.337.337,0,0,0-.368-.368h-.828a11.254,11.254,0,0,1-1.564.276c-2.392-.092-4.784.368-7.176.276-.92,0-1.932,0-2.852.092a3.484,3.484,0,0,1-1.38,0c-.828,0-1.656-.092-2.484-.092a22.125,22.125,0,0,1-6.44-1.2,2.011,2.011,0,0,0-.46-.276,1.076,1.076,0,0,1-.736-1.012,1.8,1.8,0,0,1-.092-.644,10.166,10.166,0,0,0-1.38-3.956,1.12,1.12,0,0,0-1.472-.644c-.46.092-.828.276-1.2.368a16.43,16.43,0,0,0-3.864,2.76c-.828.644-1.656,1.38-2.484,2.116a3.227,3.227,0,0,1-.736.46c-.46.276-.828.092-1.1-.368-.092-.184-.092-.46-.184-.644a.649.649,0,0,0-1.2-.184,20.819,20.819,0,0,0-1.2,1.84c-1.288,2.116-2.576,4.232-3.864,6.44a2.112,2.112,0,0,0-.368,1.288,5.06,5.06,0,0,1,.184,2.024.646.646,0,0,0,.368.828c.368.184.46.46.644.736.184.552,1.1.736,1.38.368a31.361,31.361,0,0,0,3.5-3.5,2.382,2.382,0,0,0,.644-1.012.465.465,0,0,1,.644-.46.8.8,0,0,0,.552-.276c.276-.368.736-.552.828-1.1a2,2,0,0,1,.46-.736h.276a1.109,1.109,0,0,0,.46-.46l.552-.552a1.849,1.849,0,0,0,.736-.368,13.173,13.173,0,0,1,2.024-1.38l.276-.276H95.68l.276-.276,1.38-1.1c.92-.828,1.38-.644,1.564.552a5.734,5.734,0,0,0,1.564,2.944A8.771,8.771,0,0,0,104.788-5.8a29.248,29.248,0,0,0,5.7.552,89.4,89.4,0,0,0,13.064-1.1,4.618,4.618,0,0,0,1.1-.184l.276-.184c.092,0,.092-.092.092-.184h-.184c-.644.092-1.288.276-1.932.368-1.932.184-3.864.368-5.8.644a44.641,44.641,0,0,1-6.072.184,16.847,16.847,0,0,1-4.324-.46,1.308,1.308,0,0,1-.552-.184.2.2,0,0,1-.184-.184.321.321,0,0,1,.184-.092h1.1a50.06,50.06,0,0,0,5.244.276c1.012,0,2.116-.092,3.128-.184a71.516,71.516,0,0,0,8.924-.92c.276-.092.552-.092.828-.184C125.948-7.912,126.316-8.28,126.224-8.74Zm-27.968-8v-.092l.092.092ZM121.532-9.2c-.092.092-.184.092-.368.092-1.2.184-2.484.276-3.772.368a7.9,7.9,0,0,0-1.564.276h3.68c-.184.092-.368.092-.552.184A50.266,50.266,0,0,1,109.848-8a4.193,4.193,0,0,1-2.116-.46h1.2a20.862,20.862,0,0,1-2.3-.552c0-.368.276-.276.46-.184a86.017,86.017,0,0,0,9.752.092c1.656,0,3.312-.184,5.06-.276C121.9-9.2,121.716-9.2,121.532-9.2Zm-1.564.644a.553.553,0,0,1,.368-.092.338.338,0,0,1,.276.092Zm-11.04.092a5.384,5.384,0,0,0,1.2.184h4.416a6.212,6.212,0,0,0,1.288-.184C113.528-8.464,111.228-8.372,108.928-8.464ZM194.672-44.62c-.092-.552-.276-1.012-.368-1.472a2.844,2.844,0,0,0-2.208-2.484,33.681,33.681,0,0,0-8.556-1.748c-.46,0-.828-.092-1.288-.092a8.052,8.052,0,0,0-1.472-.184c-2.208-.184-4.324-.46-6.44-.46-1.564-.092-3.036-.276-4.6-.276a3.507,3.507,0,0,1-1.38-.092c-.92-.276-1.012-.644-.644-1.472.092-.092.092-.276.184-.368,0-.368,0-.368.276-.276a4.623,4.623,0,0,0,1.1-.736c.276-.276.552-.46.552-.828.092-.828.736-1.1,1.38-1.472l.276-.276.46-.46a20.424,20.424,0,0,1,3.036-2.576,2.434,2.434,0,0,1,1.748-1.1.884.884,0,0,0,.828-.552c.092-.46.46-.552.828-.644a5.253,5.253,0,0,0,1.932-1.2c.184-.184.46-.368.46-.736.092-.552.552-.828.92-1.1a11.754,11.754,0,0,1,1.932-1.288v.092l.276-.276a5.552,5.552,0,0,1,.736-.736c1.2-1.1,1.2-1.472.46-2.852a1.066,1.066,0,0,0-1.288-.552,17.152,17.152,0,0,0-1.84.92l-3.68,2.484c-1.288,1.1-2.668,2.024-4.048,3.036-2.116,1.564-4.048,3.22-5.98,4.876l-2.208,1.932a44.95,44.95,0,0,0-4.232,4.14,4.955,4.955,0,0,1-3.772,1.656,35.361,35.361,0,0,1-4.416,0,14.906,14.906,0,0,0-2.024.092,6.368,6.368,0,0,1-2.3.092,7.914,7.914,0,0,0-1.472-.092c-1.012,0-1.932.184-2.944.184-2.024-.092-4.048.368-6.072.184a2.686,2.686,0,0,0-.828.184,15.738,15.738,0,0,1-3.588.276c-.368,0-.736.092-1.1.092-1.748.276-3.4.552-5.152.736-1.38.184-2.668.46-4.048.736l-7.176,1.656a16.668,16.668,0,0,0-2.852.828c-1.2.46-2.392.92-3.588,1.288a5.32,5.32,0,0,0-1.288.46c-.368.184-.644.46-.276.828a1.106,1.106,0,0,1,.184.736c0,.92.276,1.2,1.2.828h.184a59.337,59.337,0,0,1,6.9-2.024,133.3,133.3,0,0,1,24.1-3.312c3.956-.184,7.912-.276,11.868-.184h1.012c.184,0,.46,0,.552.276.092.184-.092.368-.552.368h-8.1c-2.852.092-5.7.276-8.464.46-2.392.184-4.784.46-7.084.644q-4.416.552-8.832,1.38c-3.036.644-6.072,1.288-9.108,2.208a3.226,3.226,0,0,0-1.288.552,9.772,9.772,0,0,0,1.748-.368c2.024-.552,3.956-1.1,6.072-1.472q4.554-.966,9.384-1.656c3.68-.46,7.452-.828,11.224-1.1,4.232-.184,8.464-.368,12.7-.276h.828a.523.523,0,0,1,.368.644,1.308,1.308,0,0,1-.184.552c-.828.92-1.656,1.748-2.576,2.668a12.293,12.293,0,0,0-1.84,1.932,19.91,19.91,0,0,1-3.68,3.68,3.437,3.437,0,0,0-.644.552,30.494,30.494,0,0,1-2.392,2.484,3.954,3.954,0,0,0-.828.92,12.571,12.571,0,0,1-2.116,2.3c-1.288,1.2-2.392,2.484-3.588,3.772-1.472,1.656-2.576,3.588-4.324,4.968l-.276.276c-1.38,1.84-2.852,3.588-4.232,5.428a13.147,13.147,0,0,0-1.288,1.84c-1.288,1.84-2.484,3.68-3.68,5.52a31.394,31.394,0,0,0-1.564,3.036,3.077,3.077,0,0,0-.184,2.392,15.855,15.855,0,0,0,.644,1.932,3.808,3.808,0,0,0,2.116,2.024,2.346,2.346,0,0,0,2.208,0,26.252,26.252,0,0,0,4.232-1.564c1.748-.644,3.4-1.288,5.152-1.748A66.187,66.187,0,0,0,142.048-5.8a33.27,33.27,0,0,0,3.22-1.2l2.852-1.1c1.1-.368,2.208-.828,3.312-1.288.184-.092.46-.184.46-.46a2.609,2.609,0,0,0-1.2.368c-3.864,1.472-7.82,3.036-11.868,4.14-3.864,1.1-7.636,2.392-11.408,3.864-.644.276-1.288.46-2.024.736a1.8,1.8,0,0,0-.644.092c-.092,0-.276-.092-.276-.184a.7.7,0,0,1,.184-.368l.828-.276c1.1-.368,2.208-.828,3.22-1.2,1.932-.736,3.864-1.472,5.8-2.024,3.4-.92,6.716-2.024,10.028-3.22,2.024-.644,4.048-1.472,6.072-2.208a2.507,2.507,0,0,0,1.1-.552.545.545,0,0,0,.092-.644c-.092-.092-.184-.276-.368-.276-.276.092-.644.092-.92.184l-2.852.92a10.052,10.052,0,0,1-1.564.46v-.092a1.484,1.484,0,0,1-.828.276l-.736.276a1.045,1.045,0,0,1-.736.276l-.828.276a2.165,2.165,0,0,1-.736.184,4.065,4.065,0,0,1-1.472.552l.46-.552a7.713,7.713,0,0,0-2.3.828c.092,0,.184,0,.184.092a.321.321,0,0,1-.184.092V-8.1a27.263,27.263,0,0,0-5.336,1.564c.092,0,.276,0,.184.184a.321.321,0,0,1-.184.092v-.276a6.737,6.737,0,0,0-2.3.736h.828a1.733,1.733,0,0,1,.736-.184,1.733,1.733,0,0,1-.736.184,1.484,1.484,0,0,1-.828.276h.092a27.982,27.982,0,0,1-6.164,2.3l.552-.552c-.184,0-.276,0-.368-.092-.092-.184,0-.276.092-.368l.736-.276a77.361,77.361,0,0,1,9.844-3.312c4.6-1.288,9.108-2.76,13.524-4.324.276-.092.552-.276.828-.368a.553.553,0,0,0,.092-.368c0-.092-.184-.184-.276-.184a.173.173,0,0,0-.276,0c-.92.184-1.932.276-2.852.552-1.932.644-3.864,1.1-5.8,1.932a10.761,10.761,0,0,1-1.84.46c-2.76.368-5.244,1.472-7.912,2.116l-.368.092a14.266,14.266,0,0,1-3.312,1.2,1.167,1.167,0,0,1-.552.092.369.369,0,0,1-.46-.46c0-.368.092-.828.092-1.2v-.368c.092-.276.184-.368.552-.184a1.864,1.864,0,0,0,.552-1.472.5.5,0,0,1,.368-.552c.368-.184.736-.368.828-.736-.184-.184-.276-.46,0-.644a4.043,4.043,0,0,0,1.1-1.656,5.579,5.579,0,0,1,2.484-2.76c.276-.092.368-.276.46-.552-.184,0-.276-.184-.092-.368l.368-.368v.46a23.7,23.7,0,0,0,2.944-3.128,7.614,7.614,0,0,1,1.012-1.38l4.232-4.416a5.551,5.551,0,0,1,.736-.736c.092-.092.184-.184.276-.184a3.174,3.174,0,0,1,.736-.828,3.5,3.5,0,0,1,.828-1.2c1.472-1.748,3.036-3.312,4.6-4.876.368-.368.828-.644,1.2-1.012l.276-.276a9.563,9.563,0,0,1,3.036-3.036h-.092a1.961,1.961,0,0,1,.92-1.012l1.38-1.012h.092a.715.715,0,0,1,.368-.92,2.876,2.876,0,0,0,.828-1.012c.184-.276-.092-.552.092-.828.184-.368.644,0,.92-.276l1.38-1.38c.092-.092.184-.276.092-.368-.184-.46.184-.644.46-.736a14.215,14.215,0,0,0,2.116-.552,3.734,3.734,0,0,1,1.748-.368c3.956,0,8,.368,12.052.46a3.13,3.13,0,0,1,.92.092c2.944.092,5.8.46,8.648.828a32.518,32.518,0,0,1,5.06.92,5.718,5.718,0,0,1,2.668,1.38,4.25,4.25,0,0,0,.644.644c.276.092.552.092.644-.184A2.938,2.938,0,0,0,194.672-44.62Zm-10.58-25.3a.338.338,0,0,1,.276.092s0,.184-.092.184a3.818,3.818,0,0,1-1.84,1.1A6.025,6.025,0,0,1,184.092-69.92Zm-2.484,1.932a4.625,4.625,0,0,1-2.024,1.472A6.361,6.361,0,0,1,181.608-67.988Zm-2.3,1.748a1.431,1.431,0,0,1-.736.552A1.431,1.431,0,0,1,179.308-66.24Zm-1.1.828a1.065,1.065,0,0,1-.644.46A1.065,1.065,0,0,1,178.2-65.412Zm1.012,2.392v-.092h.092C179.216-63.112,179.216-63.112,179.216-63.02Zm-10.4,4.968a5.2,5.2,0,0,1-2.208,2.024A6.528,6.528,0,0,1,168.82-58.052Zm-11.5,7.82a2.265,2.265,0,0,1-1.1.092h-8a.09.09,0,0,0,.092.092h8.1c.092.092.184.092.184.184,0,.184-.092.184-.184.184-.46,0-.828.092-1.2.092-4.324-.092-8.74.092-13.064.276a64.12,64.12,0,0,0-8.372.644c-3.588.368-7.084.828-10.672,1.472a90.257,90.257,0,0,0-9.844,2.392l-.736.276c-.184,0-.368.184-.644,0-.092-.092.092-.644.368-.736A13.033,13.033,0,0,1,113.9-46c3.128-.92,6.348-1.656,9.66-2.3q4.692-.828,9.66-1.38c2.576-.368,5.152-.46,7.82-.644,4.232-.276,8.556-.276,12.788-.368,1.012,0,2.024.092,3.036.092a.7.7,0,0,1,.46.184c.092,0,.092,0,.092.092A.09.09,0,0,1,157.32-50.232Zm34.5,2.944-.092.092a4.917,4.917,0,0,1-2.024-.276c-.276,0-.46-.184-.736-.184-.552-.092-1.1-.092-1.656-.184-4.048-.46-8.1-.92-12.236-1.1-2.944-.092-5.8-.276-8.74-.46a.689.689,0,0,1-.46-.092c-.092,0-.092-.092-.184-.092.092-.092.092-.184.184-.184h1.2a2.286,2.286,0,0,0,.736-.092h-.828c-.368-.092-.92.184-1.2-.276.368-.46.828-.276,1.288-.276,2.852.092,5.612.184,8.372.368,2.3.184,4.6.46,6.992.644,2.116.184,4.232.644,6.348.92a11.738,11.738,0,0,1,2.576.644l.46.276C191.82-47.472,191.912-47.38,191.82-47.288ZM138-49.588c.184.092.276,0,.368,0h-.276Zm52.44,4.232c-4.048-.736-8.188-1.1-12.328-1.472-2.208-.092-4.324-.184-6.532-.276l-7.452-.276c-.644,0-1.1-.184-.92-.368.184-.368.552-.276.92-.276,1.564,0,3.22,0,5.06.092,3.68.184,7.544.46,11.408.736a62.729,62.729,0,0,1,9.292,1.288,1.566,1.566,0,0,1,.644.092c.276.184.736,0,.92.552A1.266,1.266,0,0,1,190.44-45.356Zm-35.512.46a2.8,2.8,0,0,1,.736-.736A1,1,0,0,1,154.928-44.9Zm3.588.184a.338.338,0,0,0-.276.092c.092-.092.184-.184.276-.184Zm-4.876,1.1a1.109,1.109,0,0,1-.46.46,1.109,1.109,0,0,1,.46-.46,1.623,1.623,0,0,1,.828-.736A1.123,1.123,0,0,1,153.64-43.608ZM111.5-42.32a2.221,2.221,0,0,0-1.38.368A2.743,2.743,0,0,0,111.5-42.32ZM139.472-28.7c-.092.092-.276.276-.276.184-.184-.092.092-.184.184-.276.092-.184.184-.184.276-.368A.7.7,0,0,1,139.472-28.7ZM133.4-17.2c0-.092.092-.184.184-.276l-.276.276Zm11.868,7.084-.736.276h.736Zm-.736.276-.736.276h.736Zm-.736.276-.828.276h.828Zm-.828.276a1.733,1.733,0,0,1-.736.184h.736Zm-.736.184-1.012.276h1.012Zm.736,0v.092a.09.09,0,0,1,.092-.092ZM130.548-5.52h.736V-5.8Zm-2.024.736a1.308,1.308,0,0,0,.552-.184A1.308,1.308,0,0,0,128.524-4.784Zm0,0a6.339,6.339,0,0,0-.736.276Zm-1.564.552a2.011,2.011,0,0,1-.46.276l.552-.276Zm-1.2.46a2.844,2.844,0,0,0,.736-.184C126.224-3.864,125.948-3.864,125.764-3.772Zm65.872-49.5c-.368-.552-.644-.736-1.1-.552l-.736.276a5.337,5.337,0,0,0-1.1.92c-1.564,1.564-3.22,3.036-4.692,4.692-2.208,2.576-4.692,4.876-6.9,7.452-1.472,1.656-3.22,3.036-4.692,4.692-.828,1.012-1.656,2.024-2.576,2.944-2.852,2.76-5.244,5.98-7.82,9.016a.338.338,0,0,0-.092.276c-1.288,1.748-2.576,3.5-3.68,5.244-.552.644-1.012,1.2-1.472,1.84a1.855,1.855,0,0,1-1.656.552,16,16,0,0,1-3.588-1.012,2.754,2.754,0,0,0-.736-.368.576.576,0,0,0-.828.46.991.991,0,0,0,.184.736,2.547,2.547,0,0,1,.276,1.2,3.018,3.018,0,0,0,.828,2.024,4.822,4.822,0,0,0,1.012.92c.644.644.736.92.368,1.656a.7.7,0,0,0-.184.368,32.015,32.015,0,0,0-2.116,3.5.7.7,0,0,1-.184.368A20.213,20.213,0,0,0,148.488-3.5a16.084,16.084,0,0,1-1.656,2.668,16.367,16.367,0,0,0-1.564,2.76,2.193,2.193,0,0,1-.552,1.012,24.684,24.684,0,0,0-2.392,4.324,13.744,13.744,0,0,1-1.2,2.3,25.333,25.333,0,0,0-1.84,3.5c-.644,1.564-1.38,3.036-2.116,4.6-.276.552-.552,1.2-.828,1.84l-1.656,5.06a10.335,10.335,0,0,0-.276,2.944,7.6,7.6,0,0,0,.736,2.024c.368.46.644,1.012,1.012,1.472a5.067,5.067,0,0,0,6.256,2.116,2.412,2.412,0,0,0,.828-.46,27.8,27.8,0,0,0,8.28-8.1,2.165,2.165,0,0,1-.736.184c.184-.46.184-.46.736-.184a6.794,6.794,0,0,0,1.564-2.3.477.477,0,0,1,0-.736c.46-.92,1.012-1.748,1.472-2.668a12.086,12.086,0,0,0,1.564-3.312,3.639,3.639,0,0,1,.92-1.38,1.317,1.317,0,0,1,.276-1.012c.184-.276.46-.46.368-.92-.092-.368.46-.46.276-.92a.7.7,0,0,0,.184-.46,3.853,3.853,0,0,1,.46-2.3,1.133,1.133,0,0,0,.184-.92,9.249,9.249,0,0,1,.368-2.3,26.112,26.112,0,0,0-.736-9.568c-.276-.92-.46-1.932-.736-2.944a2.825,2.825,0,0,1,.92-2.392,2.259,2.259,0,0,1,2.208-.368,63.321,63.321,0,0,0,8.28.92h1.564c3.22-.276,6.44-.46,9.568-.828,1.2-.184,2.484-.276,3.772-.46a5.206,5.206,0,0,0,2.3-.736,1.8,1.8,0,0,0-.644-.092c-2.76.46-5.428.828-8.28,1.1-1.472.092-3.036.276-4.6.368a35.1,35.1,0,0,1-6.9-.368,8.052,8.052,0,0,1-1.472-.184,5.585,5.585,0,0,1-1.656-.46h.828c2.116.184,4.232.368,6.348.368a93.618,93.618,0,0,0,10.212-.644c1.656-.184,3.5-.46,5.244-.644a1.929,1.929,0,0,0,1.012-.368.837.837,0,0,0,0-1.1c-.184-.092-.276-.276-.46-.368-.092-.092-.276-.184-.46-.368-.092-.184.092-.368.184-.552a.567.567,0,0,0-.092-.644.787.787,0,0,0-.828-.276,28.6,28.6,0,0,1-4.048.552c-3.036.276-6.164.46-9.2.552-2.208,0-4.416-.092-6.532-.184a6.259,6.259,0,0,1-1.38-.184c-.92-.184-1.1-.644-.828-1.288.368-.736.92-1.472,1.288-2.116a9.749,9.749,0,0,0,2.024-3.036v.092a28.631,28.631,0,0,0,2.116-2.576c-.184-.184-.184-.368,0-.46.184-.184.46-.276.644-.644a2.2,2.2,0,0,1,1.288-1.564,2.239,2.239,0,0,0,.92-1.288,2.755,2.755,0,0,1,.368-.736,18.968,18.968,0,0,1,2.3-2.392.345.345,0,0,1,.552,0c.46-.552.644-1.2,1.288-1.564-.092-.736,0-.736.644-.736a4.241,4.241,0,0,0,1.932-2.576c0-.276.184-.46.276-.736,1.2-1.288,2.208-2.576,3.4-3.772a17.711,17.711,0,0,0,1.748-2.116,7.1,7.1,0,0,1,2.944-2.76c-.276-.184-.184-.368-.092-.552.46-.552.828-1.2,1.288-1.748,1.38-1.564,2.576-3.128,3.864-4.784C191.912-52.256,192-52.624,191.636-53.268ZM163.024-13.34a43.734,43.734,0,0,0,4.968.276,66.836,66.836,0,0,0,8.648-.276c2.116-.184,4.14-.368,6.256-.552H184a.2.2,0,0,1,.184.184l.092.092-.46.184a.478.478,0,0,0,.368.184c-.092.092,0,.184-.092.184l-1.1.276q-4.83.552-9.66.828a29.3,29.3,0,0,1-6.348-.092.811.811,0,0,1-.736-.184c2.576-.184,5.06-.092,7.636-.184h-6.256a22.272,22.272,0,0,1-4.968-.644c-.092,0-.368-.092-.276-.276l.184-.092C162.748-13.432,162.84-13.34,163.024-13.34ZM155.572,3.036a50.076,50.076,0,0,1-2.3,8.28,37.841,37.841,0,0,1-2.484,5.152c-.46.828-1.2,1.656-1.656,2.484-.276.368-.552.828-.828,1.288l-.368.552A13.164,13.164,0,0,0,146.188,23a26.13,26.13,0,0,1-4.508,4.508,6.675,6.675,0,0,1-.828.46c-.46.368-.92.276-1.472-.092,0-.552.092-1.012.092-1.472l.092-.368a1.457,1.457,0,0,1,0-2.116c.552-1.012.828-2.116,1.288-3.128a2.1,2.1,0,0,1,.276-1.012c.276-.92.552-1.84,1.472-2.208.736-1.012,1.564-1.932,1.472-3.312a2.071,2.071,0,0,1,.46-1.38c.276.092.46.092.552-.092a5.584,5.584,0,0,0,.644-.92,6.893,6.893,0,0,1,1.38-1.84c-.184-.276,0-.552.092-.736.828-1.564,1.748-3.128,2.576-4.6,0-.092,0-.184.092-.184,1.012-1.012,1.288-2.576,2.208-3.772.184-.184.092-.368.184-.552.644-1.012,1.656-1.748,2.024-2.944.092-.276.46-.46.644-.644V-3.68c.184-.184.368-.092.644.184.184.276.092.552.184.828A38.984,38.984,0,0,1,155.572,3.036Zm-8.74,5.8c0,.092,0,.092-.092.092C146.648,8.74,146.74,8.74,146.832,8.832Zm1.748,13.984c0,.092-.092.092-.184.184a2.766,2.766,0,0,1-1.012,1.288A1.629,1.629,0,0,1,148.4,23c.092-.092,0-.184.092-.276,0-.092.092-.092.184-.092A.285.285,0,0,1,148.58,22.816Zm-8.28,7.82v-.092c-.644-.552-.644-.644-.184-.92a41.638,41.638,0,0,0,3.68-2.392,17.112,17.112,0,0,0,2.852-2.392c.092-.184.368-.184.552-.276a7.171,7.171,0,0,1-2.576,2.668,1.2,1.2,0,0,0-.828.92l-.092-.092c.184.184.276.368.092.46A5.785,5.785,0,0,1,140.3,30.636Zm9.936-5.06c-.092.092-.184,0-.276.092.092-.092.092-.184.184-.184,0-.092.092-.092.184-.184A.338.338,0,0,0,150.236,25.576ZM138.828,27.6c0,.092-.092.092-.092,0l-.092-.092h.092C138.828,27.508,138.92,27.6,138.828,27.6Zm8.464,1.2-1.012.828a16.736,16.736,0,0,1-3.5,2.668l-.828.276a.4.4,0,0,1-.276-.092.338.338,0,0,0-.092-.276l.552-.368a28.121,28.121,0,0,0,4.324-3.036,1.615,1.615,0,0,1,.46-.368c.92-.736,1.38-.92,1.38-.644C148.212,28.244,147.66,28.52,147.292,28.8Zm73.692-41.86a.979.979,0,0,0,0-1.288c-.276-.184-.276-.552-.368-.828-.184-.644-.46-.828-1.1-.552l-1.012.46a1.659,1.659,0,0,1-1.1.276,10.369,10.369,0,0,0-1.656.276,5.377,5.377,0,0,1-1.748.184,22.558,22.558,0,0,0-2.484.184l-5.244.276a31.107,31.107,0,0,1-4.14-.092c-3.68-.276-7.176-.92-10.3-3.036-.552-.368-.828-.368-1.288.276s-1.2.736-1.932,1.012h-.184l-.276-.276a.338.338,0,0,1,.092-.276c0-.092.092-.092.184-.092.184-.184.552-.184.552-.46,0-.184-.368-.368-.736-.276a3.025,3.025,0,0,0-1.84.736A21.887,21.887,0,0,0,182.62-12.6a5.97,5.97,0,0,0-1.288,3.68,26.224,26.224,0,0,0,.276,2.668,5.273,5.273,0,0,0,6.256,4.14,12.065,12.065,0,0,0,4.324-1.84c.368-.184,1.012-.368.552-1.012-.092,0,0-.184.092-.276.736-.828,1.564-1.656,2.208-2.484a12.288,12.288,0,0,0,.644-1.656c.368-.644.644-.736,1.38-.644.184.092.46.092.736.184a26.052,26.052,0,0,0,3.68.736,16.987,16.987,0,0,0,5.7.184c1.656-.092,3.4-.276,5.06-.276a10.827,10.827,0,0,0,4.784-1.2,15.175,15.175,0,0,1,3.312-1.472c.46-.092.92-.276.644-1.012Zm-17.2.552c2.024-.092,4.048-.276,6.072-.276,1.564-.092,3.128-.276,4.692-.46a7.7,7.7,0,0,0,2.852-.736,3.985,3.985,0,0,1,.46-.092c.092-.092.276-.092.276,0,.092.184,0,.276-.092.276a5.187,5.187,0,0,1-1.1.368,2.668,2.668,0,0,0-1.38.828c-.184.276-.368.276-.644.368a3.269,3.269,0,0,1-.92.184c-2.208.092-4.416.368-6.716.276a.909.909,0,0,1-.552-.184H209.3a.7.7,0,0,0-.736-.276H204.7c-.368,0-.828-.092-1.288-.092A.367.367,0,0,1,203.78-12.512ZM192.188-11.04c-.184.184-.276.46-.46.644a9.113,9.113,0,0,1-3.312,2.852,5.294,5.294,0,0,1-3.128.552c-.552,0-.644-.276-.552-.828a10.2,10.2,0,0,1,.828-1.748c.184-.184.092-.368-.092-.368a3.876,3.876,0,0,1,1.932-2.392l1.1-.828a5.1,5.1,0,0,1,.736-.552,1.037,1.037,0,0,1,1.472.184l1.38,1.748A.7.7,0,0,1,192.188-11.04ZM214.544-12.6l-.092-.092a.321.321,0,0,0-.184.092h.276Zm-1.932.184H211.14v.092h1.472Zm4.784,1.38a9.5,9.5,0,0,1-4.508,1.288c-2.208.092-4.416.276-6.624.276a7.307,7.307,0,0,1-2.024-.092c-.276,0-.644,0-.828-.276a2.334,2.334,0,0,1,1.1-.184c2.484,0,4.876-.184,7.36-.276.92-.092,1.84-.184,2.76-.368a8.771,8.771,0,0,0,2.484-.828c.46-.184.92-.644,1.472-.368C218.316-11.408,217.764-11.316,217.4-11.04ZM195.132-7.176a1.307,1.307,0,0,1,.184-.552h-.184Zm-.184.184V-6.9c0-.092.092-.184.184-.276C195.04-7.084,194.948-7.084,194.948-6.992Zm-7.728,1.84a.338.338,0,0,1-.276-.092c-.092,0-.184,0-.184-.184,0-.092,0-.184.092-.184a10.081,10.081,0,0,1,2.392-.552,7.022,7.022,0,0,1-1.012.736h.644a.09.09,0,0,1,.092.092v.092a1.784,1.784,0,0,1-1.656.276A.321.321,0,0,1,187.22-5.152Zm3.5,1.472a1.909,1.909,0,0,1-.92.552,5.8,5.8,0,0,1-2.024.46h-.184c-.092-.092-.184-.092-.184-.184s0-.184.092-.184l.276-.184c.828-.276,1.564-.46,2.3-.736a1.167,1.167,0,0,0,.552-.092s.184.092.184.184C190.808-3.864,190.808-3.68,190.716-3.68Zm71.208-53.268c-.276-.092-.552-.092-.92-.184-.092,0-.276-.092-.276-.184a.927.927,0,0,1,.092-.276c.184-.184.368-.276.46-.46a.176.176,0,0,0,.092-.276c0-.184-.184-.276-.368-.368a1.89,1.89,0,0,0-1.012,0,7.335,7.335,0,0,0-1.472.736c-1.38.92-2.576,2.116-3.864,3.128L252.172-52.9c-1.472,1.1-2.576,2.668-4.14,3.588l-.46.46a10.5,10.5,0,0,1-1.012,1.012l-5.244,4.968a56.45,56.45,0,0,1-4.692,4.692c-1.472,1.38-2.852,2.852-4.232,4.324-.46.46-.736,1.1-1.2,1.564a17.739,17.739,0,0,0-2.852,3.036,11.387,11.387,0,0,1-1.288,1.656,24.952,24.952,0,0,1-3.22,3.772l-.46.552a15.938,15.938,0,0,1-2.024,2.852,7.836,7.836,0,0,0-1.564,2.3,2.876,2.876,0,0,1-.828,1.012,4.269,4.269,0,0,0-1.288,2.024,10.038,10.038,0,0,1-.552,1.012A13.148,13.148,0,0,0,215-8.832a3.655,3.655,0,0,0,.184,2.208,19.686,19.686,0,0,1,.92,2.024,5.443,5.443,0,0,0,3.68,2.668,7.448,7.448,0,0,0,2.852-.092c1.656-.46,3.312-.92,4.968-1.472,1.38-.46,2.668-1.012,3.956-1.472A52.69,52.69,0,0,0,239.016-8a29.288,29.288,0,0,0,3.68-2.116,1.057,1.057,0,0,0,.644-.736,3.339,3.339,0,0,1-.644.276,23.194,23.194,0,0,1-3.864,2.208,76.169,76.169,0,0,1-9.016,3.5L224.94-3.312a16.105,16.105,0,0,1-3.036.552c-.092,0-.276,0-.276-.184,0,0,.092-.184.184-.184,1.2-.368,2.392-.644,3.5-1.012l8.1-2.76a47.508,47.508,0,0,0,9.292-4.324,1.883,1.883,0,0,0,.736-.736.681.681,0,0,0-.552-.92,7.217,7.217,0,0,0-1.288-.184,2.48,2.48,0,0,0-.644.736c0,.092.092.092.092.184-.092,0-.092-.092-.092-.184a2.011,2.011,0,0,0-.46.276h.46a.7.7,0,0,1-.46.184v-.184a2.011,2.011,0,0,0-.46.276h.368c-.092.092-.276.092-.368.184a2.011,2.011,0,0,1-.46.276,2.011,2.011,0,0,1-.46.276,2.913,2.913,0,0,1-1.1.736c-1.012.46-2.116.92-3.128,1.288-2.852.92-5.8,1.84-8.648,2.852l-1.012.276c-.276,0-.276-.184-.276-.368-1.012.276-1.84.46-2.852.644a1.566,1.566,0,0,1-.644.092h-.184c0-.092,0-.184.092-.184.184-.092.276-.184.46-.184a28.4,28.4,0,0,0,3.956-1.288c2.668-.92,5.244-1.84,7.912-2.668a30.623,30.623,0,0,0,6.44-2.668,6.973,6.973,0,0,1,1.472-.552l.46-.552c.092-.184.276-.276.092-.552-.184-.184-.368-.184-.552-.276a1.837,1.837,0,0,0-.828.184c-1.288.644-2.576,1.2-3.68,1.84a10.71,10.71,0,0,1-3.956,1.38,8.872,8.872,0,0,0-2.76.92,7.637,7.637,0,0,1-1.932.552,12.439,12.439,0,0,0-3.128,1.012,24.314,24.314,0,0,1-3.68,1.1,2.026,2.026,0,0,1-.736.092c-.552.092-.828-.276-.736-.828a.338.338,0,0,0,.092-.276,6.078,6.078,0,0,1,1.564-2.576h.092c-.368-.276-.276-.46-.092-.644.46-.736,1.012-1.38,1.472-2.116a20.2,20.2,0,0,1,1.564-2.3l1.1-1.38a33.861,33.861,0,0,1,2.76-3.588,21.276,21.276,0,0,0,1.84-2.208c1.288-1.748,2.76-3.4,4.232-5.152,1.012-1.1,2.024-2.208,3.036-3.4a21.128,21.128,0,0,1,3.036-2.76,9.16,9.16,0,0,0,.92-1.012c.644-.736,1.1-1.656,2.024-2.024l.276-.276a21.08,21.08,0,0,1,1.932-2.116,2.049,2.049,0,0,0,.828-1.564c0-.184.184-.276.276-.46l.276-.276H247.3a20.888,20.888,0,0,1,2.852-2.852c.644-.644,1.38-1.288,2.024-1.84a4.135,4.135,0,0,1,1.472-1.1l.276-.276h-.092l.552-.276c0-.092.092-.184.184-.276a1.637,1.637,0,0,1,.736-1.012c.46-.46,1.012-.828,1.564-1.288,1.472-1.288,2.944-2.576,4.508-3.772a1.65,1.65,0,0,1,.644-.46,2.439,2.439,0,0,0,.46-.552A.738.738,0,0,0,261.924-56.948ZM239.568-11.592h.46v-.276A2.011,2.011,0,0,0,239.568-11.592Zm-.46.276h.46v-.276A2.011,2.011,0,0,0,239.108-11.316Zm-.092.092c.092,0,.092.092.092.184v-.276Zm-1.1.46a.7.7,0,0,0-.46.184ZM235.52-9.752a2.165,2.165,0,0,0-.736.184A2.844,2.844,0,0,1,235.52-9.752Zm-2.208.644c-.092,0-.092.092-.184.092A.321.321,0,0,0,233.312-9.108Zm-.92.368.736-.276a1.733,1.733,0,0,1-.736.184Zm0,0a2.165,2.165,0,0,0-.736.184C231.932-8.648,232.208-8.648,232.392-8.74Zm-1.656.46c.276-.092.644-.184.92-.276ZM230-8c.276-.092.46-.184.736-.276Zm-.736.276a2.844,2.844,0,0,0-.736.184A1.733,1.733,0,0,0,229.264-7.728Zm-1.38.46c.184-.092.46-.184.644-.276Zm25.852-21.068a.556.556,0,0,0,.276.552,1,1,0,0,0,1.564.092l.552-.552a11.848,11.848,0,0,1,1.564-1.472c.184-.092.368-.46.46,0a4.53,4.53,0,0,0,1.38-.92,20.09,20.09,0,0,1,2.024-1.932,1.555,1.555,0,0,0,.644-.92h.092a.345.345,0,0,1,0-.552l.92-.828a2.989,2.989,0,0,0,.92-1.2.756.756,0,0,0-.092-.644.577.577,0,0,0-.736-.184,6.777,6.777,0,0,0-1.288.368l.92-.92c.184-.184.46-.276.368-.552,0-.276-.368-.368-.828-.184a1.308,1.308,0,0,0-.552.184,15.268,15.268,0,0,0-2.944,2.024,7.417,7.417,0,0,1-1.288,1.1A29.106,29.106,0,0,0,254.012-31a.933.933,0,0,0-.276.92A2.832,2.832,0,0,1,253.736-28.336Zm3.956-1.1c-.092.092-.092.276.092.276.092,0,.184-.092.276-.184l.092-.368h-.46Zm6.072,20.332c-.092.092-.276.092-.46.184a56.389,56.389,0,0,1-5.612,1.656,63.3,63.3,0,0,0-8,2.76c-1.932.736-3.772,1.472-5.7,2.3a19.535,19.535,0,0,1-4.14,1.1,1.277,1.277,0,0,1-.828,0c-.092,0-.092-.092-.092-.184-.092-.092,0-.092,0-.092l.552-.276a25.916,25.916,0,0,0,2.852-.644c1.564-.46,2.944-1.1,4.416-1.656a80.178,80.178,0,0,1,8.924-3.312c2.484-.736,4.968-1.472,7.452-2.116.368-.184.736-.276,1.1-.46a.621.621,0,0,0,.368-.552.931.931,0,0,0-.368-.644c-.368-.092-.644-.276-1.012-.368a2.547,2.547,0,0,0-1.2.276h.368l.092.184a.478.478,0,0,1-.368.184,4.555,4.555,0,0,1-1.2.368c-1.84.552-3.772,1.012-5.7,1.564a3.131,3.131,0,0,1-1.288.184,2.5,2.5,0,0,1-1.564.552,2.4,2.4,0,0,1-.736.276,1.045,1.045,0,0,1,.736-.276,2.439,2.439,0,0,0,.46-.552,6.413,6.413,0,0,0-1.748.552,17.677,17.677,0,0,0-3.588,1.564c.276,0,.552-.092.828-.092a1.816,1.816,0,0,1-1.288.552l.46-.46.092-.092a18,18,0,0,0-4.324,1.84h.736a10.741,10.741,0,0,1-4.048,1.472c-.092,0-.276,0-.276-.184,0-.092.184-.184.276-.276h-.276c-.184,0-.276-.092-.276-.184-.092-.184.092-.276.184-.276.092-.092.184-.092.368-.184a43.379,43.379,0,0,0,6.348-2.208A67.629,67.629,0,0,1,256.5-10.3a55.049,55.049,0,0,1,6.716-1.656.469.469,0,0,0,.46-.368.493.493,0,0,0-.46-.46h-.644c-1.932.368-3.772.368-5.612,1.1-.552.276-1.2.46-1.748.736A9.7,9.7,0,0,1,253-10.4a14.149,14.149,0,0,0-4.324,1.472A14.679,14.679,0,0,1,246.56-8c-1.38.552-2.852,1.012-4.324,1.472l-1.1.276c-.276,0-.46-.276-.368-.46a2.273,2.273,0,0,1,.368-.828,19.739,19.739,0,0,1,1.656-2.208,1.4,1.4,0,0,0,.644-1.1,2.735,2.735,0,0,1,.736-1.84,9.162,9.162,0,0,0,.92-1.012,1.653,1.653,0,0,0,.368-.828.883.883,0,0,0-.276-.92.685.685,0,0,0-.828-.092c-.184.092-.276.092-.276-.184,0-.092.092-.184.092-.276.276-.552.092-.736-.552-.736a2.623,2.623,0,0,0-1.288.736c-1.012.92-1.84,2.024-2.852,3.128a39.432,39.432,0,0,0-3.68,5.06,3.436,3.436,0,0,0-.46,2.668c0,.368.092.736.092,1.012a3.822,3.822,0,0,0,4.6,3.588.09.09,0,0,0,.092-.092c1.2-.276,2.3-.552,3.4-.92,1.656-.552,3.312-1.2,4.876-1.84a50.27,50.27,0,0,1,7.084-2.576c2.852-.828,5.7-1.656,8.464-2.668.184-.092.46-.092.644-.368C264.684-9.2,264.224-9.2,263.764-9.108ZM261-10.948c-.368.092-.736.184-1.012.276L261-10.856Zm-1.012.276c-.368.092-.644.184-1.012.276Zm-2.024.552a5.657,5.657,0,0,0,1.012-.276A1.855,1.855,0,0,0,257.968-10.12Zm-1.84.46a4.188,4.188,0,0,0,1.84-.46A6.007,6.007,0,0,0,256.128-9.66Zm-1.748.552a3.029,3.029,0,0,0,1.748-.552A4.3,4.3,0,0,0,254.38-9.108Zm0,0a3.391,3.391,0,0,0-1.564.46h1.012A2.439,2.439,0,0,0,254.38-9.108Zm-.46.46h0Zm-11.5,4.14.828-.276h-.092Zm0,0a2.165,2.165,0,0,0-.736.184C241.96-4.416,242.236-4.416,242.42-4.508Zm57.04-8.556a.979.979,0,0,0,0-1.288c-.276-.184-.276-.552-.368-.828-.184-.644-.46-.828-1.1-.552l-1.012.46a1.659,1.659,0,0,1-1.1.276,10.369,10.369,0,0,0-1.656.276,5.377,5.377,0,0,1-1.748.184,22.558,22.558,0,0,0-2.484.184l-5.244.276a31.107,31.107,0,0,1-4.14-.092c-3.68-.276-7.176-.92-10.3-3.036-.552-.368-.828-.368-1.288.276s-1.2.736-1.932,1.012h-.184l-.276-.276a.338.338,0,0,1,.092-.276c0-.092.092-.092.184-.092.184-.184.552-.184.552-.46,0-.184-.368-.368-.736-.276a3.025,3.025,0,0,0-1.84.736A21.887,21.887,0,0,0,261.1-12.6a5.97,5.97,0,0,0-1.288,3.68,26.22,26.22,0,0,0,.276,2.668,5.273,5.273,0,0,0,6.256,4.14,12.065,12.065,0,0,0,4.324-1.84c.368-.184,1.012-.368.552-1.012-.092,0,0-.184.092-.276.736-.828,1.564-1.656,2.208-2.484a12.286,12.286,0,0,0,.644-1.656c.368-.644.644-.736,1.38-.644.184.092.46.092.736.184a26.052,26.052,0,0,0,3.68.736,16.987,16.987,0,0,0,5.7.184c1.656-.092,3.4-.276,5.06-.276a10.827,10.827,0,0,0,4.784-1.2,15.175,15.175,0,0,1,3.312-1.472c.46-.092.92-.276.644-1.012Zm-17.2.552c2.024-.092,4.048-.276,6.072-.276,1.564-.092,3.128-.276,4.692-.46a7.7,7.7,0,0,0,2.852-.736,3.984,3.984,0,0,1,.46-.092c.092-.092.276-.092.276,0,.092.184,0,.276-.092.276a5.186,5.186,0,0,1-1.1.368,2.667,2.667,0,0,0-1.38.828c-.184.276-.368.276-.644.368a3.269,3.269,0,0,1-.92.184c-2.208.092-4.416.368-6.716.276a.909.909,0,0,1-.552-.184h2.576a.7.7,0,0,0-.736-.276h-3.864c-.368,0-.828-.092-1.288-.092A.367.367,0,0,1,282.256-12.512ZM270.664-11.04c-.184.184-.276.46-.46.644a9.114,9.114,0,0,1-3.312,2.852,5.294,5.294,0,0,1-3.128.552c-.552,0-.644-.276-.552-.828a10.2,10.2,0,0,1,.828-1.748c.184-.184.092-.368-.092-.368a3.876,3.876,0,0,1,1.932-2.392l1.1-.828a5.1,5.1,0,0,1,.736-.552,1.037,1.037,0,0,1,1.472.184l1.38,1.748A.694.694,0,0,1,270.664-11.04ZM293.02-12.6l-.092-.092a.321.321,0,0,0-.184.092h.276Zm-1.932.184h-1.472v.092h1.472Zm4.784,1.38a9.5,9.5,0,0,1-4.508,1.288c-2.208.092-4.416.276-6.624.276a7.307,7.307,0,0,1-2.024-.092c-.276,0-.644,0-.828-.276a2.334,2.334,0,0,1,1.1-.184c2.484,0,4.876-.184,7.36-.276.92-.092,1.84-.184,2.76-.368A8.772,8.772,0,0,0,295.6-11.5c.46-.184.92-.644,1.472-.368C296.792-11.408,296.24-11.316,295.872-11.04ZM273.608-7.176a1.308,1.308,0,0,1,.184-.552h-.184Zm-.184.184V-6.9c0-.092.092-.184.184-.276C273.516-7.084,273.424-7.084,273.424-6.992ZM265.7-5.152a.338.338,0,0,1-.276-.092c-.092,0-.184,0-.184-.184,0-.092,0-.184.092-.184a10.08,10.08,0,0,1,2.392-.552,7.023,7.023,0,0,1-1.012.736h.644a.09.09,0,0,1,.092.092v.092a1.784,1.784,0,0,1-1.656.276A.321.321,0,0,1,265.7-5.152Zm3.5,1.472a1.909,1.909,0,0,1-.92.552,5.8,5.8,0,0,1-2.024.46h-.184c-.092-.092-.184-.092-.184-.184s0-.184.092-.184l.276-.184c.828-.276,1.564-.46,2.3-.736a1.167,1.167,0,0,0,.552-.092s.184.092.184.184C269.284-3.864,269.284-3.68,269.192-3.68Z" transform="translate(385.221 3477.333) rotate(-7)" fill="#e53729"/>
  </g>
</svg>
