<svg xmlns="http://www.w3.org/2000/svg" xmlns:xlink="http://www.w3.org/1999/xlink" width="239.384" height="82.505" viewBox="0 0 239.384 82.505">
  <defs>
    <linearGradient id="linear-gradient" x1="0.396" y1="-0.297" x2="0.5" y2="1" gradientUnits="objectBoundingBox">
      <stop offset="0" stop-color="#e53729"/>
      <stop offset="0.69" stop-color="#ff652c"/>
      <stop offset="1" stop-color="#ff652c"/>
    </linearGradient>
  </defs>
  <g id="グループ_374" data-name="グループ 374" transform="translate(-207.474 -9284.152)">
    <g id="txt_bg" transform="matrix(0.999, 0.035, -0.035, 0.999, 22.621, 5915.778)" opacity="0.14">
      <text id="Be_connected" data-name="Be connected" transform="translate(310.725 3418.248) rotate(-7)" fill="#e53729" font-size="43" font-family="HunterRiver-Regular, Hunter River"><tspan x="0" y="0">Be connected</tspan></text>
      <path id="パス_585" data-name="パス 585" d="M3.417,23.03a7.981,7.981,0,0,1-2.5-.354c-1.289-.45-1.216-1.156.163-1.576a177.9,177.9,0,0,1,17.724-4.119c7.044-1.34,15.414-2.71,24.879-4.071C62.1,10.262,84,7.736,107,5.6c23.537-2.181,46.915-3.82,67.608-4.742,11-.49,21.174-.774,30.252-.845,9.671-.075,18.167.092,25.253.5,1.859.106,3.1.684,2.776,1.291s-2.1,1.012-3.955.906c-6.644-.38-14.689-.536-23.911-.464-8.825.069-18.747.346-29.491.825C155.151,3.98,132.1,5.6,108.865,7.75c-22.7,2.1-44.29,4.593-62.424,7.2-18.806,2.7-32.876,5.394-40.691,7.778A8.33,8.33,0,0,1,3.417,23.03Z" transform="translate(309.926 3419.148) rotate(-5)" fill="url(#linear-gradient)"/>
    </g>
  </g>
</svg>
