<svg xmlns="http://www.w3.org/2000/svg" xmlns:xlink="http://www.w3.org/1999/xlink" width="475.368" height="139.025" viewBox="0 0 475.368 139.025">
  <defs>
    <linearGradient id="linear-gradient" x1="0.396" y1="-0.297" x2="0.5" y2="1" gradientUnits="objectBoundingBox">
      <stop offset="0" stop-color="#e53729"/>
      <stop offset="0.69" stop-color="#ff652c"/>
      <stop offset="1" stop-color="#ff652c"/>
    </linearGradient>
  </defs>
  <g id="txt_bg" transform="matrix(0.999, 0.035, -0.035, 0.999, -184.359, -3355.655)" opacity="0.14">
    <path id="パス_601" data-name="パス 601" d="M80.96-54.736a4.5,4.5,0,0,0-3.784-3.52,23.1,23.1,0,0,0-5.544-.176h-.264c-1.936.264-3.784.528-5.72.88A38.6,38.6,0,0,0,58.7-55.7l-1.056.264a18.721,18.721,0,0,0-2.376.792,10.943,10.943,0,0,1-2.728.88,2.294,2.294,0,0,0-.968.264c-.88.352-1.848.792-2.816,1.232a12.126,12.126,0,0,1-1.408.528,16.517,16.517,0,0,0-2.64,1.056,44.964,44.964,0,0,1-4.84,2.112,11.784,11.784,0,0,0-1.056.528c-2.288,1.32-4.664,2.288-6.952,3.52-1.32.7-2.552,1.5-3.784,2.288L26.224-41.1a26.667,26.667,0,0,0-3.344,2.112,9.606,9.606,0,0,1-1.5,1.144,18.479,18.479,0,0,0-2.9,2.288,29.792,29.792,0,0,1-2.992,2.728,4.7,4.7,0,0,0-1.144,1.144,8,8,0,0,0-1.936,4.752c-.264,2.64.792,4.136,3.168,4.752a8.169,8.169,0,0,0,2.112.264,37.214,37.214,0,0,0,6.864-.528,10.833,10.833,0,0,1,1.76-.176c.7,0,1.5-.176,2.376-.264l4.048-.792c.264,0,.528-.088.88-.088s.44.352.176.7a.667.667,0,0,1-.176.352,21.692,21.692,0,0,1-4.488,4.488,7.6,7.6,0,0,1-1.408.88,11.752,11.752,0,0,0-1.584.616,13.879,13.879,0,0,1-2.288,1.144,5.35,5.35,0,0,0-1.584.792,12.045,12.045,0,0,1-2.816,1.408c-1.144.528-2.288,1.144-3.52,1.76l-.528.352a1.675,1.675,0,0,0-.792,1.584,1.256,1.256,0,0,1-.088,1.232c-.352.616-.352,1.144.088,1.408a.723.723,0,0,1,.44.44c.088.528.616.44,1.056.352.264-.088.616-.176.88-.264l3.344-1.056c.88-.264.968,0,.88.7a2.72,2.72,0,0,1-.176.7,1.333,1.333,0,0,0-.088,1.144A7.331,7.331,0,0,0,21.3-3.7c.264.88.616.968,1.848.528l.176.176H23.5a.323.323,0,0,0,.088-.264c0-.088-.088-.088-.088-.176A3.567,3.567,0,0,0,24.288-5.9c0-.264-.088-.528.088-.792a4.838,4.838,0,0,1,1.76-2.024,4.881,4.881,0,0,0,.7-.528,4.158,4.158,0,0,1,1.76-.88l5.544-1.32a49.128,49.128,0,0,1,5.984-.88,21,21,0,0,1,7.92.7,5.582,5.582,0,0,1,2.112,1.232c1.056,1.144,1.408,2.552.352,4.488-.792,1.232-1.5,2.464-2.376,3.7a56.068,56.068,0,0,1-4.4,4.84c-1.848,2.024-4.136,3.7-6.16,5.544a4.881,4.881,0,0,1-.7.528c-.528.264-.88.176-.968-.176A4.641,4.641,0,0,1,35.64,7.48a7.1,7.1,0,0,0-2.288-3.608,10.5,10.5,0,0,0-4.224-2.024,32.1,32.1,0,0,0-4.312-.528c-2.112-.264-4.488.176-6.688.264h-.176a46.491,46.491,0,0,0-7.92,2.2,32.805,32.805,0,0,0-8.184,4.84,7.934,7.934,0,0,1-.88.792A14.008,14.008,0,0,0-3.52,15.4a10.574,10.574,0,0,0,0,8.36c1.144,2.816,3.608,4.224,6.864,4.752a22.388,22.388,0,0,0,11.264-1.584,53.073,53.073,0,0,0,8.448-4.048,5.59,5.59,0,0,1,1.848-.792.323.323,0,0,0-.088.264,5.723,5.723,0,0,0,2.64-.968c1.232-.88,2.464-1.672,3.7-2.64a7.187,7.187,0,0,0,1.936-1.672,7.768,7.768,0,0,1,1.936-1.848c.968-.792,1.848-1.5,2.816-2.2a67.608,67.608,0,0,0,5.984-5.1c.264-.264.7-.616.792-.968-.264,0-.352.176-.616.264a5.683,5.683,0,0,1,1.936-1.584,2.4,2.4,0,0,0,1.056-.792,5.021,5.021,0,0,0,1.144-1.232c-.352,0-.264-.264-.088-.528.7-.88,1.5-1.76,2.112-2.64a1.215,1.215,0,0,0,.352-.264c.176-.088.176,0,.352.088L50.776.176a1.664,1.664,0,0,0,.7-.88,10.633,10.633,0,0,1,1.32-2.9,3.4,3.4,0,0,0,.528-1.76,11.075,11.075,0,0,0-1.144-8.184c-1.32-2.112-3.52-3.256-6.512-3.432a16.975,16.975,0,0,0-2.2-.088,13.1,13.1,0,0,0-3.7.264,10.639,10.639,0,0,1-3.344,0h-.088a.323.323,0,0,1,.088-.264c.44-.264.88-.528,1.408-.792.968-.44,2.024-.968,2.992-1.5,3.168-1.76,6.336-3.432,9.5-5.28,6.16-3.52,12.232-7.3,18.04-11.44.528-.352.968-.7,1.408-1.056.352-.264.264-.44-.088-.528h.088l3.256-2.728a26.2,26.2,0,0,0,2.376-2.024,34.911,34.911,0,0,1,2.552-2.552,10.539,10.539,0,0,0,3.08-5.72A10.368,10.368,0,0,0,80.96-54.736ZM50.424-52.008c1.936-.7,3.96-1.32,5.9-1.936a73.3,73.3,0,0,1,11.264-2.9,35.817,35.817,0,0,1,5.192-.528,7.814,7.814,0,0,1,2.024.088c.176,0,.44.088.352.176-.088.352-.264.176-.528.264a16.223,16.223,0,0,1-3.52.528A55.54,55.54,0,0,0,63.624-55a88.806,88.806,0,0,0-9.152,2.552c-.792.264-1.672.44-2.464.7a.086.086,0,0,1,.088-.088A10.77,10.77,0,0,1,48.664-50.6a6.958,6.958,0,0,1-2.552.968c.088-.176.088-.352-.088-.44A31.913,31.913,0,0,1,50.424-52.008Zm25.608-4.664c.088,0,0,.088.088.088l-.088.088h-.088C75.856-56.584,75.944-56.672,76.032-56.672Zm-6.776.176a.086.086,0,0,0-.088-.088.086.086,0,0,1-.088.088h.088Zm-1.76.176v.088h.088Zm-1.232.264h-.088l.088.088Zm-1.5.264H64.68a.323.323,0,0,1-.264.088h.264C64.768-55.7,64.768-55.7,64.768-55.792Zm-.352.088-1.144.264a6.5,6.5,0,0,1,1.056-.176Zm10.3,1.056c-.088.264-.352.176-.528.176l-3.608.264A47.4,47.4,0,0,0,63.8-53.064,87.4,87.4,0,0,0,52.712-49.9c-3.52,1.232-7.128,2.552-10.736,4.224l-1.32.7a11.785,11.785,0,0,1-1.056.528,31.179,31.179,0,0,0-4.576,2.2,4.482,4.482,0,0,1-1.5.616.985.985,0,0,1,.616-.7c.528-.264,1.144-.616,1.76-.88l5.808-2.816c1.584-.7,3.168-1.32,4.752-2.024,2.9-1.232,5.808-2.288,8.8-3.256a91.585,91.585,0,0,1,12.144-3.168,44.112,44.112,0,0,1,5.808-.44,5.018,5.018,0,0,1,1.144.088C74.536-54.824,74.8-54.736,74.712-54.648Zm-15.136.176a5.115,5.115,0,0,0,1.848-.44A7.984,7.984,0,0,0,59.576-54.472Zm-1.672.528c-.264.088-.528.088-.792.176s-.528.176-.88.264l.968-.264A2.72,2.72,0,0,0,57.9-53.944ZM78.232-50.16a15.9,15.9,0,0,1-1.584,2.024L73.832-45.32a2.118,2.118,0,0,1-.7.528c-.616.44-1.232.968-1.848,1.5a44.5,44.5,0,0,1-6.072,4.664c-1.056.7-2.112,1.408-3.08,2.112-1.232.88-2.552,1.76-3.784,2.728a7.133,7.133,0,0,1-1.584.88,6.756,6.756,0,0,0-1.584.88,40.752,40.752,0,0,1-3.784,2.112,9.516,9.516,0,0,0-1.584.968,5.863,5.863,0,0,1-1.848,1.144,22.449,22.449,0,0,0-4.048,2.2,37.767,37.767,0,0,1-3.96,2.288c-.44.176-.792.264-.88,0-.264-.088-.352-.176-.264-.44a4.013,4.013,0,0,1,1.056-1.056,2.839,2.839,0,0,0,1.408-1.936,1.733,1.733,0,0,1,.352-.7c.176-.264.44-.352.44-.264,0,.176-.176.352-.176.44a20.192,20.192,0,0,0,2.376-2.376l-.616.264c.176-.264.352-.528.616-.264a15.868,15.868,0,0,0,1.584-1.76h-.176a1.545,1.545,0,0,1,.352-.44,2.8,2.8,0,0,1,1.056-.968,2.5,2.5,0,0,1,.792-.88,3.811,3.811,0,0,0-.088.44c.088-.176.264-.352.352-.528H47.96a2.678,2.678,0,0,1,.7-.7,2.271,2.271,0,0,1,.792-.792,1.517,1.517,0,0,1,.528-.528,1.386,1.386,0,0,0,.616-.616,2.275,2.275,0,0,1,1.056-.968l.088-.088c0,.088.088.088.176,0h-.176a1.545,1.545,0,0,1,.352-.44c-.088.176-.088.352-.176.528a9.067,9.067,0,0,0,2.288-2.2H54.12l.7-.528c.176-.176.616-.352.176-.528a11.333,11.333,0,0,1,1.5-1.408c.7.088,1.144-.44,1.584-.968a4.669,4.669,0,0,1-1.5.7l1.232-.968a2.929,2.929,0,0,1,.88-.528c.968-.264,1.5-1.144,1.144-1.848,0-.176-.176-.264-.264-.352-.088-.264-.352-.264-.792-.088a5.611,5.611,0,0,0-1.232.7c-1.056.88-2.024,1.584-3.168,2.376a25.654,25.654,0,0,0-2.552,2.024c-1.232,1.144-2.376,2.2-3.7,3.344-2.64,2.376-4.928,4.928-7.48,7.392-.528.528-.88,1.056-1.32,1.584A3.954,3.954,0,0,1,36.7-27.28a23.41,23.41,0,0,1-2.464.264c-.968.088-2.024.176-3.08.352-2.728.264-5.456.616-8.184.7a16.957,16.957,0,0,0-2.112.088,15.363,15.363,0,0,1-4.576-.352h-.352c-.88-.264-1.056-1.056-.44-1.936a6.781,6.781,0,0,1,2.728-2.728h.264a56.285,56.285,0,0,1,6.248-4.84,66.576,66.576,0,0,1,5.9-3.7,7.975,7.975,0,0,0,1.408-.968,9.778,9.778,0,0,0-1.408.616,9.777,9.777,0,0,1-1.408.616,11.709,11.709,0,0,1,3.96-2.2,11.147,11.147,0,0,1-1.144.968A18.565,18.565,0,0,0,35.024-41.8a139.7,139.7,0,0,1,15.4-6.864q4.884-1.716,9.768-3.168a48.909,48.909,0,0,1,10.384-1.936,14.578,14.578,0,0,1,6.248.7,3.671,3.671,0,0,1,1.408.792C78.848-51.656,78.848-51.216,78.232-50.16ZM51.3-51.744a2.715,2.715,0,0,0,.792-.088v-.176A8.305,8.305,0,0,1,51.3-51.744Zm-2.9.968c-.088,0-.352.176-.44.176h.7C48.664-50.688,48.664-50.864,48.4-50.776ZM34.76-44.528a3.85,3.85,0,0,1,1.5-.7,1.545,1.545,0,0,0,.352-.44H36.7a6.161,6.161,0,0,0,1.5-.792.323.323,0,0,0,.088-.264,3.075,3.075,0,0,1,1.144-.44,20.545,20.545,0,0,1,6.072-2.64c0,.088,0,.088-.088.176a1.5,1.5,0,0,1,.616.088c-1.056.44-2.112.968-3.168,1.408-1.76.7-3.432,1.584-5.192,2.376-.352.176-.88.352-1.32.616a3.516,3.516,0,0,1-1.584.616,2.547,2.547,0,0,1-1.408.792,3.907,3.907,0,0,1,.968-.7A.793.793,0,0,0,34.76-44.528Zm10.032-4.84a2.239,2.239,0,0,1,.616-.176v-.088Zm9.768,7.3a15.968,15.968,0,0,1,4.136-3.52c0-.088.088-.088.176-.088s.176.088.088.176-.088.176-.264.264c-1.144.968-2.288,1.848-3.432,2.728Zm22.616-1.408v-.088c0,.088-.088.088-.088.176A.086.086,0,0,1,77.176-43.472ZM29.92-41.8a2.7,2.7,0,0,1,1.232-.792,3.057,3.057,0,0,1,1.76-.88,8.188,8.188,0,0,1-1.672.968,3.829,3.829,0,0,1-1.32.7,1.677,1.677,0,0,1-.88.44A2.072,2.072,0,0,1,29.92-41.8Zm46.552-.968a4.065,4.065,0,0,0,.616-.616Zm-1.056.968c0-.088.176-.176.264-.264l-.352.264Zm-46.728.7a2.179,2.179,0,0,1-1.232.7A2.957,2.957,0,0,1,28.688-41.1Zm23.056,1.5a3.751,3.751,0,0,1-1.056.968,2.078,2.078,0,0,1-.792.7,2.078,2.078,0,0,1,.792-.7,2.239,2.239,0,0,1,1.056-.968,2.239,2.239,0,0,1,1.056-.968A3.751,3.751,0,0,1,51.744-39.6ZM27.1-40.128a1.926,1.926,0,0,1-1.232.7A2.957,2.957,0,0,1,27.1-40.128Zm-1.584.968A15.375,15.375,0,0,1,22-36.784,13,13,0,0,1,25.52-39.16Zm38.632,2.9a3.064,3.064,0,0,1,1.144-.968l1.936-1.32A7.862,7.862,0,0,1,64.152-36.256Zm-17.16.968a10.547,10.547,0,0,1,1.056-.968,3.036,3.036,0,0,1,.792-.7,2.078,2.078,0,0,1-.792.7A2.8,2.8,0,0,1,46.992-35.288Zm20.416-.7a1.443,1.443,0,0,1,.968-.616A2.278,2.278,0,0,1,67.408-35.992ZM25.08-36.52a1.447,1.447,0,0,1-1.056.7C23.848-35.728,24.376-36.168,25.08-36.52Zm36.168,2.2A9.839,9.839,0,0,1,63.8-35.992,8.01,8.01,0,0,1,61.248-34.32Zm-11.616-.968h-.176c-.088.176-.088.352-.176.528C49.456-34.936,49.456-35.112,49.632-35.288Zm-7.216,4.752a11.457,11.457,0,0,1,1.32-1.584l1.848-1.936a9.217,9.217,0,0,0,.968-.7,9.218,9.218,0,0,1-.7.968c-.7.792-1.584,1.584-2.288,2.376A5.65,5.65,0,0,1,42.416-30.536ZM49.28-34.76l-.616.264c-.088.088-.088.264-.176.44Zm15.84.352v.088l-.616.264a2.674,2.674,0,0,0,.616-.44Zm-43.208.176c.088-.088.088-.088.176-.088a.086.086,0,0,1-.088.088c-.088.088-.176.176-.264.176Zm33.616,3.608a6.645,6.645,0,0,1,1.232-.968,23.488,23.488,0,0,1,3.784-2.2A22.966,22.966,0,0,1,55.528-30.624ZM62.48-32.56h-.088l.088-.088Zm-15.928.44-.352.264h.088Zm-.352.264h-.176a1.251,1.251,0,0,0-.176.528Zm11.528,2.464c-.264.088-.528.528-.7.176-.088-.176.264-.44.528-.616a5.469,5.469,0,0,1,2.552-1.32A11.883,11.883,0,0,1,57.728-29.392ZM54.3-29.92a1.4,1.4,0,0,1,.88-.44A4.11,4.11,0,0,1,54.3-29.92Zm-13.464.968a.086.086,0,0,1,.088-.088l.264-.176A3.3,3.3,0,0,1,42.24-30.36a2.674,2.674,0,0,1-1.056,1.144c-.088.088-.176.176-.176.264C40.92-28.864,40.92-28.864,40.832-28.952ZM50.6-27.72a2.345,2.345,0,0,1,.88-.528,5.429,5.429,0,0,1,2.464-1.408,6.905,6.905,0,0,1-2.464,1.408A2.344,2.344,0,0,1,50.6-27.72Zm2.376,1.144c-1.584.88-3.256,1.848-4.84,2.816l-.528.352c-2.9,1.5-5.72,3.08-8.624,4.488-1.32.7-2.552,1.408-3.96,2.112a6.317,6.317,0,0,1-2.376.792l.088-.088A3.763,3.763,0,0,1,33.88-16.9c3.168-1.408,6.248-3.168,9.416-4.84,1.584-.792,3.168-1.76,4.752-2.552,1.056-.7,2.376-1.232,3.432-2.024a5.914,5.914,0,0,1,2.64-1.144A5.65,5.65,0,0,1,52.976-26.576Zm-4.752-.176c.088-.088.176,0,.264,0h.528l-.88.44c0-.088,0-.088.088-.176C48.136-26.576,48.048-26.664,48.224-26.752Zm-12.232.528a1.745,1.745,0,0,1-1.232.264,2.415,2.415,0,0,0-1.144.176,8.43,8.43,0,0,0-3.256.528c-1.672.088-3.432.7-5.1.528a17.925,17.925,0,0,0-3.08,0c.088-.352.264-.264.352-.264,3.784-.264,7.48-.792,11.264-1.232l2.2-.264a.086.086,0,0,1,.088.088C36.08-26.312,36.08-26.224,35.992-26.224Zm11.528.264.088-.088ZM39.16-22l4.752-2.464a4.833,4.833,0,0,1,2.024-.616l.44-.44c-.088-.352.176-.352.44-.528a2.333,2.333,0,0,0-.44.528H46.9a4.716,4.716,0,0,1-.968.44,11.6,11.6,0,0,1-2.992,1.76C41.888-22.7,40.832-22,39.776-21.3a7.562,7.562,0,0,1-2.64,1.056l.44-.44h-.44l-.44.44c.088-.176.088-.352.44-.44A8.035,8.035,0,0,1,39.16-22Zm-19.1-2.64c-.176.264-.616.352-.7.088-.088,0-.088,0-.088-.088.176-.176.7-.264.792-.088Zm10.912.968a79.576,79.576,0,0,1-8.008.88c-.088,0-.264.088-.352-.088.088-.176.264-.176.44-.176,3.52-.44,7.04-.88,10.648-1.5a.665.665,0,0,1,.352-.088c.264,0,.44-.088.616.088,0,.088-.176.264-.7.352Zm-10.12,1.056a.742.742,0,0,1-.616-.176,1.438,1.438,0,0,1,.616,0h.176A.172.172,0,0,1,20.856-22.616ZM18.832-22.7h-.088c-.088,0-.088-.088,0-.088h.088Zm15.664.616c.352-.176-.176.528-.968,1.144A3.064,3.064,0,0,1,34.5-22.088Zm3.96.88a2.239,2.239,0,0,0,.616-.176A5.609,5.609,0,0,0,38.456-21.208Zm-.528.264a1.487,1.487,0,0,1,.44-.176C38.192-21.12,38.1-21.032,37.928-20.944Zm-1.32.792h.352c-.176.088-.264.088-.352.176a1.215,1.215,0,0,0-.352.264.323.323,0,0,1-.264.088c.176-.088.176-.176.176-.176.088-.088.264-.088.44-.176Zm3.7,4.312a2.167,2.167,0,0,1,1.056.088c-.176.264-.352.176-.616.264-1.232.176-2.376.352-3.608.528l-1.5.352c.176,0,.44,0,.44.088a29.509,29.509,0,0,1-5.808,1.408,4.775,4.775,0,0,1,2.2-1.32A76.693,76.693,0,0,1,40.3-15.84Zm-13.376.264c-.264.176-.44.352-.616.44l-.616.264h.528A3.351,3.351,0,0,1,24.2-13.9a.323.323,0,0,1,.088-.264,6.812,6.812,0,0,0-1.408.616,6.435,6.435,0,0,1-1.672.616c.176-.088.352-.352.616-.44,1.32-.7,2.728-1.408,4.136-2.112a8.307,8.307,0,0,0,.792-.264.307.307,0,0,0,.176.088Zm17.072,0c0,.088.088.088.176.176l-.352.088c0-.088-.088-.088-.176-.176Zm-18.216.7a3.919,3.919,0,0,0-1.056.528A2.4,2.4,0,0,0,25.784-14.872Zm9.416.44c.088,0,.088,0,.176-.088a.886.886,0,0,1,.264-.088.665.665,0,0,0-.352.088C35.2-14.52,35.2-14.52,35.2-14.432Zm-1.584.264h-.088l-.088.088a.323.323,0,0,1,.264-.088Zm-.528.176h.088a.323.323,0,0,1,.264-.088h-.264C33.088-14.08,33-13.992,33.088-13.992Zm3.52,1.584c-2.552.528-5.016,1.056-7.568,1.76a3.038,3.038,0,0,1-1.144.264c-.088-.088-.176-.088-.088-.176,0,0,0-.088.176-.176a3.085,3.085,0,0,1,1.232-.528,66.929,66.929,0,0,1,10.472-2.112,7,7,0,0,1,2.376.088C40.3-12.936,38.456-12.76,36.608-12.408Zm-12.936.792h-.088c-.088,0-.088,0,0-.088h.088C23.76-11.792,23.848-11.7,23.672-11.616Zm-2.2,1.056h.176a.189.189,0,0,0-.176.176,2.3,2.3,0,0,1-.7.264c-.088,0-.176,0-.176-.088a.307.307,0,0,1,.176-.088C20.944-10.472,21.12-10.472,21.472-10.56Zm.352,2.024a2.93,2.93,0,0,1-.528.264,22.725,22.725,0,0,1-2.288.7.957.957,0,0,1-.44.088c-.088-.088-.176-.088-.088-.176v-.088a12.871,12.871,0,0,1,3.344-1.232L22-8.888C22-8.712,22-8.624,21.824-8.536ZM17.072-7.128a1.308,1.308,0,0,0-.528.088.879.879,0,0,1,.44-.352h.264C17.072-7.3,17.072-7.216,17.072-7.128ZM4.312,8.184,5.72,7.3c.176-.088.44-.176.616-.264H5.808A17.075,17.075,0,0,1,9.328,5.1,28.451,28.451,0,0,1,17.864,2.64c.968-.176,1.848-.176,2.816-.352.264,0,.352.088.352.352a2.569,2.569,0,0,1-.792.176,6.884,6.884,0,0,0-2.288.176c-.44.088-.792,0-1.232.616l-.88.264A39.558,39.558,0,0,0,7.216,7.04,22.7,22.7,0,0,0,4.4,8.624a7.28,7.28,0,0,1-1.408.792A8.761,8.761,0,0,1,4.312,8.184ZM41.1,7.04a3.767,3.767,0,0,1-1.408,1.232,5.759,5.759,0,0,1-2.112,1.672A6.508,6.508,0,0,1,39.6,8.184,3.263,3.263,0,0,1,41.1,7.04,16.386,16.386,0,0,1,44.44,3.872,14.307,14.307,0,0,1,41.1,7.04ZM12.672,4.312h-.088a4.091,4.091,0,0,1-.792.264l-.528.264c.176-.088.44-.176.616-.264Zm9.944.088c-.088.264-.264.176-.44.264h-.44a35.948,35.948,0,0,0-5.368.88,46.046,46.046,0,0,0-8.008,2.9L7.04,9.24a3,3,0,0,1-1.76.7,18.282,18.282,0,0,1,3.7-2.288,28.806,28.806,0,0,1,10.56-3.08A18.088,18.088,0,0,1,22.616,4.4Zm-12.5.88a1.251,1.251,0,0,0,.528-.176C10.472,5.192,10.3,5.192,10.12,5.28Zm22.616,6.512a24.489,24.489,0,0,1-3.52,2.64c-.176.176-.352.352-.528.352a15.2,15.2,0,0,0-2.816,1.76c-.792.528-1.672,1.056-2.464,1.5C22,18.92,20.592,19.712,19.1,20.5a19.576,19.576,0,0,1-2.728,1.232A54.564,54.564,0,0,1,10.3,23.76a24.635,24.635,0,0,1-4.928.7,9.978,9.978,0,0,1-5.192-.792c-1.584-.88-2.112-2.288-1.5-4.4A6.748,6.748,0,0,0-.88,17.6,11.947,11.947,0,0,1,1.5,13.552a1.086,1.086,0,0,1,.7-.352,2.278,2.278,0,0,0,.968-.616,22.613,22.613,0,0,1,5.72-3.872A30.589,30.589,0,0,1,20.5,5.368c1.056-.088,2.288-.176,2.992-.176a19.515,19.515,0,0,1,8.184,1.32A4.632,4.632,0,0,1,33.44,7.92a1.953,1.953,0,0,1,.44.968A2.488,2.488,0,0,1,32.736,11.792ZM42.944,8.1l.616-.616A4.066,4.066,0,0,1,42.944,8.1ZM41.008,9.944a.323.323,0,0,1-.264.088c0-.176.088-.264.088-.352a8.177,8.177,0,0,0,.88-.44A1.8,1.8,0,0,1,41.008,9.944Zm-2.2,1.672c-.176.176-.176.352-.352.44-.968.7-1.936,1.408-2.816,2.112a.665.665,0,0,1-.352.088.351.351,0,0,1,.176-.352,20.478,20.478,0,0,1,3.08-2.376c.176-.088.264-.176.264,0ZM29.92,15.752c-.088.44-.44.616-.792.88a63.076,63.076,0,0,1-11.616,6.512,4.961,4.961,0,0,1-1.056.352,1.545,1.545,0,0,1,.352-.44,14.672,14.672,0,0,1-1.76.7l-2.112.528L11,25.08c.7-.616.7-.616,1.936-.792A3.846,3.846,0,0,1,14.52,23.5a79.338,79.338,0,0,0,14.7-7.92,5.583,5.583,0,0,1,1.848-1.056C30.8,15.048,30.272,15.312,29.92,15.752Zm-.88.616.88-.616a4.063,4.063,0,0,0-1.32.792C28.776,16.456,28.952,16.456,29.04,16.368ZM24.9,18.832a.323.323,0,0,0,.264-.088C25.08,18.744,24.992,18.832,24.9,18.832Zm0,0v.088Zm-11,7.656a1.938,1.938,0,0,1-.7.088v-.088a.086.086,0,0,1,.088-.088l.88-.44c1.76-.7,3.52-1.408,5.192-2.2,1.848-.88,3.7-1.936,5.544-2.9a2.974,2.974,0,0,1,1.056-.528c.088,0,.176.088.088.176,0,0,0,.176-.088.176-.264.264-.7.528-.88.7A60.254,60.254,0,0,1,13.9,26.488Zm10.648-3.872q0-.132.264-.264c-.176.088-.264.176-.352.176Zm-9.5,1.32-.088.088a.323.323,0,0,1,.088-.264A.122.122,0,0,0,15.048,23.936ZM91.872-8.536c-.176-.176-.176-.352,0-.616a.756.756,0,0,0-.088-1.144,1.624,1.624,0,0,1-.44-1.056c0-.616-.352-.88-.968-.7l-.792.264c-.88.352-1.76.7-2.64.968L82.808-9.24A54.612,54.612,0,0,1,75.592-6.6h-.264a23.938,23.938,0,0,1-4.312,1.144c-1.5.176-3.08.352-4.576.44a10.045,10.045,0,0,1-3.256-.44,1.769,1.769,0,0,1-.7-.352.536.536,0,0,1,.088-.88,1.631,1.631,0,0,1,.616-.176,41.741,41.741,0,0,0,3.96-1.32c.176-.088.44-.088.7-.176a.086.086,0,0,1,.088.088V-8.1l-.352.264a13.135,13.135,0,0,1-3.52,1.32,1.116,1.116,0,0,0-.528.088c-.088,0-.264.088-.264.176,0,.176.176.176.264.176a2.994,2.994,0,0,0,.88-.088,31.741,31.741,0,0,0,5.368-2.288,2.28,2.28,0,0,0,.968-.88,7.815,7.815,0,0,1,1.408-1.936,3.066,3.066,0,0,0,.88-2.552,9.375,9.375,0,0,0-1.5-4.4,2.733,2.733,0,0,0-2.464-1.32,6.541,6.541,0,0,0-4.136,1.408,27.213,27.213,0,0,0-3.608,3.52,8.987,8.987,0,0,0-2.112,5.72c0,.968,0,2.024.088,2.992a7.039,7.039,0,0,0,1.936,3.96A7.174,7.174,0,0,0,66.088,0a31.182,31.182,0,0,0,6.424-.616,65.344,65.344,0,0,0,9.944-3.168,80.669,80.669,0,0,0,7.92-3.608,2.593,2.593,0,0,1,1.144-.44,1.251,1.251,0,0,0,.528-.176C91.96-8.184,91.96-8.36,91.872-8.536ZM67.32-17.424c.264-.088.352-.176.088-.44,0-.088.088-.264.176-.264a3.71,3.71,0,0,1,1.672-.264c.088.088.176.088.176.176.088.176-.088.176-.176.264-.088,0-.264.088,0,.176.088,0,.264,0,.264.176l-.264.176a.793.793,0,0,0-.44.088,10.381,10.381,0,0,0-1.76.352,9.537,9.537,0,0,0-1.672.7A2.509,2.509,0,0,1,67.32-17.424ZM69.7-15.576a.273.273,0,0,1-.088.176.323.323,0,0,1-.264.088,5.009,5.009,0,0,0-2.552.968,1.416,1.416,0,0,1,1.056-1.144,2.44,2.44,0,0,1,1.76-.264A.307.307,0,0,1,69.7-15.576Zm-3.96,2.552a8.926,8.926,0,0,0,1.144-.792,4.369,4.369,0,0,1,1.936-.88.415.415,0,0,1,.528.088.752.752,0,0,1,0,.616,6.693,6.693,0,0,1-1.76,1.76,7.47,7.47,0,0,1-1.936.792c-.352.088-.528-.088-.528-.616C65.032-12.5,65.3-12.76,65.736-13.024Zm2.464,2.2c-.176.264-.44.264-.7.352l-.176.176s-.088.088-.088,0c-.088,0-.088-.088.088-.088a.307.307,0,0,1,.176-.088c.176-.176.352-.44.616-.44,0-.088.088,0,.088,0ZM63.448-8.976c0-.176.176-.264.352-.264a7.744,7.744,0,0,1,1.32-.44c.088-.088.176,0,.176.088a.273.273,0,0,1-.088.176l-.176.176a.307.307,0,0,1,.088.176.086.086,0,0,0-.088.088A5.376,5.376,0,0,1,63.8-8.36c-.176,0-.44.176-.528-.088C63.184-8.624,63.272-8.8,63.448-8.976Zm1.584-.176V-9.24S64.944-9.24,65.032-9.152Zm4.488.176v-.088h.088Zm22,1.144c.176,0,.352.088.528.088A1.116,1.116,0,0,0,91.52-7.832Zm-8.272,3.08c-2.288.968-4.664,1.848-7.04,2.64A28.173,28.173,0,0,1,70.224-.7a21.663,21.663,0,0,1-4.136-.088.307.307,0,0,1-.176-.088c0-.176.088-.264.176-.264.44,0,.88-.088,1.232-.088A30.857,30.857,0,0,0,76.3-2.64c2.024-.7,4.048-1.32,6.072-2.2.616-.264,1.408-.44,2.112-.7a.415.415,0,0,1,.528.088A6.144,6.144,0,0,1,83.248-4.752Zm-12.232.7A51.232,51.232,0,0,0,76.3-5.28c.176.352,0,.352-.176.352L75.064-4.4h.088a.273.273,0,0,0,.176.088c.088.088.088.176,0,.176-.088.088-.176.176-.264.176a24.16,24.16,0,0,1-7.04,1.232.351.351,0,0,1-.352-.176A16.243,16.243,0,0,1,69.7-3.256c-1.408-.088-2.816.352-4.224-.264C67.408-3.7,69.256-3.784,71.016-4.048ZM72.6-3.7a6.75,6.75,0,0,0,2.464-.7l-1.232.264A2.985,2.985,0,0,0,72.6-3.7Zm-1.232.176-.088-.088-.088.088h.088ZM152.5-8.976a.689.689,0,0,0,0-.968,1.386,1.386,0,0,1-.352-1.144c.264-.528-.352-.968-.792-.88a5.942,5.942,0,0,0-1.232.176l-5.984,1.584a1.863,1.863,0,0,0-.616.264,7.952,7.952,0,0,1-1.848.7c-2.2.528-4.312,1.232-6.6,1.672-1.672.352-3.256.792-4.928,1.144-1.5.352-2.992.7-4.488.968a25.5,25.5,0,0,1-5.544.44,36.131,36.131,0,0,1-4.664-.264c-1.232-.088-1.232-.7-.616-1.584a27.947,27.947,0,0,1,4.576-5.1,10.928,10.928,0,0,1,2.024-1.5,7.636,7.636,0,0,1,2.992-1.056,6.7,6.7,0,0,1,1.848.264c.528.176.7.528.352,1.144l-.528.88a2.961,2.961,0,0,0-.352,1.936.94.94,0,0,0,1.408.616,1.8,1.8,0,0,0,.7-.7,16.5,16.5,0,0,1,1.056-1.584,2.187,2.187,0,0,0,.616-1.936,7.608,7.608,0,0,0-.792-3.08,2.081,2.081,0,0,0-.968-1.144,5.126,5.126,0,0,0-2.552-.792h-1.936a6.316,6.316,0,0,0-3.168,1.144,3.826,3.826,0,0,1-.616.352,9.425,9.425,0,0,0-3.7,2.464c-.968,1.056-1.936,2.112-2.9,3.256a11.342,11.342,0,0,0-1.672,2.816A5.594,5.594,0,0,0,110.7-7.3a18,18,0,0,0,0,3.08,4.538,4.538,0,0,0,3.256,3.7,9.284,9.284,0,0,0,2.728.352A19.129,19.129,0,0,1,119.856,0h1.672a49.416,49.416,0,0,0,8.8-1.32c5.28-1.232,10.56-2.64,15.752-4.4a53.477,53.477,0,0,0,5.28-1.848c.528-.264,1.144-.352.968-1.144C152.24-8.8,152.416-8.888,152.5-8.976Zm-33.088-6.952a1.916,1.916,0,0,1,.7-.44,6.174,6.174,0,0,0,1.408-.88,2.206,2.206,0,0,1,.616-.352,9.132,9.132,0,0,1,2.816-.352,8.485,8.485,0,0,1,1.056.176.457.457,0,0,1,.352.176.667.667,0,0,1,.176.352q0,.132-.264.264h-.44a18.394,18.394,0,0,1-2.2.088,8.443,8.443,0,0,0-3.52.968c-.176.088-.44.088-.616.176h-.088Zm6.6.968a14.326,14.326,0,0,0-2.728.264c-.528.088-.968.176-1.672.352a1.561,1.561,0,0,1,.88-.7A6.382,6.382,0,0,1,126.1-15.4c.176,0,.352.088.352.176C126.456-14.96,126.192-14.96,126.016-14.96Zm-7.3,2.9c.088,0,.176,0,.176-.088a.307.307,0,0,1-.088.176.086.086,0,0,0-.088.088C118.624-11.968,118.624-11.968,118.712-12.056Zm28.952,2.728a.086.086,0,0,1-.088-.088l.088-.088c.176-.088.176,0,.176.088Zm-31.5-.088v.088c-.088,0-.088.088-.176.088.088-.088.088-.088.088-.176C116.16-9.5,116.16-9.5,116.16-9.416Zm30.008,3.08c-.264.088-.528.264-.88.088,0-.176.176-.176.264-.176.616-.088,1.144-.264,1.76-.352A2.593,2.593,0,0,1,146.168-6.336ZM134.2-5.808a2.343,2.343,0,0,1-1.056.264C133.408-5.808,133.848-5.72,134.2-5.808Zm8.1.7-1.672.528c-2.992.792-6.072,1.672-9.152,2.464A43.123,43.123,0,0,1,123.992-.7a42.412,42.412,0,0,1-8.184-.176l-.968-.264c-.088,0-.088-.088-.176-.176.088,0,.176-.088.264-.088a11.22,11.22,0,0,1,1.672.088c.968,0,1.936.088,2.9.088A42.837,42.837,0,0,0,132.44-2.9c3.08-.7,6.072-1.5,9.064-2.376a1.658,1.658,0,0,1,.7-.176s.176,0,.176.088C142.472-5.28,142.384-5.192,142.3-5.1Zm-27.9,1.32c0-.176.176-.088.352-.088a15.578,15.578,0,0,1,2.024.088,41.8,41.8,0,0,0,13.64-1.232,3.006,3.006,0,0,1,1.32-.176c-.264.352-.528.264-.792.352-1.144.352-2.376.528-3.52.968h1.408a5.411,5.411,0,0,1,.968-.264,1.774,1.774,0,0,1-.968.264,3.893,3.893,0,0,1-1.32.44,36.489,36.489,0,0,1-6.864.792,1.447,1.447,0,0,1-.88-.176V-2.9c-.088,0,0-.088,0-.088.176,0,.352-.088.528-.088.88-.088,1.76-.088,2.552-.088a1.3,1.3,0,0,0,.616-.088H122.32a55.748,55.748,0,0,1-7.656-.352C114.576-3.608,114.4-3.7,114.4-3.784Zm12.5.088h.176c.088-.088.264-.088.352-.176a.529.529,0,0,1-.352.088C126.984-3.784,126.9-3.784,126.9-3.7Zm-1.5.176h-.176a.086.086,0,0,0-.088.088h.088A.307.307,0,0,1,125.4-3.52ZM186.912-12.5a.937.937,0,0,0,0-1.232c-.264-.176-.264-.528-.352-.792-.176-.616-.44-.792-1.056-.528l-.968.44a1.587,1.587,0,0,1-1.056.264,9.919,9.919,0,0,0-1.584.264,5.144,5.144,0,0,1-1.672.176,21.577,21.577,0,0,0-2.376.176l-5.016.264a29.755,29.755,0,0,1-3.96-.088c-3.52-.264-6.864-.88-9.856-2.9-.528-.352-.792-.352-1.232.264s-1.144.7-1.848.968h-.176l-.264-.264a.323.323,0,0,1,.088-.264c0-.088.088-.088.176-.088.176-.176.528-.176.528-.44,0-.176-.352-.352-.7-.264a2.893,2.893,0,0,0-1.76.7,20.935,20.935,0,0,0-3.608,3.784,5.71,5.71,0,0,0-1.232,3.52,25.083,25.083,0,0,0,.264,2.552,5.044,5.044,0,0,0,5.984,3.96,11.54,11.54,0,0,0,4.136-1.76c.352-.176.968-.352.528-.968-.088,0,0-.176.088-.264.7-.792,1.5-1.584,2.112-2.376a11.753,11.753,0,0,0,.616-1.584c.352-.616.616-.7,1.32-.616.176.088.44.088.7.176a24.92,24.92,0,0,0,3.52.7,16.249,16.249,0,0,0,5.456.176c1.584-.088,3.256-.264,4.84-.264a10.356,10.356,0,0,0,4.576-1.144,14.515,14.515,0,0,1,3.168-1.408c.44-.088.88-.264.616-.968Zm-16.456.528c1.936-.088,3.872-.264,5.808-.264,1.5-.088,2.992-.264,4.488-.44a7.36,7.36,0,0,0,2.728-.7,3.811,3.811,0,0,1,.44-.088c.088-.088.264-.088.264,0,.088.176,0,.264-.088.264a4.961,4.961,0,0,1-1.056.352,2.552,2.552,0,0,0-1.32.792c-.176.264-.352.264-.616.352a3.127,3.127,0,0,1-.88.176c-2.112.088-4.224.352-6.424.264a.869.869,0,0,1-.528-.176h2.464a.665.665,0,0,0-.7-.264h-3.7c-.352,0-.792-.088-1.232-.088A.351.351,0,0,1,170.456-11.968ZM159.368-10.56c-.176.176-.264.44-.44.616a8.717,8.717,0,0,1-3.168,2.728,5.064,5.064,0,0,1-2.992.528c-.528,0-.616-.264-.528-.792a9.754,9.754,0,0,1,.792-1.672c.176-.176.088-.352-.088-.352a3.707,3.707,0,0,1,1.848-2.288l1.056-.792a4.882,4.882,0,0,1,.7-.528.992.992,0,0,1,1.408.176l1.32,1.672A.664.664,0,0,1,159.368-10.56Zm21.384-1.5-.088-.088a.307.307,0,0,0-.176.088h.264Zm-1.848.176H177.5v.088H178.9Zm4.576,1.32a9.085,9.085,0,0,1-4.312,1.232c-2.112.088-4.224.264-6.336.264a6.99,6.99,0,0,1-1.936-.088c-.264,0-.616,0-.792-.264a2.232,2.232,0,0,1,1.056-.176c2.376,0,4.664-.176,7.04-.264.88-.088,1.76-.176,2.64-.352A8.39,8.39,0,0,0,183.216-11c.44-.176.88-.616,1.408-.352C184.36-10.912,183.832-10.824,183.48-10.56Zm-21.3,3.7a1.251,1.251,0,0,1,.176-.528h-.176Zm-.176.176V-6.6c0-.088.088-.176.176-.264C162.1-6.776,162.008-6.776,162.008-6.688Zm-7.392,1.76a.323.323,0,0,1-.264-.088c-.088,0-.176,0-.176-.176,0-.088,0-.176.088-.176a9.642,9.642,0,0,1,2.288-.528,6.716,6.716,0,0,1-.968.7h.616a.086.086,0,0,1,.088.088v.088a1.706,1.706,0,0,1-1.584.264A.307.307,0,0,1,154.616-4.928ZM157.96-3.52a1.826,1.826,0,0,1-.88.528,5.551,5.551,0,0,1-1.936.44h-.176c-.088-.088-.176-.088-.176-.176s0-.176.088-.176l.264-.176c.792-.264,1.5-.44,2.2-.7a1.116,1.116,0,0,0,.528-.088s.176.088.176.176C158.048-3.7,158.048-3.52,157.96-3.52Zm71.984-5.1L229.68-8.8a.59.59,0,0,1-.264-.7.425.425,0,0,0,0-.616.668.668,0,0,0-.792-.264,7.925,7.925,0,0,0-1.408.264c-1.76.44-3.432.88-5.1,1.408a29.852,29.852,0,0,0-3.96,1.32c-1.408.7-2.816,1.144-4.224,1.76-1.32.616-2.816.792-4.136,1.584h-.176a.353.353,0,0,1-.44-.44c.264-.44.44-.968.7-1.408-.44-.088-.528-.264-.352-.528a3.044,3.044,0,0,0,.88-.968,43.514,43.514,0,0,1,3.08-3.96,2.938,2.938,0,0,0,.352-3.344c-.176-.44-.44-.792-.616-1.232a2.413,2.413,0,0,0-3.08-1.408l-2.024.528a11.145,11.145,0,0,0-1.584.528c-1.056.616-2.288.88-3.344,1.408-1.5.7-2.992,1.232-4.4,1.936-1.584.88-3.256,1.5-4.84,2.376-1.408.792-2.9,1.32-4.312,2.2a.457.457,0,0,1-.352.176,8.458,8.458,0,0,0-2.464.968,1.987,1.987,0,0,1-1.848-.176c-.176-.088-.176-.264-.088-.44a17.016,17.016,0,0,1,1.936-2.464,2.61,2.61,0,0,1,.616-1.32l1.144-1.848a1.749,1.749,0,0,0,0-1.848l-.44-.7c-.264-.352-.528-.44-.88-.176a7.034,7.034,0,0,0-1.144,1.144,49.746,49.746,0,0,0-4.928,6.424,5.024,5.024,0,0,0-.7,3.872,3.811,3.811,0,0,1,.088.44,3.216,3.216,0,0,0,1.584,2.728,2.652,2.652,0,0,0,1.848.44l.88-.264a36.786,36.786,0,0,0,6.688-2.728c3.52-1.672,7.04-3.52,10.56-5.1,1.672-.7,3.256-1.408,4.928-2.024a1.177,1.177,0,0,1,.792-.088,3.379,3.379,0,0,1-.792,1.584L205.48-7.92,203.368-5.1a3.566,3.566,0,0,0-.616,2.816A19.63,19.63,0,0,0,203.1-.264a3.981,3.981,0,0,0,1.936,2.2,2.954,2.954,0,0,0,2.288.088,51.314,51.314,0,0,0,6.16-2.2l5.984-2.376a65.69,65.69,0,0,1,7.04-2.288c.968-.264,1.936-.616,2.9-.968.088,0,.264-.176.352-.264V-6.16c0-.088,0-.088-.088-.088-.264-.088-.528.088-.792.176-1.5.528-2.992.968-4.488,1.408a49.831,49.831,0,0,0-6.952,2.376L210.76.44c-.968.352-1.848.616-2.816.88a7.924,7.924,0,0,1-1.408.264.281.281,0,0,1-.264-.264.189.189,0,0,1,.176-.176A2.8,2.8,0,0,1,207.24.88,26.333,26.333,0,0,0,210.056,0c1.5-.528,2.992-1.144,4.4-1.76,3.168-1.144,6.248-2.552,9.5-3.432l4.664-1.32a6.11,6.11,0,0,0,1.144-.44C230.56-7.3,230.648-8.008,229.944-8.624ZM201.52-12.848c2.024-.88,4.048-1.672,6.072-2.464a9.011,9.011,0,0,1,2.992-.88c.264-.088.616-.176.792.176-.264.176-.264.616-.528.792-.088,0-.088.088-.176.088a32.222,32.222,0,0,0-3.872,1.144c-.176.088-.352,0-.528.088a9.132,9.132,0,0,1-2.728.968V-13.2a2.421,2.421,0,0,0-1.32.7,2.73,2.73,0,0,1-1.584.792l-.7-.264A4.051,4.051,0,0,1,201.52-12.848Zm5.192-1.584a2.1,2.1,0,0,0,1.232-.44A2.1,2.1,0,0,0,206.712-14.432Zm-.528.176c-.264.176-.088.264,0,.352l.528-.528C206.536-14.344,206.272-14.344,206.184-14.256Zm0,.352h0Zm-.616,2.728a145.134,145.134,0,0,0-14.08,6.512,43.165,43.165,0,0,1-5.016,2.2,6.206,6.206,0,0,1-2.2.528.273.273,0,0,0-.176-.088c-.088-.176,0-.264.088-.352a5.608,5.608,0,0,1,.616-.176,34.385,34.385,0,0,0,6.688-2.728c3.344-1.584,6.6-3.256,9.944-4.84,2.376-1.056,4.84-1.936,7.216-2.9h.616v.264a3.415,3.415,0,0,1-.968.528Zm-6.6-.352a2.4,2.4,0,0,1-1.408.7A1.987,1.987,0,0,1,198.968-11.528Zm-1.5.792a.377.377,0,0,1-.088.616,2.318,2.318,0,0,1-1.848.528l-1.232.264A7.335,7.335,0,0,1,197.472-10.736Zm-12.936,5.72.7-.264a33.335,33.335,0,0,0,5.72-2.552,14.411,14.411,0,0,1,2.9-1.232,3.922,3.922,0,0,1-2.9,2.2,4.716,4.716,0,0,1-.968.44c.088-.176.176-.264.176-.44a8.737,8.737,0,0,0-2.376,1.232.086.086,0,0,0,.088.088.086.086,0,0,1-.088.088V-5.72a3.085,3.085,0,0,0-1.232.528h.7a5.359,5.359,0,0,1-2.728,1.144c-.176.088-.352-.088-.352-.264A.8.8,0,0,1,184.536-5.016ZM228.1-8.624c0,.088-.088.176-.176.264h-.088c.176.088.352.176.176.352a2.593,2.593,0,0,1-1.144.44L222.9-6.512c-.88.264-1.76.528-2.64.88a4.458,4.458,0,0,1-1.144.176,2.211,2.211,0,0,1-1.232.528,3.691,3.691,0,0,1-1.936.7c-.088.088-.176.176-.264.176a.122.122,0,0,1-.176,0l.088-.088a.665.665,0,0,1,.352-.088,2.333,2.333,0,0,1,.528-.44,7.75,7.75,0,0,0-1.5.176l-1.5,1.056a2.436,2.436,0,0,1,.792-.088,1.737,1.737,0,0,1-1.232.528,1.853,1.853,0,0,1-1.144.44,1.853,1.853,0,0,1,1.144-.44l.44-.44.088-.088a5.309,5.309,0,0,0-1.672.528c-1.408.528-2.816,1.144-4.224,1.672l1.672-.264a2.957,2.957,0,0,1,1.232-.44,2.727,2.727,0,0,1-1.144.528,6.15,6.15,0,0,1-2.112.792c-.088,0-.352,0-.352-.088a.281.281,0,0,1,.264-.264,1.924,1.924,0,0,0,.44-.264c-.088,0-.264,0-.264-.088-.176-.176,0-.264.176-.352l.792-.264c1.144-.44,2.376-.88,3.52-1.408a12.752,12.752,0,0,1,3.08-1.056,4.709,4.709,0,0,1,2.464-.968,5.61,5.61,0,0,1,1.232-.7c2.9-1.056,5.9-1.848,8.888-2.64a.957.957,0,0,1,.44-.088C228.184-8.8,228.184-8.712,228.1-8.624Zm-2.9.968a3.119,3.119,0,0,0-.968.264A2.006,2.006,0,0,0,225.192-7.656Zm-1.672.528.7-.264-.792.264Zm-33.352.264h.792v-.264Zm33.352-.264-.968.264A5.411,5.411,0,0,0,223.52-7.128Zm-1.848.528h.088l.792-.264a2.569,2.569,0,0,1-.792.176Zm0,0a1.632,1.632,0,0,0-.616.176A1.631,1.631,0,0,0,221.672-6.6Zm-4.224,1.144-1.056.792,1.5-.264a1.737,1.737,0,0,1,1.232-.528l.44-.44A18.024,18.024,0,0,1,217.448-5.456Zm58.168-3.168-.264-.176a.59.59,0,0,1-.264-.7.425.425,0,0,0,0-.616.668.668,0,0,0-.792-.264,7.925,7.925,0,0,0-1.408.264c-1.76.44-3.432.88-5.1,1.408a29.851,29.851,0,0,0-3.96,1.32c-1.408.7-2.816,1.144-4.224,1.76-1.32.616-2.816.792-4.136,1.584h-.176a.353.353,0,0,1-.44-.44c.264-.44.44-.968.7-1.408-.44-.088-.528-.264-.352-.528a3.045,3.045,0,0,0,.88-.968,43.509,43.509,0,0,1,3.08-3.96,2.938,2.938,0,0,0,.352-3.344c-.176-.44-.44-.792-.616-1.232a2.413,2.413,0,0,0-3.08-1.408l-2.024.528a11.145,11.145,0,0,0-1.584.528c-1.056.616-2.288.88-3.344,1.408-1.5.7-2.992,1.232-4.4,1.936-1.584.88-3.256,1.5-4.84,2.376-1.408.792-2.9,1.32-4.312,2.2a.457.457,0,0,1-.352.176,8.458,8.458,0,0,0-2.464.968,1.987,1.987,0,0,1-1.848-.176c-.176-.088-.176-.264-.088-.44A17.016,17.016,0,0,1,232.5-10.3a2.61,2.61,0,0,1,.616-1.32l1.144-1.848a1.749,1.749,0,0,0,0-1.848l-.44-.7c-.264-.352-.528-.44-.88-.176a7.034,7.034,0,0,0-1.144,1.144,49.746,49.746,0,0,0-4.928,6.424,5.024,5.024,0,0,0-.7,3.872,3.811,3.811,0,0,1,.088.44,3.216,3.216,0,0,0,1.584,2.728,2.652,2.652,0,0,0,1.848.44l.88-.264a36.786,36.786,0,0,0,6.688-2.728c3.52-1.672,7.04-3.52,10.56-5.1,1.672-.7,3.256-1.408,4.928-2.024a1.177,1.177,0,0,1,.792-.088,3.379,3.379,0,0,1-.792,1.584L251.152-7.92,249.04-5.1a3.566,3.566,0,0,0-.616,2.816,19.63,19.63,0,0,0,.352,2.024,3.981,3.981,0,0,0,1.936,2.2A2.954,2.954,0,0,0,253,2.024a51.313,51.313,0,0,0,6.16-2.2l5.984-2.376a65.69,65.69,0,0,1,7.04-2.288c.968-.264,1.936-.616,2.9-.968.088,0,.264-.176.352-.264V-6.16c0-.088,0-.088-.088-.088-.264-.088-.528.088-.792.176-1.5.528-2.992.968-4.488,1.408a49.833,49.833,0,0,0-6.952,2.376L256.432.44c-.968.352-1.848.616-2.816.88a7.924,7.924,0,0,1-1.408.264.281.281,0,0,1-.264-.264.189.189,0,0,1,.176-.176,2.8,2.8,0,0,1,.792-.264A26.333,26.333,0,0,0,255.728,0c1.5-.528,2.992-1.144,4.4-1.76,3.168-1.144,6.248-2.552,9.5-3.432l4.664-1.32a6.11,6.11,0,0,0,1.144-.44C276.232-7.3,276.32-8.008,275.616-8.624Zm-28.424-4.224c2.024-.88,4.048-1.672,6.072-2.464a9.011,9.011,0,0,1,2.992-.88c.264-.088.616-.176.792.176-.264.176-.264.616-.528.792-.088,0-.088.088-.176.088a32.222,32.222,0,0,0-3.872,1.144c-.176.088-.352,0-.528.088a9.132,9.132,0,0,1-2.728.968V-13.2a2.421,2.421,0,0,0-1.32.7,2.73,2.73,0,0,1-1.584.792l-.7-.264A4.051,4.051,0,0,1,247.192-12.848Zm5.192-1.584a2.1,2.1,0,0,0,1.232-.44A2.1,2.1,0,0,0,252.384-14.432Zm-.528.176c-.264.176-.088.264,0,.352l.528-.528C252.208-14.344,251.944-14.344,251.856-14.256Zm0,.352h0Zm-.616,2.728a145.134,145.134,0,0,0-14.08,6.512,43.165,43.165,0,0,1-5.016,2.2,6.206,6.206,0,0,1-2.2.528.273.273,0,0,0-.176-.088c-.088-.176,0-.264.088-.352a5.608,5.608,0,0,1,.616-.176A34.385,34.385,0,0,0,237.16-5.28c3.344-1.584,6.6-3.256,9.944-4.84,2.376-1.056,4.84-1.936,7.216-2.9h.616v.264a3.415,3.415,0,0,1-.968.528Zm-6.6-.352a2.4,2.4,0,0,1-1.408.7A1.987,1.987,0,0,1,244.64-11.528Zm-1.5.792a.377.377,0,0,1-.088.616,2.318,2.318,0,0,1-1.848.528l-1.232.264A7.335,7.335,0,0,1,243.144-10.736Zm-12.936,5.72.7-.264a33.335,33.335,0,0,0,5.72-2.552,14.411,14.411,0,0,1,2.9-1.232,3.922,3.922,0,0,1-2.9,2.2,4.716,4.716,0,0,1-.968.44c.088-.176.176-.264.176-.44a8.737,8.737,0,0,0-2.376,1.232.086.086,0,0,0,.088.088.086.086,0,0,1-.088.088V-5.72a3.085,3.085,0,0,0-1.232.528h.7a5.359,5.359,0,0,1-2.728,1.144c-.176.088-.352-.088-.352-.264A.8.8,0,0,1,230.208-5.016Zm43.56-3.608c0,.088-.088.176-.176.264H273.5c.176.088.352.176.176.352a2.593,2.593,0,0,1-1.144.44l-3.96,1.056c-.88.264-1.76.528-2.64.88a4.459,4.459,0,0,1-1.144.176,2.211,2.211,0,0,1-1.232.528,3.691,3.691,0,0,1-1.936.7c-.088.088-.176.176-.264.176a.122.122,0,0,1-.176,0l.088-.088a.665.665,0,0,1,.352-.088,2.333,2.333,0,0,1,.528-.44,7.75,7.75,0,0,0-1.5.176l-1.5,1.056a2.436,2.436,0,0,1,.792-.088,1.737,1.737,0,0,1-1.232.528,1.853,1.853,0,0,1-1.144.44,1.853,1.853,0,0,1,1.144-.44l.44-.44.088-.088a5.309,5.309,0,0,0-1.672.528c-1.408.528-2.816,1.144-4.224,1.672l1.672-.264a2.957,2.957,0,0,1,1.232-.44,2.727,2.727,0,0,1-1.144.528A6.15,6.15,0,0,1,253-.7c-.088,0-.352,0-.352-.088a.281.281,0,0,1,.264-.264,1.924,1.924,0,0,0,.44-.264c-.088,0-.264,0-.264-.088-.176-.176,0-.264.176-.352l.792-.264c1.144-.44,2.376-.88,3.52-1.408a12.752,12.752,0,0,1,3.08-1.056,4.709,4.709,0,0,1,2.464-.968,5.611,5.611,0,0,1,1.232-.7c2.9-1.056,5.9-1.848,8.888-2.64a.957.957,0,0,1,.44-.088C273.856-8.8,273.856-8.712,273.768-8.624Zm-2.9.968a3.119,3.119,0,0,0-.968.264A2.006,2.006,0,0,0,270.864-7.656Zm-1.672.528.7-.264-.792.264Zm-33.352.264h.792v-.264Zm33.352-.264-.968.264A5.412,5.412,0,0,0,269.192-7.128Zm-1.848.528h.088l.792-.264a2.569,2.569,0,0,1-.792.176Zm0,0a1.631,1.631,0,0,0-.616.176A1.631,1.631,0,0,0,267.344-6.6ZM263.12-5.456l-1.056.792,1.5-.264a1.737,1.737,0,0,1,1.232-.528l.44-.44A18.022,18.022,0,0,1,263.12-5.456ZM304.3-8.536c-.176-.176-.176-.352,0-.616a.756.756,0,0,0-.088-1.144,1.624,1.624,0,0,1-.44-1.056c0-.616-.352-.88-.968-.7l-.792.264c-.88.352-1.76.7-2.64.968L295.24-9.24a54.612,54.612,0,0,1-7.216,2.64h-.264a23.938,23.938,0,0,1-4.312,1.144c-1.5.176-3.08.352-4.576.44a10.045,10.045,0,0,1-3.256-.44,1.769,1.769,0,0,1-.7-.352.536.536,0,0,1,.088-.88,1.631,1.631,0,0,1,.616-.176c1.408-.44,2.728-.792,3.96-1.32.176-.088.44-.088.7-.176a.086.086,0,0,1,.088.088V-8.1l-.352.264a13.135,13.135,0,0,1-3.52,1.32,1.116,1.116,0,0,0-.528.088c-.088,0-.264.088-.264.176,0,.176.176.176.264.176a2.994,2.994,0,0,0,.88-.088,31.742,31.742,0,0,0,5.368-2.288,2.28,2.28,0,0,0,.968-.88,7.814,7.814,0,0,1,1.408-1.936,3.066,3.066,0,0,0,.88-2.552,9.376,9.376,0,0,0-1.5-4.4,2.733,2.733,0,0,0-2.464-1.32,6.541,6.541,0,0,0-4.136,1.408,27.213,27.213,0,0,0-3.608,3.52,8.986,8.986,0,0,0-2.112,5.72c0,.968,0,2.024.088,2.992a7.039,7.039,0,0,0,1.936,3.96A7.174,7.174,0,0,0,278.52,0a31.182,31.182,0,0,0,6.424-.616,65.343,65.343,0,0,0,9.944-3.168,80.669,80.669,0,0,0,7.92-3.608,2.593,2.593,0,0,1,1.144-.44,1.251,1.251,0,0,0,.528-.176C304.392-8.184,304.392-8.36,304.3-8.536Zm-24.552-8.888c.264-.088.352-.176.088-.44,0-.088.088-.264.176-.264a3.71,3.71,0,0,1,1.672-.264c.088.088.176.088.176.176.088.176-.088.176-.176.264-.088,0-.264.088,0,.176.088,0,.264,0,.264.176l-.264.176a.793.793,0,0,0-.44.088,10.382,10.382,0,0,0-1.76.352,9.537,9.537,0,0,0-1.672.7A2.509,2.509,0,0,1,279.752-17.424Zm2.376,1.848a.273.273,0,0,1-.088.176.323.323,0,0,1-.264.088,5.009,5.009,0,0,0-2.552.968,1.416,1.416,0,0,1,1.056-1.144,2.44,2.44,0,0,1,1.76-.264A.307.307,0,0,1,282.128-15.576Zm-3.96,2.552a8.926,8.926,0,0,0,1.144-.792,4.369,4.369,0,0,1,1.936-.88.415.415,0,0,1,.528.088.752.752,0,0,1,0,.616,6.693,6.693,0,0,1-1.76,1.76,7.47,7.47,0,0,1-1.936.792c-.352.088-.528-.088-.528-.616C277.464-12.5,277.728-12.76,278.168-13.024Zm2.464,2.2c-.176.264-.44.264-.7.352l-.176.176s-.088.088-.088,0c-.088,0-.088-.088.088-.088a.307.307,0,0,1,.176-.088c.176-.176.352-.44.616-.44,0-.088.088,0,.088,0ZM275.88-8.976c0-.176.176-.264.352-.264a7.744,7.744,0,0,1,1.32-.44c.088-.088.176,0,.176.088a.273.273,0,0,1-.088.176l-.176.176a.307.307,0,0,1,.088.176.086.086,0,0,0-.088.088,5.377,5.377,0,0,1-1.232.616c-.176,0-.44.176-.528-.088C275.616-8.624,275.7-8.8,275.88-8.976Zm1.584-.176V-9.24S277.376-9.24,277.464-9.152Zm4.488.176v-.088h.088Zm22,1.144c.176,0,.352.088.528.088A1.116,1.116,0,0,0,303.952-7.832Zm-8.272,3.08c-2.288.968-4.664,1.848-7.04,2.64A28.174,28.174,0,0,1,282.656-.7a21.663,21.663,0,0,1-4.136-.088.307.307,0,0,1-.176-.088c0-.176.088-.264.176-.264.44,0,.88-.088,1.232-.088a30.857,30.857,0,0,0,8.976-1.408c2.024-.7,4.048-1.32,6.072-2.2.616-.264,1.408-.44,2.112-.7a.415.415,0,0,1,.528.088A6.144,6.144,0,0,1,295.68-4.752Zm-12.232.7a51.228,51.228,0,0,0,5.28-1.232c.176.352,0,.352-.176.352L287.5-4.4h.088a.273.273,0,0,0,.176.088c.088.088.088.176,0,.176-.088.088-.176.176-.264.176a24.16,24.16,0,0,1-7.04,1.232A.351.351,0,0,1,280.1-2.9a16.243,16.243,0,0,1,2.024-.352c-1.408-.088-2.816.352-4.224-.264C279.84-3.7,281.688-3.784,283.448-4.048Zm1.584.352a6.75,6.75,0,0,0,2.464-.7l-1.232.264A2.984,2.984,0,0,0,285.032-3.7ZM283.8-3.52l-.088-.088-.088.088h.088Zm59.136-5.456a.689.689,0,0,0,0-.968,1.386,1.386,0,0,1-.352-1.144c.264-.528-.352-.968-.792-.88a5.942,5.942,0,0,0-1.232.176l-5.984,1.584a1.863,1.863,0,0,0-.616.264,7.952,7.952,0,0,1-1.848.7c-2.2.528-4.312,1.232-6.6,1.672-1.672.352-3.256.792-4.928,1.144-1.5.352-2.992.7-4.488.968a25.5,25.5,0,0,1-5.544.44,36.13,36.13,0,0,1-4.664-.264c-1.232-.088-1.232-.7-.616-1.584a27.947,27.947,0,0,1,4.576-5.1,10.929,10.929,0,0,1,2.024-1.5,7.636,7.636,0,0,1,2.992-1.056,6.7,6.7,0,0,1,1.848.264c.528.176.7.528.352,1.144l-.528.88a2.961,2.961,0,0,0-.352,1.936.94.94,0,0,0,1.408.616,1.8,1.8,0,0,0,.7-.7,16.51,16.51,0,0,1,1.056-1.584,2.187,2.187,0,0,0,.616-1.936,7.608,7.608,0,0,0-.792-3.08,2.081,2.081,0,0,0-.968-1.144,5.126,5.126,0,0,0-2.552-.792H313.72a6.316,6.316,0,0,0-3.168,1.144,3.827,3.827,0,0,1-.616.352,9.425,9.425,0,0,0-3.7,2.464c-.968,1.056-1.936,2.112-2.9,3.256a11.342,11.342,0,0,0-1.672,2.816,5.594,5.594,0,0,0-.528,1.584,18,18,0,0,0,0,3.08,4.538,4.538,0,0,0,3.256,3.7,9.284,9.284,0,0,0,2.728.352A19.129,19.129,0,0,1,310.288,0h1.672a49.415,49.415,0,0,0,8.8-1.32c5.28-1.232,10.56-2.64,15.752-4.4a53.476,53.476,0,0,0,5.28-1.848c.528-.264,1.144-.352.968-1.144C342.672-8.8,342.848-8.888,342.936-8.976Zm-33.088-6.952a1.916,1.916,0,0,1,.7-.44,6.174,6.174,0,0,0,1.408-.88,2.206,2.206,0,0,1,.616-.352,9.132,9.132,0,0,1,2.816-.352,8.485,8.485,0,0,1,1.056.176.457.457,0,0,1,.352.176.667.667,0,0,1,.176.352q0,.132-.264.264h-.44a18.394,18.394,0,0,1-2.2.088,8.442,8.442,0,0,0-3.52.968c-.176.088-.44.088-.616.176h-.088Zm6.6.968a14.325,14.325,0,0,0-2.728.264c-.528.088-.968.176-1.672.352a1.561,1.561,0,0,1,.88-.7,6.382,6.382,0,0,1,3.608-.352c.176,0,.352.088.352.176C316.888-14.96,316.624-14.96,316.448-14.96Zm-7.3,2.9c.088,0,.176,0,.176-.088a.307.307,0,0,1-.088.176.086.086,0,0,0-.088.088C309.056-11.968,309.056-11.968,309.144-12.056ZM338.1-9.328a.086.086,0,0,1-.088-.088L338.1-9.5c.176-.088.176,0,.176.088Zm-31.5-.088v.088c-.088,0-.088.088-.176.088.088-.088.088-.088.088-.176C306.592-9.5,306.592-9.5,306.592-9.416ZM336.6-6.336c-.264.088-.528.264-.88.088,0-.176.176-.176.264-.176.616-.088,1.144-.264,1.76-.352A2.593,2.593,0,0,1,336.6-6.336Zm-11.968.528a2.343,2.343,0,0,1-1.056.264C323.84-5.808,324.28-5.72,324.632-5.808Zm8.1.7-1.672.528c-2.992.792-6.072,1.672-9.152,2.464A43.123,43.123,0,0,1,314.424-.7,42.412,42.412,0,0,1,306.24-.88l-.968-.264c-.088,0-.088-.088-.176-.176.088,0,.176-.088.264-.088a11.22,11.22,0,0,1,1.672.088c.968,0,1.936.088,2.9.088A42.837,42.837,0,0,0,322.872-2.9c3.08-.7,6.072-1.5,9.064-2.376a1.658,1.658,0,0,1,.7-.176s.176,0,.176.088C332.9-5.28,332.816-5.192,332.728-5.1Zm-27.9,1.32c0-.176.176-.088.352-.088a15.577,15.577,0,0,1,2.024.088,41.8,41.8,0,0,0,13.64-1.232,3.006,3.006,0,0,1,1.32-.176c-.264.352-.528.264-.792.352-1.144.352-2.376.528-3.52.968h1.408a5.412,5.412,0,0,1,.968-.264,1.774,1.774,0,0,1-.968.264,3.893,3.893,0,0,1-1.32.44,36.489,36.489,0,0,1-6.864.792,1.447,1.447,0,0,1-.88-.176V-2.9c-.088,0,0-.088,0-.088.176,0,.352-.088.528-.088.88-.088,1.76-.088,2.552-.088a1.3,1.3,0,0,0,.616-.088h-1.144a55.748,55.748,0,0,1-7.656-.352C305.008-3.608,304.832-3.7,304.832-3.784Zm12.5.088h.176c.088-.088.264-.088.352-.176a.529.529,0,0,1-.352.088C317.416-3.784,317.328-3.784,317.328-3.7Zm-1.5.176h-.176a.086.086,0,0,0-.088.088h.088A.307.307,0,0,1,315.832-3.52Zm94.512-39.16c-.088-.528-.264-.968-.352-1.408a2.721,2.721,0,0,0-2.112-2.376,32.216,32.216,0,0,0-8.184-1.672c-.44,0-.792-.088-1.232-.088a7.7,7.7,0,0,0-1.408-.176c-2.112-.176-4.136-.44-6.16-.44-1.5-.088-2.9-.264-4.4-.264a3.355,3.355,0,0,1-1.32-.088c-.88-.264-.968-.616-.616-1.408.088-.088.088-.264.176-.352,0-.352,0-.352.264-.264a4.422,4.422,0,0,0,1.056-.7c.264-.264.528-.44.528-.792.088-.792.7-1.056,1.32-1.408l.264-.264.44-.44a19.535,19.535,0,0,1,2.9-2.464,2.328,2.328,0,0,1,1.672-1.056.846.846,0,0,0,.792-.528c.088-.44.44-.528.792-.616a5.025,5.025,0,0,0,1.848-1.144c.176-.176.44-.352.44-.7.088-.528.528-.792.88-1.056a11.244,11.244,0,0,1,1.848-1.232v.088l.264-.264a5.312,5.312,0,0,1,.7-.7c1.144-1.056,1.144-1.408.44-2.728a1.019,1.019,0,0,0-1.232-.528,16.407,16.407,0,0,0-1.76.88L394.68-64.5c-1.232,1.056-2.552,1.936-3.872,2.9-2.024,1.5-3.872,3.08-5.72,4.664l-2.112,1.848a43,43,0,0,0-4.048,3.96,4.739,4.739,0,0,1-3.608,1.584,33.823,33.823,0,0,1-4.224,0,14.258,14.258,0,0,0-1.936.088,6.091,6.091,0,0,1-2.2.088,7.57,7.57,0,0,0-1.408-.088c-.968,0-1.848.176-2.816.176-1.936-.088-3.872.352-5.808.176a2.57,2.57,0,0,0-.792.176,15.053,15.053,0,0,1-3.432.264c-.352,0-.7.088-1.056.088-1.672.264-3.256.528-4.928.7-1.32.176-2.552.44-3.872.7l-6.864,1.584a15.944,15.944,0,0,0-2.728.792c-1.144.44-2.288.88-3.432,1.232a5.089,5.089,0,0,0-1.232.44c-.352.176-.616.44-.264.792a1.058,1.058,0,0,1,.176.7c0,.88.264,1.144,1.144.792h.176a56.758,56.758,0,0,1,6.6-1.936,127.509,127.509,0,0,1,23.056-3.168c3.784-.176,7.568-.264,11.352-.176h.968c.176,0,.44,0,.528.264.088.176-.088.352-.528.352h-7.744c-2.728.088-5.456.264-8.1.44-2.288.176-4.576.44-6.776.616q-4.224.528-8.448,1.32c-2.9.616-5.808,1.232-8.712,2.112a3.085,3.085,0,0,0-1.232.528,9.347,9.347,0,0,0,1.672-.352c1.936-.528,3.784-1.056,5.808-1.408q4.356-.924,8.976-1.584c3.52-.44,7.128-.792,10.736-1.056,4.048-.176,8.1-.352,12.144-.264h.792a.5.5,0,0,1,.352.616A1.251,1.251,0,0,1,371.1-44c-.792.88-1.584,1.672-2.464,2.552a11.759,11.759,0,0,0-1.76,1.848,19.044,19.044,0,0,1-3.52,3.52,3.287,3.287,0,0,0-.616.528,29.174,29.174,0,0,1-2.288,2.376,3.782,3.782,0,0,0-.792.88,12.025,12.025,0,0,1-2.024,2.2c-1.232,1.144-2.288,2.376-3.432,3.608-1.408,1.584-2.464,3.432-4.136,4.752l-.264.264c-1.32,1.76-2.728,3.432-4.048,5.192a12.574,12.574,0,0,0-1.232,1.76c-1.232,1.76-2.376,3.52-3.52,5.28a30.027,30.027,0,0,0-1.5,2.9,2.943,2.943,0,0,0-.176,2.288,15.163,15.163,0,0,0,.616,1.848,3.643,3.643,0,0,0,2.024,1.936,2.244,2.244,0,0,0,2.112,0,25.11,25.11,0,0,0,4.048-1.5c1.672-.616,3.256-1.232,4.928-1.672a63.309,63.309,0,0,0,6.952-2.112,31.822,31.822,0,0,0,3.08-1.144l2.728-1.056c1.056-.352,2.112-.792,3.168-1.232.176-.088.44-.176.44-.44a2.5,2.5,0,0,0-1.144.352c-3.7,1.408-7.48,2.9-11.352,3.96-3.7,1.056-7.3,2.288-10.912,3.7-.616.264-1.232.44-1.936.7a1.718,1.718,0,0,0-.616.088c-.088,0-.264-.088-.264-.176a.667.667,0,0,1,.176-.352l.792-.264c1.056-.352,2.112-.792,3.08-1.144,1.848-.7,3.7-1.408,5.544-1.936,3.256-.88,6.424-1.936,9.592-3.08,1.936-.616,3.872-1.408,5.808-2.112a2.4,2.4,0,0,0,1.056-.528.521.521,0,0,0,.088-.616c-.088-.088-.176-.264-.352-.264-.264.088-.616.088-.88.176l-2.728.88a9.615,9.615,0,0,1-1.5.44V-9.68a1.419,1.419,0,0,1-.792.264l-.7.264a1,1,0,0,1-.7.264l-.792.264a2.071,2.071,0,0,1-.7.176,3.888,3.888,0,0,1-1.408.528l.44-.528a7.378,7.378,0,0,0-2.2.792c.088,0,.176,0,.176.088a.307.307,0,0,1-.176.088v-.264a26.077,26.077,0,0,0-5.1,1.5c.088,0,.264,0,.176.176a.307.307,0,0,1-.176.088v-.264a6.444,6.444,0,0,0-2.2.7h.792a1.658,1.658,0,0,1,.7-.176,1.658,1.658,0,0,1-.7.176,1.419,1.419,0,0,1-.792.264h.088a26.765,26.765,0,0,1-5.9,2.2l.528-.528c-.176,0-.264,0-.352-.088-.088-.176,0-.264.088-.352l.7-.264a74,74,0,0,1,9.416-3.168c4.4-1.232,8.712-2.64,12.936-4.136.264-.088.528-.264.792-.352a.529.529,0,0,0,.088-.352c0-.088-.176-.176-.264-.176a.165.165,0,0,0-.264,0c-.88.176-1.848.264-2.728.528-1.848.616-3.7,1.056-5.544,1.848a10.293,10.293,0,0,1-1.76.44c-2.64.352-5.016,1.408-7.568,2.024l-.352.088a13.645,13.645,0,0,1-3.168,1.144,1.116,1.116,0,0,1-.528.088.353.353,0,0,1-.44-.44c0-.352.088-.792.088-1.144v-.352c.088-.264.176-.352.528-.176a1.783,1.783,0,0,0,.528-1.408.483.483,0,0,1,.352-.528c.352-.176.7-.352.792-.7-.176-.176-.264-.44,0-.616a3.867,3.867,0,0,0,1.056-1.584,5.336,5.336,0,0,1,2.376-2.64c.264-.088.352-.264.44-.528-.176,0-.264-.176-.088-.352l.352-.352v.44a22.666,22.666,0,0,0,2.816-2.992,7.284,7.284,0,0,1,.968-1.32l4.048-4.224a5.309,5.309,0,0,1,.7-.7c.088-.088.176-.176.264-.176a3.036,3.036,0,0,1,.7-.792,3.349,3.349,0,0,1,.792-1.144c1.408-1.672,2.9-3.168,4.4-4.664.352-.352.792-.616,1.144-.968l.264-.264a9.147,9.147,0,0,1,2.9-2.9h-.088a1.876,1.876,0,0,1,.88-.968l1.32-.968h.088a.684.684,0,0,1,.352-.88,2.751,2.751,0,0,0,.792-.968c.176-.264-.088-.528.088-.792.176-.352.616,0,.88-.264l1.32-1.32c.088-.088.176-.264.088-.352-.176-.44.176-.616.44-.7a13.6,13.6,0,0,0,2.024-.528,3.571,3.571,0,0,1,1.672-.352c3.784,0,7.656.352,11.528.44a2.994,2.994,0,0,1,.88.088c2.816.088,5.544.44,8.272.792a31.1,31.1,0,0,1,4.84.88,5.469,5.469,0,0,1,2.552,1.32,4.065,4.065,0,0,0,.616.616c.264.088.528.088.616-.176A2.81,2.81,0,0,0,410.344-42.68Zm-10.12-24.2a.323.323,0,0,1,.264.088s0,.176-.088.176a3.652,3.652,0,0,1-1.76,1.056A5.763,5.763,0,0,1,400.224-66.88Zm-2.376,1.848a4.424,4.424,0,0,1-1.936,1.408A6.085,6.085,0,0,1,397.848-65.032Zm-2.2,1.672a1.369,1.369,0,0,1-.7.528A1.369,1.369,0,0,1,395.648-63.36Zm-1.056.792a1.018,1.018,0,0,1-.616.44A1.018,1.018,0,0,1,394.592-62.568Zm.968,2.288v-.088h.088C395.56-60.368,395.56-60.368,395.56-60.28Zm-9.944,4.752a4.972,4.972,0,0,1-2.112,1.936A6.244,6.244,0,0,1,385.616-55.528Zm-11,7.48a2.167,2.167,0,0,1-1.056.088H365.9a.086.086,0,0,0,.088.088h7.744c.088.088.176.088.176.176,0,.176-.088.176-.176.176-.44,0-.792.088-1.144.088-4.136-.088-8.36.088-12.5.264a61.333,61.333,0,0,0-8.008.616c-3.432.352-6.776.792-10.208,1.408a86.331,86.331,0,0,0-9.416,2.288l-.7.264c-.176,0-.352.176-.616,0-.088-.088.088-.616.352-.7a12.467,12.467,0,0,1,1.584-.7c2.992-.88,6.072-1.584,9.24-2.2q4.488-.792,9.24-1.32c2.464-.352,4.928-.44,7.48-.616,4.048-.264,8.184-.264,12.232-.352.968,0,1.936.088,2.9.088a.672.672,0,0,1,.44.176c.088,0,.088,0,.088.088A.086.086,0,0,1,374.616-48.048Zm33,2.816-.088.088a4.7,4.7,0,0,1-1.936-.264c-.264,0-.44-.176-.7-.176-.528-.088-1.056-.088-1.584-.176-3.872-.44-7.744-.88-11.7-1.056-2.816-.088-5.544-.264-8.36-.44a.659.659,0,0,1-.44-.088c-.088,0-.088-.088-.176-.088.088-.088.088-.176.176-.176h1.144a2.187,2.187,0,0,0,.7-.088h-.792c-.352-.088-.88.176-1.144-.264.352-.44.792-.264,1.232-.264,2.728.088,5.368.176,8.008.352,2.2.176,4.4.44,6.688.616,2.024.176,4.048.616,6.072.88a11.228,11.228,0,0,1,2.464.616l.44.264C407.616-45.408,407.7-45.32,407.616-45.232Zm-51.48-2.2c.176.088.264,0,.352,0h-.264Zm50.16,4.048c-3.872-.7-7.832-1.056-11.792-1.408-2.112-.088-4.136-.176-6.248-.264l-7.128-.264c-.616,0-1.056-.176-.88-.352.176-.352.528-.264.88-.264,1.5,0,3.08,0,4.84.088,3.52.176,7.216.44,10.912.7a60,60,0,0,1,8.888,1.232,1.5,1.5,0,0,1,.616.088c.264.176.7,0,.88.528A1.211,1.211,0,0,1,406.3-43.384Zm-33.968.44a2.678,2.678,0,0,1,.7-.7A.955.955,0,0,1,372.328-42.944Zm3.432.176a.323.323,0,0,0-.264.088c.088-.088.176-.176.264-.176ZM371.1-41.712a1.061,1.061,0,0,1-.44.44,1.06,1.06,0,0,1,.44-.44,1.553,1.553,0,0,1,.792-.7A1.074,1.074,0,0,1,371.1-41.712Zm-40.3,1.232a2.125,2.125,0,0,0-1.32.352A2.624,2.624,0,0,0,330.792-40.48Zm26.752,13.024c-.088.088-.264.264-.264.176-.176-.088.088-.176.176-.264.088-.176.176-.176.264-.352A.672.672,0,0,1,357.544-27.456Zm-5.808,11c0-.088.088-.176.176-.264l-.264.264ZM363.088-9.68l-.7.264h.7Zm-.7.264-.7.264h.7Zm-.7.264-.792.264h.792Zm-.792.264a1.658,1.658,0,0,1-.7.176h.7Zm-.7.176-.968.264h.968Zm.7,0v.088a.086.086,0,0,1,.088-.088ZM349.008-5.28h.7v-.264Zm-1.936.7a1.251,1.251,0,0,0,.528-.176A1.251,1.251,0,0,0,347.072-4.576Zm0,0a6.065,6.065,0,0,0-.7.264Zm-1.5.528a1.924,1.924,0,0,1-.44.264l.528-.264Zm-1.144.44a2.72,2.72,0,0,0,.7-.176C344.872-3.7,344.608-3.7,344.432-3.608Zm53.68-4.928c-.176-.176-.176-.352,0-.616a.756.756,0,0,0-.088-1.144,1.624,1.624,0,0,1-.44-1.056c0-.616-.352-.88-.968-.7l-.792.264c-.88.352-1.76.7-2.64.968L389.048-9.24a54.612,54.612,0,0,1-7.216,2.64h-.264a23.938,23.938,0,0,1-4.312,1.144c-1.5.176-3.08.352-4.576.44a10.045,10.045,0,0,1-3.256-.44,1.769,1.769,0,0,1-.7-.352.536.536,0,0,1,.088-.88,1.631,1.631,0,0,1,.616-.176c1.408-.44,2.728-.792,3.96-1.32.176-.088.44-.088.7-.176a.086.086,0,0,1,.088.088V-8.1l-.352.264a13.135,13.135,0,0,1-3.52,1.32,1.116,1.116,0,0,0-.528.088c-.088,0-.264.088-.264.176,0,.176.176.176.264.176a2.994,2.994,0,0,0,.88-.088,31.742,31.742,0,0,0,5.368-2.288,2.28,2.28,0,0,0,.968-.88,7.814,7.814,0,0,1,1.408-1.936,3.066,3.066,0,0,0,.88-2.552,9.376,9.376,0,0,0-1.5-4.4,2.733,2.733,0,0,0-2.464-1.32,6.541,6.541,0,0,0-4.136,1.408,27.213,27.213,0,0,0-3.608,3.52,8.986,8.986,0,0,0-2.112,5.72c0,.968,0,2.024.088,2.992a7.039,7.039,0,0,0,1.936,3.96A7.174,7.174,0,0,0,372.328,0a31.182,31.182,0,0,0,6.424-.616A65.343,65.343,0,0,0,388.7-3.784a80.669,80.669,0,0,0,7.92-3.608,2.593,2.593,0,0,1,1.144-.44,1.251,1.251,0,0,0,.528-.176C398.2-8.184,398.2-8.36,398.112-8.536ZM373.56-17.424c.264-.088.352-.176.088-.44,0-.088.088-.264.176-.264a3.71,3.71,0,0,1,1.672-.264c.088.088.176.088.176.176.088.176-.088.176-.176.264-.088,0-.264.088,0,.176.088,0,.264,0,.264.176l-.264.176a.793.793,0,0,0-.44.088,10.382,10.382,0,0,0-1.76.352,9.537,9.537,0,0,0-1.672.7A2.509,2.509,0,0,1,373.56-17.424Zm2.376,1.848a.273.273,0,0,1-.088.176.323.323,0,0,1-.264.088,5.009,5.009,0,0,0-2.552.968,1.416,1.416,0,0,1,1.056-1.144,2.44,2.44,0,0,1,1.76-.264A.307.307,0,0,1,375.936-15.576Zm-3.96,2.552a8.926,8.926,0,0,0,1.144-.792,4.369,4.369,0,0,1,1.936-.88.415.415,0,0,1,.528.088.752.752,0,0,1,0,.616,6.693,6.693,0,0,1-1.76,1.76,7.47,7.47,0,0,1-1.936.792c-.352.088-.528-.088-.528-.616C371.272-12.5,371.536-12.76,371.976-13.024Zm2.464,2.2c-.176.264-.44.264-.7.352l-.176.176s-.088.088-.088,0c-.088,0-.088-.088.088-.088a.307.307,0,0,1,.176-.088c.176-.176.352-.44.616-.44,0-.088.088,0,.088,0Zm-4.752,1.848c0-.176.176-.264.352-.264a7.744,7.744,0,0,1,1.32-.44c.088-.088.176,0,.176.088a.273.273,0,0,1-.088.176l-.176.176a.307.307,0,0,1,.088.176.086.086,0,0,0-.088.088,5.377,5.377,0,0,1-1.232.616c-.176,0-.44.176-.528-.088C369.424-8.624,369.512-8.8,369.688-8.976Zm1.584-.176V-9.24S371.184-9.24,371.272-9.152Zm4.488.176v-.088h.088Zm22,1.144c.176,0,.352.088.528.088A1.116,1.116,0,0,0,397.76-7.832Zm-8.272,3.08c-2.288.968-4.664,1.848-7.04,2.64A28.174,28.174,0,0,1,376.464-.7a21.663,21.663,0,0,1-4.136-.088.307.307,0,0,1-.176-.088c0-.176.088-.264.176-.264.44,0,.88-.088,1.232-.088a30.857,30.857,0,0,0,8.976-1.408c2.024-.7,4.048-1.32,6.072-2.2.616-.264,1.408-.44,2.112-.7a.415.415,0,0,1,.528.088A6.144,6.144,0,0,1,389.488-4.752Zm-12.232.7a51.228,51.228,0,0,0,5.28-1.232c.176.352,0,.352-.176.352L381.3-4.4h.088a.273.273,0,0,0,.176.088c.088.088.088.176,0,.176-.088.088-.176.176-.264.176a24.16,24.16,0,0,1-7.04,1.232.351.351,0,0,1-.352-.176,16.243,16.243,0,0,1,2.024-.352c-1.408-.088-2.816.352-4.224-.264C373.648-3.7,375.5-3.784,377.256-4.048Zm1.584.352a6.75,6.75,0,0,0,2.464-.7l-1.232.264A2.984,2.984,0,0,0,378.84-3.7Zm-1.232.176-.088-.088-.088.088h.088Zm86.68-56.144c-.088-.264-.352-.176-.616-.176s-.44.088-.7.088a5.31,5.31,0,0,0,.7-.7.377.377,0,0,0,.088-.528c-.088-.176-.352-.088-.528,0a3.254,3.254,0,0,0-.968.44,18.515,18.515,0,0,0-4.048,2.816,4.836,4.836,0,0,1-.792.616c-.792.528-1.5,1.056-2.288,1.672-2.64,2.112-5.544,3.96-8.1,6.16l-.264.176c-1.232.968-2.376,1.848-3.52,2.816-2.816,2.112-5.28,4.664-8.008,6.864-1.5,1.232-2.9,2.552-4.312,3.96-1.32,1.5-2.9,2.816-4.312,4.312-.88.88-1.76,1.76-2.64,2.728a8.386,8.386,0,0,1-2.376,2.288c-.088,0-.176.088-.264.176-.792.792-1.584,1.584-2.376,2.288S417.648-22,416.856-21.3c-1.584,1.584-2.9,3.256-4.312,4.928a8.785,8.785,0,0,1-2.112,1.936c-.7.44-1.5.88-2.2,1.232a.6.6,0,0,1-.88-.176,6.563,6.563,0,0,1-.616-1.056,3.591,3.591,0,0,0-1.848-1.32,3.47,3.47,0,0,0-2.112-.088,9.929,9.929,0,0,0-5.1,2.464,9.634,9.634,0,0,1-.968.88,8.1,8.1,0,0,0-2.64,2.816,3.08,3.08,0,0,0-.528,2.288,11.319,11.319,0,0,0,.352,1.672A3.043,3.043,0,0,0,397.5-3.256l2.2-.616a25.079,25.079,0,0,0,6.248-2.2,1.581,1.581,0,0,1,.792-.352,1.791,1.791,0,0,0,1.32-.528c.176-.264.528-.176.616.176.176.352.264.792.44,1.144A4.3,4.3,0,0,0,413.16-2.9a10.919,10.919,0,0,0,4.4-.88,46.093,46.093,0,0,0,5.632-2.552c4.048-2.2,8.008-4.4,12.056-6.512.176-.088.528-.176.528-.44,0-.088-.264-.176-.352-.352-.088-.088,0-.264,0-.44a.635.635,0,0,0-.176-.968c-.44-.264-.7-.528-.528-1.144.088-.264-.352-.616-.7-.528a.761.761,0,0,0-.528.264c-.616.352-1.32.616-1.936.968a11.753,11.753,0,0,0-1.584.616,5.9,5.9,0,0,1-1.584.616,11.016,11.016,0,0,0-3.608,1.584,14.006,14.006,0,0,1-1.936,1.144c-2.024.968-4.136,1.936-6.16,2.992a6.943,6.943,0,0,1-2.552.7H413.6a.544.544,0,0,1-.44-.7,5.6,5.6,0,0,1,.176-.616,10.83,10.83,0,0,1,2.288-2.992h-.088c.528-.7.88-1.408,1.408-2.112a11.173,11.173,0,0,1,3.256-3.168.79.79,0,0,1,.176-.792l.792-.792c1.232-1.32,2.552-2.64,3.784-3.872a3.445,3.445,0,0,1,.88-.7,2.407,2.407,0,0,0,1.144-1.144c.088-.352.352-.528.616-.792A6.162,6.162,0,0,0,429-26.752c.7-.88,1.584-1.584,2.288-2.376a12.017,12.017,0,0,1,2.024-1.672v-.264a15.73,15.73,0,0,1,1.936-2.2c-.264-.352.088-.528.264-.7l-.264.7a5.481,5.481,0,0,0,1.584-1.232,16.517,16.517,0,0,1,2.992-2.64,2.078,2.078,0,0,0,.792-.7,6.341,6.341,0,0,1,1.76-1.672,2,2,0,0,0,.968-1.408.761.761,0,0,1,.264-.528,16.465,16.465,0,0,1,3.08-2.464l.264-.264.264-.264h-.088a21.373,21.373,0,0,1,2.64-2.288l1.672-1.32a16.282,16.282,0,0,1,3.256-2.2l.264-.264A9.351,9.351,0,0,1,457.6-52.8l.792-.528a69.855,69.855,0,0,0,5.192-5.016,4.066,4.066,0,0,0,.616-.616C464.288-59.136,464.464-59.4,464.288-59.664ZM441.936-39.776v-.088l.088.088ZM414.216-6.6a31.05,31.05,0,0,0,6.16-2.464c1.672-.88,3.432-1.672,5.016-2.64,2.376-1.32,4.928-2.288,7.392-3.432a.529.529,0,0,1,.352-.088c.352,0,.264.264.176.44v.264a4.57,4.57,0,0,1-2.2.968,1.261,1.261,0,0,1-.968.44c-.176.088-.264.176-.44.264l-.528.264a1.953,1.953,0,0,1-.968.44c0-.088-.088-.264-.264-.176a3.253,3.253,0,0,0-.968.44l.176.176c-.176,0-.088-.088-.176-.176a2.8,2.8,0,0,0-.792.264c-1.32.7-2.728,1.408-4.136,2.112a3.827,3.827,0,0,0-.616.528l.968-.264a3.691,3.691,0,0,1-1.232.792l.264-.528a7.016,7.016,0,0,0-1.408.7,1.116,1.116,0,0,0,.528.088,13.808,13.808,0,0,1-4.488,2.024c-.088.088-.264,0-.176-.176,0-.088.352-.264-.088-.176-.352,0-.7.176-1.056.176a2.167,2.167,0,0,1-1.056.088C413.776-6.512,414.04-6.512,414.216-6.6Zm-13.64-7.3a6.355,6.355,0,0,1,3.608-.968c.088.088.264.088.176.264a.943.943,0,0,1-.176.528,13.662,13.662,0,0,1-1.848.352c-.264.088-.176-.176-.176-.352-.616.088-1.056.264-1.584.352Zm33.088.88a.659.659,0,0,1,.44-.088.086.086,0,0,1,.088.088v.088a1.209,1.209,0,0,1-.7.44c-2.992,1.672-6.072,3.256-9.064,4.84-1.584.792-3.08,1.672-4.664,2.376a17.665,17.665,0,0,1-4.136,1.408,1.718,1.718,0,0,1-.616.088h-.176c-.088,0-.176-.088-.264-.088a.189.189,0,0,1,.176-.176,1.419,1.419,0,0,1,.792-.264,28.826,28.826,0,0,0,5.192-2.024c3.344-1.672,6.688-3.432,10.032-5.192C431.728-11.968,432.7-12.5,433.664-13.024Zm-29.392.968a.323.323,0,0,1-.264.088c-.792.264-1.584.44-2.464.7-.088,0-.264,0-.264-.176,0,0,.088-.176.176-.176a6.081,6.081,0,0,1,2.64-.792c.176,0,.264,0,.352.088C404.536-12.144,404.36-12.056,404.272-12.056Zm-5.632-.176c0-.088.088-.088.176-.088-.088,0-.176.088-.264.176C398.552-12.232,398.552-12.232,398.64-12.232Zm2.376,2.288a.086.086,0,0,1-.088-.088v-.088a.086.086,0,0,1,.088-.088,5.346,5.346,0,0,1,2.9-1.144c-.176,1.144-1.056,1.408-2.024,1.672-.264,0-.176-.264-.176-.528Zm-2.64,2.992c-.088-.176.176-.264.44-.352.528-.176,1.144-.352,1.672-.528l2.552-.792a2.5,2.5,0,0,1,1.144-.352,2.682,2.682,0,0,1-.88.616c-.352.176-.7.44-1.056.616h.7c.088-.088.176-.176.264-.176.088-.088.176,0,.264,0-.088,0-.088.088-.176.088a.529.529,0,0,1-.352.088l-.176.176a15.9,15.9,0,0,1-4.664,1.32C398.024-6.512,398.464-6.6,398.376-6.952ZM419.5-8.008c.176-.088.352-.088.44-.176a.086.086,0,0,0,.088-.088h-.088A1.923,1.923,0,0,0,419.5-8.008Zm-.968.528A1.251,1.251,0,0,1,418-7.3l-.7.264c.264-.088.44-.088.7-.176Zm-12.936.88a6.876,6.876,0,0,1-1.76.968,28.842,28.842,0,0,1-5.984,1.672,1.116,1.116,0,0,1-.528.088c-.088-.088-.176-.088-.176-.176a.169.169,0,0,1,.088-.264l.968-.264A41,41,0,0,0,404.8-6.6l.7-.264.088.088Z" transform="translate(315.391 3454.756) rotate(-7)" fill="#e53729"/>
    <path id="パス_585" data-name="パス 585" d="M6.57,44.278a15.344,15.344,0,0,1-4.8-.68c-2.477-.865-2.337-2.222.313-3.03a342.042,342.042,0,0,1,34.076-7.919c13.542-2.577,29.636-5.21,47.833-7.827,35.41-5.092,77.5-9.949,121.727-14.046,45.253-4.192,90.2-7.345,129.985-9.118C356.844.716,376.413.17,393.868.034,412.462-.111,428.8.21,442.42.989c3.573.2,5.963,1.315,5.337,2.482s-4.029,1.946-7.6,1.742c-12.774-.73-28.241-1.03-45.972-.892-16.967.132-36.044.666-56.7,1.586C298.3,7.653,253.976,10.763,209.306,14.9c-43.651,4.044-85.153,8.831-120.017,13.845C53.133,33.945,26.08,39.116,11.055,43.7A16.015,16.015,0,0,1,6.57,44.278Z" transform="translate(314.28 3441.531) rotate(-2)" fill="url(#linear-gradient)"/>
  </g>
</svg>
