<svg xmlns="http://www.w3.org/2000/svg" xmlns:xlink="http://www.w3.org/1999/xlink" width="285.291" height="147.398" viewBox="0 0 285.291 147.398">
  <defs>
    <linearGradient id="linear-gradient" x1="0.396" y1="-0.297" x2="0.5" y2="1" gradientUnits="objectBoundingBox">
      <stop offset="0" stop-color="#e53729"/>
      <stop offset="0.69" stop-color="#ff652c"/>
      <stop offset="1" stop-color="#ff652c"/>
    </linearGradient>
  </defs>
  <g id="txt_bg" transform="matrix(0.999, 0.035, -0.035, 0.999, -252.124, -3409.809)" opacity="0.12">
    <path id="パス_607" data-name="パス 607" d="M107.548-74.336a1.374,1.374,0,0,0-.92-.276,11.765,11.765,0,0,0-3.128.092c-2.852.184-5.8.552-8.556.736-3.4.276-6.9.644-10.4,1.1-.736.092-1.564.092-2.392.184-2.3.368-4.692.276-7.084.828a22.688,22.688,0,0,1-3.588.276c-1.932.184-4.048.368-5.98.736a15.044,15.044,0,0,1-6.072.092,1.6,1.6,0,0,0-1.1.092A8.018,8.018,0,0,1,54.28-69.46c-1.472.184-3.128.368-4.876.736a8.164,8.164,0,0,1-1.38.184c-2.024.184-4.14.368-6.164.736-3.22.552-6.532.736-9.752,1.472a2.564,2.564,0,0,1-.92.092c-1.656.276-3.5.46-5.244.828-3.5.644-7.084,1.472-10.764,1.932a36.723,36.723,0,0,0-4.324,1.012c-1.932.368-3.68.828-5.612,1.288a2.944,2.944,0,0,0-2.208,3.128c0,.368.092.828.552.92s.736-.368,1.2-.644c-.184-.46-.092-.644.276-.736,1.012-.184,2.024-.46,3.036-.552l10.028-1.564c3.128-.736,6.44-1.012,9.66-1.472,1.472-.276,2.944-.46,4.324-.736a2.265,2.265,0,0,1,1.1-.092c.092.092.276.092.276.184.092.368-.184.368-.46.46h-.092a29.531,29.531,0,0,0-5.612.828c-4.048.552-7.912,1.288-11.96,1.84-3.22.46-6.44,1.012-9.66,1.564a9.546,9.546,0,0,1-.92.368,15.276,15.276,0,0,0,2.024-.276c3.312-.552,6.808-1.1,10.12-1.656L25.852-61c2.852-.368,5.612-.828,8.464-1.1,1.84-.276,3.772-.46,5.428-.736,3.588-.46,7.084-.92,10.672-1.2a12.074,12.074,0,0,1,2.484-.276c.736-.092,1.012.368.736,1.012l-.92,1.748c-.828,1.1-1.656,2.392-2.484,3.5C48.76-55.66,47.2-53.36,45.724-50.968c-1.656,2.484-3.22,5.152-4.876,7.636-2.208,3.4-4.324,6.808-6.348,10.12-2.668,3.956-5.152,8-7.544,12.052-1.288,1.932-2.484,4.048-3.588,6.072C20.056-9.752,16.744-4.416,13.524.92c-.828,1.472-1.656,3.128-2.484,4.6-2.3,3.588-4.416,7.268-6.624,11.04C2.024,20.976-.276,25.392-2.668,29.716a20.6,20.6,0,0,0-1.1,2.668,8.083,8.083,0,0,0-.184,2.944.825.825,0,0,0,.92.92,1.418,1.418,0,0,0,1.2-.828,3.476,3.476,0,0,0,.828-1.1A33.009,33.009,0,0,1,.92,31.1a6.053,6.053,0,0,1-.368,1.38,3.294,3.294,0,0,0,1.012-2.3,1.816,1.816,0,0,1,.552-1.1c.552-.092.644-.552.736-1.012l-.828,1.012a11.976,11.976,0,0,1,.736-1.564c1.2-2.3,2.392-4.692,3.772-6.992,1.012-1.84,2.3-3.5,3.22-5.336,3.22-5.612,6.532-10.948,9.66-16.468a18.525,18.525,0,0,1,2.024-2.668c-.276.276-.276.644-.368,1.1C21.8-3.68,22.816-4.6,22.264-5.8A10.983,10.983,0,0,0,23-7.268a1.616,1.616,0,0,0,.828-.92,25.7,25.7,0,0,1,1.656-3.128,4.5,4.5,0,0,1,1.1-1.2H26.5c.276,0,.552-.092.552-.46a1.873,1.873,0,0,1,.368-1.472c1.1-1.656,2.024-3.4,3.128-5.06a10.413,10.413,0,0,0,.92-1.2c.276-.092.368-.092.46,0a2.67,2.67,0,0,0,1.1-2.024c-.092-.46.276-.828.46-1.1a6.441,6.441,0,0,0,.828-1.564,5.7,5.7,0,0,1,1.012-1.564,37.413,37.413,0,0,1,2.852-4.876,12.955,12.955,0,0,1,2.484-3.4,2.166,2.166,0,0,0,.46-.92,8.6,8.6,0,0,1,2.3-3.4,11.627,11.627,0,0,1,1.2-2.392c.276-.552.736-1.012,1.1-1.656,1.932-2.944,3.68-5.98,5.612-8.924A40.8,40.8,0,0,1,54-56.4c.736-1.38,1.472-2.668,2.208-3.956a5.551,5.551,0,0,1,.736-.736c.092-.276.368-.276.552-.092.368-.368.736-.828.552-1.288A1.419,1.419,0,0,1,58.7-63.94a7.055,7.055,0,0,1,3.128-1.472,40.844,40.844,0,0,0,5.612-.736,36.436,36.436,0,0,0,4.784-.644,12.266,12.266,0,0,0-1.84,0l-6.716.644c-.092,0-.092-.092-.184-.092a.321.321,0,0,1,.092-.184,11.639,11.639,0,0,1,5.152-.828,20.108,20.108,0,0,0,6.164-.644,5.312,5.312,0,0,1,2.576-.368c.368,0,.736,0,.736.46-.184.184-.46.184-.736.276h-1.38c-.552.184-1.2.184-2.024.368a1.43,1.43,0,0,0,1.472.092c2.852-.184,5.7-.552,8.372-.828,1.012-.184,2.024-.276,2.944-.368,1.748,0,3.4-.368,5.244-.552.368-.184.46-.368.368-.644a.591.591,0,0,1,.46-.46c1.1,0,2.392-.276,3.588-.368,1.2,0,2.576-.276,3.864-.184a1.566,1.566,0,0,0,.644-.092,19.8,19.8,0,0,1,4.6-.644c.184,0,.46-.184.644-.184.368-.092.552-.184.644-.552.184-.276-.092-.552-.368-.644a2.4,2.4,0,0,0-.736-.276,10.1,10.1,0,0,0-2.392.184,28.49,28.49,0,0,1-3.864.184,19.525,19.525,0,0,1-6.44.552,21.432,21.432,0,0,1-4.232.736c-3.588.46-7.268.552-11.04,1.1-2.116.368-4.416.46-6.532.644-2.852.368-5.8.736-8.74.92a.732.732,0,0,1-1.012-.092A3.167,3.167,0,0,1,63.3-69c1.38-.184,2.76-.276,4.14-.46,3.128-.46,6.256-.736,9.476-1.012a66.614,66.614,0,0,0,7.176-.92c1.288-.092,2.484-.092,3.588-.184.184-.092.46,0,.644-.092a14.247,14.247,0,0,1,4.784-.276,2.2,2.2,0,0,1,.828-.184,39.18,39.18,0,0,1,5.612-.368c.46-.092.736-.368,1.1-.368l3.956-.276a7.535,7.535,0,0,0,2.76-.644C107.548-73.876,107.64-74.244,107.548-74.336ZM91.08-69.46h.276l-.092.184H91.08C90.988-69.46,91.08-69.46,91.08-69.46Zm-5.428.184A16.14,16.14,0,0,1,89.24-69c-2.576.736-3.956.736-5.244.184A3.027,3.027,0,0,1,85.652-69.276Zm-5.428.92c.092,0,.092.092.276.092l-.276.184c-.092.184-.184,0-.184,0C80.04-68.264,80.132-68.356,80.224-68.356Zm1.84,0h.092a.09.09,0,0,1-.092.092.09.09,0,0,1-.092.092C81.88-68.264,81.88-68.356,82.064-68.356Zm-26.772.644a.689.689,0,0,1-.46.092,42.975,42.975,0,0,0-4.784.736,14.761,14.761,0,0,1-2.852,0,7.851,7.851,0,0,1-2.852.552c-4.508.644-8.924,1.2-13.432,1.932a6.848,6.848,0,0,1-1.38,0,.687.687,0,0,1-.276-.276c-.092-.276.184-.276.46-.46a7.548,7.548,0,0,1,2.024-.184,9.609,9.609,0,0,0,2.3,0,17.083,17.083,0,0,0,3.128-.46l.736-.092c.644,0,.92-.736,1.564-.736.46.184,1.012.368,1.288.184,1.472-.644,2.668.184,4.048-.46h2.484a4.986,4.986,0,0,1,2.76-.736,39.755,39.755,0,0,0,4.6-.276c.184,0,.46-.184.644-.184a.34.34,0,0,0,.276.184C55.476-67.8,55.384-67.712,55.292-67.712Zm-1.1,2.484c-.092.092-.184.092-.368.276a3.985,3.985,0,0,1-.46.092l-4.416.552-.736-.184-.092-.184.184-.184c1.84-.276,3.588-.46,5.336-.644.092-.184.46,0,.552.092C54.28-65.412,54.188-65.32,54.188-65.228ZM25.116-63.756a5.585,5.585,0,0,1-1.656.46c-1.932.276-3.864.552-5.8.92-1.564.368-3.128.736-4.692,1.012a26.966,26.966,0,0,1-2.668.46,37.483,37.483,0,0,1-5.336,1.288c-.276,0-.368,0-.46-.092,0,0-.092,0-.092-.184.092,0,.092-.184.184-.184a2.007,2.007,0,0,1,.46-.368c.644-.184,1.2-.276,1.748-.46,3.864-.736,7.82-1.564,11.592-2.208a12.351,12.351,0,0,1,3.22-.368c1.1,0,2.392-.368,3.5-.276.46-.184.828-.46,1.38-.644a1.417,1.417,0,0,1,1.472.184A6.4,6.4,0,0,1,25.116-63.756ZM46-64.216h-.184L46-64.308Zm-3.312.46a17.322,17.322,0,0,1-2.852.368,11.7,11.7,0,0,1-2.944.368c-.184,0-.368.092-.644.092h-.092c0-.092,0-.092.184-.092h.552a1.233,1.233,0,0,1,1.288-.46c.644,0,1.012.092,1.656.092a1.47,1.47,0,0,1,.92-.46,13.025,13.025,0,0,0,1.84-.368,1.349,1.349,0,0,1,.368.184A.294.294,0,0,1,42.688-63.756Zm.736,24.84a.285.285,0,0,1,.092-.184c0-.184-.092-.276-.092-.46a.829.829,0,0,1-.092.46C43.332-38.916,43.332-38.916,43.424-38.916ZM20.976-2.668h.092v-.184ZM73.14-8.924c-.184-.184-.184-.368,0-.644a.791.791,0,0,0-.092-1.2,1.7,1.7,0,0,1-.46-1.1c0-.644-.368-.92-1.012-.736l-.828.276c-.92.368-1.84.736-2.76,1.012L63.664-9.66A57.094,57.094,0,0,1,56.12-6.9h-.276a25.026,25.026,0,0,1-4.508,1.2c-1.564.184-3.22.368-4.784.46a10.5,10.5,0,0,1-3.4-.46,1.849,1.849,0,0,1-.736-.368.56.56,0,0,1,.092-.92,1.706,1.706,0,0,1,.644-.184,43.639,43.639,0,0,0,4.14-1.38c.184-.092.46-.092.736-.184a.09.09,0,0,1,.092.092v.184l-.368.276a13.732,13.732,0,0,1-3.68,1.38,1.167,1.167,0,0,0-.552.092c-.092,0-.276.092-.276.184,0,.184.184.184.276.184a3.13,3.13,0,0,0,.92-.092,33.184,33.184,0,0,0,5.612-2.392,2.384,2.384,0,0,0,1.012-.92,8.17,8.17,0,0,1,1.472-2.024,3.206,3.206,0,0,0,.92-2.668,9.8,9.8,0,0,0-1.564-4.6,2.857,2.857,0,0,0-2.576-1.38,6.838,6.838,0,0,0-4.324,1.472,28.45,28.45,0,0,0-3.772,3.68,9.4,9.4,0,0,0-2.208,5.98c0,1.012,0,2.116.092,3.128a7.359,7.359,0,0,0,2.024,4.14A7.5,7.5,0,0,0,46.184,0,32.6,32.6,0,0,0,52.9-.644,68.314,68.314,0,0,0,63.3-3.956a84.336,84.336,0,0,0,8.28-3.772,2.711,2.711,0,0,1,1.2-.46,1.308,1.308,0,0,0,.552-.184C73.232-8.556,73.232-8.74,73.14-8.924ZM47.472-18.216c.276-.092.368-.184.092-.46,0-.092.092-.276.184-.276a3.879,3.879,0,0,1,1.748-.276c.092.092.184.092.184.184.092.184-.092.184-.184.276-.092,0-.276.092,0,.184.092,0,.276,0,.276.184l-.276.184a.829.829,0,0,0-.46.092,10.853,10.853,0,0,0-1.84.368,9.97,9.97,0,0,0-1.748.736A2.623,2.623,0,0,1,47.472-18.216Zm2.484,1.932a.285.285,0,0,1-.092.184.338.338,0,0,1-.276.092A5.236,5.236,0,0,0,46.92-15a1.48,1.48,0,0,1,1.1-1.2,2.55,2.55,0,0,1,1.84-.276A.321.321,0,0,1,49.956-16.284Zm-4.14,2.668a9.332,9.332,0,0,0,1.2-.828,4.567,4.567,0,0,1,2.024-.92.433.433,0,0,1,.552.092.786.786,0,0,1,0,.644,7,7,0,0,1-1.84,1.84,7.809,7.809,0,0,1-2.024.828c-.368.092-.552-.092-.552-.644C45.08-13.064,45.356-13.34,45.816-13.616Zm2.576,2.3c-.184.276-.46.276-.736.368l-.184.184s-.092.092-.092,0c-.092,0-.092-.092.092-.092a.321.321,0,0,1,.184-.092c.184-.184.368-.46.644-.46,0-.092.092,0,.092,0ZM43.424-9.384c0-.184.184-.276.368-.276a8.1,8.1,0,0,1,1.38-.46c.092-.092.184,0,.184.092a.285.285,0,0,1-.092.184l-.184.184a.321.321,0,0,1,.092.184.09.09,0,0,0-.092.092,5.621,5.621,0,0,1-1.288.644c-.184,0-.46.184-.552-.092C43.148-9.016,43.24-9.2,43.424-9.384Zm1.656-.184V-9.66S44.988-9.66,45.08-9.568Zm4.692.184v-.092h.092Zm23,1.2c.184,0,.368.092.552.092A1.167,1.167,0,0,0,72.772-8.188Zm-8.648,3.22c-2.392,1.012-4.876,1.932-7.36,2.76A29.454,29.454,0,0,1,50.508-.736a22.648,22.648,0,0,1-4.324-.092A.321.321,0,0,1,46-.92c0-.184.092-.276.184-.276.46,0,.92-.092,1.288-.092A32.259,32.259,0,0,0,56.856-2.76c2.116-.736,4.232-1.38,6.348-2.3.644-.276,1.472-.46,2.208-.736a.433.433,0,0,1,.552.092A6.424,6.424,0,0,1,64.124-4.968Zm-12.788.736a53.56,53.56,0,0,0,5.52-1.288c.184.368,0,.368-.184.368l-1.1.552h.092a.285.285,0,0,0,.184.092c.092.092.092.184,0,.184-.092.092-.184.184-.276.184a25.258,25.258,0,0,1-7.36,1.288.367.367,0,0,1-.368-.184A16.981,16.981,0,0,1,49.956-3.4c-1.472-.092-2.944.368-4.416-.276C47.564-3.864,49.5-3.956,51.336-4.232Zm1.656.368A7.057,7.057,0,0,0,55.568-4.6l-1.288.276A3.12,3.12,0,0,0,52.992-3.864ZM51.7-3.68l-.092-.092-.092.092h.092ZM111.78-14.628a.338.338,0,0,0-.276-.092,2.273,2.273,0,0,0,.368-.828.453.453,0,0,0-.552-.368,8.156,8.156,0,0,0-1.564.736,10.2,10.2,0,0,1-2.76,1.1,4.931,4.931,0,0,0-1.012.46c-1.472.92-3.128,1.564-4.6,2.576l-.644.276c-1.656.92-3.4,1.84-5.06,2.852a13.9,13.9,0,0,1-3.4,1.38.829.829,0,0,1-.46-.092.411.411,0,0,1,0-.46c.644-1.2,1.012-2.576,2.208-3.4a.919.919,0,0,0,.368-.46c0-.46-.46-.736-.368-1.1,0-.368.368-.644.184-1.012a.7.7,0,0,0-.184-.46,2.356,2.356,0,0,1-.736-1.748c-.092-.736-.736-1.012-1.472-.828-.184.092-.276.184-.368.184A.409.409,0,0,1,90.9-16.1c-.184-.276-.276-.644-.46-.92-.184-.46-.368-1.012-.552-1.38a3.8,3.8,0,0,0-2.76-2.116,31.292,31.292,0,0,0-4.14.276.285.285,0,0,1-.184.092,18.434,18.434,0,0,0-4.508,2.116,6.506,6.506,0,0,0-1.656,1.1,13.714,13.714,0,0,1-1.84,1.38,20.623,20.623,0,0,0-5.244,4.508,11.026,11.026,0,0,0-1.012,1.1,5.986,5.986,0,0,0-1.564,4.692c.092.46.092.92.184,1.38a3.53,3.53,0,0,0,1.012,2.3c.184.276.46.46.644.736A2.261,2.261,0,0,0,70.84,0a9.772,9.772,0,0,0,1.748-.368,36.425,36.425,0,0,0,8-3.5C82.156-4.6,83.628-5.428,85.1-6.256a8.548,8.548,0,0,1,.92-.46c.276-.092.46,0,.644.276a3.5,3.5,0,0,1,.276,1.656,4.367,4.367,0,0,0,1.84,3.312,2.5,2.5,0,0,0,1.564.736,7.842,7.842,0,0,0,2.116-.276,32.993,32.993,0,0,0,6.624-2.944c3.4-1.932,6.808-3.772,10.12-5.8a3.268,3.268,0,0,1,.828-.368,5.057,5.057,0,0,1,1.564-1.2,3.3,3.3,0,0,1,.92-.644,1.136,1.136,0,0,0,.368-.736c-.092-.184,0-.368,0-.552C113.068-14.352,112.976-14.536,111.78-14.628ZM80.316-17.2v-.276a5.693,5.693,0,0,1,3.036-1.564A13.181,13.181,0,0,1,86.48-19.6c.184,0,.368.092.552.092.184.092.184.276.184.46a.338.338,0,0,1-.092.276,4.049,4.049,0,0,1-.92.184,50.356,50.356,0,0,0-5.06,1.2c-.276.092-.552.092-.828.184a3.311,3.311,0,0,1-1.84,1.012A3.311,3.311,0,0,1,80.316-17.2Zm7.084.276a.244.244,0,0,1-.276.276c-.184,0-.368.092-.552.092a19.207,19.207,0,0,0-3.956,1.012,1.07,1.07,0,0,1-.92.184c-.092,0-.092,0-.092-.092v-.092l.276-.276a12.359,12.359,0,0,1,4.876-1.288h.276A.478.478,0,0,1,87.4-16.928ZM88.136-15a7.3,7.3,0,0,1-1.748,2.024c-.92.644-1.84,1.2-2.76,1.748-1.932.92-3.772,1.932-5.612,2.944a2,2,0,0,0-.736.46,10.586,10.586,0,0,1-2.3,1.1,7.6,7.6,0,0,0-2.024.736.7.7,0,0,1-.46.184c-.092,0-.276,0-.276-.092-.092-.092-.184-.276-.092-.368a.8.8,0,0,1,.276-.552c1.012-1.1,2.116-2.208,3.22-3.22s2.3-1.84,3.5-2.76a3.03,3.03,0,0,1,1.2-.644c0-.092.092-.092.184-.184A11.438,11.438,0,0,1,86.572-16.1a2.265,2.265,0,0,1,1.1.092C88.228-15.824,88.412-15.456,88.136-15Zm22.448,1.012h-.092a.09.09,0,0,1,.092-.092c.092-.092.092-.092.184-.092ZM99.82-8.1a1.431,1.431,0,0,1-.736.552A2.214,2.214,0,0,1,99.82-8.1ZM85.008-6.808c0,.092-.092.092-.184.184a32.585,32.585,0,0,0-3.036,1.748L77.832-2.944A25.438,25.438,0,0,1,73.508-1.1a5.921,5.921,0,0,1-2.208.46h-.46c0-.092-.092-.092-.092-.184s0-.184.092-.184l.552-.276a20.035,20.035,0,0,0,5.152-1.748,50.788,50.788,0,0,0,4.968-2.576,29.279,29.279,0,0,1,2.944-1.472.553.553,0,0,1,.368-.092c.092,0,.276,0,.276.184A.285.285,0,0,1,85.008-6.808Zm-13.984.644a.338.338,0,0,1,.276-.092.09.09,0,0,0-.092.092.321.321,0,0,1-.184.092Zm30.084.552a1.583,1.583,0,0,1-1.288.092.763.763,0,0,1-.276.736l-1.1.736a45.128,45.128,0,0,1-5.244,2.3,4.314,4.314,0,0,1-2.208.368l-.368-.092c-.092,0-.092-.092-.092-.184s0-.184.092-.184a2.165,2.165,0,0,1,.736-.184,12.47,12.47,0,0,0,3.956-1.288,13.505,13.505,0,0,1,3.128-1.38,6.862,6.862,0,0,0,1.38-.828,2.851,2.851,0,0,1,1.2-.552c.092,0,.368-.092.368.184C101.476-5.7,101.2-5.612,101.108-5.612Zm-24.656.368a1.27,1.27,0,0,1,.368-.276H77c-.092.092-.092.184-.184.184A.7.7,0,0,0,76.452-5.244ZM70.38-3.312c-.092-.276.092-.46.368-.46a20.306,20.306,0,0,1,3.22-.736,2.379,2.379,0,0,1,2.208-.46l-.46.276a1.3,1.3,0,0,1-1.748.184,1.188,1.188,0,0,1-.828,1.2,6.5,6.5,0,0,1-2.208.552C70.564-2.668,70.38-2.944,70.38-3.312Zm20.608-1.2a3,3,0,0,1,1.288-.368l.184.184a.09.09,0,0,1-.092.092,3,3,0,0,1-1.288.368L90.9-4.324C90.9-4.416,90.9-4.508,90.988-4.508Zm.644.552v.184a.608.608,0,0,1-.552.092c-.092,0-.092-.092-.092-.184C91.08-4.048,91.448-4.048,91.632-3.956ZM147.66-9.384a.72.72,0,0,0,0-1.012,1.449,1.449,0,0,1-.368-1.2c.276-.552-.368-1.012-.828-.92a6.212,6.212,0,0,0-1.288.184l-6.256,1.656a1.948,1.948,0,0,0-.644.276,8.314,8.314,0,0,1-1.932.736c-2.3.552-4.508,1.288-6.9,1.748-1.748.368-3.4.828-5.152,1.2-1.564.368-3.128.736-4.692,1.012a26.663,26.663,0,0,1-5.8.46,37.773,37.773,0,0,1-4.876-.276c-1.288-.092-1.288-.736-.644-1.656a29.217,29.217,0,0,1,4.784-5.336,11.425,11.425,0,0,1,2.116-1.564,7.983,7.983,0,0,1,3.128-1.1,7,7,0,0,1,1.932.276c.552.184.736.552.368,1.2l-.552.92a3.1,3.1,0,0,0-.368,2.024.983.983,0,0,0,1.472.644,1.883,1.883,0,0,0,.736-.736,17.258,17.258,0,0,1,1.1-1.656,2.286,2.286,0,0,0,.644-2.024,7.954,7.954,0,0,0-.828-3.22,2.176,2.176,0,0,0-1.012-1.2,5.359,5.359,0,0,0-2.668-.828h-2.024a6.6,6.6,0,0,0-3.312,1.2,4,4,0,0,1-.644.368A9.853,9.853,0,0,0,109.3-15.64c-1.012,1.1-2.024,2.208-3.036,3.4a11.858,11.858,0,0,0-1.748,2.944,5.848,5.848,0,0,0-.552,1.656,18.819,18.819,0,0,0,0,3.22,4.744,4.744,0,0,0,3.4,3.864,9.706,9.706,0,0,0,2.852.368A20,20,0,0,1,113.528,0h1.748a51.662,51.662,0,0,0,9.2-1.38c5.52-1.288,11.04-2.76,16.468-4.6a55.909,55.909,0,0,0,5.52-1.932c.552-.276,1.2-.368,1.012-1.2C147.384-9.2,147.568-9.292,147.66-9.384Zm-34.592-7.268a2,2,0,0,1,.736-.46,6.455,6.455,0,0,0,1.472-.92,2.306,2.306,0,0,1,.644-.368,9.547,9.547,0,0,1,2.944-.368,8.871,8.871,0,0,1,1.1.184.478.478,0,0,1,.368.184.7.7,0,0,1,.184.368q0,.138-.276.276h-.46a19.23,19.23,0,0,1-2.3.092,8.826,8.826,0,0,0-3.68,1.012c-.184.092-.46.092-.644.184h-.092Zm6.9,1.012a14.977,14.977,0,0,0-2.852.276c-.552.092-1.012.184-1.748.368a1.632,1.632,0,0,1,.92-.736,6.672,6.672,0,0,1,3.772-.368c.184,0,.368.092.368.184C120.428-15.64,120.152-15.64,119.968-15.64ZM112.332-12.6c.092,0,.184,0,.184-.092a.321.321,0,0,1-.092.184.09.09,0,0,0-.092.092C112.24-12.512,112.24-12.512,112.332-12.6ZM142.6-9.752a.09.09,0,0,1-.092-.092l.092-.092c.184-.092.184,0,.184.092Zm-32.936-.092v.092c-.092,0-.092.092-.184.092.092-.092.092-.092.092-.184C109.664-9.936,109.664-9.936,109.664-9.844Zm31.372,3.22c-.276.092-.552.276-.92.092,0-.184.184-.184.276-.184.644-.092,1.2-.276,1.84-.368A2.711,2.711,0,0,1,141.036-6.624Zm-12.512.552a2.45,2.45,0,0,1-1.1.276C127.7-6.072,128.156-5.98,128.524-6.072Zm8.464.736-1.748.552c-3.128.828-6.348,1.748-9.568,2.576a45.083,45.083,0,0,1-7.82,1.472A44.34,44.34,0,0,1,109.3-.92L108.284-1.2c-.092,0-.092-.092-.184-.184.092,0,.184-.092.276-.092a11.73,11.73,0,0,1,1.748.092c1.012,0,2.024.092,3.036.092a44.784,44.784,0,0,0,13.524-1.748c3.22-.736,6.348-1.564,9.476-2.484A1.733,1.733,0,0,1,136.9-5.7s.184,0,.184.092C137.172-5.52,137.08-5.428,136.988-5.336Zm-29.164,1.38c0-.184.184-.092.368-.092a16.286,16.286,0,0,1,2.116.092,43.7,43.7,0,0,0,14.26-1.288,3.142,3.142,0,0,1,1.38-.184c-.276.368-.552.276-.828.368-1.2.368-2.484.552-3.68,1.012h1.472a5.657,5.657,0,0,1,1.012-.276,1.855,1.855,0,0,1-1.012.276,4.07,4.07,0,0,1-1.38.46,38.147,38.147,0,0,1-7.176.828,1.513,1.513,0,0,1-.92-.184v-.092c-.092,0,0-.092,0-.092.184,0,.368-.092.552-.092.92-.092,1.84-.092,2.668-.092A1.364,1.364,0,0,0,117.3-3.4h-1.2a58.282,58.282,0,0,1-8-.368C108.008-3.772,107.824-3.864,107.824-3.956Zm13.064.092h.184c.092-.092.276-.092.368-.184a.553.553,0,0,1-.368.092C120.98-3.956,120.888-3.956,120.888-3.864Zm-1.564.184h-.184a.09.09,0,0,0-.092.092h.092A.321.321,0,0,1,119.324-3.68Zm83.812-63.2a5.95,5.95,0,0,0-.368-1.2.692.692,0,0,0-.644-.46,2.273,2.273,0,0,0-.828.368l-1.656,1.38a32.97,32.97,0,0,1-2.668,2.392,9.846,9.846,0,0,0-1.472,1.288c-.644.552-1.2,1.1-1.748,1.656-.92.828-1.748,1.656-2.576,2.484-.552.552-1.1,1.1-1.656,1.564a18.967,18.967,0,0,0-2.392,2.3L185.84-53.82c-1.38,1.2-2.76,2.576-4.14,3.864-2.3,2.024-4.416,4.232-6.716,6.256-2.76,2.484-5.336,5.336-8.188,7.728-.552.46-1.012,1.012-1.564,1.472a59.827,59.827,0,0,0-4.876,4.784c-2.208,2.116-4.048,4.6-6.348,6.624-.092.092-.276.184-.368.368a14.142,14.142,0,0,1-1.564,1.748,35.4,35.4,0,0,0-2.484,2.76c-.644.736-1.2,1.472-1.932,2.208a13.323,13.323,0,0,0-1.564,1.656c-1.288,1.472-2.484,2.944-3.68,4.416a5.066,5.066,0,0,0-.828,1.288,2.109,2.109,0,0,0-.184,1.656,6.413,6.413,0,0,1,.552,1.748,2.51,2.51,0,0,0,.644,1.2,2.713,2.713,0,0,0,3.5.644c.092,0,.184-.092.276-.092q2.622-1.1,5.244-2.484a82.162,82.162,0,0,1,8-4.14,26.88,26.88,0,0,1,4.784-1.748c.092-.092.184-.092.368-.092.368-.092.552.276.552.644a2.764,2.764,0,0,1-.552,1.012c-.46.92-1.012,1.748-1.564,2.668a3.15,3.15,0,0,0-.46,2.024,18.423,18.423,0,0,0,.368,2.208A1.679,1.679,0,0,0,164.4-2.116c.368.092.736.092.644.644,0,.184.276.184.46.184a4.334,4.334,0,0,0,1.564-.368c3.312-1.2,6.44-2.668,9.66-3.956A70.924,70.924,0,0,1,185.2-8.556c2.116-.552,4.232-1.2,6.256-1.84.552-.092.552-.184.368-.828a1.307,1.307,0,0,1,.184-.552c.184-.552.184-.92-.276-1.2a2.728,2.728,0,0,0-1.38-.644c-.368.184-.828.276-.828.92-.092.184-.368.276-.644.368l-2.3.552c-2.392.644-4.692,1.288-6.9,2.024a7.664,7.664,0,0,1-1.38.368,7.6,7.6,0,0,1,1.2-.644,4.757,4.757,0,0,0,1.2-.552,13.42,13.42,0,0,0-4.048,1.472,7.1,7.1,0,0,1,1.38-.184,10.662,10.662,0,0,1-3.68,1.472,1.911,1.911,0,0,1-1.1.46,1.615,1.615,0,0,1,.368-.46,3.74,3.74,0,0,0-1.748.736h.736a3.42,3.42,0,0,1-1.748.828,8.054,8.054,0,0,1-2.392,1.1c-.092,0-.092-.092-.184-.092,0-.092.092-.184.092-.276.184-.092.276-.184.46-.276a3.627,3.627,0,0,0,1.288-.46,2.686,2.686,0,0,0-1.288.46c-.184-.184-.276-.368,0-.552a1.849,1.849,0,0,1,.736-.368c3.128-1.288,6.256-2.668,9.476-3.864a74.991,74.991,0,0,1,9.844-2.852,8.052,8.052,0,0,1,1.472-.184l.368-.368c.46-.276.368-.644.092-.828-.46-.46-.736-.552-1.288-.276a10.1,10.1,0,0,1-3.22,1.012,17.092,17.092,0,0,0-3.864,1.1,10.316,10.316,0,0,1-1.2.46,19.724,19.724,0,0,0-4.968,1.656c-1.564.736-3.312,1.472-4.968,2.116-.644.276-.92.092-1.012-.644v-.46c-.092.184-.276.276-.46.46-.092.092-.276.276-.368.184-.184-.092-.092-.276,0-.46.276-.46.46-.92.736-1.288a2.766,2.766,0,0,0,.092-3.22A19.468,19.468,0,0,0,169.28-16.1a2.926,2.926,0,0,0-2.3-1.38,4.479,4.479,0,0,0-1.1.092c-2.116.184-3.956,1.1-5.98,1.656-.276.092-.552.368-.828.46a5.627,5.627,0,0,1-1.1.46,18.379,18.379,0,0,0-4.14,1.84,2.642,2.642,0,0,1-2.576.552,7.43,7.43,0,0,1,2.576-2.76l.276-.276h-.092l.276-.276c.46-.644.828-1.2,1.38-1.84,2.024-2.208,4.048-4.416,6.164-6.624a18.864,18.864,0,0,1,3.128-2.944,6.132,6.132,0,0,1,2.3-2.3l.276-.276v.092a1.449,1.449,0,0,1,.644-.644,4,4,0,0,1,.644-.368v-.276a2.713,2.713,0,0,1,1.288-1.2c.552-.368.644-1.1,1.2-1.38.092-.092.276-.184.368-.276l.828-.736a17.081,17.081,0,0,1,2.668-2.484l1.1-1.38a1.45,1.45,0,0,1,.644-.644,3.83,3.83,0,0,0,1.748-1.656,1.831,1.831,0,0,1,.736-1.1c.184-.184.276-.46.46-.644a9.866,9.866,0,0,1,2.668-2.484c.092-.092.184.092.276.276a5.613,5.613,0,0,0,1.748-1.84c-.092.092-.184.184-.276.184H184v-.184a7.434,7.434,0,0,1,1.472-1.472.345.345,0,0,1,.552,0c.368-.184.92-.368.92-.828a1.3,1.3,0,0,1,.644-1.288c1.656-1.748,3.312-3.4,4.968-5.06a7.945,7.945,0,0,0,1.288-1.2c.92-1.1,2.024-2.024,3.036-3.036a2.172,2.172,0,0,1,.828-.552,8.261,8.261,0,0,1,3.128-3.036h-.092a20.2,20.2,0,0,0,1.288-1.656,13.525,13.525,0,0,0,.92-1.2A1.583,1.583,0,0,0,203.136-66.884Zm-4.876,6.992v-.184h-.184a.7.7,0,0,1-.368.184v.46A2.439,2.439,0,0,0,198.26-59.892ZM184.552-46.46c.092,0,.184-.092.276-.184C184.736-46.644,184.644-46.552,184.552-46.46Zm-14.628,9.936a2.14,2.14,0,0,1-1.1.736,5.361,5.361,0,0,1,2.116-1.932A6.334,6.334,0,0,1,169.924-36.524Zm-9.292,14.26-.276.184v.092Zm-6.072,1.288h-.184v-.092a1.1,1.1,0,0,1,.644-.644A1.264,1.264,0,0,1,154.56-20.976Zm6.164,6.256a26.493,26.493,0,0,1,4.6-1.38,2.954,2.954,0,0,1,1.288-.092c.184,0,.184.184.276.368,0,.184-.092.276-.276.368a.7.7,0,0,1-.46.184,72.794,72.794,0,0,0-14.168,5.8,4.227,4.227,0,0,1-1.472.644c.092-.184.092-.368.184-.552a7.21,7.21,0,0,1-1.932.828h-.092v-.092a2.512,2.512,0,0,1,1.1-.828A119.479,119.479,0,0,1,160.724-14.72Zm-6.44-.736H154.1v.184Zm-.184.276v-.092l-.092.092Zm8.28.46a2.686,2.686,0,0,0,.828-.184C162.932-14.812,162.656-14.812,162.38-14.72Zm-2.76,1.1a1.308,1.308,0,0,0-.552.184v.092l.092-.092Zm5.8.92a50.163,50.163,0,0,0-10.58,4.324l-6.808,3.5a9.97,9.97,0,0,1-1.748.736,1.308,1.308,0,0,1-.552.184.2.2,0,0,1-.184-.184c-.092,0,0-.184,0-.184l.644-.368a74.187,74.187,0,0,0,7.636-3.864,55.759,55.759,0,0,1,10.764-4.6,4.836,4.836,0,0,1,1.564-.368.244.244,0,0,1,.276.276c-.092.092-.092.184-.184.184C165.968-12.972,165.692-12.788,165.416-12.7Zm-7.544-.184-.552.276c-.184,0-.276.092-.46.184.184-.092.368-.092.552-.184A2.011,2.011,0,0,1,157.872-12.88Zm30.176.276a.285.285,0,0,1,.184-.092h-.184Zm-.276.092h.092a.285.285,0,0,1,.184-.092h-.184C187.772-12.6,187.68-12.6,187.772-12.512Zm-2.76.644c.368-.092.644-.184,1.012-.276Zm-1.748.46a1.733,1.733,0,0,0,.736-.184Zm-1.012.276a2.1,2.1,0,0,0,1.012-.276Zm-1.564.552a3.207,3.207,0,0,0,1.564-.552A4.53,4.53,0,0,0,180.688-10.58ZM167.072-2.852c3.4-1.2,6.716-2.76,10.12-4.14A98.77,98.77,0,0,1,189.7-10.948a1,1,0,0,1,.46-.092.478.478,0,0,1,.368.184.2.2,0,0,1-.184.184,2.042,2.042,0,0,1-1.012.46c-2.208.644-4.508,1.2-6.716,1.932a55.728,55.728,0,0,0-6.9,2.484c-2.668,1.1-5.244,2.392-8,3.312a.7.7,0,0,1-.46.184c-.368.092-.644.368-1.012.184C165.968-2.3,166.336-2.576,167.072-2.852ZM152.72-10.4a1.308,1.308,0,0,0,.552-.184C153.088-10.488,152.9-10.488,152.72-10.4Zm0,0a2.011,2.011,0,0,1-.46.276l.552-.276Zm-.46.276-.552.276a2.011,2.011,0,0,1-.46.276l.552-.276A2.011,2.011,0,0,1,152.26-10.12Zm-1.564.736a1.308,1.308,0,0,0,.552-.184C151.064-9.476,150.88-9.476,150.7-9.384Zm25.944.276a3.226,3.226,0,0,0-1.288.552A3.226,3.226,0,0,0,176.64-9.108ZM147.752-7.544a6.063,6.063,0,0,1,2.208-1.012,5.46,5.46,0,0,1-2.116,1.288.285.285,0,0,1-.184-.092S147.66-7.544,147.752-7.544ZM173.6-7.82h.736l1.1-.736A3.269,3.269,0,0,0,173.6-7.82Zm-3.5,1.564h.736a9.778,9.778,0,0,1,1.012-.828,4.742,4.742,0,0,0-1.84.828ZM222.64-8.924c-.184-.184-.184-.368,0-.644a.791.791,0,0,0-.092-1.2,1.7,1.7,0,0,1-.46-1.1c0-.644-.368-.92-1.012-.736l-.828.276c-.92.368-1.84.736-2.76,1.012L213.164-9.66A57.094,57.094,0,0,1,205.62-6.9h-.276a25.026,25.026,0,0,1-4.508,1.2c-1.564.184-3.22.368-4.784.46a10.5,10.5,0,0,1-3.4-.46,1.849,1.849,0,0,1-.736-.368.56.56,0,0,1,.092-.92,1.706,1.706,0,0,1,.644-.184c1.472-.46,2.852-.828,4.14-1.38.184-.092.46-.092.736-.184a.09.09,0,0,1,.092.092v.184l-.368.276a13.732,13.732,0,0,1-3.68,1.38,1.167,1.167,0,0,0-.552.092c-.092,0-.276.092-.276.184,0,.184.184.184.276.184a3.13,3.13,0,0,0,.92-.092,33.184,33.184,0,0,0,5.612-2.392,2.384,2.384,0,0,0,1.012-.92,8.17,8.17,0,0,1,1.472-2.024,3.206,3.206,0,0,0,.92-2.668,9.8,9.8,0,0,0-1.564-4.6,2.857,2.857,0,0,0-2.576-1.38,6.838,6.838,0,0,0-4.324,1.472,28.45,28.45,0,0,0-3.772,3.68,9.4,9.4,0,0,0-2.208,5.98c0,1.012,0,2.116.092,3.128a7.359,7.359,0,0,0,2.024,4.14A7.5,7.5,0,0,0,195.684,0,32.6,32.6,0,0,0,202.4-.644a68.314,68.314,0,0,0,10.4-3.312,84.334,84.334,0,0,0,8.28-3.772,2.711,2.711,0,0,1,1.2-.46,1.308,1.308,0,0,0,.552-.184C222.732-8.556,222.732-8.74,222.64-8.924Zm-25.668-9.292c.276-.092.368-.184.092-.46,0-.092.092-.276.184-.276A3.879,3.879,0,0,1,199-19.228c.092.092.184.092.184.184.092.184-.092.184-.184.276-.092,0-.276.092,0,.184.092,0,.276,0,.276.184l-.276.184a.829.829,0,0,0-.46.092,10.853,10.853,0,0,0-1.84.368,9.97,9.97,0,0,0-1.748.736A2.623,2.623,0,0,1,196.972-18.216Zm2.484,1.932a.285.285,0,0,1-.092.184.338.338,0,0,1-.276.092A5.236,5.236,0,0,0,196.42-15a1.48,1.48,0,0,1,1.1-1.2,2.55,2.55,0,0,1,1.84-.276A.321.321,0,0,1,199.456-16.284Zm-4.14,2.668a9.333,9.333,0,0,0,1.2-.828,4.567,4.567,0,0,1,2.024-.92.433.433,0,0,1,.552.092.786.786,0,0,1,0,.644,7,7,0,0,1-1.84,1.84,7.809,7.809,0,0,1-2.024.828c-.368.092-.552-.092-.552-.644C194.58-13.064,194.856-13.34,195.316-13.616Zm2.576,2.3c-.184.276-.46.276-.736.368l-.184.184s-.092.092-.092,0c-.092,0-.092-.092.092-.092a.321.321,0,0,1,.184-.092c.184-.184.368-.46.644-.46,0-.092.092,0,.092,0Zm-4.968,1.932c0-.184.184-.276.368-.276a8.1,8.1,0,0,1,1.38-.46c.092-.092.184,0,.184.092a.285.285,0,0,1-.092.184l-.184.184a.321.321,0,0,1,.092.184.09.09,0,0,0-.092.092,5.62,5.62,0,0,1-1.288.644c-.184,0-.46.184-.552-.092C192.648-9.016,192.74-9.2,192.924-9.384Zm1.656-.184V-9.66S194.488-9.66,194.58-9.568Zm4.692.184v-.092h.092Zm23,1.2c.184,0,.368.092.552.092A1.167,1.167,0,0,0,222.272-8.188Zm-8.648,3.22c-2.392,1.012-4.876,1.932-7.36,2.76a29.454,29.454,0,0,1-6.256,1.472,22.648,22.648,0,0,1-4.324-.092A.321.321,0,0,1,195.5-.92c0-.184.092-.276.184-.276.46,0,.92-.092,1.288-.092a32.259,32.259,0,0,0,9.384-1.472c2.116-.736,4.232-1.38,6.348-2.3.644-.276,1.472-.46,2.208-.736a.433.433,0,0,1,.552.092A6.424,6.424,0,0,1,213.624-4.968Zm-12.788.736a53.559,53.559,0,0,0,5.52-1.288c.184.368,0,.368-.184.368l-1.1.552h.092a.285.285,0,0,0,.184.092c.092.092.092.184,0,.184-.092.092-.184.184-.276.184a25.258,25.258,0,0,1-7.36,1.288.367.367,0,0,1-.368-.184,16.98,16.98,0,0,1,2.116-.368c-1.472-.092-2.944.368-4.416-.276C197.064-3.864,199-3.956,200.836-4.232Zm1.656.368a7.057,7.057,0,0,0,2.576-.736l-1.288.276A3.12,3.12,0,0,0,202.492-3.864ZM201.2-3.68l-.092-.092-.092.092h.092Zm56.3-5.06c-.092-.46-.46-.828-1.2-.644a3.45,3.45,0,0,0-1.012.092.244.244,0,0,1-.276-.276.321.321,0,0,1,.184-.092c.276-.092.552-.092.828-.184a1.635,1.635,0,0,0,.92-.368.336.336,0,0,0,.184-.46.337.337,0,0,0-.368-.368h-.828a11.254,11.254,0,0,1-1.564.276c-2.392-.092-4.784.368-7.176.276-.92,0-1.932,0-2.852.092a3.484,3.484,0,0,1-1.38,0c-.828,0-1.656-.092-2.484-.092a22.125,22.125,0,0,1-6.44-1.2,2.011,2.011,0,0,0-.46-.276,1.076,1.076,0,0,1-.736-1.012,1.8,1.8,0,0,1-.092-.644,10.166,10.166,0,0,0-1.38-3.956,1.12,1.12,0,0,0-1.472-.644c-.46.092-.828.276-1.2.368a16.43,16.43,0,0,0-3.864,2.76c-.828.644-1.656,1.38-2.484,2.116a3.227,3.227,0,0,1-.736.46c-.46.276-.828.092-1.1-.368-.092-.184-.092-.46-.184-.644a.649.649,0,0,0-1.2-.184,20.817,20.817,0,0,0-1.2,1.84c-1.288,2.116-2.576,4.232-3.864,6.44a2.112,2.112,0,0,0-.368,1.288,5.06,5.06,0,0,1,.184,2.024.646.646,0,0,0,.368.828c.368.184.46.46.644.736.184.552,1.1.736,1.38.368a31.361,31.361,0,0,0,3.5-3.5,2.382,2.382,0,0,0,.644-1.012.465.465,0,0,1,.644-.46.8.8,0,0,0,.552-.276c.276-.368.736-.552.828-1.1a2,2,0,0,1,.46-.736h.276a1.109,1.109,0,0,0,.46-.46l.552-.552a1.849,1.849,0,0,0,.736-.368,13.173,13.173,0,0,1,2.024-1.38l.276-.276h-.276l.276-.276,1.38-1.1c.92-.828,1.38-.644,1.564.552a5.734,5.734,0,0,0,1.564,2.944A8.771,8.771,0,0,0,236.072-5.8a29.249,29.249,0,0,0,5.7.552,89.4,89.4,0,0,0,13.064-1.1,4.618,4.618,0,0,0,1.1-.184l.276-.184c.092,0,.092-.092.092-.184h-.184c-.644.092-1.288.276-1.932.368-1.932.184-3.864.368-5.8.644a44.641,44.641,0,0,1-6.072.184A16.847,16.847,0,0,1,238-6.164a1.308,1.308,0,0,1-.552-.184.2.2,0,0,1-.184-.184.321.321,0,0,1,.184-.092h1.1a50.06,50.06,0,0,0,5.244.276c1.012,0,2.116-.092,3.128-.184a71.516,71.516,0,0,0,8.924-.92c.276-.092.552-.092.828-.184C257.232-7.912,257.6-8.28,257.508-8.74Zm-27.968-8v-.092l.092.092ZM252.816-9.2c-.092.092-.184.092-.368.092-1.2.184-2.484.276-3.772.368a7.9,7.9,0,0,0-1.564.276h3.68c-.184.092-.368.092-.552.184A50.266,50.266,0,0,1,241.132-8a4.194,4.194,0,0,1-2.116-.46h1.2a20.861,20.861,0,0,1-2.3-.552c0-.368.276-.276.46-.184a86.017,86.017,0,0,0,9.752.092c1.656,0,3.312-.184,5.06-.276C253.184-9.2,253-9.2,252.816-9.2Zm-1.564.644a.553.553,0,0,1,.368-.092.338.338,0,0,1,.276.092Zm-11.04.092a5.384,5.384,0,0,0,1.2.184h4.416a6.212,6.212,0,0,0,1.288-.184C244.812-8.464,242.512-8.372,240.212-8.464Z" transform="translate(384.85 3495.357) rotate(-7)" fill="#e53729"/>
    <path id="パス_585" data-name="パス 585" d="M4.129,39.806a7,7,0,0,1-3.016-.611c-1.557-.778-1.469-2,.2-2.724a162.8,162.8,0,0,1,21.414-7.119c8.51-2.317,18.623-4.684,30.058-7.037,22.252-4.578,48.7-8.944,76.493-12.627,28.437-3.769,56.682-6.6,81.683-8.2C224.242.644,236.539.153,247.508.03c11.685-.13,21.949.159,30.51.859,2.246.184,3.747,1.183,3.354,2.231s-2.532,1.75-4.778,1.566c-8.027-.656-17.747-.926-28.889-.8-10.662.119-22.65.6-35.631,1.426C187.451,6.88,159.6,9.676,131.529,13.4c-27.431,3.636-53.51,7.94-75.419,12.447C33.389,30.517,16.389,35.165,6.947,39.287A7.257,7.257,0,0,1,4.129,39.806Z" transform="translate(378.58 3506.325) rotate(-2)" fill="url(#linear-gradient)"/>
  </g>
</svg>
